<?xml version="1.0" encoding="iso-8859-1"?>
<!-- Generator: Adobe Illustrator 17.1.0, SVG Export Plug-In . SVG Version: 6.00 Build 0)  -->
<!DOCTYPE svg PUBLIC "-//W3C//DTD SVG 1.1//EN" "http://www.w3.org/Graphics/SVG/1.1/DTD/svg11.dtd">
<svg version="1.1" id="Capa_1" xmlns="http://www.w3.org/2000/svg" xmlns:xlink="http://www.w3.org/1999/xlink" x="0px" y="0px"
	 viewBox="0 0 64 64" style="enable-background:new 0 0 64 64;" xml:space="preserve">
<g>
	<path style="fill:#1D1D1B;" d="M57.933,39.229c-0.448,0-0.996-0.396-1.222-0.882l-0.88-1.885c-0.227-0.486-0.845-0.923-1.379-0.974
		L42.85,34.377c-0.535-0.052-1.222-0.446-1.536-0.883l-4.216-5.877c-0.313-0.437-1.002-0.79-1.54-0.79h-7.215
		c-0.537,0-1.19-0.245-1.459-0.548c-0.269-0.302-0.922-0.548-1.459-0.548H12.172c-0.537,0-1.115,0.413-1.291,0.92l-1.333,3.859
		c-0.166-0.61-1.113-1.079-2.268-1.079H7.05c-1.271,0-2.302,1.029-2.302,2.302v6.031c0,1.258,0.454,2.273,1.016,2.298
		c-0.165,0.332-0.281,0.751-0.281,1.112v1.39c0,0.537,0.436,0.973,0.973,0.973h3.037c0.268,0,0.617,0.016,0.966,0.041
		c-0.166,0.59-0.261,1.21-0.261,1.853c0,3.776,3.062,6.838,6.837,6.838c3.776,0,6.837-3.062,6.837-6.838
		c0-0.003-0.001-0.007-0.001-0.011c0.167,0.007,0.324,0.011,0.459,0.011h17.996c0.067,0,0.14-0.002,0.216-0.003c0,0,0,0.001,0,0.003
		c0,3.776,3.061,6.838,6.837,6.838c3.776,0,6.837-3.062,6.837-6.838c0-0.578-0.08-1.136-0.215-1.673l0.431,0.017
		c0.537,0.019,1.094-0.384,1.245-0.899l0.792-2.712C58.621,39.647,58.38,39.229,57.933,39.229z M23.873,33.394H10.625l1.502-5.351
		h11.746V33.394z M27.209,33.798l-0.021-5.11h8.431l3.757,5.11H27.209z"/>
</g>
</svg>
