<?xml version="1.0" encoding="iso-8859-1"?>
<!-- Generator: Adobe Illustrator 17.1.0, SVG Export Plug-In . SVG Version: 6.00 Build 0)  -->
<!DOCTYPE svg PUBLIC "-//W3C//DTD SVG 1.1//EN" "http://www.w3.org/Graphics/SVG/1.1/DTD/svg11.dtd">
<svg version="1.1" id="Capa_1" xmlns="http://www.w3.org/2000/svg" xmlns:xlink="http://www.w3.org/1999/xlink" x="0px" y="0px"
	 viewBox="0 0 64 64" style="enable-background:new 0 0 64 64;" xml:space="preserve">
<g>
	<path d="M22.852,34.835c0.76,0,1.276-0.502,1.276-1.161c0-0.817-0.616-1.305-1.462-1.534c-0.716,0.201-1.133,0.717-1.133,1.391
		C21.52,34.205,22.036,34.835,22.852,34.835z"/>
	<path d="M22.996,30.521c0.502-0.144,0.946-0.603,0.946-1.175c0-0.588-0.33-1.162-1.133-1.162c-0.745,0-1.118,0.502-1.118,1.075
		C21.691,29.891,22.25,30.292,22.996,30.521z"/>
	<path d="M42.429,34.521c0.573,0,1.018-0.373,1.161-0.875c0.058-0.171,0.072-0.401,0.072-0.587v-1.032
		c0-0.129-0.014-0.272-0.042-0.401c-0.158-0.573-0.574-0.961-1.176-0.961c-0.803,0-1.434,0.717-1.434,1.993
		C41.009,33.704,41.525,34.521,42.429,34.521z"/>
	<path d="M32,56.5c13.531,0,24.5-10.969,24.5-24.5C56.5,18.469,45.531,7.5,32,7.5S7.5,18.469,7.5,32C7.5,45.531,18.469,56.5,32,56.5
		z M41.984,29.016c0.961,0,1.563,0.415,1.921,1.003h0.028l0.072-0.846h1.892c-0.029,0.458-0.057,1.046-0.057,2.093v3.898
		c0,1.348-0.272,2.451-1.075,3.154c-0.76,0.659-1.806,0.86-2.838,0.86c-0.931,0-1.892-0.187-2.523-0.53l0.43-1.663
		c0.444,0.258,1.204,0.53,2.035,0.53c1.032,0,1.82-0.544,1.82-1.849v-0.445h-0.029c-0.415,0.574-1.089,0.904-1.892,0.904
		c-1.734,0-2.967-1.405-2.967-3.412C38.803,30.45,40.25,29.016,41.984,29.016z M30.656,26.522h2.164v4.271h0.029
		c0.215-0.372,0.445-0.716,0.674-1.06l2.179-3.211h2.695L35.2,30.636l3.354,5.547h-2.537l-2.379-4.171l-0.817,1.018v3.154h-2.164
		V26.522z M19.627,29.331c0-1.577,1.419-2.623,3.283-2.623c2.179,0,3.081,1.261,3.081,2.394c0,0.803-0.43,1.591-1.361,2.05v0.043
		c0.918,0.344,1.72,1.118,1.72,2.308c0,1.691-1.419,2.838-3.583,2.838c-2.365,0-3.455-1.332-3.455-2.594
		c0-1.118,0.644-1.892,1.663-2.336v-0.029C20.072,30.908,19.627,30.148,19.627,29.331z"/>
</g>
</svg>
