<?xml version="1.0" encoding="iso-8859-1"?>
<!-- Generator: Adobe Illustrator 17.1.0, SVG Export Plug-In . SVG Version: 6.00 Build 0)  -->
<!DOCTYPE svg PUBLIC "-//W3C//DTD SVG 1.1//EN" "http://www.w3.org/Graphics/SVG/1.1/DTD/svg11.dtd">
<svg version="1.1" id="Capa_1" xmlns="http://www.w3.org/2000/svg" xmlns:xlink="http://www.w3.org/1999/xlink" x="0px" y="0px"
	 viewBox="0 0 64 64" style="enable-background:new 0 0 64 64;" xml:space="preserve">
<g>
	<path d="M6.568,50.522c1.924,0,3.482-1.559,3.482-3.481c0-1.912-1.559-3.47-3.482-3.47c-1.91,0-3.464,1.559-3.464,3.47
		C3.104,48.963,4.658,50.522,6.568,50.522z"/>
	<path d="M12.322,59.949c0.902,0,1.634-0.731,1.634-1.634v-7.562h8.245v6.52c0,1.204,0.976,2.179,2.179,2.179h3.84h7.02h3.84
		c1.203,0,2.179-0.976,2.179-2.179v-6.52h8.245v7.562c0,0.903,0.732,1.634,1.634,1.634c0.902,0,1.635-0.731,1.635-1.634v-10.53
		c0-0.023-0.006-0.045-0.007-0.068v-2.106c0-0.602-0.487-1.089-1.089-1.089H40.341c0.12-0.387,0.145-0.809,0.038-1.23l-4.205-16.493
		v-9.483l5.241-10.705c0.397-0.811,0.061-1.79-0.751-2.187c-0.809-0.398-1.789-0.062-2.187,0.749l-4.298,8.778
		c-0.092-0.011-0.182-0.028-0.277-0.028h-4.109c-0.109,0-0.214,0.017-0.319,0.032l-4.3-8.782c-0.398-0.811-1.378-1.146-2.187-0.749
		c-0.811,0.397-1.147,1.376-0.75,2.187l5.285,10.794v9.354l-4.527,16.493c-0.119,0.433-0.099,0.87,0.024,1.27H11.783
		c-0.602,0-1.089,0.488-1.089,1.089v2.106c-0.001,0.023-0.007,0.045-0.007,0.068v10.53C10.688,59.218,11.42,59.949,12.322,59.949z
		 M27.375,44.454l4.098-14.933h0.708l3.798,14.893c0.144,0.563,0.491,1.017,0.938,1.318v1.879c-0.005,0.058-0.018,0.115-0.018,0.174
		v7.309h-1.66h-7.02h-1.66v-7.309c0-0.06-0.013-0.116-0.018-0.174v-1.938C26.934,45.381,27.236,44.962,27.375,44.454z"/>
	<path d="M56.891,50.522c1.91,0,3.464-1.559,3.464-3.481c0-1.912-1.554-3.47-3.464-3.47c-1.924,0-3.482,1.559-3.482,3.47
		C53.408,48.963,54.967,50.522,56.891,50.522z"/>
	<circle cx="31.849" cy="8.392" r="3.687"/>
</g>
</svg>
