<?xml version="1.0" encoding="iso-8859-1"?>
<!-- Generator: Adobe Illustrator 17.1.0, SVG Export Plug-In . SVG Version: 6.00 Build 0)  -->
<!DOCTYPE svg PUBLIC "-//W3C//DTD SVG 1.1//EN" "http://www.w3.org/Graphics/SVG/1.1/DTD/svg11.dtd">
<svg version="1.1" id="Capa_1" xmlns="http://www.w3.org/2000/svg" xmlns:xlink="http://www.w3.org/1999/xlink" x="0px" y="0px"
	 viewBox="0 0 64 64" style="enable-background:new 0 0 64 64;" xml:space="preserve">
<g>
	<path d="M21.091,20.334l6.94,4.345v12.381c-0.265,0.218-0.468,0.514-0.562,0.871l-3.723,14.197
		c-0.237,0.904,0.304,1.829,1.208,2.066c0.143,0.038,0.289,0.056,0.431,0.056c0.75,0,1.436-0.503,1.635-1.263l2.096-7.993
		c0.185,1.988,1.838,3.551,3.875,3.551c2.161,0,3.912-1.751,3.912-3.911c0-0.128-0.026-0.249-0.038-0.375l2.365,8.62
		c0.206,0.751,0.887,1.245,1.631,1.245c0.147,0,0.298-0.019,0.448-0.06c0.901-0.247,1.432-1.178,1.185-2.08l-3.825-13.945
		c-0.115-0.417-0.379-0.75-0.716-0.968V25.252l7.855-4.918c0.702-0.439,1.145-1.192,1.188-2.019c0.043-0.826-0.319-1.622-0.97-2.131
		l-9.778-7.652c-0.827-0.648-1.932-0.701-2.797-0.221c-0.865-0.48-1.97-0.427-2.797,0.221l-9.778,7.652
		c-0.651,0.51-1.013,1.305-0.97,2.131C19.946,19.142,20.389,19.895,21.091,20.334z M32.991,40.722c-1.32,0-2.482,0.658-3.19,1.66
		l0.694-2.648h5.128l0.88,3.208C35.871,41.632,34.543,40.722,32.991,40.722z M33.449,12.787l6.598,5.164l-6.598,4.131l-6.598-4.131
		L33.449,12.787z"/>
</g>
</svg>
