<?xml version="1.0" encoding="iso-8859-1"?>
<!-- Generator: Adobe Illustrator 17.1.0, SVG Export Plug-In . SVG Version: 6.00 Build 0)  -->
<!DOCTYPE svg PUBLIC "-//W3C//DTD SVG 1.1//EN" "http://www.w3.org/Graphics/SVG/1.1/DTD/svg11.dtd">
<svg version="1.1" id="Capa_1" xmlns="http://www.w3.org/2000/svg" xmlns:xlink="http://www.w3.org/1999/xlink" x="0px" y="0px"
	 viewBox="0 0 64 64" style="enable-background:new 0 0 64 64;" xml:space="preserve">
<g>
	<path style="fill:#1D1D1B;" d="M40.429,33.225l-1.383,1.302l-1.754,0.109l1.858-3.158c0.184-0.312,0.199-0.828,0.035-1.152
		c-1.04-2.028-5.286-10.297-7.185-13.074c-1.719-2.511-9.523,0.617-13.107,2.231c-1.008,0.453-2.353,1.562-3,2.458
		c-5.817,8.048-9.482,16.083-9.919,18.29c-0.07,0.357,0.143,0.791,0.459,0.969l4.362,2.452c-0.218-0.022-0.44-0.035-0.664-0.035
		c-3.508,0-6.352,2.844-6.352,6.353c0,3.508,2.844,6.352,6.352,6.352c3.509,0,6.353-2.844,6.353-6.352
		c0-1.454-0.495-2.789-1.315-3.859l3.37,1.893c0.317,0.179,0.863,0.273,1.221,0.212l7.686-1.312
		c0.357-0.061,0.843-0.332,1.082-0.603l2.416-2.739c0.24-0.271,0.729-0.492,1.092-0.492h0.053c0.362,0,0.826,0.24,1.035,0.537
		l0.943,1.335c0.209,0.297,0.67,0.5,1.03,0.454l11.653-1.493c-1.917,1.093-3.214,3.153-3.214,5.518c0,3.509,2.843,6.354,6.352,6.354
		c3.51,0,6.352-2.845,6.352-6.354c0-2.939-2-5.406-4.713-6.131l8.771-1.123c0.36-0.045,0.75-0.36,0.872-0.702l0.654-1.828
		c0.122-0.343,0.077-0.876-0.102-1.192l-3.298-5.864c-0.178-0.316-0.616-0.56-0.979-0.544l-15.883,0.71
		C41.2,32.761,40.692,32.975,40.429,33.225z M10.131,37.484l8.104-14.459l11.72-3.505l7.01,11.719
		C36.965,31.239,20.975,33.979,10.131,37.484z"/>
</g>
</svg>
