<?xml version="1.0" encoding="iso-8859-1"?>
<!-- Generator: Adobe Illustrator 17.1.0, SVG Export Plug-In . SVG Version: 6.00 Build 0)  -->
<!DOCTYPE svg PUBLIC "-//W3C//DTD SVG 1.1//EN" "http://www.w3.org/Graphics/SVG/1.1/DTD/svg11.dtd">
<svg version="1.1" id="Capa_1" xmlns="http://www.w3.org/2000/svg" xmlns:xlink="http://www.w3.org/1999/xlink" x="0px" y="0px"
	 viewBox="0 0 64 64" style="enable-background:new 0 0 64 64;" xml:space="preserve">
<g>
	<circle style="fill:#1D1D1B;" cx="34.312" cy="8.488" r="5.247"/>
	<path style="fill:#1D1D1B;" d="M14.141,19.609l-0.908,8.778c-0.114,1.108,0.691,2.101,1.801,2.214
		c0.07,0.009,0.141,0.012,0.21,0.012c1.021,0,1.897-0.773,2.005-1.811l0.789-7.622l2.494-1.12c0,0,1.901,3.068,3.616,3.548
		l1.161-3.91l-0.15-1.716c-0.343-1.525-0.449-2.954-0.391-4.247l-9.445,4.24C14.667,18.271,14.215,18.893,14.141,19.609z"/>
	<path style="fill:#1D1D1B;" d="M28.85,48.465c0.326,1.277,1.475,2.128,2.735,2.128c0.232,0,0.467-0.028,0.7-0.088l5.146-1.312
		c0.767-0.195,1.416-0.702,1.79-1.398c0.375-0.695,0.441-1.517,0.183-2.264L35.45,34.118c-0.997,1.123-2.632,1.661-4.143,1.226
		c-2.14-0.619-3.375-2.863-2.756-5l1.078-3.728c-1.425-1.639-2.566-3.437-3.396-5.351c-0.118-0.271-0.217-0.537-0.318-0.804
		l-3.584,12.273l-2.69,5.8c-0.258,0.555-0.328,1.178-0.201,1.775l3.229,15.236c0.281,1.329,1.455,2.24,2.762,2.24
		c0.193,0,0.391-0.021,0.588-0.062c1.526-0.323,2.502-1.823,2.178-3.35L25.162,40.06l2.435-5.247l2.633,1.5l2.829,8.164
		l-2.168,0.553C29.378,45.414,28.464,46.952,28.85,48.465z"/>
	<path style="fill:#1D1D1B;" d="M41.534,31.114l-0.808-3.431c-0.198-0.844-0.773-1.55-1.56-1.915
		c-0.005-0.002-0.07-0.035-0.167-0.086c0.423-0.733,0.781-1.495,1.065-2.28l2.408,2.773l-0.337,1.227
		c0.001,0.004,0.002,0.007,0.004,0.011l0.807,3.43c0.062,0.269,0.097,0.537,0.104,0.804c0.003,0.001,0.007,0.002,0.01,0.003
		c0.18,0.05,0.359,0.073,0.536,0.073c0.886,0,1.698-0.588,1.945-1.483l1.11-4.036c0.178-0.651,0.021-1.348-0.423-1.858l-5.14-5.92
		c0.285-3.5-0.215-6.776-0.591-8.586c-0.543,2.495-2.529,4.456-5.038,4.957c0.15,2.301,0.023,5.018-0.946,7.23
		c-0.833-0.969-1.625-2.128-2.219-3.497c-0.73-1.686-0.944-3.112-0.929-4.24c-2.064-1.078-3.478-3.237-3.478-5.723
		c0-0.334,0.033-0.66,0.082-0.98c-0.07,0.056-0.136,0.118-0.203,0.179l0.001-0.001c-7.108,1.227-7.892,7.317-7.892,7.317l5.993-2.7
		l0.005-0.013c-0.342,2.27-0.17,5.165,1.235,8.407c0.98,2.262,2.318,4.085,3.685,5.553c-0.084,0.162-0.154,0.332-0.206,0.51
		l-1.109,3.834c-0.435,1.499,0.43,3.065,1.928,3.5c0.263,0.076,0.526,0.112,0.787,0.112c1.226,0,2.354-0.805,2.712-2.04l0.595-2.057
		c0.003,0.002,0.007,0.005,0.01,0.007l0.521,2.214c0.306,1.301,1.466,2.179,2.747,2.179c0.215,0,0.433-0.024,0.649-0.076
		C40.95,34.154,41.891,32.634,41.534,31.114z"/>
</g>
</svg>
