<?xml version="1.0" encoding="iso-8859-1"?>
<!-- Generator: Adobe Illustrator 17.1.0, SVG Export Plug-In . SVG Version: 6.00 Build 0)  -->
<!DOCTYPE svg PUBLIC "-//W3C//DTD SVG 1.1//EN" "http://www.w3.org/Graphics/SVG/1.1/DTD/svg11.dtd">
<svg version="1.1" id="Capa_1" xmlns="http://www.w3.org/2000/svg" xmlns:xlink="http://www.w3.org/1999/xlink" x="0px" y="0px"
	 viewBox="0 0 64 64" style="enable-background:new 0 0 64 64;" xml:space="preserve">
<g>
	<path d="M45.191,59.171c0.427-1.238,0.984-3.64,1.028-7.808c0.007-0.671-0.007-1.76-0.047-2.43
		c-0.363-6.053-2.727-13.316-3.696-16.081c-0.222-0.634-0.867-0.837-1.485-0.573c-1.268,0.539-3.762,1.271-7.997,1.304
		c-4.247,0.032-6.744-0.722-8.009-1.282c-0.614-0.273-1.25-0.082-1.473,0.551c-0.969,2.765-3.333,10.029-3.696,16.082
		c-0.04,0.67-0.054,1.758-0.047,2.43c0.044,4.169,0.601,6.57,1.028,7.809c0.219,0.635,1.038,1.108,1.71,1.108h4.661
		c0.671,0,1.508-0.46,1.817-1.057c0.894-1.724,2.597-5.607,3.796-12.031c0.124-0.66,0.301-0.66,0.425,0
		c1.2,6.424,2.902,10.309,3.796,12.031c0.31,0.597,1.146,1.057,1.817,1.057h4.661C44.153,60.28,44.972,59.807,45.191,59.171z"/>
	<path d="M29.696,18.569l-0.055,0.056v0.047l0.055,4.737v0.418c0,0.657,0.26,0.985,0.78,0.985c0.483,0,0.725-0.486,0.725-1.458
		v-0.882l0.055-3.483c0-1.772-0.207-2.656-0.622-2.656h-0.521c-0.347,0.189-0.52,0.57-0.52,1.143l0.047,1.095H29.696z"/>
	<path d="M34.835,18.569l-0.055,0.056v0.047l0.055,4.737v0.418c0,0.657,0.26,0.985,0.78,0.985c0.483,0,0.725-0.486,0.725-1.458
		v-0.882l0.055-3.483c0-1.772-0.208-2.656-0.623-2.656h-0.521c-0.347,0.189-0.52,0.57-0.52,1.143l0.047,1.095H34.835z"/>
	<path d="M17.476,4.812c-0.537,0.402-0.894,1.364-0.894,2.035v0.76c0,0.672-0.303,1.681-0.473,2.33
		c-0.189,0.723-0.287,1.782,0.075,3.133c0.173,0.648,0.868,1.422,1.448,1.76l4.434,2.577c0.58,0.337,1.238,0.611,1.469,0.611
		c0.23,0,0.418,0.544,0.418,1.216v8.511c0,0.671,0.383,1.618,0.999,1.885c1.097,0.475,3.349,1.035,7.892,1.079h0.304
		c4.543-0.044,6.794-0.604,7.892-1.079c0.616-0.267,1-1.214,1-1.885v-8.511c0-0.672,0.187-1.216,0.417-1.216
		c0.231,0,0.889-0.274,1.469-0.611l4.434-2.577c0.58-0.338,1.275-1.111,1.448-1.76c0.362-1.351,0.264-2.41,0.075-3.133
		c-0.17-0.649-0.473-1.658-0.473-2.33v-0.76c0-0.671-0.357-1.633-0.895-2.035c-3.943-2.953-11.72-1.916-11.72-1.916
		c-0.076,6.079-3.799,7.751-3.799,7.751c-3.952-1.748-3.799-7.751-3.799-7.751S21.419,1.859,17.476,4.812z M34.575,15.03
		c0.43-0.205,0.777-0.308,1.04-0.308c0.972,0,1.7,0.728,2.183,2.184l-0.047,0.52v0.157l0.047,0.828l-0.047,0.993v0.047l0.047,1.458
		l0.055,3.121c0,1.077-0.625,1.839-1.875,2.285l-0.363,0.056c-1.177-0.342-1.765-0.742-1.765-1.198
		c-0.248-0.347-0.371-0.762-0.371-1.245c0-3.326-0.068-5.581-0.205-6.763C33.274,16.388,33.708,15.677,34.575,15.03z M29.436,15.03
		c0.431-0.205,0.778-0.308,1.041-0.308c0.972,0,1.7,0.728,2.183,2.184l-0.047,0.52v0.157l0.047,0.828l-0.047,0.993v0.047
		l0.047,1.458l0.055,3.121c0,1.077-0.625,1.839-1.875,2.285l-0.363,0.056c-1.177-0.342-1.766-0.742-1.766-1.198
		c-0.247-0.347-0.37-0.762-0.37-1.245c0-3.326-0.068-5.581-0.205-6.763C28.136,16.388,28.569,15.677,29.436,15.03z"/>
</g>
</svg>
