<?xml version="1.0" encoding="iso-8859-1"?>
<!-- Generator: Adobe Illustrator 17.1.0, SVG Export Plug-In . SVG Version: 6.00 Build 0)  -->
<!DOCTYPE svg PUBLIC "-//W3C//DTD SVG 1.1//EN" "http://www.w3.org/Graphics/SVG/1.1/DTD/svg11.dtd">
<svg version="1.1" id="Capa_1" xmlns="http://www.w3.org/2000/svg" xmlns:xlink="http://www.w3.org/1999/xlink" x="0px" y="0px"
	 viewBox="0 0 64 64" style="enable-background:new 0 0 64 64;" xml:space="preserve">
<g>
	<path d="M50.775,18.459c-3.109-2.495-7.226-3.887-11.595-3.923c-4.144-0.036-8.128,1.14-11.215,3.306
		c-1.674,1.177-3.015,2.589-3.997,4.195c-0.576,0.942-0.979,1.712-1.081,1.649c-0.06-0.038-0.124-0.071-0.192-0.1
		c-0.658-0.271-1.41,0.044-1.678,0.702c-0.042,0.097-0.397,0.972-0.644,1.893c-0.053,0.196-0.104,0.402-0.147,0.612
		c-0.069,0.341-0.443,0.714-0.706,1.033c-0.155,0.187-0.258,0.42-0.286,0.68c-0.076,0.708,0.438,1.342,1.143,1.418
		c0.838,0.089,1.587,0.231,2.247,0.423c1.06,0.31,1.776,0.927,1.717,1.081c-0.035,0.091-0.071,0.185-0.106,0.278
		c-0.466,1.217-0.986,2.578-1.564,3.97c-0.423,1.021-0.983,1.797-1.221,1.746c-0.139-0.03-0.281-0.06-0.43-0.093
		c-1.315-0.287-3.117-0.677-6.274-1.24c-0.02-0.004-0.042-0.007-0.062-0.01c-1.201-0.152-2.179-0.222-2.917,0.374
		c-0.475,0.383-0.661,0.901-0.741,1.35c-0.007,0.041-0.012,0.08-0.017,0.118c-0.008,0.065-0.233,0.984-0.494,2.058
		c-0.448,1.841-1.111,4.656-1.62,7.18c-0.098,0.554,0.174,1.107,0.677,1.368c2.125,1.094,4.213,1.265,6.2,0.505
		c2.734-1.043,4.897-3.697,6.666-6.854c0.541-0.963,1.428-1.689,2.045-1.611c0.618,0.079,1.059,0.812,1.111,1.652
		c0.053,0.839,0.345,2.402,0.87,3.375c0.656,1.213,1.581,2.112,2.765,2.694c3.485,1.718,8.38,0.373,11.873-1.055
		c0.805-0.41,2.143-0.898,3.717-0.696c1.096,0.142,1.932,0.612,1.966,0.648c0.035,0.036,0.777,0.564,1.77,0.963
		c0.739,0.296,1.474,0.527,1.827,0.639c0.783,0.236,1.336,0.227,1.84-0.541c0.183-0.286,0.327-0.591,0.692-1.492
		c0.043-0.108,0.081-0.208,0.114-0.304c0.058-0.169,0.105-0.338,0.118-0.372l0.024-0.063c0.109-0.301,0.281-0.708,0.495-1.224
		c1.216-2.906,3.744-8.958,3.253-14.274C56.446,25.476,54.324,21.305,50.775,18.459z M19.764,41.651
		c-1.413,2.36-3.044,4.268-4.91,4.981c-0.527,0.199-1.062,0.297-1.611,0.292c-0.91-0.01-1.426-1.175-1.185-2.254
		c0.71-3.163,1.438-6.024,1.448-6.062c0.003-0.01,0.004-0.02,0.006-0.028c0.004-0.015,0.19-0.019,0.414,0.005
		c0.116,0.011,0.25,0.026,0.403,0.046c3.088,0.551,4.854,0.934,6.145,1.215c0.044,0.01,0.088,0.018,0.13,0.027
		C20.676,39.89,20.331,40.703,19.764,41.651z M26.26,35.751c-0.014,0.143-0.031,0.284-0.05,0.424
		c-0.151,1.096-0.686,1.929-1.051,1.886c-0.365-0.043-0.304-0.904,0.112-1.929c0.07-0.17,0.138-0.341,0.206-0.51
		C25.885,34.596,26.369,34.652,26.26,35.751z"/>
</g>
</svg>
