<?xml version="1.0" encoding="iso-8859-1"?>
<!-- Generator: Adobe Illustrator 17.1.0, SVG Export Plug-In . SVG Version: 6.00 Build 0)  -->
<!DOCTYPE svg PUBLIC "-//W3C//DTD SVG 1.1//EN" "http://www.w3.org/Graphics/SVG/1.1/DTD/svg11.dtd">
<svg version="1.1" id="Capa_1" xmlns="http://www.w3.org/2000/svg" xmlns:xlink="http://www.w3.org/1999/xlink" x="0px" y="0px"
	 viewBox="0 0 64 64" style="enable-background:new 0 0 64 64;" xml:space="preserve">
<g>
	<path d="M32.15,17.285c-12.578,0-22.943,5.873-23.985,13.467l13.163-0.001v-1.196c0.001-0.688,0.561-1.246,1.248-1.246
		c0.69,0,1.248,0.559,1.248,1.246v1.197h1.332v-1.197c-0.001-0.331,0.128-0.644,0.363-0.879c0.236-0.236,0.55-0.367,0.884-0.367
		c0.69,0,1.25,0.559,1.25,1.246v1.196l1.332,0.001l0-1.197c0-0.688,0.558-1.247,1.245-1.247c0.691,0,1.25,0.559,1.25,1.246v1.196
		l1.331,0.001v-1.197c0-0.687,0.559-1.246,1.246-1.246c0.692,0,1.253,0.559,1.253,1.246v1.196l1.328,0.001l0.001-1.198
		c-0.003-0.329,0.125-0.642,0.359-0.877c0.236-0.238,0.551-0.369,0.888-0.369c0.689,0,1.249,0.559,1.249,1.246v1.196l1.328,0.001
		v-1.197c0-0.687,0.559-1.246,1.245-1.246c0.692,0,1.253,0.559,1.253,1.246l-0.002,1.196l13.168,0.001
		C55.083,23.158,44.717,17.285,32.15,17.285z"/>
	<path d="M42.961,34.445c-0.005,0.69-0.565,1.249-1.25,1.249c-0.688,0-1.248-0.56-1.248-1.25v-1.195h-1.328v1.196
		c0,0.688-0.561,1.249-1.249,1.249c-0.687,0-1.248-0.56-1.25-1.248l0.001-1.197h-1.327v1.196c0,0.688-0.561,1.249-1.251,1.249
		c-0.688,0-1.247-0.56-1.247-1.25v-1.195H31.48v1.196c0,0.688-0.56,1.249-1.247,1.249c-0.687,0-1.247-0.56-1.248-1.249l0-1.196
		h-1.332v1.196c0,0.688-0.56,1.249-1.25,1.249c-0.687,0-1.247-0.56-1.248-1.249l0-1.196h-1.332v1.195c0,0.69-0.56,1.25-1.247,1.25
		c-0.333,0-0.647-0.131-0.883-0.367c-0.236-0.236-0.366-0.55-0.365-0.883l0-1.195L8.165,33.25
		c1.042,7.593,11.41,13.465,23.979,13.466c12.569,0,22.939-5.872,23.983-13.467L42.961,33.25V34.445z"/>
</g>
</svg>
