<?xml version="1.0" encoding="iso-8859-1"?>
<!-- Generator: Adobe Illustrator 17.1.0, SVG Export Plug-In . SVG Version: 6.00 Build 0)  -->
<!DOCTYPE svg PUBLIC "-//W3C//DTD SVG 1.1//EN" "http://www.w3.org/Graphics/SVG/1.1/DTD/svg11.dtd">
<svg version="1.1" id="Capa_1" xmlns="http://www.w3.org/2000/svg" xmlns:xlink="http://www.w3.org/1999/xlink" x="0px" y="0px"
	 viewBox="0 0 64 64" style="enable-background:new 0 0 64 64;" xml:space="preserve">
<g>
	<path d="M31.99,1c-3.412,0-6.177,2.765-6.177,6.177c0,3.411,2.766,6.177,6.177,6.177c3.411,0,6.177-2.766,6.177-6.177
		C38.167,3.765,35.401,1,31.99,1z M37.088,7.488c0,0.138-0.112,0.25-0.25,0.25c-0.006,0-0.01,0-0.013,0
		c-0.017,0-0.035-0.002-0.052-0.005c-1.492-0.317-2.908-0.512-4.23-0.587v1.386c2.34,0.185,4.101,0.897,4.179,0.929
		c0.255,0.107,0.376,0.398,0.27,0.653c-0.08,0.192-0.266,0.309-0.462,0.309c-0.064,0-0.128-0.012-0.191-0.038
		c-0.018-0.007-1.655-0.667-3.795-0.85v1.97c0,0.276-0.224,0.5-0.5,0.5c-0.276,0-0.5-0.224-0.5-0.5V9.498
		c-2.03,0.037-3.271,0.831-3.284,0.84c-0.231,0.151-0.54,0.091-0.693-0.137c-0.154-0.229-0.094-0.538,0.134-0.692
		c0.063-0.043,1.49-0.981,3.843-1.01V7.115c-0.061,0-0.126-0.006-0.186-0.006c-2.761,0-4.084,0.6-4.098,0.606
		c-0.08,0.036-0.173,0.029-0.245-0.019c-0.073-0.048-0.115-0.131-0.111-0.218c0.088-2.013,1.7-3.224,1.768-3.274
		c0.043-0.032,0.095-0.049,0.148-0.049h6.25c0.043,0,0.086,0.011,0.124,0.033c1.67,0.954,1.857,2.792,1.879,3.215
		C37.083,7.429,37.088,7.458,37.088,7.488z"/>
	<path d="M39.174,61.977c0.152,0,0.307-0.01,0.462-0.029c1.916-0.254,3.265-2.012,3.012-3.928l-1.28-9.707
		c-1.219-0.022-3.391-0.031-7.059,0.01l1.4,10.613C35.941,60.695,37.445,61.977,39.174,61.977z"/>
	<path d="M25.075,61.977c1.729,0,3.233-1.281,3.465-3.041l1.392-10.553c-2.018,0.025-3.599,0.033-4.826,0.033
		c-0.947,0-1.665-0.006-2.237-0.014l-1.269,9.617c-0.253,1.916,1.096,3.674,3.012,3.928C24.769,61.967,24.923,61.977,25.075,61.977z
		"/>
	<path d="M30.244,46.019c-1.538,0.021-2.768,0.029-3.736,0.029c-2.138,0-3.022-0.037-3.32-0.055l-0.187,1.41
		c1.334,0.016,3.537,0.021,7.064-0.023L30.244,46.019z"/>
	<path d="M30.899,41.051l1.09,0.145h0.1l1.267-0.096l0.509,3.861c4.125-0.059,6.15-0.031,7.06-0.002L40.06,38.4
		c-0.013-0.1-0.046-0.191-0.068-0.287l-0.425-3.271c-1.348-0.018-3.653-0.02-7.478,0.051c-2.558,0.047-4.437,0.062-5.806,0.062
		c-0.669,0-1.215-0.004-1.66-0.01l-0.298,2.877c-0.058,0.188-0.11,0.377-0.136,0.578L23.318,45c0.514,0.025,2.314,0.084,7.058,0.018
		L30.899,41.051z"/>
	<path d="M23.876,17.072c-0.081,0-0.162-0.009-0.244-0.03c-1.34-0.335-2.533-1.002-3.416-1.606c-0.315,0.47-0.577,1.03-0.772,1.672
		c0.644,0.538,2.056,1.592,3.671,1.996c0.536,0.134,0.861,0.677,0.728,1.213c-0.114,0.454-0.521,0.757-0.969,0.757
		c-0.081,0-0.162-0.009-0.244-0.03c-1.496-0.374-2.798-1.157-3.698-1.808c-0.032,0.076-0.079,0.142-0.102,0.223l-4.007,13.776
		c-0.386,1.326,0.377,2.713,1.702,3.098c0.233,0.068,0.468,0.102,0.699,0.102c1.083,0,2.082-0.711,2.399-1.803l2.952-10.147
		c1.246,1.969,2.272,4.994,2.118,9.46c1.351,0.018,3.635,0.016,7.378-0.053c3.752-0.066,6.047-0.068,7.419-0.051
		c-0.127-4.078,0.698-6.943,1.777-8.895l3.108,10.686c0.318,1.092,1.316,1.803,2.399,1.803c0.231,0,0.466-0.033,0.699-0.102
		c1.326-0.385,2.088-1.771,1.702-3.098L45.169,20.46c-0.035-0.121-0.086-0.231-0.138-0.342c-0.886,0.612-2.103,1.298-3.468,1.64
		c-0.082,0.02-0.163,0.03-0.244,0.03c-0.448,0-0.855-0.303-0.969-0.757c-0.134-0.536,0.192-1.079,0.728-1.213
		c1.662-0.416,3.111-1.52,3.728-2.042c-0.142-0.672-0.351-1.264-0.616-1.777c-0.897,0.64-2.171,1.392-3.628,1.756
		c-0.081,0.021-0.163,0.03-0.244,0.03c-0.448,0-0.856-0.303-0.969-0.757c-0.134-0.536,0.192-1.079,0.728-1.213
		c1.122-0.28,2.144-0.875,2.883-1.394c-1.184-0.983-2.697-1.181-4.035-0.607c-2.922,1.252-6.835,1.169-6.835,1.169h-0.1
		c0,0-3.913,0.083-6.835-1.169c-1.127-0.483-2.376-0.415-3.449,0.205c0.679,0.429,1.51,0.858,2.412,1.084
		c0.536,0.134,0.861,0.677,0.728,1.213C24.731,16.769,24.324,17.072,23.876,17.072z M32.08,25.501l2.791-4.25h1.521v4.113h0.881
		v0.976h-0.881v1.732h-1.217V26.34H32.08V25.501z M26.705,27.285l0.808-0.745c1.606-1.49,2.361-2.309,2.372-3.211
		c0-0.608-0.326-1.144-1.218-1.144c-0.608,0-1.112,0.305-1.458,0.567l-0.377-0.913c0.493-0.399,1.238-0.703,2.098-0.703
		c1.511,0,2.246,0.955,2.246,2.067c0,1.196-0.86,2.162-2.057,3.263l-0.588,0.515v0.021h2.792v1.07h-4.617V27.285z"/>
	<path d="M35.176,23.507c0-0.388,0.021-0.776,0.042-1.185h-0.042c-0.211,0.43-0.389,0.776-0.598,1.154l-1.259,1.868v0.021h1.857
		V23.507z"/>
	<path d="M41.236,47.309l-0.178-1.346c-0.778-0.027-2.75-0.066-7.06-0.004l0.18,1.365C37.781,47.283,39.969,47.291,41.236,47.309z"
		/>
</g>
</svg>
