<?xml version="1.0" encoding="iso-8859-1"?>
<!-- Generator: Adobe Illustrator 17.1.0, SVG Export Plug-In . SVG Version: 6.00 Build 0)  -->
<!DOCTYPE svg PUBLIC "-//W3C//DTD SVG 1.1//EN" "http://www.w3.org/Graphics/SVG/1.1/DTD/svg11.dtd">
<svg version="1.1" id="Capa_1" xmlns="http://www.w3.org/2000/svg" xmlns:xlink="http://www.w3.org/1999/xlink" x="0px" y="0px"
	 viewBox="0 0 64 64" style="enable-background:new 0 0 64 64;" xml:space="preserve">
<g>
	<path style="fill:#1D1D1B;" d="M47,17.985c0.264,0.083,0.544-0.067,0.625-0.329c0.12-0.387,2.902-9.515,0.12-14.027
		c-0.814-1.32-2.021-2.122-3.587-2.383c-2.713-0.45-4.889,0.655-5.96,3.04C38.032,4.655,37.9,5.04,37.802,5.429
		c-2.975-1.126-7.593-1.809-12.515-1.401c-5.963,0.495-10.189,4.277-12.155,7.651c-1.53,2.625-1.943,5.275-1.105,7.089
		c1.058,2.29,3.064,3.428,4.741,3.428c0.321,0,0.63-0.042,0.918-0.125c1.524-0.442,2.276-1.904,2.012-3.912
		c-0.054-0.409-0.067-0.787-0.057-1.145l0.844,4.127c0.087,0.428,0.286,0.825,0.575,1.153l3.624,4.107l-0.797,5.228
		c-0.147,0.532-0.047,1.354,0.225,1.835l2.104,5.085c-0.121,0.355-0.201,0.728-0.201,1.124v19.192c0,1.933,1.567,3.5,3.5,3.5
		c1.933,0,3.5-1.567,3.5-3.5V42.231l6.253,1.804c0.315,0.091,0.642,0.137,0.97,0.137h11.409c1.933,0,3.5-1.567,3.5-3.5
		s-1.567-3.5-3.5-3.5H40.732l-1.686-0.487c-0.023-0.017-0.031-0.036-0.057-0.052l-4.885-3.097c-0.467-0.296-0.748-0.973-0.629-1.512
		l0.544-2.461l1.938-1.256l11.282-3.253c1.327-0.383,2.092-1.769,1.71-3.095c-0.382-1.326-1.768-2.09-3.095-1.71l-11.638,3.355
		c-0.236,0.068-0.461,0.171-0.667,0.305l-1.113,0.721l-3.533-0.991c-0.024-0.03-0.041-0.064-0.067-0.093l-3.585-4.064l-1.075-5.253
		c-0.276-1.352-1.597-2.221-2.95-1.948c-1.172,0.24-1.981,1.265-1.996,2.414c-0.524,0.948-0.714,2.143-0.522,3.592
		c0.197,1.496-0.276,2.524-1.299,2.82c-1.359,0.396-3.452-0.552-4.473-2.762c-0.691-1.494-0.284-3.857,1.061-6.166
		c1.839-3.156,5.793-6.694,11.374-7.158c4.966-0.413,9.538,0.351,12.255,1.394c-0.155,1.434,0.143,2.768,0.861,3.348
		c0.253,0.204,0.942,0.604,1.879-0.085c0.976-0.718,0.87-1.498,0.72-1.898c-0.259-0.691-1.093-1.368-2.35-1.959
		c0.084-0.373,0.207-0.754,0.374-1.126c0.512-1.139,1.828-2.969,4.884-2.464c1.287,0.214,2.235,0.843,2.9,1.92
		c2.545,4.126-0.195,13.117-0.223,13.207C46.588,17.624,46.736,17.903,47,17.985z M40.149,8.132
		c0.041,0.109,0.137,0.365-0.376,0.742c-0.419,0.307-0.585,0.171-0.658,0.113c-0.345-0.279-0.575-1.122-0.521-2.148
		C39.445,7.263,39.991,7.711,40.149,8.132z"/>
	<circle style="fill:#1D1D1B;" cx="33.016" cy="16.358" r="6.054"/>
</g>
</svg>
