<?xml version="1.0" encoding="iso-8859-1"?>
<!-- Generator: Adobe Illustrator 17.1.0, SVG Export Plug-In . SVG Version: 6.00 Build 0)  -->
<!DOCTYPE svg PUBLIC "-//W3C//DTD SVG 1.1//EN" "http://www.w3.org/Graphics/SVG/1.1/DTD/svg11.dtd">
<svg version="1.1" id="Capa_1" xmlns="http://www.w3.org/2000/svg" xmlns:xlink="http://www.w3.org/1999/xlink" x="0px" y="0px"
	 viewBox="0 0 64 64" style="enable-background:new 0 0 64 64;" xml:space="preserve">
<g>
	<path style="fill:#1D1D1B;" d="M55.137,40.435L46.76,26.054c-0.761-1.307-2.278-1.978-3.754-1.661L29.67,27.236
		c-0.007-0.006-0.012-0.014-0.019-0.02l-6.94-6.003L28.6,8.599c0.817-1.751,0.061-3.834-1.691-4.652
		c-1.749-0.818-3.834-0.061-4.652,1.691l-7.007,15.01c-0.662,1.419-0.302,3.104,0.882,4.128l5.733,4.959l-1.2,6.395
		c-0.383,0.486-0.471,1.331-0.195,1.885l4.393,7.948v11.19c0,1.381,1.119,2.5,2.5,2.5h13.304c1.381,0,2.5-1.119,2.5-2.5
		c0-0.121-0.019-0.236-0.036-0.352h7.983c1.381,0,2.5-1.119,2.5-2.5c0-1.381-1.119-2.5-2.5-2.5H39.831v-1.452
		c2.612-1.006,4.469-3.534,4.469-6.498c0-3.85-3.121-6.97-6.969-6.97c-1.94,0-3.694,0.794-4.958,2.074l-1.229-2.023
		c-0.347-0.513-0.236-1.24,0.25-1.625l1.102-1.516l9.491-2.023l7.102,12.191c0.65,1.116,1.823,1.739,3.027,1.739
		c0.599,0,1.205-0.154,1.759-0.477C55.544,44.248,56.109,42.104,55.137,40.435z M34.867,54.652h-5.005V46.52l0.884-0.405
		c0.67,1.944,2.173,3.497,4.086,4.233V54.3C34.831,54.421,34.85,54.536,34.867,54.652z"/>
</g>
</svg>
