<?xml version="1.0" encoding="iso-8859-1"?>
<!-- Generator: Adobe Illustrator 17.1.0, SVG Export Plug-In . SVG Version: 6.00 Build 0)  -->
<!DOCTYPE svg PUBLIC "-//W3C//DTD SVG 1.1//EN" "http://www.w3.org/Graphics/SVG/1.1/DTD/svg11.dtd">
<svg version="1.1" id="Capa_1" xmlns="http://www.w3.org/2000/svg" xmlns:xlink="http://www.w3.org/1999/xlink" x="0px" y="0px"
	 viewBox="0 0 64 64" style="enable-background:new 0 0 64 64;" xml:space="preserve">
<g>
	<circle style="fill:#1D1D1B;" cx="32" cy="40.672" r="6.046"/>
	<path style="fill:#1D1D1B;" d="M46.188,41.176c0.75,0,1.505-0.24,2.143-0.735c1.527-1.185,1.804-3.384,0.619-4.911l-15.914-20.5
		c-1.037-1.336-2.88-1.737-4.381-0.958l-18.75,9.765c-1.14,0.594-1.802,1.729-1.865,2.925L6.186,37.844
		c0,0.553,0.341,1.29,0.762,1.647l7.226,5.287c0.421,0.357,1.198,0.543,1.734,0.414l0.153,0.001v10.131c0,1.381,1.119,2.5,2.5,2.5
		h17.75c1.296,0,2.35-0.99,2.475-2.254h1.089c1.381,0,2.5-1.119,2.5-2.5c0-1.381-1.119-2.5-2.5-2.5h-15.25v-6.344
		c0.004-0.051,0.002-0.1,0-0.148v-3.406c0-0.196-0.028-0.385-0.071-0.568v-4.271c-0.233-0.501-1.052-0.793-1.586-0.653l-3.316-0.131
		c-0.534,0.14-0.887-0.188-0.788-0.731l-0.098-7.204l10.531-5.484l14.123,18.193C44.111,40.711,45.144,41.176,46.188,41.176z"/>
	<circle style="fill:#1D1D1B;" cx="51.217" cy="51.149" r="5.344"/>
</g>
</svg>
