<?xml version="1.0" encoding="iso-8859-1"?>
<!-- Generator: Adobe Illustrator 17.1.0, SVG Export Plug-In . SVG Version: 6.00 Build 0)  -->
<!DOCTYPE svg PUBLIC "-//W3C//DTD SVG 1.1//EN" "http://www.w3.org/Graphics/SVG/1.1/DTD/svg11.dtd">
<svg version="1.1" id="Capa_1" xmlns="http://www.w3.org/2000/svg" xmlns:xlink="http://www.w3.org/1999/xlink" x="0px" y="0px"
	 viewBox="0 0 64 64" style="enable-background:new 0 0 64 64;" xml:space="preserve">
<g>
	<circle cx="41.773" cy="13.798" r="5.776"/>
	<path d="M10.516,48.013l16.473,0.152c0.01,0,0.018,0,0.027,0c1.025,0,1.98-0.523,2.53-1.389c0.556-0.874,0.622-1.972,0.174-2.905
		l-4.17-8.706l21.688,4.254c0.195,0.038,0.389,0.057,0.581,0.057c1.404,0,2.658-0.992,2.938-2.422
		c0.319-1.625-0.74-3.201-2.365-3.52L31.492,30.22l5.749-5.114l8.13,3.505c0.276,0.119,0.563,0.175,0.847,0.175
		c0.829,0,1.618-0.484,1.968-1.294c0.469-1.086-0.032-2.346-1.118-2.815l-7.623-3.287l-5.46-4.34
		c-0.35-0.611-0.991-1.038-1.745-1.078l-16.01-0.83c-1.178-0.068-2.188,0.846-2.25,2.028c-0.061,1.182,0.848,2.189,2.029,2.25
		l11.961,0.62L17.4,29.807c-0.347,0.321-0.485,0.937-0.307,1.375l0.691,1.697c0.027,0.067,0.075,0.132,0.117,0.197
		c0.004,0.009,0.005,0.018,0.01,0.027l4.322,9.021L10.57,42.016c-0.009,0-0.018,0-0.028,0c-1.643,0-2.982,1.324-2.997,2.971
		C7.529,46.642,8.858,47.997,10.516,48.013z"/>
	<path d="M34.271,39.492c-0.71,0-1.285,0.575-1.285,1.285v8.903l-5.245,4.332c-0.418,0.345-0.574,0.916-0.391,1.425
		c0.184,0.51,0.667,0.851,1.209,0.851H39.41c0.529,0,1.005-0.325,1.197-0.819c0.192-0.493,0.062-1.055-0.328-1.413l-4.723-4.335
		v-8.944C35.557,40.067,34.98,39.492,34.271,39.492z"/>
</g>
</svg>
