<?xml version="1.0" encoding="iso-8859-1"?>
<!-- Generator: Adobe Illustrator 17.1.0, SVG Export Plug-In . SVG Version: 6.00 Build 0)  -->
<!DOCTYPE svg PUBLIC "-//W3C//DTD SVG 1.1//EN" "http://www.w3.org/Graphics/SVG/1.1/DTD/svg11.dtd">
<svg version="1.1" id="Capa_1" xmlns="http://www.w3.org/2000/svg" xmlns:xlink="http://www.w3.org/1999/xlink" x="0px" y="0px"
	 viewBox="0 0 64 64" style="enable-background:new 0 0 64 64;" xml:space="preserve">
<g>
	<path d="M50.789,43.845H37.33l3.149-9.899c0.069-0.218,0.096-0.437,0.105-0.653c0.142-0.295,0.229-0.621,0.229-0.97v-8.409
		l4.961,3.391l1.396,8.12c0.167,0.974,1.013,1.661,1.969,1.661c0.113,0,0.227-0.009,0.341-0.029c1.088-0.187,1.819-1.221,1.632-2.31
		l-1.539-8.955c-0.092-0.533-0.396-1.007-0.843-1.312l-8.396-5.737c-0.302-0.206-0.642-0.31-0.982-0.335
		c-0.243-0.09-0.503-0.147-0.778-0.147h-6.297c-0.282,0-0.55,0.058-0.799,0.153c-0.026,0.003-0.051,0.001-0.077,0.005l-16.61,2.658
		c-1.091,0.174-1.833,1.2-1.659,2.291c0.158,0.983,1.007,1.684,1.973,1.684c0.105,0,0.211-0.008,0.318-0.025l14.615-2.339v8.671
		l-2.918,1.961c-0.188-0.329-0.455-0.621-0.793-0.844c-1.153-0.762-2.703-0.442-3.464,0.708l-3.834,5.807
		c-0.656,0.995-0.52,2.314,0.326,3.153c0.483,0.479,1.119,0.725,1.761,0.725c0.483,0,0.969-0.14,1.393-0.425l11.726-7.882h0.799
		l-2.953,9.284H12.211c-0.553,0-1,0.447-1,1v1.079c0,0.553,0.447,1,1,1h18.893l-1.768,5.559c-0.418,1.316,0.309,2.722,1.624,3.141
		c0.252,0.08,0.507,0.118,0.758,0.118c1.06,0,2.044-0.68,2.382-1.743l2.25-7.074h14.438c0.553,0,1-0.447,1-1v-1.079
		C51.789,44.292,51.342,43.845,50.789,43.845z"/>
	<circle cx="35.428" cy="11.202" r="4.712"/>
</g>
</svg>
