<?xml version="1.0" encoding="iso-8859-1"?>
<!-- Generator: Adobe Illustrator 17.1.0, SVG Export Plug-In . SVG Version: 6.00 Build 0)  -->
<!DOCTYPE svg PUBLIC "-//W3C//DTD SVG 1.1//EN" "http://www.w3.org/Graphics/SVG/1.1/DTD/svg11.dtd">
<svg version="1.1" id="Capa_1" xmlns="http://www.w3.org/2000/svg" xmlns:xlink="http://www.w3.org/1999/xlink" x="0px" y="0px"
	 viewBox="0 0 64 64" style="enable-background:new 0 0 64 64;" xml:space="preserve">
<g>
	<path d="M26.344,14.566c0,2.425,1.971,4.396,4.392,4.396c2.426,0,4.397-1.971,4.397-4.396c0-2.422-1.971-4.392-4.397-4.392
		C28.315,10.175,26.344,12.144,26.344,14.566z"/>
	<path d="M36.195,37.647V21.902c0-2.061-2.064-1.971-2.064-1.971h-6.619h-1.754c0,0-0.346-0.052-1.066,0.54l-4.875,2.845
		l-4.876-4.884l0.005-0.016c0.041-0.128,0.016-0.265-0.059-0.367c0.041-0.38,0.154-1.136,0.424-1.987
		c0.158-0.496,0.35-0.959,0.567-1.374c0.078-0.117,0.795-1.148,2.547-2.891c1.887-1.877,2.586-2.902,3.115-4.564
		c0.357-1.13,0.279-2.363-0.209-3.301c-0.439-0.844-1.172-1.431-2.176-1.747c-0.949-0.305-1.908-0.23-2.771,0.214
		c-0.971,0.499-1.781,1.467-2.117,2.524c-0.527,1.664-0.547,2.904-0.09,5.526c0.451,2.569,0.412,3.829,0.414,3.832
		c-0.002,0.007-0.047,0.643-0.336,1.552c-0.179,0.567-0.423,1.113-0.707,1.635c-0.708-0.193-1.491-0.053-2.094,0.456
		c-1,0.829-1.055,2.332-0.227,3.33l0.686,0.686l-0.303,0.955c-0.174,0.544,0.076,1.11,0.557,1.264
		c0.478,0.152,1.01-0.167,1.184-0.71l0.017-0.055l4.352,4.35c0.441,0.47,1.049,0.788,1.732,0.788c0.508,0,0.977-0.166,1.359-0.431
		l4.277-2.352v11.55l-6.539,19.985c-0.48,1.737,0.555,3.523,2.307,3.992c1.736,0.465,3.525-0.571,3.988-2.311l5.715-17.246
		l5.818,17.288c0.465,1.75,2.254,2.774,3.99,2.307c1.734-0.468,2.773-2.257,2.303-3.993L36.195,37.647z M16.188,11.819
		c0.432,0.134,0.805,0.21,1.096,0.253c-1.115,1.17-1.674,1.915-1.859,2.18l-0.213-0.067c0-0.327-0.025-1.271-0.269-2.898
		C15.234,11.461,15.635,11.646,16.188,11.819z"/>
	<path d="M25.264,7.164c0.41,0.756,1.357,1.037,2.113,0.626c0.31-0.169,0.613-0.694,0.613-0.694
		c-0.002-0.004,1.772-0.318,2.547-0.504c0.152-0.037,0.342-0.151,0.391-0.271c0.027-0.067,0.051-0.146,0.055-0.229
		c0.006-0.104-0.102-0.269-0.191-0.298c-0.051-0.017-0.113-0.029-0.188-0.028c-0.106,0.001-0.123-0.059-0.074-0.179
		c0.029-0.067,0.051-0.146,0.055-0.229c0.006-0.104-0.102-0.267-0.191-0.298c-0.051-0.017-0.111-0.029-0.188-0.028
		c-0.105,0.001-0.123-0.058-0.072-0.179c0.027-0.067,0.049-0.146,0.055-0.228c0.006-0.105-0.104-0.269-0.193-0.299
		c-0.049-0.017-0.111-0.029-0.188-0.028C29.701,4.3,29.684,4.241,29.734,4.12c0.027-0.067,0.051-0.146,0.055-0.228
		c0.006-0.104-0.104-0.268-0.193-0.298c-0.049-0.018-0.111-0.03-0.188-0.029c-0.106,0.001-0.123-0.057-0.072-0.178
		c0.027-0.068,0.051-0.146,0.055-0.229c0.006-0.104-0.104-0.268-0.193-0.298c-0.049-0.018-0.111-0.03-0.188-0.028
		c-0.106,0.001-0.283,0.109-0.4,0.215l-1.852,1.777l0.004,0.005c0,0-0.613,0.083-0.871,0.222
		C25.133,5.462,24.854,6.408,25.264,7.164z M29.81,5.839c0.065-0.019,0.133,0.012,0.162,0.067c0.006,0.011,0.01,0.02,0.012,0.03
		c0.022,0.075-0.023,0.153-0.098,0.175l-1.979,0.55c-0.074,0.022-0.152-0.023-0.174-0.098c-0.02-0.076,0.023-0.154,0.1-0.176
		L29.81,5.839z M29.232,4.839c0.068-0.037,0.154-0.012,0.191,0.058c0.037,0.068,0.012,0.155-0.057,0.191l-1.758,0.954
		c-0.068,0.038-0.154,0.012-0.191-0.057c-0.037-0.067-0.012-0.154,0.057-0.192L29.232,4.839z M27.117,5.206l1.539-1.359
		c0.058-0.053,0.148-0.046,0.199,0.012c0.008,0.009,0.016,0.017,0.02,0.026c0.031,0.058,0.019,0.129-0.031,0.175l-1.537,1.358
		c-0.059,0.051-0.148,0.047-0.201-0.014C27.055,5.346,27.06,5.256,27.117,5.206z"/>
</g>
</svg>
