<?xml version="1.0" encoding="iso-8859-1"?>
<!-- Generator: Adobe Illustrator 17.1.0, SVG Export Plug-In . SVG Version: 6.00 Build 0)  -->
<!DOCTYPE svg PUBLIC "-//W3C//DTD SVG 1.1//EN" "http://www.w3.org/Graphics/SVG/1.1/DTD/svg11.dtd">
<svg version="1.1" id="Capa_1" xmlns="http://www.w3.org/2000/svg" xmlns:xlink="http://www.w3.org/1999/xlink" x="0px" y="0px"
	 viewBox="0 0 64 64" style="enable-background:new 0 0 64 64;" xml:space="preserve">
<g>
	<path d="M45.839,28.674h-0.067c0,0,2.067-5.398,2.068-8.133C47.84,12.51,41.329,6,33.297,6c-8.03,0-14.541,6.51-14.541,14.541
		c0,3.302,2.955,8.133,2.955,8.133c0.054,0-5.274,15.942-7.202,23.136c-0.378,1.41-0.287,3.475,0.481,4.421
		c0.428,0.527,0.973,1.067,1.632,1.47c0.827,0.507,2.651,0.348,3.3-0.254c0.363-0.336,0.741-0.794,1.069-1.416
		c0.46-0.872,1.02-0.746,1.788,0.2c0.428,0.527,0.973,1.067,1.632,1.47c0.826,0.507,2.651,0.348,3.3-0.254
		c0.363-0.336,0.741-0.794,1.069-1.416c0.459-0.872,1.02-0.746,1.787,0.2c0.428,0.527,0.973,1.067,1.632,1.47
		c0.826,0.507,2.65,0.348,3.3-0.254c0.364-0.336,0.741-0.794,1.07-1.416c0.459-0.872,1.02-0.746,1.788,0.2
		c0.428,0.527,0.973,1.067,1.632,1.47c0.826,0.507,2.65,0.348,3.3-0.254c0.364-0.336,0.741-0.794,1.07-1.416
		c0.459-0.872,1.02-0.746,1.788,0.2c0.428,0.527,0.973,1.067,1.632,1.47c0.826,0.507,2.65,0.348,3.3-0.254
		c0.363-0.336,0.741-0.794,1.07-1.416c0.46-0.872,0.353-2.82,0.021-4.241L45.839,28.674z M28.218,30.533l-4.296,18.674
		c-0.141,0.61-0.685,1.024-1.287,1.024c-0.098,0-0.198-0.01-0.298-0.033c-0.711-0.164-1.155-0.873-0.992-1.585l4.297-18.675
		c0.163-0.71,0.878-1.155,1.584-0.991C27.938,29.111,28.382,29.82,28.218,30.533z M34.697,48.91c0,0.731-0.592,1.321-1.322,1.321
		s-1.322-0.591-1.322-1.321V30.236c0-0.731,0.592-1.322,1.322-1.322s1.322,0.591,1.322,1.322V48.91z M44.413,50.198
		c-0.1,0.023-0.2,0.033-0.298,0.033c-0.602,0-1.146-0.413-1.287-1.024l-4.297-18.674c-0.163-0.713,0.281-1.422,0.992-1.586
		c0.711-0.162,1.422,0.28,1.585,0.991l4.297,18.675C45.568,49.325,45.125,50.034,44.413,50.198z"/>
</g>
</svg>
