<?xml version="1.0" encoding="iso-8859-1"?>
<!-- Generator: Adobe Illustrator 17.1.0, SVG Export Plug-In . SVG Version: 6.00 Build 0)  -->
<!DOCTYPE svg PUBLIC "-//W3C//DTD SVG 1.1//EN" "http://www.w3.org/Graphics/SVG/1.1/DTD/svg11.dtd">
<svg version="1.1" id="Capa_1" xmlns="http://www.w3.org/2000/svg" xmlns:xlink="http://www.w3.org/1999/xlink" x="0px" y="0px"
	 viewBox="0 0 64 64" style="enable-background:new 0 0 64 64;" xml:space="preserve">
<g>
	<path d="M32,4.27c-15.04,0-27.275,12.235-27.275,27.275C4.725,46.584,16.96,58.82,32,58.82s27.275-12.235,27.275-27.275
		C59.275,16.505,47.04,4.27,32,4.27z M25.748,23.922c0.138,0.013,0.264,0.083,0.349,0.192l0.138,0.178
		c0.044,0.058,0.076,0.124,0.092,0.194c0.083,0.366,0.166,0.766,0.251,1.223c0.033,0.173-0.016,0.42-0.148,0.537l-2.429,2.141
		c-0.093,0.082-0.211,0.125-0.331,0.125c-0.059,0-0.118-0.01-0.175-0.032c-0.173-0.064-0.296-0.219-0.321-0.401l-0.031-0.232
		c-0.065-0.489-0.127-0.891-0.195-1.268c-0.031-0.172,0.018-0.417,0.15-0.533l2.271-2.001
		C25.474,23.955,25.614,23.911,25.748,23.922z M20.568,18.702l1.63-2.552c0.147-0.231,0.452-0.302,0.686-0.155l0.162,0.101
		c0.071,0.044,0.13,0.106,0.172,0.18c0.194,0.355,0.377,0.711,0.595,1.151c0.077,0.156,0.098,0.404,0.005,0.551l-1.74,2.724
		c-0.092,0.145-0.252,0.231-0.421,0.231c-0.013,0-0.026-0.001-0.039-0.002c-0.184-0.014-0.345-0.129-0.419-0.298l-0.094-0.214
		c-0.197-0.449-0.368-0.82-0.536-1.169C20.494,19.094,20.475,18.848,20.568,18.702z M17.725,37.729
		c0.194-0.022,0.378,0.062,0.482,0.223l1.871,2.874c0.09,0.139,0.141,0.369,0.077,0.521c-0.207,0.498-0.385,0.901-0.57,1.291
		l-0.094,0.201c-0.077,0.164-0.237,0.274-0.418,0.287c-0.012,0-0.023,0.001-0.035,0.001c-0.168,0-0.326-0.085-0.419-0.227
		l-1.826-2.804c-0.089-0.137-0.106-0.309-0.045-0.46c0.174-0.431,0.32-0.832,0.483-1.323l0.083-0.246
		C17.375,37.885,17.534,37.754,17.725,37.729z M17.511,25.09c-0.046-0.187,0.019-0.384,0.168-0.506
		c0.148-0.124,0.354-0.148,0.529-0.067l0.237,0.111c0.155,0.073,2.084,0.971,2.87,1.335c0.15,0.07,0.315,0.236,0.342,0.399
		c0.088,0.522,0.152,0.958,0.205,1.397l0.027,0.222c0.022,0.18-0.056,0.358-0.203,0.465c-0.087,0.063-0.19,0.095-0.294,0.095
		c-0.072,0-0.144-0.015-0.211-0.047l-3.03-1.409c-0.146-0.067-0.25-0.201-0.28-0.359c-0.101-0.534-0.194-0.964-0.297-1.382
		L17.511,25.09z M18.606,33.62c-0.123-0.106-0.186-0.265-0.17-0.427c0.053-0.534,0.078-1.009,0.095-1.412l0.011-0.259
		c0.008-0.192,0.125-0.362,0.302-0.438c0.175-0.076,0.38-0.043,0.525,0.082l0.445,0.386c0.504,0.438,1.627,1.412,2.145,1.865
		c0.122,0.106,0.232,0.308,0.217,0.468c-0.048,0.463-0.103,0.875-0.182,1.404l-0.034,0.224c-0.027,0.18-0.15,0.332-0.321,0.395
		c-0.057,0.021-0.115,0.031-0.173,0.031c-0.119,0-0.235-0.042-0.328-0.122L18.606,33.62z M19.481,19.346
		c0.21,0.438,0.392,0.838,0.583,1.285l0.089,0.208c0.072,0.167,0.047,0.36-0.064,0.504c-0.096,0.123-0.242,0.193-0.395,0.193
		c-0.026,0-0.052-0.002-0.078-0.006l-3.315-0.521c-0.157-0.025-0.293-0.123-0.367-0.265c-0.253-0.494-0.465-0.884-0.675-1.251
		l-0.124-0.216c-0.094-0.164-0.088-0.367,0.017-0.525c0.104-0.158,0.292-0.249,0.477-0.22l0.247,0.03
		c0.056,0.007,1.753,0.273,3.165,0.495C19.205,19.084,19.41,19.198,19.481,19.346z M18.279,11.534l-0.648,2.183l-0.15-0.183
		c-0.234-0.286-0.483-0.571-0.735-0.854C17.241,12.279,17.753,11.896,18.279,11.534z M16.373,12.989
		c0.271,0.304,0.55,0.633,0.857,1.007l0.143,0.175l-2.635,0.327C15.259,13.97,15.806,13.467,16.373,12.989z M14.198,48.025
		l0.094-0.104l0.054,0.234c0.001,0.004,0.003,0.014,0.006,0.031C14.3,48.132,14.248,48.079,14.198,48.025z M15.914,48.824
		c-0.096,0.109-0.233,0.17-0.375,0.17c-0.035,0-0.07-0.004-0.105-0.011c-0.177-0.038-0.32-0.169-0.372-0.343l-0.975-3.192
		c-0.047-0.154-0.017-0.32,0.08-0.448c0.261-0.345,0.552-0.736,0.83-1.143l0.152-0.223c0.11-0.16,0.304-0.24,0.495-0.211
		c0.192,0.032,0.348,0.172,0.4,0.36l0.072,0.26c0.014,0.047,0.131,0.43,0.281,0.921l0.639,2.086c0.047,0.157,0.034,0.39-0.067,0.518
		c-0.318,0.401-0.608,0.749-0.905,1.087L15.914,48.824z M21.449,49.157l-0.055,0.19c-0.016,0.054-0.04,0.105-0.072,0.151
		c-0.246,0.346-0.501,0.694-0.759,1.033c-0.1,0.131-0.294,0.253-0.462,0.253c-0.013,0-0.025,0-0.038-0.002l-3.222-0.375
		c-0.076-0.009-0.143-0.044-0.206-0.084c-0.023-0.019-0.047-0.037-0.071-0.056c-0.053-0.05-0.104-0.105-0.131-0.175
		c-0.067-0.173-0.034-0.368,0.087-0.508l0.154-0.178c0.257-0.299,0.518-0.616,0.821-0.995c0.108-0.135,0.321-0.257,0.49-0.239
		l3.04,0.351c0.146,0.017,0.277,0.097,0.359,0.219C21.466,48.864,21.489,49.016,21.449,49.157z M25.336,41.732
		c-0.151,0.441-0.309,0.849-0.445,1.199c-0.064,0.164-0.236,0.349-0.41,0.378l-3.201,0.529c-0.027,0.005-0.055,0.007-0.082,0.007
		c-0.155,0-0.303-0.072-0.398-0.197c-0.112-0.147-0.134-0.345-0.056-0.513l0.1-0.215c0.197-0.423,0.377-0.851,0.512-1.177
		c0.067-0.159,0.237-0.337,0.407-0.365l3.003-0.5c0.139-0.022,0.279,0.014,0.39,0.101c0.11,0.087,0.179,0.216,0.19,0.356l0.015,0.2
		C25.367,41.601,25.358,41.668,25.336,41.732z M26.949,34.438c-0.017,0.175-0.131,0.4-0.291,0.476l-2.922,1.388
		c-0.068,0.032-0.142,0.048-0.214,0.048c-0.106,0-0.211-0.033-0.298-0.099c-0.148-0.11-0.224-0.294-0.196-0.476l0.035-0.232
		c0.063-0.416,0.115-0.832,0.16-1.272c0.018-0.175,0.134-0.398,0.294-0.473l2.727-1.291c0.247-0.114,0.541-0.014,0.662,0.231
		l0.087,0.175c0.038,0.076,0.055,0.16,0.051,0.244C27.024,33.556,26.994,33.952,26.949,34.438z M47.134,12.938L47.64,13
		c0.589,0.497,1.155,1.022,1.694,1.574l-3.244-0.403l0.143-0.175c0.276-0.338,0.564-0.678,0.857-1.009L47.134,12.938z
		 M46.837,12.352l0.042,0.14l-0.046,0.052c-0.32,0.357-0.598,0.68-0.849,0.99l-0.149,0.185l-0.779-2.623
		C45.668,11.488,46.263,11.907,46.837,12.352z M43.284,20.843l0.087-0.207c0.167-0.397,0.355-0.811,0.558-1.231
		c0.071-0.147,0.239-0.31,0.4-0.336c0.867-0.138,3.159-0.497,3.222-0.505l0.251-0.032c0.186-0.021,0.373,0.061,0.479,0.219
		c0.105,0.158,0.112,0.362,0.018,0.526l-0.125,0.218c-0.233,0.407-0.448,0.807-0.639,1.188c-0.072,0.145-0.239,0.302-0.398,0.328
		l-3.314,0.521c-0.026,0.004-0.052,0.006-0.078,0.006c-0.152,0-0.298-0.07-0.393-0.192C43.24,21.203,43.214,21.01,43.284,20.843z
		 M41.471,33.461c0.583-0.509,1.754-1.523,2.236-1.942l0.406-0.352c0.146-0.126,0.352-0.156,0.526-0.082
		c0.176,0.077,0.294,0.247,0.301,0.44l0.01,0.26c0.02,0.501,0.048,0.942,0.086,1.349c0.015,0.161-0.042,0.382-0.164,0.488
		l-2.526,2.195c-0.093,0.08-0.21,0.123-0.328,0.123c-0.057,0-0.115-0.01-0.17-0.03c-0.17-0.062-0.294-0.211-0.324-0.39l-0.036-0.221
		c-0.07-0.43-0.129-0.869-0.18-1.343C41.292,33.794,41.348,33.569,41.471,33.461z M41.303,27.983l0.027-0.223
		c0.057-0.469,0.119-0.905,0.191-1.333c0.028-0.164,0.146-0.369,0.297-0.438c0.872-0.402,2.775-1.289,2.922-1.358l0.236-0.113
		c0.174-0.084,0.38-0.06,0.53,0.062c0.15,0.122,0.217,0.318,0.172,0.506l-0.062,0.255c-0.105,0.434-0.2,0.878-0.281,1.319
		c-0.029,0.159-0.146,0.357-0.292,0.426l-3.032,1.41c-0.067,0.031-0.139,0.046-0.211,0.046c-0.104,0-0.206-0.032-0.294-0.095
		C41.359,28.341,41.282,28.163,41.303,27.983z M43.077,40.879c0.514-0.792,1.688-2.595,1.767-2.715l0.142-0.214
		c0.106-0.159,0.294-0.247,0.483-0.219c0.189,0.025,0.348,0.156,0.408,0.337l0.081,0.243c0.156,0.467,0.305,0.881,0.457,1.267
		c0.059,0.15,0.066,0.38-0.022,0.516l-1.822,2.802c-0.093,0.143-0.251,0.228-0.419,0.228c-0.011,0-0.022-0.001-0.032-0.001
		c-0.181-0.012-0.34-0.12-0.418-0.283l-0.096-0.201c-0.178-0.371-0.351-0.764-0.546-1.235
		C42.996,41.252,42.987,41.018,43.077,40.879z M39.618,17.486c0.21-0.42,0.404-0.803,0.611-1.178
		c0.019-0.036,0.044-0.068,0.071-0.098c0.028-0.03,0.1-0.101,0.134-0.124l0.134-0.088c0.112-0.073,0.248-0.098,0.379-0.07
		c0.131,0.028,0.245,0.107,0.316,0.22l0.068,0.106c0,0,0.965,1.515,1.527,2.387c0.095,0.148,0.144,0.394,0.067,0.551
		c-0.199,0.402-0.365,0.762-0.571,1.229l-0.093,0.213c-0.074,0.169-0.235,0.284-0.419,0.298c-0.013,0.001-0.026,0.002-0.039,0.002
		c-0.17,0-0.329-0.086-0.421-0.231l-1.739-2.722C39.548,17.831,39.539,17.644,39.618,17.486z M37.136,24.489
		c0.021-0.093,0.075-0.213,0.143-0.28l0.139-0.138c0.187-0.187,0.487-0.195,0.684-0.021L40.314,26
		c0.131,0.116,0.246,0.339,0.214,0.511c-0.086,0.475-0.149,0.888-0.205,1.331l-0.03,0.234c-0.023,0.184-0.147,0.339-0.319,0.405
		c-0.058,0.021-0.117,0.032-0.177,0.032c-0.12,0-0.238-0.043-0.331-0.125l-2.433-2.142c-0.131-0.116-0.193-0.292-0.161-0.465
		C36.962,25.297,37.047,24.886,37.136,24.489z M36.523,34.515c-0.049-0.48-0.08-0.901-0.102-1.322
		c-0.004-0.086,0.012-0.203,0.05-0.28l0.086-0.175c0.121-0.244,0.414-0.348,0.663-0.23l2.726,1.292
		c0.158,0.075,0.265,0.226,0.283,0.4c0.053,0.509,0.106,0.925,0.171,1.341l0.036,0.233c0.028,0.183-0.047,0.367-0.195,0.478
		c-0.088,0.065-0.193,0.099-0.299,0.099c-0.073,0-0.146-0.016-0.214-0.048l-2.922-1.388C36.648,34.84,36.542,34.688,36.523,34.515z
		 M38.6,42.998c-0.184-0.464-0.331-0.858-0.464-1.236c-0.026-0.076-0.044-0.185-0.033-0.264l0.027-0.195
		c0.018-0.133,0.09-0.253,0.198-0.333c0.109-0.08,0.245-0.113,0.377-0.091l2.928,0.487c0.171,0.029,0.384,0.156,0.449,0.316
		c0.176,0.434,0.348,0.829,0.537,1.239l0.099,0.212c0.078,0.168,0.057,0.366-0.056,0.513c-0.096,0.125-0.243,0.197-0.398,0.197
		c-0.027,0-0.054-0.002-0.082-0.007l-3.198-0.529C38.81,43.28,38.664,43.163,38.6,42.998z M47.027,50.092
		c-0.067,0.172-0.224,0.294-0.408,0.315l-3.218,0.375c-0.02,0.003-0.039,0.003-0.058,0.003c-0.154,0-0.3-0.071-0.396-0.194
		l-0.044-0.056c-0.282-0.367-0.543-0.729-0.761-1.037c-0.017-0.023-0.05-0.087-0.062-0.113l-0.069-0.217
		c-0.039-0.135-0.019-0.28,0.055-0.4c0.073-0.12,0.194-0.203,0.332-0.229l0.143-0.027l2.87-0.332
		c0.172-0.023,0.416,0.044,0.523,0.183c0.291,0.375,0.556,0.698,0.854,1.045l0.153,0.178C47.06,49.724,47.094,49.919,47.027,50.092z
		 M48.156,48.976c-0.035,0.008-0.07,0.011-0.105,0.011c-0.142,0-0.28-0.061-0.375-0.17l-0.148-0.169
		c-0.289-0.331-0.579-0.679-0.862-1.035c-0.103-0.129-0.175-0.352-0.127-0.509l0.364-1.185c0.281-0.914,0.571-1.861,0.59-1.917
		l0.082-0.241c0.061-0.18,0.219-0.31,0.407-0.335c0.191-0.026,0.375,0.059,0.481,0.216l0.141,0.209
		c0.225,0.333,0.483,0.689,0.787,1.087c0.097,0.128,0.167,0.345,0.12,0.499l-0.981,3.195C48.476,48.807,48.333,48.938,48.156,48.976
		z M49.004,48.848c0.061-0.383,0.106-0.662,0.109-0.683l0.038-0.262l0.178,0.196c0.064,0.07,0.137,0.14,0.203,0.21
		C49.357,48.491,49.183,48.671,49.004,48.848z"/>
</g>
</svg>
