<?xml version="1.0" encoding="iso-8859-1"?>
<!-- Generator: Adobe Illustrator 17.1.0, SVG Export Plug-In . SVG Version: 6.00 Build 0)  -->
<!DOCTYPE svg PUBLIC "-//W3C//DTD SVG 1.1//EN" "http://www.w3.org/Graphics/SVG/1.1/DTD/svg11.dtd">
<svg version="1.1" id="Capa_1" xmlns="http://www.w3.org/2000/svg" xmlns:xlink="http://www.w3.org/1999/xlink" x="0px" y="0px"
	 viewBox="0 0 64 64" style="enable-background:new 0 0 64 64;" xml:space="preserve">
<g>
	<path d="M44.57,34.768c0.542,0.351,1.511,0.043,2.15-0.743c1.203-1.477,2.76-3.562,3.369-5.138
		c0.692-1.796,2.593-3.271,4.304-4.291c0.869-0.519,1.455-1.149,1.285-1.503c-0.109-0.228-0.203-0.448-0.275-0.653
		c-0.466-1.313-2.039-2.751-3.517-3.212c-0.376-0.117-0.774-0.324-1.175-0.599c-0.603-0.413-1.493-0.167-1.998,0.711
		c-0.793,1.377-1.6,3.132-1.931,4.982c-0.495,2.765-1.653,5.984-2.509,8.133C43.9,33.399,44.028,34.417,44.57,34.768z"/>
	<path d="M58.231,26.653c-0.157-0.146-0.317-0.31-0.479-0.488c-0.254-0.28-1.192-0.175-2.066,0.337
		c-1.473,0.862-2.996,2.013-3.458,3.211c-0.714,1.852-2.404,4.136-3.701,5.731c-0.641,0.787-0.557,1.934,0.165,2.645
		c0.672,0.662,1.333,1.384,1.979,2.174c0.194,0.238,0.284,0.537,0.254,0.842c-0.031,0.305-0.179,0.578-0.417,0.772
		c-0.205,0.166-0.462,0.258-0.724,0.258c-0.348,0-0.672-0.153-0.89-0.422c-6.65-8.153-15.572-8.564-15.661-8.567
		c-0.632-0.021-1.129-0.551-1.111-1.181c0.02-0.623,0.523-1.112,1.146-1.112c0.107,0.003,0.756,0.029,1.779,0.194
		c0.978,0.157,1.904-0.453,2.003-1.461c0.179-1.845,0.236-4.501-0.287-7.638c-0.729-4.379,0.623-8.297,1.726-10.604
		c0.438-0.915,0.787-1.741,0.698-1.902c-0.052-0.098-0.101-0.197-0.143-0.298c-0.719-1.646-3.299-2.506-5.764-1.919l-0.708,0.169
		c-2.464,0.586-4.239,3.111-3.6,5.562c0.457,1.75,1.148,3.953,2.195,6.51c0.908,2.22,1.217,4.044,1.223,5.495
		c0.011,2.534-3.303,4.083-5.786,4.59c-0.336,0.069-0.659,0.145-0.973,0.228c-2.45,0.644-4.774-0.333-6.1-2.494
		c-2.12-3.456-5.088-5.41-7.53-6.5c-2.313-1.033-5.714-0.018-7.361,1.586c-1.648,1.605-1.722,4.526-0.043,6.423
		c0.329,0.372,0.681,0.764,1.051,1.168c1.712,1.868,4.782,4.748,5.603,7.145c0.21,0.611,0.357,1.218,0.46,1.801
		c0.438,2.495,0.376,6.73,2.252,8.433c0.628,0.57,1.332,1.097,2.03,1.564c2.107,1.409,4.856,4.219,6.938,5.664
		c2.652,1.838,7.544,3.388,16.341,1.596c11.282-2.298,17.64-10.974,20.537-16.242c0.903-1.645,1.346-4.026,1.342-5.968
		c-0.001-1.014-0.33-2.635-0.691-3.582C59.881,28.855,59.021,27.382,58.231,26.653z"/>
	<path d="M40.291,32.535c0.696,0.284,1.569-0.209,1.94-1.152c0.807-2.052,1.852-4.996,2.295-7.462
		c0.452-2.523,1.623-4.835,2.643-6.471c0.537-0.86,0.918-1.698,0.795-1.924c-0.075-0.139-0.145-0.278-0.206-0.417
		c-0.802-1.815-2.788-3.219-4.435-3.135c-0.381,0.019-0.775-0.037-1.166-0.152c-0.625-0.186-1.481,0.244-1.882,1.176
		c-0.89,2.076-1.809,5.219-1.249,8.574c0.604,3.627,0.496,6.65,0.267,8.671C39.178,31.249,39.595,32.251,40.291,32.535z"/>
	<path d="M30.177,24.969c-0.001-0.39-0.035-0.795-0.089-1.21c-0.595,0.102-1.172,0.223-1.726,0.372
		c0.347,0.688,0.641,1.425,0.894,2.195C29.815,25.903,30.179,25.436,30.177,24.969z"/>
	<path d="M18.44,14.839c0.65,0.311,1.667,0.846,2.849,1.627c1.052-0.371,2.205-0.675,3.443-0.883
		c-0.969-0.794-1.908-1.438-2.726-1.936C20.71,13.967,19.518,14.375,18.44,14.839z"/>
	<path d="M22.468,17.298c0.939,0.703,1.915,1.549,2.854,2.543c0.898-0.265,1.854-0.48,2.869-0.625
		c-0.722-0.992-1.516-1.874-2.331-2.644C24.647,16.715,23.517,16.973,22.468,17.298z"/>
	<path d="M21.378,21.436c0.805-0.422,1.713-0.831,2.711-1.192c-0.988-0.987-2.012-1.815-2.961-2.48
		c-0.938,0.365-1.79,0.77-2.539,1.18C19.508,19.637,20.462,20.466,21.378,21.436z"/>
	<path d="M20.821,26.473c0.535-0.388,1.198-0.829,1.983-1.28c-0.507-0.83-1.068-1.591-1.669-2.285
		c-0.792,0.457-1.453,0.899-1.968,1.277c0.567,0.675,1.087,1.388,1.549,2.141C20.749,26.379,20.788,26.423,20.821,26.473z"/>
	<path d="M20.322,22.023c-0.938-0.959-1.911-1.77-2.83-2.435c-0.825,0.517-1.473,0.993-1.911,1.344
		c1.019,0.71,1.959,1.507,2.803,2.389C18.894,22.937,19.539,22.489,20.322,22.023z"/>
	<path d="M17.115,15.464c-0.774,0.395-1.485,0.807-2.122,1.222c0.671,0.341,1.558,0.842,2.552,1.512
		c0.705-0.41,1.511-0.823,2.405-1.207c-1.524-0.943-2.645-1.41-2.676-1.422C17.213,15.544,17.162,15.506,17.115,15.464z"/>
	<path d="M27.403,16.463c0.167,0.174,0.336,0.342,0.499,0.525c-0.06-0.176-0.12-0.352-0.178-0.528
		C27.617,16.462,27.51,16.46,27.403,16.463z"/>
	<path d="M24.179,28.115c-0.229-0.665-0.491-1.307-0.799-1.909c-0.694,0.398-1.295,0.789-1.782,1.135
		C22.322,27.938,23.217,28.216,24.179,28.115z"/>
	<path d="M24.959,21.172c-1.023,0.346-1.947,0.751-2.776,1.172c0.587,0.702,1.14,1.467,1.64,2.301
		c0.844-0.43,1.783-0.847,2.828-1.204C26.136,22.616,25.565,21.86,24.959,21.172z"/>
	<path d="M12.041,18.984c0.111,0.042,0.224,0.077,0.33,0.125c0.768,0.343,1.499,0.737,2.202,1.164c0.392-0.333,1.023-0.834,1.88-1.4
		c-1.079-0.698-1.985-1.171-2.537-1.435C13.166,17.991,12.535,18.524,12.041,18.984z"/>
	<path d="M25.857,27.753c0.826-0.169,1.671-0.459,2.397-0.819c-0.271-0.872-0.604-1.701-1.005-2.466
		c-1.052,0.351-2.004,0.763-2.852,1.193c0.353,0.695,0.651,1.442,0.91,2.221C25.491,27.838,25.668,27.792,25.857,27.753z"/>
	<path d="M27.362,15.322c-0.196-0.64-0.381-1.276-0.544-1.902c-0.039-0.148-0.066-0.297-0.093-0.447
		c-1.087,0.045-2.114,0.166-3.093,0.334c0.845,0.567,1.754,1.256,2.665,2.079C26.646,15.356,27,15.333,27.362,15.322z"/>
	<path d="M28.904,20.284c-0.959,0.11-1.873,0.289-2.733,0.521c0.578,0.698,1.122,1.46,1.614,2.287
		c0.666-0.186,1.372-0.337,2.102-0.46c-0.086-0.375-0.19-0.759-0.316-1.15C29.364,21.067,29.142,20.669,28.904,20.284z"/>
</g>
</svg>
