<?xml version="1.0" encoding="iso-8859-1"?>
<!-- Generator: Adobe Illustrator 17.1.0, SVG Export Plug-In . SVG Version: 6.00 Build 0)  -->
<!DOCTYPE svg PUBLIC "-//W3C//DTD SVG 1.1//EN" "http://www.w3.org/Graphics/SVG/1.1/DTD/svg11.dtd">
<svg version="1.1" id="Capa_1" xmlns="http://www.w3.org/2000/svg" xmlns:xlink="http://www.w3.org/1999/xlink" x="0px" y="0px"
	 viewBox="0 0 64 64" style="enable-background:new 0 0 64 64;" xml:space="preserve">
<g>
	<path d="M60.127,32.539c-10.115-1.986-6.6-5.496-13.882-15.51c-7.72-10.614-25.916-9.373-35.702-1.102
		c-9.786,8.27-4.135,28.671-3.446,31.428c0.152,0.61,0.306,1.072,0.45,1.421c0.316,0.761,1.079,1.963,1.615,2.929
		c1.85,3.333,6.439,4.989,9.079,5.691c1.067,0.284,2.624-0.157,3.453-0.886l6.094-5.354c0.829-0.729,0.956-2.03,0.281-2.904
		c-0.964-1.249-2.225-2.878-2.708-3.482c-0.827-1.034-2.894-6.41,6.203-5.997c9.098,0.414,12.302-1.861,15.817-2.584
		c3.515-0.724,6.307-1.793,11.131-1.103c1.781,0.254,2.735,0.021,3.23-0.376C62.605,34.02,61.211,32.751,60.127,32.539z"/>
	<path d="M33.609,46.933c3.516,3.13,8.167,5.922,12.406,6.025c2.951,0.072,6.054-3.553,7.665-5.761
		c0.651-0.893,0.698-2.444,0.215-3.438c-0.859-1.767-2.057-4.467-2.349-6.308c-0.299,0.068-0.597,0.134-0.898,0.205
		c-0.638,0.148-1.282,0.299-1.953,0.437c-0.841,0.173-1.683,0.45-2.656,0.771c-2.878,0.949-6.534,2.163-13.532,1.842
		c-2.93-0.134-4.827,0.376-5.297,1.354c-0.376,0.781,0.123,1.944,0.334,2.207c0.265,0.332,0.766,0.973,1.321,1.689
		c0.16-0.068,0.315-0.133,0.459-0.189C30.357,45.368,31.838,45.355,33.609,46.933z"/>
</g>
</svg>
