<?xml version="1.0" encoding="iso-8859-1"?>
<!-- Generator: Adobe Illustrator 17.1.0, SVG Export Plug-In . SVG Version: 6.00 Build 0)  -->
<!DOCTYPE svg PUBLIC "-//W3C//DTD SVG 1.1//EN" "http://www.w3.org/Graphics/SVG/1.1/DTD/svg11.dtd">
<svg version="1.1" id="Capa_1" xmlns="http://www.w3.org/2000/svg" xmlns:xlink="http://www.w3.org/1999/xlink" x="0px" y="0px"
	 viewBox="0 0 64 64" style="enable-background:new 0 0 64 64;" xml:space="preserve">
<g>
	<path d="M28.038,30.399c-1.871,3.349-3.806,6.812-4.671,8.155c-0.635,0.987-2.93,4.379-10.255,14.928
		c-0.6-0.139-1.246,0.105-1.639,0.677c-0.233,0.339-0.319,0.747-0.244,1.151c0.075,0.403,0.304,0.753,0.642,0.986l2.06,1.416
		c0.258,0.177,0.559,0.271,0.871,0.271h0.001c0.506,0,0.979-0.249,1.3-0.716c0.363-0.528,0.35-1.212,0.012-1.722
		c1.369-2.014,8.711-12.81,10.262-14.924c0.943-1.288,3.481-4.332,5.934-7.275c2.018-2.421,3.923-4.708,4.836-5.889
		c1.998-2.586,5.251-6.997,5.294-7.054l6.105-8.883c1.238-1.801,0.416-3.159-0.213-3.641l-2.285-1.57
		c-0.049-0.03-0.497-0.292-1.136-0.292c-0.614,0-1.515,0.245-2.317,1.413l-6.115,8.896c-0.029,0.046-2.981,4.664-4.68,7.456
		C31.023,25.056,29.573,27.651,28.038,30.399z"/>
</g>
</svg>
