<?xml version="1.0" encoding="iso-8859-1"?>
<!-- Generator: Adobe Illustrator 17.1.0, SVG Export Plug-In . SVG Version: 6.00 Build 0)  -->
<!DOCTYPE svg PUBLIC "-//W3C//DTD SVG 1.1//EN" "http://www.w3.org/Graphics/SVG/1.1/DTD/svg11.dtd">
<svg version="1.1" id="Capa_1" xmlns="http://www.w3.org/2000/svg" xmlns:xlink="http://www.w3.org/1999/xlink" x="0px" y="0px"
	 viewBox="0 0 64 64" style="enable-background:new 0 0 64 64;" xml:space="preserve">
<g>
	<path d="M30.072,14.765c0,2.392,1.944,4.336,4.333,4.336c2.393,0,4.337-1.944,4.337-4.336c0-2.39-1.944-4.333-4.337-4.333
		C32.016,10.433,30.072,12.375,30.072,14.765z"/>
	<path d="M22.382,56.906c-0.476,1.714,0.546,3.477,2.274,3.94c1.713,0.458,3.477-0.565,3.936-2.28l5.636-17.015l5.74,17.056
		c0.458,1.727,2.225,2.737,3.937,2.275c1.712-0.461,2.735-2.225,2.273-3.939l-6.389-19.408V22.001c0-2.033-2.035-1.943-2.035-1.943
		h-6.532h-1.729c0,0-0.343-0.05-1.053,0.533l-4.809,2.806l-5.019-5.024c-0.819-0.973-2.264-1.112-3.233-0.294
		c-0.985,0.818-1.039,2.3-0.222,3.285l6.404,6.402c0.435,0.463,1.036,0.777,1.71,0.777c0.499,0,0.962-0.164,1.34-0.425l4.22-2.32
		v11.393L22.382,56.906z"/>
	<path d="M12.836,21.367l-0.067,0.074c-0.229,0.23-0.24,0.593-0.011,0.818l1.265,1.289c0.217,0.224,0.589,0.229,0.818,0l0.078-0.062
		c0.216-0.231,0.23-0.6,0-0.826l-1.254-1.284C13.437,21.146,13.065,21.146,12.836,21.367z"/>
	<path d="M32.232,3.432c-0.373-0.009-0.692,0.135-0.945,0.352L26.011,9l-7.397,7.997l0.895,0.913l8.251-7.115l5.484-5.056
		c0.216-0.242,0.359-0.561,0.359-0.908C33.603,4.066,32.99,3.44,32.232,3.432z"/>
</g>
</svg>
