<?xml version="1.0" encoding="iso-8859-1"?>
<!-- Generator: Adobe Illustrator 17.1.0, SVG Export Plug-In . SVG Version: 6.00 Build 0)  -->
<!DOCTYPE svg PUBLIC "-//W3C//DTD SVG 1.1//EN" "http://www.w3.org/Graphics/SVG/1.1/DTD/svg11.dtd">
<svg version="1.1" id="Capa_1" xmlns="http://www.w3.org/2000/svg" xmlns:xlink="http://www.w3.org/1999/xlink" x="0px" y="0px"
	 viewBox="0 0 64 64" style="enable-background:new 0 0 64 64;" xml:space="preserve">
<g>
	<path d="M8.669,54.897c-1.263,1.067-1.423,2.963-0.356,4.229c1.029,1.214,3.011,1.384,4.227,0.356l7.489-6.324
		c0.492-0.416,0.842-0.99,0.987-1.617l1.109-4.81l4.782,2.593v8.864c0,1.654,1.346,3,3,3s3-1.346,3-3v-10.65
		c0-1.101-0.601-2.111-1.57-2.637l-4.329-2.348l-2.592-15.11l4.002-5.216c0.3-0.391,0.465-0.877,0.465-1.37v-5.482
		c0-1.241-1.009-2.25-2.25-2.25c-1.241,0-2.25,1.009-2.25,2.25v4.719l-2.316,3.019l-7.597,1.303l-2.269-2.647l0.646-7.962
		c0.1-1.236-0.825-2.324-2.062-2.425c-1.238-0.084-2.324,0.846-2.423,2.062L7.641,22.34c-0.049,0.602,0.141,1.187,0.534,1.646
		l5.629,6.568l2.661,14.023l-1.071,4.641L8.669,54.897z"/>
	<path d="M20.08,21.634c2.551-0.909,3.86-3.714,2.96-6.238c-0.919-2.542-3.71-3.874-6.257-2.953
		c-2.548,0.896-3.853,3.711-2.956,6.256C14.738,21.221,17.54,22.551,20.08,21.634z"/>
	<circle cx="27.818" cy="7.257" r="4.079"/>
	<path d="M40.75,24.981h1.019c0.773,1.628,1.844,4.817,1.113,9.04c-0.047,0.272,0.135,0.531,0.407,0.578
		c0.029,0.005,0.058,0.007,0.086,0.007c0.239,0,0.45-0.171,0.492-0.414c0.126-0.727,0.194-1.419,0.23-2.086h3.589v2.333
		c0,0.276,0.224,0.5,0.5,0.5c0.276,0,0.5-0.224,0.5-0.5v-2.333h3.341c0.036,0.667,0.104,1.358,0.23,2.086
		c0.042,0.243,0.253,0.414,0.492,0.414c0.028,0,0.057-0.002,0.086-0.007c0.272-0.047,0.454-0.306,0.407-0.578
		c-0.728-4.211,0.344-7.408,1.116-9.04h1.264c0.829,0,1.5-0.671,1.5-1.5c0-0.829-0.671-1.5-1.5-1.5H40.75
		c-0.829,0-1.5,0.671-1.5,1.5C39.25,24.31,39.921,24.981,40.75,24.981z M48.688,24.981h4.562c-0.287,0.66-0.583,1.498-0.817,2.482
		h-3.746V24.981z M48.688,28.463h3.542c-0.137,0.802-0.22,1.685-0.225,2.643h-3.318V28.463z M47.688,31.106h-3.566
		c-0.005-0.958-0.088-1.841-0.225-2.643h3.791V31.106z M47.688,24.981v2.482h-3.994c-0.234-0.984-0.53-1.822-0.817-2.482H47.688z"/>
</g>
</svg>
