<?xml version="1.0" encoding="iso-8859-1"?>
<!-- Generator: Adobe Illustrator 17.1.0, SVG Export Plug-In . SVG Version: 6.00 Build 0)  -->
<!DOCTYPE svg PUBLIC "-//W3C//DTD SVG 1.1//EN" "http://www.w3.org/Graphics/SVG/1.1/DTD/svg11.dtd">
<svg version="1.1" id="Capa_1" xmlns="http://www.w3.org/2000/svg" xmlns:xlink="http://www.w3.org/1999/xlink" x="0px" y="0px"
	 viewBox="0 0 64 64" style="enable-background:new 0 0 64 64;" xml:space="preserve">
<g>
	<path d="M31.771,32.212v21.716l-3.814,5.479c-0.196,0.283-0.22,0.651-0.06,0.956c0.159,0.305,0.475,0.497,0.819,0.497h7.982
		c0.333,0,0.64-0.179,0.805-0.469c0.163-0.29,0.159-0.646-0.013-0.931l-3.256-5.427V32.217h1.539
		c5.773,0,10.471-4.697,10.471-10.471V11.172c0-3.566-7.808-4.518-12.421-4.518c-4.614,0-12.422,0.952-12.422,4.518v10.574
		C21.401,27.486,26.044,32.157,31.771,32.212z M38.499,22.516h-3.752v-2.82h4.37C38.863,20.568,38.652,21.511,38.499,22.516z
		 M32.899,17.848h-4.626c-0.429-1.097-0.896-2.043-1.344-2.83c1.961,0.419,4.134,0.611,5.97,0.658V17.848z M28.9,19.696h4v2.82
		h-3.382C29.365,21.511,29.154,20.568,28.9,19.696z M39.744,17.848h-4.997v-2.172c1.972-0.051,4.328-0.272,6.398-0.759
		C40.68,15.724,40.191,16.704,39.744,17.848z M33.823,9.118c5.741,0,9.406,1.298,9.929,2.054c-0.523,0.755-4.188,2.053-9.929,2.053
		c-5.742,0-9.407-1.298-9.93-2.053C24.416,10.417,28.081,9.118,33.823,9.118z M23.865,14.047c0.113,0.052,0.222,0.106,0.34,0.155
		c1.146,1.561,3.835,5.885,3.719,11.992c-0.01,0.51,0.396,0.931,0.906,0.941c0.006,0,0.012,0,0.017,0
		c0.502,0,0.914-0.402,0.924-0.907c0.012-0.643-0.012-1.26-0.052-1.865h3.179v1.848c0,0.51,0.413,0.924,0.924,0.924
		c0.51,0,0.924-0.414,0.924-0.924v-1.848h3.549c-0.04,0.605-0.064,1.223-0.052,1.865c0.01,0.504,0.422,0.907,0.924,0.907
		c0.006,0,0.012,0,0.017,0c0.51-0.01,0.916-0.431,0.906-0.941c-0.114-6.027,2.527-10.344,3.69-11.947v7.499
		c0,4.415-3.593,8.007-8.008,8.007h-3.901c-4.415,0-8.007-3.592-8.007-8.007V14.047z"/>
</g>
</svg>
