<?xml version="1.0" encoding="iso-8859-1"?>
<!-- Generator: Adobe Illustrator 17.1.0, SVG Export Plug-In . SVG Version: 6.00 Build 0)  -->
<!DOCTYPE svg PUBLIC "-//W3C//DTD SVG 1.1//EN" "http://www.w3.org/Graphics/SVG/1.1/DTD/svg11.dtd">
<svg version="1.1" id="Capa_1" xmlns="http://www.w3.org/2000/svg" xmlns:xlink="http://www.w3.org/1999/xlink" x="0px" y="0px"
	 viewBox="0 0 64 64" style="enable-background:new 0 0 64 64;" xml:space="preserve">
<g>
	<path d="M32.334,60.238c14.913,0,27.046-12.133,27.046-27.046S47.248,6.146,32.334,6.146c-14.913,0-27.046,12.133-27.046,27.046
		S17.421,60.238,32.334,60.238z M8.289,33.192c0-0.386,0.011-0.769,0.029-1.151h22.864v-4.444
		c-6.605-0.434-10.649-4.14-13.346-6.612c-1.414-1.298-2.977-2.304-4.138-2.966c0.55-0.675,1.137-1.319,1.756-1.93
		c1.207,0.72,2.704,1.731,4.105,3.017c2.553,2.338,6.022,5.515,11.622,5.939V9.176c0.382-0.018,0.766-0.029,1.152-0.029
		c0.468,0,0.932,0.017,1.394,0.043v15.854c5.608-0.425,9.072-3.602,11.623-5.939c1.333-1.222,2.738-2.191,3.958-2.927
		c0.614,0.612,1.191,1.26,1.736,1.935c-1.156,0.668-2.621,1.632-3.973,2.872c-2.696,2.473-6.738,6.179-13.345,6.612v4.444h22.623
		c0.018,0.382,0.029,0.765,0.029,1.151c0,0.469-0.017,0.934-0.043,1.396H33.728v4.442c6.603,0.434,10.647,4.14,13.345,6.611
		c1.296,1.189,2.716,2.133,3.843,2.794c-0.552,0.672-1.142,1.311-1.763,1.919c-1.173-0.718-2.519-1.658-3.802-2.833
		c-2.55-2.339-6.014-5.517-11.623-5.939v15.612c-0.461,0.026-0.925,0.044-1.394,0.044c-0.386,0-0.77-0.011-1.152-0.029V41.584
		c-5.602,0.422-9.07,3.6-11.622,5.938c-1.352,1.237-2.786,2.219-3.95,2.923c-0.625-0.606-1.22-1.242-1.776-1.912
		c1.164-0.67,2.641-1.641,4.002-2.89c2.699-2.473,6.746-6.179,13.347-6.612v-4.442H8.332C8.306,34.126,8.289,33.661,8.289,33.192z"
		/>
</g>
</svg>
