<?xml version="1.0" encoding="iso-8859-1"?>
<!-- Generator: Adobe Illustrator 17.1.0, SVG Export Plug-In . SVG Version: 6.00 Build 0)  -->
<!DOCTYPE svg PUBLIC "-//W3C//DTD SVG 1.1//EN" "http://www.w3.org/Graphics/SVG/1.1/DTD/svg11.dtd">
<svg version="1.1" id="Capa_1" xmlns="http://www.w3.org/2000/svg" xmlns:xlink="http://www.w3.org/1999/xlink" x="0px" y="0px"
	 viewBox="0 0 64 64" style="enable-background:new 0 0 64 64;" xml:space="preserve">
<g>
	<path d="M8.25,43.785l8.958-0.024c-1.314-2.497-2.539-4.297-2.967-4.9c-1.993-1.13-2.425-2.515-2.425-3.502
		c0-1.153,0.011-4.116,9.184-5.425v-4.312c0-1.104,0.896-2,2-2h16.75c1.104,0,2,0.896,2,2v4.151
		c10.424,1.208,10.434,4.383,10.434,5.586c0,0.988-0.433,2.375-2.431,3.505c-0.383,0.539-1.631,2.361-2.976,4.923l8.973-0.025
		c1.104-0.003,2-0.901,2-2.006V13.371c0-1.104-0.896-2-2-2c0,0-5.456-1.343-12.188-3c-6.731-1.657-17.364-1.657-23.75,0l-11.562,3
		c-1.104,0-2,0.896-2,2v28.42C6.25,42.895,7.146,43.788,8.25,43.785z"/>
	<path d="M48.636,35.5c0-1.545-1.252-2.797-2.797-2.797H18.096c-1.545,0-2.797,1.252-2.797,2.797s1.252,2.798,2.797,2.798h1.902
		c1.44,3.035,3.438,8.983,2.075,16.859c-0.087,0.508,0.252,0.991,0.76,1.078c0.054,0.009,0.107,0.014,0.16,0.014
		c0.445,0,0.839-0.319,0.918-0.773c0.235-1.356,0.362-2.646,0.43-3.89h6.694v4.352c0,0.516,0.417,0.933,0.933,0.933
		c0.516,0,0.933-0.417,0.933-0.933v-4.352h6.231c0.067,1.243,0.195,2.534,0.43,3.89c0.078,0.454,0.473,0.773,0.918,0.773
		c0.053,0,0.106-0.004,0.16-0.014c0.507-0.088,0.847-0.57,0.759-1.078c-1.358-7.853,0.642-13.816,2.082-16.859h2.358
		C47.384,38.298,48.636,37.045,48.636,35.5z M31.035,49.721h-6.65c-0.009-1.787-0.164-3.434-0.419-4.93h7.069V49.721z
		 M31.035,42.926h-7.448c-0.437-1.835-0.988-3.398-1.523-4.628h8.972V42.926z M39.088,49.721H32.9v-4.93h6.607
		C39.252,46.287,39.097,47.935,39.088,49.721z M39.886,42.926H32.9v-4.628h8.509C40.873,39.528,40.323,41.091,39.886,42.926z"/>
</g>
</svg>
