<?xml version="1.0" encoding="iso-8859-1"?>
<!-- Generator: Adobe Illustrator 17.1.0, SVG Export Plug-In . SVG Version: 6.00 Build 0)  -->
<!DOCTYPE svg PUBLIC "-//W3C//DTD SVG 1.1//EN" "http://www.w3.org/Graphics/SVG/1.1/DTD/svg11.dtd">
<svg version="1.1" id="Capa_1" xmlns="http://www.w3.org/2000/svg" xmlns:xlink="http://www.w3.org/1999/xlink" x="0px" y="0px"
	 viewBox="0 0 64 64" style="enable-background:new 0 0 64 64;" xml:space="preserve">
<g>
	<circle cx="12.588" cy="49.5" r="4.079"/>
	<path d="M10.42,42.162c0.369,0,0.667-0.298,0.667-0.667v-6.169c0-0.369-0.298-0.667-0.667-0.667s-0.667,0.298-0.667,0.667v6.169
		C9.753,41.864,10.051,42.162,10.42,42.162z"/>
	<path d="M18.333,44.679v-4.169c0-0.369-0.298-0.667-0.667-0.667c-0.369,0-0.667,0.298-0.667,0.667v4.169
		c0,0.369,0.298,0.667,0.667,0.667C18.035,45.346,18.333,45.048,18.333,44.679z"/>
	<path d="M8.08,37.995c0.369,0,0.667-0.298,0.667-0.667V31.16c0-0.369-0.298-0.667-0.667-0.667c-0.369,0-0.667,0.298-0.667,0.667
		v6.168C7.413,37.697,7.711,37.995,8.08,37.995z"/>
	<path d="M14.915,31.837c0.151,0,0.306-0.018,0.46-0.054l8.5-2c0.4-0.094,0.761-0.309,1.035-0.616l5.84-6.551V33.33
		c0.006-0.006,0.013-0.011,0.019-0.017c-0.004,0.063-0.019,0.123-0.019,0.188v6.667h-3.152l1.869-8.2
		c0.307-1.347-0.536-2.687-1.882-2.993c-1.344-0.307-2.686,0.536-2.993,1.882l-5.891,25.851c-0.307,1.347,0.536,2.687,1.882,2.993
		c0.187,0.042,0.373,0.063,0.558,0.063c1.141,0,2.171-0.786,2.435-1.945L26.474,45.1c0.179,0.041,0.364,0.067,0.555,0.067h3.721
		V47.5c0,1.657,1.343,3,3,3c1.076,0,2.012-0.571,2.542-1.422c0.529,0.851,1.466,1.422,2.542,1.422c1.657,0,3-1.343,3-3v-2.333h4.876
		l2.883,12.651c0.264,1.16,1.294,1.945,2.435,1.945c0.184,0,0.371-0.021,0.558-0.063c1.347-0.307,2.189-1.646,1.882-2.993
		l-4.801-21.068c0.441-0.205,0.819-0.55,1.018-1.036l3.833-9.341c0.395-0.961-0.012-2.064-0.936-2.538l-12.25-6.294
		c-0.518-0.266-1.096-0.279-1.603-0.093h-7.034c-0.748-0.277-1.622-0.091-2.186,0.54l-8.164,9.157l-7.885,1.855
		c-1.075,0.253-1.742,1.33-1.489,2.405C13.187,31.216,14.008,31.837,14.915,31.837z M41.833,33.149V21.185l8.286,4.258l-1.892,4.611
		c-0.557-0.854-1.599-1.32-2.644-1.08c-1.347,0.307-2.189,1.646-1.882,2.993l1.869,8.2h-3.737V33.5c0-0.131-0.023-0.255-0.039-0.382
		C41.807,33.13,41.821,33.138,41.833,33.149z"/>
	<circle cx="36.292" cy="9.834" r="4.79"/>
</g>
</svg>
