<?xml version="1.0" encoding="iso-8859-1"?>
<!-- Generator: Adobe Illustrator 17.1.0, SVG Export Plug-In . SVG Version: 6.00 Build 0)  -->
<!DOCTYPE svg PUBLIC "-//W3C//DTD SVG 1.1//EN" "http://www.w3.org/Graphics/SVG/1.1/DTD/svg11.dtd">
<svg version="1.1" id="Capa_1" xmlns="http://www.w3.org/2000/svg" xmlns:xlink="http://www.w3.org/1999/xlink" x="0px" y="0px"
	 viewBox="0 0 64 64" style="enable-background:new 0 0 64 64;" xml:space="preserve">
<g>
	<circle cx="32.696" cy="7.981" r="5.5"/>
	<path d="M26.863,34.71c-0.001,0.033-0.01,0.067-0.01,0.103v0.465c1.09,0.347,3.154,0.83,6.124,0.784
		c2.398-0.037,4.289-0.342,5.552-0.625v-1.321c-1.34,0.497-3.188,0.773-5.536,0.823c-0.209,0.003-0.413,0.006-0.613,0.006
		c-2.454,0-4.297-0.323-5.517-0.966V34.71z"/>
	<path d="M26.853,44.024c0.591,0.212,1.98,0.515,4.999,0.497v-1.14c-2.732-0.083-4.206-0.41-4.999-0.757V44.024z"/>
	<path d="M38.529,42.746c-1.018,0.33-2.596,0.616-5.021,0.65v1.125c3.877-0.013,4.82-0.578,4.945-0.669
		c0.022-0.026,0.051-0.042,0.076-0.064V42.746z"/>
	<path d="M37.863,14.648c-0.237,1.479-0.352,4.525,1.475,8.52l-0.035,0.016l1.726,3.363v4.486l0.019-0.004
		c0.013,0.053,0.085,0.377-0.019,0.819v4.965c0,1.104,0.896,1.999,2,1.999s2-0.896,2-1.999V26.065c0-0.317-0.076-0.632-0.221-0.915
		l-4.833-9.416c-0.299-0.581-0.846-0.949-1.446-1.051v-0.034H37.863z"/>
	<path d="M33.508,58.894c0,1.381,1.12,2.501,2.5,2.501c1.381,0,2.5-1.12,2.5-2.501V45.461c-0.893,0.304-2.418,0.551-5,0.56V58.894z"
		/>
	<path d="M26.853,58.894c0,1.381,1.119,2.501,2.499,2.501c1.381,0,2.5-1.12,2.5-2.501V46.019c-0.079,0.001-0.165,0.003-0.243,0.003
		c-2.319,0-3.804-0.188-4.757-0.436V58.894z"/>
	<path d="M26.334,19.774c0.564-2.314,0.513-4.188,0.436-5.071c-0.268,0.059-0.529,0.163-0.764,0.337l-9,6.668
		c-0.282,0.208-0.504,0.488-0.644,0.809l-3.833,8.834c-0.44,1.014,0.024,2.19,1.038,2.631c0.126,0.055,0.254,0.094,0.384,0.122
		c0,0.015-0.002,0.029-0.002,0.043c0,3.125,2.524,5.641,5.624,5.641c3.119,0,5.659-2.516,5.659-5.641
		c0-3.103-2.54-5.633-5.659-5.633c-0.538,0-1.056,0.081-1.549,0.223l1.794-4.133L26.334,19.774z"/>
	<path d="M32.701,29.431c0.706,0,1.172-0.444,1.172-1.052c0-0.716-0.521-1.106-1.312-1.323c-0.661,0.185-1.041,0.65-1.041,1.225
		C31.498,28.889,31.953,29.431,32.701,29.431z"/>
	<path d="M32.821,26.067c0.488-0.14,0.878-0.529,0.878-1.062c0-0.488-0.293-0.998-1.008-0.998c-0.672,0-1.02,0.445-1.02,0.955
		C31.671,25.538,32.149,25.885,32.821,26.067z"/>
	<path d="M26.863,32.109c0.003,0.005,0.005,0.01,0.009,0.013c0.422,0.531,1.779,1.408,6.089,1.315
		c3.055-0.064,4.691-0.517,5.567-0.952v-8.947l-0.1,0.046c-1.879-4.107-1.835-7.257-1.585-8.936h-0.927
		c-0.239,1.339-0.984,4.52-2.678,4.52c-1.563,0-2.71-3.181-3.124-4.52h-2.341c0.108,1.183,0.16,3.792-0.911,6.911V32.109z
		 M30.403,25.017c0-1.15,1.019-1.931,2.353-1.931c1.529,0,2.212,0.911,2.212,1.778c0,0.598-0.315,1.215-1.085,1.596v0.031
		c0.77,0.293,1.344,0.9,1.344,1.779c0,1.257-1.062,2.103-2.57,2.103c-1.648,0-2.505-0.955-2.505-1.941
		c0-0.867,0.51-1.464,1.323-1.821v-0.033C30.739,26.22,30.403,25.635,30.403,25.017z"/>
</g>
</svg>
