<?xml version="1.0" encoding="iso-8859-1"?>
<!-- Generator: Adobe Illustrator 17.1.0, SVG Export Plug-In . SVG Version: 6.00 Build 0)  -->
<!DOCTYPE svg PUBLIC "-//W3C//DTD SVG 1.1//EN" "http://www.w3.org/Graphics/SVG/1.1/DTD/svg11.dtd">
<svg version="1.1" id="Capa_1" xmlns="http://www.w3.org/2000/svg" xmlns:xlink="http://www.w3.org/1999/xlink" x="0px" y="0px"
	 viewBox="0 0 64 64" style="enable-background:new 0 0 64 64;" xml:space="preserve">
<g>
	<path d="M30.086,16.425c2.907-1.035,4.4-4.233,3.373-7.109c-1.047-2.897-4.228-4.415-7.131-3.365
		c-2.903,1.021-4.39,4.229-3.369,7.13C23.998,15.954,27.191,17.47,30.086,16.425z"/>
	<path d="M7.458,36.629c0.141,0.28,0.223,0.516,0.383,0.698c0.246,0.461,0.562,0.882,0.922,1.246
		c0.088,0.072,0.17,0.122,0.258,0.195l4.757,5.781L9.207,54.665c-0.795,1.75-0.021,3.807,1.754,4.605
		c1.739,0.797,3.808,0.021,4.588-1.739l5.476-12.07c0.073-0.182,0.067-0.341,0.117-0.508c0.077-0.251,0.157-0.481,0.166-0.728
		c0.002-0.233-0.03-0.447-0.064-0.672c-0.032-0.214-0.043-0.445-0.116-0.646c-0.084-0.236-0.229-0.443-0.345-0.67
		c2.155,0.866,4.202,1.725,5.19,2.131c0.631,2.694,3.015,12.935,3.02,12.957c0.465,1.842,2.29,2.977,4.165,2.553
		c1.867-0.46,3.04-2.318,2.616-4.191l-3.424-14.653c-0.257-1.101-1.009-2.008-2.073-2.439l-9.408-3.887l8.25-8.48l12.881,8.653
		c1.243,0.854,2.93,0.523,3.774-0.739c0.85-1.262,0.507-2.948-0.738-3.776l-19.13-12.79c-1.511-1.01-3.779-0.787-5.065,0.498
		L8.708,30.206c-1.429,1.457-1.968,3.481-1.591,5.342C7.164,35.923,7.28,36.29,7.458,36.629z"/>
	<circle cx="43.951" cy="45.054" r="4.895"/>
</g>
</svg>
