<?xml version="1.0" encoding="iso-8859-1"?>
<!-- Generator: Adobe Illustrator 17.1.0, SVG Export Plug-In . SVG Version: 6.00 Build 0)  -->
<!DOCTYPE svg PUBLIC "-//W3C//DTD SVG 1.1//EN" "http://www.w3.org/Graphics/SVG/1.1/DTD/svg11.dtd">
<svg version="1.1" id="Capa_1" xmlns="http://www.w3.org/2000/svg" xmlns:xlink="http://www.w3.org/1999/xlink" x="0px" y="0px"
	 viewBox="0 0 64 64" style="enable-background:new 0 0 64 64;" xml:space="preserve">
<g>
	<path d="M31.92,57.252c14.061,0,25.5-11.439,25.5-25.5c0-14.06-11.439-25.5-25.5-25.5s-25.5,11.44-25.5,25.5
		C6.42,45.813,17.859,57.252,31.92,57.252z M17.716,17.992v-3.674c0.638-0.521,1.307-1.004,2-1.454v4.44h8.06l-0.681-7.525
		c0.65-0.143,1.309-0.255,1.978-0.34l0.711,7.866h4.26l0.711-7.867c0.669,0.084,1.329,0.196,1.977,0.338l-0.681,7.529h8.029v-4.468
		c0.693,0.447,1.362,0.929,2,1.447v3.726c3.943,3.815,6.125,8.839,6.125,14.238c0,5.414-2.148,10.667-5.895,14.413
		c-0.014,0.014-0.034,0.02-0.049,0.033v2.382c-0.638,0.529-1.307,1.019-2,1.477v-3.598h-8.044l0.61,6.753
		c-0.649,0.145-1.309,0.261-1.977,0.349l-0.642-7.102H29.98l-0.646,7.145c-0.669-0.077-1.331-0.179-1.98-0.313l0.618-6.832h-8.074
		v3.803c-0.693-0.44-1.361-0.917-2-1.427v-3.013c-3.826-3.799-5.942-8.769-5.942-14.069C11.955,26.892,14.059,21.737,17.716,17.992z
		"/>
	<path d="M49.177,26.358c-0.892-2.509-2.352-4.81-4.33-6.767c-0.196-0.048-0.37-0.142-0.501-0.287H19.201
		c-1.951,1.975-3.396,4.405-4.274,7.051c2.615-0.247,8.594-0.691,17.82-0.691C40.613,25.664,46.525,26.113,49.177,26.358z"/>
	<path d="M32.818,35.831c11.471-0.129,15.982-1.326,17.298-1.784c0.059-0.596,0.089-1.196,0.089-1.799
		c0-1.303-0.15-2.581-0.425-3.822c-2.021-0.205-8.31-0.761-17.033-0.761c-10.102,0-16.389,0.552-18.387,0.759
		c-0.261,1.249-0.405,2.529-0.405,3.825c0,0.613,0.033,1.221,0.096,1.823C15.852,34.626,21.398,35.965,32.818,35.831z"/>
	<path d="M44.748,44.954c0.152-0.094,0.321-0.162,0.514-0.162c0.019,0,0.033,0.009,0.052,0.01c2.208-2.37,3.733-5.345,4.438-8.546
		c-2.292,0.619-7.174,1.466-16.909,1.575c-0.535,0.006-1.06,0.009-1.569,0.009c-9.164,0-14.346-0.935-16.84-1.581
		c0.76,3.251,2.425,6.249,4.904,8.694H44.748z"/>
</g>
</svg>
