<?xml version="1.0" encoding="iso-8859-1"?>
<!-- Generator: Adobe Illustrator 17.1.0, SVG Export Plug-In . SVG Version: 6.00 Build 0)  -->
<!DOCTYPE svg PUBLIC "-//W3C//DTD SVG 1.1//EN" "http://www.w3.org/Graphics/SVG/1.1/DTD/svg11.dtd">
<svg version="1.1" id="Capa_1" xmlns="http://www.w3.org/2000/svg" xmlns:xlink="http://www.w3.org/1999/xlink" x="0px" y="0px"
	 viewBox="0 0 64 64" style="enable-background:new 0 0 64 64;" xml:space="preserve">
<g>
	<path d="M50.849,39.303c0.428-1.14-0.131-2.389-1.267-2.816c-0.179-0.065-0.361-0.108-0.545-0.13l-7.803-1.079l-9.649-15.002
		l3.018,0.412l4.385,6.788c0.258,0.425,0.693,0.73,1.22,0.805c0.937,0.132,1.805-0.521,1.937-1.455
		c0.072-0.509-0.088-0.991-0.395-1.352l-4.729-7.297c-0.259-0.421-0.695-0.729-1.221-0.804l-8.176-1.153
		c-0.599-0.083-1.175,0.079-1.624,0.409l-5.949,4.476l-3.711-4.923c-0.268-0.301-0.64-0.512-1.066-0.571
		c-0.968-0.137-1.862,0.54-1.999,1.506c-0.059,0.422,0.035,0.827,0.239,1.165l4.47,5.98c1.359,1.805,2.818,0.645,2.818,0.645
		l3.648-2.763l4.183,6.482l-5.223,3.931c0,0-1.087,0.758-0.795,2.619l0.956,11.799c0.064,1.019,0.836,1.891,1.889,2.038
		c1.201,0.17,2.314-0.667,2.484-1.868c0.026-0.189,0.028-0.378,0.009-0.561l-0.786-9.672l5.914-4.326l3.767,5.619
		c0,0,0.596,0.996,2.528,1.198l9.068,1.295C49.456,40.858,50.474,40.296,50.849,39.303z"/>
	<circle cx="23.843" cy="13.182" r="3.399"/>
	<path d="M56.507,56.254l-3.733-2.648c-2.571-1.827-6.667-1.833-9.32-0.016c-1.662,1.14-4.652,1.126-6.53-0.028
		c-2.863-1.761-7.218-1.75-9.914,0.024c-1.738,1.142-4.766,1.129-6.611-0.028c-2.8-1.759-7.318-1.768-10.284-0.022l-4.504,2.649
		c-0.714,0.421-0.952,1.34-0.532,2.054c0.28,0.476,0.78,0.739,1.294,0.739c0.258,0,0.521-0.066,0.759-0.207l4.504-2.65
		c2.015-1.185,5.297-1.195,7.167-0.021c2.826,1.774,7.155,1.77,9.856-0.007c1.742-1.148,4.807-1.136,6.693,0.025
		c2.872,1.764,7.175,1.742,9.796-0.052c1.63-1.117,4.325-1.125,5.888-0.014l3.733,2.649c0.676,0.478,1.612,0.32,2.091-0.355
		C57.342,57.67,57.183,56.733,56.507,56.254z"/>
	<circle cx="44.522" cy="45.088" r="3.243"/>
</g>
</svg>
