<?xml version="1.0" encoding="iso-8859-1"?>
<!-- Generator: Adobe Illustrator 17.1.0, SVG Export Plug-In . SVG Version: 6.00 Build 0)  -->
<!DOCTYPE svg PUBLIC "-//W3C//DTD SVG 1.1//EN" "http://www.w3.org/Graphics/SVG/1.1/DTD/svg11.dtd">
<svg version="1.1" id="Capa_1" xmlns="http://www.w3.org/2000/svg" xmlns:xlink="http://www.w3.org/1999/xlink" x="0px" y="0px"
	 viewBox="0 0 64 64" style="enable-background:new 0 0 64 64;" xml:space="preserve">
<g>
	<path d="M35.271,25.688c0,0.368,0.199,0.71,0.605,0.922v0.013c-0.457,0.2-0.747,0.548-0.747,1.052c0,0.567,0.49,1.168,1.555,1.168
		c0.974,0,1.612-0.516,1.612-1.278c0-0.536-0.361-0.884-0.775-1.039v-0.019c0.421-0.207,0.614-0.561,0.614-0.924
		c0-0.509-0.407-1.077-1.388-1.077C35.909,24.507,35.271,24.978,35.271,25.688z M36.703,25.171c0.361,0,0.509,0.258,0.509,0.523
		c0,0.257-0.2,0.464-0.426,0.529c-0.336-0.104-0.587-0.284-0.587-0.568C36.199,25.397,36.368,25.171,36.703,25.171z M36.638,26.952
		c0.38,0.104,0.658,0.323,0.658,0.691c0,0.297-0.232,0.523-0.574,0.523c-0.368,0-0.6-0.284-0.593-0.588
		C36.129,27.274,36.315,27.042,36.638,26.952z"/>
	<path d="M42.131,20.114c-1.341-2.311-3.305-3.636-5.388-3.636c-2.073,0-3.976,1.252-5.358,3.523L12.89,50.384
		c-1.404,2.307-1.625,4.56-0.623,6.343c1.002,1.783,3.042,2.765,5.742,2.765h36.375c2.694,0,4.746-0.986,5.777-2.776
		c1.031-1.79,0.854-4.059-0.498-6.389L42.131,20.114z M36.82,37.069c-0.055,0.349-0.107,0.701-0.107,1.065
		c0,2.072,0.915,3.927,2.358,5.195c-0.737-0.267-1.528-0.42-2.357-0.42c-0.86,0-1.679,0.163-2.438,0.45
		c0.304-0.265,0.592-0.548,0.848-0.86c-5.562-0.703-9.067-2.692-11.176-4.51l1.364-2.241c1.79,1.664,5.124,3.721,10.967,4.282
		c0.045,0.004,0.081,0.03,0.125,0.038c0.181-0.617,0.308-1.256,0.308-1.933c0-1.876-0.749-3.574-1.96-4.821
		c0.622,0.183,1.279,0.286,1.96,0.286c0.69,0,1.356-0.104,1.985-0.292c-0.304,0.311-0.587,0.642-0.829,1.006
		c1.173,1.602,4.515,4.973,12.258,5.716c0.04,0.004,0.074,0.024,0.112,0.034l1.736,2.992c-0.456-0.095-0.929-0.145-1.414-0.145
		c-0.86,0-1.679,0.163-2.438,0.45c0.304-0.265,0.592-0.548,0.848-0.86C42.449,41.674,38.75,39.081,36.82,37.069z M25.223,43.329
		c-0.737-0.267-1.528-0.421-2.358-0.421c-0.744,0-1.454,0.13-2.125,0.347l2.266-3.723C23.315,41.035,24.114,42.354,25.223,43.329z
		 M41.009,26.674c0,2.374-1.923,4.297-4.296,4.297c-2.374,0-4.296-1.924-4.296-4.297c0-2.372,1.923-4.297,4.296-4.297
		C39.086,22.377,41.009,24.302,41.009,26.674z M43.429,28.327l1.782,3.071c-0.506-0.118-1.032-0.187-1.574-0.187
		c-0.687,0-1.346,0.11-1.972,0.297C42.513,30.638,43.13,29.546,43.429,28.327z M31.75,31.497c-0.622-0.184-1.279-0.286-1.961-0.286
		c-0.652,0-1.28,0.097-1.878,0.266l2.035-3.343C30.224,29.426,30.862,30.583,31.75,31.497z M37.96,19.869
		c-0.405-0.074-0.821-0.118-1.247-0.118c-0.407,0-0.803,0.042-1.191,0.109c0.4-0.247,0.811-0.382,1.221-0.382
		C37.15,19.477,37.561,19.617,37.96,19.869z M14.882,55.256c-0.441-0.785-0.233-1.992,0.571-3.313l0.591-0.972
		c0.441,2.659,2.392,4.801,4.946,5.519h-2.981C16.462,56.491,15.323,56.041,14.882,55.256z M57.56,55.218
		c-0.466,0.809-1.624,1.273-3.177,1.273h-1.98c1.389-0.392,2.599-1.205,3.492-2.295c-6.521-0.824-10.221-3.417-12.151-5.429
		c-0.055,0.35-0.108,0.701-0.108,1.065c0,3.173,2.137,5.841,5.048,6.659H38.556c1.389-0.392,2.599-1.205,3.492-2.295
		c-6.522-0.824-10.221-3.417-12.151-5.429c-0.055,0.35-0.107,0.701-0.107,1.065c0,3.173,2.137,5.841,5.048,6.659H24.708
		c1.389-0.392,2.6-1.205,3.492-2.295c-5.675-0.717-9.211-2.773-11.306-4.621l1.37-2.251c1.757,1.684,5.105,3.828,11.091,4.403
		c0.045,0.005,0.081,0.029,0.125,0.038c0.181-0.617,0.308-1.257,0.308-1.933c0-2.072-0.915-3.927-2.358-5.195
		c0.737,0.267,1.528,0.421,2.358,0.421c0.842,0,1.643-0.157,2.385-0.436c-0.467,0.408-0.884,0.871-1.228,1.389
		c1.173,1.601,4.515,4.973,12.258,5.716c0.045,0.005,0.082,0.029,0.125,0.038c0.181-0.617,0.308-1.257,0.308-1.933
		c0-2.072-0.915-3.927-2.357-5.195c0.737,0.267,1.528,0.42,2.357,0.42c0.842,0,1.643-0.157,2.385-0.436
		c-0.467,0.408-0.884,0.871-1.229,1.389c1.171,1.598,4.503,4.958,12.211,5.711l0.064,0.111
		C57.847,53.174,58.026,54.409,57.56,55.218z"/>
	<polygon points="30.13,15.417 26.44,13.282 5.292,51.861 7.445,53.107 	"/>
	<path d="M3.929,54.347c-0.266,0.484-0.093,1.101,0.385,1.377l0.288,0.168c0.479,0.276,1.097,0.117,1.382-0.357l0.43-0.714
		L4.33,53.615L3.929,54.347z"/>
	<path d="M34.256,8.562c0.569-0.946,0.256-2.161-0.699-2.714l-0.578-0.334c-0.956-0.553-2.162-0.217-2.693,0.752l-2.885,5.263
		l3.76,2.176L34.256,8.562z"/>
</g>
</svg>
