<?xml version="1.0" encoding="iso-8859-1"?>
<!-- Generator: Adobe Illustrator 17.1.0, SVG Export Plug-In . SVG Version: 6.00 Build 0)  -->
<!DOCTYPE svg PUBLIC "-//W3C//DTD SVG 1.1//EN" "http://www.w3.org/Graphics/SVG/1.1/DTD/svg11.dtd">
<svg version="1.1" id="Capa_1" xmlns="http://www.w3.org/2000/svg" xmlns:xlink="http://www.w3.org/1999/xlink" x="0px" y="0px"
	 viewBox="0 0 64 64" style="enable-background:new 0 0 64 64;" xml:space="preserve">
<g>
	<path d="M33.269,61l-0.621-0.038c9.504-0.16,13.254-1.869,14.717-3.057c0.635-0.516,0.916-1.804,0.916-2.622
		c0-1.082,0-2.593,0-3.953c0-1.502-1.532-2.41-2.734-2.891c-0.76-0.305-1.196-1.07-0.927-1.843l0.015-0.042
		c0.269-0.772,0.296-2.034,0.061-2.818l-3.716-12.352c-0.235-0.784-0.15-1.557,0.189-1.728c0.342-0.17,0.619-0.751,0.619-1.297
		c0-0.545,0.443-1.153,0.987-1.358c0.546-0.204,0.988-1.034,0.988-1.852v-1.358c0-0.819-0.305-1.704-0.679-1.976
		c-0.376-0.273-0.68-0.881-0.68-1.359c0-0.478,0.583-1.182,1.301-1.575l0.115-0.062c0.719-0.392,1.302-1.373,1.302-2.191V7.367
		c0-0.818-0.57-1.825-1.325-2.142c-0.528-0.222-1.172-0.447-1.857-0.581c-0.804-0.157-1.475,0.547-1.475,1.365v4.198
		c0,0.819-0.561,1.483-1.254,1.483c-0.69,0-1.252-4.209-1.252-5.027c0-0.818-0.663-1.481-1.482-1.481h-3.21l-0.619,0.038h-3.21
		c-0.818,0-1.482,0.664-1.482,1.482s-0.56,5.027-1.252,5.027s-1.252-0.664-1.252-1.482V6.047c0-0.818-0.672-1.522-1.475-1.365
		c-0.685,0.134-1.33,0.359-1.858,0.581c-0.754,0.316-1.324,1.324-1.324,2.142v9.262c0,0.818,0.583,1.8,1.301,2.191l0.115,0.062
		c0.718,0.392,1.301,1.097,1.301,1.575c0,0.477-0.304,1.086-0.68,1.358c-0.374,0.272-0.679,1.158-0.679,1.976v1.358
		c0,0.818,0.442,1.648,0.988,1.852c0.545,0.205,0.988,0.813,0.988,1.358c0,0.546,0.276,1.127,0.618,1.297
		c0.341,0.171,0.426,0.944,0.19,1.728l-3.715,12.352c-0.236,0.783-0.209,2.045,0.06,2.818l0.014,0.042
		c0.269,0.773-0.167,1.539-0.926,1.844c-1.202,0.481-2.734,1.389-2.734,2.891c0,1.36,0,2.87,0,3.953
		c0,0.818,0.281,2.106,0.916,2.622C20.014,59.132,23.763,60.841,33.269,61z"/>
</g>
</svg>
