<?xml version="1.0" encoding="iso-8859-1"?>
<!-- Generator: Adobe Illustrator 17.1.0, SVG Export Plug-In . SVG Version: 6.00 Build 0)  -->
<!DOCTYPE svg PUBLIC "-//W3C//DTD SVG 1.1//EN" "http://www.w3.org/Graphics/SVG/1.1/DTD/svg11.dtd">
<svg version="1.1" id="Capa_1" xmlns="http://www.w3.org/2000/svg" xmlns:xlink="http://www.w3.org/1999/xlink" x="0px" y="0px"
	 viewBox="0 0 64 64" style="enable-background:new 0 0 64 64;" xml:space="preserve">
<g>
	<path d="M33.774,4.725C18.734,4.725,6.499,16.96,6.499,32s12.235,27.275,27.275,27.275S61.049,47.04,61.049,32
		S48.813,4.725,33.774,4.725z M53.849,18.509c0.278,0.471-0.569,0.808,0.059,1.297c0.34,0.264,0.768,0.08,1.007,0.564
		c0.265,0.536-0.575,0.429-0.471,0.894c0.088,0.375,0.247,0.958,0.504,1.257c0.257,0.311,0.811,0.443,0.822,0.932
		c0.014,0.386-0.364,0.207-0.543,0.352c-0.14,0.108-0.072,0.337-0.046,0.483c0.122,0.543,0.763,0.788,1.04,1.26
		c0.111,0.198,0.229,0.482,0.068,0.68c-0.291,0.359-0.729-0.41-0.89-0.1c-0.097,0.198,0.091,0.409,0.232,0.521
		c0.357,0.312,0.808,0.597,0.926,1.088c0.21,0.927-0.907,0.138-0.955,0.799c-0.042,0.624,0.915,0.974,0.711,1.655
		c-0.173,0.589-0.743-0.224-0.895,0.179c-0.39,1.032,1.024,1.377,0.841,2.251c-0.191,0.86-1-0.125-1.14,0.236
		c-0.37,0.967,0.877,1.219,0.754,2.078c-0.111,0.782-0.779-0.032-0.965,0.345c-0.357,0.73,0.636,1.019,0.57,1.682
		c-0.073,0.69-0.741,0.119-0.9,0.568c-0.111,0.306-0.265,0.881-0.133,1.192c0.154,0.363,0.53,0.517,0.512,0.965
		c-0.031,0.616-0.696,0.254-0.829,0.695c-0.077,0.28-0.09,0.625,0.026,0.896c0.124,0.284,0.444,0.602,0.231,0.927
		c-0.245,0.382-0.628-0.095-0.878,0.191c-0.227,0.253-0.393,1.151-0.293,1.476c0.086,0.27,0.357,0.549,0.278,0.859
		c-0.086,0.311-0.512,0.346-0.629,0.663c-0.158,0.444,0.239,0.788,0.115,1.164c-0.115,0.337-0.565,0.353-0.731,0.664
		c-0.102,0.214-0.237,0.53-0.251,0.793c-0.781,0.887-1.624,1.717-2.524,2.482c-0.403-0.015-0.949,0.08-0.885-0.351
		c0.042-0.266,0.465-0.352,0.664-0.451c0.517-0.263,1.364-0.581,1.478-1.243c0.079-0.484-0.909-0.325-1.175-0.51
		c-0.164-0.119-0.369-0.403-0.202-0.602c0.17-0.205,0.501-0.08,0.729-0.107c0.713-0.073,1.414-0.317,1.421-1.17
		c0-0.597-1.919-0.126-1.507-1.028c0.158-0.356,0.606-0.224,0.919-0.27c0.742-0.126,1.434-0.543,1.348-1.422
		c-0.051-0.504-1.647,0.005-1.462-0.801c0.065-0.298,0.594-0.37,0.841-0.432c0.701-0.178,1.506-0.495,1.395-1.396
		c-0.032-0.231-0.285-0.231-0.463-0.213c-0.363,0.04-1.243,0.068-1.238-0.515c0.007-0.312,0.717-0.371,0.94-0.443
		c0.747-0.253,1.471-0.551,1.334-1.517c-0.086-0.641-1.724-0.038-1.724-0.892c0-0.452,0.958-0.452,1.251-0.497
		c0.708-0.107,0.885-0.597,0.873-1.27c-0.02-0.63-1.78-0.233-1.655-1.06c0.032-0.245,0.357-0.263,0.55-0.285
		c0.418-0.059,1.23-0.025,1.31-0.547c0.039-0.252,0.137-0.704-0.092-0.888c-0.342-0.272-1.618-0.318-1.478-1.026
		c0.05-0.265,0.371-0.304,0.592-0.292c0.46,0.033,1.149,0.14,1.217-0.478c0.083-0.805-0.609-0.814-1.185-1.101
		c-0.218-0.114-0.634-0.361-0.589-0.658c0.144-0.865,1.702,0.423,1.78-0.364c0.032-0.37,0.085-0.894-0.331-1.053
		c-0.32-0.118-1.489-0.132-1.464-0.643c0.042-0.879,1.747-0.086,1.845-0.734c0.167-1.019-1.764-0.629-1.631-1.655
		c0.093-0.701,1.348,0.154,1.47-0.501c0.189-1.011-1.828-0.442-1.98-1.425c-0.173-1.077,1.696,0.115,1.601-0.601
		c-0.034-0.284-0.22-0.761-0.503-0.879c-0.509-0.219-1.047,0.064-1.409-0.511c-0.453-0.702,1.09-0.306,0.921-0.933
		c-0.027-0.106-0.088-0.206-0.142-0.299c-0.403-0.693-0.748-0.145-1.332-0.219c-0.245-0.031-0.721-0.296-0.616-0.609
		c0.14-0.409,0.809-0.275,0.937-0.667c0.085-0.284-0.442-0.966-0.717-0.992c-0.589-0.067-0.832,0.583-1.46,0.099
		c-0.097-0.073-0.213-0.172-0.239-0.296c-0.074-0.465,1.104-0.51,0.927-1.067c-0.398-1.189-1.59,0.429-2.147-0.378
		c-0.289-0.421,0.869-0.619,0.583-1.111c-0.153-0.264-0.859-0.826-1.185-0.719c-0.287,0.099-0.715,0.646-1.045,0.331
		c-0.371-0.357,0.461-0.711,0.099-1.086c-0.233-0.247-0.893-0.676-1.245-0.59c-0.219,0.045-0.496,0.478-0.727,0.344
		c-0.391-0.224,0.073-0.787-0.438-1.031c-0.212-0.107-0.522-0.259-0.761-0.173c-0.199,0.073-0.441,0.497-0.674,0.304
		c-0.24-0.205,0.06-0.497-0.055-0.734c-0.152-0.345-0.824-0.548-1.164-0.642c-0.485-0.131-0.635,0.591-0.992,0.471
		c-0.28-0.098-0.18-0.548-0.358-0.747c-0.251-0.287-0.973-0.418-1.337-0.443c-0.449-0.04-0.296,0.694-0.669,0.633
		c-0.284-0.052-0.31-0.601-0.506-0.779c-0.239-0.226-0.895-0.285-1.22-0.306c-0.589-0.039-0.331,1.02-0.827,0.9
		c-0.299-0.073-0.254-0.521-0.343-0.748c-0.152-0.364-0.875-0.51-1.213-0.312c-0.35,0.207,0.126,0.815-0.31,0.954
		c-0.225,0.071-0.396-0.225-0.496-0.376c-0.188-0.279-0.405-0.457-0.754-0.464c-0.23,0-0.696-0.033-0.867,0.151
		c-0.186,0.207-0.034,0.768-0.458,0.768c-0.364,0-0.543-0.481-0.8-0.657c-0.248-0.163-0.762-0.033-1.026,0.054
		c-0.479,0.153,0.091,0.888-0.469,1.027c-0.526,0.134-0.979-0.821-1.517-0.436c-0.378,0.27,0.22,0.913-0.378,1.137
		c-0.291,0.113-0.6-0.237-0.857-0.331c-0.292-0.113-0.601,0.033-0.861,0.171c-0.596,0.325,0.245,0.77-0.206,1.06
		c-0.191,0.127-0.518,0.006-0.728,0.006c-0.527,0-1.232,0.185-1.509,0.708c-0.199,0.376,0.8,0.562,0.391,1
		c-0.386,0.423-1.633-0.165-1.866,0.489c-0.072,0.219,0.233,0.225,0.365,0.231c0.379,0.033,0.7,0.417,0.477,0.787
		c-0.185,0.312-0.523,0.146-0.807,0.146c-0.625,0.007-1.546,0.093-1.708,0.853c-0.087,0.397,1.239,0.121,1.039,0.833
		c-0.101,0.366-0.536,0.328-0.826,0.373c-0.557,0.092-1.471,0.364-1.557,1.052c-0.027,0.218,0.225,0.18,0.357,0.153
		c0.345-0.068,1.079,0.04,1.013,0.548c-0.051,0.364-0.541,0.356-0.812,0.411c-0.63,0.107-1.737,0.378-1.658,1.245
		c0.027,0.258,0.293,0.199,0.464,0.15c0.352-0.09,1.284-0.15,1.311,0.417c0.019,0.36-0.635,0.419-0.879,0.478
		c-0.611,0.14-1.92,0.947-1.663,1.733c0.106,0.325,0.495-0.039,0.631-0.132c0.392-0.277,1.665-1.026,1.941-0.218
		c0.136,0.392-0.547,0.527-0.777,0.664c-0.637,0.375-2.142,1.257-1.761,2.177c0.117,0.295,0.503-0.087,0.629-0.181
		c0.417-0.297,1.508-0.992,1.852-0.239c0.185,0.419-0.471,0.656-0.72,0.842c-0.755,0.554-2.396,0.972-1.781,2.176
		c0.166,0.332,0.505,0.04,0.682-0.113c0.397-0.324,1.321-1.216,1.8-0.542c0.232,0.329-0.286,0.523-0.503,0.641
		c-0.51,0.279-1.673,0.889-1.614,1.582c0.019,0.252,0.215,1.178,0.556,1.159c0.331-0.012,0.833-0.634,1.123-0.827
		c0.286-0.192,0.942-0.542,1.114,0c0.119,0.378-0.503,0.649-0.747,0.803c-0.722,0.462-1.524,1.195-0.942,2.07
		c0.193,0.292,0.45,0.093,0.635-0.091c0.267-0.278,1.191-1.345,1.604-0.784c0.375,0.505-0.55,1.159-0.863,1.405
		c-0.802,0.614-0.926,1.212-0.497,2.13c0.18,0.384,0.464,0.193,0.695-0.027c0.325-0.318,1.407-1.496,1.849-0.794
		c0.197,0.311-0.094,0.634-0.355,0.773c-0.508,0.273-1.593,0.967-1.511,1.643c0.025,0.21,0.132,0.41,0.218,0.602
		c0.105,0.232,0.231,0.714,0.503,0.809c0.204,0.065,0.397-0.154,0.523-0.279c0.332-0.317,1.204-1.237,1.667-0.656
		c0.307,0.385-0.311,0.909-0.57,1.141c-0.276,0.237-1.079,0.567-1.101,0.979c-0.015,0.249,0.189,0.542,0.297,0.76
		c0.112,0.239,0.271,0.807,0.608,0.8c0.683-0.019,1-1.276,1.76-1.071c0.623,0.172,0.218,0.854-0.07,1.124
		c-0.282,0.258-1.286,0.622-1.325,1.007c-0.027,0.239,0.206,0.522,0.296,0.734c0.073,0.165,0.14,0.376,0.286,0.496
		c0.596,0.483,1.349-1.184,1.976-0.484c0.515,0.563-0.461,1.121-0.896,1.287c-0.153,0.05-0.359,0.072-0.458,0.21
		c-0.146,0.205,0.091,0.641,0.179,0.848c0.336,0.781,0.733,0.456,1.335,0.239c0.314-0.112,0.772-0.159,0.942,0.189
		c0.218,0.451-0.635,0.948-0.972,1.061c-0.171,0.05-0.417,0.098-0.417,0.336c0.012,0.57,0.52,1.298,1.12,1.205
		c0.349-0.044,0.922-0.502,1.168-0.039c0.423,0.794-1.369,0.708-1.125,1.357c0.134,0.343,0.384,1,0.813,0.987
		c0.596-0.021,0.996-0.424,1.53-0.552c0.186-0.045,0.379,0.08,0.431,0.267c0.134,0.502-0.859,0.938-1.225,1.039
		c-0.2,0.058-0.521,0.072-0.503,0.349c0.059,1.073,1.827,0.053,1.896,0.933c0.05,0.611-1.101,0.385-1.074,0.829
		c0.038,0.846,1.533-0.027,1.668,0.661c0.119,0.636-1.067,0.318-1.105,0.735c0,0,0,0.001,0,0.001c-0.363-0.09-0.723-0.19-1.08-0.296
		c0-0.011,0.008-0.019,0.006-0.031c-0.037-0.169-0.394-0.135-0.549-0.138c-0.465-0.151-0.922-0.317-1.375-0.494
		c-0.028-0.051-0.049-0.106-0.055-0.168c-0.038-0.37,1.014-0.077,1.207-0.077c0.132,0,0.396-0.062,0.343-0.254
		c-0.05-0.196-0.411-0.196-0.575-0.223c-0.445-0.073-1.371-0.054-1.49-0.642c-0.047-0.23,0.198-0.358,0.392-0.339
		c0.244,0.034,1.223,0.556,1.197-0.031c-0.007-0.181-0.167-0.338-0.33-0.37c-0.245-0.054-0.519,0.026-0.769-0.014
		c-0.456-0.081-0.794-0.331-1.158-0.591c-0.184-0.132-0.695-0.337-0.516-0.642c0.271-0.457,1.109,0.127,1.443,0.22
		c0.186,0.045,0.476,0.061,0.541-0.167c0.08-0.263-0.223-0.747-0.476-0.828c-0.205-0.065-0.442,0.007-0.662-0.043
		c-0.53-0.12-1.003-0.393-1.459-0.669c-0.228-0.138-0.559-0.306-0.631-0.584c-0.066-0.229,0.191-0.382,0.397-0.322
		c0.489,0.129,0.872,0.522,1.398,0.6c0.31,0.047,0.533-0.12,0.401-0.444c-0.369-0.878-0.798-0.375-1.5-0.573
		c-0.589-0.172-1.016-0.552-1.389-1.014c-0.129-0.159-0.479-0.355-0.471-0.583c0.013-0.224,0.301-0.278,0.471-0.238
		c0.456,0.105,0.832,0.477,1.289,0.564c0.263,0.045,0.643-0.074,0.548-0.412c-0.166-0.641-0.673-0.383-1.143-0.456
		c-0.602-0.094-1.324-0.346-1.76-0.776c-0.147-0.137-0.469-0.37-0.469-0.587c0-0.231,0.278-0.259,0.438-0.212
		c0.474,0.15,0.939,0.516,1.461,0.516c0.203,0,0.608-0.061,0.582-0.345c-0.021-0.271-0.365-1.072-0.622-1.185
		c-0.207-0.086-0.504,0.026-0.728,0.019c-0.337-0.006-0.669-0.139-0.993-0.236c-0.317-0.107-1.077-0.266-1.107-0.689
		c-0.012-0.192,0.209-0.339,0.372-0.364c0.426-0.053,0.895,0.172,1.332,0.165c0.198-0.005,0.495-0.04,0.489-0.297
		c0-0.173-0.126-0.35-0.198-0.497c-0.105-0.225-0.193-0.516-0.397-0.663c-0.178-0.13-0.416-0.073-0.622-0.103
		c-0.423-0.075-0.82-0.208-1.231-0.326c-0.326-0.093-0.822-0.172-0.952-0.536c-0.092-0.266,0.23-0.456,0.456-0.456
		c0.305,0,1.7,0.509,1.666-0.081c-0.097-1.705-2.573-0.642-3.115-1.984c-0.093-0.24,0.184-0.391,0.384-0.385
		c0.333,0.02,1.569,0.337,1.627-0.218c0.103-1.052-1.384-1.179-2.124-1.272c-0.272-0.038-0.94-0.145-0.858-0.555
		c0.116-0.61,1.036-0.471,1.451-0.463c0.193,0,0.477,0.034,0.572-0.173c0.08-0.178-0.059-0.429-0.132-0.588
		c-0.253-0.596-1.18-0.886-1.762-1.052c-0.238-0.065-0.629-0.137-0.67-0.437c-0.087-0.69,1.101-0.404,1.399-0.356
		c0.146,0.02,0.257-0.054,0.257-0.212c-0.011-0.306-0.238-1.046-0.524-1.188c-0.534-0.25-1.735-0.018-2.024-0.674
		c-0.111-0.252,0.164-0.436,0.363-0.51c0.342-0.137,1.391,0.208,1.387-0.284c-0.01-0.318-0.117-1.23-0.4-1.415
		c-0.178-0.12-0.423-0.012-0.622-0.028c-0.393-0.031-1.12-0.515-1.033-0.978c0.098-0.551,1.209,0.007,1.588-0.272
		c0.225-0.167,0.178-0.484,0.178-0.727c0-0.259,0.047-0.569-0.125-0.788c-0.364-0.477-1.234-0.756-1.292-1.436
		c-0.093-1.112,1.31,0.382,1.508-0.266c0.079-0.265,0.227-0.886,0.067-1.12c-0.289-0.435-1.231-0.766-0.867-1.469
		c0.364-0.694,0.985,0.477,1.317,0.021c0.166-0.238,0.338-0.788,0.171-1.046c-0.202-0.339-0.872-0.756-0.595-1.229
		c0.37-0.651,0.852,0.607,1.26,0.083c0.219-0.284,0.435-0.767,0.27-1.117c-0.158-0.343-0.728-0.829-0.498-1.226
		c0.254-0.423,0.716-0.402,1.017-0.066c0.155,0.167,0.293,0.549,0.558,0.304c0.236-0.217,0.675-0.793,0.542-1.138
		c-0.137-0.351-0.768-0.727-0.502-1.158c0.537-0.901,0.96,0.57,1.408,0.312c0.98-0.556-0.211-1.568,0.418-2.158
		c0.517-0.476,0.602,0.755,1.087,0.502c0.336-0.178,1.295-0.966,1.369-1.35c0.074-0.357-0.157-0.744-0.075-1.087
		c0.21-0.109,0.418-0.221,0.632-0.324c0.15,0.199,0.226,0.598,0.405,0.672c0.265,0.104,0.826-0.374,1.017-0.536
		c0.12-0.113,0.233-0.513,0.24-0.855c2.745-1.079,5.729-1.678,8.852-1.678c5.611,0,10.779,1.919,14.895,5.128
		c-0.091,0.141-0.13,0.287-0.034,0.382c0.265,0.275,0.779,0.761,1.144,0.872c0.135,0.04,0.262,0.024,0.386,0.006
		c0.212,0.194,0.419,0.393,0.624,0.595c-0.065,0.09-0.135,0.186-0.131,0.315c0.007,0.238,0.384,0.595,0.557,0.732
		c0.198,0.157,0.464,0.136,0.713,0.154c0.177,0.199,0.353,0.399,0.524,0.604c-0.132,0.161-0.377,0.295-0.282,0.533
		c0.133,0.324,0.536,0.893,0.833,1.073C53.29,18.292,53.644,18.165,53.849,18.509z"/>
</g>
</svg>
