<?xml version="1.0" encoding="iso-8859-1"?>
<!-- Generator: Adobe Illustrator 17.1.0, SVG Export Plug-In . SVG Version: 6.00 Build 0)  -->
<!DOCTYPE svg PUBLIC "-//W3C//DTD SVG 1.1//EN" "http://www.w3.org/Graphics/SVG/1.1/DTD/svg11.dtd">
<svg version="1.1" id="Capa_1" xmlns="http://www.w3.org/2000/svg" xmlns:xlink="http://www.w3.org/1999/xlink" x="0px" y="0px"
	 viewBox="0 0 64 64" style="enable-background:new 0 0 64 64;" xml:space="preserve">
<g>
	<path d="M19.465,18.821c0.273,1.692,1.524,2.541,2.44,2.943c0.537,0.235,1.328,0.715,1.882,0.907
		c0.491,0.17,1.133,0.148,1.775-0.58c1.2-1.361,2.201-4.318,5.361-4.862c0.577-0.099,0.858,0.344,0.582,0.861
		c-0.587,1.101-1.648,2.855-2.762,3.559c-1.478,0.934-2.683,2.966-2.526,5.489c0.036,0.585,0.615,1.05,1.201,1.05h0.002
		c0.555,0.302,1.004,0.846,1.004,1.215c0,0.369-0.235,0.839-0.525,1.048c-0.289,0.211-0.524,0.895-0.524,1.525v1.049
		c0,0.632,0.341,1.272,0.762,1.43c0.421,0.158,0.763,0.628,0.763,1.049c0,0.422,0.213,0.87,0.477,1.001
		c0.263,0.132,0.329,0.729,0.147,1.334l-2.869,9.535c-0.182,0.605-0.161,1.579,0.047,2.176l0.011,0.032
		c0.208,0.598-0.129,1.188-0.716,1.423c-0.928,0.372-2.111,1.072-2.111,2.232c0,1.05,0,2.215,0,3.051
		c0,0.632,0.217,1.627,0.708,2.024c1.129,0.917,4.023,2.236,11.361,2.359l-0.479-0.029c7.338-0.124,10.232-1.443,11.362-2.36
		c0.49-0.398,0.707-1.393,0.707-2.024c0-0.836,0-2.002,0-3.052c0-1.159-1.183-1.86-2.111-2.231
		c-0.587-0.235-0.923-0.826-0.715-1.423l0.011-0.033c0.207-0.596,0.228-1.57,0.047-2.175l-2.869-9.536
		c-0.182-0.605-0.116-1.202,0.146-1.334c0.264-0.131,0.478-0.579,0.478-1c0-0.421,0.342-0.891,0.762-1.049
		c0.421-0.158,0.763-0.798,0.763-1.43v-1.048c0-0.632-0.235-1.316-0.524-1.525c-0.29-0.21-0.524-0.68-0.524-1.049
		c0-0.369,0.45-0.913,1.004-1.216l0.089-0.048c0.555-0.303,0.674-1.692,0.674-1.692c0.215-4.862-0.183-18.229-10.83-20.171
		c-0.577-0.105-1.199-0.604-1.487-1.114c-0.184-0.324-0.427-0.682-0.734-0.991c-0.412-0.416-1.269-0.357-1.707,0.031
		c-0.31,0.275-0.642,0.623-0.875,1.013c-0.302,0.502-0.604,0.624-1.013,0.205c-0.672-0.687-1.769-1.63-3.029-2.025
		C24.542,3.189,24,3.652,23.977,4.237c-0.026,0.714-0.003,1.662,0.22,2.427c0.164,0.562,0.089,1.213-0.29,1.66
		c-0.521,0.614-1.096,1.602-0.997,2.898C23.088,13.519,19.023,16.081,19.465,18.821z"/>
</g>
</svg>
