<?xml version="1.0" encoding="iso-8859-1"?>
<!-- Generator: Adobe Illustrator 17.1.0, SVG Export Plug-In . SVG Version: 6.00 Build 0)  -->
<!DOCTYPE svg PUBLIC "-//W3C//DTD SVG 1.1//EN" "http://www.w3.org/Graphics/SVG/1.1/DTD/svg11.dtd">
<svg version="1.1" id="Capa_1" xmlns="http://www.w3.org/2000/svg" xmlns:xlink="http://www.w3.org/1999/xlink" x="0px" y="0px"
	 viewBox="0 0 64 64" style="enable-background:new 0 0 64 64;" xml:space="preserve">
<g>
	<path d="M29.667,55.333C42.554,55.333,53,44.887,53,32C53,19.113,42.554,8.667,29.667,8.667S6.333,19.113,6.333,32
		C6.333,44.887,16.78,55.333,29.667,55.333z M36.5,19.5C43.403,19.5,49,25.097,49,32c0,6.903-5.597,12.5-12.5,12.5S24,38.903,24,32
		C24,25.097,29.597,19.5,36.5,19.5z"/>
	<path d="M32.102,34.733c0,1.784,1.541,3.67,4.887,3.67c3.062,0,5.07-1.622,5.07-4.015c0-1.683-1.136-2.778-2.434-3.265v-0.06
		c1.318-0.649,1.927-1.765,1.927-2.9c0-1.602-1.278-3.387-4.36-3.387c-2.636,0-4.643,1.48-4.643,3.711
		c0,1.156,0.628,2.231,1.906,2.9v0.04C33.014,32.057,32.102,33.151,32.102,34.733z M37.05,26.865c1.135,0,1.602,0.811,1.602,1.643
		c0,0.811-0.629,1.46-1.338,1.663c-1.055-0.324-1.846-0.892-1.846-1.785C35.468,27.575,35.995,26.865,37.05,26.865z M36.847,32.462
		c1.197,0.325,2.068,1.014,2.068,2.17c0,0.933-0.73,1.643-1.805,1.643c-1.156,0-1.886-0.892-1.866-1.845
		C35.245,33.476,35.833,32.746,36.847,32.462z"/>
</g>
</svg>
