<?xml version="1.0" encoding="iso-8859-1"?>
<!-- Generator: Adobe Illustrator 17.1.0, SVG Export Plug-In . SVG Version: 6.00 Build 0)  -->
<!DOCTYPE svg PUBLIC "-//W3C//DTD SVG 1.1//EN" "http://www.w3.org/Graphics/SVG/1.1/DTD/svg11.dtd">
<svg version="1.1" id="Capa_1" xmlns="http://www.w3.org/2000/svg" xmlns:xlink="http://www.w3.org/1999/xlink" x="0px" y="0px"
	 viewBox="0 0 64 64" style="enable-background:new 0 0 64 64;" xml:space="preserve">
<g>
	<path style="fill:#1D1D1B;" d="M62.109,25.594c-0.446-0.53-1.536-0.969-1.993-1.489c-0.645-0.734-1.012-1.755-1.215-2.552
		c-0.171-0.672-0.136-1.451-0.02-1.72c0.115-0.27,0.1-0.629-0.035-0.803c-0.134-0.173-0.762-0.091-1.434,0.076
		c-5.593,1.386-21.288,1.045-27.952,0.837c-0.693-0.022-1.816-0.063-2.509-0.061c-5.206,0.02-7.251,1.344-7.251,1.344L8.447,27.711
		c-0.601,0.346-1.647,0.657-2.34,0.694L2.13,28.619c-0.692,0.036-0.926,0.442-0.521,0.904c0.404,0.462,1.294,1.348,1.986,1.359
		h57.743c0.693,0.012,1.414-0.018,1.527-0.701C63.155,28.427,63.008,26.66,62.109,25.594z M25.521,23.196
		c-0.732,1.062-2.51,1.028-2.51,1.028L16.8,24.231L20.648,22c0,0,1.98-0.007,3.34-0.007C25.347,21.993,26.254,22.133,25.521,23.196z
		"/>
	<path style="fill:#1D1D1B;" d="M61.599,32.119H4.086c-0.462-0.009-0.583,0.728-0.169,0.935c0.629,0.314,1.849,0.76,4.199,1.269
		c1.745-1.147,4.275-1.218,6.026-0.081l2.171,1.408c0.847,0.107,1.73,0.215,2.689,0.322c0.656,0.073,1.404,0.135,2.214,0.187
		l2.248-1.693c1.752-1.317,4.536-1.434,6.392-0.266l3.44,2.173c1.393-0.013,2.804-0.033,4.212-0.06l3.192-2.072
		c1.773-1.156,4.556-1.144,6.329,0.025l2.572,1.696c1.95-0.073,3.644-0.145,4.961-0.202l3.301-2.439
		c1.177-0.876,2.958-0.649,3.92,0.448C62.062,33.354,61.999,32.126,61.599,32.119z"/>
	<path style="fill:#1D1D1B;" d="M58.961,35.227l-5.91,4.367c-0.354,0.262-1.094,0.284-1.465,0.038l-5.178-3.414
		c-1.332-0.88-3.348-0.89-4.685-0.02l-5.303,3.441c-0.408,0.262-1.236,0.268-1.647,0.01l-5.511-3.481
		c-1.375-0.866-3.39-0.783-4.69,0.194l-4.28,3.224c-0.354,0.268-1.089,0.293-1.461,0.051L13.53,36.2
		c-1.395-0.907-3.411-0.786-4.688,0.28L3.71,40.762c-0.598,0.498-0.678,1.386-0.181,1.984c0.28,0.334,0.681,0.507,1.084,0.507
		c0.318,0,0.639-0.108,0.901-0.327l5.134-4.281c0.325-0.272,0.991-0.311,1.348-0.081l5.303,3.439
		c1.371,0.891,3.388,0.818,4.691-0.164l4.281-3.224c0.357-0.271,1.107-0.303,1.487-0.062l5.511,3.481
		c1.341,0.845,3.352,0.833,4.685-0.029l5.303-3.441c0.4-0.258,1.205-0.254,1.6,0.008l5.178,3.413
		c1.361,0.901,3.381,0.848,4.693-0.122l5.91-4.368c0.625-0.463,0.756-1.346,0.295-1.971C60.469,34.896,59.586,34.764,58.961,35.227z
		"/>
</g>
</svg>
