<?xml version="1.0" encoding="iso-8859-1"?>
<!-- Generator: Adobe Illustrator 17.1.0, SVG Export Plug-In . SVG Version: 6.00 Build 0)  -->
<!DOCTYPE svg PUBLIC "-//W3C//DTD SVG 1.1//EN" "http://www.w3.org/Graphics/SVG/1.1/DTD/svg11.dtd">
<svg version="1.1" id="Capa_1" xmlns="http://www.w3.org/2000/svg" xmlns:xlink="http://www.w3.org/1999/xlink" x="0px" y="0px"
	 viewBox="0 0 64 64" style="enable-background:new 0 0 64 64;" xml:space="preserve">
<g>
	<path style="fill:#1D1D1B;" d="M57.678,45.147c0-1.244-1.008-2.252-2.251-2.252h-4.263c-0.267-2.82-0.744-6.612-2.477-10.136
		c-3.981,3.389-11.7,9.172-18.009,9.172c-0.061,0-0.121,0-0.182-0.001c-6.5-0.115-14.699-5.834-18.617-8.882
		c-1.768,3.681-2.293,7.507-2.44,9.847H6.944c-1.244,0-2.251,1.008-2.251,2.252c0,1.243,1.008,2.252,2.251,2.252h3.939
		c0.558,1.088,1.576,2.634,3.326,4.137l-2.744-0.024c-0.003,0-0.008,0-0.011,0c-0.372,0-0.729,0.153-0.984,0.425
		c-0.258,0.274-0.39,0.645-0.363,1.021l0.328,4.701c0.049,0.713,0.643,1.258,1.346,1.258c0.032,0,0.064-0.001,0.096-0.004
		c0.744-0.052,1.305-0.697,1.253-1.441l-0.226-3.244l5.756,0.051c2.993,1.295,7.005,2.17,12.381,2.015
		c4.452-0.129,7.933-0.946,10.651-2.099c0.128,0.04,0.256,0.081,0.4,0.085l5.92-0.052l-0.226,3.244
		c-0.052,0.744,0.509,1.39,1.253,1.441c0.032,0.003,0.065,0.004,0.096,0.004c0.703,0,1.296-0.545,1.346-1.258l0.328-4.701
		c0.026-0.376-0.106-0.746-0.363-1.021c-0.256-0.271-0.612-0.425-0.984-0.425c-0.003,0-0.008,0-0.011,0l-3.27,0.028
		c1.74-1.398,2.891-2.886,3.637-4.141h5.609C56.67,47.399,57.678,46.391,57.678,45.147z"/>
	<path style="fill:#1D1D1B;" d="M11.559,22.779c0.772,2.188,2.343,3.865,4.269,4.832c-1.013,0.942-1.871,1.976-2.591,3.059
		c3.547,2.784,11.474,8.454,17.307,8.559c0.047,0,0.096,0,0.143,0c5.592,0,12.992-5.726,16.595-8.832
		c-0.459-0.648-0.983-1.271-1.562-1.867c3.592,0.038,6.978-2.18,8.237-5.751c1.582-4.487-0.781-9.424-5.268-11.006
		c-2.707-0.955-5.575-0.465-7.774,1.053c0.144,0.703,0.22,1.43,0.22,2.175c0,0.19-0.018,0.376-0.028,0.564
		c1.387,0.166,3.241,0.558,5.679,1.389c3.028,1.033,4.878,2.074,6.013,2.914c0.004,0.785-0.114,1.583-0.391,2.365
		c-0.231,0.657-0.554,1.255-0.946,1.791c-1.597-0.295-3.97-0.832-6.652-1.778c-1.961-0.691-3.658-1.433-4.995-2.074
		c-0.552,1.009-1.266,1.913-2.097,2.695c0.162,0.441,0.37,0.863,0.6,1.272c-1.205-0.372-2.532-0.662-3.981-0.867
		c3.412-1.43,5.816-4.802,5.816-8.728c0-5.216-4.244-9.459-9.46-9.459s-9.46,4.243-9.46,9.459c0,3.76,2.21,7.004,5.393,8.528
		c-0.88,0.085-1.715,0.212-2.507,0.378c-0.717-0.505-1.375-1.087-1.95-1.749c-0.471,0.183-0.955,0.365-1.462,0.544
		c-2.682,0.946-5.054,1.483-6.652,1.778c-0.391-0.536-0.714-1.134-0.945-1.791c-0.276-0.782-0.395-1.58-0.391-2.365
		c1.135-0.84,2.984-1.881,6.012-2.914c0.337-0.115,0.661-0.22,0.975-0.318c-0.123-0.651-0.194-1.321-0.194-2.008
		c0-1.163,0.19-2.281,0.531-3.332c-1.064-0.044-2.152,0.103-3.216,0.478C12.34,13.355,9.978,18.292,11.559,22.779z M23.394,16.863
		c-0.233-0.732-0.361-1.511-0.361-2.319c0-0.912,0.168-1.784,0.462-2.595c1.53-0.414,3.8-0.781,7.117-0.814
		c3.507-0.035,5.8,0.366,7.278,0.821c0.292,0.81,0.459,1.679,0.459,2.588c0,0.764-0.115,1.5-0.325,2.196
		c-1.759,0.278-4.409,0.588-7.526,0.588C27.625,17.328,25.146,17.093,23.394,16.863z"/>
</g>
</svg>
