<?xml version="1.0" encoding="iso-8859-1"?>
<!-- Generator: Adobe Illustrator 17.1.0, SVG Export Plug-In . SVG Version: 6.00 Build 0)  -->
<!DOCTYPE svg PUBLIC "-//W3C//DTD SVG 1.1//EN" "http://www.w3.org/Graphics/SVG/1.1/DTD/svg11.dtd">
<svg version="1.1" id="Capa_1" xmlns="http://www.w3.org/2000/svg" xmlns:xlink="http://www.w3.org/1999/xlink" x="0px" y="0px"
	 viewBox="0 0 64 64" style="enable-background:new 0 0 64 64;" xml:space="preserve">
<path d="M50.486,58.566c-0.231-0.984-0.714-2.076-1.721-2.124c-1.844-0.088-5.357,1.141-10.54-3.338
	c-5.182-4.479-5.797-9.572-5.62-15.281c0.147-4.815,0.952-22.375,1.2-27.757c0.04-0.872-0.385-1.442-1.264-2.422
	c0,0-2.505-2.704-5.459-3.587c0.594,3.818,0.61,6.842,0.541,8.563c-0.037,0.872-0.743,1.577-1.519,1.577s-1.357-0.707-1.376-1.58
	C24.665,9.726,24.089,5.791,23.804,4c-2.852,0.767-5.339,3.301-5.339,3.301c-1.269,1.141-1.097,1.892-1.135,2.765
	c-0.199,4.694-0.539,18.831,2.057,28.459c1.602,5.942,0.847,9.739,0.157,11.622c-0.301,0.821-0.976,2.069-1.221,2.908
	c-0.319,1.093-0.598,2.594-0.239,3.816c0.246,0.838,0.789,2.035,0.754,2.908l-0.044,1.057c-0.037,0.872,0.642,1.578,1.515,1.578
	h5.885c0.873,0,1.561-0.393,1.537-0.877c-0.024-0.486,0.575-0.531,1.397-0.238c1.653,0.587,4.774,1.336,9.625,1.115
	c5.058-0.229,8.61-1.135,10.463-1.735C50.047,60.409,50.686,59.416,50.486,58.566z"/>
<circle cx="26.193" cy="12.264" r="0.615"/>
</svg>
