<?xml version="1.0" encoding="iso-8859-1"?>
<!-- Generator: Adobe Illustrator 17.1.0, SVG Export Plug-In . SVG Version: 6.00 Build 0)  -->
<!DOCTYPE svg PUBLIC "-//W3C//DTD SVG 1.1//EN" "http://www.w3.org/Graphics/SVG/1.1/DTD/svg11.dtd">
<svg version="1.1" id="Capa_1" xmlns="http://www.w3.org/2000/svg" xmlns:xlink="http://www.w3.org/1999/xlink" x="0px" y="0px"
	 viewBox="0 0 64 64" style="enable-background:new 0 0 64 64;" xml:space="preserve">
<g>
	<path d="M14.055,62.167h5.423c1.104,0,2.44-0.78,2.923-1.773c1.599-3.287,4.676-10.665,4.255-18.041
		c-0.565-9.905-7.88-12.268-6.754-20.822c1.02-7.754,3.982-17.26-1.423-19.311c-0.891-0.338-1.615-0.38-1.713-0.386
		c-0.097,0.005-0.821,0.048-1.712,0.386C9.648,4.27,12.611,13.776,13.632,21.53c1.125,8.555-6.19,10.918-6.755,20.822
		c-0.421,7.376,2.656,14.754,4.255,18.041C11.615,61.387,12.95,62.167,14.055,62.167z"/>
	<path d="M48.559,21.531c1.019-7.754,3.982-17.26-1.423-19.312c-0.891-0.338-1.615-0.38-1.712-0.386
		c-0.097,0.005-0.822,0.048-1.713,0.386c-5.405,2.051-2.442,11.558-1.422,19.312c1.125,8.555-6.19,10.917-6.755,20.822
		c-0.421,7.376,2.656,14.754,4.255,18.041c0.483,0.993,1.818,1.773,2.923,1.773h5.423c1.104,0,2.439-0.78,2.923-1.773
		c1.599-3.287,4.676-10.665,4.255-18.041C54.748,32.448,47.433,30.085,48.559,21.531z"/>
</g>
</svg>
