<?xml version="1.0" encoding="iso-8859-1"?>
<!-- Generator: Adobe Illustrator 17.1.0, SVG Export Plug-In . SVG Version: 6.00 Build 0)  -->
<!DOCTYPE svg PUBLIC "-//W3C//DTD SVG 1.1//EN" "http://www.w3.org/Graphics/SVG/1.1/DTD/svg11.dtd">
<svg version="1.1" id="Capa_1" xmlns="http://www.w3.org/2000/svg" xmlns:xlink="http://www.w3.org/1999/xlink" x="0px" y="0px"
	 viewBox="0 0 64 64" style="enable-background:new 0 0 64 64;" xml:space="preserve">
<g>
	<path d="M24.753,23.17c0.173,0.356,0.651,0.636,1.047,0.636h1.254c0.146-1.955,0.912-3.242,1.538-4.272
		c0.613-1.009,1.018-1.675,0.871-2.801c-0.066-0.505-0.157-1.033-0.248-1.56c-0.129-0.755-0.259-1.564-0.325-2.355
		c-0.635-1.046-1.198-2.028-0.995-3.57c0.365-2.777,1.426-6.183-0.511-6.918c-0.369-0.139-0.66-0.138-0.613-0.138
		c0.048,0-0.244-0.001-0.613,0.138c-1.937,0.735-0.875,4.141-0.509,6.918c0.403,3.065-2.217,3.912-2.419,7.459
		C23.079,19.35,24.181,21.993,24.753,23.17z"/>
	<path d="M34.771,14.728c-0.09,0.529-0.181,1.056-0.247,1.562c-0.149,1.125,0.256,1.791,0.87,2.8
		c0.642,1.056,1.442,2.371,1.558,4.411c0.006,0.102-0.001,0.203,0.002,0.305h1.055c0.396,0,0.874-0.28,1.046-0.636
		c0.573-1.178,1.675-3.821,1.525-6.463c-0.203-3.548-2.823-4.394-2.42-7.458c0.366-2.778,1.427-6.183-0.51-6.918
		c-0.37-0.14-0.661-0.139-0.612-0.139c0.047,0-0.244-0.001-0.614,0.139c-1.936,0.735-0.875,4.14-0.509,6.918
		c0.184,1.401-0.271,2.338-0.831,3.283C35.014,13.272,34.892,14.023,34.771,14.728z"/>
	<path d="M30.064,31.37c0.173,0.356,0.651,0.635,1.047,0.635h1.942c0.396,0,0.874-0.28,1.046-0.635
		c0.574-1.178,1.676-3.821,1.524-6.463c-0.202-3.548-2.823-4.394-2.419-7.46c0.365-2.777,1.426-6.183-0.51-6.918
		c-0.369-0.14-0.661-0.138-0.613-0.138c0.048,0-0.244-0.002-0.613,0.138c-1.937,0.735-0.875,4.141-0.509,6.918
		c0.403,3.065-2.217,3.912-2.42,7.46C28.389,27.549,29.491,30.192,30.064,31.37z"/>
	<path d="M18.033,19.499c-1.356-0.231-2.652,0.682-2.886,2.043L9.342,55.481c-0.232,1.361,0.682,2.653,2.043,2.886
		c0.142,0.024,0.284,0.036,0.424,0.036c1.196,0,2.253-0.861,2.461-2.079l5.805-33.939C20.309,21.024,19.394,19.732,18.033,19.499z"
		/>
	<path d="M51.69,58.403c0.14,0,0.282-0.012,0.424-0.036c1.361-0.233,2.275-1.525,2.043-2.886l-5.936-34.705
		c-0.233-1.361-1.525-2.277-2.886-2.043c-1.361,0.233-2.275,1.525-2.043,2.886l5.936,34.705
		C49.438,57.542,50.495,58.403,51.69,58.403z"/>
</g>
</svg>
