<?xml version="1.0" encoding="iso-8859-1"?>
<!-- Generator: Adobe Illustrator 17.1.0, SVG Export Plug-In . SVG Version: 6.00 Build 0)  -->
<!DOCTYPE svg PUBLIC "-//W3C//DTD SVG 1.1//EN" "http://www.w3.org/Graphics/SVG/1.1/DTD/svg11.dtd">
<svg version="1.1" id="Capa_1" xmlns="http://www.w3.org/2000/svg" xmlns:xlink="http://www.w3.org/1999/xlink" x="0px" y="0px"
	 viewBox="0 0 64 64" style="enable-background:new 0 0 64 64;" xml:space="preserve">
<g>
	<path d="M31.321,5.729C16.812,5.729,5.051,17.491,5.051,32c0,14.509,11.762,26.271,26.271,26.271
		c14.51,0,26.271-11.761,26.271-26.271C57.593,17.491,45.831,5.729,31.321,5.729z M15.39,22.045c0-1.692,1.372-3.064,3.065-3.064
		c1.692,0,3.065,1.372,3.065,3.064c0,1.692-1.372,3.065-3.065,3.065C16.762,25.109,15.39,23.737,15.39,22.045z M23.146,32.625
		c-1.692,0-3.064-1.372-3.064-3.065c0-1.692,1.372-3.065,3.064-3.065c1.692,0,3.065,1.373,3.065,3.065
		C26.21,31.252,24.838,32.625,23.146,32.625z M28.258,25.109c-1.692,0-3.064-1.372-3.064-3.065c0-1.692,1.372-3.064,3.064-3.064
		c1.692,0,3.064,1.372,3.064,3.064C31.322,23.737,29.95,25.109,28.258,25.109z"/>
</g>
</svg>
