<?xml version="1.0" encoding="iso-8859-1"?>
<!-- Generator: Adobe Illustrator 17.1.0, SVG Export Plug-In . SVG Version: 6.00 Build 0)  -->
<!DOCTYPE svg PUBLIC "-//W3C//DTD SVG 1.1//EN" "http://www.w3.org/Graphics/SVG/1.1/DTD/svg11.dtd">
<svg version="1.1" id="Capa_1" xmlns="http://www.w3.org/2000/svg" xmlns:xlink="http://www.w3.org/1999/xlink" x="0px" y="0px"
	 viewBox="0 0 64 64" style="enable-background:new 0 0 64 64;" xml:space="preserve">
<g>
	<path d="M6.72,39.295h3.461c0.551,0.175,1.326,0.484,2.085,0.832c0.983,0.451,2.25,1.017,3.672,1.616
		c2.441,1.027,5.645,1.606,7.908,1.003c1.252-0.334,1.775-1.312,1.492-1.51c-0.283-0.197-0.979-0.135-1.595-0.092
		c-0.413,0.029-0.805-0.062-0.886-0.48c-0.183-0.95,1.411-0.832,2.494,0.043c1.082,0.872,1.943,1.37,3.414,0.812
		c1.052-0.398,2.081-1.643,1.817-5.721L30.4,28.698c0,0,0.167-3.877-3.859-3.721c0,0-6.209-0.105-10.214,0.844
		c-4.007,0.954-5.3,2.251-6.784,2.288c-0.122,0.003-0.282,0.008-0.473,0.012H6.72c-1.296,0-2.346,1.051-2.346,2.347v6.48
		C4.375,38.244,5.424,39.295,6.72,39.295z M7.386,33.982h1.419v4.107H7.386V33.982z"/>
	<path d="M54.831,28.109c-1.484-0.037-2.776-1.334-6.784-2.288c-4.005-0.949-10.214-0.844-10.214-0.844
		c-4.026-0.156-3.859,3.721-3.859,3.721l-0.183,7.101c-0.264,4.077,0.765,5.322,1.817,5.721c1.471,0.558,2.332,0.06,3.414-0.812
		c1.083-0.875,2.676-0.993,2.494-0.043c-0.081,0.418-0.473,0.51-0.886,0.48c-0.616-0.043-1.312-0.105-1.595,0.092
		c-0.283,0.197,0.24,1.176,1.492,1.51c2.263,0.604,5.467,0.024,7.908-1.003c1.423-0.6,2.689-1.165,3.672-1.616
		c0.759-0.348,1.534-0.657,2.085-0.832h3.461c1.296,0,2.346-1.051,2.346-2.347v-6.48c0-1.296-1.05-2.347-2.346-2.347h-2.35
		C55.113,28.117,54.953,28.112,54.831,28.109z M55.569,33.982h1.419v4.107h-1.419V33.982z"/>
	<path d="M23.515,18.518c-0.474-0.285-1.088-0.131-1.372,0.343c-0.284,0.474-0.131,1.088,0.343,1.372l5.625,3.375
		c0.161,0.097,0.338,0.143,0.514,0.143c0.34,0,0.671-0.173,0.858-0.485c0.284-0.474,0.131-1.088-0.343-1.372L23.515,18.518z"/>
	<path d="M40.478,18.518l-5.625,3.375c-0.474,0.284-0.627,0.898-0.343,1.372c0.188,0.312,0.519,0.485,0.858,0.485
		c0.175,0,0.353-0.046,0.514-0.143l5.625-3.375c0.474-0.284,0.627-0.898,0.343-1.372C41.566,18.387,40.952,18.233,40.478,18.518z"/>
	<path d="M32.25,23.75c0.552,0,1-0.447,1-1v-9.333c0-0.553-0.448-1-1-1s-1,0.447-1,1v9.333C31.25,23.303,31.698,23.75,32.25,23.75z"
		/>
</g>
</svg>
