<?xml version="1.0" encoding="iso-8859-1"?>
<!-- Generator: Adobe Illustrator 17.1.0, SVG Export Plug-In . SVG Version: 6.00 Build 0)  -->
<!DOCTYPE svg PUBLIC "-//W3C//DTD SVG 1.1//EN" "http://www.w3.org/Graphics/SVG/1.1/DTD/svg11.dtd">
<svg version="1.1" id="Capa_1" xmlns="http://www.w3.org/2000/svg" xmlns:xlink="http://www.w3.org/1999/xlink" x="0px" y="0px"
	 viewBox="0 0 64 64" style="enable-background:new 0 0 64 64;" xml:space="preserve">
<g>
	<path d="M26.191,24.643l-0.68-0.109c0,0-0.048-0.312-0.108-0.697c-0.059-0.385-0.251-0.415-0.429-0.067l-0.321,0.629
		c0,0-0.304-0.049-0.678-0.108c-0.375-0.061-0.463,0.113-0.199,0.389l0.48,0.497c0,0-0.14,0.277-0.314,0.619
		c-0.173,0.342-0.035,0.479,0.308,0.305l0.622-0.314c0,0,0.22,0.22,0.492,0.491c0.272,0.271,0.446,0.185,0.389-0.193l-0.103-0.685
		c0,0,0.273-0.145,0.611-0.323C26.598,24.896,26.566,24.702,26.191,24.643z"/>
	<path d="M23.69,35.082l-0.103-0.685c0,0,0.273-0.145,0.611-0.323c0.337-0.179,0.306-0.372-0.069-0.432l-0.68-0.109
		c0,0-0.048-0.312-0.108-0.697c-0.059-0.385-0.251-0.415-0.429-0.067l-0.321,0.629c0,0-0.304-0.049-0.678-0.108
		c-0.375-0.061-0.463,0.113-0.199,0.389l0.48,0.497c0,0-0.14,0.277-0.314,0.619c-0.173,0.342-0.035,0.479,0.308,0.305l0.622-0.314
		c0,0,0.22,0.22,0.492,0.491C23.574,35.547,23.748,35.46,23.69,35.082z"/>
	<path d="M22.693,42.518l-0.68-0.109c0,0-0.048-0.312-0.108-0.697c-0.06-0.385-0.251-0.415-0.429-0.067l-0.321,0.629
		c0,0-0.304-0.049-0.678-0.108c-0.374-0.061-0.463,0.113-0.199,0.389l0.479,0.497c0,0-0.14,0.277-0.313,0.619
		c-0.173,0.342-0.035,0.479,0.308,0.305l0.622-0.314c0,0,0.22,0.22,0.492,0.491s0.446,0.185,0.389-0.193l-0.103-0.685
		c0,0,0.273-0.145,0.611-0.323C23.1,42.771,23.069,42.577,22.693,42.518z"/>
	<path d="M41.394,14.73c-4.318-0.012-14.472-0.037-18.789-0.038c-1.104,0-2,0.896-2,2c0,1.798,0,4.155,0,4.155
		c-0.791,0.62-2.557,2.115-3.912,4.072c-1.575,2.276-3.265,6.381-5.318,12.918c-0.534,1.704-0.983,3.227-1.335,4.526
		c-0.221,0.815-0.094,1.65,0.358,2.351c0.466,0.723,1.237,1.218,2.115,1.359l5.584,0.9l4.898-24.933h4.868l-4.806,25.733
		l4.163,0.671c0.176,0.028,0.351,0.042,0.525,0.042c1.572,0,3.033-1.115,3.393-2.68l0.976-4.236l0.977,4.236
		c0.399,1.739,2.164,2.913,3.918,2.632l14.477-2.36c0.878-0.144,1.649-0.641,2.114-1.364c0.452-0.701,0.579-1.536,0.358-2.352
		c-0.351-1.297-0.8-2.82-1.335-4.526C50.571,31.3,48.882,27.194,47.31,24.92c-1.359-1.962-3.124-3.454-3.915-4.072v-4.112
		C43.394,15.631,42.499,14.732,41.394,14.73z M23.293,20.224l-0.543,0.25h-0.568l-0.508-0.25v-2.557c0-1.104,0.362-2,0.81-2h0.81
		V20.224z M26.015,20.224l-0.543,0.25h-0.566l-0.546-0.25v-4.557h1.655V20.224z M28.738,19.567v0.656l-0.543,0.25h-0.57l-0.542-0.25
		v-4.557h1.655v0.342h0.848c-1.105,0-2,0.838-2,1.87C27.587,18.627,28.06,19.268,28.738,19.567z M31.461,20.224l-0.545,0.25h-0.568
		l-0.541-0.25V19.75c0.515,0,1.075,0,1.654,0V20.224z M31.461,16.009c-0.575,0-1.135,0-1.654,0v-0.342h1.654V16.009z M34.182,20.224
		l-0.542,0.25h-0.568l-0.543-0.25V19.75c0.579,0,1.142,0,1.653,0V20.224z M34.182,16.009c-0.511,0-1.073,0-1.653,0v-0.342h1.653
		V16.009z M36.904,20.224l-0.543,0.25h-0.569l-0.542-0.25v-0.683c0.65-0.309,1.101-0.934,1.101-1.662c0-1.032-0.896-1.87-2-1.87
		h0.899v-0.342h1.654V20.224z M39.626,20.224l-0.541,0.25h-0.57l-0.542-0.25v-4.557h1.653V20.224z M42.327,20.224l-0.521,0.25
		h-0.567l-0.541-0.25v-4.557c0,0,0.365,0,0.814,0c0.45,0,0.815,0.896,0.815,2V20.224z"/>
</g>
</svg>
