<?xml version="1.0" encoding="iso-8859-1"?>
<!-- Generator: Adobe Illustrator 17.1.0, SVG Export Plug-In . SVG Version: 6.00 Build 0)  -->
<!DOCTYPE svg PUBLIC "-//W3C//DTD SVG 1.1//EN" "http://www.w3.org/Graphics/SVG/1.1/DTD/svg11.dtd">
<svg version="1.1" id="Capa_1" xmlns="http://www.w3.org/2000/svg" xmlns:xlink="http://www.w3.org/1999/xlink" x="0px" y="0px"
	 viewBox="0 0 64 64" style="enable-background:new 0 0 64 64;" xml:space="preserve">
<g>
	<circle style="fill:#1D1D1B;" cx="31.429" cy="19.067" r="7.889"/>
	<path style="fill:#1D1D1B;" d="M17.363,47.098c0.253,0,0.51-0.039,0.76-0.12l9.605-3.098c1.303-0.42,2.019-1.817,1.598-3.12
		c-0.42-1.304-1.821-2.02-3.119-1.598l-3.398,1.096l4.017-6.818c0.695-1.179,0.302-2.699-0.877-3.394
		c-1.179-0.694-2.698-0.301-3.394,0.877l-7.328,12.438c-0.523,0.886-0.442,2.004,0.201,2.807
		C15.906,46.767,16.623,47.098,17.363,47.098z"/>
	<path style="fill:#1D1D1B;" d="M37.063,30.114c-1.142,0.756-1.455,2.293-0.7,3.435l5.107,7.717l-5.107,7.716
		c-0.755,1.142-0.442,2.68,0.699,3.436c0.421,0.278,0.896,0.412,1.366,0.412c0.804,0,1.593-0.391,2.07-1.11l6.012-9.085
		c0.549-0.83,0.549-1.907,0-2.736l-6.012-9.085C39.743,29.672,38.204,29.36,37.063,30.114z"/>
	<path style="fill:#1D1D1B;" d="M30.902,55.948c12.406,0,22.463-4.359,22.463-7.952c0-1.741-2.373-3.316-6.219-4.482l-5.862,8.857
		c-0.691,1.043-1.851,1.666-3.103,1.666c-0.73,0-1.438-0.213-2.049-0.617c-1.71-1.132-2.181-3.444-1.05-5.153l4.654-7.033
		l-4.654-7.034c-1.131-1.709-0.66-4.02,1.05-5.152c0.61-0.404,1.318-0.618,2.049-0.618c0.301,0,0.596,0.04,0.881,0.11
		c-0.333-0.166-0.702-0.267-1.097-0.267H24.894c-0.373,0-0.722,0.088-1.04,0.235c0.196-0.032,0.389-0.078,0.591-0.078
		c0.661,0,1.313,0.178,1.884,0.515c1.767,1.041,2.357,3.324,1.317,5.09l-2.362,4.009l0.294-0.095
		c0.369-0.12,0.753-0.181,1.141-0.181c0.318,0,0.625,0.051,0.923,0.127l-0.134-1.052c-0.086-0.678,0.394-1.299,1.073-1.386
		l1.442-0.184c-0.614,0.074-1.096,0.577-1.096,1.211v2.01c0.15,0.111,0.293,0.233,0.426,0.366v-2.04
		c0-0.685,0.555-1.239,1.239-1.239h1.602c0.685,0,1.239,0.555,1.239,1.239v2.983c0,0.684-0.555,1.239-1.239,1.239h-1.602
		c-0.068,0-0.126-0.028-0.19-0.039c0.099,0.743-0.023,1.497-0.373,2.179c-0.453,0.884-1.223,1.539-2.168,1.844l-9.604,3.098
		c-0.367,0.119-0.751,0.18-1.141,0.18c-1.136,0-2.194-0.508-2.903-1.395c-0.687-0.856-0.935-1.966-0.74-3.014
		c-3.143,1.119-5.033,2.543-5.033,4.099C8.439,51.589,18.496,55.948,30.902,55.948z"/>
</g>
</svg>
