<?xml version="1.0" encoding="iso-8859-1"?>
<!-- Generator: Adobe Illustrator 17.1.0, SVG Export Plug-In . SVG Version: 6.00 Build 0)  -->
<!DOCTYPE svg PUBLIC "-//W3C//DTD SVG 1.1//EN" "http://www.w3.org/Graphics/SVG/1.1/DTD/svg11.dtd">
<svg version="1.1" id="Capa_1" xmlns="http://www.w3.org/2000/svg" xmlns:xlink="http://www.w3.org/1999/xlink" x="0px" y="0px"
	 viewBox="0 0 64 64" style="enable-background:new 0 0 64 64;" xml:space="preserve">
<g>
	<path style="fill:#1D1D1B;" d="M22.208,53.359c-1.183-1.081-2.043-2.484-2.466-4.088l-6.503-24.657
		c-1.195-4.531,1.519-9.191,6.051-10.386l11.07-2.919c-1.906-1.479-4.522-1.938-6.92-0.968L8.377,16.435
		c-3.584,1.45-5.314,5.531-3.864,9.114l9.564,23.639C15.396,52.448,18.89,54.165,22.208,53.359z"/>
	<path style="fill:#1D1D1B;" d="M15.314,24.207l6.502,24.657c0.584,2.213,2.167,3.89,4.135,4.692
		c-0.684-1.223-1.076-2.63-1.076-4.127v-25.5c0-4.687,3.812-8.5,8.5-8.5h10.807c-1.372-3.081-4.805-4.807-8.171-3.919l-15.713,4.144
		C16.56,16.64,14.328,20.469,15.314,24.207z"/>
	<path style="fill:#1D1D1B;" d="M50.167,17.578h-16.25c-3.866,0-7,3.134-7,7v25.5c0,3.866,3.134,7,7,7h16.25c3.866,0,7-3.134,7-7
		v-25.5C57.167,20.712,54.033,17.578,50.167,17.578z M45.995,41.956c-1.021,0-1.949-0.376-2.675-0.985l0.855,2.714
		c0.169,0.538-0.15,0.973-0.714,0.973h-2.806c-0.563,0-0.903-0.441-0.76-0.986l0.668-2.532c-0.693,0.512-1.548,0.816-2.477,0.816
		c-2.311,0-4.183-1.873-4.183-4.184c0-2.311,1.872-4.184,4.183-4.184c0.205,0,0.405,0.02,0.602,0.048
		c-0.52-0.697-0.831-1.559-0.831-2.496c0-2.311,1.873-4.184,4.183-4.184c2.311,0,4.185,1.873,4.185,4.184
		c0,0.937-0.312,1.799-0.831,2.496c0.196-0.029,0.397-0.048,0.601-0.048c2.311,0,4.185,1.873,4.185,4.184
		C50.18,40.083,48.307,41.956,45.995,41.956z"/>
</g>
</svg>
