<?xml version="1.0" encoding="iso-8859-1"?>
<!-- Generator: Adobe Illustrator 17.1.0, SVG Export Plug-In . SVG Version: 6.00 Build 0)  -->
<!DOCTYPE svg PUBLIC "-//W3C//DTD SVG 1.1//EN" "http://www.w3.org/Graphics/SVG/1.1/DTD/svg11.dtd">
<svg version="1.1" id="Capa_1" xmlns="http://www.w3.org/2000/svg" xmlns:xlink="http://www.w3.org/1999/xlink" x="0px" y="0px"
	 viewBox="0 0 64 64" style="enable-background:new 0 0 64 64;" xml:space="preserve">
<path d="M7.236,45.636c0.32,1.512,0.658,3.061,0.833,3.856c0.095,0.435,0.374,1.062,0.634,1.428L13.039,57
	c0.531,0.745,1.663,1.333,2.579,1.339l1.085,0.008c0.001,0,0.014,0,0.015,0c0.708,0,0.98-0.335,1.08-0.534
	c0.1-0.199,0.202-0.621-0.229-1.19l-2.836-3.754c3.046-0.519,4.596-1.042,5.402-1.475l0.001,0.404
	c0.002,1.01,0.878,1.661,1.853,1.348l0.835-0.269c0.419-0.136,1.024-0.442,1.375-0.7l6.696-4.886
	c0.411-0.301,0.745-0.91,0.776-1.419l0.083-1.363c0.033-0.54-0.299-1.147-0.773-1.411l-5.794-3.224
	c0.969-0.425,2.784-1.287,4.156-2.336c0.344-0.264,0.836-0.718,1.114-1.004c0.572-0.593,1.271-1.395,2.011-2.244
	c1.608-1.845,4.039-4.633,4.871-4.633h0.084c1.115,0,3.08-0.49,4.152-0.783c0.461-0.127,1.195-0.564,1.208-1.201
	c0.01-0.484-0.171-1.115-0.355-1.49c-0.136-0.273-0.455-0.6-1.212-0.6c-0.611,0-1.728-0.352-3.065-0.966
	c-0.27-0.124-0.62-0.46-0.849-0.738c-0.154-0.188-0.385-0.295-0.632-0.295c-0.354,0-0.655,0.218-0.747,0.542
	c-0.073,0.254-0.301,0.664-0.542,0.883c-0.718,0.652-1.864,1.805-3.25,3.579c-2.18,2.792-4.353,4.159-5.496,4.25
	c-0.395,0-0.891-0.443-1.466-0.957c-0.533-0.477-1.138-1.018-1.92-1.475c-0.134-0.079-0.302-0.063-0.42,0.038
	c-0.117,0.103-0.156,0.267-0.098,0.41c0.568,1.393,0.522,3.279,0.382,4.618c-0.1,0.968-1.004,1.756-2.014,1.756h-5.117
	c-0.921,0-1.751-0.723-1.972-1.717c-0.696-3.128-3.399-6.925-3.424-6.958l-0.067-0.094c-0.099-0.139-0.281-0.188-0.438-0.121
	c-0.176,0.076-0.317,0.125-0.444,0.154c-1.912,0.434-7.361,2.541-7.327,6.4c0.003,0.38,0.052,0.736,0.119,1.082
	c-0.331,1.852-0.597,5.594,2.159,7.282C5.893,44.059,6.713,44.89,7.236,45.636z M22.27,42.119c0.103,0.019,0.197,0.043,0.268,0.077
	c3.103,1.522,4.568,2.388,4.958,2.721c-0.351,0.411-1.795,1.531-4.458,3.296c-0.305,0.202-0.753,0.358-0.962,0.373l-0.53,0.033
	c0.291-1.687,0.552-4.075,0.745-6.124C22.303,42.364,22.292,42.239,22.27,42.119z M11.921,45.872
	c0.831-1.098,1.852-2.697,2.007-4.086c0.085-0.765-0.047-1.447-0.255-2.018c0.104,0.042,0.21,0.091,0.309,0.126
	c0.603,0.214,1.157,0.6,1.743,1.012c0.616,0.431,1.284,0.895,2.083,1.197c-0.072,0.17-0.112,0.355-0.11,0.551l0.044,4.446
	c0.002,0.168-0.142,0.408-0.225,0.453c-0.543,0.287-1.451,0.676-2.689,0.9c-0.932,0.17-1.705,0.363-2.296,0.576
	c-0.18,0.065-0.338,0.167-0.469,0.296c-0.198-0.284-0.401-0.762-0.452-1.082c-0.076-0.473-0.186-1.17-0.303-1.929
	C11.492,46.262,11.713,46.146,11.921,45.872z"/>
<path d="M21.592,30.528c-0.63-0.066-2.203-0.278-3.186-0.815c-0.212-0.116-0.474-0.301-0.778-0.514
	c-1.007-0.706-2.528-1.772-4.062-1.772c-0.721,0-1.385,0.246-1.973,0.73c-0.144,0.118-0.174,0.326-0.071,0.48
	c0.766,1.146,2.61,4.093,3.193,6.716c0.127,0.572,0.603,1.151,1.267,1.151h5.117c0.628,0,1.233-0.518,1.295-1.107
	c0.218-2.102,0.03-3.77-0.529-4.695C21.806,30.604,21.705,30.541,21.592,30.528z M18.992,34.511h-2.54v-0.507l0.457-0.413
	c0.788-0.705,1.168-1.107,1.174-1.526c0-0.292-0.171-0.523-0.584-0.523c-0.309,0-0.579,0.153-0.766,0.292l-0.237-0.595
	c0.264-0.204,0.688-0.369,1.168-0.369c0.815,0,1.256,0.474,1.256,1.118c0,0.606-0.43,1.085-0.953,1.549l-0.331,0.275v0.011h1.355
	V34.511z"/>
<path d="M34.935,34.575c1.22-0.27,2.157-0.665,2.737-0.972c0.688-0.367,1.184-1.229,1.175-2.049l-0.001-0.125
	c-0.354,0.052-0.681,0.09-0.968,0.105C37.215,32.031,35.896,33.484,34.935,34.575z"/>
<path d="M31.013,24.252c0.253,0.399,0.526,1.021,0.483,1.74c1.031-1.225,1.9-2.101,2.505-2.657c0.194-0.65,0.631-1.19,1.191-1.553
	c-0.863-0.059-1.624-0.747-1.834-1.689c-0.69-3.098-3.368-6.858-3.392-6.893l-0.067-0.093c-0.098-0.138-0.279-0.184-0.434-0.12
	c-0.174,0.075-0.315,0.125-0.44,0.153c-1.894,0.43-7.292,2.518-7.258,6.34c0.003,0.377,0.051,0.729,0.118,1.072
	c-0.328,1.835-0.592,5.541,2.138,7.213c0.962,0.59,1.657,1.196,2.163,1.772c0.216,0.184,0.42,0.363,0.603,0.527
	c0.085,0.075,0.188,0.168,0.288,0.254c0.714-0.364,2.065-1.361,3.536-3.245c0.093-0.119,0.176-0.214,0.267-0.328
	c-0.055-0.349-0.104-0.617-0.146-0.782c-0.093-0.367-0.468-1.496-0.879-2.71l0.42,0.303C30.599,23.791,30.923,24.11,31.013,24.252z"
	/>
<path d="M60.308,10.258c-0.604,0-1.712-0.349-3.035-0.957c-0.269-0.122-0.615-0.455-0.842-0.731
	c-0.152-0.186-0.381-0.292-0.627-0.292c-0.351,0-0.649,0.216-0.74,0.535c-0.072,0.253-0.299,0.659-0.536,0.875
	c-0.711,0.646-1.845,1.787-3.218,3.546c-2.161,2.766-4.313,4.12-5.446,4.21c-0.39,0-0.882-0.439-1.451-0.947
	c-0.527-0.474-1.128-1.009-1.903-1.462c-0.133-0.076-0.299-0.064-0.415,0.039c-0.115,0.1-0.155,0.263-0.097,0.405
	c0.562,1.377,0.516,3.248,0.379,4.574c-0.1,0.96-0.995,1.74-1.995,1.74h-2.018c0.246,0.16,0.476,0.343,0.667,0.575
	c0.064,0.077,0.142,0.154,0.192,0.199c1.237,0.559,1.912,0.709,2.071,0.719h0.001c1.384,0,2.51,0.641,3.069,1.758
	c0.296,0.604,0.596,1.554,0.576,2.469c-0.006,0.263-0.055,0.508-0.122,0.745c1.068,0.579,1.673,0.959,1.899,1.151
	c-0.347,0.406-1.777,1.517-4.416,3.265c-0.302,0.199-0.745,0.355-0.953,0.37l-0.157,0.009c0.104-0.605,0.208-1.349,0.312-2.184
	c-0.838,0.215-1.584,0.378-2.232,0.489c-0.206,1.513-0.388,2.452-0.509,2.777c-0.336,0.274-1.791,0.809-4.594,1.312
	c-0.679,0.781-1.423,1.635-2.031,2.265c-0.34,0.35-0.906,0.873-1.339,1.204c-0.034,0.025-0.072,0.048-0.106,0.074l1.291,1.811
	l0.182,0.101c0.595,0.332,1.079,0.837,1.402,1.43c0.451,0.229,0.942,0.371,1.384,0.375l1.076,0.007h0.015
	c0.702,0,0.971-0.332,1.07-0.529c0.098-0.197,0.199-0.615-0.227-1.18l-2.566-3.398c2.706-0.47,4.237-0.956,5.109-1.383v0.001
	c0.002,1,0.87,1.646,1.835,1.336l0.827-0.267c0.416-0.133,1.014-0.438,1.362-0.693l6.633-4.84c0.408-0.298,0.738-0.901,0.769-1.405
	l0.082-1.351c0.033-0.536-0.297-1.136-0.767-1.397l-5.74-3.194c0.961-0.419,2.759-1.273,4.117-2.313
	c0.339-0.258,0.827-0.708,1.104-0.993c0.567-0.588,1.26-1.382,1.991-2.222c1.595-1.828,4.001-4.591,4.827-4.591h0.083
	c1.104,0,3.051-0.486,4.113-0.776c0.455-0.125,1.184-0.559,1.195-1.189c0.011-0.48-0.169-1.105-0.35-1.477
	C61.373,10.58,61.056,10.258,60.308,10.258z"/>
<path d="M36.898,18.473c0.271,0,0.455-0.18,0.455-0.415c0-0.292-0.22-0.466-0.521-0.548c-0.256,0.072-0.404,0.256-0.404,0.496
	C36.422,18.247,36.606,18.473,36.898,18.473z"/>
<path d="M36.949,16.932c0.18-0.052,0.338-0.216,0.338-0.42c0-0.21-0.117-0.415-0.404-0.415c-0.266,0-0.399,0.18-0.399,0.384
	C36.483,16.706,36.684,16.85,36.949,16.932z"/>
<path d="M40.381,21.076c0.622,0,1.221-0.512,1.283-1.096c0.215-2.081,0.028-3.734-0.525-4.651c-0.058-0.097-0.157-0.16-0.269-0.173
	c-0.625-0.065-2.183-0.274-3.157-0.808c-0.21-0.114-0.47-0.297-0.771-0.509c-0.997-0.699-2.505-1.756-4.023-1.756
	c-0.716,0-1.373,0.244-1.956,0.725c-0.142,0.116-0.172,0.322-0.07,0.476c0.759,1.135,2.585,4.054,3.164,6.652
	c0.126,0.566,0.598,1.14,1.253,1.14H40.381z M35.746,16.507c0-0.563,0.508-0.938,1.173-0.938c0.778,0,1.101,0.45,1.101,0.856
	c0,0.286-0.154,0.567-0.486,0.731v0.016c0.328,0.123,0.614,0.399,0.614,0.824c0,0.604-0.507,1.014-1.28,1.014
	c-0.844,0-1.233-0.477-1.233-0.927c0-0.399,0.23-0.676,0.594-0.835v-0.01C35.905,17.069,35.746,16.798,35.746,16.507z"/>
</svg>
