<?xml version="1.0" encoding="iso-8859-1"?>
<!-- Generator: Adobe Illustrator 17.1.0, SVG Export Plug-In . SVG Version: 6.00 Build 0)  -->
<!DOCTYPE svg PUBLIC "-//W3C//DTD SVG 1.1//EN" "http://www.w3.org/Graphics/SVG/1.1/DTD/svg11.dtd">
<svg version="1.1" id="Capa_1" xmlns="http://www.w3.org/2000/svg" xmlns:xlink="http://www.w3.org/1999/xlink" x="0px" y="0px"
	 viewBox="0 0 64 64" style="enable-background:new 0 0 64 64;" xml:space="preserve">
<path d="M57.307,16.572c-0.843,0-2.387-0.486-4.236-1.335c-0.373-0.172-0.857-0.636-1.173-1.021
	c-0.213-0.259-0.532-0.407-0.874-0.407c-0.49,0-0.905,0.301-1.033,0.748c-0.101,0.352-0.416,0.919-0.749,1.221
	c-0.992,0.902-2.577,2.494-4.492,4.947c-3.013,3.859-6.017,5.749-7.596,5.874c-0.545,0-1.229-0.612-2.02-1.321
	c-0.834-0.747-1.891-1.68-3.288-2.37c1.179,1.984,1.181,5.047,0.938,7.385c-0.165,1.585-1.637,2.875-3.281,2.875h-7.073
	c-1.505,0-2.858-1.163-3.214-2.765c-0.944-4.241-4.614-9.384-4.651-9.434l-0.39-0.542c-0.176,0.071-0.348,0.13-0.515,0.168
	c-2.642,0.6-10.175,3.512-10.127,8.846c0.005,0.526,0.072,1.019,0.164,1.496c-0.457,2.561-0.825,7.731,2.984,10.065
	c1.806,1.106,2.938,2.256,3.661,3.287c0.442,2.089,0.909,4.229,1.151,5.33c0.132,0.601,0.517,1.468,0.876,1.974l5.993,8.404
	c0.734,1.029,2.3,1.842,3.565,1.851l1.5,0.01c0.001,0,0.02,0,0.021,0c0.979,0,1.355-0.462,1.492-0.737
	c0.138-0.276,0.28-0.858-0.316-1.646l-3.919-5.188c4.21-0.716,6.353-1.44,7.466-2.038l0.001,0.559
	c0.002,1.396,1.216,2.295,2.562,1.863l1.154-0.371c0.58-0.188,1.415-0.612,1.901-0.968l9.255-6.753
	c0.568-0.416,1.029-1.259,1.072-1.961l0.115-1.885c0.046-0.747-0.414-1.586-1.069-1.951l-8.009-4.455
	c1.339-0.587,3.848-1.779,5.745-3.229c0.476-0.364,1.156-0.991,1.539-1.387c0.792-0.819,1.758-1.928,2.78-3.102
	c2.223-2.55,5.581-6.404,6.732-6.404l0.115,0.001c0,0,0,0,0,0c1.542,0,4.258-0.679,5.74-1.083c0.637-0.176,1.652-0.78,1.67-1.66
	c0.013-0.67-0.237-1.542-0.492-2.059C58.796,17.023,58.354,16.572,57.307,16.572z M24.863,46.312
	c0.002,0.231-0.197,0.564-0.311,0.626c-0.751,0.396-2.005,0.935-3.716,1.245c-1.288,0.234-2.356,0.501-3.174,0.796
	c-0.249,0.09-0.467,0.231-0.647,0.409c-0.274-0.394-0.554-1.053-0.625-1.495c-0.105-0.653-0.258-1.617-0.42-2.667
	c0.254-0.072,0.561-0.232,0.848-0.611c1.148-1.517,2.56-3.728,2.774-5.647c0.118-1.057-0.065-2-0.352-2.79
	c0.143,0.059,0.29,0.126,0.428,0.175c0.833,0.295,1.599,0.83,2.409,1.397c0.851,0.596,1.775,1.236,2.879,1.655
	c-0.1,0.234-0.155,0.491-0.152,0.761L24.863,46.312z M38.346,43.296c-0.485,0.567-2.481,2.116-6.161,4.555
	c-0.422,0.279-1.041,0.496-1.331,0.516l-0.732,0.046c0.403-2.33,0.763-5.633,1.029-8.465c0.017-0.181,0.001-0.353-0.029-0.52
	c0.142,0.026,0.273,0.061,0.37,0.107C35.781,41.64,37.806,42.835,38.346,43.296z"/>
<g>
	<path d="M25.116,26.79c-0.362,0.101-0.57,0.356-0.57,0.671c-0.012,0.332,0.237,0.629,0.647,0.629c0.386,0,0.641-0.243,0.641-0.576
		C25.834,27.122,25.549,26.909,25.116,26.79z"/>
	<path d="M25.259,26.25c0.267-0.077,0.48-0.291,0.48-0.582c0-0.267-0.16-0.546-0.552-0.546c-0.368,0-0.558,0.243-0.558,0.522
		C24.629,25.959,24.891,26.149,25.259,26.25z"/>
	<path d="M30.133,23.905c-0.968-0.102-3.171-0.409-4.592-1.187c-0.312-0.17-0.67-0.421-1.123-0.739
		c-1.34-0.939-3.366-2.358-5.327-2.358c-0.886,0-1.68,0.294-2.41,0.896c1.092,1.633,3.663,5.75,4.487,9.452
		c0.129,0.581,0.616,1.199,1.262,1.199h7.073c0.617,0,1.233-0.516,1.292-1.082C31.085,27.295,30.843,25.082,30.133,23.905z
		 M25.169,28.606c-0.902,0-1.371-0.522-1.371-1.062c0-0.475,0.279-0.802,0.724-0.997v-0.018c-0.403-0.196-0.587-0.517-0.587-0.856
		c0-0.629,0.558-1.057,1.288-1.057c0.837,0,1.211,0.499,1.211,0.974c0,0.326-0.172,0.665-0.594,0.873v0.017
		c0.421,0.16,0.736,0.492,0.736,0.974C26.576,28.144,25.995,28.606,25.169,28.606z"/>
</g>
</svg>
