<?xml version="1.0" encoding="iso-8859-1"?>
<!-- Generator: Adobe Illustrator 17.1.0, SVG Export Plug-In . SVG Version: 6.00 Build 0)  -->
<!DOCTYPE svg PUBLIC "-//W3C//DTD SVG 1.1//EN" "http://www.w3.org/Graphics/SVG/1.1/DTD/svg11.dtd">
<svg version="1.1" id="Capa_1" xmlns="http://www.w3.org/2000/svg" xmlns:xlink="http://www.w3.org/1999/xlink" x="0px" y="0px"
	 viewBox="0 0 64 64" style="enable-background:new 0 0 64 64;" xml:space="preserve">
<path d="M58.11,17.771c-0.844,0-2.387-0.486-4.236-1.335c-0.373-0.172-0.857-0.636-1.173-1.02c-0.213-0.259-0.532-0.407-0.874-0.407
	c-0.49,0-0.905,0.301-1.033,0.748c-0.101,0.352-0.416,0.919-0.748,1.221c-0.876,0.796-2.213,2.132-3.831,4.119
	c-1.77-0.316-3.042-0.989-3.859-1.574c0.059-0.952-0.624-1.8-1.583-1.919l-7.299-0.914l-1.489-3.919
	c-0.125-0.329-0.337-0.596-0.597-0.795l-0.027-0.22c-0.202-0.46-0.762-0.731-1.248-0.604l-4.911,1.281
	c-0.486,0.127-0.83,0.636-0.768,1.134l1.156,9.258c-0.028-0.019-0.051-0.035-0.08-0.056c-1.392-0.976-3.494-2.449-5.614-2.449
	c-0.997,0-1.914,0.34-2.727,1.01c-0.198,0.163-0.241,0.45-0.098,0.664c1.059,1.583,3.608,5.656,4.414,9.282
	c0.176,0.791,0.834,1.591,1.751,1.591h7.073c0.868,0,1.704-0.715,1.79-1.53c0.038-0.36,0.066-0.712,0.086-1.054
	c0.384,0.159,0.664,0.541,0.65,0.965l-0.039,1.135c-0.475,0.871-1.439,1.484-2.487,1.484h-7.073c-1.274,0-2.42-0.998-2.726-2.373
	c-0.962-4.322-4.699-9.57-4.733-9.617l-0.092-0.129c-0.138-0.191-0.389-0.259-0.606-0.168c-0.244,0.106-0.439,0.174-0.614,0.214
	c-2.642,0.6-10.175,3.512-10.128,8.846c0.004,0.453,0.05,0.885,0.12,1.302c-0.432,2.638-0.656,7.544,3.028,9.802
	c1.693,1.038,2.796,2.114,3.524,3.095c0.479,2.281,1.021,4.765,1.288,5.981c0.132,0.601,0.517,1.468,0.877,1.974l5.993,8.404
	c0.734,1.029,2.3,1.842,3.565,1.851l1.5,0.01c0.001,0,0.02,0,0.022,0c0.979,0,1.355-0.462,1.492-0.737
	c0.138-0.276,0.28-0.858-0.317-1.646l-4.225-5.593c4.421-0.733,6.63-1.479,7.771-2.092l0.002,1.017
	c0.003,1.396,1.215,2.295,2.561,1.863l1.154-0.371c0.58-0.188,1.415-0.612,1.901-0.968l9.255-6.753
	c0.568-0.416,1.029-1.259,1.072-1.961l0.115-1.885c0.046-0.747-0.414-1.586-1.069-1.951l-6.367-3.542
	c0.021-0.129,0.042-0.257,0.045-0.392l0.029-1.326c1.271-0.632,2.779-1.47,4.028-2.425c0.476-0.364,1.156-0.991,1.539-1.387
	c0.792-0.819,1.758-1.928,2.78-3.101c2.223-2.55,5.581-6.404,6.732-6.404l0.115,0.001c0,0,0,0,0,0c1.542,0,4.258-0.679,5.74-1.083
	c0.637-0.176,1.652-0.78,1.67-1.66c0.013-0.67-0.237-1.542-0.492-2.06C59.599,18.222,59.157,17.771,58.11,17.771z M17.653,50.328
	c-0.214-0.387-0.404-0.883-0.461-1.236c-0.105-0.653-0.258-1.617-0.419-2.667c0.254-0.072,0.56-0.231,0.847-0.611
	c1.148-1.517,2.561-3.728,2.774-5.647c0.118-1.057-0.065-2-0.352-2.79c0.143,0.059,0.291,0.126,0.428,0.175
	c0.833,0.295,1.599,0.83,2.409,1.397c0.819,0.573,1.708,1.185,2.756,1.604c-0.02,0.115-0.031,0.233-0.03,0.354l0.06,6.146
	c0.002,0.231-0.197,0.564-0.311,0.626c-0.751,0.396-2.005,0.935-3.716,1.245c-1.289,0.234-2.356,0.501-3.174,0.796
	C18.131,49.84,17.858,50.057,17.653,50.328z M31.954,40.688c0.002-0.02-0.001-0.038,0-0.058c0.131,0.025,0.25,0.06,0.341,0.103
	c4.289,2.104,6.314,3.3,6.853,3.761c-0.485,0.567-2.481,2.116-6.161,4.555c-0.422,0.279-1.041,0.496-1.331,0.516l-0.742,0.047
	c-0.026,0.002-0.05,0.012-0.075,0.014C31.277,47.286,31.669,43.716,31.954,40.688z M40.319,21.216
	c0.062,0.009,0.125,0.013,0.187,0.015c0.603,0.014,1.153-0.275,1.496-0.736c0.825,0.554,1.989,1.141,3.505,1.486
	c-2.997,3.818-5.979,5.693-7.55,5.817c-0.09,0-0.185-0.021-0.283-0.053c-0.144-0.278-0.358-0.524-0.61-0.653l-1.027-0.523
	c-0.036-0.031-0.07-0.062-0.105-0.094c-0.737-0.659-1.573-1.406-2.655-2.039c-0.113-0.066-0.239-0.068-0.36-0.04
	c-0.036-0.115-0.063-0.23-0.067-0.342l-0.464-3.832L40.319,21.216z M24.252,62.555L24.252,62.555L24.252,62.555L24.252,62.555z"/>
<circle cx="26.482" cy="5.655" r="4.21"/>
</svg>
