<?xml version="1.0" encoding="iso-8859-1"?>
<!-- Generator: Adobe Illustrator 17.1.0, SVG Export Plug-In . SVG Version: 6.00 Build 0)  -->
<!DOCTYPE svg PUBLIC "-//W3C//DTD SVG 1.1//EN" "http://www.w3.org/Graphics/SVG/1.1/DTD/svg11.dtd">
<svg version="1.1" id="Capa_1" xmlns="http://www.w3.org/2000/svg" xmlns:xlink="http://www.w3.org/1999/xlink" x="0px" y="0px"
	 viewBox="0 0 64 64" style="enable-background:new 0 0 64 64;" xml:space="preserve">
<g>
	<path d="M16.334,9.503c-1.209-0.691-2.728-1.072-4.278-1.072c-1.719,0-3.341,0.458-4.565,1.291
		c-2.638,1.793-4.018,6.221-4.018,9.668v18.944c0,3.746,1.887,8.673,4.388,11.459l0.688,0.768c2.562,2.854,7.387,5.007,11.223,5.007
		h32.977c4.55,0,8.114-2.793,8.114-6.359c0-3.402-3.049-7.158-5.918-8.965l-3.13-1.97c-2.033-1.281-4.163-4.328-4.558-6.522
		c-0.653-3.633-3-7.4-5.46-8.761c-1.239-0.686-2.722-1.064-4.177-1.064c-1.612,0-3.072,0.466-4.109,1.314
		c-1.556,1.269-3.336,3.771-4.139,5.818c-0.487,1.241-2.177,4.035-3.823,6.062c-0.724,0.889-1.849,1.224-2.444,0.674
		c-1.056-0.975-2.237-3.997-2.237-6.583V19.157C20.868,15.732,19.279,11.185,16.334,9.503z M19.312,32.481l-0.969,0.25
		c-0.311-1.207-0.476-2.424-0.476-3.518v-1.639h1v1.639C18.868,30.225,19.021,31.355,19.312,32.481z M18.72,17.361
		c0.098,0.608,0.147,1.212,0.147,1.796v3.347h-1v-3.347c0-0.531-0.045-1.081-0.135-1.637L18.72,17.361z M12.057,10.431
		c1.208,0,2.375,0.287,3.286,0.808c0.483,0.276,0.948,0.694,1.379,1.243l-0.786,0.618c-0.352-0.447-0.718-0.781-1.089-0.993
		c-0.763-0.436-1.753-0.676-2.79-0.676l-0.218,0.003l-0.031-0.999L12.057,10.431z M7.166,13.002l0.853,0.521
		c-0.735,1.203-1.285,2.919-1.473,4.588L5.552,18C5.758,16.165,6.346,14.344,7.166,13.002z M5.473,23.124h1v5.07h-1V23.124z
		 M5.473,33.264h1v5.07h-1V33.264z M8.432,47.275C7.539,45.96,6.75,44.29,6.209,42.573l0.954-0.3
		c0.512,1.627,1.256,3.204,2.096,4.44L8.432,47.275z M16.864,53.147c-1.653-0.445-3.339-1.211-4.748-2.156l0.558-0.83
		c1.32,0.886,2.9,1.604,4.45,2.021L16.864,53.147z M27.099,53.569h-5.07v-1h5.07V53.569z M37.239,53.569h-5.07v-1h5.07V53.569z
		 M47.379,53.569h-5.07v-1h5.07V53.569z M52.75,53.569c-0.001,0-0.002,0-0.002,0H52.45v-1h0.298c0,0,0.001,0,0.002,0
		c1.622,0,3.115-0.497,4.098-1.364l0.661,0.75C56.346,52.98,54.611,53.569,52.75,53.569z M54.909,42.674
		c1.403,1.125,2.61,2.612,3.312,4.081l-0.902,0.431c-0.639-1.337-1.745-2.697-3.034-3.731L54.909,42.674z M47.227,36.419
		c1.003,1.457,2.208,2.688,3.393,3.466l-0.549,0.836c-1.291-0.848-2.594-2.174-3.668-3.734L47.227,36.419z M43.249,27.169
		c0.975,1.448,1.711,3.211,2.02,4.836l-0.982,0.187c-0.285-1.498-0.965-3.125-1.867-4.464L43.249,27.169z M34.775,24.791
		c0.942-0.768,2.573-1.05,4.177-0.729l-0.196,0.981c-1.301-0.26-2.647-0.05-3.349,0.524c-0.24,0.195-0.498,0.443-0.769,0.739
		L33.9,25.63C34.204,25.298,34.498,25.016,34.775,24.791z M34.026,30.886c0.487-1.241,1.748-3.038,2.645-3.77
		c0.064-0.049,0.375-0.188,0.949-0.188c0.613,0,1.253,0.159,1.755,0.438c0.912,0.505,2.518,2.809,2.961,5.273
		c0.645,3.585,3.574,7.827,6.814,9.868l3.129,1.97c2.154,1.356,3.582,3.748,3.582,4.734c0,0.349-1.071,1.359-3.114,1.359H19.771
		c-2.396,0-5.901-1.564-7.501-3.346l-0.689-0.768c-1.656-1.846-3.109-5.64-3.109-8.121V19.391c0-2.661,1.184-5.095,1.829-5.533
		c0.303-0.206,0.923-0.426,1.755-0.426c0.683,0,1.338,0.15,1.797,0.413c0.802,0.458,2.014,2.811,2.014,5.313v10.056
		c0,3.824,1.653,8.233,3.845,10.256c1.117,1.031,2.581,1.599,4.125,1.599c2.11,0,4.148-1.019,5.591-2.794
		C31.271,36.008,33.29,32.763,34.026,30.886z M31.129,30.043l0.918,0.397c-0.5,1.153-1.471,2.821-2.6,4.461l-0.824-0.567
		C29.701,32.769,30.662,31.125,31.129,30.043z M21.349,36.843c0.13,0.156,0.263,0.297,0.398,0.422
		c0.93,0.857,2.318,1.036,3.597,0.477l0.4,0.917c-0.622,0.271-1.264,0.409-1.907,0.409c-1.054,0-2.011-0.369-2.768-1.068
		c-0.166-0.153-0.329-0.326-0.488-0.516L21.349,36.843z"/>
</g>
</svg>
