<?xml version="1.0" encoding="iso-8859-1"?>
<!-- Generator: Adobe Illustrator 17.1.0, SVG Export Plug-In . SVG Version: 6.00 Build 0)  -->
<!DOCTYPE svg PUBLIC "-//W3C//DTD SVG 1.1//EN" "http://www.w3.org/Graphics/SVG/1.1/DTD/svg11.dtd">
<svg version="1.1" id="Capa_1" xmlns="http://www.w3.org/2000/svg" xmlns:xlink="http://www.w3.org/1999/xlink" x="0px" y="0px"
	 viewBox="0 0 64 64" style="enable-background:new 0 0 64 64;" xml:space="preserve">
<path d="M7.978,21.916c1.07,0.571,2.678,0.169,3.591-0.896l0.132-0.154c0.998,1.225,2.584,1.919,4.26,1.668
	c2.525-0.379,4.264-2.734,3.885-5.258c-0.216-1.439-1.084-2.605-2.25-3.287l0.07-0.082c0.914-1.065,1.227-2.904,0.698-4.107
	c-0.528-1.203-1.696-1.315-2.609-0.25l-1.93,2.251L10.6,11.602c-1.399-0.087-2.292,0.955-1.993,2.325l0.689,3.156l-1.602,1.869
	C6.781,20.019,6.908,21.345,7.978,21.916z"/>
<path d="M19.825,23.408c-0.005,0.003-0.01,0.008-0.015,0.011l-4.646,2.116c-0.502,0.229-0.779,0.843-0.618,1.371l4.823,15.795
	c0.035,0.114,0.097,0.22,0.167,0.32c-10.519,7.973-8.62,13.739-8.366,14.375c0.228,0.569,0.779,0.943,1.393,0.943H23.24
	c0.829,0,1.5-0.671,1.5-1.5c0-0.829-0.671-1.5-1.5-1.5h-9.334c0.109-1.654,1.213-5.288,7.702-10.126
	c0.759-0.566,1.464-1.121,2.128-1.667l2.083-0.057c0.553-0.015,1.062,0.416,1.137,0.963l1.009,7.271
	c0.228,1.641,1.646,2.787,3.167,2.558c1.521-0.229,2.554-1.742,2.307-3.38l-1.581-10.458c-0.083-0.546-0.578-1.121-1.106-1.283
	l-1.966-0.604c1.868-2.326,2.973-4.559,3.62-6.843l0.763-0.036c1.103-0.052,1.955-0.989,1.902-2.093
	c-0.05-1.052-0.891-1.871-1.941-1.895c0.14-1.488,0.174-3.027,0.174-4.656c0-4.438,2.513-6.935,4.621-8.248
	c0.234-0.146,0.424-0.354,0.548-0.601l1.575-3.139c0.023-0.046,0.045-0.086,0.066-0.12c0.024,0.031,0.051,0.068,0.079,0.111
	l1.775,2.753c0.164,0.297,0.425,0.533,0.746,0.665c1.5,0.615,3.052,1.679,4.613,3.163c0.14,0.133,0.304,0.238,0.484,0.309
	c0,0,1.422,0.56,2.546,0.979c0.641,0.24,1.002,0.53,1.117,0.629c-0.145,0.149-0.521,0.385-1.061,0.491l-0.22,0.042
	c-1.266,0.244-2.371,0.482-3.062,0.912c-0.446,0.279-0.872,0.648-1.284,1.004c-1.306,1.131-1.893,1.474-2.58,1.159
	c-0.604-0.278-1.314-0.129-1.753,0.369c-0.439,0.497-0.5,1.222-0.15,1.785c0.088,0.141,2.181,3.48,4.901,5.451
	c0.673,0.487,1.609,0.335,2.095-0.335c0.486-0.671,0.336-1.609-0.335-2.095c-0.948-0.687-1.828-1.613-2.529-2.455
	c0.944-0.424,1.726-1.101,2.315-1.611c0.34-0.294,0.661-0.573,0.903-0.724c0.323-0.183,1.575-0.424,2.046-0.515l0.23-0.044
	c2.073-0.409,3.52-1.808,3.52-3.402c0-1.468-1.131-2.733-3.105-3.473c-0.808-0.301-1.771-0.676-2.229-0.855
	c-1.613-1.498-3.25-2.628-4.875-3.367l-1.588-2.462c-0.696-1.079-1.706-1.668-2.769-1.606c-1.064,0.058-2.004,0.749-2.579,1.896
	l-1.39,2.772c-2.274,1.517-5.672,4.756-5.672,10.56c0,1.708-0.033,3.281-0.197,4.786l-5.196,0.247l-2.348-3.959
	c-0.395-0.666-1.115-1.01-1.839-0.968c-0.168-0.004-0.337,0.015-0.491,0.085l-0.008,0.003C20.09,23.273,19.955,23.331,19.825,23.408
	z M29.217,31.866c-0.642,1.79-1.67,3.561-3.28,5.428c-0.148-0.197-0.269-0.41-0.314-0.625l-1.376-4.567L29.217,31.866z"/>
</svg>
