<?xml version="1.0" encoding="iso-8859-1"?>
<!-- Generator: Adobe Illustrator 17.1.0, SVG Export Plug-In . SVG Version: 6.00 Build 0)  -->
<!DOCTYPE svg PUBLIC "-//W3C//DTD SVG 1.1//EN" "http://www.w3.org/Graphics/SVG/1.1/DTD/svg11.dtd">
<svg version="1.1" id="Capa_1" xmlns="http://www.w3.org/2000/svg" xmlns:xlink="http://www.w3.org/1999/xlink" x="0px" y="0px"
	 viewBox="0 0 64 64" style="enable-background:new 0 0 64 64;" xml:space="preserve">
<path d="M16.734,14.676c1.948,0,4.99-1.014,8.136-2.712c0.477-0.257,0.938-0.524,1.388-0.795c-0.475,1.161-0.907,2.411-1.047,3.396
	c-0.351,2.467,1.087,4.841,1.383,5.298c0.18,0.402,1.399,3.379-0.079,7.144c-0.565,1.44-1.341,2.815-2.121,4.011l-0.296-0.499
	c-0.324-0.546-0.915-0.829-1.51-0.795c-0.139-0.003-0.277,0.012-0.405,0.07l-0.007,0.003c-0.112,0.037-0.223,0.084-0.33,0.147
	c-0.005,0.003-0.008,0.006-0.013,0.009l-3.815,1.738c-0.413,0.188-0.64,0.692-0.508,1.126l3.962,12.974
	c0.019,0.062,0.059,0.117,0.091,0.175c-0.298,0.233-0.583,0.462-0.903,0.701c-9.846,7.343-8.085,12.668-7.851,13.251
	c0.207,0.518,0.708,0.856,1.265,0.856h9.699c0.753,0,1.362-0.61,1.362-1.362c0-0.753-0.61-1.362-1.362-1.362h-8.479
	c0.099-1.502,1.102-4.803,6.996-9.198c1.091-0.814,2.053-1.601,2.933-2.371l1.549-0.042c0.454-0.013,0.871,0.341,0.934,0.791
	l0.83,5.972c0.186,1.348,1.352,2.289,2.601,2.101s2.098-1.431,1.895-2.776l-1.298-8.589c-0.067-0.449-0.475-0.92-0.908-1.054
	l-1.668-0.513c1.444-1.895,2.331-3.729,2.883-5.597l0.769-0.037c0.907-0.043,1.606-0.812,1.563-1.719
	c-0.042-0.891-0.807-1.596-1.674-1.561c0.173-1.513,0.219-3.08,0.219-4.751c0-4.031,2.282-6.299,4.197-7.491
	c0.213-0.133,0.385-0.322,0.497-0.546l1.432-2.851c0.02-0.042,0.04-0.077,0.059-0.108c0.023,0.028,0.047,0.062,0.071,0.101
	l1.61,2.496c0.147,0.271,0.387,0.488,0.679,0.608c1.363,0.559,2.773,1.525,4.189,2.873c0.128,0.121,0.277,0.216,0.441,0.281
	c0,0,1.292,0.508,2.313,0.889c0.582,0.218,0.91,0.481,1.015,0.571c-0.132,0.135-0.473,0.35-0.964,0.446l-0.199,0.039
	c-1.15,0.222-2.153,0.436-2.781,0.828c-0.405,0.253-0.792,0.589-1.167,0.913c-1.187,1.028-1.72,1.34-2.343,1.052
	c-0.548-0.252-1.194-0.116-1.592,0.335c-0.398,0.451-0.454,1.11-0.136,1.622c0.079,0.128,1.98,3.162,4.452,4.951
	c0.607,0.44,1.461,0.305,1.902-0.304c0.442-0.609,0.306-1.461-0.304-1.903c-0.861-0.624-1.661-1.465-2.298-2.23
	c0.856-0.386,1.567-1,2.103-1.464c0.309-0.268,0.601-0.52,0.819-0.657c0.293-0.166,1.431-0.385,1.859-0.467l0.209-0.041
	c1.883-0.372,3.197-1.643,3.197-3.09c0-1.334-1.027-2.483-2.82-3.154c-0.734-0.274-1.608-0.614-2.025-0.777
	c-1.464-1.36-2.949-2.387-4.427-3.058l-1.443-2.237c-0.631-0.979-1.555-1.513-2.515-1.459c-0.966,0.052-1.82,0.68-2.343,1.722
	l-1.263,2.518c-2.067,1.378-5.152,4.321-5.152,9.591c0,1.753-0.036,3.351-0.242,4.879l-3.922,0.187l-0.501-0.845
	c1.012-1.455,2.092-3.254,2.851-5.188c1.903-4.847,0.067-8.65-0.012-8.81l-0.07-0.119c-0.014-0.02-1.375-2.054-1.104-3.962
	c0.242-1.697,1.702-4.764,2.343-5.996c0.281-0.238,0.55-0.475,0.793-0.709c1.666-1.608,2.223-2.956,1.655-4.007
	c-0.262-0.486-0.876-1.066-2.312-1.066c-1.948,0-4.99,1.014-8.136,2.712c-2.188,1.18-4.126,2.538-5.457,3.822
	c-1.665,1.608-2.223,2.956-1.655,4.007C14.684,14.096,15.298,14.676,16.734,14.676z M29.129,36.912
	c-0.517,1.378-1.286,2.747-2.425,4.17c-0.038-0.082-0.077-0.164-0.094-0.246l-1.13-3.751L29.129,36.912z M22.483,7.541
	c2.782-1.501,5.603-2.472,7.187-2.472c0.249,0,0.407,0.026,0.5,0.05c-0.225,0.708-2.076,2.834-6.249,5.086
	c-2.782,1.502-5.603,2.472-7.186,2.472c-0.249,0-0.407-0.026-0.5-0.05C16.46,11.918,18.311,9.792,22.483,7.541z"/>
<path d="M12.117,28.719c0.879,0.469,2.2,0.139,2.95-0.736l0.109-0.127c0.819,1.006,2.123,1.577,3.499,1.37
	c2.074-0.312,3.503-2.246,3.191-4.319c-0.177-1.182-0.891-2.139-1.848-2.699l0.057-0.067c0.75-0.875,1.008-2.385,0.574-3.374
	c-0.434-0.988-1.393-1.081-2.143-0.205l-1.585,1.849l-2.65-0.163c-1.149-0.072-1.883,0.784-1.637,1.91L13.2,24.75l-1.316,1.536
	C11.134,27.16,11.238,28.25,12.117,28.719z"/>
</svg>
