<?xml version="1.0" encoding="iso-8859-1"?>
<!-- Generator: Adobe Illustrator 17.1.0, SVG Export Plug-In . SVG Version: 6.00 Build 0)  -->
<!DOCTYPE svg PUBLIC "-//W3C//DTD SVG 1.1//EN" "http://www.w3.org/Graphics/SVG/1.1/DTD/svg11.dtd">
<svg version="1.1" id="Capa_1" xmlns="http://www.w3.org/2000/svg" xmlns:xlink="http://www.w3.org/1999/xlink" x="0px" y="0px"
	 viewBox="0 0 64 64" style="enable-background:new 0 0 64 64;" xml:space="preserve">
<g>
	<path d="M41.322,49.902c-0.622-0.25-0.98-0.877-0.76-1.511l0.012-0.035c0.221-0.634,0.243-1.669,0.05-2.31l-3.047-10.129
		c-0.192-0.644-0.124-1.277,0.156-1.417c0.28-0.14,0.507-0.614,0.507-1.064c0-0.447,0.362-0.945,0.811-1.113
		c0.446-0.168,0.81-0.849,0.81-1.518V29.69c0-0.671-0.249-1.397-0.557-1.62c-0.308-0.223-0.557-0.723-0.557-1.114
		c0-0.392,0.477-0.97,1.065-1.291l0.095-0.051c0.589-0.322,1.067-1.127,1.067-1.797l-1.488-5.653
		c0.879-1.477,1.393-3.196,1.393-5.039c0-5.456-4.423-9.879-9.879-9.879s-9.879,4.423-9.879,9.879c0,1.848,0.517,3.569,1.398,5.049
		l-1.494,5.674c0,0.671,0.479,1.476,1.067,1.797l0.095,0.051c0.589,0.322,1.065,0.899,1.065,1.292c0,0.392-0.249,0.891-0.557,1.114
		c-0.308,0.223-0.557,0.949-0.557,1.619v1.114c0,0.671,0.363,1.351,0.81,1.52c0.448,0.167,0.811,0.666,0.811,1.113
		c0,0.448,0.227,0.923,0.507,1.064c0.28,0.14,0.349,0.773,0.156,1.417l-3.047,10.128c-0.193,0.643-0.171,1.677,0.05,2.31
		l0.012,0.036c0.221,0.634-0.138,1.26-0.76,1.511c-0.986,0.394-2.243,1.139-2.243,2.37c0,1.115,0,2.354,0,3.241
		c0,0.672,0.23,1.729,0.752,2.15c1.199,0.974,4.273,2.376,12.067,2.507l-0.508-0.031c7.794-0.13,10.868-1.533,12.067-2.506
		c0.522-0.423,0.752-1.479,0.752-2.15c0-0.888,0-2.127,0-3.242C43.565,51.042,42.309,50.298,41.322,49.902z"/>
</g>
</svg>
