<?xml version="1.0" encoding="iso-8859-1"?>
<!-- Generator: Adobe Illustrator 17.1.0, SVG Export Plug-In . SVG Version: 6.00 Build 0)  -->
<!DOCTYPE svg PUBLIC "-//W3C//DTD SVG 1.1//EN" "http://www.w3.org/Graphics/SVG/1.1/DTD/svg11.dtd">
<svg version="1.1" id="Capa_1" xmlns="http://www.w3.org/2000/svg" xmlns:xlink="http://www.w3.org/1999/xlink" x="0px" y="0px"
	 viewBox="0 0 64 64" style="enable-background:new 0 0 64 64;" xml:space="preserve">
<g>
	<path d="M17.806,57.855h25.548c6.341,0,11.5-5.159,11.5-11.5V20.807c0-6.341-5.159-11.5-11.5-11.5H17.806
		c-6.341,0-11.5,5.159-11.5,11.5v25.548C6.306,52.696,11.464,57.855,17.806,57.855z M41.966,44.967V33.581h9.887v11.386H41.966z
		 M41.966,33.581H30.58V22.194h11.387V33.581z M30.58,22.194H19.193v-9.887H30.58V22.194z M19.193,22.194v11.386H9.306V22.194
		H19.193z M19.193,33.581H30.58v11.386H19.193V33.581z M30.58,44.968h11.387v9.887H30.58V44.968z M51.854,20.807v1.387h-9.887
		v-9.887h1.387C48.041,12.307,51.854,16.12,51.854,20.807z M9.306,44.968h9.887v9.887h-1.387c-4.687,0-8.5-3.813-8.5-8.5V44.968z"/>
</g>
</svg>
