<?xml version="1.0" encoding="iso-8859-1"?>
<!-- Generator: Adobe Illustrator 17.1.0, SVG Export Plug-In . SVG Version: 6.00 Build 0)  -->
<!DOCTYPE svg PUBLIC "-//W3C//DTD SVG 1.1//EN" "http://www.w3.org/Graphics/SVG/1.1/DTD/svg11.dtd">
<svg version="1.1" id="Capa_1" xmlns="http://www.w3.org/2000/svg" xmlns:xlink="http://www.w3.org/1999/xlink" x="0px" y="0px"
	 viewBox="0 0 64 64" style="enable-background:new 0 0 64 64;" xml:space="preserve">
<g>
	<path style="fill:#1D1D1B;" d="M12.43,58.69c1.138,0.18,2.218-0.399,2.737-1.354l4.521-9.682c0.097-0.222,0.182-0.458,0.211-0.718
		c0.012-0.115,0.025-0.249,0.025-0.363l-0.031-7.354l6.943,3.032l1.125,7.186c0.223,1.05,1.082,1.891,2.204,2.065
		c1.462,0.212,2.823-0.792,3.047-2.241c0.036-0.248,0.036-0.496,0.011-0.731l-1.37-8.677c-0.165-0.834-0.72-1.559-1.501-1.922
		l-6.205-2.762l3.954-6.883l1.956,2.49c0.2,0.223,0.46,0.417,0.756,0.531l7.468,2.187c0.998,0.212,2.015-0.306,2.398-1.261
		c0.436-1.09-0.084-2.315-1.152-2.757l-0.11-0.03l-6.489-1.914l-3.608-4.333c-0.707-0.849-2.089-1.922-3.086-2.396l-1.635-0.779
		c-0.37-0.176-0.78-0.234-1.18-0.191c-1.019-0.059-5.974-0.127-8.139,3.952c-2.419,4.556-0.864,10.025-0.864,10.025
		c-0.003,0.067-0.016,0.132-0.016,0.2l0.194,11.897l-4.109,8.852c-0.146,0.261-0.248,0.568-0.296,0.889
		C9.965,57.113,10.968,58.464,12.43,58.69z"/>
	<path style="fill:#1D1D1B;" d="M40.492,46.994l-2.236,1.279c-1.058,0.319-2.021,1.375-2.15,2.357
		c-0.13,0.982-1.105,1.991-2.179,2.253l-8.967,2.183c-1.073,0.262-1.915,0.968-1.879,1.577c0.035,0.609,0.959,1.104,2.063,1.104
		h29.341c1.113,0,2.01-0.896,2.01-2.008l-0.037-40.25c-0.001-1.104-0.874-2.203-1.949-2.455l-0.4-0.093
		c-1.075-0.251-2.142,0.419-2.381,1.497l-1.6,7.202c-0.239,1.078-1.259,2.3-2.277,2.729l-0.433,0.182
		c-1.019,0.429-2.146,1.619-2.517,2.66l-2.315,6.477c-0.371,1.041-0.31,2.702,0.138,3.712l-0.147,4.18
		c0.447,1.01,0.591,2.502,0.321,3.332C42.627,45.742,41.55,46.675,40.492,46.994z"/>
	<path style="fill:#1D1D1B;" d="M27.615,19.642c2.205,0,4-1.795,4-4.008c0-2.204-1.795-3.998-4-3.998c-2.206,0-4,1.794-4,3.998
		C23.615,17.847,25.409,19.642,27.615,19.642z"/>
</g>
</svg>
