<?xml version="1.0" encoding="iso-8859-1"?>
<!-- Generator: Adobe Illustrator 17.1.0, SVG Export Plug-In . SVG Version: 6.00 Build 0)  -->
<!DOCTYPE svg PUBLIC "-//W3C//DTD SVG 1.1//EN" "http://www.w3.org/Graphics/SVG/1.1/DTD/svg11.dtd">
<svg version="1.1" id="Capa_1" xmlns="http://www.w3.org/2000/svg" xmlns:xlink="http://www.w3.org/1999/xlink" x="0px" y="0px"
	 viewBox="0 0 64 64" style="enable-background:new 0 0 64 64;" xml:space="preserve">
<g>
	<path style="fill:#1D1D1B;" d="M25.247,13.79c2.457,0,4.442-1.998,4.442-4.454c0-2.457-1.985-4.441-4.442-4.441
		c-2.455,0-4.454,1.984-4.454,4.441C20.793,11.792,22.792,13.79,25.247,13.79z"/>
	<path style="fill:#1D1D1B;" d="M57.767,43.427c-0.607-1.139-1.587-1.136-2.188,0.006l-0.744,1.414
		c-0.602,1.142-2.135,2.068-3.425,2.068h-1.753c-1.291,0-3.1,0.716-4.041,1.598l-3.393,3.183c-0.941,0.882-2.688,1.244-3.902,0.805
		l-1.761-0.635c-0.782-0.283-1.882-0.399-2.896-0.345l6.556-31.432v-0.081c0-0.552-0.452-1.017-1.017-1.017
		c-0.511,0-0.901,0.397-1.01,0.895l-1.468,7.046c-0.079-0.03-0.158-0.06-0.241-0.081l-6.271-1.575l-1.779-6.866
		c-0.324-1.25-1.633-2.262-2.923-2.262h-4.187c-0.187,0-0.372,0.027-0.556,0.067l0.024-0.067c0,0-5.895,0.806-7.161,5.807
		c-1.265,5.001,1.46,10.183,1.46,10.183l0.001-0.004L9.999,53.05c-0.039,0.216-0.053,0.425-0.053,0.633
		c0,0.255,0.039,0.499,0.095,0.737l-0.837-0.307c-1.211-0.444-2.678,0.122-3.277,1.265L5.174,56.82
		c-0.599,1.144-0.037,2.07,1.253,2.07h50.824c1.29,0,2.542-1.026,2.795-2.291l0.836-4.181c0.253-1.265-0.034-3.214-0.642-4.353
		L57.767,43.427z M24.959,52.54l-2.01-0.7c-1.219-0.424-3.015-0.104-4.013,0.715l-2.51,2.062c-0.148,0.122-0.319,0.228-0.498,0.326
		c0.052-0.119,0.103-0.239,0.14-0.365l5.377-16.41l4.607,14.623C25.654,52.734,25.279,52.651,24.959,52.54z M25.625,28.285
		l0.591-2.591l0.464,2.04c0.418,1.325,1.628,1.46,1.628,1.46l7.242,1.836c0.108,0.02,0.211,0.025,0.316,0.03l-3.995,19.179
		L25.625,28.285z"/>
</g>
</svg>
