<?xml version="1.0" encoding="iso-8859-1"?>
<!-- Generator: Adobe Illustrator 17.1.0, SVG Export Plug-In . SVG Version: 6.00 Build 0)  -->
<!DOCTYPE svg PUBLIC "-//W3C//DTD SVG 1.1//EN" "http://www.w3.org/Graphics/SVG/1.1/DTD/svg11.dtd">
<svg version="1.1" id="Capa_1" xmlns="http://www.w3.org/2000/svg" xmlns:xlink="http://www.w3.org/1999/xlink" x="0px" y="0px"
	 viewBox="0 0 64 64" style="enable-background:new 0 0 64 64;" xml:space="preserve">
<g>
	<path style="fill:#1D1D1B;" d="M18.125,17.383c3.087-2.452,1.932-7.656-1.922-8.621c-3.413-0.858-6.578,2.032-6.049,5.522
		C10.717,17.998,15.169,19.728,18.125,17.383z"/>
	<path style="fill:#1D1D1B;" d="M21.316,20.275c-0.604-1.193-2.093-1.743-3.328-1.228l-4.713,1.968
		c-0.85,0.356-1.36,1.131-1.419,1.975l-0.017-0.032c0,0-1.975,5.653,0,9.387c1.373,2.596,4.398,3.906,6.116,4.464l0.684,1.465
		c0.022,0.046,0.052,0.084,0.075,0.128l0.046,0.098l0.009-0.004c0.466,0.811,1.26,1.337,2.146,1.477
		c-0.555,3.12-0.335,7.676,4.011,11.4c0.114,0.098,0.254,0.146,0.394,0.146c0.17,0,0.34-0.071,0.459-0.211
		c0.218-0.254,0.189-0.636-0.066-0.854c-4.081-3.499-4.164-7.734-3.592-10.536c0.067-0.017,0.134-0.024,0.201-0.045l11.917-3.885
		l13.48,8.538c0.341,0.215,0.708,0.348,1.082,0.416l3.092,8.657c0.451,1.26,1.542,2.97,2.438,3.819
		c0.897,0.849,1.625,0.453,1.627-0.884l0.035-41.354c0-1.49-1.197-2.686-2.685-2.686h-27.61c-0.328-0.471-0.872-0.78-1.489-0.78
		h-1.514c-0.594,0-1.151,0.291-1.491,0.779c-0.339,0.487-0.42,1.11-0.213,1.668l3.132,8.468l-1.53,0.175L21.316,20.275z
		 M37.369,19.062c1.3,0.317,2.495,1.64,2.669,2.955c0.174,1.314,1.354,2.694,2.635,3.081l6.157,1.859
		c1.281,0.387,2.613,1.602,2.974,2.714c0.36,1.112,0.216,3.005-0.327,4.228l-2.019,4.559L36.276,30.11
		c-0.766-0.483-1.7-0.602-2.56-0.321l-5.312,1.732c2.118-2.163,5.917-6.893,6.14-13.147L37.369,19.062z M26.839,25.975
		c0.555-0.064,1.049-0.378,1.341-0.854c0.292-0.476,0.35-1.059,0.156-1.582L25.621,16.2l7.718,1.88
		c-0.126,6.716-4.727,11.626-6.444,13.227l-2.551-5.047L26.839,25.975z"/>
</g>
</svg>
