<?xml version="1.0" encoding="iso-8859-1"?>
<!-- Generator: Adobe Illustrator 17.1.0, SVG Export Plug-In . SVG Version: 6.00 Build 0)  -->
<!DOCTYPE svg PUBLIC "-//W3C//DTD SVG 1.1//EN" "http://www.w3.org/Graphics/SVG/1.1/DTD/svg11.dtd">
<svg version="1.1" id="Capa_1" xmlns="http://www.w3.org/2000/svg" xmlns:xlink="http://www.w3.org/1999/xlink" x="0px" y="0px"
	 viewBox="0 0 64 64" style="enable-background:new 0 0 64 64;" xml:space="preserve">
<g>
	<circle cx="22.551" cy="11.547" r="4.849"/>
	<path d="M13.893,60.492h36.283c1.377,0,2.485-1.107,2.485-2.483L52.615,8.236c-0.001-1.366-1.081-2.725-2.41-3.036L49.71,5.085
		c-1.33-0.31-2.649,0.518-2.944,1.852l-1.978,8.906c-0.108,0.488-0.348,0.999-0.668,1.478c-0.088-0.111-0.2-0.204-0.346-0.246
		l-3.378-0.979l0.239-0.8c0.11-0.374-0.103-0.77-0.478-0.881c-0.371-0.11-0.771,0.102-0.884,0.477l-1.45,4.874
		c-0.16-0.029-0.318-0.068-0.491-0.053l-8.675,0.741l-3.852-2.351l0.003-0.024l-0.064-0.011l-0.002-0.004l-0.005,0.002l-6.349-1.132
		c-0.775-0.139-1.503,0.378-1.627,1.151L13.81,33.925l0.062-0.002c-0.107,0.448-0.107,0.92,0.042,1.365l3.223,9.616l-0.438,10.889
		c-0.009,0.218,0.02,0.427,0.065,0.63l-3.097,0.754c-1.327,0.324-2.368,1.197-2.324,1.95C11.385,59.881,12.527,60.492,13.893,60.492
		z M39.989,17.456l3.213,0.931c-0.387,0.356-0.808,0.651-1.231,0.83l-0.534,0.225c-0.768,0.323-1.584,0.999-2.21,1.767
		c-0.032-0.203-0.09-0.396-0.185-0.571L39.989,17.456z M24.13,21.898l3.414,1.966c0.22,0.105,0.453,0.162,0.693,0.172
		c0.073,0.004,0.148,0.003,0.222-0.006l8.3-0.708l-0.154,0.517c-0.111,0.376,0.102,0.771,0.479,0.883
		c0.057,0.019,0.114,0.026,0.173,0.029c0.138,0.005,0.268-0.036,0.383-0.103l-0.828,2.316l-1.379-0.762l0.398-1.333
		c0.111-0.376-0.1-0.772-0.477-0.883c-0.372-0.113-0.771,0.103-0.883,0.476l-0.847,2.836l-8.14-2.899l-1.508-1.66L24.13,21.898z
		 M21.99,43.759l-2.31-6.904l5.879-0.221l-2.353,6.206c-0.235,0.62-0.216,1.296,0.057,1.9c0.272,0.604,0.765,1.067,1.386,1.301
		c0.25,0.095,0.512,0.149,0.777,0.159c1.071,0.044,2.046-0.599,2.424-1.6l3.675-9.706c0.297-0.781,0.185-1.651-0.302-2.33
		c-0.487-0.673-1.215-1.069-2.111-1.032l-6.748,0.253l0.826-4.642c0.19,0.2,0.425,0.357,0.689,0.451l8.732,3.108l-0.809,2.709
		c-0.113,0.375,0.1,0.771,0.475,0.881c0.061,0.018,0.117,0.027,0.176,0.03c0.315,0.012,0.612-0.19,0.707-0.507l0.854-2.856
		c0.636-0.097,1.182-0.513,1.407-1.139c0.157-0.446,0.133-0.928-0.069-1.356c-0.105-0.219-0.248-0.408-0.428-0.563l0.092-0.307
		l1.31,0.726l-0.865,2.42c-0.459,1.287-0.383,3.341,0.17,4.59l-0.182,5.168c0.553,1.249,0.73,3.094,0.396,4.12
		c-0.334,1.028-1.666,2.181-2.974,2.576l-2.766,1.582c-1.308,0.395-2.499,1.7-2.659,2.915c-0.161,1.215-1.367,2.462-2.694,2.786
		l-3.061,0.745l0.425-10.576C22.13,44.346,22.089,44.046,21.99,43.759z"/>
</g>
</svg>
