<?xml version="1.0" encoding="iso-8859-1"?>
<!-- Generator: Adobe Illustrator 17.1.0, SVG Export Plug-In . SVG Version: 6.00 Build 0)  -->
<!DOCTYPE svg PUBLIC "-//W3C//DTD SVG 1.1//EN" "http://www.w3.org/Graphics/SVG/1.1/DTD/svg11.dtd">
<svg version="1.1" id="Capa_1" xmlns="http://www.w3.org/2000/svg" xmlns:xlink="http://www.w3.org/1999/xlink" x="0px" y="0px"
	 viewBox="0 0 64 64" style="enable-background:new 0 0 64 64;" xml:space="preserve">
<g>
	<path d="M28.353,19.24c-0.306,0.478-0.767,0.746-1.029,0.599c-0.263-0.146-0.706,0.133-0.989,0.623L9.636,49.316
		c-0.284,0.49-0.818,1.233-1.192,1.659l-1.771,2.013c-0.374,0.426-0.549,1.217-0.281,1.715c1.286,2.387,4.065,3.137,5.57,3.371
		c0.56,0.088,1.176-0.326,1.367-0.861l0.797-2.223c0.19-0.534,0.592-1.354,0.896-1.834l18.249-28.822
		c0.304-0.479,0.148-1.091-0.346-1.368l-0.092-0.051c-0.495-0.276-0.645-0.885-0.335-1.36l2.309-3.536
		c0.31-0.475,1.018-0.811,1.582-0.753l0.708,0.074c0.563,0.06,1.381,0.393,1.826,0.744l5.957,4.717
		c0.444,0.353,1.137,0.321,1.547-0.07l0.509-0.484c0.411-0.391,0.54-1.12,0.275-1.621C41.577,9.99,33.269,6.452,30.438,5.519
		c-0.538-0.178-1.203,0.118-1.471,0.618l-1.561,2.909c-0.268,0.499-0.027,0.97,0.506,1.163c0.617,0.225,1.38,0.629,1.86,1.334
		c0.43,0.631,0.92,1.158,1.317,1.538c0.409,0.392,0.528,1.057,0.222,1.535L28.353,19.24z"/>
	<path d="M46.954,42.791c2.449-0.751,7.977-5.925,8.882-8.85c0.369-1.196-0.005-1.884-0.385-2.252
		c-0.546-0.529-1.104-0.791-1.663-0.789c-0.075-0.509-0.304-0.859-0.539-1.088c-0.407-0.395-0.821-0.638-1.236-0.738
		c-0.099-0.414-0.307-0.709-0.516-0.913c-0.608-0.59-1.233-0.852-1.856-0.778c-1.141,0.136-1.883,1.292-2.738,2.633
		c-0.397,0.623-0.809,1.268-1.275,1.831c-1.466,1.776-3.386,3.375-4.044,3.904c-0.119-0.048-0.237-0.099-0.359-0.141
		c-1.029-0.358-1.838-0.323-2.405,0.104c-0.364,0.273-0.531,0.634-0.608,0.934c-0.334,0.039-0.628,0.145-0.872,0.33
		c-0.363,0.273-0.531,0.634-0.608,0.935c-0.334,0.037-0.627,0.143-0.872,0.328c-0.363,0.272-0.529,0.635-0.608,0.935
		c-0.333,0.037-0.626,0.145-0.872,0.329c-0.362,0.273-0.53,0.634-0.607,0.935c-0.334,0.038-0.627,0.143-0.873,0.329
		c-0.375,0.282-0.54,0.657-0.614,0.963c-0.256,0.054-0.486,0.15-0.684,0.302c-0.702,0.527-0.678,1.391-0.672,1.487
		c0.012,0.227,0.13,0.417,0.301,0.537c-0.736,0.552-1.583,1.139-2.452,1.635c-0.635,0.364-1.339,0.66-2.019,0.946
		c-1.468,0.616-2.735,1.148-3.061,2.252c-0.177,0.602-0.025,1.262,0.453,1.961c0.161,0.234,0.418,0.481,0.811,0.636
		c0.022,0.435,0.192,0.894,0.518,1.371c0.184,0.269,0.49,0.555,0.986,0.699c-0.104,0.555,0.059,1.154,0.492,1.789
		c0.298,0.437,0.914,0.922,2.154,0.76c0.263-0.034,0.548-0.101,0.852-0.193c2.146-0.658,5.162-2.676,7.231-4.562
		c-0.017,0.307,0.163,0.602,0.467,0.711c0.185,0.066,0.455,0.092,0.731,0.007c0.135-0.041,0.272-0.108,0.4-0.21
		c0.28-0.221,0.469-0.554,0.576-1.004c0.104-0.003,0.212-0.017,0.322-0.05c0.135-0.042,0.272-0.108,0.4-0.21
		c0.281-0.222,0.47-0.558,0.577-1.012c0.152,0.019,0.325,0.014,0.503-0.041c0.135-0.042,0.272-0.109,0.4-0.211
		c0.281-0.222,0.472-0.557,0.578-1.011c0.152,0.019,0.325,0.014,0.503-0.041c0.135-0.042,0.271-0.11,0.399-0.211
		c0.282-0.223,0.472-0.558,0.579-1.012c0.151,0.019,0.325,0.013,0.502-0.041c0.136-0.042,0.272-0.109,0.4-0.211
		c0.282-0.222,0.471-0.558,0.578-1.011c0.153,0.019,0.326,0.012,0.504-0.043c0.134-0.041,0.271-0.108,0.399-0.21
		c0.554-0.435,0.758-1.297,0.648-2.681c0.002,0,0.003,0.001,0.005,0.001C46.755,42.846,46.852,42.822,46.954,42.791z M46.729,32.756
		c0.523-0.632,0.977-1.344,1.377-1.971c0.577-0.904,1.234-1.929,1.702-1.985c0.219-0.026,0.499,0.195,0.695,0.385
		c0.039,0.039,0.067,0.086,0.089,0.136c-0.724,0.449-1.3,1.345-1.938,2.345c-0.397,0.622-0.808,1.267-1.274,1.831
		c-1.303,1.578-2.866,2.938-3.627,3.567c-0.253-0.215-0.518-0.411-0.796-0.594C43.864,35.714,45.44,34.317,46.729,32.756z
		 M25.456,50.147c-0.051-0.025-0.096-0.057-0.126-0.101c-0.155-0.227-0.326-0.54-0.263-0.752c0.133-0.454,1.255-0.925,2.244-1.341
		c0.687-0.288,1.465-0.615,2.177-1.023c2.032-1.164,3.907-2.738,4.662-3.4c0.299,0.143,0.602,0.318,0.901,0.522
		c-0.067,0.031-0.131,0.069-0.188,0.121c-0.022,0.021-2.319,2.128-4.756,3.525c-0.635,0.363-1.339,0.658-2.019,0.944
		C26.999,49.102,26.022,49.514,25.456,50.147z M26.66,52.053c-0.093-0.136-0.186-0.304-0.237-0.461
		c0.231-0.039,0.475-0.093,0.735-0.173c2.9-0.889,7.389-4.261,8.981-6.438c0.178,0.187,0.351,0.385,0.512,0.598
		c-0.005,0.014-0.013,0.025-0.018,0.038c-0.287,0.814-1.95,2.419-3.877,3.844c-0.381,0.254-0.773,0.501-1.169,0.728
		c-0.635,0.363-1.339,0.658-2.019,0.945c-0.82,0.345-1.57,0.666-2.135,1.072C27.146,52.24,26.788,52.241,26.66,52.053z
		 M28.927,54.69c-0.288,0.038-0.658,0.043-0.79-0.149c-0.154-0.226-0.325-0.54-0.263-0.751c0.024-0.082,0.089-0.164,0.169-0.246
		c0.144-0.032,0.291-0.072,0.443-0.118c1.396-0.429,3.16-1.433,4.793-2.602c2.162-1.397,3.943-3.034,4.028-3.112
		c0.163-0.15,0.237-0.357,0.226-0.562c0.166,0.413,0.296,0.855,0.383,1.333C36.747,50.326,31.519,54.355,28.927,54.69z
		 M37.936,50.677c-0.013,0-0.026,0.004-0.04,0.005c0.022-0.021,0.042-0.042,0.062-0.064C37.95,50.64,37.943,50.661,37.936,50.677z
		 M39.225,47.785c-0.626-2.599-2.455-4.758-4.896-5.73c-0.028-0.015-0.057-0.025-0.086-0.035c-0.079-0.03-0.155-0.063-0.236-0.091
		c-0.059-0.022-0.117-0.037-0.175-0.055c0.161-0.053,0.489-0.042,1.003,0.138c1.833,0.637,4.1,2.516,4.456,5.71
		c0.005,0.049,0.008,0.09,0.012,0.136C39.279,47.832,39.253,47.807,39.225,47.785z M40.75,48.039
		c-0.01-0.153-0.022-0.31-0.041-0.477c-0.353-3.172-2.475-5.88-5.405-6.898c-0.021-0.007-0.043-0.013-0.065-0.021
		c0.116-0.085,0.467-0.106,1.076,0.105c1.833,0.637,4.099,2.515,4.455,5.708C40.872,47.362,40.81,47.818,40.75,48.039z
		 M42.231,46.778c-0.011-0.154-0.023-0.31-0.042-0.477c-0.353-3.173-2.474-5.881-5.405-6.901c-0.021-0.007-0.042-0.011-0.065-0.019
		c0.118-0.085,0.469-0.106,1.077,0.105c1.833,0.637,4.1,2.514,4.455,5.708C42.352,46.102,42.29,46.56,42.231,46.778z M43.711,45.511
		c-0.01-0.151-0.023-0.308-0.041-0.474c-0.353-3.172-2.475-5.881-5.405-6.9c-0.022-0.007-0.042-0.013-0.065-0.018
		c0.117-0.085,0.468-0.107,1.077,0.103c1.832,0.638,4.099,2.516,4.454,5.711C43.832,44.835,43.771,45.292,43.711,45.511z
		 M45.19,44.251c-0.01-0.153-0.022-0.311-0.041-0.478c-0.353-3.173-2.474-5.881-5.404-6.899c-0.022-0.009-0.043-0.014-0.065-0.021
		c0.118-0.085,0.469-0.106,1.077,0.105c1.833,0.638,4.099,2.516,4.455,5.71C45.312,43.575,45.251,44.032,45.19,44.251z
		 M45.842,39.031c-0.112,0.061-0.216,0.11-0.315,0.152c-0.182-0.309-0.382-0.604-0.599-0.885c2.425-1.265,6.168-5.054,6.98-7.678
		c0.006-0.019,0.008-0.035,0.014-0.055c0.121,0.076,0.238,0.178,0.335,0.269c0.156,0.15,0.157,0.429,0.108,0.701
		c-0.533,0.491-1.001,1.215-1.507,2.008c-0.397,0.622-0.809,1.266-1.275,1.83C48.298,36.931,46.669,38.347,45.842,39.031z
		 M46.44,41.45c-0.071-0.292-0.159-0.578-0.26-0.858c0.039-0.029,0.245-0.19,0.561-0.45c2.427-1.433,6.009-5.175,6.87-7.762
		c0.052-0.024,0.103-0.046,0.151-0.052c0.22-0.025,0.499,0.196,0.697,0.387c0.167,0.161,0.1,0.526,0.014,0.804
		C53.644,36.19,48.138,41.139,46.44,41.45z"/>
</g>
</svg>
