<?xml version="1.0" encoding="iso-8859-1"?>
<!-- Generator: Adobe Illustrator 17.1.0, SVG Export Plug-In . SVG Version: 6.00 Build 0)  -->
<!DOCTYPE svg PUBLIC "-//W3C//DTD SVG 1.1//EN" "http://www.w3.org/Graphics/SVG/1.1/DTD/svg11.dtd">
<svg version="1.1" id="Capa_1" xmlns="http://www.w3.org/2000/svg" xmlns:xlink="http://www.w3.org/1999/xlink" x="0px" y="0px"
	 viewBox="0 0 64 64" style="enable-background:new 0 0 64 64;" xml:space="preserve">
<g>
	<path d="M53.752,21.28c0-6.927-5.635-12.562-12.562-12.562c-6.926,0-12.561,5.635-12.561,12.562
		c0,6.926,5.635,12.561,12.561,12.561C48.117,33.841,53.752,28.206,53.752,21.28z M50.011,14.753
		c0.252,0.339,0.482,0.695,0.694,1.062c-0.14,0.451-0.358,1.114-0.671,1.926l-0.986-0.38c0.514-1.332,0.768-2.253,0.814-2.424
		L50.011,14.753z M47.427,12.253c0.303,0.21,0.594,0.435,0.873,0.673c-0.126,0.429-0.37,1.202-0.752,2.195l-0.986-0.38
		c0.514-1.332,0.768-2.252,0.812-2.423L47.427,12.253z M31.793,26.946c1.563-0.363,5.824-1.654,8.992-5.422
		c3.205-3.81,4.841-8.357,5.369-10.03c0.323,0.165,0.637,0.344,0.94,0.539c-0.607,1.893-2.267,6.327-5.5,10.171
		c-3.167,3.767-7.243,5.19-9.165,5.679C32.201,27.582,31.988,27.27,31.793,26.946z M46.469,17.619
		c-0.398,0.83-0.83,1.64-1.279,2.404l-0.91-0.536c0.435-0.739,0.852-1.522,1.237-2.326L46.469,17.619z M43.696,22.307
		c-0.345,0.476-0.708,0.94-1.076,1.378c-0.219,0.259-0.44,0.507-0.667,0.745l-0.764-0.729c0.21-0.222,0.419-0.454,0.621-0.695
		c0.354-0.42,0.699-0.864,1.031-1.32L43.696,22.307z M39.891,26.266c-0.724,0.544-1.507,1.043-2.325,1.482l-0.5-0.931
		c0.773-0.414,1.509-0.883,2.19-1.395L39.891,26.266z M32.863,28.419c0.439-0.102,1.072-0.272,1.827-0.545l0.359,0.993
		c-0.507,0.183-0.962,0.322-1.347,0.429C33.407,29.019,33.127,28.727,32.863,28.419z M34.045,29.602
		c1.264-0.262,5.887-1.462,9.268-5.483c3.879-4.611,5.457-10.288,5.56-10.67c0.295,0.289,0.573,0.594,0.834,0.915
		c-0.533,1.721-2.198,6.408-5.585,10.435c-3.065,3.646-6.992,5.1-8.983,5.633C34.756,30.178,34.392,29.9,34.045,29.602z
		 M48.955,20.24c-0.398,0.831-0.828,1.64-1.279,2.405l-0.91-0.536c0.436-0.739,0.852-1.521,1.237-2.326L48.955,20.24z
		 M46.183,24.928c-0.345,0.477-0.707,0.94-1.075,1.378c-0.219,0.259-0.441,0.507-0.667,0.745l-0.766-0.728
		c0.212-0.222,0.419-0.454,0.624-0.697c0.352-0.419,0.698-0.862,1.029-1.318L46.183,24.928z M42.376,28.887
		c-0.723,0.545-1.506,1.044-2.325,1.482l-0.498-0.931c0.772-0.413,1.509-0.882,2.189-1.395L42.376,28.887z M35.907,30.898
		c0.362-0.099,0.79-0.23,1.27-0.403l0.359,0.994c-0.071,0.026-0.132,0.044-0.201,0.067C36.841,31.37,36.364,31.15,35.907,30.898z
		 M39.371,32.103c-0.671-0.112-1.323-0.284-1.947-0.512c1.169-0.285,5.834-1.645,9.102-5.859c2.512-3.236,3.938-6.915,4.622-9.065
		c0.235,0.504,0.432,1.03,0.589,1.572c-0.809,2.24-2.191,5.324-4.376,8.14C44.78,29.706,41.468,31.344,39.371,32.103z"/>
	<path d="M25.717,46.279l1.685,1.01l3.565,5.775c0.733-0.709,1.952-2.075,2.667-3.883l-2.565-4.156l-0.265-1.965
		c0.831-0.99,0.987-2.429,0.272-3.588L14.661,12.886c-0.892-1.447-2.79-1.896-4.236-1.002l-3.668,2.264
		c-1.446,0.893-1.894,2.79-1.002,4.237L22.17,44.971C22.927,46.197,24.403,46.695,25.717,46.279z"/>
	<path d="M32.383,55.357l0.651,1.056c0.643-0.588,1.938-1.918,2.75-3.749l-0.15-0.244C34.497,53.89,33.157,54.867,32.383,55.357z"/>
	<path d="M31.629,54.136l0.104,0.17c0.754-0.483,2.135-1.503,3.2-3.021l-0.515-0.833C33.543,52.223,32.319,53.503,31.629,54.136z"/>
	<path d="M35.38,60.212c0.535,0.867,1.673,1.137,2.541,0.601l0.523-0.323c0.869-0.536,1.138-1.674,0.603-2.542l-2.498-4.045
		c-0.972,1.819-2.276,3.073-2.856,3.576L35.38,60.212z"/>
</g>
</svg>
