<?xml version="1.0" encoding="iso-8859-1"?>
<!-- Generator: Adobe Illustrator 17.1.0, SVG Export Plug-In . SVG Version: 6.00 Build 0)  -->
<!DOCTYPE svg PUBLIC "-//W3C//DTD SVG 1.1//EN" "http://www.w3.org/Graphics/SVG/1.1/DTD/svg11.dtd">
<svg version="1.1" id="Capa_1" xmlns="http://www.w3.org/2000/svg" xmlns:xlink="http://www.w3.org/1999/xlink" x="0px" y="0px"
	 viewBox="0 0 64 64" style="enable-background:new 0 0 64 64;" xml:space="preserve">
<g>
	<circle cx="23.299" cy="17.169" r="4.459"/>
	<path d="M41.55,20.119c0.433,0.165,1.229,0.404,2.108,0.353l1.219-1.851l0.756-0.485c0.566,0.152,1.189-0.06,1.528-0.575
		L54.952,5.72c0.424-0.643,0.246-1.511-0.398-1.935L52.919,2.71c-0.644-0.423-1.51-0.245-1.934,0.4l-7.791,11.84
		c-0.36,0.547-0.281,1.249,0.141,1.71l-0.093,0.886L41.55,20.119z"/>
	<path d="M40.878,21.14l-0.149,0.226c-0.304,0.033-0.604,0.127-0.878,0.305l-4.227,2.759l-5.664-1.77
		c-0.193-0.061-0.394-0.091-0.597-0.091h-1.503v-0.006h-6.125c-1.657,0-3,1.343-3,3V38.15h0.011
		c-0.039,0.172-0.069,0.348-0.077,0.53l-0.447,10.335l-8.169,5.732c-1.356,0.952-1.684,2.823-0.732,4.18
		c0.583,0.832,1.513,1.276,2.458,1.276c0.595,0,1.197-0.177,1.721-0.544l9.379-6.581c0.763-0.536,1.234-1.396,1.274-2.326
		l0.365-8.429l6.247,5.35v9.53c0,1.657,1.343,3,3,3c1.657,0,3-1.343,3-3V46.292c0-0.876-0.383-1.709-1.049-2.278l-7.855-6.727
		v-5.054l2.817-0.129c0.357-0.017,0.703-0.128,1.002-0.323l4.551-2.971l1.743,0.545c0.199,0.062,0.399,0.092,0.597,0.092
		c0.852,0,1.641-0.549,1.909-1.404c0.2-0.64,0.058-1.302-0.316-1.799l1.874-1.224c0.925-0.604,1.185-1.843,0.582-2.768
		c-0.058-0.089-0.127-0.166-0.195-0.242c0.072,0.002,0.139,0.013,0.213,0.012l0.072-0.108c-0.201-0.045-0.391-0.102-0.57-0.164
		c-0.25-0.187-0.536-0.313-0.837-0.368C41.137,21.295,40.988,21.21,40.878,21.14z M29.951,28.134l-2.089,0.095v-1.659h1.198
		l2.224,0.695L29.951,28.134z"/>
	<path d="M41.187,20.671c0.342,0.219,1.026,0.591,1.855,0.738l0.243-0.371c-0.895-0.021-1.656-0.279-2.048-0.442L41.187,20.671z"/>
</g>
</svg>
