<?xml version="1.0" encoding="iso-8859-1"?>
<!-- Generator: Adobe Illustrator 17.1.0, SVG Export Plug-In . SVG Version: 6.00 Build 0)  -->
<!DOCTYPE svg PUBLIC "-//W3C//DTD SVG 1.1//EN" "http://www.w3.org/Graphics/SVG/1.1/DTD/svg11.dtd">
<svg version="1.1" id="Capa_1" xmlns="http://www.w3.org/2000/svg" xmlns:xlink="http://www.w3.org/1999/xlink" x="0px" y="0px"
	 viewBox="0 0 64 64" style="enable-background:new 0 0 64 64;" xml:space="preserve">
<g>
	<path d="M39.744,31.103l-1.164-0.697l-2.46-3.985c-0.506,0.49-1.348,1.432-1.841,2.68l1.771,2.868l0.183,1.356
		c-0.573,0.683-0.682,1.677-0.188,2.476L47.373,54.15c0.616,0.998,1.927,1.308,2.924,0.692l2.531-1.563
		c0.999-0.616,1.308-1.925,0.691-2.924L42.191,32.006C41.669,31.16,40.65,30.816,39.744,31.103z"/>
	<path d="M32.796,26.697l0.104,0.168c0.784-1.014,1.709-1.688,2.243-2.027l-0.449-0.728C34.25,24.516,33.355,25.433,32.796,26.697z"
		/>
	<path d="M33.737,28.223c0.604-1.222,1.449-2.105,1.926-2.542l-0.072-0.118c-0.52,0.333-1.473,1.037-2.209,2.084L33.737,28.223z"/>
	<path d="M14,54.119c0.828,0,1.5-0.671,1.5-1.5V13.955c0.333-0.228,1.104-0.586,2.667-0.586c1.54,0,2.275,0.345,2.583,0.56v38.69
		c0,0.829,0.672,1.5,1.5,1.5c0.828,0,1.5-0.671,1.5-1.5V13.955c0.333-0.228,1.104-0.586,2.667-0.586c1.54,0,2.275,0.345,2.583,0.56
		v38.69c0,0.829,0.672,1.5,1.5,1.5c0.828,0,1.5-0.671,1.5-1.5v-27.21l0.268,0.433c0.671-1.256,1.571-2.121,1.972-2.468l-1.165-1.886
		c-0.238-0.386-0.651-0.578-1.074-0.582v-7.537c0-0.21-0.044-0.417-0.129-0.609c-0.178-0.399-1.273-2.391-5.454-2.391
		c-2.003,0-3.308,0.455-4.148,0.969c-0.825-0.517-2.111-0.969-4.102-0.969c-4.135,0-5.315,1.94-5.509,2.329
		c-0.104,0.208-0.158,0.438-0.158,0.671v39.25C12.5,53.447,13.172,54.119,14,54.119z"/>
</g>
</svg>
