<?xml version="1.0" encoding="iso-8859-1"?>
<!-- Generator: Adobe Illustrator 17.1.0, SVG Export Plug-In . SVG Version: 6.00 Build 0)  -->
<!DOCTYPE svg PUBLIC "-//W3C//DTD SVG 1.1//EN" "http://www.w3.org/Graphics/SVG/1.1/DTD/svg11.dtd">
<svg version="1.1" id="Capa_1" xmlns="http://www.w3.org/2000/svg" xmlns:xlink="http://www.w3.org/1999/xlink" x="0px" y="0px"
	 viewBox="0 0 64 64" style="enable-background:new 0 0 64 64;" xml:space="preserve">
<path d="M26.724,26.299c6.113-8.455,3.956-16.572,2.272-20.441c0.572,8.107-2.688,17.482-2.688,17.482L26.724,26.299z"/>
<path d="M34.609,31.65l-1.17-0.643c2.018-17.777-1.387-24.779-3.497-27.33c-0.461-0.557-0.853-0.574-1.028-0.219
	c1.402,2.434,6.602,13.021-1.796,24.002c-0.057,0.074-0.13,0.121-0.21,0.154l0.477,3.393c0,0-0.512,0.361-1.144,0.807
	c-0.632,0.447-1.143,1.703-1.143,2.809v13.85c0,0.553,0.11,1.434,0.247,1.969l0.964,3.775h0.131l-0.701,2.074
	c-0.354,1.045,0.077,2.457,1.16,2.676c0.83,0.168,2.036,0.295,3.783,0.295c1.53,0,2.755-0.152,3.663-0.33
	c1.084-0.211,1.61-1.385,1.228-2.422l-0.845-2.293h0.107l0.767-4.273c0.098-0.543,0.177-1.432,0.177-1.984V34.293
	C35.779,33.188,35.256,32.004,34.609,31.65z"/>
</svg>
