<?xml version="1.0" encoding="iso-8859-1"?>
<!-- Generator: Adobe Illustrator 17.1.0, SVG Export Plug-In . SVG Version: 6.00 Build 0)  -->
<!DOCTYPE svg PUBLIC "-//W3C//DTD SVG 1.1//EN" "http://www.w3.org/Graphics/SVG/1.1/DTD/svg11.dtd">
<svg version="1.1" id="Capa_1" xmlns="http://www.w3.org/2000/svg" xmlns:xlink="http://www.w3.org/1999/xlink" x="0px" y="0px"
	 viewBox="0 0 64 64" style="enable-background:new 0 0 64 64;" xml:space="preserve">
<g>
	<circle cx="51.665" cy="30.184" r="4.824"/>
	<path d="M35.385,14.507c-1.271-1.808-3.641-2.784-5.293-2.182c-1.652,0.604-1.996,2.58-0.766,4.415l6.86,10.24
		c0.076,0.11,0.108,0.191,0.136,0.202c-0.042,0.019-0.125,0.047-0.258,0.059l-7.802,0.688c-1.495,0.131-2.959,1.14-3.406,2.346
		c-0.421,1.14-0.141,2.896,0.653,4.086l4.18,6.27c0.382,0.572,0.369,1.606-0.027,2.17L22.25,53.222H7.497c-1.657,0-3,0.957-3,2.139
		c0,1.182,1.343,2.139,3,2.139h24.595c1.657,0,3-0.957,3-2.139c0-1.182-1.343-2.139-3-2.139H29.64l6.922-8.434
		c0.946-1.154,1.198-3.052,0.586-4.414l-2.115-4.691c-0.095-0.211-0.075-0.323-0.067-0.336c0.01-0.013,0.103-0.077,0.334-0.077
		h3.448c1.356,0,3.145-0.677,4.16-1.574l1.544-1.362c1.225-1.082,1.426-2.961,0.458-4.277L35.385,14.507z"/>
</g>
</svg>
