<?xml version="1.0" encoding="iso-8859-1"?>
<!-- Generator: Adobe Illustrator 17.1.0, SVG Export Plug-In . SVG Version: 6.00 Build 0)  -->
<!DOCTYPE svg PUBLIC "-//W3C//DTD SVG 1.1//EN" "http://www.w3.org/Graphics/SVG/1.1/DTD/svg11.dtd">
<svg version="1.1" id="Capa_1" xmlns="http://www.w3.org/2000/svg" xmlns:xlink="http://www.w3.org/1999/xlink" x="0px" y="0px"
	 viewBox="0 0 64 64" style="enable-background:new 0 0 64 64;" xml:space="preserve">
<path d="M52.304,12.981c-0.438-0.336-1.05-0.926-1.375-1.373c-0.634-0.869-1.842-2.096-3.625-2.121
	c-2.766-0.041-6.761,2.459-7.068,7.889c-0.308,5.43-3.79,13.42-6.352,15.162c-2.562,1.74-6.966,7.785-13.42,9.834
	C14.01,44.42,5.917,45.752,6.019,47.902c0.082,1.729,6.439,1.408,8.941,1.215c0.551-0.043,0.576,0.066,0.06,0.264
	c-2.756,1.049-10.658,4.207-10.743,5.898C4.175,57.328,14.112,52,21.693,51.592c7.581-0.41,11.729-0.871,13.881,2.816
	c0,0,0.423,0.682,1.197,1.457c-0.197,0.078-0.327,0.122-0.331,0.124c-0.071,0.023-0.128,0.078-0.154,0.148
	c-0.027,0.07-0.02,0.149,0.017,0.214l0.951,1.643c-0.457,0.075-0.94,0.177-1.339,0.349c-0.508,0.219-0.453,0.555-0.085,0.469
	c0.368-0.084,0.666,0.008,0.666,0.205c0,0.199,0.399,0.154,0.908-0.061c0.605-0.256,1.345-0.512,1.653-0.4
	c0.2,0.072,0.354,0.197,0.471,0.328c0.213,0.236-0.151,0.447-0.702,0.488c-0.464,0.035-1.01,0.129-1.457,0.355
	c-0.492,0.252-0.282,0.576,0.262,0.482c0.879-0.148,2.104-0.305,2.604-0.117c0.819,0.307,3.022,0.973,4.713,0.512
	c1.17-0.318,2.365-0.662,3.262-0.844c0.541-0.109,1.387-0.588,0.947-0.736c-0.17-0.057-0.434-0.098-0.829-0.109
	c-1.352-0.039-2.442,0.447-3.446,0.402c-0.552-0.025-0.669-0.602-0.207-0.904c0.333-0.219,0.776-0.439,1.33-0.566
	c0.539-0.123,0.688-0.477,0.155-0.623c-0.43-0.119-1.052-0.156-1.93,0.053c-1.537,0.364-2.83,0.354-3.728-0.124l0.52-0.278
	c0.066-0.036,0.113-0.1,0.127-0.174c0.015-0.073-0.005-0.15-0.054-0.208l-1.655-1.971c-0.045-0.053-0.109-0.085-0.178-0.089
	c-0.051,0-0.093,0.025-0.136,0.051c-0.087-1.687,0.577-4.043,3.31-6.223c4.047-3.227,7.632-5.072,8.759-9.682
	c1.127-4.609-1.998-17.262-1.998-17.262s-0.515-2.025-0.266-3.891c0.073-0.547,0.458-1.365,0.897-1.699
	c0.565-0.432,1.513-0.865,2.947-0.699c0.549,0.064,0.908-0.258,0.648-0.744C53.212,13.885,52.865,13.41,52.304,12.981z
	 M40.515,56.579l-2.674,1.431l-0.956-1.65c0.501-0.193,1.552-0.648,2.339-1.316L40.515,56.579z"/>
<path d="M37.898,56.627c0.021-0.045,0.08-0.125,0.152-0.17c0.089-0.055,0.157-0.043,0.19,0.01c0.047,0.076-0.023,0.158-0.094,0.203
	l-0.083,0.051l0.094,0.15l0.086-0.053c0.092-0.057,0.205-0.072,0.261,0.017c0.041,0.066,0.018,0.152-0.09,0.221
	c-0.086,0.053-0.192,0.072-0.242,0.074l0.056,0.185c0.072-0.002,0.189-0.033,0.305-0.105c0.227-0.141,0.294-0.344,0.195-0.5
	c-0.073-0.119-0.211-0.145-0.33-0.098l-0.002-0.004c0.088-0.106,0.094-0.215,0.035-0.311c-0.077-0.121-0.246-0.156-0.435-0.037
	c-0.117,0.072-0.203,0.172-0.235,0.24L37.898,56.627z"/>
<path d="M38.827,55.977c0.104-0.064,0.183-0.033,0.229,0.039c0.063,0.106,0.031,0.266-0.056,0.565l-0.05,0.174l0.079,0.127
	l0.634-0.396l-0.107-0.172l-0.339,0.213l-0.002-0.004l0.04-0.119c0.059-0.197,0.091-0.385-0.003-0.537
	c-0.101-0.16-0.285-0.211-0.488-0.082c-0.12,0.074-0.201,0.182-0.234,0.273l0.151,0.111C38.707,56.105,38.751,56.023,38.827,55.977z
	"/>
</svg>
