<?xml version="1.0" encoding="iso-8859-1"?>
<!-- Generator: Adobe Illustrator 17.1.0, SVG Export Plug-In . SVG Version: 6.00 Build 0)  -->
<!DOCTYPE svg PUBLIC "-//W3C//DTD SVG 1.1//EN" "http://www.w3.org/Graphics/SVG/1.1/DTD/svg11.dtd">
<svg version="1.1" id="Capa_1" xmlns="http://www.w3.org/2000/svg" xmlns:xlink="http://www.w3.org/1999/xlink" x="0px" y="0px"
	 viewBox="0 0 64 64" style="enable-background:new 0 0 64 64;" xml:space="preserve">
<g>
	<path style="fill:#1D1D1B;" d="M57.443,28.486c-0.497,0-0.9,0.508-0.9,1.133c0,1.734,0,5.03,0,6.763
		c0,0.625,0.403,1.132,0.901,1.132c0.497,0,0.898-0.507,0.898-1.132c0-1.732,0-5.028,0-6.764
		C58.342,28.994,57.94,28.486,57.443,28.486z"/>
	<path style="fill:#1D1D1B;" d="M6.951,28.486c-0.497,0-0.901,0.508-0.901,1.133c0,1.736,0,5.027,0.001,6.761
		c0,0.625,0.403,1.132,0.9,1.134c0.497,0,0.899-0.507,0.899-1.132c0-1.733,0-5.028,0.001-6.764
		C7.851,28.994,7.448,28.486,6.951,28.486z"/>
	<path style="fill:#1D1D1B;" d="M18.031,18.233c-1.658,0-3.003,1.521-3.003,3.396c0,5.684,0.001,17.06,0.002,22.742
		c0,1.875,1.343,3.396,3.001,3.396c1.658,0,3.003-1.522,3.003-3.396c0-2.229,0-5.338,0-8.632c1.731,0,17.225,0,21.843,0
		c0,3.295,0,6.403,0,8.633c0,1.874,1.345,3.395,3.003,3.395c1.658,0,3.001-1.522,3.001-3.396c0-5.684,0-17.06,0-22.742
		c0-1.876-1.343-3.396-3.001-3.396s-3.003,1.519-3.003,3.396c0,2.229,0,5.337,0,8.632c-4.62,0-20.112,0-21.843,0
		c0-3.295,0-6.403,0-8.633C21.034,19.752,19.69,18.233,18.031,18.233z"/>
	<path style="fill:#1D1D1B;" d="M52.858,22.769c-0.098,0-0.195,0-0.294,0c-1.249,0-2.263,1.011-2.263,2.262
		c0,3.937,0,12.001,0,15.938c0,1.25,1.014,2.264,2.264,2.264c0.098,0,0.197,0,0.294,0c1.25,0,2.264-1.011,2.264-2.262
		c0-3.936,0-12.001-0.001-15.938C55.123,23.782,54.108,22.769,52.858,22.769z"/>
	<path style="fill:#1D1D1B;" d="M11.5,22.769c-0.098,0-0.197,0-0.295,0c-1.25,0-2.263,1.011-2.263,2.262c0,3.937,0,12.001,0,15.938
		c0,1.251,1.013,2.264,2.263,2.264c0.098,0,0.197,0,0.294,0c1.25,0,2.263-1.011,2.263-2.262c0-3.936,0-12.001,0-15.938
		C13.763,23.782,12.75,22.769,11.5,22.769z"/>
</g>
</svg>
