<?xml version="1.0" encoding="iso-8859-1"?>
<!-- Generator: Adobe Illustrator 17.1.0, SVG Export Plug-In . SVG Version: 6.00 Build 0)  -->
<!DOCTYPE svg PUBLIC "-//W3C//DTD SVG 1.1//EN" "http://www.w3.org/Graphics/SVG/1.1/DTD/svg11.dtd">
<svg version="1.1" id="Capa_1" xmlns="http://www.w3.org/2000/svg" xmlns:xlink="http://www.w3.org/1999/xlink" x="0px" y="0px"
	 viewBox="0 0 64 64" style="enable-background:new 0 0 64 64;" xml:space="preserve">
<path d="M35.917,16.714c1.977,1.615,4.89,1.322,6.504-0.654c0.528-0.645,0.831-1.393,0.96-2.16l0.473,0.215
	c0.504,0.229,1.088-0.009,1.114-0.561c0.018-0.388-0.028-0.865-0.232-1.378c-0.364-0.918,0.753-4.322-2.766-5.922
	c-2.517-1.144-5.736,1.758-6.747,2.873c-0.309,0.342-0.239,0.773,0.078,1.043c-0.012,0.014-0.027,0.024-0.039,0.039
	C33.647,12.186,33.94,15.099,35.917,16.714z"/>
<path d="M31.875,17.938l-6.777,10.693c-0.665-0.048-1.314-0.08-1.924-0.08c-4.069,0-6.265,1.042-7.443,2.05
	c-0.966-0.351-4.086-1.314-6.63-0.187c-1.36,0.603-2.33,1.702-2.882,3.265l-0.314,0.891c-1.856,5.245-2.787,7.878-2.2,10.276
	c0.035,0.141,0.129,0.26,0.259,0.326c0.071,0.037,0.149,0.055,0.227,0.055c0.064,0,0.128-0.012,0.189-0.037
	c0.061-0.025,6.134-2.581,6.144-8.885c0.002-0.779,0.21-1.291,0.638-1.563c0.888-0.566,2.593-0.076,3.458,0.269v1.683
	c0,0.534-0.047,1.404-0.105,1.94l-0.234,2.142c-0.05,0.457-0.333,1.185-0.607,1.557L5.35,53.634
	c-0.586,0.796-0.438,1.382-0.297,1.661c0.141,0.279,0.525,0.747,1.513,0.747H8.12c1.256,0,2.856-0.766,3.644-1.743l8.695-10.782
	c0.225-0.279,0.743-0.488,1.146-0.423c0.292,0.046,0.668,0.099,1.101,0.153l-0.919,1.041c-1.096,1.243-1.042,3.064,0.124,4.069
	c1.164,1.006,2.986,0.803,4.066-0.451l3.679-4.269c1.18-0.004,2.384-0.039,3.584-0.11c4.97-0.292,7.685-1.077,9.088-1.683
	c0.325-0.14,0.784-0.073,0.986,0.149l6.454,7.094c0.209,0.231,0.229,0.65,0.041,0.899l-2.771,3.659
	c-0.598,0.789-0.456,1.374-0.317,1.651c0.138,0.278,0.518,0.745,1.508,0.745h1.678c1.249,0,2.871-0.735,3.695-1.674l3.442-3.925
	c0.526-0.601,0.541-1.555,0.034-2.172L48.736,38.13c-0.252-0.307,0.05-0.743,0.113-0.827c0.308-0.411,0.468-0.864,0.479-1.347
	c0.008-0.377-0.105-0.811-0.213-1.231c-0.073-0.279-0.147-0.568-0.164-0.769c-0.086-1.051-0.014-2.115,0.073-2.877
	c0.785,0.6,1.851,0.643,2.711,0.677c0.369,0.015,0.717,0.029,0.986,0.082c0.357,0.07,1.179,0.589,1.621,0.868l0.146,0.092
	c1.061,0.663,2.312,0.7,2.92,0.051c0.563-0.601,0.556-1.657-0.021-2.825c-0.152-0.306-0.317-0.643-0.462-0.945
	c-0.219-0.455-0.414-1.256-0.469-1.738c-0.114-0.999-0.312-1.924-0.587-2.75c-0.146-0.438-0.251-1.201-0.167-1.667l0.284-1.55
	c0.115-0.625,0.003-1.179-0.313-1.559c-0.421-0.505-1.161-0.641-1.955-0.35l-1.573,0.578c-0.389,0.143-1.172,0.223-1.708,0.172
	c-0.286-0.026-0.587-0.042-0.9-0.042c-2.467,0-4.698,0.987-6.451,2.854c-1.724,1.837-3.273,3.349-5.23,4.394l-0.521-0.552
	l1.519-4.93c0.059-0.192,0.078-0.384,0.08-0.575l0.08-0.125c0.148-0.532-0.137-1.152-0.636-1.383l-0.284-0.132
	c-0.169-0.12-0.354-0.222-0.562-0.286c-0.033-0.01-0.066-0.011-0.099-0.02l-4.112-1.906C32.816,17.282,32.17,17.472,31.875,17.938z"
	/>
</svg>
