<?xml version="1.0" encoding="iso-8859-1"?>
<!-- Generator: Adobe Illustrator 17.1.0, SVG Export Plug-In . SVG Version: 6.00 Build 0)  -->
<!DOCTYPE svg PUBLIC "-//W3C//DTD SVG 1.1//EN" "http://www.w3.org/Graphics/SVG/1.1/DTD/svg11.dtd">
<svg version="1.1" id="Capa_1" xmlns="http://www.w3.org/2000/svg" xmlns:xlink="http://www.w3.org/1999/xlink" x="0px" y="0px"
	 viewBox="0 0 64 64" style="enable-background:new 0 0 64 64;" xml:space="preserve">
<g>
	<path d="M31.99,7.4c1.766,0,3.197-1.431,3.197-3.195c0-1.754-1.431-3.185-3.197-3.185c-1.753,0-3.179,1.431-3.179,3.185
		C28.812,5.969,30.237,7.4,31.99,7.4z"/>
	<path d="M14.183,21.883H26.26v11.345c0,0.786,0.637,1.423,1.424,1.423v26.684c0,1,0.802,1.796,1.787,1.796
		c1,0,1.796-0.796,1.796-1.796V46.417h1.453l0.011,14.919c0,1,0.807,1.796,1.798,1.796c0.989,0,1.786-0.796,1.786-1.796V34.652
		c0.786,0,1.424-0.637,1.424-1.423V21.883h12.039c1.048,0,1.898-0.85,1.898-1.898c0-1.048-0.85-1.898-1.898-1.898h-5.893
		c-0.024-0.232-0.1-0.462-0.243-0.667l-5.967-8.542c-0.372-0.533-1.043-0.728-1.63-0.524H28.7c-0.307-0.106-0.636-0.105-0.935,0
		h-0.081v0.032c-0.239,0.101-0.455,0.265-0.614,0.493l-5.967,8.542c-0.143,0.205-0.218,0.435-0.243,0.667h-6.676
		c-1.048,0-1.898,0.85-1.898,1.898C12.285,21.034,13.135,21.883,14.183,21.883z M29.107,31.207v-2.543
		c0.511,1.08,1.597,1.832,2.863,1.832c1.305,0,2.422-0.784,2.919-1.903v2.614H29.107z M34.89,26.016
		c-0.497-1.116-1.615-1.899-2.919-1.899c-1.266,0-2.353,0.752-2.863,1.828v-4.061h5.783V26.016z M36.314,11.902l4.32,6.185h-4.32
		V11.902z M27.684,12.97v5.117h-3.575L27.684,12.97z"/>
</g>
</svg>
