<?xml version="1.0" encoding="iso-8859-1"?>
<!-- Generator: Adobe Illustrator 17.1.0, SVG Export Plug-In . SVG Version: 6.00 Build 0)  -->
<!DOCTYPE svg PUBLIC "-//W3C//DTD SVG 1.1//EN" "http://www.w3.org/Graphics/SVG/1.1/DTD/svg11.dtd">
<svg version="1.1" id="Capa_1" xmlns="http://www.w3.org/2000/svg" xmlns:xlink="http://www.w3.org/1999/xlink" x="0px" y="0px"
	 viewBox="0 0 64 64" style="enable-background:new 0 0 64 64;" xml:space="preserve">
<g>
	<path d="M9.822,43.517c2.704,0,4.896-2.192,4.896-4.893c0-2.686-2.191-4.878-4.896-4.878c-2.686,0-4.869,2.191-4.869,4.878
		C4.953,41.325,7.137,43.517,9.822,43.517z"/>
	<path d="M13.901,44.424c-0.388,0.724-0.11,1.618,0.619,1.996l17.49,9.079l1.558,1.024c0.531,0.349,1.147,0.529,1.769,0.529
		c0.285,0,0.571-0.038,0.852-0.115l20.486-5.618c1.716-0.47,2.726-2.243,2.256-3.958c-0.472-1.716-2.244-2.725-3.959-2.255
		l-18.515,5.077l0.036-0.153l-5.419-3.169l2.088-4.176c0.367-0.734,0.064-1.62-0.674-1.977l-9.831-4.759
		c-0.994-0.481-2.393-0.171-2.763,0.869c-0.119,0.334-0.21,0.68-0.286,1.031l-0.715-10.603c-0.083-1.229-1.15-2.16-2.376-2.075
		c-1.229,0.083-2.158,1.146-2.075,2.375l0.95,14.088L13.901,44.424z"/>
	<path d="M44.445,43.75c0.553,0,1-0.448,1-1V27.5c0-0.552-0.447-1-1-1c-0.553,0-1,0.448-1,1v15.25
		C43.445,43.302,43.893,43.75,44.445,43.75z"/>
	<path d="M40.935,37.5c0.553,0,1-0.448,1-1V21.25c0-0.552-0.447-1-1-1c-0.553,0-1,0.448-1,1V36.5
		C39.935,37.052,40.383,37.5,40.935,37.5z"/>
	<path d="M23.355,30.725c0.553,0,1-0.448,1-1v-15.25c0-0.552-0.447-1-1-1c-0.553,0-1,0.448-1,1v15.25
		C22.355,30.277,22.803,30.725,23.355,30.725z"/>
	<path d="M26.865,24.475c0.553,0,1-0.448,1-1V8.225c0-0.552-0.447-1-1-1c-0.553,0-1,0.448-1,1v15.25
		C25.865,24.027,26.312,24.475,26.865,24.475z"/>
</g>
</svg>
