<?xml version="1.0" encoding="iso-8859-1"?>
<!-- Generator: Adobe Illustrator 17.1.0, SVG Export Plug-In . SVG Version: 6.00 Build 0)  -->
<!DOCTYPE svg PUBLIC "-//W3C//DTD SVG 1.1//EN" "http://www.w3.org/Graphics/SVG/1.1/DTD/svg11.dtd">
<svg version="1.1" id="Capa_1" xmlns="http://www.w3.org/2000/svg" xmlns:xlink="http://www.w3.org/1999/xlink" x="0px" y="0px"
	 viewBox="0 0 64 64" style="enable-background:new 0 0 64 64;" xml:space="preserve">
<g>
	<circle cx="23.503" cy="15.229" r="5.991"/>
	<path d="M59.317,38.622c-0.257-1.928-3.453-2.177-7.138-0.56l-0.337,0.148l-5.756-7.675l-0.202-2.102
		c-0.085-0.878-0.685-1.621-1.525-1.889l-10.153-3.231L33.202,21.4c-0.494-0.839-1.621-1.221-2.522-0.851l-8.96,4.144l-14.564-1.23
		c-1.225-0.095-2.279,0.798-2.382,2.01c-0.102,1.213,0.798,2.279,2.01,2.382l14.973,1.267l3.795,9.654l-3.64,0.633
		c-1.116,0.194-2.037,0.984-2.396,2.059c-0.36,1.075-0.102,2.26,0.67,3.088l5.013,5.364l-1.996,0.877
		c-3.685,1.619-5.823,4.171-4.774,5.697c1.047,1.525,4.89,1.465,8.579-0.141l26.096-11.338
		C56.793,43.412,59.575,40.549,59.317,38.622z M28.59,44.511l6.369-1.108c0.856-0.148,1.609-0.651,2.075-1.385l4.564-7.181
		l0.545,0.727l0.483,5.011c0.053,0.552,0.308,1.034,0.682,1.387l-12.122,5.327L28.59,44.511z"/>
</g>
</svg>
