<?xml version="1.0" encoding="iso-8859-1"?>
<!-- Generator: Adobe Illustrator 17.1.0, SVG Export Plug-In . SVG Version: 6.00 Build 0)  -->
<!DOCTYPE svg PUBLIC "-//W3C//DTD SVG 1.1//EN" "http://www.w3.org/Graphics/SVG/1.1/DTD/svg11.dtd">
<svg version="1.1" id="Capa_1" xmlns="http://www.w3.org/2000/svg" xmlns:xlink="http://www.w3.org/1999/xlink" x="0px" y="0px"
	 viewBox="0 0 64 64" style="enable-background:new 0 0 64 64;" xml:space="preserve">
<g>
	<path d="M23.889,54.548c0.306,0.46,0.403,0.414,0.23-0.11l-4.29-12.988c-0.173-0.524-0.472-0.53-0.668-0.015
		c-0.743,1.964-1.177,3.109-1.43,3.778c-0.195,0.517-0.077,1.286,0.266,1.72c0.96,1.214,2.864,3.618,4.461,5.634
		C22.987,53.232,23.457,53.898,23.889,54.548z"/>
	<path d="M45.016,45.213c-0.254-0.669-0.688-1.815-1.432-3.777c-0.195-0.517-0.494-0.511-0.668,0.014l-4.291,12.99
		c-0.172,0.524-0.076,0.57,0.231,0.11c0.432-0.651,0.904-1.316,1.432-1.983c1.598-2.016,3.502-4.42,4.463-5.634
		C45.092,46.499,45.211,45.729,45.016,45.213z"/>
	<path d="M43.051,10.648c-1.029-2.121-0.947-4.49-0.791-5.789c0.068-0.549-0.266-1.103-0.799-1.246l-0.385-0.104
		c-0.533-0.144-1.103,0.167-1.328,0.672c-0.85,1.914-3.301,6.111-8.465,6.111c-5.154,0-7.5-4.187-8.305-6.104
		c-0.214-0.509-0.774-0.822-1.308-0.679l-0.387,0.104c-0.534,0.143-0.867,0.697-0.8,1.246c0.159,1.299,0.242,3.668-0.789,5.789
		c-1.516,3.121-3.21,4.726-2.318,11.769c0.79,6.238,3.677,9.891,2.775,14.733c-0.101,0.543-0.088,1.397,0.084,1.922l5.608,16.98
		c0.173,0.524,0.55,1.329,0.867,1.781c1.227,1.754,2.52,2.917,4.662,2.917c2.141,0,3.432-1.162,4.661-2.913
		c0.316-0.452,0.695-1.258,0.867-1.782l5.609-16.983c0.174-0.524,0.185-1.379,0.086-1.922c-0.902-4.843,1.984-8.495,2.773-14.733
		C46.26,15.374,44.566,13.769,43.051,10.648z"/>
</g>
</svg>
