<?xml version="1.0" encoding="iso-8859-1"?>
<!-- Generator: Adobe Illustrator 17.1.0, SVG Export Plug-In . SVG Version: 6.00 Build 0)  -->
<!DOCTYPE svg PUBLIC "-//W3C//DTD SVG 1.1//EN" "http://www.w3.org/Graphics/SVG/1.1/DTD/svg11.dtd">
<svg version="1.1" id="Capa_1" xmlns="http://www.w3.org/2000/svg" xmlns:xlink="http://www.w3.org/1999/xlink" x="0px" y="0px"
	 viewBox="0 0 64 64" style="enable-background:new 0 0 64 64;" xml:space="preserve">
<g>
	<path d="M56.46,21.554c-1.079-0.26-2.153,0.411-2.406,1.486L53.4,25.808L34,20.739V18c0-1.104-0.896-2-2-2s-2,0.896-2,2v2.734
		l-19.576,5.06l-0.74-2.805c-0.281-1.067-1.372-1.704-2.444-1.423c-1.067,0.281-1.705,1.376-1.423,2.444L10.5,41.759v6.996
		c0,1.104,0.896,2,2,2H52c1.104,0,2-0.896,2-2V41.5c0-0.177-0.03-0.348-0.074-0.513l4.02-17.027
		C58.2,22.885,57.534,21.808,56.46,21.554z M12.313,32.953L30,28.786v6.65l-16.06,3.682L12.313,32.953z M50.271,39.058L34,35.374
		V28.92l17.449,5.151L50.271,39.058z M52.94,27.755l-1.031,4.367L34,26.835v-4.029L52.94,27.755z M30,22.8v3.931l-18.197,4.287
		l-0.868-3.29L30,22.8z"/>
</g>
</svg>
