<?xml version="1.0" encoding="iso-8859-1"?>
<!-- Generator: Adobe Illustrator 17.1.0, SVG Export Plug-In . SVG Version: 6.00 Build 0)  -->
<!DOCTYPE svg PUBLIC "-//W3C//DTD SVG 1.1//EN" "http://www.w3.org/Graphics/SVG/1.1/DTD/svg11.dtd">
<svg version="1.1" id="Capa_1" xmlns="http://www.w3.org/2000/svg" xmlns:xlink="http://www.w3.org/1999/xlink" x="0px" y="0px"
	 viewBox="0 0 64 64" style="enable-background:new 0 0 64 64;" xml:space="preserve">
<g>
	<path d="M52.215,17.844C45.847,2.746,33.206,3.998,33.206,3.998h-0.701c0,0-12.641-1.252-19.009,13.846
		c-5.372,12.733,2.958,32.223,5.696,38.011c0.441,0.933,1.594,2.002,2.57,2.337c2.253,0.773,6.399,1.935,10.744,1.829h0.701
		c4.344,0.105,8.49-1.056,10.742-1.829c0.976-0.335,2.129-1.404,2.569-2.337C49.258,50.066,57.587,30.577,52.215,17.844z
		 M49.626,34.572c-1.214,2.688-4.553,3.443-6.19,3.654c-0.512,0.066-0.729,0.449-0.562,0.938c0.199,0.588,0.393,1.437,0.332,2.412
		c-0.059,0.928-0.289,1.683-0.506,2.207c-0.198,0.477-0.089,1.08,0.229,1.487c0.601,0.768,1.345,2.24,0.978,4.593
		c-0.585,3.735-3.384,5.72-10.68,5.72h-0.742c-7.297,0-10.097-1.984-10.681-5.72c-0.367-2.353,0.376-3.825,0.977-4.593
		c0.318-0.407,0.427-1.011,0.229-1.487c-0.217-0.524-0.448-1.279-0.506-2.207c-0.062-0.976,0.133-1.824,0.331-2.412
		c0.166-0.488-0.05-0.871-0.562-0.938c-1.638-0.211-4.976-0.967-6.189-3.654c-1.241-2.748-0.261-6.709,0.283-8.454
		c0.154-0.492,0.298-1.303,0.317-1.818c0.165-4.546,1.522-6.618,2.397-7.489c0.366-0.363,0.633-0.157,0.582,0.357
		c-0.136,1.366-0.017,3.986,2.375,5.967c2.258,1.868,4.256,1.659,5.337,1.313c0.491-0.157,0.826,0.04,0.9,0.55
		c0.488,3.372,4.21,3.272,4.21,3.272h0.742c0,0,3.721,0.1,4.209-3.272c0.073-0.51,0.409-0.707,0.9-0.55
		c1.081,0.346,3.079,0.555,5.338-1.313c2.392-1.981,2.511-4.601,2.375-5.967c-0.052-0.514,0.218-0.72,0.582-0.356
		c0.874,0.871,2.231,2.944,2.396,7.489c0.018,0.515,0.164,1.325,0.316,1.817C49.886,27.863,50.867,31.824,49.626,34.572z"/>
	<path d="M29.154,32.264c0.213-0.305,0.406-0.659,0.536-1.061c0.317-0.981-0.652-2.255-1.63-2.585
		c-1.048-0.353-2.606-0.746-4.753-0.979c-1.026-0.11-2.752-0.027-3.523,0.657c-0.513,0.455-0.953,1.157-0.985,2.229
		c-0.068,2.339,2.659,3.157,7.162,3.101C26.991,33.614,28.563,33.109,29.154,32.264z"/>
	<path d="M42.051,27.64c-2.147,0.232-3.705,0.626-4.753,0.979c-0.978,0.33-1.947,1.604-1.63,2.585
		c0.129,0.401,0.322,0.756,0.535,1.061c0.591,0.846,2.163,1.351,3.193,1.363c4.503,0.057,7.231-0.762,7.162-3.101
		c-0.031-1.072-0.472-1.774-0.984-2.229C44.803,27.612,43.076,27.529,42.051,27.64z"/>
	<path d="M26.945,39.764c-0.439,0.934-0.449,2.621,0.465,3.101c0.903,0.476,2.514,0.893,5.384,0.893c2.915,0,4.556-0.43,5.481-0.914
		c0.913-0.479,0.94-2.146,0.506-3.081c-1.258-2.704-2.984-4.317-4.234-5.205c-0.842-0.598-2.398-0.606-3.248-0.022
		C30.013,35.418,28.227,37.036,26.945,39.764z"/>
	<path d="M37.68,47.646H28.03c-1.031,0-1.867,0.558-1.867,1.246c0,0.688,0.836,1.245,1.867,1.245h9.649
		c1.031,0,1.867-0.558,1.867-1.245C39.547,48.203,38.711,47.646,37.68,47.646z"/>
</g>
</svg>
