<?xml version="1.0" encoding="iso-8859-1"?>
<!-- Generator: Adobe Illustrator 17.1.0, SVG Export Plug-In . SVG Version: 6.00 Build 0)  -->
<!DOCTYPE svg PUBLIC "-//W3C//DTD SVG 1.1//EN" "http://www.w3.org/Graphics/SVG/1.1/DTD/svg11.dtd">
<svg version="1.1" id="Capa_1" xmlns="http://www.w3.org/2000/svg" xmlns:xlink="http://www.w3.org/1999/xlink" x="0px" y="0px"
	 viewBox="0 0 64 64" style="enable-background:new 0 0 64 64;" xml:space="preserve">
<g>
	<path d="M3.559,58.83c0.318,0,0.639-0.108,0.901-0.327l5.134-4.281c0.325-0.273,0.991-0.312,1.348-0.081l5.303,3.44
		c1.371,0.891,3.388,0.818,4.69-0.164l4.281-3.224c0.357-0.271,1.107-0.303,1.487-0.062l5.512,3.48
		c1.339,0.845,3.352,0.833,4.684-0.029L42.2,54.14c0.4-0.258,1.205-0.254,1.601,0.008l5.177,3.413
		c1.362,0.901,3.382,0.848,4.694-0.122l5.909-4.368c0.626-0.463,0.757-1.346,0.295-1.971c-0.462-0.627-1.345-0.759-1.971-0.295
		l-5.909,4.367c-0.354,0.262-1.095,0.284-1.465,0.038l-5.178-3.414c-1.332-0.88-3.349-0.89-4.687-0.02l-5.303,3.441
		c-0.407,0.262-1.235,0.268-1.646,0.01l-5.511-3.48c-1.375-0.866-3.39-0.783-4.689,0.194l-4.28,3.224
		c-0.353,0.268-1.089,0.293-1.461,0.051l-5.302-3.438c-1.394-0.907-3.411-0.786-4.688,0.28l-5.133,4.281
		c-0.598,0.498-0.678,1.386-0.181,1.984C2.755,58.657,3.155,58.83,3.559,58.83z"/>
	<path d="M31.148,15.294c1.716,0,3.098-1.381,3.098-3.092c0-1.704-1.382-3.098-3.098-3.098c-1.71,0-3.092,1.394-3.092,3.098
		C28.056,13.913,29.438,15.294,31.148,15.294z"/>
	<path d="M51.092,47.09V9.87c0-0.244-0.143-0.453-0.363-0.556c-0.221-0.084-0.465-0.033-0.641,0.136L38.803,20.743
		c-0.178-0.079-0.363-0.124-0.572-0.124h-3.283c-0.553,0-1.316-0.317-1.713-0.703c-1.459-1.427-4.39-4.231-4.597-4.287
		c-0.885-0.771-2.221-0.758-3.076,0.091l-6.066,6.065c-1.024,0.802-1.024,2.225-1.024,2.603l0.44,2.811h-1.539H14.75H9.167
		c-0.552,0-1,0.44-1,0.984c0,0.544,0.448,0.984,1,0.984h5.583h2.929h1.54l2.648,11.903c0.165,1.092,1.184,1.978,2.276,1.978
		c1.092,0,1.871-0.889,1.739-1.985l-2.307-11.896h1.461H30h1.15v14.892H9.975c-0.552,0-1,0.447-1,1v0.65c0,0.553,0.448,1,1,1H31.15
		h0.092h1.079c0.552,0,1-0.447,1-1V29.167h1.513c0.553,0,1-0.44,1-0.984c0-0.544-0.447-0.984-1-0.984H30h-5.167h-1.428
		c-0.003-0.073,5.97-6.197,5.97-6.197l2.881,2.206c0.277,0.289,0.662,0.441,1.076,0.441h4.898c0.838,0,1.512-0.674,1.512-1.512
		c0-0.197-0.041-0.391-0.109-0.566L49.92,11.285V47.09H51.092z"/>
</g>
</svg>
