<?xml version="1.0" encoding="iso-8859-1"?>
<!-- Generator: Adobe Illustrator 17.1.0, SVG Export Plug-In . SVG Version: 6.00 Build 0)  -->
<!DOCTYPE svg PUBLIC "-//W3C//DTD SVG 1.1//EN" "http://www.w3.org/Graphics/SVG/1.1/DTD/svg11.dtd">
<svg version="1.1" id="Capa_1" xmlns="http://www.w3.org/2000/svg" xmlns:xlink="http://www.w3.org/1999/xlink" x="0px" y="0px"
	 viewBox="0 0 64 64" style="enable-background:new 0 0 64 64;" xml:space="preserve">
<g>
	<path d="M18.398,29.191c-0.474,1.981-1.28,5.787-0.985,7.604c0.202,1.253,1.147,2.177,2.051,2.79
		c-0.066-0.491-0.125-0.987-0.173-1.495c-0.352-3.646,0.476-6.843,1.585-9.567l-0.906-0.249
		C19.276,28.083,18.565,28.492,18.398,29.191z"/>
	<path d="M44.567,26.133c-0.571-0.434-1.458-0.167-1.87,0.423l-0.395,0.564c1.289,2.907,2.342,6.398,1.954,10.44
		c-0.129,1.35-0.312,2.627-0.542,3.852l2.822,0.425c0.717-0.052,1.425-0.664,1.481-1.38c0.099-1.221,0.142-3.433-0.181-7.157
		C47.467,29.045,45.744,27.027,44.567,26.133z"/>
	<path d="M24.983,22.999c-0.133,0.285-0.277,0.579-0.435,0.887c4.218,0.011,7.35-0.559,9.55-1.233
		C30.683,23.013,26.725,23.018,24.983,22.999z"/>
	<path d="M23.828,14.775c-0.332,0.179-0.544,0.477-0.582,0.819c-0.04,0.353,0.111,0.707,0.411,0.969
		c0.759,0.661,2.03,2.079,2.03,4.154c0,0.32-0.085,0.693-0.223,1.104c3.578,0.021,9.931-0.152,12.514-1.1c0-0.001,0-0.004,0-0.005
		c0-2.075,1.273-3.493,2.031-4.154c0.3-0.262,0.45-0.616,0.412-0.969c-0.041-0.342-0.252-0.641-0.585-0.819
		c-0.647-0.347-3.22-1.194-5.234-0.948c-0.953,0.15-1.728,0.453-2.294,0.733l-0.035-4.046c1.67-0.269,2.948-1.628,2.948-3.269
		c0-1.835-1.593-3.327-3.549-3.327c-1.957,0-3.549,1.492-3.549,3.327c0,1.647,1.287,3.009,2.967,3.271l0.034,3.952
		c-0.404-0.251-0.988-0.503-2.121-0.638C26.843,13.783,24.459,14.436,23.828,14.775z M29.308,7.245c0-1.183,1.061-2.144,2.366-2.144
		c1.305,0,2.366,0.962,2.366,2.144c0,1.182-1.061,2.144-2.366,2.144h0h0C30.368,9.389,29.308,8.427,29.308,7.245z"/>
	<path d="M20.323,38.515c0.828,8.632,3.977,14.788,10.206,19.962c0.385,0.317,0.892,0.493,1.43,0.493
		c0.54,0,1.047-0.176,1.432-0.495c6.123-5.103,9.101-11.072,9.954-19.96c0.536-5.58-1.868-10.144-3.626-13.476
		c-0.571-1.084-1.093-2.076-1.414-2.918c-1.771,1.096-5.907,2.953-13.669,2.953c-0.227,0-0.468-0.006-0.701-0.01
		C22.18,28.394,19.786,32.948,20.323,38.515z M34.656,52.577c-0.719,0-1.301-0.584-1.301-1.301c0-0.719,0.582-1.302,1.301-1.302
		c0.72,0,1.302,0.583,1.302,1.302C35.958,51.993,35.376,52.577,34.656,52.577z M38.517,41.026c0.298,0.201,0.378,0.604,0.179,0.902
		c-0.197,0.3-0.602,0.381-0.902,0.181c-4.143-2.764-10.607,1.372-10.673,1.415c-0.108,0.07-0.231,0.106-0.353,0.106
		c-0.214,0-0.422-0.106-0.546-0.297c-0.195-0.302-0.111-0.705,0.189-0.9C26.705,42.241,33.661,37.792,38.517,41.026z M25.085,27.727
		c0.494-1.439,4.064-2.206,6.451-2.206c1.521,0,3.616,0.26,4.959,1.497c0.765,0.706,0.703,2.092,0.21,2.975
		c-0.633,1.126-1.471,2.773-1.867,4.229c-0.243,0.896-0.982,1.472-1.884,1.472c-0.108,0-0.224-0.008-0.338-0.026
		c-0.755-0.121-1.513-0.127-2.212-0.019c-1.071,0.17-2.025-0.447-2.278-1.422c-0.655-2.522-1.594-4.402-2.571-5.161
		C24.893,28.555,25.007,27.96,25.085,27.727z"/>
</g>
</svg>
