<?xml version="1.0" encoding="iso-8859-1"?>
<!-- Generator: Adobe Illustrator 17.1.0, SVG Export Plug-In . SVG Version: 6.00 Build 0)  -->
<!DOCTYPE svg PUBLIC "-//W3C//DTD SVG 1.1//EN" "http://www.w3.org/Graphics/SVG/1.1/DTD/svg11.dtd">
<svg version="1.1" id="Capa_1" xmlns="http://www.w3.org/2000/svg" xmlns:xlink="http://www.w3.org/1999/xlink" x="0px" y="0px"
	 viewBox="0 0 64 64" style="enable-background:new 0 0 64 64;" xml:space="preserve">
<path d="M49.399,36.703c-1.294,0.686-2.741,1.592-2.741,1.592c-1.494,0.795-2.779,1.949-4.02,3.086
	c-1.124,1.031-2.313,2.146-3.263,3.346c-0.167,0.211-0.748,0.617-0.757,0.982c-0.055,0.002-0.111-0.006-0.164,0
	c-0.205,0.018-0.605,0.084-0.618-0.227c-0.053-1.428-0.147-2.854-0.295-4.273c-0.164-1.572-0.408-3.123-0.725-4.67
	c-0.423-2.064-1.809-3.668-3.157-5.203c-0.68-0.775-0.783-0.621-0.702-0.24c0.142,0.658,0.272,1.656-0.227,1.432
	c-0.499-0.225-1.449-1.193-2.404-1.725c-0.955-0.531-1.269,0.201-1.682-0.254c-0.414-0.457-0.957,0.869-0.911,1.596
	c0.046,0.727-0.628,1.299-0.494,2.002c0.135,0.701-0.351,1.096-0.15,1.896c0.2,0.801-0.31,1.711-0.413,2.551
	c-0.102,0.84-0.146,1.473-0.286,2.207c-0.141,0.736-0.129,2.111,0.138,3.184c0.051,0.203,0.13,0.379,0.229,0.535
	c0.594,0.93,0.792,1.752,1.218,2.586c0.427,0.834,0.875,1.051,1.117,1.627c0.242,0.578,0.555,0.572,0.868,1.065
	c0.314,0.492,0.4,0.771-0.352,1.578c-1.2,1.289-1.994,2.037-1.994,2.037c-3.793,3.019-8.746,5.406-8.746,5.406
	c-2.402,1.088-2.192,1.367-1.416,1.381c1.104,0.02,2.097,0.387,2.735,0.303c0.64-0.084,1.254-0.002,1.591,0.082
	c0.337,0.084,0.525,0.451,0.85,0.715c0.325,0.264,0.733,0.312,0.994,0.455c0.26,0.145,0.732,0.613,1.251,0.568
	c0.52-0.047,1.154-1.201,1.631-2.197c1.485-3.1,2.889-3.504,2.889-3.504c3.995-1.164,5.999-2.42,5.999-2.42
	c1.687-1.117,2.804-2.297,3.509-3.221c0.669-0.879,1.408-2.113,1.966-1.967c0.479,0.127,0.939,0.447,0.939,0.447
	c0.035,0.025,0.174-1.24,0.172-1.34c-0.013-0.365-0.071-0.727-0.156-1.084c0.202-0.117,0.394-0.297,0.394-0.297
	c0.242-0.232,0.428-0.484,0.567-0.719c0.258-0.436,0.702-1.141,0.972-1.613c0.271-0.475,0.765-0.875,1.232-1.027
	c0.59-0.193,0.632-0.572,0.632-0.572c0.005-0.043,0.896-0.367,1.002-0.545c0.147-0.246-0.345-0.822,0.068-0.863
	c0.436-0.045,0.938-0.146,1.32-0.367c0.159-0.092,0.358-0.248,0.352-0.453c-0.003-0.104-0.091-0.221-0.138-0.332
	c-0.078-0.184,0.351-0.328,0.503-0.545c0.152-0.215,0.529-0.68,0.887-1.078c0.356-0.398,0.603-1.109,0.819-1.41
	c0.207-0.289,0.421-0.525,0.421-0.525c0.149-0.152,0.257-0.273,0.333-0.369C51.354,36.104,50.376,36.186,49.399,36.703z"/>
<path d="M17.584,34.623c1.858-3.074,2.501-5.391,2.501-5.391c0.1-0.428,0.241-0.744,0.392-0.977
	c0.316-0.492,1.464-0.836,2.201-1.233c3.638-1.959,3.595-5.734,3.595-5.734c0.028-1.652,0.75-2.6,1.455-3.133
	c0.668-0.504,1.085-0.746,0.734-0.83c-0.351-0.082-0.746-0.504-1.073-0.805c-0.347-0.32-0.715-0.346-0.715-0.346
	c-0.823-0.082-2.295,0.992-3.084,1.627c-0.348-0.588-1.197-1.178-1.71-1.637c-0.783-0.703-1.757-1.764-2.277-3.039
	c-0.315-0.775-0.544-1.865-0.746-1.629c-0.076,0.09-0.162,0.244-0.259,0.5c0,0-0.119,0.336-0.112,0.762
	c0.007,0.428-0.635,0.16-0.79,0.727c-0.155,0.566-0.532,0.865-0.295,1.373c0.237,0.51-0.315,0.605-0.182,1.156
	c0.088,0.359,0.214,0.584,0.197,0.781c-0.325-0.068-0.49-0.053-0.49-0.053c-1.523,0.135-2.784-0.109-3.667-0.387
	c-0.798-0.252-2.819-1.025-2.261-0.404c0.063,0.07,0.14,0.146,0.224,0.225c0.611,0.572,0.372,1.363,1.123,1.734
	c0.006,0.002,0.013,0.006,0.019,0.01c0.752,0.367-0.032,1.029,0.712,1.404c0.744,0.377,0.174,0.857,0.958,1.119
	c0.784,0.264,0.442,0.971,1.143,1.125c0.699,0.156,0.177,0.553,0.735,0.971c0.559,0.418,0.418,0.783,1.056,0.873
	c0.637,0.09,0.2,0.445,0.83,0.576c0.631,0.133,0.553,0.24,0.792,0.799c0.24,0.557,0.554,0.232,0.287,0.859
	c-0.266,0.627-0.555,1.85-1.203,2.377c-0.983,0.801-2.608,1.635-3.772,2.184c-0.757,0.356-2.17,0.869-1.981,1.434
	c0.19,0.564,0.238,1.16,0.76,1.473c0.521,0.311,0.743,0.633,1.2,0.969c0.457,0.336,0.84,0.631,1.396,0.77
	c0.558,0.139,0.961,0.287,1.531,0.385C17.227,35.311,17.584,34.623,17.584,34.623z"/>
<path d="M55.158,19.815c-0.146,0.016-0.428-0.055-0.633-0.108c-0.205-0.055-0.371-0.098-0.371-0.098
	c-0.386-0.082-0.692,0.023-0.909,0.158c-0.248,0.158-0.451,0.574-0.617,0.781c-0.166,0.209-0.346,0.334-0.346,0.334
	c-1.448,1.068-2.639-0.678-2.639-0.678c-0.164-0.25-0.32-0.506-0.469-0.768c-0.102-0.182-0.204-0.363-0.3-0.549
	c-0.374-0.727-0.672-1.488-0.557-2.318c0.054-0.383,0.135-0.756,0.093-1.143c-0.047-0.439-0.21-0.859-0.386-1.26
	c-0.155-0.35-0.342-0.689-0.52-1.029c-0.192-0.367-0.419-0.727-0.654-1.066c-0.458-0.621-0.788-2.021-0.788-2.021
	c-0.041-0.182-0.086-0.316-0.132-0.42c-0.099-0.221-0.518-0.213-0.587,0.072c-0.022,0.088-0.04,0.182-0.054,0.275
	c-0.044,0.291-0.276,0.666-0.346,0.951c-0.045,0.184-0.047,0.396-0.033,0.584c0.021,0.293-0.166,0.623-0.298,0.885
	c-0.161,0.322-0.115,0.748-0.037,1.076c0.067,0.285,0.059,0.727,0.037,1.019c-0.026,0.371,0.06,0.748,0.156,1.033
	c0.092,0.279,0.133,0.723,0.13,1.016c-0.008,0.717,0.335,1.391,0.604,1.809c0.158,0.246,0.003,0.445-0.107,0.717
	c-0.11,0.273,0.101,0.664,0.31,0.957c0.171,0.24,0.158,0.248-0.11,0.131c-0.318-0.143-0.699-0.244-0.953-0.328
	c-0.529-0.178-1.062-0.336-1.583-0.535c-0.786-0.299-1.618-0.674-2.274-1.215c-0.204-0.182-2.373-2.084-2.644-1.625
	c-0.28,0.475,0.145,1.035,0.501,1.387c0.209,0.207,0.086,0.498,0.228,0.754c0.113,0.207,0.393,0.441,0.639,0.621
	c0.237,0.174,0.338,0.543,0.535,0.762c0.161,0.178,0.417,0.359,0.642,0.5c0.248,0.158,0.38,0.527,0.555,0.764
	c0.238,0.322,0.766,0.602,1.16,0.777c0.268,0.119,0.448,0.293,0.433,0.42c-0.016,0.127,0.224,0.385,0.497,0.49
	c0.441,0.168,1.088,0.303,1.54,0.383c0.288,0.051,0.404,0.301,0.528,0.529c0.108,0.201,0.31,0.35,0.31,0.35
	c0.644,0.426,2.065,0.42,2.841,0.381c0.293-0.016,0.38,0.147,0.188,0.369c-0.666,0.773-1.388,1.5-2.082,2.246
	c-0.33,0.356-0.657,0.713-0.975,1.08c-0.196,0.229-0.48,0.49-0.624,0.752c-0.073,0.135-0.12,0.242-0.149,0.328
	c-0.065,0.19-0.118,0.459-0.099,0.625c0.019,0.168,0.314,0.076,0.409,0.09c0.096,0.014-0.1,0.24-0.108,0.389
	c-0.009,0.164,0.114,0.229,0.114,0.229c0.092,0.039,0.213,0.055,0.325,0.061c0.184,0.01,0.278,0.037,0.278,0.111
	c0,0.035,0.019,0.072,0.076,0.102c0.067,0.031,0.152,0,0.228-0.049c0.113-0.07,0.244-0.039,0.37-0.059
	c0.126-0.02,0.303-0.123,0.412-0.168c0.11-0.045,0.204,0.027,0.282,0.125c0.077,0.098,0.415,0.182,0.595,0.006
	c0.18-0.176,0.309-0.607,0.399-0.885c0.122-0.369,0.256-0.717,0.256-0.717c0.25-0.645,0.539-1.27,0.666-1.945
	c0.054-0.289,0.296-0.57,0.585-0.621c0.286-0.053,0.597-0.109,0.659-0.125c0.43-0.1,0.866-0.213,1.246-0.443
	c0.858-0.521,1.708-1.324,2.3-2.133c0.295-0.402,0.768-1.143,0.677-1.68c-0.064-0.381-0.088-0.666-0.091-0.877
	c-0.004-0.293,0.14-0.758,0.359-0.953c0.026-0.023,0.055-0.047,0.083-0.07c0.229-0.184,0.539-0.35,0.608-0.461
	C55.606,19.787,55.302,19.797,55.158,19.815z"/>
</svg>
