<?xml version="1.0" encoding="iso-8859-1"?>
<!-- Generator: Adobe Illustrator 17.1.0, SVG Export Plug-In . SVG Version: 6.00 Build 0)  -->
<!DOCTYPE svg PUBLIC "-//W3C//DTD SVG 1.1//EN" "http://www.w3.org/Graphics/SVG/1.1/DTD/svg11.dtd">
<svg version="1.1" id="Capa_1" xmlns="http://www.w3.org/2000/svg" xmlns:xlink="http://www.w3.org/1999/xlink" x="0px" y="0px"
	 viewBox="0 0 64 64" style="enable-background:new 0 0 64 64;" xml:space="preserve">
<g>
	<path d="M52.666,14.309c-1.657,0-3,1.343-3,3v14.359h-17.28H15.333V17.309c0-1.657-1.343-3-3-3s-3,1.343-3,3v17.359
		c0,1.657,1.343,3,3,3h17.053v16c0,1.657,1.343,3,3,3s3-1.343,3-3v-16h17.28c1.657,0,3-1.343,3-3V17.309
		C55.666,15.651,54.323,14.309,52.666,14.309z"/>
	<path d="M30.574,14.133c-1.858,4.55-1.266,9.166,1.326,10.665l1.945-4.761l-0.433-0.177c-0.248-0.102-0.367-0.387-0.266-0.636
		c0.101-0.249,0.386-0.369,0.634-0.267l0.433,0.177l0.196-0.482l-0.433-0.177c-0.12-0.049-0.214-0.143-0.265-0.262
		c-0.05-0.121-0.051-0.254-0.002-0.374c0.103-0.25,0.387-0.37,0.636-0.268l0.433,0.177l0.197-0.481l-0.434-0.176
		c-0.248-0.102-0.368-0.387-0.267-0.635c0.103-0.25,0.388-0.37,0.636-0.268l0.433,0.177l0.196-0.48l-0.433-0.178
		c-0.248-0.102-0.368-0.386-0.267-0.635c0.103-0.25,0.388-0.37,0.636-0.269l0.434,0.178l0.195-0.48l-0.432-0.178
		c-0.12-0.047-0.215-0.141-0.265-0.26c-0.051-0.12-0.052-0.254-0.002-0.375c0.101-0.25,0.387-0.37,0.635-0.269l0.433,0.177
		l0.197-0.48L36.24,12.94c-0.248-0.102-0.368-0.386-0.267-0.634c0.103-0.251,0.388-0.371,0.636-0.27l0.433,0.178l1.946-4.763
		C36.086,6.707,32.431,9.589,30.574,14.133z"/>
	<path d="M35.556,20.581c-0.121,0.05-0.254,0.051-0.374,0.002l-0.433-0.177l-1.945,4.761c2.901,0.745,6.557-2.137,8.415-6.683
		c1.856-4.546,1.265-9.164-1.328-10.663l-1.945,4.761l0.433,0.177c0.249,0.104,0.368,0.389,0.267,0.637
		c-0.101,0.249-0.387,0.368-0.636,0.267l-0.432-0.177l-0.197,0.48l0.434,0.177c0.248,0.102,0.368,0.388,0.267,0.637
		c-0.102,0.249-0.387,0.368-0.637,0.268l-0.432-0.178l-0.197,0.481l0.433,0.177c0.248,0.102,0.368,0.388,0.267,0.638
		c-0.102,0.248-0.388,0.368-0.636,0.266l-0.433-0.177l-0.196,0.482l0.433,0.177c0.248,0.102,0.368,0.387,0.267,0.636
		c-0.102,0.248-0.387,0.368-0.636,0.268l-0.433-0.178l-0.196,0.482l0.433,0.177c0.248,0.102,0.368,0.387,0.266,0.637
		c-0.102,0.249-0.387,0.368-0.635,0.268l-0.433-0.178l-0.197,0.482l0.432,0.176c0.249,0.102,0.37,0.387,0.269,0.636
		C35.769,20.436,35.676,20.53,35.556,20.581z"/>
</g>
</svg>
