<?xml version="1.0" encoding="iso-8859-1"?>
<!-- Generator: Adobe Illustrator 17.1.0, SVG Export Plug-In . SVG Version: 6.00 Build 0)  -->
<!DOCTYPE svg PUBLIC "-//W3C//DTD SVG 1.1//EN" "http://www.w3.org/Graphics/SVG/1.1/DTD/svg11.dtd">
<svg version="1.1" id="Capa_1" xmlns="http://www.w3.org/2000/svg" xmlns:xlink="http://www.w3.org/1999/xlink" x="0px" y="0px"
	 viewBox="0 0 64 64" style="enable-background:new 0 0 64 64;" xml:space="preserve">
<g>
	<path style="fill:#1D1D1B;" d="M38.894,51.629c1.22,0,2.343-0.4,3.253-1.072l-0.877,3.326c-0.188,0.716,0.258,1.295,0.998,1.295
		h3.685c0.74,0,1.159-0.572,0.938-1.278l-1.124-3.565c0.953,0.799,2.172,1.293,3.514,1.293c3.035,0,5.495-2.46,5.495-5.495
		c0-3.035-2.46-5.495-5.495-5.495c-0.269,0-0.531,0.026-0.789,0.063c0.683-0.915,1.092-2.047,1.092-3.278
		c0-3.034-2.461-5.494-5.496-5.494c-3.033,0-5.493,2.46-5.493,5.494c0,1.231,0.409,2.363,1.091,3.278
		c-0.258-0.038-0.521-0.063-0.79-0.063c-3.034,0-5.493,2.46-5.493,5.495C33.4,49.169,35.859,51.629,38.894,51.629z"/>
	<path style="fill:#1D1D1B;" d="M14.07,26.676c1.22,0,2.342-0.399,3.252-1.071l-0.877,3.325c-0.188,0.716,0.258,1.295,0.998,1.295
		h3.684c0.74,0,1.159-0.572,0.938-1.278l-1.123-3.565c0.952,0.8,2.171,1.294,3.513,1.294c3.036,0,5.496-2.46,5.496-5.495
		c0-3.035-7.653-14.204-10.689-14.204c-3.033,0-10.685,11.169-10.685,14.204C8.577,24.216,11.035,26.676,14.07,26.676z"/>
	<path style="fill:#1D1D1B;" d="M44.09,27.763c3.033,0,10.685-11.169,10.685-14.204c0-3.035-2.458-5.495-5.493-5.495
		c-1.22,0-4.282,0.898-5.193,1.57c-0.952-0.8-3.85-1.57-5.191-1.57c-3.036,0-5.496,2.46-5.496,5.495
		C33.4,16.594,41.054,27.763,44.09,27.763z"/>
	<path style="fill:#1D1D1B;" d="M21.38,33.87c-0.956-1.215-2.545-1.247-3.547-0.07l-6.926,8.127c-1.003,1.177-1.003,3.085,0,4.262
		l6.926,8.127c1.002,1.177,2.591,1.145,3.547-0.07l6.277-7.987c0.956-1.215,0.956-3.187,0-4.402L21.38,33.87z"/>
</g>
</svg>
