<?xml version="1.0" encoding="iso-8859-1"?>
<!-- Generator: Adobe Illustrator 17.1.0, SVG Export Plug-In . SVG Version: 6.00 Build 0)  -->
<!DOCTYPE svg PUBLIC "-//W3C//DTD SVG 1.1//EN" "http://www.w3.org/Graphics/SVG/1.1/DTD/svg11.dtd">
<svg version="1.1" id="Capa_1" xmlns="http://www.w3.org/2000/svg" xmlns:xlink="http://www.w3.org/1999/xlink" x="0px" y="0px"
	 viewBox="0 0 64 64" style="enable-background:new 0 0 64 64;" xml:space="preserve">
<g>
	<path d="M43.476,16.991c0.976,0.33,2.5-0.451,2.685-2.12c0.113-1.017-0.2-2.01-1.188-2.327l-3.936-0.367
		c-1.371-0.407-2.838,0.368-3.273,1.732l-3.64,9.788l-1.854,0.433L31.596,6.336c0.015-1.432-1.136-2.627-2.565-2.669l-3.853-0.882
		c-1.037-0.008-1.645,0.838-1.856,1.839c-0.347,1.643,0.856,2.861,1.887,2.853l4.204,0.223L30.09,24.64l-3.007,0.703l-5.109-13.739
		c-0.435-1.364-1.901-2.139-3.273-1.732l-3.935,0.367c-0.987,0.318-1.3,1.31-1.188,2.327c0.185,1.669,1.709,2.45,2.685,2.12
		l4.063-1.104l4.591,12.267l-0.634,0.148c-1.357,0-2.488,0.951-2.774,2.223c-1.336,0.357-5.832,2.288-5.136,11.962
		c0.434,6.024,2.916,9.438,5.062,11.29v4.187c0,1.573,1.275,2.848,2.848,2.848h12.184c1.573,0,2.848-1.274,2.848-2.848v-0.475h2.583
		c1.049,0,1.898-0.85,1.898-1.898v-10.73c0-1.049-0.85-1.898-1.898-1.898h-2.583v-6.828h0.771c1.048,0,1.898-0.851,1.898-1.898
		v-4.746c0-1.049-0.851-1.898-1.898-1.898h-0.871c-0.299-1.157-1.303-2.022-2.528-2.117l2.725-7.281L43.476,16.991z M21.437,47.18
		c-1.069-1.627-1.988-3.942-2.223-7.202c-0.416-5.78,1.181-7.866,2.223-8.611V47.18z"/>
</g>
</svg>
