<?xml version="1.0" encoding="iso-8859-1"?>
<!-- Generator: Adobe Illustrator 17.1.0, SVG Export Plug-In . SVG Version: 6.00 Build 0)  -->
<!DOCTYPE svg PUBLIC "-//W3C//DTD SVG 1.1//EN" "http://www.w3.org/Graphics/SVG/1.1/DTD/svg11.dtd">
<svg version="1.1" id="Capa_1" xmlns="http://www.w3.org/2000/svg" xmlns:xlink="http://www.w3.org/1999/xlink" x="0px" y="0px"
	 viewBox="0 0 64 64" style="enable-background:new 0 0 64 64;" xml:space="preserve">
<g>
	<path d="M27.882,31.807c-0.122-0.433,0.13-0.883,0.561-1.006l0.63-0.18c1.024-1.146,2.255-2.096,3.639-2.797l-4.769,1.359
		c-0.073,0.021-0.146,0.031-0.221,0.031c-0.024,0-0.047-0.002-0.069-0.003c-0.336-0.028-0.621-0.265-0.714-0.587
		c-0.122-0.431,0.129-0.881,0.558-1.006l13.21-3.765c0.436-0.126,0.885,0.143,1.006,0.558c0.122,0.433-0.13,0.884-0.56,1.007
		l-3.949,1.125c0.353-0.029,0.705-0.054,1.063-0.054c1.243,0,2.442,0.19,3.574,0.532c0.207-0.006,0.398,0.062,0.551,0.192
		c2.016,0.717,3.79,1.938,5.17,3.52c0.201-1.266,0.136-2.669-0.241-4.161c-1.2-4.739-5.15-6.896-8.312-6.896
		c-1.007,0-1.971,0.216-2.715,0.59l-11.015,4.699L17.413,9.049c-0.822-1.719-2.586-2.83-4.495-2.83
		c-0.648,0-1.276,0.128-1.866,0.378C9.883,7.09,8.995,8.007,8.553,9.178c-0.452,1.192-0.391,2.497,0.182,3.69L19.218,34.06
		c1.294,2.706,3.819,4.605,6.715,5.216c-0.005-0.145-0.022-0.286-0.022-0.433c0-2.523,0.765-4.871,2.068-6.829
		C27.938,31.951,27.903,31.881,27.882,31.807z"/>
	<path d="M39.894,57.25v-6.129l1.493-2.669c4.214-1.33,7.279-5.274,7.279-9.922c0-5.736-4.667-10.403-10.402-10.403
		c-5.736,0-10.403,4.667-10.403,10.403c0,4.724,3.168,8.715,7.489,9.979l1.832,2.611v6.129H39.894z M32.47,44.016
		c0.069,0.008,0.122,0.03,0.194,0.03c1.909,0,2.009-2.21,2.009-2.21h-3.675c-0.461-1.009-0.724-2.128-0.724-3.306
		c0-0.065,0.008-0.127,0.009-0.192c0.273,0.527,0.766,1.034,1.678,1.034c1.907,0,2.008-2.211,2.008-2.211H30.4
		c0.2-1.154,0.643-2.226,1.285-3.155c0.271,0.532,0.764,1.044,1.681,1.044c1.909,0,2.009-2.211,2.009-2.211h-2.711
		c1.444-1.42,3.42-2.299,5.6-2.299c2.18,0,4.156,0.879,5.6,2.299h-2.711c0,0,0.102,2.211,2.01,2.211c0.917,0,1.41-0.512,1.682-1.043
		c0.64,0.929,1.083,2,1.284,3.154h-1.456c0,0,0.1,1.806,1.543,2.141c-0.087,0.896-0.326,1.748-0.686,2.534h-0.359
		c0,0,0.015,0.232,0.092,0.543c-1.361,2.466-3.986,4.141-6.998,4.141C35.982,46.519,33.928,45.555,32.47,44.016z"/>
	<path d="M38.288,35.05c1.909,0,2.01-2.211,2.01-2.211h-4.019C36.279,32.839,36.381,35.05,38.288,35.05z"/>
	<path d="M38.891,37.161h-4.017c0,0,0.101,2.211,2.009,2.211S38.891,37.161,38.891,37.161z"/>
	<path d="M41.757,39.372c1.908,0,2.009-2.211,2.009-2.211h-4.018C39.748,37.161,39.85,39.372,41.757,39.372z"/>
	<path d="M39.595,41.836h-4.018c0,0,0.102,2.21,2.011,2.21C39.495,44.046,39.595,41.836,39.595,41.836z"/>
	<path d="M42.461,44.046c1.907,0,2.008-2.21,2.008-2.21h-4.018C40.451,41.836,40.553,44.046,42.461,44.046z"/>
</g>
</svg>
