<?xml version="1.0" encoding="iso-8859-1"?>
<!-- Generator: Adobe Illustrator 17.1.0, SVG Export Plug-In . SVG Version: 6.00 Build 0)  -->
<!DOCTYPE svg PUBLIC "-//W3C//DTD SVG 1.1//EN" "http://www.w3.org/Graphics/SVG/1.1/DTD/svg11.dtd">
<svg version="1.1" id="Capa_1" xmlns="http://www.w3.org/2000/svg" xmlns:xlink="http://www.w3.org/1999/xlink" x="0px" y="0px"
	 viewBox="0 0 64 64" style="enable-background:new 0 0 64 64;" xml:space="preserve">
<g>
	<path d="M30.053,17.184c0-2.312-1.901-4.187-4.249-4.187c-2.345,0-4.246,1.874-4.246,4.187c0,2.325,1.901,4.206,4.246,4.206
		C28.148,21.39,30.053,19.509,30.053,17.184z"/>
	<path d="M47.357,21.284c-0.166-0.898-0.903-1.414-0.947-1.453L23.12,4.481c-0.922-0.607-2.178-0.363-2.806,0.546l-1.179,1.71
		c-0.439,0.67-0.247,1.541,0.414,1.975c0.665,0.44,1.394,0.109,1.822-0.562l0.899-2.215l20.874,13.801l-16.603,2.998
		c-1.18,0.19-2.028,1.37-1.765,2.518l3.612,13.977L16.707,56.755c-0.705,1.196-0.279,2.738,0.931,3.42
		c1.223,0.695,2.764,0.268,3.468-0.927c0,0,12.19-18.329,12.236-18.454l0.635,2.561l-1.841,14.622
		c-0.227,1.361,0.707,2.646,2.092,2.876c1.381,0.232,2.685-0.693,2.92-2.054l1.888-15.007c0.06-0.362-0.015-1.158-0.102-1.5
		l-4.161-16.567l10.841-1.952C46.776,23.568,47.557,22.452,47.357,21.284z"/>
</g>
</svg>
