<?xml version="1.0" encoding="iso-8859-1"?>
<!-- Generator: Adobe Illustrator 17.1.0, SVG Export Plug-In . SVG Version: 6.00 Build 0)  -->
<!DOCTYPE svg PUBLIC "-//W3C//DTD SVG 1.1//EN" "http://www.w3.org/Graphics/SVG/1.1/DTD/svg11.dtd">
<svg version="1.1" id="Capa_1" xmlns="http://www.w3.org/2000/svg" xmlns:xlink="http://www.w3.org/1999/xlink" x="0px" y="0px"
	 viewBox="0 0 64 64" style="enable-background:new 0 0 64 64;" xml:space="preserve">
<g>
	<path d="M8,60h49c1.104,0,2-0.896,2-2v-2.874c0-1.104-0.896-2-2-2H32.759c0.265-0.349,0.428-0.78,0.428-1.252V39.011h0.716
		c0.92,0,1.666-0.746,1.666-1.666V15.699l8.346-8.633c1.119-1.158,1.088-3.004-0.07-4.124c-1.157-1.118-3.004-1.089-4.123,0.07
		L27.587,15.565L12.56,21.827c-1.487,0.62-2.19,2.327-1.57,3.814c0.467,1.119,1.551,1.795,2.693,1.795
		c0.374,0,0.754-0.072,1.121-0.225l11.393-4.748v14.882c0,0.92,0.746,1.666,1.667,1.666h1.159v0.986
		c-0.373-0.091-0.758-0.152-1.159-0.152c-2.718,0-4.923,2.204-4.923,4.923c0,2.719,2.204,4.923,4.923,4.923
		c0.401,0,0.785-0.061,1.159-0.152v2.335c0,0.472,0.163,0.903,0.428,1.252H8c-1.104,0-2,0.896-2,2V58C6,59.104,6.896,60,8,60z"/>
</g>
</svg>
