<?xml version="1.0" encoding="iso-8859-1"?>
<!-- Generator: Adobe Illustrator 17.1.0, SVG Export Plug-In . SVG Version: 6.00 Build 0)  -->
<!DOCTYPE svg PUBLIC "-//W3C//DTD SVG 1.1//EN" "http://www.w3.org/Graphics/SVG/1.1/DTD/svg11.dtd">
<svg version="1.1" id="Capa_1" xmlns="http://www.w3.org/2000/svg" xmlns:xlink="http://www.w3.org/1999/xlink" x="0px" y="0px"
	 viewBox="0 0 64 64" style="enable-background:new 0 0 64 64;" xml:space="preserve">
<g>
	<circle cx="11.823" cy="29.739" r="4.79"/>
	<path d="M56.871,37.377c-0.463-0.704-1.248-1.127-2.09-1.127H10.6c-0.899,0-1.73,0.483-2.174,1.266l-4.08,7.185
		c-0.682,1.201-0.261,2.727,0.939,3.408c0.39,0.222,0.814,0.327,1.232,0.327c0.871,0,1.716-0.455,2.176-1.266l3.361-5.919h41.377
		l3.978,6.058c0.759,1.154,2.309,1.474,3.462,0.717c1.154-0.758,1.476-2.308,0.718-3.462L56.871,37.377z"/>
	<path d="M37.594,34.531V34.5h15.594c1.381,0,2.5-1.119,2.5-2.5c0-1.381-1.119-2.5-2.5-2.5H37.594v-0.761c0-0.552-0.447-1-1-1H22.73
		l1.123-7.441c0.021-0.142,0.026-0.282,0.018-0.42c0.09-0.019,0.18-0.02,0.269-0.044c2.554-0.687,4.069-3.315,3.383-5.869
		c-0.688-2.555-3.315-4.069-5.87-3.383c-2.556,0.687-4.07,3.315-3.383,5.869c0.298,1.109,0.975,2.004,1.84,2.626
		c-0.1,0.192-0.178,0.398-0.212,0.624l-1.333,8.833c-0.027,0.177-0.021,0.35-0.003,0.52v5.476H37.594z"/>
</g>
</svg>
