<?xml version="1.0" encoding="iso-8859-1"?>
<!-- Generator: Adobe Illustrator 17.1.0, SVG Export Plug-In . SVG Version: 6.00 Build 0)  -->
<!DOCTYPE svg PUBLIC "-//W3C//DTD SVG 1.1//EN" "http://www.w3.org/Graphics/SVG/1.1/DTD/svg11.dtd">
<svg version="1.1" id="Capa_1" xmlns="http://www.w3.org/2000/svg" xmlns:xlink="http://www.w3.org/1999/xlink" x="0px" y="0px"
	 viewBox="0 0 64 64" style="enable-background:new 0 0 64 64;" xml:space="preserve">
<g>
	<path d="M13.59,14.845c0.126,0.442,0.59,0.695,1.026,0.575c0.057-0.016,5.633-1.525,9.467,2.03
		c3.96,3.674,4.845,11.629,2.562,22.985c-0.033,0.148-3.234,14.935,7.362,20.471C34.131,60.97,34.263,61,34.393,61
		c0.3,0,0.59-0.162,0.738-0.447c0.212-0.406,0.055-0.909-0.353-1.122c-9.458-4.94-6.54-18.492-6.506-18.647
		c2.443-12.157,1.41-20.422-3.071-24.565c-4.528-4.187-10.774-2.474-11.038-2.4C13.722,13.944,13.466,14.403,13.59,14.845z"/>
	<path d="M37.286,23.043c-0.624-0.242-1.387,0.659-1.387,0.659l1.924,0.78C37.823,24.482,37.91,23.285,37.286,23.043z"/>
	<path d="M39.657,24.283c-0.624-0.242-1.388,0.659-1.388,0.659l1.925,0.779C40.194,25.722,40.281,24.525,39.657,24.283z"/>
	<path d="M40.621,22.413c-0.624-0.242-1.387,0.659-1.387,0.659l1.924,0.779C41.158,23.852,41.245,22.655,40.621,22.413z"/>
	<path d="M40.641,26.182l1.924,0.78c0,0,0.087-1.197-0.537-1.439C41.403,25.281,40.641,26.182,40.641,26.182z"/>
	<path d="M36.322,24.771c-0.624-0.242-1.387,0.659-1.387,0.659l1.924,0.779C36.859,26.21,36.946,25.014,36.322,24.771z"/>
	<path d="M38.693,26.012c-0.624-0.242-1.387,0.658-1.387,0.658l1.924,0.78C39.23,27.45,39.317,26.253,38.693,26.012z"/>
	<path d="M41.065,27.251c-0.624-0.242-1.388,0.659-1.388,0.659l1.924,0.779C41.601,28.689,41.688,27.493,41.065,27.251z"/>
	<path d="M35.358,26.588c-0.624-0.242-1.387,0.659-1.387,0.659l1.924,0.78C35.896,28.027,35.982,26.83,35.358,26.588z"/>
	<path d="M37.729,27.828c-0.624-0.242-1.387,0.658-1.387,0.658l1.924,0.78C38.266,29.267,38.352,28.07,37.729,27.828z"/>
	<path d="M40.1,29.067c-0.624-0.242-1.387,0.659-1.387,0.659l1.924,0.78C40.637,30.507,40.724,29.31,40.1,29.067z"/>
	<path d="M34.394,28.404c-0.624-0.242-1.387,0.659-1.387,0.659l1.924,0.78C34.931,29.844,35.018,28.646,34.394,28.404z"/>
	<path d="M36.765,29.644c-0.624-0.242-1.387,0.659-1.387,0.659l1.924,0.779C37.302,31.083,37.389,29.887,36.765,29.644z"/>
	<path d="M42.752,35.175c0,0,0.416-4.472,4.16-11.959c3.744-7.487-0.416-20.695-14.871-20.487c-14.455,0.208-16.612,9.8-16.612,9.8
		c11.959-1.144,14.324,6.943,14.948,12.247c0.624,5.304-0.52,15.079-0.52,15.079C35.161,39.959,42.752,35.175,42.752,35.175z
		 M31.962,28.591c0,0,2.301-10.339,8.474-8.935c6.47,1.473,2.538,14.774-5.118,15.496C31.059,35.554,31.962,28.591,31.962,28.591z"
		/>
</g>
</svg>
