<?xml version="1.0" encoding="iso-8859-1"?>
<!-- Generator: Adobe Illustrator 17.1.0, SVG Export Plug-In . SVG Version: 6.00 Build 0)  -->
<!DOCTYPE svg PUBLIC "-//W3C//DTD SVG 1.1//EN" "http://www.w3.org/Graphics/SVG/1.1/DTD/svg11.dtd">
<svg version="1.1" id="Capa_1" xmlns="http://www.w3.org/2000/svg" xmlns:xlink="http://www.w3.org/1999/xlink" x="0px" y="0px"
	 viewBox="0 0 64 64" style="enable-background:new 0 0 64 64;" xml:space="preserve">
<g>
	<path d="M32.589,20.031c0.279,1.792,1.852,3.14,3.708,3.067c1.998-0.08,3.549-1.768,3.47-3.766
		c-0.008-0.191-0.042-0.374-0.078-0.556l0.151,0.023c0.516,0.08,0.902-0.282,0.745-0.779c-0.507-1.601-1.886-2.859-3.653-3.132
		c-2.495-0.385-4.82,1.324-5.204,3.812c-0.032,0.202-0.049,0.402-0.054,0.599C31.666,19.622,32.092,19.94,32.589,20.031z"/>
	<path d="M50.743,30.71c0.955,1.333,3.895-1.712,5.118-4.233c1.304-2.722,1.074-6.476-0.208-6.688l-12.69-1.97
		c-0.463-0.071-0.902,0.251-0.976,0.726c-0.037,0.237,0.035,0.482,0.175,0.658L50.743,30.71z"/>
	<path d="M5.058,59.237h50.824c1.291,0,2.542-1.026,2.795-2.291l0.836-4.181c0.252-1.265-0.034-3.214-0.642-4.353l-2.474-4.639
		c-0.608-1.139-1.587-1.136-2.189,0.006l-0.744,1.414c-0.602,1.142-2.135,2.068-3.425,2.068h-1.752c-1.291,0-3.1,0.716-4.041,1.598
		l-3.393,3.183c-0.941,0.882-2.688,1.244-3.902,0.805l-1.761-0.635c-0.945-0.341-2.353-0.44-3.513-0.289
		c0.088-0.287,0.143-0.578,0.13-0.87l0.01-8.406c0.025-0.669-0.217-1.324-0.675-1.827l-5.393-5.328l6.203-5.086l1.432,3.972
		c0.123,0.264,0.309,0.5,0.535,0.685l5.925,4.497c0.798,0.492,1.874,0.361,2.538-0.348c0.766-0.823,0.722-2.111-0.097-2.878
		c-0.021-0.021-0.057-0.045-0.077-0.065l-5.195-3.97l-2.404-7.056c-0.382-0.928-1.061-1.739-2.002-2.275
		c-0.959-0.543-2.031-0.707-3.043-0.548c-0.441-0.548-1.216-0.901-1.895-1.118c0.01-0.03,0.018-0.06,0.026-0.089
		c0.692-0.117,1.337-0.501,1.755-1.13c0.803-1.208,0.474-2.843-0.733-3.646c-1.207-0.803-2.843-0.474-3.646,0.734
		c-0.321,0.482-0.454,1.032-0.429,1.57c-0.362,0.08-0.676,0.253-0.859,0.546c-0.785,1.262-1.902,2.905-2.727,3.491
		c-1.409,1.003-5.231,3.138-3.683,4.75c0.768,0.801,1.771,1.466,2.586,1.934l-0.394,0.322c-0.482,0.37-0.899,0.843-1.214,1.399
		c-0.308,0.536-0.494,1.107-0.581,1.673l-2.44,10.512l-5.782,5.529c-0.185,0.174-0.35,0.375-0.469,0.602
		c-0.71,1.235-0.284,2.812,0.963,3.522c0.994,0.57,2.219,0.394,3.021-0.336l6.534-6.287c0.108-0.133,0.207-0.272,0.293-0.425
		c0.112-0.198,0.199-0.394,0.252-0.604l1.522-6.66l5.003,4.988l-0.011,7.464c0,0.728,0.324,1.424,0.885,1.922
		c-1.224,0.246-2.883,0.175-3.951-0.197l-2.01-0.7c-1.219-0.424-3.015-0.103-4.013,0.715l-2.51,2.062
		c-0.998,0.818-2.788,1.122-4,0.678l-3.222-1.182c-1.211-0.444-2.678,0.122-3.277,1.265l-0.754,1.442
		C3.206,58.31,3.767,59.237,5.058,59.237z M25.41,18.576c0.006-0.122,0.021-0.244,0.05-0.363c0.105-0.436,0.383-0.8,0.781-1.027
		c0.394-0.224,0.859-0.287,1.311-0.177c0.371,0.09,0.688,0.314,0.891,0.628c0.205,0.319,0.271,0.693,0.182,1.053
		c-0.073,0.301-0.265,0.552-0.539,0.71c-0.271,0.155-0.59,0.198-0.9,0.123c-0.538-0.133-0.875-0.66-0.749-1.176
		c0.107-0.44,0.565-0.706,1.022-0.595c0.392,0.094,0.633,0.479,0.542,0.855c-0.079,0.325-0.419,0.522-0.755,0.44
		c-0.016-0.003-0.031-0.008-0.045-0.012c-0.024-0.008-0.014,0,0.024,0.015c0.023,0.009,0.047,0.016,0.071,0.023
		c0.194,0.047,0.393,0.021,0.56-0.075c0.163-0.093,0.276-0.242,0.319-0.417c0.057-0.234,0.014-0.481-0.122-0.691
		c-0.138-0.214-0.355-0.366-0.611-0.429c-0.335-0.082-0.68-0.035-0.971,0.13c-0.286,0.163-0.484,0.424-0.56,0.733
		c-0.098,0.403-0.024,0.822,0.208,1.181c0.233,0.365,0.602,0.622,1.036,0.727c0.352,0.086,0.7,0.077,1.025,0
		c-0.591,0.336-1.343,0.343-1.946-0.058c-0.511-0.34-0.793-0.891-0.821-1.461c-0.001-0.03-0.007-0.061-0.006-0.091
		C25.406,18.606,25.409,18.591,25.41,18.576z M27.261,22.119c0.027-0.038,0.04-0.077,0.065-0.115
		c0.485,0.149,0.997,0.367,1.359,0.643c-0.354,0.129-0.696,0.294-1.01,0.508l-2.836,2.318L27.261,22.119z"/>
</g>
</svg>
