<?xml version="1.0" encoding="iso-8859-1"?>
<!-- Generator: Adobe Illustrator 17.1.0, SVG Export Plug-In . SVG Version: 6.00 Build 0)  -->
<!DOCTYPE svg PUBLIC "-//W3C//DTD SVG 1.1//EN" "http://www.w3.org/Graphics/SVG/1.1/DTD/svg11.dtd">
<svg version="1.1" id="Capa_1" xmlns="http://www.w3.org/2000/svg" xmlns:xlink="http://www.w3.org/1999/xlink" x="0px" y="0px"
	 viewBox="0 0 64 64" style="enable-background:new 0 0 64 64;" xml:space="preserve">
<g>
	<path d="M23.866,19.481c2.076-0.405,3.424-2.421,3.019-4.497c-0.405-2.076-2.41-3.425-4.486-3.02
		c-2.075,0.405-3.437,2.411-3.031,4.487C19.773,18.527,21.792,19.886,23.866,19.481z"/>
	<path d="M58.813,43.773c-0.607-1.139-1.587-1.136-2.188,0.006l-0.744,1.414c-0.602,1.142-2.135,2.068-3.425,2.068h-1.753
		c-1.291,0-3.1,0.716-4.041,1.598l-3.393,3.183c-0.398,0.373-0.944,0.646-1.529,0.812c0.08-0.171,0.115-0.363,0.073-0.554
		l-5.392-35.034l-0.023-0.066c-0.156-0.448-0.655-0.699-1.115-0.538c-0.414,0.144-0.62,0.578-0.567,1.014l1.663,10.788l-5.434-0.29
		l-2.786-5.986c-0.469-1.008-1.748-1.779-2.858-1.724l-3.523,0.319c-0.316,0.016-0.613,0.11-0.883,0.253
		c-0.764-0.098-1.644,0.224-2.342,0.578c-0.015-0.031-0.032-0.059-0.048-0.089c0.444-0.617,0.649-1.404,0.492-2.208
		c-0.301-1.542-1.8-2.552-3.342-2.25c-1.542,0.301-2.551,1.8-2.25,3.342c0.12,0.616,0.437,1.14,0.865,1.537
		c-0.218,0.337-0.329,0.709-0.246,1.076c0.355,1.57,0.747,3.687,0.557,4.766c-0.322,1.846-1.641,6.401,0.779,6.465
		c1.381,0.037,2.864-0.299,3.884-0.595l-0.813,19.127c0.003,0.189,0.026,0.367,0.061,0.543c0.043,0.222,0.12,0.428,0.211,0.624
		l-1.231,1.011c-0.998,0.818-2.789,1.122-4,0.678l-3.222-1.182c-1.211-0.444-2.678,0.122-3.277,1.265L6.22,57.167
		c-0.599,1.144-0.037,2.07,1.253,2.07h50.824c1.29,0,2.542-1.026,2.795-2.291l0.836-4.181c0.253-1.265-0.034-3.214-0.642-4.353
		L58.813,43.773z M16.586,21.839c-0.652,0.127-1.29-0.082-1.745-0.5c-0.023-0.023-0.051-0.042-0.074-0.065
		c-0.012-0.012-0.021-0.026-0.031-0.037c-0.088-0.099-0.169-0.203-0.238-0.318c-0.25-0.416-0.313-0.908-0.18-1.386
		c0.133-0.472,0.443-0.875,0.875-1.134c0.354-0.213,0.769-0.283,1.165-0.195c0.401,0.089,0.736,0.327,0.942,0.672
		c0.172,0.287,0.216,0.627,0.125,0.957c-0.091,0.326-0.304,0.603-0.6,0.78c-0.516,0.308-1.177,0.158-1.473-0.336
		c-0.252-0.42-0.102-0.975,0.335-1.237c0.373-0.226,0.853-0.113,1.068,0.247c0.187,0.311,0.076,0.722-0.246,0.915
		c-0.015,0.009-0.03,0.017-0.045,0.025c-0.025,0.012-0.01,0.011,0.031-0.007c0.024-0.011,0.048-0.023,0.072-0.037
		c0.185-0.111,0.318-0.283,0.374-0.483c0.055-0.196,0.029-0.396-0.071-0.565c-0.135-0.224-0.355-0.381-0.62-0.439
		c-0.27-0.06-0.553-0.012-0.798,0.135c-0.32,0.192-0.55,0.49-0.648,0.839c-0.096,0.343-0.051,0.695,0.127,0.992
		c0.231,0.385,0.607,0.652,1.06,0.752c0.458,0.104,0.937,0.021,1.352-0.228c0.337-0.201,0.598-0.475,0.791-0.781
		C17.932,21.111,17.357,21.688,16.586,21.839z M18.861,22.555c-0.008-0.049-0.028-0.09-0.038-0.138
		c0.362-0.189,0.767-0.368,1.152-0.473c-0.159,0.289-0.261,0.609-0.273,0.95l-0.17,3.99L18.861,22.555z M26.005,52.886l-2.01-0.7
		c-0.045-0.016-0.096-0.023-0.143-0.037l0.617-14.623l7.211,13.895c0.169,0.369,0.422,0.681,0.724,0.931l-1.96,0.609
		C29.21,53.344,27.224,53.31,26.005,52.886z M37.606,52.212c-0.392-0.142-0.867-0.237-1.368-0.296
		c0.454-0.591,0.668-1.36,0.514-2.153c-0.039-0.2-0.1-0.382-0.172-0.569l-9.017-17.721l0.072-2.287l0.729,1.647
		c0.571,1.051,1.617,0.965,1.617,0.965l6.422,0.357c0.129-0.001,0.25-0.012,0.372-0.036c0.056-0.011,0.107-0.033,0.161-0.048
		l3.182,20.642c0.007,0.022,0.004,0.048,0.008,0.059c0.033,0.095,0.088,0.174,0.147,0.249c-0.318-0.02-0.627-0.073-0.905-0.174
		L37.606,52.212z"/>
</g>
</svg>
