<?xml version="1.0" encoding="iso-8859-1"?>
<!-- Generator: Adobe Illustrator 17.1.0, SVG Export Plug-In . SVG Version: 6.00 Build 0)  -->
<!DOCTYPE svg PUBLIC "-//W3C//DTD SVG 1.1//EN" "http://www.w3.org/Graphics/SVG/1.1/DTD/svg11.dtd">
<svg version="1.1" id="Capa_1" xmlns="http://www.w3.org/2000/svg" xmlns:xlink="http://www.w3.org/1999/xlink" x="0px" y="0px"
	 viewBox="0 0 64 64" style="enable-background:new 0 0 64 64;" xml:space="preserve">
<g>
	<path d="M11.782,18.217c-0.528,0.97-1.308,1.802-1.852,1.802H8.941c-2.029,0-3.673,1.644-3.673,3.673v3.265
		c0,0.754,0.227,1.454,0.617,2.036c0.614,0.918,1.402,2.179,1.358,3.283c-0.162,4.063,0.339,10.264,3.994,15.26
		c0.799,1.092,2.667,2.01,4.008,2.186l9.224,1.203c0.098,0.013,0.192,0.018,0.283,0.017c0.157-0.001,1.054,0.439,2.003,1.005
		l10.998,6.549c0.489,0.293,1.03,0.432,1.564,0.432c1.043,0,2.062-0.529,2.638-1.483l2.591-4.294
		c0.682-1.129,0.997-2.955,0.732-4.249l-0.849-4.149c-0.221-1.082,0.52-2.059,1.2-2.829c0.405-0.46,0.653-1.058,0.653-1.7v-5.101
		c0-1.354,1.094-2.539,2.44-2.649l5.118-0.418c0.523-0.043,1.006-0.214,1.401-0.47c0.691-0.448,1.859-1.383,2.585-2.216
		c0.561-0.645,0.902-1.488,0.902-2.411v-3.265c0-2.029-1.643-3.673-3.673-3.673c0,0-0.287,0-0.643,0
		c-0.355,0-1.018-0.815-1.584-1.764C50.231,13.905,44.327,7.571,32,7.571C19.708,7.571,14.153,13.868,11.782,18.217z M43.438,26.862
		l0.692-1.782c0.401-1.029,1.273-1.864,1.949-1.864c0.677,0,0.9,0.834,0.5,1.864l-0.693,1.782c-0.4,1.029-1.272,1.864-1.949,1.864
		C43.261,28.726,43.037,27.892,43.438,26.862z M38.388,26.862l0.692-1.782c0.401-1.029,1.273-1.864,1.949-1.864
		c0.677,0,0.9,0.834,0.5,1.864l-0.693,1.782c-0.4,1.029-1.272,1.864-1.949,1.864C38.21,28.726,37.986,27.892,38.388,26.862z
		 M26.66,36.14l7.211-1.223c1.333-0.226,2.825,0.607,3.333,1.86l1.632,4.031c0.216,0.532,0.611,1.008,1.098,1.372
		c0.787,0.589,1.795,1.579,2.017,2.661l0.931,4.549c0.142,0.696-0.063,1.886-0.431,2.494l-2.591,4.294
		c-0.177,0.292-0.561,0.387-0.854,0.213L28.19,49.95c-0.949-0.565-1.721-1.045-1.722-1.071c-0.001-0.016-0.002-0.031-0.005-0.048
		l-1.782-9.873C24.441,37.628,25.326,36.365,26.66,36.14z"/>
</g>
</svg>
