<?xml version="1.0" encoding="iso-8859-1"?>
<!-- Generator: Adobe Illustrator 17.1.0, SVG Export Plug-In . SVG Version: 6.00 Build 0)  -->
<!DOCTYPE svg PUBLIC "-//W3C//DTD SVG 1.1//EN" "http://www.w3.org/Graphics/SVG/1.1/DTD/svg11.dtd">
<svg version="1.1" id="Capa_1" xmlns="http://www.w3.org/2000/svg" xmlns:xlink="http://www.w3.org/1999/xlink" x="0px" y="0px"
	 viewBox="0 0 64 64" style="enable-background:new 0 0 64 64;" xml:space="preserve">
<g>
	<path d="M16.819,5.468c-3.301,0-5.988,2.694-5.988,5.997c0,3.326,2.688,6.006,5.988,6.006c3.32,0,6.025-2.68,6.025-6.006
		C22.844,8.162,20.14,5.468,16.819,5.468z"/>
	<path d="M6.955,52.775c-0.507,0.904-0.021,1.638,1.083,1.638h3.334c1.105,0,2-0.733,2-1.638c0-0.01-0.003-0.02-0.004-0.029
		l6.835-14.165c0.652-0.001,1.305-0.256,1.794-0.762l6.712-6.939c0.053-0.054,0.093-0.116,0.14-0.175l2.615,2.494l-8.501,7.713
		c-0.62,0.562-0.977,1.358-0.984,2.195c-0.007,0.837,0.336,1.64,0.945,2.213L36.12,57.72c0.579,0.544,1.317,0.814,2.054,0.814
		c0.8,0,1.597-0.317,2.188-0.945c1.135-1.208,1.075-3.107-0.132-4.241L29.401,43.173l5.159-4.681l1.891,5.999
		c0.166,0.527,0.476,0.998,0.893,1.361l13.082,11.375c1.25,1.087,3.146,0.955,4.232-0.295c1.087-1.251,0.955-3.145-0.295-4.232
		L41.919,41.88l-1.469-4.66v-9.286c0-1.656-1.026-3.867-2.292-4.936l-9.616-9.275c-0.438-0.381-1.003-0.618-1.629-0.618
		c-1.381,0-2.5,1.119-2.5,2.5v12.526l-6.009,6.212c-0.927,0.958-0.925,2.463-0.031,3.43l-6.48,13.429
		c-0.167-0.037-0.34-0.063-0.522-0.063h-1.5C8.768,51.138,7.462,51.871,6.955,52.775z"/>
	<circle cx="10.831" cy="58.533" r="2.168"/>
</g>
</svg>
