<?xml version="1.0" encoding="iso-8859-1"?>
<!-- Generator: Adobe Illustrator 17.1.0, SVG Export Plug-In . SVG Version: 6.00 Build 0)  -->
<!DOCTYPE svg PUBLIC "-//W3C//DTD SVG 1.1//EN" "http://www.w3.org/Graphics/SVG/1.1/DTD/svg11.dtd">
<svg version="1.1" id="Capa_1" xmlns="http://www.w3.org/2000/svg" xmlns:xlink="http://www.w3.org/1999/xlink" x="0px" y="0px"
	 viewBox="0 0 64 64" style="enable-background:new 0 0 64 64;" xml:space="preserve">
<g>
	<path d="M59.546,49.446c-0.6-1.225-2.19-2.218-3.555-2.218H45.342c-0.682,0-1.528-0.469-1.89-1.046L34.695,32.21l12.96-21.262
		c0.862-1.415,0.557-2.564-0.683-2.566c-1.239-0.002-2.957,1.134-3.837,2.538L32.244,28.299L21.352,10.92
		c-0.88-1.404-2.598-2.54-3.837-2.538c-1.239,0.003-1.545,1.151-0.683,2.566l12.96,21.262l-8.757,13.973
		c-0.361,0.577-1.208,1.046-1.89,1.046H8.497c-1.364,0-2.955,0.993-3.555,2.218l-1.226,2.508c-0.6,1.225,0.021,2.219,1.385,2.219
		h14.971c0.682,0,1.522-0.472,1.878-1.054l10.294-16.888l10.294,16.888c0.356,0.582,1.196,1.054,1.878,1.054h14.971
		c1.364,0,1.984-0.994,1.385-2.219L59.546,49.446z"/>
</g>
</svg>
