<?xml version="1.0" encoding="iso-8859-1"?>
<!-- Generator: Adobe Illustrator 17.1.0, SVG Export Plug-In . SVG Version: 6.00 Build 0)  -->
<!DOCTYPE svg PUBLIC "-//W3C//DTD SVG 1.1//EN" "http://www.w3.org/Graphics/SVG/1.1/DTD/svg11.dtd">
<svg version="1.1" id="Capa_1" xmlns="http://www.w3.org/2000/svg" xmlns:xlink="http://www.w3.org/1999/xlink" x="0px" y="0px"
	 viewBox="0 0 64 64" style="enable-background:new 0 0 64 64;" xml:space="preserve">
<path d="M56.604,9.363c0.231-0.399,0.231-0.867-0.039-1.211c-0.364-0.467-1.2-0.428-1.845,0.076L29.357,28.086
	c-0.218,0.17-0.394,0.277-0.484,0.33h-0.177c-0.345,0-0.823,0.318-1.164,0.584l-4.586,3.592c-0.541,0.422-1.018,1.252-1.111,1.932
	l-0.079,0.568c-0.067,0.488-0.323,1.264-0.56,1.695l-1.785,3.275c-0.207,0.396-0.519,0.996-0.793,1.188
	c-0.374,0.26-0.928,0.41-1.604,0.438c-0.631,0.025-1.534,0.316-2.037,0.824l-9.086,9.137c-0.962,0.969-0.998,2.576-0.08,3.588
	l3.621,3.979c0.42,0.463,0.954,0.717,1.505,0.717c0.672,0,1.284-0.371,1.679-1.019l9.305-15.254l0.997,0.436
	c0.203,0.088,0.415,0.131,0.626,0.131c0.569,0,1.121-0.307,1.404-0.832l1.683-3.121c0.137-0.254,0.191-0.529,0.168-0.801
	c0.331-0.107,0.651-0.27,0.937-0.492c0.548-0.43,0.924-1.018,1.058-1.654c0.142-0.67,0.004-1.314-0.388-1.812
	c-0.065-0.084-0.145-0.152-0.223-0.223l3.185-3.037l25.038-20.955c0.682-0.568,0.919-1.232,0.592-1.65
	C56.896,9.514,56.759,9.418,56.604,9.363z M25.752,39.797l-1.683,3.121c-0.139,0.256-0.481,0.375-0.751,0.26l-0.871-0.381
	l2.197-3.602c0.329,0.232,0.727,0.369,1.159,0.396C25.801,39.662,25.788,39.73,25.752,39.797z M27.817,37.117
	c-0.086,0.408-0.333,0.789-0.696,1.074c-0.248,0.193-0.533,0.293-0.817,0.348c-0.107-0.094-0.213-0.188-0.348-0.248l-0.542-0.24
	c0.228-0.289,0.476-0.572,0.677-0.764l1.376-1.312c0.055,0.047,0.108,0.096,0.153,0.152C27.827,36.391,27.896,36.742,27.817,37.117z
	"/>
</svg>
