<?xml version="1.0" encoding="iso-8859-1"?>
<!-- Generator: Adobe Illustrator 17.1.0, SVG Export Plug-In . SVG Version: 6.00 Build 0)  -->
<!DOCTYPE svg PUBLIC "-//W3C//DTD SVG 1.1//EN" "http://www.w3.org/Graphics/SVG/1.1/DTD/svg11.dtd">
<svg version="1.1" id="Capa_1" xmlns="http://www.w3.org/2000/svg" xmlns:xlink="http://www.w3.org/1999/xlink" x="0px" y="0px"
	 viewBox="0 0 64 64" style="enable-background:new 0 0 64 64;" xml:space="preserve">
<circle cx="20.317" cy="9.08" r="4.871"/>
<path d="M57.584,20.844c-1.167-0.492-2.416-1.141-3.424-1.848c-0.453-0.316-0.636-0.189-0.445,0.328l0.335,0.912l-3.907,0.023
	C49.386,6.024,36.465,4.688,36.331,4.676c-0.82-0.072-1.555,0.533-1.629,1.359c-0.074,0.824,0.534,1.555,1.359,1.629
	c0.438,0.039,10.376,1.075,11.077,12.612l-8.09,0.048c-0.38-1.222-1.506-2.115-2.852-2.115H25.79c-0.459-1.07-1.521-1.82-2.758-1.82
	h-5.249l-6.725-3.361c-1.483-0.74-3.285-0.141-4.025,1.342c-0.741,1.483-0.141,3.283,1.341,4.025l6.229,3.113v11.834L8.621,55.137
	c-0.439,1.598,0.501,3.248,2.099,3.688c0.266,0.072,0.533,0.107,0.796,0.107c1.317,0,2.525-0.875,2.891-2.207l5.415-19.729h0.935
	l5.017,19.676c0.346,1.357,1.566,2.26,2.905,2.26c0.245,0,0.495-0.029,0.743-0.094c1.605-0.408,2.575-2.043,2.166-3.648
	l-5.556-21.792v-9.188h10.164c1.262,0,2.337-0.78,2.781-1.885c1.756-0.01,5.035-0.029,8.165-0.048
	c-0.413,10.137-9.513,13.164-9.906,13.288c-0.791,0.244-1.233,1.086-0.988,1.877c0.2,0.643,0.792,1.055,1.432,1.055
	c0.147,0,0.297-0.021,0.445-0.066c0.119-0.036,11.625-3.763,12.035-16.171c1.65-0.01,3.061-0.018,3.902-0.023l-0.326,0.914
	c-0.185,0.521,0.001,0.645,0.45,0.322c1-0.717,2.241-1.379,3.402-1.887C58.095,21.365,58.093,21.059,57.584,20.844z"/>
</svg>
