<?xml version="1.0" encoding="iso-8859-1"?>
<!-- Generator: Adobe Illustrator 17.1.0, SVG Export Plug-In . SVG Version: 6.00 Build 0)  -->
<!DOCTYPE svg PUBLIC "-//W3C//DTD SVG 1.1//EN" "http://www.w3.org/Graphics/SVG/1.1/DTD/svg11.dtd">
<svg version="1.1" id="Capa_1" xmlns="http://www.w3.org/2000/svg" xmlns:xlink="http://www.w3.org/1999/xlink" x="0px" y="0px"
	 viewBox="0 0 64 64" style="enable-background:new 0 0 64 64;" xml:space="preserve">
<path d="M35.294,10.75c0.135-0.146,0.169-0.359,0.088-0.541l-0.426-0.953l1.03-1.957c0.127-0.24,0.036-0.541-0.203-0.67
	c-0.002-0.002-0.005-0.004-0.007-0.004c-0.244-0.129-0.547-0.035-0.676,0.209l-1.017,1.932l-1.115,0.109
	c-0.221,0.019-0.401,0.184-0.443,0.402l-0.758,3.891L14.024,46.891c-0.128,0.24-0.036,0.541,0.203,0.67
	c0.002,0.002,0.004,0.004,0.007,0.004c0.244,0.129,0.547,0.035,0.676-0.209l17.751-33.736L35.294,10.75z"/>
<path d="M39.759,8.795c-0.002,0-0.005-0.002-0.007-0.002c-0.244-0.129-0.547-0.035-0.676,0.209l-1.017,1.932l-1.114,0.109
	c-0.221,0.021-0.401,0.186-0.443,0.402l-0.757,3.887L18,49.057c-0.127,0.242-0.036,0.541,0.203,0.672
	c0.002,0.002,0.005,0.002,0.007,0.004c0.244,0.129,0.547,0.035,0.676-0.211l17.749-33.732l2.636-2.871
	c0.135-0.147,0.169-0.359,0.087-0.541l-0.425-0.953l1.029-1.957C40.09,9.225,39.998,8.926,39.759,8.795z"/>
<path d="M46.573,5.158c-0.165-0.527-0.724-0.822-1.252-0.656c-0.526,0.164-0.821,0.725-0.658,1.25
	c0.01,0.031,0.184,0.607,0.408,1.619l-27.037,49.59c-0.749,0.156-1.187,0.193-1.21,0.195c-0.552,0.035-0.971,0.51-0.937,1.061
	c0.023,0.357,0.229,0.658,0.521,0.816c0.16,0.088,0.346,0.131,0.54,0.119c0.531-0.031,11.46-0.895,21.596-14.232
	c0.245,0.088,0.428,0.131,0.439,0.135c0.133,0.027,0.272,0,0.384-0.076c1.491-1.008,1.481-1.996,1.476-2.648
	c-0.003-0.344,0-0.516,0.123-0.656c0.491-0.566,1.236-1.818,1.803-2.822c0.035-0.033,0.065-0.074,0.09-0.119
	c0.023-0.043,0.04-0.088,0.051-0.135c0.024-0.045,0.047-0.086,0.066-0.127h0.001c0.357-0.672,1.218-2.328,1.463-3.168
	c0.053-0.18,0.194-0.275,0.485-0.461c0.553-0.35,1.389-0.877,1.428-2.676c0.003-0.135-0.05-0.266-0.145-0.361
	c-0.007-0.008-0.116-0.113-0.289-0.25C50.51,18.154,46.759,5.754,46.573,5.158z M44.028,30.861c-0.564,0.02-1.1,0.242-1.572,0.729
	c-1.311,1.346-1.622,1.666-1.509,2.945c0.033,0.691-1.919,4.271-2.516,4.617c-1.139,0.6-1.238,1.033-1.678,2.939
	c-0.136,0.588-0.052,1.119,0.206,1.582c-6.99,9.148-14.375,12.117-17.945,13.057L45.307,8.506
	C46.139,12.826,47.134,21.662,44.028,30.861z"/>
</svg>
