<?xml version="1.0" encoding="iso-8859-1"?>
<!-- Generator: Adobe Illustrator 17.1.0, SVG Export Plug-In . SVG Version: 6.00 Build 0)  -->
<!DOCTYPE svg PUBLIC "-//W3C//DTD SVG 1.1//EN" "http://www.w3.org/Graphics/SVG/1.1/DTD/svg11.dtd">
<svg version="1.1" id="Capa_1" xmlns="http://www.w3.org/2000/svg" xmlns:xlink="http://www.w3.org/1999/xlink" x="0px" y="0px"
	 viewBox="0 0 64 64" style="enable-background:new 0 0 64 64;" xml:space="preserve">
<path d="M60.727,13.43l-17.25,0.748c-0.148,0.006-0.258-0.002-0.313-0.006l-0.078-0.055c-0.15-0.107-0.457-0.119-0.689-0.109
	l-3.12,0.137c-0.366,0.014-0.834,0.227-1.086,0.494l-0.212,0.225c-0.181,0.191-0.535,0.449-0.772,0.564l-1.8,0.871
	c-0.158,0.08-0.377,0.191-0.553,0.241l-0.117,0.02c-0.015,0.002-0.033,0.008-0.047,0.008c-0.243-0.004-0.531-0.109-0.835-0.309
	c-0.282-0.188-0.767-0.34-1.144-0.277l-6.811,1.15c-0.599,0.103-1.035,0.6-1.124,1.181l-3.828,0.673
	c-0.43-0.237-0.917-0.385-1.443-0.385h-5.429c-1.657,0-3,1.344-3,3v13.955L5.094,57.352c-0.438,1.598,0.501,3.248,2.099,3.686
	c0.266,0.074,0.533,0.109,0.796,0.109c1.317,0,2.525-0.875,2.891-2.207l5.415-19.729h0.935l5.017,19.676
	c0.346,1.355,1.566,2.26,2.905,2.26c0.245,0,0.495-0.031,0.743-0.094c1.606-0.41,2.575-2.043,2.166-3.648l-5.556-21.792V24.806
	l13.926-2.45c1.632-0.287,2.723-1.842,2.436-3.475c-0.028-0.162-0.079-0.316-0.132-0.466c0.021-0.027,0.06-0.041,0.077-0.071
	c0.179,0.057,0.369,0.086,0.564,0.078c0.372-0.016,0.719-0.154,0.977-0.391c0.27-0.248,0.412-0.572,0.396-0.912
	c-0.003-0.057-0.016-0.111-0.029-0.166l2.337-0.33l17.45-1.33c0.474-0.035,0.785-0.25,0.772-0.535
	c-0.004-0.09-0.034-0.174-0.085-0.246c0.226-0.101,0.371-0.307,0.361-0.539C61.541,13.654,61.164,13.41,60.727,13.43z
	 M39.989,17.635c-0.165,0.152-0.391,0.24-0.638,0.252c-0.169,0.006-0.324-0.039-0.465-0.104c-0.018-0.074-0.034-0.148-0.075-0.217
	l-0.16-0.273c0.188-0.055,0.385-0.102,0.533-0.123l1.009-0.143c0.01,0.037,0.018,0.076,0.019,0.115
	C40.22,17.322,40.142,17.496,39.989,17.635z"/>
<circle cx="16.79" cy="11.295" r="4.871"/>
</svg>
