<?xml version="1.0" encoding="iso-8859-1"?>
<!-- Generator: Adobe Illustrator 17.1.0, SVG Export Plug-In . SVG Version: 6.00 Build 0)  -->
<!DOCTYPE svg PUBLIC "-//W3C//DTD SVG 1.1//EN" "http://www.w3.org/Graphics/SVG/1.1/DTD/svg11.dtd">
<svg version="1.1" id="Capa_1" xmlns="http://www.w3.org/2000/svg" xmlns:xlink="http://www.w3.org/1999/xlink" x="0px" y="0px"
	 viewBox="0 0 64 64" style="enable-background:new 0 0 64 64;" xml:space="preserve">
<g>
	<path d="M17.948,16.971c3.32,0,6.024-2.68,6.024-6.006c0-3.303-2.704-5.997-6.024-5.997c-3.301,0-5.988,2.694-5.988,5.997
		C11.96,14.291,14.647,16.971,17.948,16.971z"/>
	<path d="M58.375,56.5h-2.659c0.023-0.024,0.05-0.042,0.071-0.067c1.087-1.251,0.955-3.145-0.295-4.232L43.048,41.38l-1.469-4.66
		v-9.286c0-1.657-1.026-3.867-2.292-4.936c0,0-9.295-9.305-9.578-9.57c-1.007-0.946-2.59-0.894-3.534,0.112l-8,8.524
		c-0.457,0.487-0.7,1.136-0.675,1.804l0.447,12.044c0.035,0.958,0.609,1.761,1.416,2.15l-6.341,13.14
		c-0.167-0.037-0.34-0.063-0.521-0.063h-1.5c-1.104,0-2.41,0.733-2.917,1.638c-0.507,0.904-0.021,1.638,1.083,1.638h3.334
		c1.104,0,2-0.733,2-1.638c0-0.01-0.003-0.02-0.004-0.029l6.835-14.165c0.653-0.001,1.306-0.256,1.795-0.762l6.712-6.939
		c0.053-0.054,0.093-0.117,0.14-0.175l2.615,2.494l-8.501,7.713c-0.62,0.562-0.977,1.358-0.984,2.195
		c-0.007,0.837,0.336,1.64,0.945,2.213l12.43,11.68H35.75c-0.036,0-0.072,0.002-0.108,0.006c-0.043,0.005-0.982,0.098-1.331-0.825
		c-0.193-0.517-0.769-0.778-1.288-0.583c-0.517,0.194-0.778,0.771-0.583,1.288c0.639,1.695,2.188,2.123,3.127,2.123
		c0.082,0,0.159-0.003,0.23-0.009h7.578c0.553,0,1-0.447,1-1c0-0.553-0.447-1-1-1h-1.464c0.661-1.175,0.474-2.689-0.553-3.653
		L30.53,42.673l5.159-4.681l1.891,5.999c0.166,0.527,0.476,0.998,0.893,1.361L51.293,56.5H50.75c-0.036,0-0.072,0.002-0.108,0.006
		c-0.042,0.005-0.982,0.098-1.331-0.825c-0.194-0.517-0.771-0.778-1.288-0.583c-0.517,0.194-0.778,0.771-0.583,1.288
		c0.639,1.695,2.188,2.123,3.127,2.123c0.082,0,0.159-0.003,0.23-0.009h7.578c0.553,0,1-0.447,1-1
		C59.375,56.947,58.928,56.5,58.375,56.5z M25.542,27.63l-2.774,2.868l-0.232-6.274l3.007-3.204V27.63z"/>
	<path d="M13.499,56.033H8.883c-0.553,0-1,0.447-1,1c0,0.553,0.447,1,1,1h4.616c0.553,0,1-0.447,1-1
		C14.499,56.48,14.052,56.033,13.499,56.033z"/>
</g>
</svg>
