<?xml version="1.0" encoding="iso-8859-1"?>
<!-- Generator: Adobe Illustrator 17.1.0, SVG Export Plug-In . SVG Version: 6.00 Build 0)  -->
<!DOCTYPE svg PUBLIC "-//W3C//DTD SVG 1.1//EN" "http://www.w3.org/Graphics/SVG/1.1/DTD/svg11.dtd">
<svg version="1.1" id="Capa_1" xmlns="http://www.w3.org/2000/svg" xmlns:xlink="http://www.w3.org/1999/xlink" x="0px" y="0px"
	 viewBox="0 0 64 64" style="enable-background:new 0 0 64 64;" xml:space="preserve">
<g>
	<path style="fill:#1D1D1B;" d="M54.855,20.922c0.295-0.361,0.465-0.815,0.465-1.315c0-1.146-0.924-2.076-2.076-2.076
		c-0.508,0-0.973,0.181-1.328,0.488l-5.123,5.111l-6.185-6.18c-0.471-0.452-1.104-0.742-1.817-0.742l-9.695,0.006
		c-0.623,0-1.178,0.284-1.552,0.725l-6.692,7.712c-0.416,0.368-0.676,0.905-0.676,1.509c0,1.104,0.895,2.002,2.01,2.002
		c0.622,0,1.182-0.277,1.551-0.729l6.209-7.176l3.578,0.019L19.844,36.135l-9.251-0.024c-0.211-0.006-0.428,0.013-0.652,0.06
		c-1.387,0.308-2.25,1.671-1.931,3.06c0.272,1.219,1.364,2.039,2.565,2.022l10.752-0.019c2.275,0.079,3.139-0.978,3.139-0.978
		l5.304-5.914l6.161,5.992l-2.498,11.121c-0.06,0.205-0.085,0.424-0.085,0.652c0,1.424,1.159,2.582,2.583,2.582
		c1.243,0,2.287-0.887,2.527-2.062L41.5,39.066c0.652-2.111-0.487-3.174-0.487-3.174l-5.432-5.424l5.925-6.85l3.79,3.808
		c0,0,1.509,1.587,3.379-0.283L54.855,20.922z"/>
	<path style="fill:#1D1D1B;" d="M9.842,46.197c0.253,0,0.502-0.046,0.742-0.14l1.861-0.732c0.514-0.202,0.767-0.783,0.565-1.297
		c-0.203-0.514-0.782-0.765-1.297-0.564l-1.861,0.732c-0.226,0.086-1.32-0.624-2.029-2.426l-2.471-6.281
		c-0.201-0.514-0.782-0.766-1.297-0.564c-0.514,0.202-0.767,0.783-0.564,1.297l2.471,6.281C6.848,44.756,8.415,46.197,9.842,46.197z
		"/>
	<path style="fill:#1D1D1B;" d="M43.382,52.875c0-0.553-0.448-1-1-1c-0.552,0-1,0.447-1,1v2c0,0.249-1.064,1-3,1h-6.75
		c-0.552,0-1,0.447-1,1c0,0.553,0.448,1,1,1h6.75c2.851,0,5-1.29,5-3V52.875z"/>
	<path style="fill:#1D1D1B;" d="M45.261,17.287c2.663,0,4.821-2.166,4.821-4.828c0-2.664-2.158-4.823-4.821-4.823
		c-2.664,0-4.829,2.159-4.829,4.823C40.432,15.121,42.597,17.287,45.261,17.287z"/>
</g>
</svg>
