<?xml version="1.0" encoding="iso-8859-1"?>
<!-- Generator: Adobe Illustrator 17.1.0, SVG Export Plug-In . SVG Version: 6.00 Build 0)  -->
<!DOCTYPE svg PUBLIC "-//W3C//DTD SVG 1.1//EN" "http://www.w3.org/Graphics/SVG/1.1/DTD/svg11.dtd">
<svg version="1.1" id="Capa_1" xmlns="http://www.w3.org/2000/svg" xmlns:xlink="http://www.w3.org/1999/xlink" x="0px" y="0px"
	 viewBox="0 0 64 64" style="enable-background:new 0 0 64 64;" xml:space="preserve">
<g>
	<path d="M24.876,10.862c0.148,0.041,0.35,0.125,0.594,0.225l0.037,0.015c1.031,1.375,2.653,2.191,4.37,2.191
		c1.76,0,3.407-0.847,4.434-2.273l0.32-0.136c0.247-0.107,0.46-0.2,0.612-0.247c0.955-0.29,1.674-1.302,1.674-2.354V6.854
		c0-1.099-0.848-2.062-1.93-2.191c-0.216-0.026-0.458-0.054-0.72-0.08c-1.03-1.39-2.654-2.213-4.391-2.213
		c-1.778,0-3.423,0.855-4.449,2.299l-0.285,0.024c-1.103,0.101-1.968,1.05-1.968,2.161v1.653
		C23.175,9.414,23.77,10.547,24.876,10.862z M24.877,6.847c0-0.24,0.207-0.469,0.442-0.49c0.962-0.086,2.86-0.238,4.766-0.288
		c0.216-0.006,0.432-0.009,0.646-0.009c1.597,0,3.101,0.142,4.082,0.26c0.237,0.029,0.454,0.28,0.454,0.527v1.428
		c0,0.305-0.241,0.678-0.485,0.752c-0.221,0.066-0.489,0.182-0.807,0.319c-0.906,0.392-2.148,0.93-3.919,0.986l-0.274,0.005
		c-1.66,0-2.819-0.471-3.665-0.814c-0.296-0.12-0.548-0.222-0.761-0.282c-0.237-0.066-0.479-0.44-0.479-0.74V6.847z"/>
	<path d="M13.456,51.68c-0.161,0.057-0.322,0.125-0.477,0.221l-1.274,0.792c-0.938,0.582-1.661,1.893-1.614,2.93
		c0.046,1.035,0.846,1.402,1.784,0.82l2.833-1.759c0.938-0.583,1.312-1.678,0.835-2.446c-0.005-0.009-0.013-0.016-0.019-0.023
		L12.05,27.201l0.129,0.066c0.389,0.199,0.812,0.298,1.233,0.298c0.552,0,1.102-0.169,1.568-0.501l7.971-5.665l-0.057,7.745
		c-0.005,0.747-0.131,1.946-0.279,2.679l-2.393,11.781c-0.149,0.732,0.333,1.384,1.078,1.455l0.003,0.001l-2.041,9.448
		c-0.253,1.173,0.303,2.321,1.285,2.896l-0.808,2.551c-0.15,0.476,0.112,0.982,0.587,1.133c0.091,0.028,0.183,0.042,0.273,0.042
		c0.383,0,0.738-0.245,0.86-0.63l0.809-2.557c0.02-0.063,0.015-0.127,0.021-0.19c1.089-0.156,2.018-0.966,2.264-2.103l2.176-10.07
		l0.109,0.011c0.744,0.071,1.451-0.468,1.58-1.204l1.226-7.032c0.128-0.735,0.35-0.738,0.495-0.006l1.392,7.043
		c0.145,0.734,0.861,1.232,1.599,1.114l0.101-0.017l2.195,10.161c0.274,1.268,1.396,2.135,2.643,2.135
		c0.034,0,0.068-0.01,0.102-0.011c0.006,0.057,0,0.112,0.018,0.169l0.809,2.557c0.122,0.385,0.477,0.63,0.86,0.63
		c0.09,0,0.182-0.014,0.273-0.042c0.475-0.15,0.738-0.657,0.588-1.133L39.909,57.4c-0.028-0.089-0.08-0.162-0.13-0.235
		c0.76-0.623,1.16-1.63,0.938-2.656l-2.133-9.875l0.331-0.053c0.738-0.118,1.18-0.799,0.988-1.521l-3.024-11.34
		c-0.192-0.723-0.339-1.913-0.328-2.661l0.123-8.336l4.185,1.402c0.281,0.093,0.571,0.14,0.86,0.14c0.533,0,1.06-0.157,1.513-0.462
		l10.036-6.767c1.24-0.835,1.567-2.518,0.732-3.757c-0.836-1.239-2.518-1.566-3.757-0.73l-8.929,6.019l-4.204-1.409
		c-0.53-0.177-1.077-0.182-1.578-0.043c-0.042-0.003-0.083-0.013-0.127-0.013H24.352c-0.059,0-0.115,0.011-0.172,0.018
		c-0.76-0.213-1.605-0.093-2.298,0.398l-8.697,6.181l-2.044-1.047l-1.052-7.572c-0.058-0.549-0.551-0.947-1.1-0.889
		c-0.548,0.059-0.947,0.552-0.889,1.1l0.907,6.501c-1.058-0.085-2.112,0.46-2.626,1.463c-0.682,1.33-0.155,2.962,1.175,3.643
		l2.33,1.194L13.456,51.68z"/>
</g>
</svg>
