<?xml version="1.0" encoding="iso-8859-1"?>
<!-- Generator: Adobe Illustrator 17.1.0, SVG Export Plug-In . SVG Version: 6.00 Build 0)  -->
<!DOCTYPE svg PUBLIC "-//W3C//DTD SVG 1.1//EN" "http://www.w3.org/Graphics/SVG/1.1/DTD/svg11.dtd">
<svg version="1.1" id="Capa_1" xmlns="http://www.w3.org/2000/svg" xmlns:xlink="http://www.w3.org/1999/xlink" x="0px" y="0px"
	 viewBox="0 0 64 64" style="enable-background:new 0 0 64 64;" xml:space="preserve">
<g>
	<path style="fill:#1D1D1B;" d="M55.05,23.091c-2.664,0-4.829,2.159-4.829,4.823c0,2.662,2.165,4.828,4.829,4.828
		c2.663,0,4.821-2.166,4.821-4.828C59.871,25.25,57.713,23.091,55.05,23.091z"/>
	<path style="fill:#1D1D1B;" d="M9.25,33.957l-1.997-0.124c-0.054-0.003-0.276-0.17-0.48-0.65c-0.267-0.628-0.388-1.505-0.331-2.406
		L6.86,24.04c0.034-0.552-0.385-1.026-0.936-1.06c-0.538-0.018-1.026,0.385-1.06,0.935l-0.419,6.736
		c-0.076,1.219,0.097,2.396,0.486,3.313c0.486,1.145,1.266,1.807,2.197,1.864l1.997,0.124c0.021,0.001,0.042,0.002,0.063,0.002
		c0.524,0,0.964-0.408,0.997-0.938C10.22,34.466,9.801,33.991,9.25,33.957z"/>
	<path style="fill:#1D1D1B;" d="M33.207,49.709c-0.553,0-1,0.447-1,1v2c0,0.249-1.064,1-3,1h-6.75c-0.552,0-1,0.447-1,1s0.448,1,1,1
		h6.75c2.851,0,5-1.29,5-3v-2C34.207,50.156,33.76,49.709,33.207,49.709z"/>
	<path style="fill:#1D1D1B;" d="M47.685,24.203L32.807,13.769c-1.129-0.792-2.689-0.518-3.482,0.611
		c-0.793,1.131-0.519,2.689,0.611,3.482l11.247,7.887H24.5h-14c-1.657,0-3,1.343-3,3c0,1.657,1.343,3,3,3h13.833V49.5
		c0,1.657,1.343,3,3,3c1.657,0,3-1.343,3-3V33.75H45.75c1.657,0,3-1.343,3-3v-5h-0.057C48.57,25.146,48.229,24.585,47.685,24.203z"
		/>
</g>
</svg>
