<?xml version="1.0" encoding="iso-8859-1"?>
<!-- Generator: Adobe Illustrator 17.1.0, SVG Export Plug-In . SVG Version: 6.00 Build 0)  -->
<!DOCTYPE svg PUBLIC "-//W3C//DTD SVG 1.1//EN" "http://www.w3.org/Graphics/SVG/1.1/DTD/svg11.dtd">
<svg version="1.1" id="Capa_1" xmlns="http://www.w3.org/2000/svg" xmlns:xlink="http://www.w3.org/1999/xlink" x="0px" y="0px"
	 viewBox="0 0 64 64" style="enable-background:new 0 0 64 64;" xml:space="preserve">
<g>
	<path d="M24.112,37.76L15.39,53.888c-0.773,1.43-0.241,3.217,1.189,3.99c0.445,0.241,0.925,0.356,1.398,0.356
		c1.046,0,2.059-0.56,2.592-1.545l7.803-14.428c0.044,0.127,0.085,0.256,0.148,0.379l3.096,6.057l-4.076,7.872
		c-0.748,1.443-0.183,3.22,1.26,3.968c0.433,0.224,0.896,0.33,1.352,0.33c1.065,0,2.093-0.58,2.616-1.591l4.773-9.216
		c0.437-0.844,0.44-1.848,0.007-2.693l-2.859-5.595l7.488-13.407h12.052c1.162,0,2.103-0.941,2.103-2.104
		c0-1.161-0.942-2.102-2.103-2.102H42.996l-8.629-2.867l-4.694-1.918l2.753-4.943c0.242-0.546,0.23-1.138,0.02-1.65h7.458
		c-2.152,0.366-3.799,2.236-3.799,4.492c0,2.531,2.045,4.584,4.56,4.584c2.532,0,4.585-2.053,4.585-4.584
		c0-2.256-1.654-4.126-3.819-4.492h17.728c0.552,0,1-0.447,1-1c0-0.553-0.448-1-1-1H19.625c-0.552,0-1,0.447-1,1
		c0,0.553,0.448,1,1,1h8.927l-3.603,6.866c-0.231,0.519-0.242,1.111-0.029,1.639c0.212,0.527,0.629,0.947,1.155,1.162l5.615,2.294
		l-7.433,12.805C24.21,37.617,24.154,37.682,24.112,37.76z"/>
</g>
</svg>
