<?xml version="1.0" encoding="iso-8859-1"?>
<!-- Generator: Adobe Illustrator 17.1.0, SVG Export Plug-In . SVG Version: 6.00 Build 0)  -->
<!DOCTYPE svg PUBLIC "-//W3C//DTD SVG 1.1//EN" "http://www.w3.org/Graphics/SVG/1.1/DTD/svg11.dtd">
<svg version="1.1" id="Capa_1" xmlns="http://www.w3.org/2000/svg" xmlns:xlink="http://www.w3.org/1999/xlink" x="0px" y="0px"
	 viewBox="0 0 64 64" style="enable-background:new 0 0 64 64;" xml:space="preserve">
<g>
	<circle cx="15.851" cy="10.121" r="4.256"/>
	<path d="M56.5,40.455H15.804c0.027-0.147,0.046-0.297,0.046-0.452V28.31l4.396,1.268c0.221,0.064,0.451,0.096,0.682,0.096h8.021
		c1.359,0,2.461-1.102,2.461-2.46s-1.102-2.461-2.461-2.461h-7.672l-1.187-0.342c-0.016-0.013-0.021-0.025-0.04-0.037l-3.434-2.177
		c-0.329-0.208-0.526-0.684-0.442-1.062l0.382-1.73l1.363-0.883l7.931-2.287c0.933-0.269,1.471-1.243,1.202-2.176
		c-0.269-0.932-1.243-1.469-2.176-1.202l-8.182,2.359c-0.166,0.048-0.324,0.12-0.469,0.214l-0.782,0.508l-2.484-0.697
		c-0.018-0.021-0.029-0.044-0.047-0.065l-2.521-2.856L9.637,8.626c-0.195-0.951-1.123-1.561-2.075-1.37
		C6.611,7.45,5.998,8.379,6.192,9.33l0.849,4.152c0.062,0.301,0.201,0.58,0.404,0.811l2.548,2.888l-0.56,3.675
		c-0.104,0.374-0.033,0.952,0.157,1.29l1.479,3.575c-0.086,0.249-0.142,0.512-0.142,0.79v13.492c0,0.155,0.018,0.305,0.046,0.452
		H7.5c-1.104,0-2,0.896-2,2v2.874c0,1.104,0.896,2,2,2h49c1.104,0,2-0.896,2-2v-2.874C58.5,41.351,57.604,40.455,56.5,40.455z"/>
</g>
</svg>
