<?xml version="1.0" encoding="iso-8859-1"?>
<!-- Generator: Adobe Illustrator 17.1.0, SVG Export Plug-In . SVG Version: 6.00 Build 0)  -->
<!DOCTYPE svg PUBLIC "-//W3C//DTD SVG 1.1//EN" "http://www.w3.org/Graphics/SVG/1.1/DTD/svg11.dtd">
<svg version="1.1" id="Capa_1" xmlns="http://www.w3.org/2000/svg" xmlns:xlink="http://www.w3.org/1999/xlink" x="0px" y="0px"
	 viewBox="0 0 64 64" style="enable-background:new 0 0 64 64;" xml:space="preserve">
<g>
	<path d="M8.219,12.734c-0.703,1.189-0.31,2.722,0.879,3.424l13.448,7.954c0.053,0.031,0.111,0.043,0.165,0.07v2.703l-2.915-3.135
		c-0.941-1.013-2.521-1.068-3.533-0.129c-1.012,0.94-1.068,2.522-0.129,3.533l6.314,6.789c-0.104,0.17-0.202,0.345-0.278,0.537
		l-2.341,5.897c-0.295,0.741-0.327,1.56-0.092,2.323l4.336,14.049c0.347,1.124,1.209,1.946,2.246,2.29l1.201,2.472
		c0.173,0.357,0.529,0.564,0.9,0.564c0.147,0,0.295-0.032,0.436-0.101c0.497-0.241,0.704-0.84,0.463-1.336l-0.784-1.613
		c0.159-0.054,0.31-0.119,0.456-0.193l0.784,1.613c0.173,0.356,0.529,0.563,0.9,0.563c0.146,0,0.295-0.032,0.436-0.101
		c0.497-0.241,0.704-0.84,0.463-1.336l-1.072-2.206c0.425-0.795,0.547-1.753,0.26-2.682l-3.973-12.871l1.791-4.512l16.095,19.514
		c0.692,0.84,1.693,1.273,2.702,1.273c0.225,0,0.449-0.028,0.671-0.071l1.804,1.594c0.19,0.168,0.427,0.25,0.662,0.25
		c0.276,0,0.552-0.114,0.749-0.338c0.366-0.414,0.327-1.046-0.087-1.411l-1.275-1.126c0.115-0.122,0.222-0.247,0.317-0.381
		l1.304,1.152c0.19,0.169,0.427,0.251,0.662,0.251c0.276,0,0.552-0.114,0.749-0.338c0.366-0.414,0.327-1.046-0.087-1.411
		l-1.988-1.756c-0.018-0.756-0.265-1.512-0.784-2.141l-17.45-21.157v-9.01c0-1.105-0.896-2-2-2h-5.049
		c-0.145-0.144-0.302-0.277-0.486-0.386l-13.448-7.954C10.456,11.152,8.921,11.546,8.219,12.734z"/>
	<circle cx="27.417" cy="13" r="5"/>
</g>
</svg>
