<?xml version="1.0" encoding="iso-8859-1"?>
<!-- Generator: Adobe Illustrator 17.1.0, SVG Export Plug-In . SVG Version: 6.00 Build 0)  -->
<!DOCTYPE svg PUBLIC "-//W3C//DTD SVG 1.1//EN" "http://www.w3.org/Graphics/SVG/1.1/DTD/svg11.dtd">
<svg version="1.1" id="Capa_1" xmlns="http://www.w3.org/2000/svg" xmlns:xlink="http://www.w3.org/1999/xlink" x="0px" y="0px"
	 viewBox="0 0 64 64" style="enable-background:new 0 0 64 64;" xml:space="preserve">
<g>
	<circle cx="33.729" cy="12.187" r="5.365"/>
	<path d="M14.483,28.114c0.246,0.063,0.5,0.096,0.754,0.096c1.432,0,2.822-1.032,3.668-2.593l8.307-1.719v15.578h0.021v18.842
		c0,1.505,1.22,2.725,2.724,2.725c1.505,0,2.724-1.22,2.724-2.725V39.477h1.703v18.842c0,1.505,1.22,2.725,2.724,2.725
		s2.724-1.22,2.724-2.725V39.477h0.019V23.905l8.064,1.668c0.844,1.584,2.244,2.636,3.689,2.637c0.255,0,0.509-0.033,0.754-0.096
		c1.044-0.271,1.894-1.104,2.333-2.287c0.403-1.086,0.444-2.385,0.115-3.658c-0.616-2.383-2.332-4.05-4.188-4.098L46.425,3.302
		c-0.137-0.482-0.639-0.762-1.121-0.625c-0.483,0.137-0.762,0.639-0.626,1.121l4.2,14.789c-0.62,0.413-1.126,1.044-1.428,1.857
		c-0.044,0.12-0.068,0.251-0.103,0.376l-8.954-1.852c-0.318-0.066-0.633-0.06-0.931,0.003h-7.889
		c-0.298-0.063-0.613-0.07-0.931-0.003l-9.135,1.89c-0.038-0.138-0.065-0.281-0.114-0.413c-0.303-0.813-0.809-1.443-1.429-1.857
		l4.2-14.789c0.136-0.483-0.143-0.984-0.626-1.121c-0.482-0.136-0.984,0.143-1.121,0.625l-4.194,14.769
		c-1.856,0.048-3.572,1.715-4.188,4.098c-0.33,1.273-0.289,2.572,0.115,3.658C12.589,27.01,13.44,27.843,14.483,28.114z
		 M49.152,21.076c0.135-0.363,0.455-0.997,1.086-1.16c0.097-0.025,0.198-0.038,0.3-0.038c0.885,0,2.066,1.027,2.511,2.746
		c0.233,0.903,0.213,1.84-0.059,2.57c-0.136,0.363-0.456,0.997-1.086,1.16c-0.393,0.103-0.86-0.03-1.309-0.345
		c0.954-0.102,1.777-0.8,1.983-1.79c0.254-1.227-0.535-2.429-1.763-2.683l-1.691-0.35C49.134,21.151,49.139,21.111,49.152,21.076z
		 M13.794,22.625c0.445-1.719,1.625-2.746,2.511-2.746c0.102,0,0.203,0.013,0.3,0.038c0.63,0.163,0.951,0.796,1.086,1.16
		c0.017,0.046,0.025,0.1,0.04,0.148l-1.51,0.312c-1.227,0.254-2.017,1.455-1.763,2.683c0.193,0.932,0.932,1.611,1.815,1.773
		c-0.455,0.327-0.932,0.467-1.332,0.363c-0.631-0.163-0.951-0.797-1.086-1.16C13.581,24.464,13.56,23.528,13.794,22.625z"/>
</g>
</svg>
