<?xml version="1.0" encoding="iso-8859-1"?>
<!-- Generator: Adobe Illustrator 17.1.0, SVG Export Plug-In . SVG Version: 6.00 Build 0)  -->
<!DOCTYPE svg PUBLIC "-//W3C//DTD SVG 1.1//EN" "http://www.w3.org/Graphics/SVG/1.1/DTD/svg11.dtd">
<svg version="1.1" id="Capa_1" xmlns="http://www.w3.org/2000/svg" xmlns:xlink="http://www.w3.org/1999/xlink" x="0px" y="0px"
	 viewBox="0 0 64 64" style="enable-background:new 0 0 64 64;" xml:space="preserve">
<g>
	<path d="M15.985,23.229H6.777c-2.718,0-4.93,2.211-4.93,4.93v9.207c0,2.719,2.212,4.93,4.93,4.93h9.208
		c2.718,0,4.929-2.211,4.929-4.93v-9.207C20.914,25.44,18.703,23.229,15.985,23.229z M4.498,34.097
		c0.999-0.335,2.021-0.665,2.891-0.94c-0.01-0.104-0.008-0.207,0.014-0.315l0.876-4.118c0.099-0.46,0.487-0.799,0.954-0.831
		l5.504-0.398c0.584-0.037,1.084,0.395,1.127,0.975c0.041,0.579-0.394,1.084-0.975,1.125l-4.715,0.342l-0.538,2.53
		c0.034,0.029,0.251,0.222,0.371,0.318c0.098,0.079,0.196,0.16,0.288,0.244c-0.547,0.583-0.885,1.365-0.885,2.227
		c0,0.274,0.035,0.539,0.1,0.795L8.06,36.966c-0.017,0.009-0.202,0.009-0.225-0.003l-1.858-1.206
		c-0.405-0.264-0.98-0.327-1.479-0.207V34.097z M15.426,35.255c0,0.213-0.026,0.42-0.072,0.619l-1.683,1.092
		c0,0-0.023,0.006-0.058,0.006c-0.043,0-0.074-0.011-0.084-0.016l-1.496-1.127c-0.551-0.414-1.435-0.452-2.02-0.084l-0.059,0.036
		c-0.032-0.17-0.051-0.347-0.051-0.526c0-1.525,1.236-2.762,2.761-2.762C14.19,32.493,15.426,33.729,15.426,35.255z M17.947,38.505
		l-1.295-1.08c-0.114-0.096-0.348-0.11-0.473-0.029l-1.861,1.207c-0.482,0.312-1.19,0.288-1.647-0.058l-1.502-1.131
		c-0.127-0.095-0.39-0.107-0.523-0.022l-1.934,1.222c-0.471,0.296-1.178,0.291-1.644-0.011l-1.861-1.207
		c-0.142-0.09-0.423-0.09-0.562,0.002l-0.137,0.09c-0.002-0.04-0.012-0.08-0.012-0.121v-0.97c0.416-0.113,0.898-0.059,1.248,0.169
		l1.861,1.208c0.143,0.093,0.434,0.094,0.578,0.003l1.934-1.222c0.483-0.304,1.19-0.274,1.647,0.068l1.502,1.133
		c0.123,0.092,0.381,0.102,0.512,0.017l1.861-1.206c0.489-0.317,1.197-0.276,1.645,0.098l0.968,0.808
		C18.236,37.847,18.127,38.197,17.947,38.505z"/>
	<path d="M37.128,23.229H27.92c-2.718,0-4.93,2.211-4.93,4.93v9.207c0,2.719,2.212,4.93,4.93,4.93h9.208
		c2.718,0,4.929-2.211,4.929-4.93v-9.207C42.057,25.44,39.846,23.229,37.128,23.229z M29.717,39.646H27.92
		c-1.257,0-2.279-1.023-2.279-2.28v-5.322c2.635,0.276,4.696,2.474,4.696,5.181C30.337,38.104,30.1,38.92,29.717,39.646z
		 M39.407,37.366c0,1.257-1.022,2.28-2.279,2.28h-1.614c-0.383-0.727-0.62-1.542-0.62-2.422c0-2.646,1.969-4.806,4.514-5.161V37.366
		z M39.407,29.735c-0.142,0.111-0.327,0.191-0.579,0.191h-3.709c-0.28,0.005-0.581-0.133-0.8-0.479l-1.246-1.953l-2.575,2.548
		l2.387,1.256c0.98,0.473,0.833,1.332,0.833,1.332v5.404c0,0.613-0.495,1.112-1.107,1.112c-0.613,0-1.107-0.501-1.107-1.112V33.71
		l-4.135-2.3c-0.494-0.273-0.83-0.806-0.83-1.404c0-0.414,0.152-0.792,0.414-1.076l3.045-3.051h3.998l1.629,2.553l3.203-0.008
		c0.252,0,0.438,0.08,0.579,0.192V29.735z"/>
	<path d="M57.693,23.183h-9.208c-2.719,0-4.929,2.211-4.929,4.93v9.207c0,2.719,2.21,4.93,4.929,4.93h9.208
		c2.718,0,4.929-2.211,4.929-4.93v-9.207C62.622,25.394,60.411,23.183,57.693,23.183z M48.485,39.6c-1.257,0-2.279-1.023-2.279-2.28
		v-1.021c0.597-0.408,1.39-0.798,2.425-1.165c0.184-0.065,0.365-0.065,0.531-0.022c-0.06-0.994,0.012-1.654,0.021-1.73
		c0.028-0.245,0.249-0.416,0.496-0.393c0.244,0.028,0.42,0.25,0.393,0.496c-0.004,0.039-0.315,3.058,1.185,6.115H48.485z
		 M59.973,29.191c-0.622,0.552-1.256,1.214-1.65,1.901c0.014,0.045,0.021,0.092,0.021,0.138c0.001,0.148-0.07,0.283-0.201,0.379
		c-0.663,0.485-2.211,1.619-2.508,3.618c-0.24,1.624-0.188,3.278-0.104,4.372h-3.306c-0.631-1.207-1.181-2.762-1.162-4.537
		c0.005-0.353,0.187-0.838,0.224-0.932c0.154-0.397,0.292-0.977,0.065-1.472c-0.356-0.784-0.831-5.024-1.017-6.812
		c0-0.004,0.001-0.011,0-0.015h5.455c-0.066,0.083-0.139,0.166-0.214,0.25c-0.36,0.409-0.734,0.829-0.721,1.445
		c0.022,0.924,0.543,1.984,1.016,2.399c0.129,0.11,0.271,0.019,0.304-0.017c0.199-0.211,0.6-0.194,0.871,0.032
		c0.181,0.152,0.409,0.336,0.626,0.508c0.593-0.933,1.518-1.793,2.292-2.419c0.001,0.028,0.009,0.054,0.009,0.081V29.191z"/>
	<polygon points="52.28,30.153 52.414,30.924 55.005,31.277 54.763,30.45 	"/>
	<polygon points="52.576,32.16 52.688,32.929 54.791,33.271 54.589,32.446 	"/>
	<polygon points="53.836,28.351 51.947,28.067 52.055,28.837 54.028,29.175 	"/>
</g>
</svg>
