<?xml version="1.0" encoding="iso-8859-1"?>
<!-- Generator: Adobe Illustrator 17.1.0, SVG Export Plug-In . SVG Version: 6.00 Build 0)  -->
<!DOCTYPE svg PUBLIC "-//W3C//DTD SVG 1.1//EN" "http://www.w3.org/Graphics/SVG/1.1/DTD/svg11.dtd">
<svg version="1.1" id="Capa_1" xmlns="http://www.w3.org/2000/svg" xmlns:xlink="http://www.w3.org/1999/xlink" x="0px" y="0px"
	 viewBox="0 0 64 64" style="enable-background:new 0 0 64 64;" xml:space="preserve">
<g>
	<path d="M60.906,36.065c-0.659-0.296-1.902-1.154-2.999-1.912l-0.884-0.607c-2.798-1.905-6.785-4.055-9.637-5.523
		c-0.598-0.308-1.194-0.464-1.772-0.464c-0.914,0-1.642,0.392-2.11,0.687c-0.062,0.039-0.138,0.058-0.232,0.058
		c-0.696,0-1.866-0.949-2.428-1.406c-1.098-0.89-2.64-1.074-3.168-0.357c-0.495,0.671-0.348,1.664,0.334,2.261
		c0.312,0.273,0.673,0.934,0.966,1.765c0.122,0.346-0.333,0.98-1.181,1.338c-0.993,0.42-3.142,0.727-4.734,0.644
		c-3.979-0.202-6.684-0.362-7.823-0.464c-0.688-0.062-1.395-0.226-2.101-0.488c-1.183-0.44-3.426-1.206-5.144-1.381l-2.169-0.22
		c-0.526-0.054-1.083-0.082-1.612-0.082c-0.717,0-2.002,0.052-2.542,0.398c-0.22,0.141-0.443,0.191-0.578,0.191
		c-0.064,0-0.101-0.011-0.091-0.002c-0.408-0.388-1.145-0.4-1.613-0.029c-0.85,0.673,0.35,2.462,0.599,2.813
		c0.531,0.75,0.443,1.944-0.192,2.607c-0.773,0.809-1.69,1.325-2.064,1.325c-0.001,0-0.001,0-0.001,0
		c-0.703,0-2.506,0.402-3.846,0.781c-0.966,0.273-3.214,1.012-3.214,1.962c0,0.646,0.572,1.171,1.175,1.152
		c0.118,0.086,0.348,0.626,0.348,1.481c0,1.231,0.612,2.692,1.393,3.326c0.842,0.683,2.961,1.091,4.523,1.091h30.496
		c1.758,0,4.471-0.235,6.046-0.523c1.41-0.258,3.554-0.666,5.762-1.151c2.784-0.613,4.697-1.188,5.848-1.756
		c0.851-0.421,1.642-0.92,2.349-1.485c0.338-0.268,0.682-0.557,1.021-0.841c0.842-0.706,1.797-1.507,2.279-1.639
		c0.674-0.184,1.164-0.549,1.346-1.004c0.119-0.298,0.094-0.61-0.071-0.882C62.836,37.157,61.751,36.445,60.906,36.065z"/>
</g>
</svg>
