<?xml version="1.0" encoding="iso-8859-1"?>
<!-- Generator: Adobe Illustrator 17.1.0, SVG Export Plug-In . SVG Version: 6.00 Build 0)  -->
<!DOCTYPE svg PUBLIC "-//W3C//DTD SVG 1.1//EN" "http://www.w3.org/Graphics/SVG/1.1/DTD/svg11.dtd">
<svg version="1.1" id="Capa_1" xmlns="http://www.w3.org/2000/svg" xmlns:xlink="http://www.w3.org/1999/xlink" x="0px" y="0px"
	 viewBox="0 0 64 64" style="enable-background:new 0 0 64 64;" xml:space="preserve">
<g>
	<circle cx="30.012" cy="20.378" r="3.784"/>
	<path d="M60.906,46.869c-0.66-0.297-1.905-1.157-3.005-1.916l-0.878-0.603c-2.794-1.901-6.782-4.053-9.637-5.523
		c-0.598-0.308-1.194-0.464-1.772-0.464c-0.915,0-1.642,0.392-2.111,0.687c-0.062,0.039-0.138,0.058-0.231,0.058
		c-0.697,0-1.866-0.949-2.428-1.405c-0.515-0.418-1.126-0.674-1.686-0.76c0.087-0.719-0.309-1.435-1.015-1.715l-6.271-2.492
		l-1.321-5.469c-0.003-0.011-0.009-0.021-0.013-0.033c0.006-0.4-0.24-0.799-0.619-0.934l-4.295-1.539
		c-0.426-0.152-0.938,0.05-1.145,0.454l-6.182,12.023c-0.208,0.4-0.104,0.977,0.23,1.282l3.107,2.86
		c0.168,0.155,0.264,0.37,0.284,0.591c-1.188-0.396-2.688-0.826-3.923-0.952l-2.17-0.22c-0.526-0.054-1.084-0.082-1.612-0.082
		c-0.718,0-2.002,0.052-2.543,0.398c-0.219,0.141-0.442,0.191-0.577,0.191c-0.065,0-0.102-0.013-0.091-0.002
		c-0.409-0.389-1.146-0.4-1.613-0.029c-0.85,0.674,0.35,2.462,0.599,2.813c0.531,0.75,0.443,1.944-0.192,2.607
		c-0.773,0.809-1.69,1.325-2.065,1.325c0,0-0.001,0-0.002,0c-0.702,0-2.505,0.402-3.845,0.781c-0.967,0.273-3.215,1.012-3.215,1.962
		c0,0.648,0.547,1.137,1.176,1.152c0.117,0.086,0.348,0.626,0.348,1.48c0,1.231,0.612,2.692,1.392,3.326
		c0.843,0.683,2.961,1.091,4.523,1.091h30.496c1.759,0,4.471-0.235,6.045-0.524c1.409-0.258,3.554-0.666,5.762-1.151
		c2.783-0.612,4.696-1.188,5.849-1.756c0.851-0.42,1.642-0.92,2.35-1.485c0.336-0.268,0.679-0.555,1.017-0.838
		c0.844-0.708,1.8-1.51,2.282-1.642c0.674-0.183,1.165-0.549,1.346-1.003c0.119-0.298,0.095-0.611-0.07-0.882
		C62.837,47.962,61.751,47.249,60.906,46.869z M37.797,42.708c-0.993,0.42-3.146,0.727-4.734,0.644
		c-2.635-0.134-4.697-0.249-6.13-0.341c0.247-0.37,0.281-0.968,0.067-1.356l-1.633-2.982c-0.219-0.396-0.198-1.025,0.045-1.409
		l2.851-5.495l0.631,2.567c0.126,0.515,0.494,0.936,0.986,1.133l7.055,2.804c0.08,0.031,0.16,0.056,0.241,0.073
		c0.073,0.017,0.145,0.004,0.218,0.01c0.027,0.457,0.235,0.916,0.617,1.25c0.312,0.273,0.674,0.934,0.967,1.765
		C39.099,41.716,38.644,42.351,37.797,42.708z"/>
</g>
</svg>
