<?xml version="1.0" encoding="iso-8859-1"?>
<!-- Generator: Adobe Illustrator 17.1.0, SVG Export Plug-In . SVG Version: 6.00 Build 0)  -->
<!DOCTYPE svg PUBLIC "-//W3C//DTD SVG 1.1//EN" "http://www.w3.org/Graphics/SVG/1.1/DTD/svg11.dtd">
<svg version="1.1" id="Capa_1" xmlns="http://www.w3.org/2000/svg" xmlns:xlink="http://www.w3.org/1999/xlink" x="0px" y="0px"
	 viewBox="0 0 64 64" style="enable-background:new 0 0 64 64;" xml:space="preserve">
<g>
	<path d="M63.185,33.858c-0.349-0.573-1.434-1.286-2.278-1.665c-0.66-0.297-1.905-1.157-3.005-1.916l-0.878-0.604
		c-2.8-1.906-6.786-4.055-9.637-5.522c-0.598-0.308-1.193-0.464-1.772-0.464c-0.915,0-1.642,0.392-2.109,0.686
		c-0.062,0.038-0.139,0.058-0.233,0.058c-0.696,0-1.866-0.949-2.429-1.405c-1.101-0.893-2.64-1.075-3.168-0.357
		c-0.495,0.67-0.349,1.663,0.334,2.261c0.312,0.272,0.673,0.933,0.967,1.765c0.122,0.346-0.333,0.981-1.18,1.338
		c-0.994,0.42-3.142,0.724-4.735,0.644c-3.981-0.202-6.687-0.362-7.822-0.464c-0.688-0.062-1.396-0.226-2.101-0.488
		c-1.183-0.44-3.425-1.206-5.143-1.381l-2.17-0.22c-0.526-0.054-1.084-0.082-1.612-0.082c-0.718,0-2.002,0.052-2.543,0.399
		c-0.219,0.141-0.442,0.191-0.577,0.191c-0.064,0-0.103-0.013-0.091-0.002c-0.409-0.388-1.144-0.4-1.612-0.03
		c-0.85,0.673,0.349,2.462,0.598,2.815c0.532,0.75,0.444,1.943-0.191,2.607c-0.773,0.809-1.69,1.325-2.064,1.325
		c-0.001,0-0.002,0-0.002,0c-0.702,0-2.505,0.402-3.845,0.781C2.919,34.4,0.67,35.14,0.67,36.089c0,0.647,0.552,1.147,1.176,1.152
		c0.117,0.086,0.348,0.625,0.348,1.48c0,1.231,0.612,2.692,1.393,3.325c0.208,0.169,0.495,0.321,0.831,0.454l3.759-3.136
		c1.733-1.447,4.566-1.62,6.467-0.386l5.167,3.352l4.155-3.129c1.75-1.317,4.537-1.433,6.392-0.266l5.436,3.435
		c0.044,0.006,0.137,0.005,0.179-0.001l5.227-3.393c1.773-1.156,4.556-1.144,6.329,0.025l3.514,2.316
		c2.199-0.504,3.807-0.983,4.877-1.457l2.443-1.805c0.303-0.225,0.646-0.376,1.005-0.46c0.087-0.073,0.175-0.143,0.262-0.216
		c0.843-0.707,1.799-1.508,2.28-1.64c0.675-0.184,1.165-0.55,1.346-1.004C63.375,34.441,63.35,34.128,63.185,33.858z"/>
	<path d="M59.526,40.406l-5.91,4.367c-0.354,0.262-1.094,0.284-1.465,0.038l-5.178-3.414c-1.332-0.88-3.348-0.89-4.685-0.02
		l-5.303,3.441c-0.408,0.262-1.236,0.268-1.647,0.01l-5.51-3.481c-1.375-0.866-3.391-0.783-4.69,0.194l-4.281,3.224
		c-0.354,0.268-1.088,0.293-1.461,0.051l-5.301-3.438c-1.395-0.907-3.412-0.786-4.688,0.28L4.276,45.94
		c-0.598,0.498-0.678,1.386-0.182,1.984c0.281,0.334,0.682,0.507,1.084,0.507c0.318,0,0.639-0.108,0.902-0.327l5.133-4.281
		c0.326-0.272,0.992-0.312,1.348-0.081l5.303,3.439c1.371,0.891,3.389,0.818,4.691-0.164l4.281-3.224
		c0.355-0.271,1.107-0.303,1.486-0.062l5.512,3.481c1.34,0.845,3.351,0.833,4.684-0.029l5.303-3.441
		c0.4-0.258,1.205-0.254,1.6,0.008l5.178,3.413c1.361,0.901,3.381,0.848,4.693-0.122l5.91-4.368
		c0.625-0.463,0.756-1.346,0.295-1.971C61.034,40.074,60.151,39.942,59.526,40.406z"/>
</g>
</svg>
