<?xml version="1.0" encoding="iso-8859-1"?>
<!-- Generator: Adobe Illustrator 17.1.0, SVG Export Plug-In . SVG Version: 6.00 Build 0)  -->
<!DOCTYPE svg PUBLIC "-//W3C//DTD SVG 1.1//EN" "http://www.w3.org/Graphics/SVG/1.1/DTD/svg11.dtd">
<svg version="1.1" id="Capa_1" xmlns="http://www.w3.org/2000/svg" xmlns:xlink="http://www.w3.org/1999/xlink" x="0px" y="0px"
	 viewBox="0 0 64 64" style="enable-background:new 0 0 64 64;" xml:space="preserve">
<path d="M42.18,47.489c3.983-1.406,4.496-7.903,4.548-8.868c0.376-0.044,0.739-0.09,1.073-0.14c0.825-0.124,1.494-0.263,1.865-0.401
	c1.279-0.481,1.839-0.799,1.759-1.52c-0.081-0.72-0.8-1.042-0.96-1.44c-0.159-0.398,0-1.118-0.159-2.157
	c-0.159-1.042-0.081-8.079-3.68-13.918c-3.599-5.839-6.28-7.917-13.517-7.917c-9.596,0-14.396,2.718-17.436,10.156
	c-3.04,7.438-3.04,10.956-3.519,11.995c-0.48,1.039-1.759,1.919-2,2.644c-0.239,0.716-0.798,1.758,1.681,2.558
	c0.73,0.235,1.714,0.455,2.853,0.634c-0.136,1.66-0.209,5.358,1.563,7.35c0.636,0.715,1.468,1.13,2.42,1.254
	c1.198,1.549,3.069,1.803,4.153,1.692c1.516,1.149,3.453,1.976,4.92,2.495c-0.012,0.059-0.027,0.117-0.027,0.177
	c0,0.736,0.895,1.333,2,1.333h0.583c1.105,0,2-0.597,2-1.333c0-0.034-0.011-0.066-0.015-0.099c1.642-0.513,3.891-1.365,5.563-2.577
	C38.975,49.536,40.982,49.246,42.18,47.489z M39.149,48.238c0.167-0.194,0.306-0.393,0.432-0.593
	c0.311,0.075,0.633,0.123,0.973,0.126c-0.507,0.362-1.057,0.537-1.532,0.61C39.066,48.334,39.108,48.286,39.149,48.238z
	 M42.086,45.298c-0.413,0.281-0.881,0.464-1.43,0.476c-0.136,0.006-0.26-0.005-0.383-0.019c0.34-1.023,0.922-1.605,1.388-1.717
	c0.055-0.013,0.102-0.019,0.143-0.019c0.156,0,0.22,0.08,0.244,0.111C42.165,44.276,42.245,44.657,42.086,45.298z M40.868,38.878
	c1.072,0.066,2.463,0.028,3.838-0.069c-0.091,0.986-0.438,3.65-1.573,5.385c-0.064-0.313-0.184-0.538-0.299-0.684
	c-0.325-0.413-0.853-0.581-1.407-0.445c-0.696,0.168-1.587,0.878-2.079,2.306c-0.088-0.071-0.175-0.145-0.255-0.234
	c-1.286-1.443-1.185-4.88-1.017-6.326c0.609,0.005,1.169,0.014,1.65,0.026C40.175,38.846,40.563,38.862,40.868,38.878z
	 M16.679,39.373c0.377,0.038,0.764,0.071,1.158,0.099c1.743,0.123,3.622,0.132,5.452-0.015c-0.188,1.47-0.716,4.126-2.098,5.479
	c-0.51-1.14-1.289-1.72-1.912-1.87c-0.557-0.136-1.081,0.032-1.407,0.445c-0.18,0.228-0.37,0.644-0.335,1.309
	C16.618,43.437,16.567,40.898,16.679,39.373z M19.311,45.774c-0.204,0.009-0.386-0.012-0.56-0.048
	c-0.321-0.905-0.233-1.419-0.094-1.596c0.024-0.031,0.087-0.111,0.244-0.111c0.041,0,0.088,0.006,0.143,0.019
	c0.429,0.104,0.958,0.605,1.305,1.483C20.033,45.666,19.694,45.766,19.311,45.774z M20.039,47.691
	c0.34-0.055,0.661-0.14,0.959-0.258c0.151,0.273,0.333,0.543,0.559,0.805c0.042,0.048,0.084,0.096,0.127,0.143
	C21.172,48.303,20.576,48.11,20.039,47.691z M22.314,47.586c-0.174-0.203-0.315-0.408-0.431-0.615
	c2.596-1.768,3.276-5.98,3.448-7.712c0.327-0.031,0.667-0.061,1.021-0.087c2.931-0.229,6.662-0.339,9.709-0.361
	c-0.146,1.458-0.356,5.527,1.535,7.654c0.302,0.34,0.658,0.597,1.039,0.806c-0.074,0.105-0.154,0.21-0.244,0.315
	c-1.495,1.74-4.701,2.926-6.713,3.534c-0.359-0.228-0.842-0.37-1.377-0.37h-0.583c-0.498,0-0.948,0.126-1.298,0.327
	C26.593,50.456,23.775,49.285,22.314,47.586z"/>
</svg>
