<?xml version="1.0" encoding="iso-8859-1"?>
<!-- Generator: Adobe Illustrator 17.1.0, SVG Export Plug-In . SVG Version: 6.00 Build 0)  -->
<!DOCTYPE svg PUBLIC "-//W3C//DTD SVG 1.1//EN" "http://www.w3.org/Graphics/SVG/1.1/DTD/svg11.dtd">
<svg version="1.1" id="Capa_1" xmlns="http://www.w3.org/2000/svg" xmlns:xlink="http://www.w3.org/1999/xlink" x="0px" y="0px"
	 viewBox="0 0 64 64" style="enable-background:new 0 0 64 64;" xml:space="preserve">
<path d="M8.431,25.075h15.25c0.553,0,1-0.448,1-1c0-0.552-0.447-1-1-1H8.431c-0.553,0-1,0.448-1,1
	C7.431,24.627,7.878,25.075,8.431,25.075z"/>
<path d="M2.181,28.584h15.25c0.553,0,1-0.448,1-1c0-0.552-0.447-1-1-1H2.181c-0.553,0-1,0.448-1,1
	C1.181,28.137,1.628,28.584,2.181,28.584z"/>
<path d="M60.694,22.32h-15.25c-0.553,0-1,0.448-1,1c0,0.552,0.447,1,1,1h15.25c0.553,0,1-0.448,1-1
	C61.694,22.768,61.247,22.32,60.694,22.32z"/>
<path d="M38.194,26.83c0,0.552,0.447,1,1,1h15.25c0.553,0,1-0.448,1-1c0-0.552-0.447-1-1-1h-15.25
	C38.642,25.83,38.194,26.277,38.194,26.83z"/>
<path d="M30.289,25.79c2.113,1.433,4.988,0.883,6.421-1.23c0.468-0.689,0.704-1.46,0.764-2.236l0.491,0.172
	c0.522,0.183,1.083-0.106,1.06-0.658c-0.017-0.389-0.104-0.86-0.354-1.352c-0.444-0.882,0.366-4.372-3.281-5.653
	c-2.608-0.917-5.558,2.261-6.465,3.46c-0.277,0.368-0.17,0.791,0.171,1.032c-0.011,0.015-0.024,0.026-0.035,0.042
	C27.627,21.481,28.178,24.357,30.289,25.79z"/>
<path d="M18.731,42.294C5.393,40.815,2.805,46.385,2.555,47.027c-0.068,0.174-0.104,0.36-0.104,0.547v7.307
	c0,0.829,0.672,1.5,1.5,1.5c0.828,0,1.5-0.671,1.5-1.5v-6.912c0.567-0.805,3.35-3.783,13.052-2.683
	c0.925,0.105,1.801,0.18,2.646,0.236l1.727,1.593c0.406,0.375,0.471,1.039,0.143,1.483l-4.352,5.912
	c-0.981,1.335-0.766,3.145,0.484,4.042c1.248,0.898,3.045,0.535,4.01-0.811l6.167-8.593c0.319-0.45,0.366-1.206,0.102-1.69
	l-1.156-2.116c2.646-0.373,4.8-1.107,6.681-2.135l1.069,0.947c0.381,0.337,0.855,0.503,1.325,0.503c0.553,0,1.103-0.228,1.498-0.674
	c0.732-0.827,0.656-2.091-0.171-2.823l-0.331-0.293c1.32-1.108,2.57-2.366,3.867-3.748c3.037-3.235,6.576-3.337,9.014-2.852
	c0.271,0.054,0.551,0.032,0.811-0.063l3.296-1.211c0.049-0.018,0.093-0.031,0.131-0.042c-0.003,0.04-0.009,0.084-0.019,0.135
	l-0.59,3.22c-0.084,0.329-0.056,0.681,0.088,0.996c0.674,1.478,1.077,3.316,1.199,5.464c0.012,0.192,0.06,0.381,0.143,0.556
	c0,0,0.652,1.38,1.186,2.457c0.304,0.613,0.369,1.071,0.385,1.222c-0.194,0.01-0.641-0.075-1.109-0.367l-0.18-0.114
	c-1.095-0.691-2.066-1.277-2.866-1.436c-0.517-0.102-1.079-0.125-1.624-0.146c-1.727-0.069-2.391-0.218-2.675-0.92
	c-0.25-0.615-0.87-0.997-1.531-0.931c-0.659,0.062-1.2,0.55-1.33,1.2c-0.033,0.163-0.791,4.03-0.155,7.328
	c0.156,0.814,0.946,1.342,1.756,1.189c0.813-0.157,1.347-0.943,1.189-1.757c-0.221-1.15-0.229-2.427-0.164-3.521
	c0.979,0.336,2.013,0.378,2.791,0.409c0.449,0.018,0.874,0.035,1.153,0.09c0.362,0.089,1.445,0.773,1.854,1.031l0.189,0.12
	c1.791,1.121,3.805,1.09,4.895-0.072c0.99-1.056,1.032-2.796,0.111-4.656c-0.383-0.773-0.828-1.705-1.04-2.149
	c-0.15-2.194-0.57-4.138-1.25-5.791l0.527-2.883c0.231-1.262-0.104-2.38-0.92-3.066c-0.814-0.685-1.973-0.826-3.179-0.382
	l-2.91,1.07c-2.698-0.45-7.392-0.413-11.362,3.818c-1.347,1.434-2.602,2.71-3.946,3.793l-3.476-3.079l1.075-5.045
	c0.042-0.196,0.044-0.39,0.028-0.58l0.068-0.131c0.101-0.543-0.238-1.135-0.757-1.32l-0.293-0.105
	c-0.179-0.104-0.372-0.191-0.586-0.236c-0.034-0.007-0.067-0.006-0.102-0.011l-4.265-1.533c-0.519-0.187-1.146,0.06-1.398,0.551
	l-7.567,14.68C18.767,42.124,18.753,42.21,18.731,42.294z M27.494,42.091l1.956-3.759l3.086,2.733
	c-1.478,0.67-3.166,1.138-5.193,1.377C27.382,42.316,27.429,42.194,27.494,42.091z"/>
</svg>
