<?xml version="1.0" encoding="iso-8859-1"?>
<!-- Generator: Adobe Illustrator 17.1.0, SVG Export Plug-In . SVG Version: 6.00 Build 0)  -->
<!DOCTYPE svg PUBLIC "-//W3C//DTD SVG 1.1//EN" "http://www.w3.org/Graphics/SVG/1.1/DTD/svg11.dtd">
<svg version="1.1" id="Capa_1" xmlns="http://www.w3.org/2000/svg" xmlns:xlink="http://www.w3.org/1999/xlink" x="0px" y="0px"
	 viewBox="0 0 64 64" style="enable-background:new 0 0 64 64;" xml:space="preserve">
<g>
	<circle cx="30.78" cy="14.866" r="7.123"/>
	<path d="M19.049,22.855l-9.584,15.57c-0.521,0.511-0.916,1.164-1.096,1.928c-0.509,2.149,0.822,4.305,2.973,4.812l37.174,8.26
		c0.31,0.073,0.618,0.108,0.923,0.108c1.812,0,3.455-1.24,3.89-3.081c0.509-2.149-0.822-4.305-2.973-4.812L23.91,39.765l5.359-8.955
		l13.68,6.025c0.328,0.145,0.67,0.213,1.007,0.213c0.961,0,1.877-0.558,2.289-1.493c0.557-1.264-0.017-2.739-1.28-3.296
		l-14.343-6.317l-8.705-3.961C20.912,21.523,19.627,21.915,19.049,22.855z"/>
</g>
</svg>
