<?xml version="1.0" encoding="iso-8859-1"?>
<!-- Generator: Adobe Illustrator 17.1.0, SVG Export Plug-In . SVG Version: 6.00 Build 0)  -->
<!DOCTYPE svg PUBLIC "-//W3C//DTD SVG 1.1//EN" "http://www.w3.org/Graphics/SVG/1.1/DTD/svg11.dtd">
<svg version="1.1" id="Capa_1" xmlns="http://www.w3.org/2000/svg" xmlns:xlink="http://www.w3.org/1999/xlink" x="0px" y="0px"
	 viewBox="0 0 64 64" style="enable-background:new 0 0 64 64;" xml:space="preserve">
<g>
	<circle cx="13.378" cy="21.724" r="5.227"/>
	<path d="M53.185,52.198c0.828,0,1.5-0.672,1.5-1.5V35.317c0.362-0.17,0.706-0.394,1.003-0.695c1.358-1.376,1.345-3.592-0.03-4.95
		l-10.32-10.193c-1.052-1.038-2.64-1.305-3.974-0.665l-7.123,3.416l-10.376-2.402c-1.883-0.435-3.763,0.737-4.199,2.621
		c-0.057,0.246-0.083,0.491-0.088,0.733c-0.241,0.658-0.216,1.41,0.151,2.071l6.759,12.177l-6.72,1.734v-3.551
		c0-0.828-0.672-1.5-1.5-1.5c-0.828,0-1.5,0.672-1.5,1.5v20.227c0,0.828,0.672,1.5,1.5,1.5c0.828,0,1.5-0.672,1.5-1.5V41.23
		l7.723-1.993l1.186,2.137c0.456,0.823,1.309,1.287,2.188,1.287c0.411,0,0.827-0.101,1.211-0.314
		c1.208-0.67,1.643-2.191,0.973-3.398l-0.556-1.001l17.111-4.416l1.135,1.121c0.283,0.28,0.608,0.487,0.947,0.651v15.395
		C51.685,51.526,52.357,52.198,53.185,52.198z M30.6,34.537l3.743,0.866l-2.854,0.736L30.6,34.537z M39.193,34.151
		c0.019-0.06,0.044-0.117,0.058-0.179c0.312-1.345-0.526-2.688-1.872-2.999l-6.808-1.576l-0.552-0.96l3.84,0.889
		c0.776,0.177,1.586,0.089,2.303-0.254l6.009-2.883l5.774,5.703L39.193,34.151z"/>
</g>
</svg>
