<?xml version="1.0" encoding="iso-8859-1"?>
<!-- Generator: Adobe Illustrator 17.1.0, SVG Export Plug-In . SVG Version: 6.00 Build 0)  -->
<!DOCTYPE svg PUBLIC "-//W3C//DTD SVG 1.1//EN" "http://www.w3.org/Graphics/SVG/1.1/DTD/svg11.dtd">
<svg version="1.1" id="Capa_1" xmlns="http://www.w3.org/2000/svg" xmlns:xlink="http://www.w3.org/1999/xlink" x="0px" y="0px"
	 viewBox="0 0 64 64" style="enable-background:new 0 0 64 64;" xml:space="preserve">
<g>
	<path d="M55.856,47.169c0.461-1.591-0.454-3.255-2.045-3.717l-1.027-0.298c-1.231-7.308-2.999-13.324-5.031-18.264
		c0.164-0.333,0.265-0.703,0.265-1.099c0-1.146-0.775-2.101-1.827-2.397C38.765,6.099,29.02,2.979,28.385,2.791
		c-0.527-0.158-1.086,0.146-1.243,0.675c-0.157,0.53,0.146,1.086,0.675,1.243C27.96,4.751,36.733,7.567,43.8,21.291h-6.882
		l-9.369-3.16c-0.621-0.208-1.266-0.152-1.822,0.098l-0.039-0.056l-9.938,6.008l9.875,16.736l0.063-0.042
		c0.378,0.519,0.914,0.928,1.578,1.121l16.593,4.816l0.64,3.818c0.246,1.466,1.516,2.505,2.955,2.504c0.165,0,0.332-0.013,0.5-0.041
		c1.634-0.274,2.736-1.821,2.462-3.455l-0.163-0.97l1.347,0.391c0.44,3.65,0.752,7.587,0.901,11.847
		c0.019,0.54,0.463,0.965,0.999,0.965c0.012,0,0.023,0,0.035-0.001c0.552-0.019,0.984-0.482,0.965-1.034
		c-0.145-4.148-0.44-8-0.854-11.585C54.67,49.012,55.542,48.251,55.856,47.169z M31.452,36.963l1.662-1.128l9.468,3.369l0.174,1.04
		L31.452,36.963z M49.152,42.1l-0.943-5.627c-0.18-1.073-0.927-1.966-1.953-2.33l-12.434-4.423l-3.877-5.503l5.765,1.944
		c0.257,0.087,0.527,0.131,0.799,0.131h9.009c0.187,0,0.367-0.024,0.542-0.063c1.812,4.477,3.406,9.854,4.568,16.3L49.152,42.1z"/>
	<circle cx="17.5" cy="14.667" r="6"/>
</g>
</svg>
