<?xml version="1.0" encoding="iso-8859-1"?>
<!-- Generator: Adobe Illustrator 17.1.0, SVG Export Plug-In . SVG Version: 6.00 Build 0)  -->
<!DOCTYPE svg PUBLIC "-//W3C//DTD SVG 1.1//EN" "http://www.w3.org/Graphics/SVG/1.1/DTD/svg11.dtd">
<svg version="1.1" id="Capa_1" xmlns="http://www.w3.org/2000/svg" xmlns:xlink="http://www.w3.org/1999/xlink" x="0px" y="0px"
	 viewBox="0 0 64 64" style="enable-background:new 0 0 64 64;" xml:space="preserve">
<g>
	<path d="M54.74,11.691C54.513,10.61,53.435,9.389,52.401,9c-3.431-1.288-11.328-3.791-21.147-3.915
		c-9.62-0.121-16.609,2.393-19.716,3.781c-1.009,0.45-2.051,1.743-2.278,2.824c-0.702,3.323-1.644,10.462,0.991,17.789
		c0.374,1.039,0.629,2.744,0.537,3.845c-0.342,4.097-0.641,13.349,3.208,16.428c5,4,8.258,9.167,17.504,9.167h1
		c9.246,0,12.504-5.167,17.504-9.167c3.849-3.079,3.55-12.331,3.208-16.428c-0.092-1.101,0.163-2.805,0.537-3.845
		C56.384,22.153,55.442,15.015,54.74,11.691z M39.083,39.586c0.035,2.396,0.44,3.902,0.89,4.842
		c0.477,0.996,1.228,2.411,0.771,3.416c-0.773,1.699-2.726,3.909-7.653,3.909H32c-4.928,0-6.881-2.21-7.653-3.909
		c-0.458-1.005,0.294-2.42,0.771-3.416c0.45-0.939,0.854-2.445,0.89-4.842c0.083-5.584-8.917-8.917-8.917-11.251
		c0-0.756,0.21-1.267,0.493-1.612c0.602-0.733,2.376-0.504,3.464-0.312c5.033,0.888,10.605,0.758,10.605,0.758h1.785
		c0,0,5.572,0.13,10.606-0.758c1.088-0.192,2.861-0.422,3.464,0.312C47.79,27.068,48,27.579,48,28.335
		C48,30.669,39,34.002,39.083,39.586z"/>
</g>
</svg>
