<?xml version="1.0" encoding="iso-8859-1"?>
<!-- Generator: Adobe Illustrator 17.1.0, SVG Export Plug-In . SVG Version: 6.00 Build 0)  -->
<!DOCTYPE svg PUBLIC "-//W3C//DTD SVG 1.1//EN" "http://www.w3.org/Graphics/SVG/1.1/DTD/svg11.dtd">
<svg version="1.1" id="Capa_1" xmlns="http://www.w3.org/2000/svg" xmlns:xlink="http://www.w3.org/1999/xlink" x="0px" y="0px"
	 viewBox="0 0 64 64" style="enable-background:new 0 0 64 64;" xml:space="preserve">
<g>
	<path d="M55.875,33.37c5.774-7.105,5.177-16.298,4.568-20.263c-0.168-1.092-0.98-2.628-1.753-3.416
		c-3.958-4.027-7.056-5.742-8.906-6.47c-1.028-0.404-1.203,0.021-0.539,0.904c1.215,1.615,2.836,4.763,3.148,10.268
		c0.352,6.215-2.167,13.804-3.465,17.247c-0.39,1.034-0.053,2.454,0.943,2.932C53.653,36.386,55.875,33.37,55.875,33.37z"/>
	<path d="M41.987,2.95c-5.56,1.141-8.387,5.216-8.785,8.179c-0.054,0.409,0.064,1.06,0.24,1.432
		c0.468,0.985,1.506,2.707,3.136,2.918c0.407,0.054,0.978-0.248,1.272-0.533c1.625-1.57,6.716-6.21,11.64-7.766
		C49.49,7.18,48.03,1.711,41.987,2.95z"/>
	<circle cx="19.751" cy="24.851" r="4.006"/>
	<path d="M15.2,29.731l-5.323,9.567c-0.824,1.46-0.311,3.32,1.133,4.141l10.759,6.491c0.379,0.215,0.927,0.722,1.173,1.085
		l0.812,1.195l-0.006,0c-6.618,0.5-9.432,1.718-10.626,2.65c-0.5,0.391-0.771,1.14-0.771,1.646v1.235
		c0,0.507,0.271,1.257,0.771,1.646c1.232,0.962,4.777,2.612,14.663,2.849c0.448,0.011,0.886,0.016,1.314,0.016
		c10.067,0,14.587-2.898,16.062-4.143c0.287-0.242,0.451-0.601,0.451-0.984c0-0.385-0.164-0.743-0.451-0.984
		c-1.402-1.184-5.684-3.955-15.117-4.13l-0.691-0.013l-1.672-3.326c-0.275-0.552-0.868-1.289-1.348-1.678l-7.92-6.438
		c-0.161-0.131-0.196-0.384-0.075-0.554l0.564-0.801c0.371,0.38,0.913,0.635,1.421,0.635h11.781c0.077,0,0.225-0.005,0.371-0.041
		l3.904,4.988c0.197,0.252,0.491,0.384,0.788,0.384c0.215,0,0.433-0.069,0.615-0.213c0.435-0.34,0.512-0.969,0.171-1.403l-9-11.5
		c-0.341-0.435-0.969-0.514-1.403-0.171c-0.435,0.34-0.512,0.969-0.171,1.403l2.847,3.638c-0.325-0.07-0.686-0.108-1.082-0.108
		h-6.478c-0.802,0-1.837-0.216-1.933-0.387l-2.065-4.621c-0.003-0.007-0.213-0.387-0.593-0.714l1.237,0.487
		c0.087,0.126,0.135,0.213,0.137,0.216l1.583,3.535l0.352-0.501c0.241-0.34,0.286-0.811,0.127-1.215l4.543-2.117
		c0.504-0.266,1.041-0.898,1.221-1.434l2.973-8.018c0.384-1.035,0.051-2.112-0.745-2.404c-0.795-0.293-1.756,0.308-2.146,1.341
		l-2.75,7.286c-0.146,0.46-0.672,0.915-1.164,0.999l-4.136,1.284l-1.963-1.113C16.469,28.856,15.644,28.945,15.2,29.731z"/>
</g>
</svg>
