<?xml version="1.0" encoding="iso-8859-1"?>
<!-- Generator: Adobe Illustrator 17.1.0, SVG Export Plug-In . SVG Version: 6.00 Build 0)  -->
<!DOCTYPE svg PUBLIC "-//W3C//DTD SVG 1.1//EN" "http://www.w3.org/Graphics/SVG/1.1/DTD/svg11.dtd">
<svg version="1.1" id="Capa_1" xmlns="http://www.w3.org/2000/svg" xmlns:xlink="http://www.w3.org/1999/xlink" x="0px" y="0px"
	 viewBox="0 0 64 64" style="enable-background:new 0 0 64 64;" xml:space="preserve">
<g>
	<path d="M55.34,37.963C54.481,25.01,44.991,16.04,40.533,12.508c-1.228-0.972-3.553-1.783-5.117-1.855
		c-7.997-0.364-12.869,0.843-15.493,1.872c-1.458,0.573-1.229,1.185,0.313,1.461c2.82,0.506,7.541,2.21,13.177,7.626
		c2.809,2.7,5.294,6.218,7.364,9.721V45.79c-0.294,0.174-0.5,0.48-0.5,0.847v5.738c0,0.698-0.568,1.267-1.266,1.267H18.123
		c-0.698,0-1.267-0.568-1.267-1.267v-5.738c0-0.366-0.206-0.673-0.5-0.847v-7.044h-1v7.044c-0.294,0.174-0.5,0.48-0.5,0.847v5.738
		c0,1.801,1.465,3.267,3.267,3.267h20.889c1.801,0,3.266-1.466,3.266-3.267v-5.738c0-0.366-0.206-0.673-0.5-0.847V33.082
		c2.118,3.815,3.721,7.446,4.679,9.786c0.592,1.451,2.312,2.601,3.808,2.135C55.942,43.237,55.34,37.963,55.34,37.963z"/>
	<path d="M11.96,37.994c1.438,0.57,4.176,1.357,6.073,0.005c0.475-0.338,0.776-1.201,0.807-1.782
		c0.173-3.199,0.984-12.93,4.597-19.296c0,0-6.793-4.273-11.874,2.846c-4.674,6.549-3.679,13.51-1.234,16.972
		C10.669,37.215,11.419,37.777,11.96,37.994z"/>
</g>
</svg>
