<?xml version="1.0" encoding="iso-8859-1"?>
<!-- Generator: Adobe Illustrator 17.1.0, SVG Export Plug-In . SVG Version: 6.00 Build 0)  -->
<!DOCTYPE svg PUBLIC "-//W3C//DTD SVG 1.1//EN" "http://www.w3.org/Graphics/SVG/1.1/DTD/svg11.dtd">
<svg version="1.1" id="Capa_1" xmlns="http://www.w3.org/2000/svg" xmlns:xlink="http://www.w3.org/1999/xlink" x="0px" y="0px"
	 viewBox="0 0 64 64" style="enable-background:new 0 0 64 64;" xml:space="preserve">
<g>
	<path d="M14.545,18.638c-0.924-1.752-2.73-2.841-4.715-2.841c-0.857,0-1.715,0.213-2.478,0.615
		c-2.596,1.369-3.594,4.596-2.226,7.192c0.924,1.753,2.73,2.842,4.713,2.842c0.001,0,0,0,0.001,0c0.857,0,1.715-0.213,2.479-0.615
		C14.914,24.462,15.913,21.235,14.545,18.638z"/>
	<path d="M58.167,39.034l-11.347,7.34l-9.701-9.813c-1.106-1.115-3.014-1.195-4.213-0.165l-5.623,4.857
		c-0.681,0.59-1.543,0.425-1.962-0.37l-4.568-8.664c-0.445-0.843-0.133-1.851,0.708-2.295l8.942-4.45
		c0.001,0,2.777-1.587,4.293-2.454l2.402,1.649c0.174,0.119,0.37,0.176,0.566,0.176c0.318,0,0.632-0.151,0.825-0.434
		c0.312-0.456,0.197-1.078-0.258-1.391l-1.84-1.264c0.027-0.09,0.056-0.18,0.056-0.279V11.116c0-0.553-0.447-1-1-1
		c-0.553,0-1,0.447-1,1v9.307l-3.521-2.418V8.169c0-0.553-0.447-1-1-1c-0.553,0-1,0.447-1,1v8.463l-3.454-2.372
		c-0.457-0.312-1.078-0.197-1.391,0.258c-0.312,0.456-0.197,1.078,0.258,1.391l6.088,4.18L11.98,28.855
		c-1.391,0.733-1.945,2.42-1.264,3.839l8.421,17.485c0.65,1.352,2.304,2.503,3.766,2.618c1.376,0.107,3.385-0.622,4.402-1.61
		l6.849-6.644c0.688-0.661,1.818-0.631,2.468,0.047l4.953,5.177l-7.274,4.706c-1.084,0.702-0.976,1.645,0.301,1.84
		c2.382,0.363,6.491,0.395,11.633-1.954c9.132-4.173,12.307-10.842,13.376-14.319C59.99,38.806,59.25,38.332,58.167,39.034z"/>
</g>
</svg>
