<?xml version="1.0" encoding="iso-8859-1"?>
<!-- Generator: Adobe Illustrator 17.1.0, SVG Export Plug-In . SVG Version: 6.00 Build 0)  -->
<!DOCTYPE svg PUBLIC "-//W3C//DTD SVG 1.1//EN" "http://www.w3.org/Graphics/SVG/1.1/DTD/svg11.dtd">
<svg version="1.1" id="Capa_1" xmlns="http://www.w3.org/2000/svg" xmlns:xlink="http://www.w3.org/1999/xlink" x="0px" y="0px"
	 viewBox="0 0 64 64" style="enable-background:new 0 0 64 64;" xml:space="preserve">
<g>
	<path d="M35.137,4.617C22.091,4.376,10.962,17.337,8.506,20.415c-0.284,0.354-0.137,0.648,0.317,0.648c2.447,0,9.951,0,16.988,0
		c-0.107,0.446-0.236,0.974-0.384,1.564L9.13,23.449c-0.885,0.046-1.728,0.718-1.962,1.565c-0.447,1.622-1.176,4.604-1.614,8.158
		c-0.015,0.082-0.025,0.159-0.026,0.23C4.782,39.66,4.964,47.613,9.133,53.056c-0.434,3.58,0.436,5.236,1.099,5.951
		c0.309,0.333,1.016,0.475,1.466,0.416c5.731-0.744,12.01-5.118,14.016-6.613c0.363-0.271,1.021-0.486,1.475-0.487
		c11.852-0.008,30.611-8.743,32.754-24.546C62.134,11.604,49.938,4.892,35.137,4.617z M27.871,21.063c2.392,0,4.662,0,6.579,0
		c2.599,0,4.332,0.343,5.495,0.83l-12.423,0.627C27.661,21.955,27.776,21.471,27.871,21.063z M15.067,25.152l9.837-0.496
		c-0.223,0.842-0.471,1.756-0.744,2.728c-4.244-0.08-7.207-0.386-9.271-0.768C14.964,26.026,15.022,25.534,15.067,25.152z
		 M14.629,28.595c2.354,0.432,5.343,0.691,8.957,0.778c-0.096,0.325-0.193,0.653-0.294,0.986c-3.486-0.133-6.448-0.136-8.911-0.015
		C14.472,29.727,14.555,29.143,14.629,28.595z M14.075,32.355c2.121-0.111,4.918-0.139,8.602-0.01
		c-0.269,0.845-0.55,1.704-0.845,2.57c-2.747-0.068-5.632-0.23-8.102-0.463C13.852,33.736,13.968,33.034,14.075,32.355z
		 M21.139,36.899c-0.469,1.302-0.964,2.603-1.484,3.871c-2.606-0.015-5.058-0.09-7.127-0.181c0.309-1.371,0.592-2.771,0.848-4.147
		C16.084,36.712,18.975,36.839,21.139,36.899z M13.04,25.255c-0.032,0.266-0.069,0.568-0.113,0.911
		c-0.954-0.275-1.587-0.558-1.997-0.805L13.04,25.255z M8.897,26.289c0.727,0.762,1.988,1.384,3.768,1.867
		c-0.097,0.713-0.208,1.494-0.332,2.327c-1.885,0.171-3.371,0.441-4.47,0.806C8.207,29.158,8.614,27.394,8.897,26.289z
		 M12.019,32.507c-0.091,0.565-0.188,1.145-0.289,1.732c-1.836-0.227-3.268-0.497-3.961-0.796
		C8.239,33.176,9.37,32.768,12.019,32.507z M7.364,35.355c1.022,0.358,2.43,0.637,4.015,0.852c-0.266,1.43-0.56,2.877-0.879,4.283
		c-1.422-0.077-2.545-0.153-3.261-0.205C7.176,38.606,7.233,36.938,7.364,35.355z M8.445,47.458
		c-0.554-1.639-0.889-3.387-1.066-5.155c0.655,0.048,1.551,0.108,2.643,0.171C9.544,44.337,9.018,46.057,8.445,47.458z M10.324,50.9
		c-0.076,0.004-0.15,0.029-0.225,0.051c-0.216-0.336-0.414-0.684-0.601-1.037c0.972-1.803,1.825-4.433,2.555-7.334
		c1.949,0.092,4.257,0.171,6.739,0.197c-1.307,2.936-2.749,5.597-4.295,7.594C12.705,50.734,11.198,50.859,10.324,50.9z
		 M25.849,44.327c-0.327,0.315-0.833,0.85-1.164,1.161c-2.166,2.035-4.771,3.306-7.209,4.102c1.259-1.989,2.432-4.325,3.505-6.805
		c2.296-0.007,4.677-0.067,7.02-0.207C27.306,43.046,26.587,43.616,25.849,44.327z M36.443,39.55
		c-4.197,0.874-9.575,1.179-14.623,1.22c1.11-2.771,2.099-5.642,2.944-8.338c3.634,0.169,8.029,0.477,13.342,0.975
		C37.333,35.789,36.772,38.073,36.443,39.55z M41.596,25.94c-1.09,1.417-2.032,3.428-2.814,5.524
		c-5.039-0.479-9.512-0.815-13.413-1.009c0.656-2.199,1.208-4.222,1.643-5.905l15.045-0.76c0.097,0.254,0.144,0.496,0.157,0.709
		C42.242,24.952,41.872,25.58,41.596,25.94z"/>
</g>
</svg>
