<?xml version="1.0" encoding="iso-8859-1"?>
<!-- Generator: Adobe Illustrator 17.1.0, SVG Export Plug-In . SVG Version: 6.00 Build 0)  -->
<!DOCTYPE svg PUBLIC "-//W3C//DTD SVG 1.1//EN" "http://www.w3.org/Graphics/SVG/1.1/DTD/svg11.dtd">
<svg version="1.1" id="Capa_1" xmlns="http://www.w3.org/2000/svg" xmlns:xlink="http://www.w3.org/1999/xlink" x="0px" y="0px"
	 viewBox="0 0 64 64" style="enable-background:new 0 0 64 64;" xml:space="preserve">
<g>
	<path d="M38.016,27.502c0.16-0.037,3.963-0.925,6.17-2.15c0.652-0.362,1.229-0.757,1.788-1.139c1.256-0.859,2.442-1.67,4.403-2.036
		c2.206-0.412,5.886-2.556,7.16-6.031c0.676-1.844,0.914-4.737-1.789-8.057c-0.045-0.055-0.094-0.106-0.146-0.155
		c-1.656-1.528-3.426-2.303-5.261-2.303c-4.573,0-7.891,4.91-8.651,7.539c-0.553,1.92-1.474,3.022-2.448,4.188
		c-0.434,0.52-0.882,1.057-1.305,1.67c-1.46,2.118-2.455,5.791-2.497,5.946c-0.075,0.281-0.065,0.571,0.019,0.838l-3.072,3.188
		l-3.072-3.188c0.084-0.267,0.094-0.557,0.018-0.838c-0.042-0.155-1.037-3.828-2.497-5.946c-0.423-0.613-0.871-1.15-1.305-1.67
		c-0.975-1.166-1.896-2.269-2.448-4.188c-0.761-2.629-4.078-7.539-8.651-7.539c-1.835,0-3.604,0.775-5.261,2.303
		C9.119,7.983,9.07,8.035,9.025,8.09c-2.703,3.319-2.465,6.213-1.789,8.057c1.274,3.476,4.954,5.619,7.16,6.031
		c1.961,0.366,3.147,1.177,4.403,2.036c0.559,0.382,1.136,0.776,1.788,1.139c2.207,1.225,6.01,2.112,6.17,2.15
		c0.006,0.002,0.013,0.001,0.019,0.002l3.526,3.66L7.214,55.127c-0.575,0.597-0.558,1.546,0.039,2.121
		c0.291,0.28,0.666,0.42,1.041,0.42c0.394,0,0.786-0.153,1.08-0.459l23.013-23.883l23.013,23.883
		c0.294,0.306,0.686,0.459,1.08,0.459c0.375,0,0.75-0.14,1.041-0.42c0.597-0.575,0.614-1.524,0.039-2.121L34.47,31.164l3.526-3.66
		C38.003,27.503,38.01,27.504,38.016,27.502z M43.644,21.495c-0.242-0.261-0.523-0.55-0.893-0.902
		c-0.104-0.1-0.188-0.175-0.283-0.264c0.689-0.705,1.361-1.416,2.014-2.128c0.184,0.163,0.377,0.339,0.591,0.543
		c0.288,0.274,0.521,0.509,0.729,0.724C45.07,20.138,44.346,20.817,43.644,21.495z M48.429,16.182
		c0.184,0.175,0.329,0.338,0.485,0.505c-0.825,0.72-1.688,1.483-2.559,2.274c-0.223-0.229-0.47-0.477-0.766-0.76
		c-0.218-0.208-0.411-0.38-0.605-0.552c0.775-0.86,1.515-1.708,2.205-2.522C47.589,15.435,48.001,15.772,48.429,16.182z
		 M47.674,14.552c0.627-0.75,1.209-1.461,1.734-2.117c0.402,0.31,0.817,0.649,1.249,1.062c0.335,0.32,0.617,0.637,0.87,0.948
		c-0.619,0.523-1.305,1.107-2.039,1.742c-0.169-0.179-0.346-0.36-0.542-0.548C48.507,15.219,48.084,14.87,47.674,14.552z
		 M44.945,21.289c0.452-0.427,0.908-0.852,1.368-1.273c0.101,0.114,0.189,0.218,0.262,0.309
		C45.975,20.629,45.442,20.96,44.945,21.289z M49.826,19.228c-0.984,0.184-1.82,0.455-2.558,0.772
		c-0.109-0.146-0.241-0.307-0.403-0.489c0.868-0.787,1.727-1.548,2.548-2.265c0.578,0.7,0.938,1.304,1.143,1.768
		C50.298,19.109,50.05,19.186,49.826,19.228z M51.246,18.711c-0.236-0.531-0.627-1.198-1.262-1.962
		c0.716-0.619,1.386-1.19,1.992-1.702c0.68,0.991,0.982,1.846,1.114,2.384C52.51,17.965,51.865,18.398,51.246,18.711z
		 M54.721,15.113c-0.227,0.618-0.592,1.181-1.023,1.685c-0.192-0.6-0.537-1.381-1.139-2.241c1.331-1.115,2.216-1.83,2.292-1.893
		C55.053,13.504,55.011,14.321,54.721,15.113z M53.489,10.067c0.517,0.649,0.899,1.291,1.146,1.923
		c-0.083-0.001-0.168,0.021-0.238,0.077c-0.027,0.022-0.929,0.749-2.292,1.892c-0.27-0.33-0.576-0.667-0.931-1.006
		c-0.449-0.429-0.88-0.783-1.298-1.106c0.977-1.235,1.713-2.21,2.142-2.79C52.508,9.295,52.998,9.625,53.489,10.067z M50.342,8.632
		c0.313,0,0.631,0.06,0.948,0.148c-0.44,0.591-1.126,1.496-2.013,2.615c-0.893-0.623-1.653-1.009-2.192-1.24
		C48.03,9.274,49.157,8.632,50.342,8.632z M46.519,10.734c0.477,0.188,1.295,0.567,2.288,1.253c-0.525,0.655-1.105,1.364-1.73,2.111
		c-0.816-0.572-1.524-0.945-2.056-1.185C45.378,12.206,45.893,11.432,46.519,10.734z M44.573,14.003
		c0.037-0.127,0.084-0.263,0.138-0.403c0.481,0.219,1.131,0.563,1.876,1.079c-0.682,0.804-1.41,1.639-2.175,2.485
		c-0.326-0.263-0.626-0.488-0.877-0.646C43.931,15.805,44.29,14.986,44.573,14.003z M41.545,19.283
		c0.525-0.629,1.084-1.301,1.604-2.114c0.206,0.129,0.454,0.303,0.761,0.548c-0.646,0.706-1.315,1.411-1.998,2.109
		c-0.182-0.157-0.343-0.29-0.485-0.398C41.467,19.379,41.504,19.332,41.545,19.283z M40.407,20.732
		c0.172-0.25,0.355-0.491,0.545-0.729c0.115,0.088,0.264,0.212,0.432,0.358c-0.546,0.546-1.098,1.083-1.656,1.604
		C39.943,21.51,40.17,21.077,40.407,20.732z M41.94,20.863c0.097,0.09,0.184,0.168,0.293,0.272c0.37,0.354,0.652,0.642,0.875,0.88
		c-0.354,0.346-0.696,0.69-1.03,1.029c-0.595,0.269-1.273,0.521-1.956,0.744c-0.072-0.135-0.147-0.269-0.263-0.38
		c-0.105-0.102-0.232-0.162-0.357-0.227C40.328,22.44,41.143,21.662,41.94,20.863z M23.821,20.003
		c0.19,0.238,0.373,0.479,0.545,0.729c0.237,0.345,0.464,0.777,0.68,1.232c-0.559-0.521-1.11-1.058-1.656-1.604
		C23.558,20.215,23.706,20.091,23.821,20.003z M23.229,19.283c0.041,0.049,0.078,0.096,0.119,0.144
		c-0.143,0.108-0.304,0.241-0.485,0.398c-0.684-0.698-1.352-1.403-1.998-2.109c0.307-0.245,0.555-0.419,0.761-0.548
		C22.144,17.982,22.703,18.654,23.229,19.283z M20.2,14.003c0.283,0.983,0.643,1.802,1.038,2.516
		c-0.251,0.157-0.551,0.383-0.877,0.646c-0.765-0.847-1.493-1.682-2.175-2.485c0.745-0.516,1.396-0.86,1.876-1.079
		C20.116,13.74,20.163,13.876,20.2,14.003z M16.345,16.182c0.428-0.409,0.84-0.747,1.239-1.055c0.69,0.814,1.43,1.662,2.205,2.522
		c-0.194,0.172-0.388,0.344-0.605,0.552c-0.296,0.283-0.543,0.53-0.766,0.76c-0.871-0.791-1.733-1.555-2.559-2.274
		C16.016,16.519,16.161,16.356,16.345,16.182z M15.827,15.639c-0.196,0.188-0.373,0.369-0.542,0.548
		c-0.734-0.636-1.42-1.22-2.039-1.742c0.253-0.311,0.535-0.628,0.87-0.948c0.432-0.412,0.847-0.752,1.249-1.062
		c0.525,0.656,1.108,1.367,1.734,2.117C16.69,14.87,16.267,15.219,15.827,15.639z M19.753,12.913
		c-0.531,0.24-1.239,0.613-2.056,1.185c-0.625-0.747-1.205-1.456-1.73-2.111c0.993-0.686,1.812-1.065,2.288-1.253
		C18.881,11.432,19.396,12.206,19.753,12.913z M14.432,8.632c1.185,0,2.312,0.643,3.257,1.523c-0.539,0.231-1.3,0.617-2.192,1.24
		c-0.887-1.119-1.572-2.024-2.013-2.615C13.801,8.691,14.118,8.632,14.432,8.632z M11.284,10.067
		c0.491-0.442,0.981-0.773,1.47-1.011c0.43,0.58,1.166,1.555,2.143,2.79c-0.418,0.323-0.849,0.678-1.298,1.106
		c-0.354,0.339-0.661,0.676-0.931,1.006c-1.363-1.143-2.265-1.869-2.292-1.892c-0.07-0.057-0.155-0.078-0.238-0.077
		C10.385,11.358,10.767,10.717,11.284,10.067z M10.053,15.113c-0.29-0.792-0.332-1.609-0.13-2.448
		c0.076,0.062,0.961,0.777,2.292,1.893c-0.602,0.86-0.946,1.642-1.139,2.241C10.644,16.294,10.279,15.731,10.053,15.113z
		 M11.683,17.431c0.132-0.538,0.435-1.393,1.114-2.384c0.606,0.512,1.276,1.083,1.992,1.702c-0.635,0.764-1.025,1.431-1.262,1.962
		C12.908,18.398,12.264,17.965,11.683,17.431z M17.505,20c-0.737-0.316-1.573-0.588-2.558-0.772
		c-0.224-0.042-0.472-0.119-0.73-0.215c0.206-0.464,0.565-1.067,1.144-1.768c0.821,0.717,1.68,1.477,2.548,2.265
		C17.746,19.693,17.614,19.854,17.505,20z M18.198,20.324c0.073-0.091,0.161-0.194,0.262-0.309c0.46,0.422,0.916,0.847,1.368,1.273
		C19.331,20.96,18.799,20.629,18.198,20.324z M21.13,21.495c-0.702-0.678-1.427-1.357-2.157-2.027
		c0.208-0.215,0.44-0.449,0.728-0.724c0.214-0.204,0.407-0.38,0.591-0.543c0.652,0.712,1.324,1.423,2.014,2.128
		c-0.095,0.089-0.179,0.164-0.283,0.264C21.653,20.945,21.372,21.234,21.13,21.495z M24.914,23.409
		c-0.115,0.111-0.19,0.245-0.263,0.38c-0.683-0.224-1.361-0.476-1.956-0.744c-0.334-0.34-0.677-0.684-1.03-1.029
		c0.223-0.238,0.505-0.526,0.875-0.88c0.109-0.104,0.196-0.183,0.293-0.272c0.798,0.799,1.612,1.576,2.438,2.319
		C25.146,23.247,25.019,23.308,24.914,23.409z"/>
</g>
</svg>
