<?xml version="1.0" encoding="iso-8859-1"?>
<!-- Generator: Adobe Illustrator 17.1.0, SVG Export Plug-In . SVG Version: 6.00 Build 0)  -->
<!DOCTYPE svg PUBLIC "-//W3C//DTD SVG 1.1//EN" "http://www.w3.org/Graphics/SVG/1.1/DTD/svg11.dtd">
<svg version="1.1" id="Capa_1" xmlns="http://www.w3.org/2000/svg" xmlns:xlink="http://www.w3.org/1999/xlink" x="0px" y="0px"
	 viewBox="0 0 64 64" style="enable-background:new 0 0 64 64;" xml:space="preserve">
<g>
	<circle cx="41.194" cy="15.687" r="3.896"/>
	<path d="M43.269,21.105c-0.027-0.001-0.053,0.005-0.079,0.006l-5.922-1.713c-0.569-0.393-1.334-0.454-1.97-0.084L30.4,22.157
		l-1.077-1.348l0.107-0.693c0.154-1.005-0.535-1.944-1.54-2.1c-0.264-0.042-0.522-0.023-0.762,0.042l-3.283-4.112
		c0.047-0.107,0.063-0.232,0.042-0.355c-0.013-0.068-0.292-1.68-0.833-2.646c-0.157-0.279-0.326-0.526-0.49-0.766
		c-0.371-0.538-0.722-1.047-0.882-1.889c-0.22-1.157-1.442-3.39-3.399-3.573c-0.786-0.073-1.576,0.186-2.346,0.775
		c-0.023,0.021-0.046,0.038-0.067,0.061c-1.289,1.313-1.303,2.562-1.087,3.377c0.407,1.539,1.895,2.602,2.823,2.867
		c0.823,0.234,1.301,0.629,1.803,1.046c0.224,0.187,0.454,0.378,0.72,0.56c0.897,0.613,2.488,1.144,2.557,1.164
		c0.003,0.003,0.004,0.004,0.006,0.004l3.391,4.245c-0.144,0.217-0.248,0.465-0.29,0.739l-1.025,6.664
		c-0.107,0.7,0.196,1.401,0.781,1.801c0.312,0.213,0.675,0.32,1.039,0.32c0.318,0,0.638-0.082,0.924-0.249l3.963-2.525l1.007,1.261
		l-0.447,3.385c-0.914,0.045-1.67,0.762-1.737,1.697c-0.061,0.858,0.478,1.616,1.259,1.875l-1.265,4.083l-2.804,3.622l-9.189-0.625
		c-1.413-0.086-2.649,0.976-2.746,2.396s0.977,2.65,2.396,2.747l10.56,0.717c0.059,0.005,0.117,0.006,0.175,0.006
		c0.795,0,1.549-0.366,2.038-0.999l4.491-5.799c0.07-0.091,0.121-0.188,0.178-0.284l0.176,0.031l1.909,5.25L33.99,58.094
		c-0.365,1.376,0.455,2.786,1.832,3.151c0.221,0.059,0.442,0.086,0.66,0.086c1.142,0,2.186-0.764,2.491-1.919l3.69-13.943
		c0.135-0.508,0.11-1.045-0.069-1.54l-1.759-5.262l0.564-4.056l1.251,0.165c0.045,0.004,0.089,0.005,0.133,0.005
		c0.451,0,0.888-0.165,1.227-0.468c0.372-0.331,0.593-0.8,0.613-1.297l0.41-9.996C45.075,22.004,44.285,21.147,43.269,21.105z
		 M21.725,11.243c0.072,0.109,0.142,0.22,0.204,0.334c0.088,0.156,0.166,0.351,0.241,0.554c-0.218-0.245-0.433-0.496-0.644-0.751
		C21.604,11.323,21.671,11.276,21.725,11.243z M21.501,10.91c0.014,0.024,0.028,0.046,0.044,0.067
		c-0.064,0.041-0.141,0.092-0.225,0.152c-0.264-0.326-0.522-0.655-0.772-0.983c0.143-0.092,0.255-0.155,0.35-0.203
		C21.087,10.31,21.3,10.622,21.501,10.91z M20.414,8.531c0.082,0.432,0.203,0.797,0.345,1.119c-0.114,0.057-0.253,0.141-0.402,0.239
		c-0.294-0.392-0.571-0.778-0.831-1.15c0.34-0.189,0.632-0.312,0.847-0.387C20.389,8.415,20.402,8.477,20.414,8.531z M18.676,9.309
		c0.2-0.156,0.393-0.286,0.574-0.4c0.264,0.376,0.545,0.768,0.843,1.166c-0.091,0.066-0.18,0.133-0.281,0.213
		c-0.138,0.109-0.253,0.205-0.358,0.295c-0.341-0.373-0.679-0.734-1.004-1.074C18.523,9.441,18.592,9.377,18.676,9.309z
		 M18.224,9.269c-0.289-0.301-0.559-0.578-0.802-0.826c0.118-0.124,0.252-0.249,0.408-0.371c0.201-0.159,0.393-0.289,0.578-0.404
		c0.198,0.301,0.419,0.629,0.658,0.975c-0.189,0.119-0.386,0.253-0.588,0.415C18.387,9.129,18.305,9.201,18.224,9.269z
		 M20.267,8.049C20.03,8.128,19.712,8.26,19.34,8.471c-0.238-0.343-0.459-0.669-0.657-0.971c0.453-0.254,0.818-0.384,1.03-0.444
		C19.951,7.379,20.141,7.731,20.267,8.049z M18.16,6.003c0.507,0.047,0.963,0.366,1.333,0.782c-0.242,0.076-0.582,0.211-0.988,0.442
		c-0.335-0.516-0.592-0.929-0.758-1.199C17.886,6.003,18.024,5.99,18.16,6.003z M16.756,6.489c0.228-0.167,0.451-0.289,0.669-0.37
		c0.161,0.263,0.438,0.711,0.806,1.278c-0.193,0.121-0.389,0.255-0.6,0.422c-0.164,0.131-0.309,0.264-0.438,0.393
		c-0.54-0.544-0.896-0.891-0.906-0.902c-0.028-0.025-0.064-0.038-0.098-0.039C16.318,7.007,16.508,6.75,16.756,6.489z M16.026,8.602
		c-0.091-0.352-0.077-0.703,0.043-1.054c0.028,0.031,0.379,0.371,0.905,0.901c-0.292,0.345-0.47,0.665-0.575,0.914
		C16.232,9.13,16.1,8.875,16.026,8.602z M17.37,10.28c-0.251-0.159-0.51-0.369-0.737-0.621c0.078-0.225,0.24-0.579,0.571-0.976
		c0.24,0.242,0.503,0.514,0.784,0.807C17.686,9.792,17.491,10.061,17.37,10.28z M19.021,10.99c-0.303-0.166-0.649-0.314-1.063-0.432
		c-0.094-0.027-0.197-0.069-0.305-0.123c0.107-0.188,0.285-0.435,0.561-0.709c0.322,0.34,0.66,0.698,1.001,1.07
		C19.137,10.868,19.074,10.932,19.021,10.99z M19.305,11.157c0.036-0.036,0.076-0.076,0.125-0.123
		c0.179,0.199,0.359,0.399,0.534,0.6C19.766,11.473,19.55,11.311,19.305,11.157z M19.67,10.821c0.1-0.085,0.207-0.177,0.342-0.282
		c0.099-0.078,0.189-0.146,0.274-0.207c0.251,0.33,0.509,0.662,0.776,0.99c-0.044,0.034-0.082,0.064-0.131,0.102
		c-0.172,0.138-0.304,0.249-0.418,0.351C20.24,11.457,19.957,11.137,19.67,10.821z M22.057,12.745
		c-0.054,0.043-0.092,0.097-0.127,0.151c-0.284-0.122-0.565-0.257-0.809-0.396c-0.129-0.158-0.262-0.321-0.4-0.481
		c0.106-0.093,0.238-0.206,0.41-0.343c0.051-0.041,0.09-0.07,0.138-0.104c0.308,0.374,0.626,0.739,0.948,1.09
		C22.162,12.685,22.105,12.706,22.057,12.745z M28.989,22.976l0.067-0.432l0.215,0.269L28.989,22.976z M32.713,25.054l-0.147-0.184
		l0.187-0.119L32.713,25.054z"/>
</g>
</svg>
