<?xml version="1.0" encoding="iso-8859-1"?>
<!-- Generator: Adobe Illustrator 17.1.0, SVG Export Plug-In . SVG Version: 6.00 Build 0)  -->
<!DOCTYPE svg PUBLIC "-//W3C//DTD SVG 1.1//EN" "http://www.w3.org/Graphics/SVG/1.1/DTD/svg11.dtd">
<svg version="1.1" id="Capa_1" xmlns="http://www.w3.org/2000/svg" xmlns:xlink="http://www.w3.org/1999/xlink" x="0px" y="0px"
	 viewBox="0 0 64 64" style="enable-background:new 0 0 64 64;" xml:space="preserve">
<g>
	<path style="fill:#1D1D1B;" d="M60,36.441h-2.019c-0.167-0.524-0.365-1.057-0.616-1.607c-0.344-0.754-1.233-1.088-1.986-0.744
		c-0.754,0.344-1.087,1.232-0.744,1.986c0.057,0.124,0.103,0.244,0.154,0.365H40.333v-3.615c0-0.553-0.447-1-1-1H17.666
		c-0.553,0-1,0.447-1,1v7.557c0,0.553,0.447,1,1,1h18.805c0.171,0.037,0.348,0.059,0.529,0.059h17.941
		c-0.355,0.545-0.797,0.867-1.051,1.021H17.666c-0.828,0-1.5,0.672-1.5,1.5c0,0.828,0.672,1.5,1.5,1.5H54.25
		c0.192,0,0.383-0.037,0.561-0.109c0.228-0.092,2.252-0.967,3.209-3.362c0.071-0.179,0.125-0.364,0.18-0.549H60
		c1.381,0,2.5-1.119,2.5-2.5C62.5,37.56,61.381,36.441,60,36.441z"/>
	<path style="fill:#1D1D1B;" d="M14.555,38.522c1.06-2.908-0.438-6.121-3.345-7.181c-2.905-1.059-6.12,0.435-7.181,3.344
		c-1.06,2.909,0.44,6.123,3.345,7.181C10.28,42.926,13.493,41.431,14.555,38.522z"/>
</g>
</svg>
