<?xml version="1.0" encoding="iso-8859-1"?>
<!-- Generator: Adobe Illustrator 17.1.0, SVG Export Plug-In . SVG Version: 6.00 Build 0)  -->
<!DOCTYPE svg PUBLIC "-//W3C//DTD SVG 1.1//EN" "http://www.w3.org/Graphics/SVG/1.1/DTD/svg11.dtd">
<svg version="1.1" id="Capa_1" xmlns="http://www.w3.org/2000/svg" xmlns:xlink="http://www.w3.org/1999/xlink" x="0px" y="0px"
	 viewBox="0 0 64 64" style="enable-background:new 0 0 64 64;" xml:space="preserve">
<g>
	<circle cx="10.396" cy="44.741" r="6.906"/>
	<path d="M19.328,49.269l-6.137,5.502c-1.233,1.105-1.337,3.002-0.231,4.236c1.104,1.231,3,1.337,4.236,0.231l7.278-6.525
		c0.717-0.643,1.082-1.591,0.981-2.549L25.12,46.98l1.63,1.873v8.772c0,1.657,1.343,3,3,3c1.657,0,3-1.343,3-3V47.73
		c0-0.724-0.262-1.424-0.737-1.97l-4.235-4.866l3.014-2.967l0.609,2.159c0.086,0.306,0.209,0.6,0.364,0.877l7.125,12.646
		c0.735,1.304,2.092,2.037,3.489,2.037c0.665,0,1.339-0.166,1.96-0.516c1.925-1.085,2.605-3.524,1.522-5.449L38.97,37.453
		l-2.499-8.854l20.847-15.184c1.785-1.301,2.179-3.803,0.878-5.588c-1.301-1.787-3.803-2.178-5.589-0.878L30.031,23.391
		c-0.09,0.065-0.16,0.146-0.243,0.217l-0.038-0.046L18.823,35.928c-0.006,0.006-0.012,0.012-0.017,0.019l-0.002,0.002
		c-0.488,0.604-0.737,1.392-0.651,2.202L19.328,49.269z"/>
</g>
</svg>
