<?xml version="1.0" encoding="iso-8859-1"?>
<!-- Generator: Adobe Illustrator 17.1.0, SVG Export Plug-In . SVG Version: 6.00 Build 0)  -->
<!DOCTYPE svg PUBLIC "-//W3C//DTD SVG 1.1//EN" "http://www.w3.org/Graphics/SVG/1.1/DTD/svg11.dtd">
<svg version="1.1" id="Capa_1" xmlns="http://www.w3.org/2000/svg" xmlns:xlink="http://www.w3.org/1999/xlink" x="0px" y="0px"
	 viewBox="0 0 64 64" style="enable-background:new 0 0 64 64;" xml:space="preserve">
<g>
	<circle cx="13.173" cy="21.004" r="6.573"/>
	<path d="M23.66,33.338l-0.522-0.526h4.177c0.311,0,0.621-0.048,0.918-0.144l13.911-4.47c1.578-0.507,2.446-2.197,1.939-3.774
		c-0.507-1.578-2.199-2.448-3.774-1.939l-13.464,4.326h-7.182c-0.917,0-1.727,0.419-2.277,1.067l-4.675,2.546
		c-1.059,0.24-1.955,1.035-2.248,2.158l-2.709,10.41c-0.239,0.921-0.028,1.901,0.57,2.641l7.282,9.017
		c0.593,0.734,1.461,1.115,2.336,1.115c0.663,0,1.329-0.218,1.884-0.667c1.289-1.041,1.49-2.93,0.449-4.22l-6.332-7.839l1.677-6.443
		l2.728,3.49c0.722,1.223,2.457,2.27,3.875,2.336l3.363,0.189l-0.719,9.06c-0.098,1.227,0.47,2.412,1.487,3.105
		c0.579,0.395,1.253,0.596,1.931,0.596c0.512,0,1.026-0.115,1.503-0.347l11.234-5.477c1.702-0.83,2.41-2.883,1.58-4.585
		c-0.83-1.701-2.882-2.408-4.585-1.58l-5.838,2.847l0.33-4.151l23.497-5.398c1.846-0.424,2.999-2.264,2.574-4.109
		c-0.424-1.847-2.268-2.999-4.11-2.575l-22.21,5.103L23.66,33.338z"/>
</g>
</svg>
