<?xml version="1.0" encoding="iso-8859-1"?>
<!-- Generator: Adobe Illustrator 17.1.0, SVG Export Plug-In . SVG Version: 6.00 Build 0)  -->
<!DOCTYPE svg PUBLIC "-//W3C//DTD SVG 1.1//EN" "http://www.w3.org/Graphics/SVG/1.1/DTD/svg11.dtd">
<svg version="1.1" id="Capa_1" xmlns="http://www.w3.org/2000/svg" xmlns:xlink="http://www.w3.org/1999/xlink" x="0px" y="0px"
	 viewBox="0 0 64 64" style="enable-background:new 0 0 64 64;" xml:space="preserve">
<g>
	<circle cx="8.973" cy="10.319" r="4.799"/>
	<circle cx="52.235" cy="15.119" r="4.799"/>
	<path d="M59.418,26.418c-0.11-0.922-0.693-1.721-1.541-2.104l-6.099-2.769l-5.197-2.632c-0.185-0.149-0.384-0.283-0.612-0.382
		l-4.247-1.823c-0.162-0.07-0.332-0.123-0.505-0.16l-7.849-1.639c-1.434-0.301-2.844,0.621-3.144,2.057
		c-0.3,1.438,0.621,2.845,2.057,3.144l7.59,1.586l2.086,0.895l-2.784,3.695l-14.858-5.441c-1.571-0.574-3.317,0.232-3.894,1.809
		c-0.47,1.283-0.01,2.667,1.025,3.451l-2.598,0.953l-1.775-6.633l0.978-0.21c0.897-0.192,1.631-0.836,1.942-1.699l2.934-8.168
		c0.496-1.381-0.221-2.901-1.602-3.398c-1.376-0.495-2.9,0.221-3.398,1.602l-2.374,6.604l-1.087,0.396l-0.394,0.085
		c-0.339,0.073-0.647,0.212-0.918,0.394l-3.902,1.424c-1.182,0.431-1.834,1.752-1.456,2.952l5.321,16.944l0.065-0.039l0.556,5.884
		L8.393,54.108c-0.739,1.506-0.116,3.325,1.39,4.061c0.43,0.21,0.886,0.311,1.333,0.311c1.123,0,2.202-0.624,2.73-1.7l5.723-11.684
		c0.247-0.502,0.35-1.062,0.297-1.62l-0.906-9.587c-0.001-0.015-0.007-0.027-0.009-0.042l1.478-0.888l-0.004-0.013l4.543-1.666
		l4.527,3.962c0.576,0.505,1.289,0.753,1.998,0.753c0.846,0,1.687-0.352,2.286-1.037c1.104-1.262,0.977-3.18-0.284-4.284
		l-0.003-0.003l4.628,1.695c0.19,0.069,0.384,0.114,0.577,0.143l0.035,0.049c-0.035,0.265-0.049,0.534-0.011,0.812l1.406,10.275
		L39.424,54.01c-0.113,1.672,1.151,3.12,2.823,3.233c0.07,0.005,0.14,0.007,0.209,0.007c1.583,0,2.917-1.228,3.026-2.83
		l0.725-10.672c0.013-0.207,0.006-0.413-0.022-0.618l-1.144-8.349l2.747-3.578l3.141-4.21l3.391,1.539l0.712,5.989
		c0.161,1.351,1.308,2.342,2.636,2.342c0.104,0,0.21-0.005,0.315-0.018c1.458-0.174,2.498-1.495,2.324-2.951L59.418,26.418z"/>
</g>
</svg>
