<?xml version="1.0" encoding="iso-8859-1"?>
<!-- Generator: Adobe Illustrator 17.1.0, SVG Export Plug-In . SVG Version: 6.00 Build 0)  -->
<!DOCTYPE svg PUBLIC "-//W3C//DTD SVG 1.1//EN" "http://www.w3.org/Graphics/SVG/1.1/DTD/svg11.dtd">
<svg version="1.1" id="Capa_1" xmlns="http://www.w3.org/2000/svg" xmlns:xlink="http://www.w3.org/1999/xlink" x="0px" y="0px"
	 viewBox="0 0 64 64" style="enable-background:new 0 0 64 64;" xml:space="preserve">
<g>
	<path d="M19.708,12.681c-0.048,0.012-3.02,0.774-3.816,3.518c-0.663,2.285-5.33,17.97-7.632,25.706
		c-0.63,2.117,0.552,4.417,2.641,5.136l0.548,0.19c2.089,0.719,4.29-0.416,4.916-2.534l4.356-14.739l-0.06,10.038h3.336
		l5.091-14.859l-4.793-13.758L19.708,12.681z"/>
	<polygon points="32.044,16.508 35.076,7.654 28.989,7.654 	"/>
	<path d="M44.096,53.353l-0.611-8.726h-4.567c0,0,0.661,0.68,1.476,1.517c0.815,0.839,0.768,2.19-0.104,3.019
		c-0.874,0.828-2.508,0.528-3.651-0.671l-3.236-3.394l-2.789-0.016l-3.25,3.409c-1.144,1.199-2.778,1.499-3.65,0.671
		c-0.873-0.828-0.92-2.18-0.104-3.019l1.476-1.517h-4.567l-0.612,8.726c-0.116,1.652,1.133,2.992,2.79,2.992h18.61
		C42.962,56.346,44.212,55.006,44.096,53.353z"/>
	<path d="M52.552,47.229l0.547-0.19c2.089-0.719,3.271-3.019,2.641-5.137c-2.302-7.735-6.968-23.42-7.631-25.705
		c-0.802-2.758-3.767-3.506-3.797-3.513l-4.64-1.319l-9.758,28.424h13.484l-0.15-9.847l4.383,14.753
		C48.26,46.815,50.463,47.948,52.552,47.229z"/>
	<path d="M25.736,10.589c0.271,0.777,1.076,3.09,1.972,5.662l2.229,6.401l1.25-3.65L27.554,8.458
		C26.947,9.168,26.114,10.146,25.736,10.589z"/>
	<path d="M25.709,39.994h2.354l10.154-29.382l-1.785-1.918C34.983,12.923,28.254,32.565,25.709,39.994z"/>
	<polygon points="43.381,41.615 35.987,41.615 37.342,43.008 43.381,43.008 	"/>
	<polygon points="20.621,41.615 20.621,43.008 26.66,43.008 28.015,41.615 	"/>
	<path d="M24.837,47.995c0.221,0.209,0.708,0.055,1.089-0.345l3.695-3.874v-1.49l-4.486,4.613
		C24.75,47.295,24.617,47.786,24.837,47.995z"/>
	<path d="M34.379,43.774c1.033,1.084,2.641,2.771,3.695,3.876c0.381,0.4,0.869,0.554,1.09,0.345c0.22-0.209,0.087-0.7-0.298-1.096
		l-4.486-4.614L34.379,43.774z"/>
	<polygon points="32.76,43.474 32.76,41.225 31.242,41.225 31.242,43.466 	"/>
</g>
</svg>
