<?xml version="1.0" encoding="iso-8859-1"?>
<!-- Generator: Adobe Illustrator 17.1.0, SVG Export Plug-In . SVG Version: 6.00 Build 0)  -->
<!DOCTYPE svg PUBLIC "-//W3C//DTD SVG 1.1//EN" "http://www.w3.org/Graphics/SVG/1.1/DTD/svg11.dtd">
<svg version="1.1" id="Capa_1" xmlns="http://www.w3.org/2000/svg" xmlns:xlink="http://www.w3.org/1999/xlink" x="0px" y="0px"
	 viewBox="0 0 64 64" style="enable-background:new 0 0 64 64;" xml:space="preserve">
<g>
	<path d="M52.354,21.42c-3.786,0-7.238,2.082-8.966,5.356l-5.909,10.229H18.951c-2.711,0-4.916-2.245-4.916-5.005
		c0-2.71,2.205-4.915,4.916-4.915c1.825,0,3.464,0.886,4.309,2.32c2.26,5.3,7.935,5.457,8.616,5.457c0.001,0,0.001,0,0.001,0
		c5.281,0,9.578-4.297,9.578-9.578c0-5.281-4.296-9.578-9.62-9.578H13.682c-2.31,0-4.848,1.44-6.034,3.421L3.38,26.257
		C2.397,27.9,1.684,30.24,1.684,31.821c0,1.629,0.803,3.984,1.908,5.598l5.235,7.658c1.273,1.864,3.836,3.216,6.094,3.216h17.445
		c2.326,0,4.856-1.462,6.016-3.474l1.805-3.123h12.167c5.615,0,10.183-4.528,10.183-10.093C62.538,25.988,57.969,21.42,52.354,21.42
		z M31.308,38.881h4.758v0.938h-4.758V38.881z M21.793,38.881h4.757v0.938h-4.757V38.881z M17.184,38.642l-0.249,0.904
		c-1.617-0.446-3.077-1.44-4.111-2.799l0.747-0.568C14.481,37.375,15.764,38.251,17.184,38.642z M12.159,31.999l-0.938,0.04v-0.04
		c0-1.704,0.544-3.321,1.574-4.676l0.747,0.568C12.637,29.081,12.159,30.501,12.159,31.999z M21.545,25.678
		c-1.372-0.523-2.943-0.624-4.383-0.233l-0.246-0.905c1.63-0.444,3.405-0.332,4.964,0.262L21.545,25.678z M28.209,32.09
		c-1.53-0.773-2.632-1.966-3.274-3.545l-0.048-0.077l0.811-0.472l0.08,0.141c0.581,1.417,1.532,2.447,2.854,3.115L28.209,32.09z
		 M38.384,21.163c0.781,1.232,1.194,2.657,1.194,4.121c0,0.242-0.012,0.48-0.033,0.716l-0.935-0.087
		c0.019-0.207,0.029-0.416,0.029-0.628c0-1.286-0.362-2.537-1.049-3.618L38.384,21.163z M37.508,30.537
		c-1.16,1.243-2.718,2.076-4.386,2.348l-0.15-0.926c1.464-0.238,2.831-0.97,3.85-2.062L37.508,30.537z M29.642,17.583h2.193
		c0.946,0,1.831,0.155,2.673,0.462l-0.321,0.881c-0.739-0.269-1.516-0.405-2.31-0.405h-2.235V17.583z M20.127,17.583h4.758v0.938
		h-4.758V17.583z M13.682,17.583h1.688v0.938h-1.688c-0.803,0-1.762,0.352-2.564,0.941l-0.555-0.756
		C11.519,18.003,12.685,17.583,13.682,17.583z M5.028,36.188c-0.836-1.303-1.467-3.181-1.467-4.367c0-0.129,0.007-0.267,0.021-0.413
		l0.935,0.085c-0.011,0.116-0.017,0.225-0.017,0.328c0,0.996,0.591,2.728,1.319,3.86L5.028,36.188z M5.258,26.773l2.443-4.083
		l0.805,0.482l-2.443,4.082L5.258,26.773z M10.791,43.792l-0.388,0.263l-2.684-3.925l0.774-0.53l2.659,3.889L10.791,43.792z
		 M19.627,46.417h-4.706l-0.051-0.469l0.051-0.469h4.706V46.417z M29.143,46.417h-4.758v-0.938h4.758V46.417z M14.921,43.602
		c-0.69,0-1.831-0.602-2.22-1.172l-5.237-7.66c-0.654-0.956-1.089-2.408-1.089-2.948c0-0.649,0.46-2.201,1.031-3.155l4.268-7.129
		c0.331-0.554,1.363-1.139,2.008-1.139h18.195c2.694,0,4.886,2.192,4.886,4.886c0,2.694-2.192,4.886-4.916,4.886
		c-0.329,0-3.243-0.075-4.304-2.684l-0.121-0.253c-1.653-2.985-4.898-4.84-8.471-4.84c-5.297,0-9.607,4.31-9.607,9.607
		c0,5.347,4.31,9.697,9.607,9.697h15.818l-0.45,0.778c-0.316,0.548-1.32,1.128-1.953,1.128H14.921z M36.757,43.881
		c-0.533,0.925-1.553,1.747-2.727,2.201l-0.338-0.875c0.966-0.373,1.83-1.06,2.253-1.795l0.756-1.309l0.813,0.469L36.757,43.881z
		 M55.894,24.087l-0.4,0.849c-1.354-0.639-2.891-0.846-4.363-0.6l-0.155-0.926C52.639,23.131,54.369,23.366,55.894,24.087z
		 M45.013,27.714c0.397-0.751,0.917-1.447,1.538-2.054l0.655,0.672c-0.551,0.538-1.013,1.156-1.372,1.836l-1.168,2.024l-0.813-0.469
		L45.013,27.714z M39.898,38.445l-0.813-0.469l2.383-4.125l0.813,0.469L39.898,38.445z M45.581,39.819h-4.758v-0.938h4.758V39.819z
		 M52.354,39.819h-2.017v-0.938h2.017c0.871,0,1.722-0.146,2.529-0.435l0.315,0.883C54.29,39.655,53.333,39.819,52.354,39.819z
		 M52.354,37.004h-9.456h-0.001l4.596-7.959c0.956-1.809,2.819-2.933,4.861-2.933c3.028,0,5.492,2.463,5.492,5.491
		C57.846,34.631,55.434,37.004,52.354,37.004z M59.16,36.335l-0.765-0.543c0.869-1.224,1.328-2.673,1.328-4.19
		c0-1.296-0.341-2.57-0.986-3.685l0.812-0.47c0.728,1.257,1.113,2.694,1.113,4.155C60.661,33.315,60.142,34.952,59.16,36.335z"/>
</g>
</svg>
