<?xml version="1.0" encoding="iso-8859-1"?>
<!-- Generator: Adobe Illustrator 17.1.0, SVG Export Plug-In . SVG Version: 6.00 Build 0)  -->
<!DOCTYPE svg PUBLIC "-//W3C//DTD SVG 1.1//EN" "http://www.w3.org/Graphics/SVG/1.1/DTD/svg11.dtd">
<svg version="1.1" id="Capa_1" xmlns="http://www.w3.org/2000/svg" xmlns:xlink="http://www.w3.org/1999/xlink" x="0px" y="0px"
	 viewBox="0 0 64 64" style="enable-background:new 0 0 64 64;" xml:space="preserve">
<g>
	<path d="M22.507,35.898c-0.122,0-0.267-0.036-0.423-0.102l-9.293-3.965c-0.481-0.204-0.906-0.309-1.268-0.309
		c-0.612,0-0.904,0.305-1.024,0.487c-0.071,0.108-0.148,0.296-0.156,0.544c-4.853,0.635-8.614,4.786-8.614,9.808
		c0,5.461,4.442,9.902,9.902,9.902c3.911,0,7.29-2.286,8.897-5.586c0.602,0.264,1.234,0.425,1.813,0.425h17.56
		c1.291,0,2.476-0.853,2.952-2.029c1.183,4.144,4.996,7.19,9.515,7.19c5.46,0,9.902-4.442,9.902-9.902
		c0-4.105-2.513-7.635-6.08-9.133c0.247-0.422,0.393-0.875,0.393-1.315c0-1.062-0.599-2.727-1.363-3.789l-3.859-5.359
		c-0.772-1.073-2.378-2.182-3.655-2.524l-3.129-0.839c-0.438-0.118-0.896-0.18-1.321-0.18c-0.983,0-1.681,0.312-1.963,0.876
		c-0.479,0.959,0.46,2.173,1.635,2.878l1.654,0.993c0.33,0.198,0.448,0.404,0.45,0.531c0.001,0.129-0.117,0.279-0.325,0.411
		c-0.255,0.161-0.467,0.253-0.625,0.296c-0.22-0.939-1.463-1.544-2.692-1.671l-11.085-1.147c-1.433-0.15-3.118,0.715-3.84,1.945
		l-0.852,1.456c-0.46,0.783-1.66,1.47-2.567,1.47h-2.811c-0.895,0-2.039-0.697-2.451-1.492l-0.697-1.348
		c-0.653-1.263-2.277-2.252-3.699-2.252H5.836c-0.352,0-1.426,0-1.624,0.819c-0.198,0.819,0.757,1.309,1.07,1.471L21.2,32.63
		c0.813,0.418,1.593,1.584,1.667,2.495l0.008,0.102c0.021,0.264-0.021,0.477-0.12,0.583C22.735,35.831,22.674,35.898,22.507,35.898z
		"/>
</g>
</svg>
