<?xml version="1.0" encoding="iso-8859-1"?>
<!-- Generator: Adobe Illustrator 17.1.0, SVG Export Plug-In . SVG Version: 6.00 Build 0)  -->
<!DOCTYPE svg PUBLIC "-//W3C//DTD SVG 1.1//EN" "http://www.w3.org/Graphics/SVG/1.1/DTD/svg11.dtd">
<svg version="1.1" id="Capa_1" xmlns="http://www.w3.org/2000/svg" xmlns:xlink="http://www.w3.org/1999/xlink" x="0px" y="0px"
	 viewBox="0 0 64 64" style="enable-background:new 0 0 64 64;" xml:space="preserve">
<g>
	<path d="M6.398,39.835c0.657,0.888,2.059,1.607,3.131,1.607c1.072,0,1.941,0,1.941,0s0.293,0.002,0.824,0.007
		c-0.002,0.053-0.016,0.102-0.016,0.155c0,2.836,2.3,5.137,5.137,5.137c2.837,0,5.137-2.3,5.137-5.137
		c0-0.028-0.008-0.054-0.008-0.082c6.148,0.039,13.836,0.078,20.313,0.081v0c0,2.836,2.3,5.137,5.137,5.137
		c2.837,0,5.137-2.3,5.137-5.137c0-0.017-0.005-0.032-0.005-0.049c1.648-0.025,2.725-0.062,2.998-0.113
		c1.002-0.188,1.81-1.281,2.358-2.294c0.525-0.972,0.526-1.913,0.191-2.013c-0.102-0.03-0.217-0.151-0.349-0.317
		c-1.874,0.121-4.027-0.622-5.508-1.276c-1.011-0.446-0.893-0.894,0.212-0.894h3.23c-2.897-1.905-8.496-2.698-11.487-2.995
		c-1.1-0.109-2.763-0.62-3.732-1.15c-2.336-1.277-6.581-3.402-9.911-3.985c-3.475-0.608-9.374-0.345-12.446-0.147
		c-1.102,0.071-1.858,0.392-1.69,0.693c0.168,0.301-0.587,0.646-1.672,0.856c-4.604,0.892-7.638,2.714-9.531,4.335
		c1.252,0.228,3.021,0.521,4.494,0.654c1.1,0.1,1.216,0.509,0.142,0.768c-1.298,0.313-3.287,0.467-5.941-0.162
		c-0.074,0.081-0.15,0.164-0.218,0.241c-0.725,0.833-0.635,2.339,0.022,3.227L6.398,39.835z M38.894,31.471
		c-5.394,0.529-11.406,0-11.406,0l-1.334-3.028C36.104,28.427,38.894,31.471,38.894,31.471z M24.455,28.459l0.97,2.912
		c0,0-9.109,0.461-12.376-0.607C13.049,30.765,16.932,28.216,24.455,28.459z"/>
	<path d="M42.486,21.005h15.25c0.553,0,1-0.447,1-1c0-0.553-0.447-1-1-1h-15.25c-0.553,0-1,0.447-1,1
		C41.486,20.558,41.933,21.005,42.486,21.005z"/>
	<path d="M36.236,24.515h15.25c0.553,0,1-0.447,1-1c0-0.553-0.447-1-1-1h-15.25c-0.553,0-1,0.447-1,1
		C35.236,24.067,35.683,24.515,36.236,24.515z"/>
	<path d="M40.736,48.995c0-0.553-0.447-1-1-1h-15.25c-0.553,0-1,0.447-1,1c0,0.553,0.447,1,1,1h15.25
		C40.289,49.995,40.736,49.548,40.736,48.995z"/>
	<path d="M18.236,51.505c-0.553,0-1,0.447-1,1c0,0.553,0.447,1,1,1h15.25c0.553,0,1-0.447,1-1c0-0.553-0.447-1-1-1H18.236z"/>
</g>
</svg>
