<?xml version="1.0" encoding="iso-8859-1"?>
<!-- Generator: Adobe Illustrator 17.1.0, SVG Export Plug-In . SVG Version: 6.00 Build 0)  -->
<!DOCTYPE svg PUBLIC "-//W3C//DTD SVG 1.1//EN" "http://www.w3.org/Graphics/SVG/1.1/DTD/svg11.dtd">
<svg version="1.1" id="Capa_1" xmlns="http://www.w3.org/2000/svg" xmlns:xlink="http://www.w3.org/1999/xlink" x="0px" y="0px"
	 viewBox="0 0 64 64" style="enable-background:new 0 0 64 64;" xml:space="preserve">
<g>
	<path style="fill:#1D1D1B;" d="M4.055,42.068c0,4.956,4.017,8.973,8.973,8.973c3.765,0,6.983-2.321,8.315-5.609
		c0.17,0.039,0.342,0.066,0.515,0.066h18.04c0.096,0,0.185-0.014,0.275-0.026c1.341,3.268,4.55,5.569,8.3,5.569
		c4.955,0,8.973-4.017,8.973-8.973s-4.018-8.973-8.973-8.973c-0.076,0-0.148,0.01-0.225,0.012c2.29-0.809,4.317-1.022,5.768-1.022
		c0.583,0,1.16,0.031,1.714,0.094c0.167,0.019,0.316,0.028,0.446,0.028c0.17,0,0.687,0,0.84-0.36
		c0.146-0.346-0.173-0.676-0.278-0.784c-0.541-0.56-1.715-1.231-2.672-1.527l-11.62-3.598c0.027-0.273-0.022-0.557-0.162-0.816
		l-0.205-0.383c0.391,0.213,0.821,0.367,1.285,0.439c0.041,0.006,0.08,0.009,0.119,0.009c0.431,0,0.78-0.367,0.78-0.818V18.2
		c0-0.493-0.416-0.884-0.899-0.811c-1.826,0.286-3.163,1.774-3.301,3.592l-2.622-4.887c-0.249-0.464-0.732-0.753-1.26-0.753h-9.575
		c-0.79,0-1.43,0.64-1.43,1.429c0,0.789,0.64,1.43,1.43,1.43h8.721l3.682,6.861c-0.833,0.043-1.659,0.417-2.137,0.997l-4.536,5.5
		c-0.509,0.617-1.641,0.945-2.407,0.692c-3.914-1.293-13.769-4.498-20.74-6.329c-0.23-0.061-0.485-0.092-0.756-0.092
		c-0.946,0-1.903,0.358-2.44,0.913c-0.618,0.639-1.121,1.264-1.496,1.857c-0.262,0.415-0.303,0.877-0.116,1.3
		C4.6,30.396,5.092,30.755,5.7,30.862c1.979,0.351,5.276,1.062,8.039,2.269c-0.235-0.018-0.471-0.036-0.711-0.036
		C8.072,33.096,4.055,37.112,4.055,42.068z"/>
</g>
</svg>
