<?xml version="1.0" encoding="iso-8859-1"?>
<!-- Generator: Adobe Illustrator 17.1.0, SVG Export Plug-In . SVG Version: 6.00 Build 0)  -->
<!DOCTYPE svg PUBLIC "-//W3C//DTD SVG 1.1//EN" "http://www.w3.org/Graphics/SVG/1.1/DTD/svg11.dtd">
<svg version="1.1" id="Capa_1" xmlns="http://www.w3.org/2000/svg" xmlns:xlink="http://www.w3.org/1999/xlink" x="0px" y="0px"
	 viewBox="0 0 64 64" style="enable-background:new 0 0 64 64;" xml:space="preserve">
<g>
	<path d="M59.341,42.891c-0.124-0.684-0.716-1.538-1.367-1.775c-1.015-0.371-2.767-0.795-5.467-0.795
		c-2.508,0-6.051-0.971-9.117-2.437c-0.498-0.237-1.31-0.28-1.799-0.023c-0.687,0.362-1.554,0.899-2.625,1.696
		c-0.17,0.125-0.367,0.186-0.562,0.186c-0.288,0-0.571-0.131-0.757-0.38c-0.311-0.417-0.224-1.008,0.193-1.318
		c0.679-0.504,1.293-0.92,1.849-1.263c0.47-0.291,0.489-0.75,0.052-1.087c-0.09-0.069-0.179-0.14-0.265-0.21
		c-0.429-0.348-1.146-0.451-1.615-0.16c-0.49,0.305-1.045,0.681-1.671,1.146c-0.168,0.124-0.365,0.186-0.561,0.186
		c-0.288,0-0.572-0.132-0.757-0.381c-0.312-0.417-0.225-1.007,0.193-1.318c0.579-0.431,1.11-0.795,1.599-1.105
		c0.467-0.296,0.816-0.585,0.769-0.673c-0.028-0.054-0.056-0.107-0.082-0.161c-0.159-0.333-0.316-0.722-0.472-1.157
		c-0.185-0.521-0.707-0.737-1.176-0.444c-0.475,0.297-1.009,0.66-1.607,1.105c-0.168,0.125-0.365,0.186-0.562,0.186
		c-0.287,0-0.572-0.131-0.757-0.38c-0.31-0.417-0.224-1.008,0.193-1.319c0.827-0.614,1.558-1.096,2.203-1.475
		c0.476-0.28,0.766-0.915,0.64-1.453c-0.039-0.167-0.078-0.336-0.116-0.505c-0.122-0.539-0.632-0.81-1.121-0.553
		c-0.688,0.362-1.557,0.899-2.632,1.699c-0.169,0.125-0.366,0.186-0.561,0.186c-0.288,0-0.571-0.131-0.757-0.38
		c-0.311-0.417-0.224-1.007,0.194-1.318c1.362-1.013,2.469-1.671,3.355-2.094c0.499-0.238,0.836-0.828,0.735-1.371
		c-0.33-1.767-0.59-3.365-0.751-4.405c-0.107-0.686-0.751-1.194-1.42-1.011c-0.833,0.227-1.935,0.669-2.795,1.523
		c-0.493,0.488-0.762,1.557-0.762,2.251v1.492c0,0-2.199,0.707-7.617,0.628c-5.42-0.078-5.42-0.078-5.42-0.078
		s0.189-3.341-1.637-6.353c-0.359-0.593-1.204-0.742-1.801-0.39l-1.92,1.132c-0.598,0.352-0.714,1.069-0.37,1.672
		c0.857,1.502,2.02,4.587,0.648,8.914c-0.893,2.823-2.144,4.629-3.216,6.22c4.142,1.312,13.374,5.182,13.374,13.569h-1.885
		c0-7.396-9.083-10.862-12.537-11.913c-0.76,1.338-1.239,2.726-1.076,4.688c0.419,5.026,1.048,6.911,1.048,6.911L6.69,52.506
		c-0.011,0.5,0.372,1.013,0.858,1.125c1.46,0.335,4.49,0.901,7.132,0.562c0.496-0.063,0.892-0.559,0.892-1.06v-0.179
		c0-0.501,0.404-0.921,0.904-0.94l0.887-0.035c0.5-0.02,0.904,0.369,0.904,0.869v0.545c0,0.5,0.388,1.023,0.88,1.116
		c0.962,0.182,2.633,0.361,4.6-0.011c0.491-0.093,0.882-0.605,0.882-1.105v-0.152c0-0.5,0.398-0.828,0.884-0.715
		c1.186,0.276,3.313,0.849,4.803,1.693c0.435,0.245,0.754,0.878,0.754,1.349s0.392,0.95,0.881,1.058
		c1.161,0.255,3.197,0.636,4.407,0.491c0.497-0.059,0.837-0.71,0.837-1.21V55.44c0-0.5,0.405-0.904,0.905-0.904h0.311
		c0.5,0,0.905,0.404,0.905,0.904v0.805c0,0.5,0.373,1.065,0.855,1.195c0.976,0.267,2.679,0.543,4.572,0.006
		c0.481-0.136,0.854-0.701,0.854-1.201v-0.646c0-0.501,0.405-0.921,0.904-0.939l0.312-0.011c0.5-0.019,0.904,0.371,0.904,0.871
		v0.153c0,0.5,0.405,0.879,0.899,0.802c0.832-0.129,2.098-0.413,3.153-1.025c0.432-0.251,0.737-0.873,0.737-1.307
		c0-0.433,0.39-0.897,0.871-1.033l1.007-0.288c0.481-0.137,0.871,0.156,0.871,0.656v0.075c0,0.5,0.402,0.855,0.89,0.742
		c1.29-0.302,3.566-1.105,3.901-3.058C60.393,49.216,59.721,44.987,59.341,42.891z"/>
</g>
</svg>
