<?xml version="1.0" encoding="iso-8859-1"?>
<!-- Generator: Adobe Illustrator 17.1.0, SVG Export Plug-In . SVG Version: 6.00 Build 0)  -->
<!DOCTYPE svg PUBLIC "-//W3C//DTD SVG 1.1//EN" "http://www.w3.org/Graphics/SVG/1.1/DTD/svg11.dtd">
<svg version="1.1" id="Capa_1" xmlns="http://www.w3.org/2000/svg" xmlns:xlink="http://www.w3.org/1999/xlink" x="0px" y="0px"
	 viewBox="0 0 64 64" style="enable-background:new 0 0 64 64;" xml:space="preserve">
<g>
	<path style="fill:#1D1D1B;" d="M53.993,19.352c-0.742-1.456-2.604-2.595-4.238-2.595h-1.264c-1.219,0-2.948-0.757-3.776-1.654
		L34.036,3.55c-0.518-0.562-1.165-0.871-1.819-0.871c-0.861,0-1.618,0.512-2.075,1.402L20.236,23.38
		c-0.33,0.643-0.988,1.043-1.716,1.043c-0.299,0-0.586-0.067-0.854-0.2l-3.481-1.741c-0.443-0.222-0.942-0.34-1.441-0.34
		c-1.201,0-2.301,0.646-2.871,1.685l-4.072,7.416c-0.27,0.493-0.288,1.006-0.05,1.408c0.239,0.404,0.698,0.635,1.26,0.635h15.719
		l3.64-3.648c0.993-1.134,2.379-1.264,2.925-1.264c0.102,0,0.179,0.005,0.243,0.009c-0.005-0.088-0.026-0.171-0.026-0.26
		c0-2.634,2.142-4.774,4.775-4.774c2.633,0,4.775,2.141,4.775,4.773c0,2.533-1.994,4.592-4.494,4.74l0.271,0.425H58.81
		c0.559,0,1.019-0.229,1.265-0.631c0.245-0.4,0.241-0.917-0.013-1.412L53.993,19.352z M19.17,26.003v1.042
		c0,0.697-0.562,1.329-1.254,1.411l-0.175,0.021c-0.693,0.081-1.573,0.501-1.965,0.938c-0.393,0.436-1.211,0.523-1.826,0.194
		l-0.14-0.074c-0.615-0.328-1.681-0.595-2.379-0.595c-0.698,0-1.121-0.547-0.944-1.224l0.914-3.503
		c0.031-0.12,0.045-0.228,0.052-0.328c0.357-0.297,0.805-0.48,1.29-0.48c0.309,0,0.603,0.069,0.876,0.207l3.481,1.739
		c0.445,0.224,0.923,0.335,1.419,0.335c0.25,0,0.493-0.035,0.729-0.09C19.201,25.73,19.17,25.866,19.17,26.003z M45.694,17.994
		l-2.729,7.702c-0.231,0.658-0.808,0.778-1.285,0.268l-0.326-0.347c-0.476-0.511-1.145-1.413-1.493-2.018l-0.478-0.83
		c-0.348-0.605-0.912-0.848-1.262-0.543c-0.349,0.307-0.809,0.016-1.027-0.646l-0.788-2.398c-0.218-0.664-0.752-0.762-1.192-0.221
		l-1.406,1.731c-0.44,0.542-0.797,0.416-0.797-0.282v-2.685c0-0.698-0.42-0.886-0.94-0.419l-1.279,1.152
		c-0.518,0.467-0.852,0.287-0.745-0.402l0.717-4.609c0.107-0.69-0.235-0.881-0.764-0.427l-0.294,0.25
		c-0.529,0.454-0.857,0.267-0.732-0.421l0.994-5.467l1.399-2.726c0.421-0.821,1.222-0.925,1.842-0.253l10.679,11.556
		c0.548,0.593,1.36,1.116,2.233,1.489C45.891,17.6,45.773,17.773,45.694,17.994z M54.803,25.075c-0.664-0.21-1.205,0.11-1.205,0.716
		c0,0.607-0.331,0.638-0.737,0.07l-0.104-0.141c-0.407-0.567-0.95-1.025-1.212-1.025c-0.261,0-0.65-0.465-0.868-1.036
		c-0.218-0.571-0.642-0.824-0.947-0.562c-0.307,0.261-0.553-0.094-0.553-0.79v-0.474c0-0.698-0.496-1.264-1.107-1.264
		c-0.61,0-0.984-0.554-0.835-1.234c0,0,0.1-0.457,0.222-1.017c0.031-0.143,0.037-0.282,0.022-0.414
		c0.35,0.07,0.692,0.116,1.013,0.116h1.264c1.161,0,2.587,0.872,3.114,1.905l2.76,5.408L54.803,25.075z"/>
	<path style="fill:#1D1D1B;" d="M34.451,31.596c1.807,0,3.275-1.461,3.275-3.269c0-1.804-1.469-3.272-3.275-3.272
		c-1.805,0-3.273,1.471-3.273,3.272C31.18,30.135,32.646,31.596,34.451,31.596z"/>
	<path style="fill:#1D1D1B;" d="M27.598,30.903l-6.922,6.936c-0.445,0.482-0.705,1.127-0.705,1.831c0,1.024,0.572,1.928,1.412,2.395
		l7.049,3.919v7.371c0,1.04,0.843,1.893,1.885,1.893c1.045,0,1.889-0.85,1.889-1.893v-9.211c0,0,0.25-1.466-1.422-2.269
		l-4.066-2.142l4.387-4.344l2.125,3.33c0.373,0.59,0.887,0.826,1.363,0.816h6.322c1.961,0,1.961-2.56,0-2.56l-5.461,0.012
		l-3.592-5.634c0,0-0.762-1.266-2.209-1.266C29.652,30.089,28.45,29.933,27.598,30.903z"/>
	<path style="fill:#1D1D1B;" d="M43.136,43.054c-4.927,0-8.927,3.988-8.927,8.922c0,4.935,4.002,8.925,8.927,8.925
		c4.92,0,8.919-3.992,8.919-8.925C52.055,47.04,48.056,43.054,43.136,43.054z"/>
	<path style="fill:#1D1D1B;" d="M8.596,51.976c0,4.933,4.001,8.925,8.917,8.925c4.935,0,8.929-3.992,8.929-8.925
		c0-4.934-3.997-8.922-8.929-8.922C12.597,43.054,8.596,47.045,8.596,51.976z"/>
</g>
</svg>
