<?xml version="1.0" encoding="iso-8859-1"?>
<!-- Generator: Adobe Illustrator 17.1.0, SVG Export Plug-In . SVG Version: 6.00 Build 0)  -->
<!DOCTYPE svg PUBLIC "-//W3C//DTD SVG 1.1//EN" "http://www.w3.org/Graphics/SVG/1.1/DTD/svg11.dtd">
<svg version="1.1" id="Capa_1" xmlns="http://www.w3.org/2000/svg" xmlns:xlink="http://www.w3.org/1999/xlink" x="0px" y="0px"
	 viewBox="0 0 64 64" style="enable-background:new 0 0 64 64;" xml:space="preserve">
<g>
	<path style="fill:#1D1D1B;" d="M38.641,27.659c3.062,0,5.533-2.489,5.533-5.54c0-3.069-2.472-5.54-5.533-5.54
		c-0.943,0-1.831,0.237-2.609,0.654v-0.074c2.954-0.864,5.113-3.589,5.113-6.822c0-3.929-3.184-7.112-7.113-7.112
		c-3.929,0-7.113,3.184-7.113,7.112c0,3.234,2.159,5.958,5.113,6.822v11.355H31.39c-1.104,0-2.393,0.805-2.876,1.798l-6.679,17.816
		c-0.483,0.993,0.019,1.798,1.124,1.798h7.795c0.033,0,0.066-0.007,0.099-0.009h3.516l-4.357,9.071
		c-0.598,1.244-0.073,2.738,1.172,3.336c0.349,0.167,0.718,0.247,1.08,0.247c0.932,0,1.825-0.523,2.256-1.419l6.077-12.653
		c0.372-0.774,0.319-1.686-0.138-2.413c-0.458-0.728-1.257-1.169-2.116-1.169h-3.716l4.852-14.576
		c0.449-1.009-0.082-1.827-1.187-1.827h-2.261v-1.512C36.81,27.42,37.698,27.659,38.641,27.659z M30.861,10.337
		c0-1.751,1.419-3.17,3.17-3.17c1.751,0,3.17,1.419,3.17,3.17c0,1.751-1.419,3.17-3.17,3.17
		C32.28,13.507,30.861,12.088,30.861,10.337z"/>
	<circle style="fill:#1D1D1B;" cx="34.031" cy="10.337" r="1.615"/>
</g>
</svg>
