<?xml version="1.0" encoding="iso-8859-1"?>
<!-- Generator: Adobe Illustrator 17.1.0, SVG Export Plug-In . SVG Version: 6.00 Build 0)  -->
<!DOCTYPE svg PUBLIC "-//W3C//DTD SVG 1.1//EN" "http://www.w3.org/Graphics/SVG/1.1/DTD/svg11.dtd">
<svg version="1.1" id="Capa_1" xmlns="http://www.w3.org/2000/svg" xmlns:xlink="http://www.w3.org/1999/xlink" x="0px" y="0px"
	 viewBox="0 0 64 64" style="enable-background:new 0 0 64 64;" xml:space="preserve">
<g>
	<path style="fill:#1D1D1B;" d="M49.633,34.477c2.324-0.922,3.464-3.558,2.537-5.893c-0.92-2.319-3.553-3.448-5.877-2.526
		c-2.334,0.927-3.465,3.549-2.545,5.867C44.675,34.26,47.3,35.402,49.633,34.477z"/>
	<path style="fill:#1D1D1B;" d="M56.264,38.502l-6.726,0.041l-7.233-5.85c0,0-0.676-0.695-2.079-0.662l-16.116-0.055L10.285,21.255
		c-0.799-0.611-1.898-0.812-2.91-0.41c-1.529,0.607-2.273,2.344-1.667,3.873c0.193,0.486,0.502,0.888,0.884,1.202l17.166,13.328
		l-6.537-0.013c-0.552-0.001-1.271,0.353-1.606,0.793l-0.031,0.039c-0.335,0.44-0.158,0.795,0.394,0.793l29.048-0.083
		c-0.009,0.003,1.728,1.269,1.728,1.269s0.781,0.74,2.234,0.738l3.727-0.028c-1.268,2.934-4.571,3.198-4.571,3.198l-35.797-0.151
		c-0.552-0.002-1.272,0.351-1.609,0.788l-0.118,0.155c-0.338,0.436-0.163,0.792,0.39,0.791l37.343-0.045
		c4.408-0.122,6.219-4.736,6.219-4.736c0.003,0.009,1.809-0.06,1.809-0.06c0.216-0.011,0.425-0.059,0.638-0.143
		c1.078-0.429,1.606-1.648,1.179-2.727C57.871,39.014,57.085,38.509,56.264,38.502z"/>
</g>
</svg>
