<?xml version="1.0" encoding="iso-8859-1"?>
<!-- Generator: Adobe Illustrator 17.1.0, SVG Export Plug-In . SVG Version: 6.00 Build 0)  -->
<!DOCTYPE svg PUBLIC "-//W3C//DTD SVG 1.1//EN" "http://www.w3.org/Graphics/SVG/1.1/DTD/svg11.dtd">
<svg version="1.1" id="Capa_1" xmlns="http://www.w3.org/2000/svg" xmlns:xlink="http://www.w3.org/1999/xlink" x="0px" y="0px"
	 viewBox="0 0 64 64" style="enable-background:new 0 0 64 64;" xml:space="preserve">
<g>
	<path style="fill:#1D1D1B;" d="M41.701,30.112l-5.303,1.822l-0.282-0.851c0.097-0.213,0.179-0.434,0.229-0.67l1.908-8.932
		c0.101-0.47,0.099-0.955-0.009-1.423L35.529,8.089c-0.404-1.781-2.175-2.896-3.957-2.493c-0.574,0.13-1.067,0.412-1.475,0.78
		c-0.406-0.368-0.9-0.65-1.473-0.78c-1.781-0.405-3.554,0.71-3.958,2.493L21.95,20.06c-0.106,0.468-0.109,0.953-0.009,1.423
		l1.909,8.932c0.005,0.021,0.014,0.039,0.018,0.06l-0.492,1.829l-5.433-2.155c-0.755-0.298-1.611-0.158-2.231,0.362
		c-0.621,0.522-0.905,1.342-0.74,2.136l2.538,12.233l-0.596,6.457c-0.039,0.418,0.1,0.833,0.383,1.144
		c0.283,0.31,0.683,0.486,1.103,0.486h1.771v2.003c0,0.55,0.445,0.995,0.994,0.995c0.55,0,0.996-0.445,0.996-0.995v-2.003h16.946
		v2.003c0,0.55,0.445,0.995,0.995,0.995c0.55,0,0.995-0.445,0.995-0.995v-2.003h1.675c0.009,0,0.016,0,0.02,0
		c0.825,0,1.493-0.668,1.493-1.492c0-0.19-0.035-0.372-0.101-0.539l-1.707-8.161l2.1-10.128c0.161-0.776-0.106-1.578-0.701-2.103
		C43.28,30.019,42.453,29.852,41.701,30.112z M30.098,14.046l1.536,6.767l-1.263,5.909h-0.546l-1.263-5.909L30.098,14.046z
		 M23.062,36.922c1.278-2.677,4.005-4.534,7.163-4.534c2.932,0,5.492,1.602,6.867,3.972l2.381-0.818l-0.4,1.931h-2.651
		c-1.017-2.502-3.468-4.268-6.335-4.268c-2.867,0-5.318,1.766-6.334,4.268h-3.274l-0.356-1.716L23.062,36.922z M20.035,49.981
		l0.098-1.053c0.003,0,0.006,0.001,0.01,0.001c0.148,0,0.299-0.016,0.45-0.047c0.003-0.001,0.005-0.002,0.008-0.003l0.231,1.101
		H20.035z M36.775,49.981H22.864l-0.578-2.756c0.071-0.303,0.085-0.624,0.017-0.949l-1.208-5.82h2.172
		c0.214,3.584,3.18,6.427,6.818,6.427c3.638,0,6.605-2.842,6.819-6.427h1.549l-1.206,5.82c-0.081,0.388-0.045,0.77,0.069,1.122
		L36.775,49.981z M38.808,49.981l0.229-1.09c0.125,0.021,0.249,0.039,0.372,0.039c0.448,0,0.871-0.143,1.228-0.384l0.3,1.436H38.808
		z"/>
</g>
</svg>
