<?xml version="1.0" encoding="iso-8859-1"?>
<!-- Generator: Adobe Illustrator 17.1.0, SVG Export Plug-In . SVG Version: 6.00 Build 0)  -->
<!DOCTYPE svg PUBLIC "-//W3C//DTD SVG 1.1//EN" "http://www.w3.org/Graphics/SVG/1.1/DTD/svg11.dtd">
<svg version="1.1" id="Capa_1" xmlns="http://www.w3.org/2000/svg" xmlns:xlink="http://www.w3.org/1999/xlink" x="0px" y="0px"
	 viewBox="0 0 64 64" style="enable-background:new 0 0 64 64;" xml:space="preserve">
<g>
	<circle style="fill:#1D1D1B;" cx="6.968" cy="40.561" r="5.154"/>
	<path style="fill:#1D1D1B;" d="M60.516,54.343l-10.538-8.43c-0.902-0.723-2.182-0.732-3.094-0.023l-6.165,4.782
		c-0.026-0.099-0.047-0.198-0.086-0.296l-3.799-9.384v-7.706c0-1.381-1.119-2.5-2.5-2.5c-1.381,0-2.5,1.119-2.5,2.5v8.193
		c0,0.321,0.062,0.641,0.183,0.938l2.287,5.649h-9.506l1.318-1.905c0.382-0.552,0.461-1.258,0.212-1.88l-1.222-3.056l0.849,0.815
		c0.388,0.372,0.887,0.558,1.385,0.558c0.525,0,1.05-0.206,1.443-0.614c0.765-0.797,0.74-2.062-0.057-2.828l-6.09-5.852
		c-0.329-0.315-0.756-0.51-1.21-0.55l-5.371-0.474l0.533-1.243c0.247-0.579,0.944-1.171,1.554-1.323l6.646-1.66l12.485-0.482
		c0.338-0.013,0.67-0.095,0.977-0.24l11.824-5.62c1.247-0.593,1.777-2.084,1.185-3.331c-0.592-1.246-2.081-1.777-3.331-1.185
		l-11.36,5.399l-8.464,0.327l6.068-2.574c0.852-0.362,1.435-1.165,1.514-2.088L36.623,7.36c0.118-1.375-0.901-2.587-2.277-2.705
		c-1.367-0.108-2.586,0.901-2.705,2.277l-0.808,9.401l-8.48,3.598l-9.121,2.14c-0.602,0.183-1.34,0.776-1.648,1.324l-5.197,8.445
		c-0.308,0.548-0.078,1.163,0.515,1.375l6.25,2.953c0.274,0.098,5.94,0.435,7.026,0.498c-0.491,0.548-0.666,1.343-0.374,2.073
		l2.411,6.029l-2.3,3.324c-0.06,0.087-0.105,0.179-0.149,0.271c-0.234,0.208-0.389,0.504-0.389,0.843v7.089
		c0,0.63,0.51,1.14,1.14,1.14h18.121c0.708,0.165,1.48,0.032,2.099-0.448l7.655-5.94l9,7.199c0.461,0.369,1.012,0.548,1.56,0.548
		c0.733,0,1.46-0.321,1.954-0.938C61.769,56.778,61.594,55.205,60.516,54.343z"/>
	<path style="fill:#1D1D1B;" d="M13.271,47.128c-2.845,0-5.153,2.306-5.153,5.155c0,2.848,2.308,5.152,5.153,5.152
		c2.846,0,5.154-2.305,5.154-5.152C18.425,49.434,16.117,47.128,13.271,47.128z"/>
</g>
</svg>
