<?xml version="1.0" encoding="iso-8859-1"?>
<!-- Generator: Adobe Illustrator 17.1.0, SVG Export Plug-In . SVG Version: 6.00 Build 0)  -->
<!DOCTYPE svg PUBLIC "-//W3C//DTD SVG 1.1//EN" "http://www.w3.org/Graphics/SVG/1.1/DTD/svg11.dtd">
<svg version="1.1" id="Capa_1" xmlns="http://www.w3.org/2000/svg" xmlns:xlink="http://www.w3.org/1999/xlink" x="0px" y="0px"
	 viewBox="0 0 64 64" style="enable-background:new 0 0 64 64;" xml:space="preserve">
<g>
	<path style="fill:#1D1D1B;" d="M16.692,10.96c0,0,2.653,0.944,2.267,4.012l-4.838,2.817c3.308,2.084,7.685,1.126,9.807-2.169
		c2.135-3.315,1.177-7.733-2.137-9.868c-3.315-2.135-7.734-1.178-9.868,2.137c-1.257,1.952-1.417,4.278-0.68,6.304L16.692,10.96z"/>
	<path style="fill:#1D1D1B;" d="M39.29,38.769c0.557,0,1.118-0.176,1.594-0.541c1.152-0.882,1.371-2.53,0.489-3.683L28.474,17.698
		c-0.882-1.152-2.53-1.371-3.682-0.488c-0.134,0.103-0.253,0.218-0.362,0.34l-4.774,3.36c-0.949,0.668-1.144,1.954-0.434,2.872
		l4.865,6.688l-6.269,5.433c-1.463,1.269-1.692,3.456-0.522,5l11.632,15.35c0.723,0.955,1.821,1.457,2.933,1.456
		c0.774,0,1.555-0.243,2.218-0.746c1.619-1.227,1.936-3.533,0.711-5.152l-9.553-12.605l4.874-4.224
		c0.365-0.316,0.646-0.691,0.854-1.095l2.095-1.558l4.143,5.411C37.719,38.414,38.5,38.769,39.29,38.769z"/>
	<path style="fill:#1D1D1B;" d="M24.894,55.082c-0.581,0-1.051,0.47-1.051,1.051v2.101c0,1.797,2.258,3.152,5.253,3.152h7.092
		c0.579,0,1.05-0.47,1.05-1.05c0-0.581-0.471-1.051-1.05-1.051h-7.092c-2.033,0-3.152-0.789-3.152-1.051v-2.101
		C25.944,55.552,25.475,55.082,24.894,55.082z"/>
	<path style="fill:#1D1D1B;" d="M37.759,25.864c0.098,0.122,0.16,0.219,0.19,0.268l0.003,0.101c0.002,0.193,0.185,0.461,0.336,0.65
		l2.06,2.554c0.24,0.301,0.712,0.564,1.095,0.611l0.323,0.039c0.273,0.033,0.713,0.172,0.958,0.301l1.857,0.98
		c0.225,0.113,0.565,0.284,0.675,0.438c0.148,0.209,0.239,0.517,0.26,0.899c0.018,0.355,0.19,0.859,0.477,1.14l5.218,5.043
		c0.555,0.534,1.46,0.542,2.024,0.016l2.209-2.069c0.257-0.242,0.396-0.544,0.392-0.854c-0.006-0.378-0.22-0.72-0.588-0.936
		l-8.662-5.12l0.236-0.564c0.049-0.114,0.072-0.235,0.069-0.353c-0.006-0.321-0.182-0.629-0.479-0.784L44.642,27.3
		c-0.144-0.073-0.3-0.102-0.451-0.086c-0.064-0.186-0.157-0.366-0.286-0.525c-0.244-0.305-0.577-0.511-0.938-0.583
		c-0.378-0.073-0.741,0.008-1.019,0.233c-0.045,0.038-0.084,0.083-0.122,0.128l-1.735-1.771l-12-13.93
		c-0.326-0.379-0.701-0.508-0.934-0.32c-0.073,0.06-0.126,0.137-0.155,0.225c-0.227-0.126-0.491-0.122-0.681,0.031
		c-0.261,0.209-0.232,0.681,0.057,1.039L37.759,25.864z M44.266,27.773c0.039,0.001,0.08,0.007,0.115,0.027l1.771,0.923
		c0.146,0.075,0.217,0.268,0.154,0.42L46.1,29.637l-2.048-1.207C44.182,28.241,44.254,28.016,44.266,27.773z M42.302,26.777
		c0.146-0.119,0.343-0.161,0.556-0.118c0.231,0.045,0.445,0.181,0.609,0.382c0.11,0.14,0.169,0.298,0.203,0.457
		c-0.053,0.061-0.105,0.122-0.138,0.199L43.4,28.003c-0.163-0.124-0.325-0.262-0.436-0.373l-0.749-0.765
		C42.241,26.833,42.269,26.803,42.302,26.777z"/>
</g>
</svg>
