<?xml version="1.0" encoding="iso-8859-1"?>
<!-- Generator: Adobe Illustrator 17.1.0, SVG Export Plug-In . SVG Version: 6.00 Build 0)  -->
<!DOCTYPE svg PUBLIC "-//W3C//DTD SVG 1.1//EN" "http://www.w3.org/Graphics/SVG/1.1/DTD/svg11.dtd">
<svg version="1.1" id="Capa_1" xmlns="http://www.w3.org/2000/svg" xmlns:xlink="http://www.w3.org/1999/xlink" x="0px" y="0px"
	 viewBox="0 0 64 64" style="enable-background:new 0 0 64 64;" xml:space="preserve">
<g>
	<path style="fill:#1D1D1B;" d="M44.627,28.941H24.96c-0.552,0-1,0.447-1,1v3.557H5.626c-1.381,0-2.5,1.119-2.5,2.5
		c0,1.381,1.119,2.5,2.5,2.5H24.96h3.666h18.001c0.553,0,1-0.447,1-1l-2-7.557C45.627,29.389,45.18,28.941,44.627,28.941z"/>
	<path style="fill:#1D1D1B;" d="M46.23,39.171h-41c-0.552,0-1,0.447-1,1s0.448,1,1,1h2.551c0.013,0.049,0.011,0.1,0.032,0.148
		l0.625,1.438c0.505,1.162,2.028,2.039,3.542,2.039h28.46c1.495,0,3.045-0.858,3.604-1.996l0.708-1.438
		c0.03-0.062,0.034-0.127,0.051-0.191h1.427c0.552,0,1-0.447,1-1S46.782,39.171,46.23,39.171z M42.25,41.917
		c-0.2,0.406-1.034,0.879-1.81,0.879H11.98c-0.821,0-1.56-0.495-1.708-0.836l-0.343-0.789h32.689L42.25,41.917z"/>
	<circle style="fill:#1D1D1B;" cx="52.459" cy="31.702" r="5.236"/>
</g>
</svg>
