<?xml version="1.0" encoding="iso-8859-1"?>
<!-- Generator: Adobe Illustrator 17.1.0, SVG Export Plug-In . SVG Version: 6.00 Build 0)  -->
<!DOCTYPE svg PUBLIC "-//W3C//DTD SVG 1.1//EN" "http://www.w3.org/Graphics/SVG/1.1/DTD/svg11.dtd">
<svg version="1.1" id="Capa_1" xmlns="http://www.w3.org/2000/svg" xmlns:xlink="http://www.w3.org/1999/xlink" x="0px" y="0px"
	 viewBox="0 0 64 64" style="enable-background:new 0 0 64 64;" xml:space="preserve">
<g>
	<path style="fill:#1D1D1B;" d="M20.987,47.902c0-0.692-0.562-1.253-1.253-1.253H7.202c-0.692,0-1.254,0.561-1.254,1.253
		c0,0.692,0.562,1.253,1.254,1.253h12.532C20.426,49.155,20.987,48.594,20.987,47.902z"/>
	<path style="fill:#1D1D1B;" d="M43.545,49.155c0.691,0,1.253-0.561,1.253-1.253c0-0.692-0.562-1.253-1.253-1.253H31.013
		c-0.691,0-1.253,0.561-1.253,1.253c0,0.692,0.562,1.253,1.253,1.253H43.545z"/>
	<path style="fill:#1D1D1B;" d="M43.927,44.95c3.19,0,5.776-2.586,5.776-5.776v-2.166c0-3.19-2.586-5.776-5.776-5.776H42.5v2.467
		c0,2.303-1.874,4.178-4.177,4.178H24.538c-2.304,0-4.178-1.874-4.178-4.178v-2.467h-2.908c-3.189,0-8.171,1.086-10.582,3.174
		c-1.477,1.28-3.005,2.956-4.122,5.045c-1.502,2.814,0.959,5.499,4.148,5.499H43.927z"/>
	<path style="fill:#1D1D1B;" d="M35.539,24.924h15.25c0.553,0,1-0.447,1-1c0-0.553-0.447-1-1-1h-15.25c-0.553,0-1,0.447-1,1
		C34.539,24.477,34.986,24.924,35.539,24.924z"/>
	<path style="fill:#1D1D1B;" d="M40.789,27.434c0,0.553,0.447,1,1,1h15.25c0.553,0,1-0.447,1-1c0-0.553-0.447-1-1-1h-15.25
		C41.236,26.434,40.789,26.881,40.789,27.434z"/>
	<path style="fill:#1D1D1B;" d="M60.785,46.495h-9.573c-0.553,0-1,0.447-1,1c0,0.553,0.447,1,1,1h9.573c0.553,0,1-0.447,1-1
		C61.785,46.942,61.338,46.495,60.785,46.495z"/>
	<path style="fill:#1D1D1B;" d="M57.862,51.005c0-0.553-0.447-1-1-1h-9.573c-0.553,0-1,0.447-1,1c0,0.553,0.447,1,1,1h9.573
		C57.415,52.005,57.862,51.558,57.862,51.005z"/>
</g>
</svg>
