<?xml version="1.0" encoding="iso-8859-1"?>
<!-- Generator: Adobe Illustrator 17.1.0, SVG Export Plug-In . SVG Version: 6.00 Build 0)  -->
<!DOCTYPE svg PUBLIC "-//W3C//DTD SVG 1.1//EN" "http://www.w3.org/Graphics/SVG/1.1/DTD/svg11.dtd">
<svg version="1.1" id="Capa_1" xmlns="http://www.w3.org/2000/svg" xmlns:xlink="http://www.w3.org/1999/xlink" x="0px" y="0px"
	 viewBox="0 0 64 64" style="enable-background:new 0 0 64 64;" xml:space="preserve">
<g>
	<circle style="fill:#1D1D1B;" cx="17.09" cy="46.275" r="5.06"/>
	<path style="fill:#1D1D1B;" d="M52.187,46.079l3.993-7.294c0.119-0.217,0.19-0.445,0.239-0.675c0.109-0.16,0.188-0.344,0.188-0.553
		v-5.757c0-0.553-0.337-1.295-0.752-1.66l-9.46-8.405c-0.415-0.365-1.257-0.197-1.571,0.257l-0.266,0.489
		c-0.16,0.132-0.307,0.283-0.424,0.467l-5.321,8.427l-6.146,4.61c-0.482,0.361-0.746,0.899-0.786,1.456l-1.726-1.283
		C29.82,35.91,29.417,35.772,29,35.764l-7.184-0.137l1.851-5.851l5.936,1.171c0.163,0.031,0.325,0.047,0.486,0.047
		c1.083,0,2.07-0.707,2.393-1.78l2.354-7.834c0.799,1.744,2.55,2.959,4.592,2.959c2.793,0,5.061-2.263,5.061-5.06
		c0-2.797-2.268-5.061-5.061-5.061c-0.985,0-1.898,0.293-2.675,0.78l0.333-1.108c0.397-1.323-0.353-2.717-1.675-3.114
		c-1.326-0.399-2.717,0.353-3.114,1.675l-3.95,13.15l-5.488-1.082l5.001-6.246c0.723-0.903,0.732-2.185,0.021-3.098L18.765,3.465
		c-0.847-1.091-2.418-1.287-3.508-0.438c-1.089,0.848-1.285,2.419-0.437,3.508l7.903,10.154l-6.345,7.923
		c-0.267,0.334-0.424,0.717-0.496,1.11l-1.594,4.153c-0.232,0.502-0.506,1.347-0.613,1.889l-0.203,1.61l-2.588-3.649l0.772-7.997
		c0.106-1.1-0.699-2.077-1.798-2.184c-1.097-0.098-2.077,0.699-2.183,1.799L6.83,30.083c-0.046,0.479,0.082,0.957,0.359,1.35
		l5.114,7.209c0.223,0.315,0.524,0.534,0.855,0.674c0.133,0.09,0.286,0.157,0.474,0.159l0.247,0.003
		c0.019,0.001,0.038,0.007,0.057,0.007c0.012,0,0.024-0.005,0.036-0.006l4.782,0.06c0.1,0.017,0.2,0.035,0.305,0.037l9.224,0.176
		l5.925,4.402c0.049,0.037,0.107,0.05,0.158,0.082c0.373,0.339,0.853,0.521,1.343,0.521c0.388,0,0.779-0.112,1.124-0.348
		l7.588-5.171c0.405-0.275,0.694-0.689,0.813-1.165l1.377-5.475c0.227,0.247,0.365,0.439,0.347,0.532l1.431,4.069l-6.286,4.907
		c-0.466,0.363-0.788,0.881-0.909,1.459L38.32,57.304c-0.282,1.352,0.584,2.676,1.936,2.959c0.173,0.036,0.345,0.054,0.515,0.054
		c1.158,0,2.197-0.811,2.444-1.989L45.9,45.483l1.593-1.244l-0.357,0.652c-0.413,0.755-0.409,1.669,0.011,2.42L53.7,59.035
		c0.458,0.819,1.309,1.28,2.185,1.28c0.413,0,0.832-0.102,1.218-0.317c1.205-0.674,1.636-2.197,0.963-3.402L52.187,46.079z
		 M41.541,36.36l-5.797,3.951l-1.169-0.869c0.171-0.065,0.34-0.142,0.493-0.258l6.439-4.831c0.194-0.146,0.361-0.326,0.491-0.531
		l0.301-0.477L41.541,36.36z"/>
</g>
</svg>
