<?xml version="1.0" encoding="iso-8859-1"?>
<!-- Generator: Adobe Illustrator 17.1.0, SVG Export Plug-In . SVG Version: 6.00 Build 0)  -->
<!DOCTYPE svg PUBLIC "-//W3C//DTD SVG 1.1//EN" "http://www.w3.org/Graphics/SVG/1.1/DTD/svg11.dtd">
<svg version="1.1" id="Capa_1" xmlns="http://www.w3.org/2000/svg" xmlns:xlink="http://www.w3.org/1999/xlink" x="0px" y="0px"
	 viewBox="0 0 64 64" style="enable-background:new 0 0 64 64;" xml:space="preserve">
<g>
	<circle style="fill:#1D1D1B;" cx="30.079" cy="11.011" r="6.213"/>
	<path style="fill:#1D1D1B;" d="M46.976,58.213l-0.003-0.237c-0.006-0.459-0.233-1.125-0.51-1.491l-0.676-0.893
		c-0.278-0.363-0.873-0.657-1.332-0.651l-2.394,0.02c-0.011-0.05-0.011-0.102-0.032-0.151l-6.339-14.561
		c0.665-0.841,0.79-2.034,0.215-3.016l-6.135-10.496l1.66-4.419c0.395-1.046-0.104-2.289-1.113-2.773l-6.779-2.173
		c-0.918-0.638-2.014-0.319-2.445,0.712l-7.579,19.204c-0.007,0.017-0.009,0.035-0.017,0.053c-0.041,0.1-0.093,0.192-0.126,0.298
		c-0.268,0.871-0.143,1.768,0.267,2.508L6.501,52.835c-0.872,1.551-0.322,3.516,1.229,4.388c0.499,0.279,1.041,0.414,1.575,0.414
		c1.127,0,2.221-0.593,2.812-1.643l7.366-13.101l2.7,0.833l-1.546,11.697c-0.234,1.763,1.006,3.382,2.77,3.614
		c0.143,0.021,0.285,0.028,0.426,0.028c1.591,0,2.975-1.178,3.188-2.798l1.904-14.396c0.206-1.558-0.741-3.037-2.244-3.501
		l-1.15-0.354l1.807-4.807l3.934,6.732c0.499,0.854,1.396,1.329,2.318,1.329c0.232,0,0.466-0.031,0.695-0.092l6.003,13.796
		l-2.706,0.023c-0.459,0.007-1.054,0.306-1.328,0.675l-0.685,0.914c-0.275,0.371-0.491,1.038-0.487,1.497l0.001,0.237
		c0.006,0.458,0.379,0.826,0.837,0.823l10.232-0.09C46.609,59.05,46.977,58.674,46.976,58.213z"/>
	<path style="fill:#1D1D1B;" d="M49.297,55.641c1.261,0.104,1.784,0.128,2.001,0.128c0.068,0,0.134,0,0.188-0.013h0.019
		c0.042,0.005,0.136,0.013,0.33,0.013c0.333,0,0.993-0.023,2.255-0.128c1.96-0.166,3.008-1.359,2.947-3.361
		c-0.052-1.672-2.279-1.997-2.374-2.008h-0.076c-0.341-0.382-1.8-0.43-2.258-0.437c-0.077,0-0.152-0.06-0.169-0.134l-0.192-0.857
		c-0.018-0.075-0.088-0.154-0.162-0.178l-1.738-0.56c-0.071-0.023-0.193-0.053-0.269-0.049c-0.152,0.009-0.385,0.074-0.46,0.376
		c-0.114,0.459,0.184,0.598,0.367,0.598c0.148,0,1.035,0.073,1.382,0.102c0.075,0.006,0.135,0.073,0.132,0.15l-0.014,0.413
		c-0.002,0.075-0.066,0.138-0.142,0.141c-0.462,0.011-1.939,0.074-2.275,0.431h-0.098l-0.028,0.003
		c-0.092,0.011-2.265,0.336-2.315,2.008C46.288,54.281,47.335,55.475,49.297,55.641z"/>
</g>
</svg>
