<?xml version="1.0" encoding="iso-8859-1"?>
<!-- Generator: Adobe Illustrator 17.1.0, SVG Export Plug-In . SVG Version: 6.00 Build 0)  -->
<!DOCTYPE svg PUBLIC "-//W3C//DTD SVG 1.1//EN" "http://www.w3.org/Graphics/SVG/1.1/DTD/svg11.dtd">
<svg version="1.1" id="Capa_1" xmlns="http://www.w3.org/2000/svg" xmlns:xlink="http://www.w3.org/1999/xlink" x="0px" y="0px"
	 viewBox="0 0 64 64" style="enable-background:new 0 0 64 64;" xml:space="preserve">
<g>
	<circle style="fill:#1D1D1B;" cx="52.292" cy="36.939" r="5.236"/>
	<path style="fill:#1D1D1B;" d="M45.397,31.922L27.04,24.503c-0.519-0.189-1.093,0.078-1.282,0.597l-1.218,3.342L7.315,22.163
		c-1.297-0.473-2.733,0.195-3.205,1.492c-0.473,1.298,0.195,2.732,1.493,3.205l18.163,6.62c0.001,0,0.001,0.001,0.002,0.001
		L44.124,40.9c0.52,0.189,1.093-0.077,1.282-0.597l0.587-7.1C46.183,32.685,45.916,32.111,45.397,31.922z"/>
	<path style="fill:#1D1D1B;" d="M43.521,41.397L5,27.357c-0.518-0.189-1.093,0.078-1.282,0.597c-0.189,0.52,0.078,1.093,0.597,1.282
		l2.397,0.874c-0.005,0.051-0.024,0.098-0.021,0.151l0.095,1.564c0.076,1.265,1.207,2.609,2.63,3.128l26.739,9.746
		c0.476,0.173,0.99,0.256,1.499,0.256c0.995,0,1.965-0.316,2.571-0.897l1.157-1.108c0.049-0.047,0.075-0.108,0.113-0.162
		l1.341,0.489c0.113,0.041,0.229,0.061,0.342,0.061c0.408,0,0.792-0.252,0.939-0.657C44.307,42.16,44.04,41.587,43.521,41.397z
		 M38.841,42.614c-0.328,0.312-1.272,0.472-2.002,0.206L10.1,33.074c-0.7-0.255-1.293-0.958-1.318-1.37L8.73,30.845l30.712,11.194
		L38.841,42.614z"/>
	<path style="fill:#1D1D1B;" d="M25.01,11.235L10.654,6.089c-0.52-0.187-1.092,0.083-1.278,0.604
		c-0.187,0.521,0.083,1.093,0.604,1.28l14.356,5.145c0.52,0.188,1.092-0.084,1.278-0.604C25.8,11.993,25.531,11.421,25.01,11.235z"
		/>
	<path style="fill:#1D1D1B;" d="M14.075,12.106c-0.187,0.52,0.083,1.092,0.604,1.277l14.355,5.146
		c0.521,0.187,1.092-0.083,1.279-0.604c0.187-0.521-0.083-1.093-0.604-1.279l-14.356-5.146
		C14.833,11.315,14.262,11.585,14.075,12.106z"/>
	<path style="fill:#1D1D1B;" d="M21.289,43.306l-9.087-3.014c-0.525-0.175-1.09,0.109-1.264,0.634
		c-0.174,0.525,0.11,1.09,0.634,1.265l9.086,3.013c0.524,0.175,1.09-0.109,1.264-0.634C22.097,44.044,21.813,43.479,21.289,43.306z"
		/>
	<path style="fill:#1D1D1B;" d="M16.461,45.401l-9.087-3.013c-0.524-0.175-1.09,0.109-1.264,0.634
		c-0.174,0.525,0.11,1.09,0.635,1.264l9.087,3.014c0.525,0.175,1.09-0.109,1.264-0.634C17.269,46.141,16.985,45.576,16.461,45.401z"
		/>
</g>
</svg>
