<?xml version="1.0" encoding="iso-8859-1"?>
<!-- Generator: Adobe Illustrator 17.1.0, SVG Export Plug-In . SVG Version: 6.00 Build 0)  -->
<!DOCTYPE svg PUBLIC "-//W3C//DTD SVG 1.1//EN" "http://www.w3.org/Graphics/SVG/1.1/DTD/svg11.dtd">
<svg version="1.1" id="Capa_1" xmlns="http://www.w3.org/2000/svg" xmlns:xlink="http://www.w3.org/1999/xlink" x="0px" y="0px"
	 viewBox="0 0 64 64" style="enable-background:new 0 0 64 64;" xml:space="preserve">
<g>
	<path style="fill:#1D1D1B;" d="M55.906,44.24l1.08-9.072c0.061-0.509-0.038-1-0.254-1.426c-0.05-0.137-0.123-0.267-0.238-0.375
		c0,0,0,0,0,0l-0.501-0.489l-11.768-11.49c-0.402-0.379-1.021-0.35-1.385,0.066l-1.299,1.487c-0.13,0.086-0.255,0.182-0.371,0.295
		l-6.317,6.15l-1.887-0.314c0.074-0.339,0.083-0.697,0.005-1.058C32.68,26.666,31.348,25.804,30,26.1l-4.212,0.91l-0.492-0.599
		l0.54-0.646c0.348-0.429,0.31-1.089-0.086-1.475l-5.153-5.028c-0.396-0.386-0.994-0.348-1.337,0.085L8.988,32.292
		c-0.737,0.529-1.166,1.433-1.023,2.392l1.553,10.421l-5.785,7.258c-0.86,1.08-0.683,2.653,0.397,3.514
		c0.46,0.367,1.01,0.545,1.557,0.545c0.735,0,1.463-0.322,1.957-0.941l6.463-8.109c0.433-0.543,0.62-1.241,0.518-1.927l-0.801-5.372
		c0.052-0.041,0.108-0.07,0.154-0.126l0.612-0.732l3.793,5.279l1.433,9.791c0.182,1.243,1.25,2.138,2.471,2.138
		c0.12,0,0.242-0.009,0.365-0.026c1.366-0.2,2.312-1.47,2.112-2.836l-1.521-10.394c-0.058-0.396-0.21-0.771-0.443-1.097
		l-4.898-6.815l4.131-4.94l0.861,1.048c0.48,0.585,1.192,0.913,1.932,0.913c0.175,0,0.353-0.019,0.528-0.057l2.22-0.48
		c0.241,0.925,1.001,1.67,2.005,1.837l5.703,0.95c0.137,0.023,0.274,0.034,0.411,0.034c0.646,0,1.273-0.251,1.744-0.709l3.447-3.356
		l6.441,7.244l-4.764,5.863c-0.362,0.445-0.56,1.002-0.56,1.576v9.378c0,1.381,1.119,2.5,2.5,2.5s2.5-1.119,2.5-2.5v-8.49
		l4.282-5.271l-0.464,3.892c-0.079,0.665,0.112,1.335,0.53,1.857l6.083,7.604c0.494,0.617,1.22,0.938,1.954,0.938
		c0.548,0,1.099-0.179,1.56-0.548c1.079-0.862,1.253-2.436,0.391-3.514L55.906,44.24z"/>
	<path style="fill:#1D1D1B;" d="M35.677,25.811c2.59,0,4.69-2.1,4.69-4.689c0-2.59-2.101-4.69-4.69-4.69
		c-1.544,0-2.902,0.756-3.757,1.908c0.031-0.219,0.067-0.438,0.067-0.666c0-2.59-2.1-4.689-4.69-4.689
		c-2.59,0-4.691,2.1-4.691,4.689c0,2.591,2.1,4.691,4.691,4.691c1.544,0,2.902-0.756,3.757-1.908
		c-0.031,0.219-0.067,0.438-0.067,0.666C30.987,23.712,33.087,25.811,35.677,25.811z"/>
</g>
</svg>
