<?xml version="1.0" encoding="iso-8859-1"?>
<!-- Generator: Adobe Illustrator 17.1.0, SVG Export Plug-In . SVG Version: 6.00 Build 0)  -->
<!DOCTYPE svg PUBLIC "-//W3C//DTD SVG 1.1//EN" "http://www.w3.org/Graphics/SVG/1.1/DTD/svg11.dtd">
<svg version="1.1" id="Capa_1" xmlns="http://www.w3.org/2000/svg" xmlns:xlink="http://www.w3.org/1999/xlink" x="0px" y="0px"
	 viewBox="0 0 64 64" style="enable-background:new 0 0 64 64;" xml:space="preserve">
<g>
	<path style="fill:#1D1D1B;" d="M24.5,46.25h-15c-0.828,0-1.5,0.671-1.5,1.5s0.672,1.5,1.5,1.5h15c0.828,0,1.5-0.671,1.5-1.5
		S25.328,46.25,24.5,46.25z"/>
	<path style="fill:#1D1D1B;" d="M53,49.25c0.828,0,1.5-0.671,1.5-1.5s-0.672-1.5-1.5-1.5H38c-0.828,0-1.5,0.671-1.5,1.5
		s0.672,1.5,1.5,1.5H53z"/>
	<path style="fill:#1D1D1B;" d="M9.135,44.217h44.322c3.818,0,6.914-3.096,6.914-6.914V34.71c0-3.818-3.096-6.914-6.914-6.914H51.75
		v2.953c0,2.757-2.243,5-5,5h-16.5c-2.757,0-5-2.243-5-5v-2.953h-3.481c-3.817,0-9.779,1.299-12.666,3.799
		c-1.767,1.532-3.597,3.538-4.934,6.039C2.371,41.003,5.317,44.217,9.135,44.217z"/>
	<path style="fill:#1D1D1B;" d="M31.532,31.03l-4.361-0.512c1.093,2.864,4.288,4.325,7.172,3.258c2.9-1.074,4.38-4.296,3.308-7.195
		c-1.074-2.901-4.296-4.381-7.196-3.308c-1.708,0.632-2.902,2.016-3.395,3.633l4.939,0.539
		C31.999,27.446,33.219,29.288,31.532,31.03z"/>
	<path style="fill:#1D1D1B;" d="M43.836,31.03l-4.361-0.512c1.093,2.864,4.288,4.325,7.172,3.258c2.9-1.074,4.38-4.296,3.308-7.195
		c-1.074-2.901-4.296-4.381-7.196-3.308c-1.708,0.632-2.902,2.016-3.395,3.633l4.939,0.539
		C44.303,27.446,45.523,29.288,43.836,31.03z"/>
</g>
</svg>
