<?xml version="1.0" encoding="iso-8859-1"?>
<!-- Generator: Adobe Illustrator 17.1.0, SVG Export Plug-In . SVG Version: 6.00 Build 0)  -->
<!DOCTYPE svg PUBLIC "-//W3C//DTD SVG 1.1//EN" "http://www.w3.org/Graphics/SVG/1.1/DTD/svg11.dtd">
<svg version="1.1" id="Capa_1" xmlns="http://www.w3.org/2000/svg" xmlns:xlink="http://www.w3.org/1999/xlink" x="0px" y="0px"
	 viewBox="0 0 64 64" style="enable-background:new 0 0 64 64;" xml:space="preserve">
<g>
	<path style="fill:#1D1D1B;" d="M16.951,34.262c-1.269,0.029-5.328,0.205-6.253,1.185h-0.265l-0.078,0.006
		c-0.254,0.035-6.226,0.925-6.365,5.52c-0.167,5.505,2.71,8.787,8.102,9.241c3.464,0.291,4.906,0.352,5.504,0.352
		c0.188,0,0.364,0,0.516-0.035h0.051c0.115,0.015,0.375,0.035,0.909,0.035c0.914,0,2.73-0.061,6.195-0.352
		c5.392-0.454,8.27-3.736,8.102-9.241c-0.14-4.596-6.264-5.484-6.524-5.52h-0.208c-0.935-1.047-4.949-1.181-6.21-1.196
		c-0.209-0.002-0.417-0.167-0.463-0.371l-0.529-2.357c-0.046-0.204-0.245-0.423-0.445-0.486l-4.778-1.538
		c-0.199-0.063-0.53-0.146-0.739-0.134c-0.417,0.024-1.058,0.202-1.265,1.03c-0.316,1.264,0.505,1.643,1.012,1.643
		c0.406,0,2.844,0.203,3.795,0.284c0.208,0.017,0.372,0.202,0.365,0.413l-0.038,1.138C17.335,34.085,17.16,34.256,16.951,34.262z
		 M31.981,39.787c0.153,0.366,0.249,0.77,0.262,1.22c0.039,1.263-0.097,2.63-0.586,3.876c-3.101,0.444-9.016,1.204-13.094,1.205
		c-6.072,0.001-10.561-0.917-12.989-1.571c-0.381-1.146-0.493-2.369-0.459-3.51c0.011-0.355,0.081-0.677,0.179-0.979
		c2.479,0.594,7.702,1.646,13.143,1.509C23.793,41.401,29.266,40.37,31.981,39.787z M18.467,37.859
		c3.505-0.054,7.128-0.181,8.106-1.285h0.154c0.083,0.013,0.315,0.053,0.633,0.127c-0.861,1.595-4.425,1.794-8.912,1.863
		c-0.279,0.005-0.557,0.007-0.832,0.007h-0.001c-4.536,0-6.9-0.59-7.648-1.894c0.25-0.058,0.436-0.092,0.508-0.104h0.331
		C11.782,37.646,14.985,37.911,18.467,37.859z"/>
	<path style="fill:#1D1D1B;" d="M61.327,29.747l-0.519-0.371c-0.998-0.712-2.801-1.271-4.027-1.246l-3,0.059
		c-1.226,0.023-2.797,0.852-3.51,1.85l-4.084,5.722l0,0L8.952,9.181C7.954,8.468,6.567,8.701,5.855,9.698
		c-0.713,0.998-0.482,2.384,0.517,3.097l37.235,26.579l-4.024,5.637c-0.712,0.999-0.996,2.757-0.633,3.929l0.906,2.926
		c0.362,1.173,1.466,2.698,2.464,3.412l0.519,0.37c0.998,0.712,2.384,0.48,3.097-0.517l15.908-22.287
		C62.557,31.846,62.325,30.459,61.327,29.747z"/>
</g>
</svg>
