<?xml version="1.0" encoding="iso-8859-1"?>
<!-- Generator: Adobe Illustrator 17.1.0, SVG Export Plug-In . SVG Version: 6.00 Build 0)  -->
<!DOCTYPE svg PUBLIC "-//W3C//DTD SVG 1.1//EN" "http://www.w3.org/Graphics/SVG/1.1/DTD/svg11.dtd">
<svg version="1.1" id="Capa_1" xmlns="http://www.w3.org/2000/svg" xmlns:xlink="http://www.w3.org/1999/xlink" x="0px" y="0px"
	 viewBox="0 0 64 64" style="enable-background:new 0 0 64 64;" xml:space="preserve">
<g>
	<path style="fill:#1D1D1B;" d="M45.685,28.578c0-0.091-0.015-0.177-0.027-0.264c0.193-0.645,0.063-1.369-0.42-1.909
		c-0.492-0.549-7.201-5.288-20.905-2.795c-0.872,0.159-1.503,0.862-1.618,1.696c-6.159-0.137-14.433-0.14-17.423,0.699
		c-1.104,0.31-1.826,1.314-1.826,2.406c0,0.223,0.03,0.45,0.094,0.676c0.373,1.33,1.753,2.105,3.082,1.732
		c1.62-0.454,6.151-0.595,11.117-0.576v3.63c-4.993,0.1-9.518,0.026-11.117-0.423c-1.329-0.373-2.709,0.402-3.082,1.732
		c-0.063,0.226-0.094,0.452-0.094,0.676c0,1.093,0.723,2.097,1.826,2.406c2.975,0.834,11.264,0.705,17.517,0.463
		c0.233,0.651,0.796,1.163,1.524,1.295c13.704,2.493,20.413-2.246,20.905-2.795c0.473-0.528,0.617-1.242,0.446-1.883V28.578z
		 M19.759,30.259c0.807,0.01,1.615,0.023,2.417,0.039v3.448c-0.803,0.03-1.611,0.056-2.417,0.079V30.259z"/>
	<path style="fill:#1D1D1B;" d="M57.154,31.725c0-1.803-0.239-3.048-0.404-3.69l-5.416-1.004c-0.307-0.058-0.559-0.257-0.698-0.529
		c-1.774,1.093-2.961,3.048-2.961,5.284c0,2.23,1.181,4.182,2.948,5.276c0.133-0.271,0.378-0.475,0.68-0.541l5.317-1.162
		C56.825,34.781,57.154,33.563,57.154,31.725z"/>
	<path style="fill:#1D1D1B;" d="M58.246,25.716c-0.475-0.281-1.252-0.714-1.754-0.945c-1.817-0.839-3.591,0.034-4.57,0.709
		c-0.455,0.313-0.34,0.706,0.203,0.807l4.046,0.75c0.543,0.101,1.135,0.604,1.254,1.144c0.169,0.761,0.354,1.969,0.354,3.602
		c0,1.633-0.241,2.822-0.46,3.567c-0.156,0.529-0.79,1.029-1.329,1.147l-3.872,0.845c-0.539,0.118-0.626,0.494-0.159,0.79
		c2.252,1.431,3.763,1.059,4.586,0.568c0.475-0.283,1.182-0.794,1.66-1.069c1.197-0.69,3.152-2.343,3.137-5.787
		C61.326,28.116,59.422,26.413,58.246,25.716z"/>
</g>
</svg>
