<?xml version="1.0" encoding="iso-8859-1"?>
<!-- Generator: Adobe Illustrator 17.1.0, SVG Export Plug-In . SVG Version: 6.00 Build 0)  -->
<!DOCTYPE svg PUBLIC "-//W3C//DTD SVG 1.1//EN" "http://www.w3.org/Graphics/SVG/1.1/DTD/svg11.dtd">
<svg version="1.1" id="Capa_1" xmlns="http://www.w3.org/2000/svg" xmlns:xlink="http://www.w3.org/1999/xlink" x="0px" y="0px"
	 viewBox="0 0 64 64" style="enable-background:new 0 0 64 64;" xml:space="preserve">
<g>
	<path d="M37.013,18.667c2.194,0,3.979-1.774,3.979-3.97c0-2.191-1.784-3.976-3.979-3.976c-2.192,0-3.977,1.787-3.977,3.976
		C33.039,16.892,34.82,18.667,37.013,18.667z"/>
	<path d="M28.687,17.826l-8.408,8.425c-0.541,0.586-0.856,1.369-0.856,2.224c0,1.245,0.695,2.342,1.715,2.909l8.562,4.761v8.954
		c0,1.263,1.024,2.299,2.289,2.299c1.27,0,2.294-1.032,2.294-2.299V33.91c0,0,0.304-1.782-1.728-2.757l-4.939-2.602l5.329-5.276
		l2.581,4.045c0.453,0.717,1.077,1.004,1.656,0.992h1.68c2.383,0,2.383-3.109,0-3.109l-0.634,0.014l-4.362-6.844
		c0,0-0.926-1.538-2.684-1.538C31.183,16.836,29.723,16.646,28.687,17.826z"/>
	<path d="M36.719,43.424c0,5.995,4.861,10.84,10.844,10.84c5.977,0,10.834-4.85,10.834-10.84c0-5.995-4.857-10.839-10.834-10.839
		C41.577,32.585,36.719,37.431,36.719,43.424z"/>
	<path d="M27.283,43.424c0-5.993-4.856-10.839-10.847-10.839c-5.972,0-10.832,4.848-10.832,10.839c0,5.99,4.86,10.84,10.832,10.84
		C22.431,54.264,27.283,49.414,27.283,43.424z"/>
</g>
</svg>
