<?xml version="1.0" encoding="iso-8859-1"?>
<!-- Generator: Adobe Illustrator 17.1.0, SVG Export Plug-In . SVG Version: 6.00 Build 0)  -->
<!DOCTYPE svg PUBLIC "-//W3C//DTD SVG 1.1//EN" "http://www.w3.org/Graphics/SVG/1.1/DTD/svg11.dtd">
<svg version="1.1" id="Capa_1" xmlns="http://www.w3.org/2000/svg" xmlns:xlink="http://www.w3.org/1999/xlink" x="0px" y="0px"
	 viewBox="0 0 64 64" style="enable-background:new 0 0 64 64;" xml:space="preserve">
<g>
	<path d="M33.28,43.892c0.373,0.339,0.854,0.521,1.344,0.521c0.388,0,0.78-0.112,1.124-0.347l7.588-5.171
		c0.404-0.276,0.694-0.69,0.813-1.165l1.377-5.476c0.227,0.247,0.365,0.439,0.347,0.532l1.431,4.069l-6.286,4.907
		c-0.466,0.364-0.788,0.88-0.909,1.459l-2.873,13.739c-0.282,1.352,0.584,2.676,1.935,2.959c0.172,0.036,0.345,0.053,0.514,0.053
		c1.159,0,2.198-0.81,2.445-1.989l2.685-12.843l1.593-1.244l-0.357,0.652c-0.413,0.755-0.409,1.669,0.011,2.42l6.553,11.724
		c0.458,0.819,1.308,1.281,2.185,1.281c0.413,0,0.831-0.102,1.217-0.318c1.205-0.673,1.636-2.197,0.962-3.402l-5.878-10.517
		l3.992-7.294c0.119-0.217,0.19-0.445,0.24-0.675c0.11-0.16,0.189-0.344,0.189-0.553v-5.757c0-0.553-0.337-1.295-0.752-1.66
		l-9.46-8.405c-0.415-0.365-1.257-0.197-1.571,0.257l-0.266,0.488c-0.16,0.132-0.307,0.283-0.424,0.468l-5.322,8.426l-6.145,4.61
		c-0.482,0.361-0.745,0.899-0.786,1.455l-1.726-1.283c-0.334-0.248-0.738-0.386-1.155-0.394l-7.184-0.137l1.852-5.852l5.937,1.171
		c0.163,0.032,0.325,0.048,0.486,0.048c1.083,0,2.07-0.708,2.393-1.781l2.354-7.836c0.25,0.546,0.584,1.046,1.002,1.466
		c3.045-1.262,5.7-6.195,6.322-7.423c0.003,0.048,0.015,0.096,0.038,0.142c0.092,0.186,0.317,0.26,0.502,0.169
		c0.295-0.146,0.459-0.39,0.555-0.662c0.333-0.077,1.011,0.207,1.428,0.478c0.173,0.113,0.405,0.064,0.519-0.109
		c0.111-0.17,0.064-0.404-0.109-0.518c-0.193-0.126-1-0.618-1.726-0.61c-0.009-0.419-0.097-0.783-0.119-0.863
		c-0.054-0.2-0.26-0.316-0.461-0.262c-0.138,0.038-0.237,0.148-0.267,0.279c-0.013,0.058-0.013,0.12,0.004,0.181
		c0.102,0.369,0.199,1.238-0.158,1.416c-0.032,0.016-0.056,0.04-0.081,0.063c-0.815-0.562-1.793-0.905-2.858-0.905
		c-0.985,0-1.898,0.293-2.676,0.781L36,13.547c0.397-1.322-0.353-2.716-1.675-3.114c-1.32-0.396-2.716,0.352-3.114,1.675
		l-3.95,13.15l-5.489-1.082l5.001-6.246c0.723-0.903,0.732-2.185,0.021-3.098L17.68,3.122c-0.848-1.089-2.417-1.286-3.508-0.437
		c-1.089,0.848-1.285,2.418-0.437,3.508l7.903,10.153l-6.345,7.923c-0.267,0.334-0.424,0.717-0.496,1.11l-1.594,4.153
		c-0.231,0.502-0.507,1.347-0.613,1.889l-0.203,1.61l-2.589-3.649l0.773-7.998c0.106-1.1-0.699-2.077-1.798-2.183
		c-1.095-0.11-2.077,0.699-2.183,1.798L5.745,29.74c-0.046,0.479,0.082,0.958,0.359,1.35l5.114,7.209
		c0.223,0.314,0.524,0.534,0.855,0.674c0.133,0.091,0.286,0.157,0.475,0.159l0.246,0.003c0.019,0.001,0.038,0.007,0.058,0.007
		c0.012,0,0.024-0.005,0.037-0.006l4.784,0.06c0.099,0.017,0.198,0.034,0.302,0.036l9.224,0.176l5.924,4.402
		C33.172,43.847,33.229,43.861,33.28,43.892z M33.982,38.842l6.439-4.831c0.195-0.146,0.361-0.326,0.491-0.532l0.301-0.477
		l-0.758,3.016l-5.797,3.95l-1.169-0.869C33.66,39.034,33.829,38.957,33.982,38.842z"/>
	<path d="M25.192,55.608l0.29-0.691c-3.778-1.585-10.519,1.283-10.805,1.406l0.297,0.688C15.041,56.983,21.705,54.149,25.192,55.608
		z"/>
	<path d="M15.026,50.896c2.74,0.541,5.402-1.24,5.943-3.984c0.053-0.269,0.066-0.536,0.076-0.802
		c-0.042-0.003-0.083-0.008-0.124-0.025c-2.854-1.194-7.812,0.479-9.563,1.144c0.076-0.047,0.138-0.118,0.166-0.211
		c0.059-0.199-0.055-0.407-0.253-0.466c-0.058-0.017-0.113-0.023-0.169-0.03c1.806-0.692,6.76-2.357,9.903-1.197
		c-0.258-2.115-1.82-3.923-4.023-4.357c-2.741-0.54-5.402,1.242-5.943,3.986c-0.104,0.53-0.097,1.05-0.037,1.558
		c-0.211-0.005-0.408,0.052-0.588,0.146c-0.296-0.17-0.6-0.84-0.719-1.322c-0.05-0.201-0.253-0.324-0.455-0.274
		c-0.197,0.048-0.322,0.253-0.273,0.454c0.055,0.224,0.311,1.134,0.847,1.623c-0.279,0.313-0.462,0.639-0.501,0.712
		c-0.096,0.183-0.024,0.409,0.159,0.505c0.126,0.066,0.274,0.053,0.385-0.022c0.049-0.033,0.091-0.08,0.121-0.135
		c0.177-0.339,0.699-1.041,1.081-0.928c0.064,0.019,0.127,0.015,0.187,0.001c-0.028,0.011-0.063,0.024-0.089,0.034
		C11.66,49.077,13.096,50.515,15.026,50.896z"/>
	<path d="M11.155,57.824c0.16-0.132,0.183-0.368,0.052-0.528c-0.208-0.254-0.483-0.36-0.769-0.393
		c-0.15-0.307-0.025-1.032,0.146-1.498c0.071-0.194-0.028-0.41-0.223-0.482c-0.19-0.071-0.408,0.028-0.48,0.222
		c-0.08,0.217-0.379,1.114-0.209,1.819c-0.407,0.103-0.741,0.27-0.815,0.309c-0.183,0.098-0.25,0.325-0.152,0.507
		c0.067,0.126,0.197,0.198,0.331,0.198c0.06,0,0.12-0.015,0.176-0.044c0.337-0.181,1.162-0.47,1.415-0.162
		C10.758,57.933,10.994,57.955,11.155,57.824z"/>
	<path d="M35.401,23.039c0.831,0.596,1.841,0.956,2.942,0.956c2.793,0,5.061-2.263,5.061-5.06c0-1.447-0.614-2.742-1.586-3.664
		C41.343,16.239,38.7,21.387,35.401,23.039z"/>
</g>
</svg>
