<?xml version="1.0" encoding="iso-8859-1"?>
<!-- Generator: Adobe Illustrator 17.1.0, SVG Export Plug-In . SVG Version: 6.00 Build 0)  -->
<!DOCTYPE svg PUBLIC "-//W3C//DTD SVG 1.1//EN" "http://www.w3.org/Graphics/SVG/1.1/DTD/svg11.dtd">
<svg version="1.1" id="Capa_1" xmlns="http://www.w3.org/2000/svg" xmlns:xlink="http://www.w3.org/1999/xlink" x="0px" y="0px"
	 viewBox="0 0 64 64" style="enable-background:new 0 0 64 64;" xml:space="preserve">
<g>
	<path d="M24.188,61.714c7.101,0,13.227-4.143,16.114-10.14l1.495,2.51c0.761,1.247,2.489,1.755,3.81,0.971
		c1.319-0.783,1.707-2.441,0.97-3.808l-8.646-14.562c-0.503-0.848-1.389-1.33-2.306-1.359H23.5V23.25l5.935-3.066
		c0.468-0.242,0.822-0.659,0.984-1.16l3-9.25c0.174-0.537,0.107-1.092-0.139-1.554c0.913-0.748,1.507-1.87,1.507-3.142
		C34.787,2.826,32.961,1,30.708,1c-1.501,0-2.798,0.819-3.506,2.026c-0.2-0.176-0.436-0.317-0.706-0.404
		c-1.05-0.338-2.178,0.234-2.519,1.285l-2.117,6.529c-0.871-1.108-2.208-1.833-3.725-1.833c-2.627,0-4.757,2.13-4.757,4.756
		c0,2.381,1.755,4.335,4.038,4.683l-0.798,1.129H15.06c-0.552,0-0.985,0.447-0.966,1l0.293,8.733
		c-0.021,0.012-0.041,0.01-0.062,0.025c-4.828,3.201-8.013,8.684-8.013,14.909C6.312,53.711,14.317,61.714,24.188,61.714z
		 M24.513,14.928c0.116-0.164,0.207-0.345,0.269-0.537l2.379-7.336c0.501,0.897,1.324,1.578,2.321,1.894l-2.614,8.059l-4.291,2.217
		c-0.114-0.032-0.228-0.054-0.337-0.054h-0.725L24.513,14.928z M14.542,33.513l0.161,4.779c0.219,2.533,2.343,4.339,4.852,4.326
		h15.414l2.877,4.831c-1.598,6.056-7.1,10.524-13.658,10.524c-7.807,0-14.136-6.328-14.136-14.137
		C10.053,39.762,11.783,36.094,14.542,33.513z"/>
</g>
</svg>
