<?xml version="1.0" encoding="iso-8859-1"?>
<!-- Generator: Adobe Illustrator 17.1.0, SVG Export Plug-In . SVG Version: 6.00 Build 0)  -->
<!DOCTYPE svg PUBLIC "-//W3C//DTD SVG 1.1//EN" "http://www.w3.org/Graphics/SVG/1.1/DTD/svg11.dtd">
<svg version="1.1" id="Capa_1" xmlns="http://www.w3.org/2000/svg" xmlns:xlink="http://www.w3.org/1999/xlink" x="0px" y="0px"
	 viewBox="0 0 64 64" style="enable-background:new 0 0 64 64;" xml:space="preserve">
<g>
	<path d="M48.76,16.604c-0.957-0.19-2.001-0.486-2.872-0.863c-0.392-0.168-0.511-0.044-0.285,0.317l0.396,0.637l-2.947,0.626
		C40.263,6.69,30.301,7.692,30.196,7.704c-0.63,0.074-1.09,0.646-1.018,1.28c0.072,0.634,0.646,1.091,1.28,1.018
		c0.337-0.039,8.001-0.804,10.326,7.799l-5.538,1.176c-0.352-0.307-0.806-0.498-1.308-0.498h-12.28
		c-0.257-0.257-0.647-0.427-0.986-0.427h-7.18c-0.552,0-0.984,0.447-0.966,0.999l0.294,8.733c-0.021,0.012-0.041,0.011-0.062,0.024
		c-4.828,3.201-8.014,8.685-8.014,14.909c0,9.874,8.006,17.877,17.877,17.877c7.101,0,13.227-4.143,16.113-10.14l1.495,2.51
		c0.761,1.246,2.489,1.755,3.81,0.971c1.32-0.783,1.707-2.441,0.971-3.809l-8.646-14.562c-0.503-0.848-1.389-1.33-2.306-1.358
		H21.934V22.479H33.94c1.104,0,2-0.896,2-2c0-0.024-0.006-0.048-0.007-0.072c1.382-0.293,3.309-0.702,5.166-1.097
		c1.267,7.718-5.132,11.42-5.41,11.574c-0.559,0.307-0.763,1.012-0.455,1.57c0.252,0.454,0.764,0.674,1.246,0.574
		c0.112-0.023,0.222-0.062,0.325-0.12c0.085-0.046,8.192-4.65,6.57-14.081c1.244-0.265,2.309-0.49,2.943-0.625l-0.104,0.74
		c-0.058,0.423,0.102,0.487,0.392,0.174c0.643-0.697,1.476-1.39,2.273-1.954C49.227,16.918,49.178,16.686,48.76,16.604z
		 M33.403,41.501l2.877,4.83c-1.599,6.057-7.101,10.525-13.658,10.525c-7.807,0-14.136-6.328-14.136-14.138
		c0-4.075,1.731-7.743,4.489-10.323l0.161,4.779c0.219,2.532,2.343,4.338,4.853,4.326H33.403z"/>
	<circle cx="16.567" cy="12.24" r="4.756"/>
</g>
</svg>
