<?xml version="1.0" encoding="iso-8859-1"?>
<!-- Generator: Adobe Illustrator 17.1.0, SVG Export Plug-In . SVG Version: 6.00 Build 0)  -->
<!DOCTYPE svg PUBLIC "-//W3C//DTD SVG 1.1//EN" "http://www.w3.org/Graphics/SVG/1.1/DTD/svg11.dtd">
<svg version="1.1" id="Capa_1" xmlns="http://www.w3.org/2000/svg" xmlns:xlink="http://www.w3.org/1999/xlink" x="0px" y="0px"
	 viewBox="0 0 64 64" style="enable-background:new 0 0 64 64;" xml:space="preserve">
<g>
	<path d="M36.2,18.574c2.194,0,3.979-1.774,3.979-3.97c0-2.191-1.784-3.976-3.979-3.976c-2.192,0-3.977,1.787-3.977,3.976
		C32.226,16.799,34.008,18.574,36.2,18.574z"/>
	<path d="M34.715,27.227c0.453,0.717,1.077,1.004,1.656,0.992h7.68c2.382,0,2.382-3.109,0-3.109l-6.634,0.014l-4.363-6.844
		c0,0-0.925-1.538-2.684-1.538c0,0-1.46-0.189-2.496,0.99l-8.408,8.425c-0.541,0.586-0.856,1.369-0.856,2.224
		c0,1.245,0.695,2.342,1.715,2.909l8.562,4.761v0.954c0,1.263,1.024,2.299,2.289,2.299c1.27,0,2.294-1.032,2.294-2.299v-3.188
		c0,0,0.304-1.782-1.728-2.757l-4.939-2.602l5.329-5.276L34.715,27.227z"/>
	<path d="M46.75,54.171c5.977,0,10.834-4.85,10.834-10.84c0-5.995-4.858-10.839-10.834-10.839c-5.985,0-10.844,4.846-10.844,10.839
		C35.906,49.326,40.767,54.171,46.75,54.171z"/>
	<path d="M26.471,43.331c0-5.993-4.856-10.839-10.847-10.839c-5.972,0-10.832,4.848-10.832,10.839c0,5.99,4.86,10.84,10.832,10.84
		C21.618,54.171,26.471,49.321,26.471,43.331z"/>
</g>
</svg>
