<?xml version="1.0" encoding="iso-8859-1"?>
<!-- Generator: Adobe Illustrator 17.1.0, SVG Export Plug-In . SVG Version: 6.00 Build 0)  -->
<!DOCTYPE svg PUBLIC "-//W3C//DTD SVG 1.1//EN" "http://www.w3.org/Graphics/SVG/1.1/DTD/svg11.dtd">
<svg version="1.1" id="Capa_1" xmlns="http://www.w3.org/2000/svg" xmlns:xlink="http://www.w3.org/1999/xlink" x="0px" y="0px"
	 viewBox="0 0 64 64" style="enable-background:new 0 0 64 64;" xml:space="preserve">
<g>
	<path d="M26.282,50.399c-0.015,0.426,0.317,0.736,0.741,0.694l16.086-1.615c0.424-0.042,0.729-0.42,0.674-0.842
		c-0.615-4.814-4.419-31.06-15.444-42.622c-0.294-0.309-0.552-0.205-0.567,0.222L26.282,50.399z"/>
	<path d="M46.528,52.656c-7.864,1.501-18.163,0.951-25.591,0.198c0.467-0.333,0.844-0.802,1.063-1.377l-2.345,0.275
		c-0.907-0.937-0.251-1.927-0.251-1.927l2.656-0.29c-0.265-0.87-0.907-1.613-1.825-1.953c-1.559-0.578-3.292,0.219-3.869,1.778
		c-0.4,1.082-0.128,2.239,0.59,3.043c-1.739-0.217-3.163-0.422-4.144-0.571c-0.83-0.126-1.223,2.593-0.656,3.4
		c2.572,3.665,8.034,3.668,8.034,3.668s5.289,0,13.285,0c5.805,0,10.848-2.406,13.175-3.722
		C47.417,54.744,47.354,52.498,46.528,52.656z"/>
</g>
</svg>
