<?xml version="1.0" encoding="iso-8859-1"?>
<!-- Generator: Adobe Illustrator 17.1.0, SVG Export Plug-In . SVG Version: 6.00 Build 0)  -->
<!DOCTYPE svg PUBLIC "-//W3C//DTD SVG 1.1//EN" "http://www.w3.org/Graphics/SVG/1.1/DTD/svg11.dtd">
<svg version="1.1" id="Capa_1" xmlns="http://www.w3.org/2000/svg" xmlns:xlink="http://www.w3.org/1999/xlink" x="0px" y="0px"
	 viewBox="0 0 64 64" style="enable-background:new 0 0 64 64;" xml:space="preserve">
<g>
	<path d="M12.051,47.975l26.542,8.177c3.754,1.155,7.635,0.802,8.669-0.791c1.034-1.592-1.176-3.807-4.935-4.949l-4.995-1.516
		l-0.281-11.974c-0.002-0.072-0.013-0.144-0.021-0.216l2.351-11.678l6.366,2.229c0.539,0.189,1.128,0.187,1.667-0.006l8.843-3.158
		c1.301-0.465,1.978-1.895,1.514-3.195c-0.463-1.299-1.894-1.978-3.195-1.513l-8.011,2.861l-6.422-2.25
		c-0.167-0.058-0.336-0.096-0.503-0.118l-11.026-3.122c-0.32-0.136-0.669-0.211-1.038-0.2l-4.777,0.13l-5.781-5.361
		c-1.012-0.94-2.593-0.88-3.533,0.132c-0.938,1.013-0.878,2.595,0.134,3.533l6.529,6.056c0.185,0.173,0.395,0.314,0.621,0.422
		c0.354,0.169,0.747,0.254,1.147,0.244l5.311-0.145l-1.387,8.352c-0.268-0.032-0.539-0.032-0.809,0.009l-5.647,0.868
		c-1.597,0.246-2.712,1.713-2.522,3.318l0.348,2.993c0.064,0.549,0.561,1.04,1.11,1.096l3.532,0.363
		c0.549,0.056,1.054-0.342,1.127-0.889l0.184-1.393L25.025,36l6.07,2.905l0.192,8.157l-18.525-5.622
		c-3.758-1.142-6.965-0.609-7.158,1.189C5.411,44.425,8.297,46.821,12.051,47.975z"/>
	<circle cx="35.559" cy="12.239" r="5.001"/>
</g>
</svg>
