<?xml version="1.0" encoding="iso-8859-1"?>
<!-- Generator: Adobe Illustrator 17.1.0, SVG Export Plug-In . SVG Version: 6.00 Build 0)  -->
<!DOCTYPE svg PUBLIC "-//W3C//DTD SVG 1.1//EN" "http://www.w3.org/Graphics/SVG/1.1/DTD/svg11.dtd">
<svg version="1.1" id="Capa_1" xmlns="http://www.w3.org/2000/svg" xmlns:xlink="http://www.w3.org/1999/xlink" x="0px" y="0px"
	 viewBox="0 0 64 64" style="enable-background:new 0 0 64 64;" xml:space="preserve">
<g>
	<circle cx="10.95" cy="32.698" r="4.79"/>
	<path d="M55.998,40.336c-0.463-0.704-1.248-1.127-2.09-1.127H9.727c-0.899,0-1.729,0.483-2.174,1.266L3.474,47.66
		c-0.682,1.201-0.261,2.727,0.94,3.409c0.39,0.221,0.813,0.326,1.232,0.326c0.87,0,1.716-0.455,2.176-1.266l3.36-5.919H52.56
		l3.978,6.058c0.759,1.155,2.309,1.474,3.462,0.717c1.154-0.758,1.476-2.308,0.718-3.462L55.998,40.336z"/>
	<path d="M36.721,37.49v-0.031H41.5c1.381,0,2.5-1.119,2.5-2.5c0-1.381-1.119-2.5-2.5-2.5h-4.779v-0.761c0-0.552-0.447-1-1-1h-7.448
		l1.807-8.643c0.04-0.192,0.042-0.381,0.027-0.567c1.218-0.33,2.236-1.112,2.867-2.206c0.632-1.097,0.799-2.373,0.471-3.595
		c-0.556-2.065-2.436-3.508-4.572-3.508c-0.415,0-0.829,0.055-1.232,0.163c-1.146,0.308-2.101,1.028-2.739,2.019
		c-1.139-0.859-2.636-1.22-4.121-0.821c-2.556,0.687-4.069,3.314-3.383,5.869c0.298,1.109,0.975,2.004,1.84,2.626
		c-0.1,0.192-0.178,0.398-0.212,0.624l-1.333,8.833c-0.027,0.178-0.021,0.353-0.002,0.524v5.472H36.721z M28.158,14.275
		c0.233-0.063,0.474-0.095,0.713-0.095c1.233,0,2.319,0.833,2.641,2.027c0.19,0.706,0.094,1.443-0.272,2.076
		c-0.365,0.633-0.955,1.087-1.661,1.276c-1.046,0.282-2.136-0.12-2.803-0.904c0.058-0.566,0.03-1.149-0.127-1.731
		c-0.088-0.326-0.209-0.634-0.356-0.924c0.055-0.153,0.12-0.304,0.203-0.449C26.862,14.918,27.452,14.464,28.158,14.275z
		 M26.058,20.721c0.071,0.053,0.149,0.096,0.223,0.144c-0.05,0.118-0.091,0.241-0.118,0.371l-1.978,9.461h-2.329l1.123-7.441
		c0.021-0.142,0.026-0.282,0.018-0.42c0.09-0.019,0.18-0.02,0.269-0.044C24.474,22.469,25.437,21.701,26.058,20.721z"/>
</g>
</svg>
