<?xml version="1.0" encoding="iso-8859-1"?>
<!-- Generator: Adobe Illustrator 17.1.0, SVG Export Plug-In . SVG Version: 6.00 Build 0)  -->
<!DOCTYPE svg PUBLIC "-//W3C//DTD SVG 1.1//EN" "http://www.w3.org/Graphics/SVG/1.1/DTD/svg11.dtd">
<svg version="1.1" id="Capa_1" xmlns="http://www.w3.org/2000/svg" xmlns:xlink="http://www.w3.org/1999/xlink" x="0px" y="0px"
	 viewBox="0 0 64 64" style="enable-background:new 0 0 64 64;" xml:space="preserve">
<g>
	<circle cx="48.04" cy="42.958" r="8.083"/>
	<circle cx="25.855" cy="11.887" r="5.708"/>
	<path d="M16.101,51.041c6.673,0,12.083-5.41,12.083-12.083c0-2.443-0.732-4.714-1.979-6.616l3.4-12.356c0-0.552-0.448-1-1-1h-6.999
		c-0.245-0.066-0.505-0.088-0.772-0.054l-3.978,0.5c-0.627,0.079-1.179,0.448-1.49,0.997l-3.689,6.5
		c-0.159,0.281-0.235,0.583-0.25,0.885c-4.352,1.827-7.41,6.128-7.41,11.144C4.018,45.631,9.428,51.041,16.101,51.041z
		 M18.35,23.276l0.881-0.111l-1.073,3.898c-0.605-0.104-1.224-0.167-1.856-0.178L18.35,23.276z"/>
</g>
</svg>
