<?xml version="1.0" encoding="iso-8859-1"?>
<!-- Generator: Adobe Illustrator 17.1.0, SVG Export Plug-In . SVG Version: 6.00 Build 0)  -->
<!DOCTYPE svg PUBLIC "-//W3C//DTD SVG 1.1//EN" "http://www.w3.org/Graphics/SVG/1.1/DTD/svg11.dtd">
<svg version="1.1" id="Capa_1" xmlns="http://www.w3.org/2000/svg" xmlns:xlink="http://www.w3.org/1999/xlink" x="0px" y="0px"
	 viewBox="0 0 64 64" style="enable-background:new 0 0 64 64;" xml:space="preserve">
<g>
	<circle cx="23.506" cy="13.731" r="4.756"/>
	<path d="M11.683,44.21c0,9.874,8.006,17.877,17.877,17.877c7.101,0,13.227-4.143,16.113-10.14l1.495,2.51
		c0.761,1.246,2.489,1.755,3.809,0.971c1.32-0.783,1.707-2.441,0.971-3.809l-8.646-14.562c-0.503-0.848-1.389-1.33-2.306-1.358
		H28.871V24.917l4.845,1.495c0.193,0.06,0.392,0.089,0.59,0.089c0.4,0,0.796-0.12,1.133-0.352l8.527-5.864
		c0.91-0.626,1.141-1.871,0.516-2.781c-0.078-0.114-0.166-0.217-0.262-0.309l0.698-1.568c0.049-0.109,0.035-0.228-0.018-0.325
		c0.074-0.333,0.25-1.001,0.58-1.746c0.194-0.429,0.41-0.824,0.647-1.175c0.083-0.095,0.827-0.95,2.571-2.332
		c0.77-0.612,1.346-1.115,1.804-1.597c0.057-0.011,0.108-0.046,0.134-0.104c0.007-0.017,0.009-0.034,0.012-0.051
		c0.573-0.632,0.95-1.241,1.299-2.023c0.435-0.975,0.49-2.087,0.147-2.977c-0.309-0.801-0.907-1.401-1.773-1.784
		c-0.82-0.369-1.686-0.4-2.505-0.088c-0.918,0.35-1.743,1.135-2.15,2.049c-0.64,1.436-0.783,2.544-0.634,4.938l-0.001,0.001
		c0,0.001,0,0.005,0,0.005c0.144,2.347-0.017,3.468-0.018,3.471c0,0.006-0.105,0.571-0.454,1.354
		c-0.237,0.534-0.532,1.039-0.874,1.508c-0.115,0.023-0.218,0.093-0.268,0.207l-0.755,1.695c-0.334,0.028-0.666,0.132-0.962,0.336
		l-7.729,5.315l-5.1-1.574v-0.187c-0.013-0.552-0.708-1-1.261-1h-7.18c-0.552,0-0.984,0.447-0.966,1l0.294,8.733
		c-0.021,0.012-0.041,0.01-0.062,0.025C14.868,32.502,11.683,37.985,11.683,44.21z M19.913,33.887l0.161,4.779
		c0.219,2.532,2.343,4.338,4.853,4.326h15.414l2.877,4.83c-1.599,6.057-7.101,10.525-13.658,10.525
		c-7.807,0-14.136-6.328-14.136-14.138C15.424,40.135,17.154,36.467,19.913,33.887z"/>
</g>
</svg>
