<?xml version="1.0" encoding="iso-8859-1"?>
<!-- Generator: Adobe Illustrator 17.1.0, SVG Export Plug-In . SVG Version: 6.00 Build 0)  -->
<!DOCTYPE svg PUBLIC "-//W3C//DTD SVG 1.1//EN" "http://www.w3.org/Graphics/SVG/1.1/DTD/svg11.dtd">
<svg version="1.1" id="Capa_1" xmlns="http://www.w3.org/2000/svg" xmlns:xlink="http://www.w3.org/1999/xlink" x="0px" y="0px"
	 viewBox="0 0 64 64" style="enable-background:new 0 0 64 64;" xml:space="preserve">
<g>
	<path d="M9.9,33.884c-0.135,0.481-0.095,1.013,0.161,1.488c0.361,0.671,1.051,1.053,1.763,1.053c0.32,0,0.644-0.077,0.946-0.239
		l7.689-4.138c0.362-0.195,0.655-0.496,0.839-0.863l3.94-7.842l2.302,8.564c-0.096,0.45-0.103,0.925,0.025,1.4l1.901,7.071
		l-2.716,0.731l-0.324-8.404c-0.053-1.38-1.232-2.461-2.594-2.402c-1.38,0.053-2.455,1.215-2.402,2.594l1.021,26.495
		c0.052,1.347,1.16,2.404,2.496,2.404c0.033,0,0.065-0.001,0.098-0.002c1.38-0.053,2.455-1.215,2.402-2.594l-0.503-13.041
		c0.184-0.007,0.369-0.024,0.554-0.074l3.266-0.878l0.435,1.62c0.36,1.339,1.571,2.222,2.895,2.222c0.258,0,0.52-0.034,0.78-0.104
		c1.241-0.334,2.081-1.4,2.199-2.608c0.563,0.704,1.419,1.133,2.334,1.133c0.258,0,0.519-0.034,0.78-0.104
		c1.601-0.43,2.549-2.076,2.119-3.676l-0.397-1.479l4.594-1.235l6.067,11.469c0.448,0.848,1.315,1.331,2.212,1.331
		c0.394,0,0.795-0.094,1.167-0.291c1.221-0.646,1.687-2.159,1.041-3.379L46.894,31.023c0.375-0.312,0.64-0.758,0.706-1.28
		l1.277-10.016c0.131-1.03-0.548-1.99-1.563-2.208l-13.464-2.899c-0.568-0.125-1.13,0.014-1.571,0.326l-6.792,1.826
		c-0.797-0.075-1.593,0.333-1.973,1.09l-5.507,10.962l-3.421,1.841c0.119-0.595,0.121-1.222-0.047-1.848
		c-0.585-2.175-2.822-3.465-4.997-2.88c-2.176,0.585-3.465,2.823-2.881,4.998C7.086,32.516,8.387,33.618,9.9,33.884z M44.678,21.043
		l-0.631,4.943c-0.758-0.68-1.884-0.858-2.834-0.356c-1.221,0.646-1.687,2.159-1.041,3.379l3.934,7.434l-3.493,0.939l-1.939-7.212
		c-0.071-0.266-0.186-0.505-0.319-0.731L35.57,19.082L44.678,21.043z"/>
	<circle cx="26.85" cy="10.067" r="4.79"/>
</g>
</svg>
