<?xml version="1.0" encoding="iso-8859-1"?>
<!-- Generator: Adobe Illustrator 17.1.0, SVG Export Plug-In . SVG Version: 6.00 Build 0)  -->
<!DOCTYPE svg PUBLIC "-//W3C//DTD SVG 1.1//EN" "http://www.w3.org/Graphics/SVG/1.1/DTD/svg11.dtd">
<svg version="1.1" id="Capa_1" xmlns="http://www.w3.org/2000/svg" xmlns:xlink="http://www.w3.org/1999/xlink" x="0px" y="0px"
	 viewBox="0 0 64 64" style="enable-background:new 0 0 64 64;" xml:space="preserve">
<g>
	<circle cx="43.731" cy="31.735" r="5.402"/>
	<path d="M57.769,32.219c-1.211-0.448-2.554,0.168-3.004,1.377l-3.024,8.142l-20.418-6.409l3.202-6.618
		c0.562-1.162,0.076-2.559-1.086-3.121c-1.16-0.562-2.559-0.076-3.121,1.085l-4.381,9.054c-0.296,0.611-0.311,1.321-0.042,1.945
		c0.27,0.623,0.797,1.099,1.445,1.302l3.339,1.048l-8.013,4.564l-5.155,1.516c-0.005,0.002-0.01,0.003-0.015,0.004l-0.168,0.05
		l-7.342-9.148c-1.211-1.51-3.418-1.75-4.927-0.54c-1.51,1.212-1.751,3.418-0.54,4.928l8.812,10.979
		c0.676,0.842,1.688,1.31,2.734,1.31c0.329,0,0.662-0.046,0.989-0.143l0.729-0.215l6.021,4.82c0.64,0.513,1.416,0.769,2.19,0.769
		c0.78,0,1.559-0.259,2.202-0.778l6.481-5.23c0.022-0.018,0.038-0.04,0.059-0.059l10.57-8.233l7.151,2.245
		c0.233,0.073,0.468,0.108,0.701,0.108c0.952,0,1.841-0.586,2.19-1.523l3.797-10.223C59.595,34.014,58.979,32.668,57.769,32.219z"/>
	<path d="M51.43,25.467c0,0.552,0.448,1,1,1c0.552,0,1-0.448,1-1V10.218c0-0.552-0.448-1-1-1c-0.552,0-1,0.448-1,1V25.467z"/>
	<path d="M49.92,19.218V3.968c0-0.552-0.448-1-1-1c-0.552,0-1,0.448-1,1v15.25c0,0.552,0.448,1,1,1
		C49.473,20.218,49.92,19.77,49.92,19.218z"/>
	<path d="M15.607,21.833v15.249c0,0.553,0.448,1,1,1c0.552,0,1-0.447,1-1V21.833c0-0.552-0.448-1-1-1
		C16.055,20.833,15.607,21.281,15.607,21.833z"/>
	<path d="M19.117,15.583v15.25c0,0.552,0.448,1,1,1s1-0.448,1-1v-15.25c0-0.552-0.448-1-1-1S19.117,15.031,19.117,15.583z"/>
</g>
</svg>
