<?xml version="1.0" encoding="iso-8859-1"?>
<!-- Generator: Adobe Illustrator 17.1.0, SVG Export Plug-In . SVG Version: 6.00 Build 0)  -->
<!DOCTYPE svg PUBLIC "-//W3C//DTD SVG 1.1//EN" "http://www.w3.org/Graphics/SVG/1.1/DTD/svg11.dtd">
<svg version="1.1" id="Capa_1" xmlns="http://www.w3.org/2000/svg" xmlns:xlink="http://www.w3.org/1999/xlink" x="0px" y="0px"
	 viewBox="0 0 64 64" style="enable-background:new 0 0 64 64;" xml:space="preserve">
<g>
	<path d="M16.585,12.234c-0.307,2.185,1.213,4.204,3.397,4.513c2.18,0.308,4.2-1.214,4.508-3.397
		c0.309-2.185-1.212-4.202-3.393-4.51C18.913,8.531,16.894,10.051,16.585,12.234z"/>
	<path d="M53.863,42.497l-7.504-1.475c-0.173-0.826-0.744-1.544-1.598-1.865c-0.21-0.077-0.425-0.127-0.64-0.152l-3.163-0.268
		L29.628,21.121l3.545,0.484l5.148,7.971c0.304,0.499,0.814,0.857,1.434,0.945c1.1,0.154,2.119-0.612,2.273-1.709
		c0.084-0.598-0.103-1.164-0.463-1.587l-5.553-8.568c-0.305-0.494-0.816-0.855-1.434-0.944l-9.602-1.354
		c-0.703-0.098-1.381,0.093-1.906,0.48l-6.986,5.255l-4.358-5.78c-0.314-0.354-0.75-0.601-1.252-0.671
		c-1.137-0.16-2.187,0.634-2.348,1.769c-0.068,0.495,0.041,0.971,0.281,1.367l5.249,7.023c1.595,2.119,3.309,0.757,3.309,0.757
		l4.284-3.244l4.912,7.611l-6.134,4.616c0,0-1.276,0.89-0.934,3.075l1.122,4.854c0.072,1.144,0.906,2.12,2.059,2.356l3.134,9.983
		c0.219,0.695,0.151,1.231-0.013,1.455c-0.05,0.068-0.104,0.107-0.235,0.107h-4.1c-0.553,0-1,0.447-1,1c0,0.553,0.447,1,1,1h4.1
		c0.754,0,1.41-0.328,1.848-0.924c0.59-0.804,0.702-1.983,0.309-3.238l-3.07-9.778c0.578-0.396,0.999-1.015,1.106-1.762
		c0.03-0.223,0.032-0.444,0.011-0.659l-0.923-2.357l6.944-5.08l4.424,6.598c0,0,0.699,1.17,2.969,1.407l4.648,0.521
		c0.995,0.159,1.989-0.284,2.546-1.117l7.524,1.479c1.105,0.195,1.968,1.068,1.887,1.874L54.89,50.04
		c-0.073,0.547,0.312,1.05,0.859,1.123c0.045,0.006,0.089,0.009,0.133,0.009c0.494,0,0.923-0.365,0.99-0.868l0.498-3.734
		C57.562,44.667,56.014,42.877,53.863,42.497z"/>
</g>
</svg>
