<?xml version="1.0" encoding="iso-8859-1"?>
<!-- Generator: Adobe Illustrator 17.1.0, SVG Export Plug-In . SVG Version: 6.00 Build 0)  -->
<!DOCTYPE svg PUBLIC "-//W3C//DTD SVG 1.1//EN" "http://www.w3.org/Graphics/SVG/1.1/DTD/svg11.dtd">
<svg version="1.1" id="Capa_1" xmlns="http://www.w3.org/2000/svg" xmlns:xlink="http://www.w3.org/1999/xlink" x="0px" y="0px"
	 viewBox="0 0 64 64" style="enable-background:new 0 0 64 64;" xml:space="preserve">
<g>
	<circle cx="18.34" cy="14.082" r="4.756"/>
	<path d="M40.962,12.731c0.083-0.095,0.827-0.95,2.571-2.332c0.771-0.612,1.346-1.115,1.804-1.597
		c0.057-0.011,0.108-0.046,0.134-0.104c0.007-0.017,0.009-0.034,0.012-0.051c0.573-0.632,0.95-1.241,1.299-2.023
		c0.434-0.975,0.49-2.087,0.146-2.977c-0.309-0.801-0.907-1.401-1.772-1.784c-0.82-0.369-1.686-0.4-2.505-0.088
		c-0.918,0.35-1.743,1.135-2.15,2.049c-0.64,1.436-0.783,2.544-0.634,4.938l-0.001,0c0,0.001,0,0.005,0,0.005
		c0.145,2.347-0.017,3.468-0.017,3.471c0,0.006-0.106,0.571-0.454,1.354c-0.237,0.534-0.532,1.039-0.874,1.508
		c-0.115,0.023-0.218,0.093-0.268,0.208l-0.755,1.695c-0.334,0.028-0.666,0.132-0.962,0.336l-7.729,5.315l-5.1-1.574v-0.187
		c-0.013-0.552-0.708-1-1.261-1h-7.18c-0.552,0-0.984,0.447-0.966,1l0.294,8.733c-0.021,0.012-0.041,0.01-0.062,0.025
		c-4.828,3.201-8.014,8.684-8.014,14.909c0,9.874,8.006,17.877,17.877,17.877c7.1,0,13.227-4.143,16.113-10.14l1.495,2.51
		c0.761,1.246,2.489,1.755,3.809,0.971c1.32-0.783,1.707-2.441,0.971-3.809l-8.645-14.562c-0.503-0.848-1.389-1.33-2.306-1.358
		H23.705V25.267l4.845,1.495c0.193,0.06,0.392,0.089,0.59,0.089c0.4,0,0.796-0.12,1.133-0.352l8.527-5.864
		c0.91-0.626,1.141-1.871,0.516-2.781c-0.078-0.114-0.166-0.217-0.262-0.309l0.698-1.568c0.049-0.109,0.035-0.228-0.018-0.325
		c0.074-0.333,0.25-1.001,0.58-1.746C40.509,13.477,40.725,13.081,40.962,12.731z M35.175,43.343l2.877,4.83
		c-1.599,6.057-7.101,10.525-13.658,10.525c-7.807,0-14.136-6.328-14.136-14.138c0-4.075,1.73-7.743,4.489-10.323l0.161,4.779
		c0.219,2.532,2.343,4.338,4.852,4.326H35.175z"/>
	<path d="M53.263,6.493c-1.562,0-2.834,1.271-2.834,2.833c0,1.562,1.271,2.834,2.834,2.834c1.561,0,2.833-1.271,2.833-2.834
		C56.096,7.764,54.824,6.493,53.263,6.493z M51.878,11.407c-0.156-0.104-0.301-0.227-0.43-0.362
		c0.291-0.435,0.573-1.032,0.573-1.719c0-0.783-0.364-1.297-0.681-1.597c0.119-0.143,0.253-0.272,0.4-0.385
		c0.396,0.381,0.836,1.019,0.836,1.982C52.577,10.179,52.227,10.9,51.878,11.407z M55.141,10.973
		c-0.125,0.143-0.265,0.27-0.418,0.381c-0.338-0.504-0.664-1.203-0.664-2.028c0-0.923,0.404-1.548,0.787-1.933
		c0.143,0.117,0.272,0.251,0.387,0.397c-0.3,0.307-0.618,0.804-0.618,1.536C54.614,9.976,54.867,10.545,55.141,10.973z"/>
</g>
</svg>
