<?xml version="1.0" encoding="iso-8859-1"?>
<!-- Generator: Adobe Illustrator 17.1.0, SVG Export Plug-In . SVG Version: 6.00 Build 0)  -->
<!DOCTYPE svg PUBLIC "-//W3C//DTD SVG 1.1//EN" "http://www.w3.org/Graphics/SVG/1.1/DTD/svg11.dtd">
<svg version="1.1" id="Capa_1" xmlns="http://www.w3.org/2000/svg" xmlns:xlink="http://www.w3.org/1999/xlink" x="0px" y="0px"
	 viewBox="0 0 64 64" style="enable-background:new 0 0 64 64;" xml:space="preserve">
<g>
	<circle cx="22.481" cy="13.906" r="5.001"/>
	<path d="M4.75,49.448h8.062c0.552,0,1-0.448,1-1c0-0.552-0.448-1-1-1H9.918l0.746-9.085c0.239,0.099,0.49,0.167,0.755,0.167
		c0.179,0,0.361-0.024,0.542-0.075l8.769-2.462l2.817-8.397l4.695,8.719c-5.87,2.297-12.438,4.361-15.843,5.336
		c-0.611,0.175-1.046,0.716-1.084,1.351c-0.039,0.635,0.328,1.225,0.913,1.473c3.846,1.625,6.536,1.966,8.114,1.966
		c0.951,0,1.483-0.122,1.624-0.16c0.057-0.015,0.113-0.034,0.168-0.056l14.69-5.856l3.641,4.655
		c-6.218,2.658-13.376,5.647-17.04,6.924c-5.844,2.039-8.26,0.446-8.399,0.349c-0.827-0.685-2.056-0.596-2.773,0.213
		c-0.733,0.827-0.657,2.091,0.17,2.823c0.263,0.233,2.016,1.651,5.687,1.651c1.756,0,3.952-0.325,6.633-1.259
		c7.406-2.583,27.864-11.601,28.731-11.983c1.011-0.446,1.469-1.627,1.022-2.637c-0.445-1.01-1.625-1.467-2.637-1.023
		c-0.048,0.021-1.191,0.525-3,1.314l-5.84-7.563c-0.009-0.012-0.023-0.019-0.033-0.031l-1.184-2.874
		c-0.195-0.475-0.62-0.816-1.125-0.906c-0.492-0.089-0.987,0.079-1.333,0.433l-5.738-8.795h3.935l2.272,4.336
		c0.358,0.682,1.053,1.072,1.773,1.072c0.313,0,0.63-0.074,0.927-0.229c0.979-0.513,1.356-1.721,0.843-2.7l-2.833-5.408
		c-0.345-0.659-1.028-1.072-1.771-1.072h-7c-0.546,0-1.041,0.22-1.401,0.575l-8.008,4.249c-0.783,0.054-1.493,0.568-1.758,1.358
		l-2.975,8.87l-6.635,1.863l0.774-9.426c0.045-0.551-0.364-1.034-0.914-1.079c-0.55-0.049-1.033,0.364-1.079,0.914L7.911,47.448
		H4.75c-0.552,0-1,0.448-1,1C3.75,49,4.198,49.448,4.75,49.448z"/>
</g>
</svg>
