<?xml version="1.0" encoding="iso-8859-1"?>
<!-- Generator: Adobe Illustrator 17.1.0, SVG Export Plug-In . SVG Version: 6.00 Build 0)  -->
<!DOCTYPE svg PUBLIC "-//W3C//DTD SVG 1.1//EN" "http://www.w3.org/Graphics/SVG/1.1/DTD/svg11.dtd">
<svg version="1.1" id="Capa_1" xmlns="http://www.w3.org/2000/svg" xmlns:xlink="http://www.w3.org/1999/xlink" x="0px" y="0px"
	 viewBox="0 0 64 64" style="enable-background:new 0 0 64 64;" xml:space="preserve">
<g>
	<path d="M58.755,45.404l-5.909,4.367c-0.354,0.262-1.095,0.284-1.465,0.038l-5.178-3.414c-1.332-0.88-3.349-0.89-4.686-0.019
		l-5.303,3.441c-0.407,0.262-1.235,0.268-1.645,0.01l-5.511-3.48c-1.375-0.866-3.39-0.783-4.689,0.194l-4.28,3.224
		c-0.354,0.268-1.089,0.293-1.461,0.051l-5.302-3.438c-1.395-0.907-3.411-0.786-4.688,0.28l-5.133,4.281
		c-0.598,0.498-0.678,1.386-0.181,1.984c0.28,0.334,0.681,0.507,1.084,0.507c0.318,0,0.639-0.108,0.901-0.327l5.134-4.281
		c0.325-0.273,0.991-0.312,1.348-0.081l5.303,3.44c1.371,0.891,3.388,0.818,4.69-0.164l4.281-3.224
		c0.357-0.271,1.108-0.303,1.487-0.062l5.512,3.48c1.339,0.845,3.352,0.833,4.683-0.029l5.302-3.441
		c0.4-0.258,1.205-0.254,1.601,0.008l5.177,3.413c1.362,0.901,3.382,0.848,4.694-0.122l5.909-4.368
		c0.626-0.463,0.757-1.346,0.295-1.971C60.264,45.072,59.381,44.94,58.755,45.404z"/>
	<path d="M20.25,29.104c-2.065,0-3.751,1.674-3.751,3.744c0,2.076,1.686,3.762,3.751,3.762c2.07,0,3.755-1.686,3.755-3.762
		C24.005,30.778,22.32,29.104,20.25,29.104z"/>
	<path d="M23.844,41.312c0.673,0.518,1.876,0.453,2.688-0.146L28,40.084l12.489-8.644c0.568-0.311,1.033-0.777,1.34-1.339
		l9.111-15.506c0.721-1.254,0.289-2.859-0.965-3.592c-1.265-0.721-2.871-0.283-3.592,0.977l-7.602,12.941l-11.188,6.785
		c-0.556,0.307-2.048,2.099-2.859,3.32c-0.762,1.148-1.431,2.878-1.672,3.756C22.821,39.663,23.171,40.795,23.844,41.312z"/>
</g>
</svg>
