<?xml version="1.0" encoding="iso-8859-1"?>
<!-- Generator: Adobe Illustrator 17.1.0, SVG Export Plug-In . SVG Version: 6.00 Build 0)  -->
<!DOCTYPE svg PUBLIC "-//W3C//DTD SVG 1.1//EN" "http://www.w3.org/Graphics/SVG/1.1/DTD/svg11.dtd">
<svg version="1.1" id="Capa_1" xmlns="http://www.w3.org/2000/svg" xmlns:xlink="http://www.w3.org/1999/xlink" x="0px" y="0px"
	 viewBox="0 0 64 64" style="enable-background:new 0 0 64 64;" xml:space="preserve">
<g>
	<circle cx="10.027" cy="23.51" r="3.219"/>
	<path d="M14.125,56.24c4.806,0,8.953-2.804,10.906-6.863l1.013,1.698c0.515,0.844,1.684,1.188,2.578,0.658
		c0.895-0.529,1.155-1.653,0.657-2.578l-5.852-9.857c-0.34-0.575-0.94-0.9-1.561-0.92h-8.207v-7.393L23.67,29.5
		c0.504-0.075,0.892-0.422,1.058-0.867l0.443,1.044l1.804-2.746l4.595-2.503l4.595,2.503l1.804,2.746l0.439-1.036
		c0.17,0.441,0.56,0.784,1.062,0.858l10.011,1.485v7.393h-8.207c-0.621,0.02-1.222,0.345-1.562,0.92l-5.852,9.857
		c-0.498,0.925-0.237,2.048,0.657,2.578c0.894,0.531,2.063,0.187,2.578-0.658l1.013-1.698c1.953,4.059,6.101,6.863,10.906,6.863
		c6.681,0,12.101-5.417,12.101-12.101c0-4.213-2.157-7.925-5.425-10.091c-0.014-0.009-0.027-0.009-0.042-0.017l0.199-5.911
		c0.012-0.374-0.28-0.677-0.654-0.677h-4.858c-0.374,0-0.846,0.303-0.854,0.677v0.127l-9.615-1.425
		c-0.255-0.037-0.505,0.004-0.727,0.1l0.437-1.031l-3.223,0.372l-4.076-2.22l3.689-2.009c0.164-0.089,0.225-0.294,0.136-0.459
		c-0.091-0.165-0.296-0.225-0.459-0.135l-4.073,2.218l-4.073-2.218c-0.164-0.09-0.369-0.03-0.46,0.135
		c-0.089,0.164-0.028,0.37,0.136,0.459l3.69,2.01l-4.076,2.22l-3.223-0.372l0.438,1.034c-0.223-0.097-0.472-0.14-0.729-0.102
		l-9.615,1.425v-0.127c-0.009-0.374-0.48-0.677-0.854-0.677H7.946c-0.374,0-0.666,0.303-0.654,0.677l0.199,5.911
		c-0.015,0.008-0.028,0.007-0.042,0.017c-3.268,2.166-5.425,5.878-5.425,10.091C2.024,50.823,7.444,56.24,14.125,56.24z
		 M55.435,40.387l0.109-3.235c1.867,1.747,3.039,4.23,3.039,6.988c0,5.286-4.284,9.57-9.568,9.57c-4.438,0-8.163-3.025-9.244-7.124
		l1.947-3.27h10.433C53.85,43.324,55.287,42.101,55.435,40.387z M7.596,37.151l0.109,3.235c0.148,1.714,1.586,2.937,3.284,2.928
		h10.433l1.947,3.27c-1.081,4.099-4.806,7.124-9.244,7.124c-5.284,0-9.568-4.284-9.568-9.57C4.557,41.381,5.729,38.898,7.596,37.151
		z"/>
	<circle cx="53.113" cy="23.51" r="3.219"/>
</g>
</svg>
