<?xml version="1.0" encoding="iso-8859-1"?>
<!-- Generator: Adobe Illustrator 17.1.0, SVG Export Plug-In . SVG Version: 6.00 Build 0)  -->
<!DOCTYPE svg PUBLIC "-//W3C//DTD SVG 1.1//EN" "http://www.w3.org/Graphics/SVG/1.1/DTD/svg11.dtd">
<svg version="1.1" id="Capa_1" xmlns="http://www.w3.org/2000/svg" xmlns:xlink="http://www.w3.org/1999/xlink" x="0px" y="0px"
	 viewBox="0 0 64 64" style="enable-background:new 0 0 64 64;" xml:space="preserve">
<g>
	<path d="M4.409,50.94c0.318,0,0.639-0.108,0.901-0.327l5.134-4.281c0.325-0.272,0.991-0.311,1.348-0.081l5.303,3.439
		c1.371,0.891,3.388,0.818,4.69-0.164l4.281-3.224c0.357-0.271,1.107-0.303,1.487-0.062l5.512,3.481
		c1.339,0.845,3.352,0.833,4.684-0.029l5.302-3.441c0.4-0.258,1.205-0.254,1.601,0.008l5.177,3.413
		c1.362,0.901,3.382,0.848,4.694-0.122l5.909-4.368c0.626-0.463,0.757-1.346,0.295-1.971c-0.462-0.627-1.345-0.759-1.971-0.295
		l-5.909,4.367c-0.354,0.262-1.095,0.284-1.465,0.038l-5.178-3.414c-1.332-0.88-3.349-0.89-4.687-0.02l-5.303,3.441
		c-0.407,0.262-1.235,0.268-1.646,0.01l-5.511-3.481c-1.375-0.866-3.39-0.783-4.689,0.194l-4.28,3.224
		c-0.353,0.268-1.089,0.293-1.461,0.051l-5.302-3.438c-1.394-0.907-3.411-0.786-4.688,0.28l-5.133,4.281
		c-0.598,0.498-0.678,1.386-0.181,1.984C3.605,50.768,4.005,50.94,4.409,50.94z"/>
	<path d="M21.804,32.284c-4.345,0-7.867,3.522-7.867,7.866c0,0.607,0.075,1.196,0.205,1.765l4.797,3.11c0,0,0.061,0.015,0.164,0.015
		c0.122,0,0.213-0.027,0.237-0.04l4.264-3.212c1.567-1.181,4.09-1.288,5.755-0.238l0.164,0.103c0.094-0.487,0.148-0.989,0.148-1.503
		C29.67,35.807,26.148,32.284,21.804,32.284z"/>
	<path d="M34.923,45.026c0.05,0.025,0.576,0.025,0.639-0.009l5.296-3.436c1.598-1.038,4.127-1.026,5.716,0.024l5.177,3.412
		c0.016,0,0.365,0.002,0.407-0.021l4.81-3.556c-2.136-1.464-13.683-5.235-20.816-7.486c-0.01-0.082-0.009-0.164-0.026-0.246
		L33.75,22.24c-0.336-1.622-1.921-2.666-3.546-2.329c-1.623,0.336-2.665,1.923-2.329,3.546l1.926,9.301
		c-0.152,0.131-0.304,0.26-0.423,0.356c-0.279,0.226-0.559,0.456-0.823,0.696c1.561,1.66,2.524,3.888,2.524,6.341
		c0,0.783-0.104,1.54-0.288,2.268L34.923,45.026z"/>
</g>
</svg>
