<?xml version="1.0" encoding="iso-8859-1"?>
<!-- Generator: Adobe Illustrator 17.1.0, SVG Export Plug-In . SVG Version: 6.00 Build 0)  -->
<!DOCTYPE svg PUBLIC "-//W3C//DTD SVG 1.1//EN" "http://www.w3.org/Graphics/SVG/1.1/DTD/svg11.dtd">
<svg version="1.1" id="Capa_1" xmlns="http://www.w3.org/2000/svg" xmlns:xlink="http://www.w3.org/1999/xlink" x="0px" y="0px"
	 viewBox="0 0 64 64" style="enable-background:new 0 0 64 64;" xml:space="preserve">
<g>
	<path d="M54.053,28.302l4.867-4.874c1.371-1.361,1.371-3.551,0-4.907c-1.35-1.363-3.559-1.363-4.908,0l-4.864,4.873
		c-1.139,1.131-1.308,2.838-0.55,4.156l-6.05,6.179l-11.959-4.424c-0.154-0.089-1.481-0.606-2.807-1.113
		c-1.557-0.598-3.176,0.061-3.61,1.461l-0.787,2.535l-2.103,7.051l-8.413,5.347c-0.151,0.095-0.253,0.23-0.331,0.377H5.529
		c-1.302,0-1.846,0.924-1.215,2.064l2.43,2.258c1.398,1.144,3.38,2.062,4.682,2.062h13.87l-7.028,7.177
		c-0.344,0.354-0.335,0.92,0.018,1.263c0.168,0.164,0.389,0.254,0.623,0.254c0.241,0,0.475-0.099,0.641-0.27l8.249-8.424h23.144
		c1.303,0,3.208-0.628,4.215-1.455c0.918-0.756,1.991-1.696,2.754-2.541c1.086-1.026,2.323-2.472-0.444-2.388
		c-0.73,0.026-21.623,0.002-23.417,0l4.938-5.043l2.31-2.295l2.949,0.959c1.09,0.354,2.351-0.084,2.816-0.979
		c0.465-0.894,0.027-1.925-0.977-2.3l-1.819-0.681l5.72-5.728C51.293,29.587,52.951,29.403,54.053,28.302z M19.611,44.961h-3.609
		l4.407-2.801l-0.72,2.413C19.641,44.713,19.627,44.841,19.611,44.961z M31.406,44.961h-1.484l2.641-8.793
		c0.188-0.624,0.847-0.982,1.473-0.799l5.371,1.566l-3.446,3.519L31.406,44.961z"/>
	<circle cx="30.086" cy="21.644" r="5.472"/>
</g>
</svg>
