<?xml version="1.0" encoding="iso-8859-1"?>
<!-- Generator: Adobe Illustrator 17.1.0, SVG Export Plug-In . SVG Version: 6.00 Build 0)  -->
<!DOCTYPE svg PUBLIC "-//W3C//DTD SVG 1.1//EN" "http://www.w3.org/Graphics/SVG/1.1/DTD/svg11.dtd">
<svg version="1.1" id="Capa_1" xmlns="http://www.w3.org/2000/svg" xmlns:xlink="http://www.w3.org/1999/xlink" x="0px" y="0px"
	 viewBox="0 0 64 64" style="enable-background:new 0 0 64 64;" xml:space="preserve">
<g>
	<circle cx="24.126" cy="9.139" r="4.871"/>
	<path d="M58.81,19.962c-1.166-0.492-2.416-1.141-3.424-1.848c-0.453-0.316-0.637-0.189-0.445,0.328l0.336,0.912l-3.908,0.023
		C50.611,5.143,37.69,3.806,37.556,3.794c-0.82-0.072-1.555,0.533-1.629,1.359c-0.074,0.824,0.535,1.555,1.359,1.629
		c0.44,0.04,10.376,1.075,11.077,12.612l-6.004,0.035c-0.549-0.702-1.395-1.162-2.355-1.162H29.598
		c-0.458-1.07-1.52-1.82-2.758-1.82h-5.248l-6.726-3.361c-1.483-0.74-3.284-0.141-4.024,1.342c-0.742,1.482-0.141,3.283,1.341,4.025
		l6.229,3.113v11.83L12.43,55.195c-0.438,1.598,0.502,3.248,2.1,3.688c0.266,0.072,0.532,0.107,0.795,0.107
		c1.318,0,2.525-0.875,2.892-2.207l5.415-19.729h0.934l1.017,4.676c0.316,1.238,1.361,2.09,2.558,2.23l2.626,14.386
		c0.087,0.475,0.501,0.82,0.984,0.82h3.5c0.553,0,1-0.447,1-1c0-0.553-0.447-1-1-1h-2.666l-2.493-13.656
		c1.065-0.677,1.634-1.974,1.305-3.263l-1.557-6.794v-9.187h10.164c1.602,0,2.9-1.259,2.984-2.842
		c1.613-0.009,3.521-0.021,5.378-0.031c-0.412,10.137-9.511,13.164-9.904,13.288c-0.791,0.244-1.234,1.086-0.988,1.877
		c0.199,0.643,0.793,1.055,1.432,1.055c0.148,0,0.298-0.021,0.445-0.066c0.119-0.036,11.625-3.763,12.035-16.171
		c1.65-0.01,3.062-0.018,3.902-0.023l-0.326,0.914c-0.184,0.521,0.002,0.645,0.451,0.322c1-0.717,2.24-1.379,3.401-1.887
		C59.321,20.483,59.319,20.177,58.81,19.962z"/>
</g>
</svg>
