<?xml version="1.0" encoding="iso-8859-1"?>
<!-- Generator: Adobe Illustrator 17.1.0, SVG Export Plug-In . SVG Version: 6.00 Build 0)  -->
<!DOCTYPE svg PUBLIC "-//W3C//DTD SVG 1.1//EN" "http://www.w3.org/Graphics/SVG/1.1/DTD/svg11.dtd">
<svg version="1.1" id="Capa_1" xmlns="http://www.w3.org/2000/svg" xmlns:xlink="http://www.w3.org/1999/xlink" x="0px" y="0px"
	 viewBox="0 0 64 64" style="enable-background:new 0 0 64 64;" xml:space="preserve">
<g>
	<path d="M43.976,21.587c0-0.54-0.436-0.976-0.975-0.976c-0.539,0-0.974,0.436-0.974,0.976v7.231H27.44
		c-0.748,0-1.356,0.606-1.356,1.355v3.593c0,0.748,0.608,1.355,1.356,1.355h3.849v16.38c0,0.538,0.436,0.975,0.975,0.975h3.3
		c0.539,0,0.975-0.437,0.975-0.975v-16.38h22.024c0.749,0,1.356-0.607,1.356-1.355v-3.593c0-0.749-0.608-1.355-1.356-1.355H43.976
		V21.587z"/>
	<path d="M6,53.477h1.864c0.552,0,1-0.447,1-1c0-0.553-0.448-1-1-1H6c-0.014,0-0.027,0-0.039-0.001
		c0.019-0.085,0.064-0.217,0.165-0.387l3.902-6.55c0.913,0.771,2.07,1.111,2.368,0.567c0.181-0.33,0.288-0.702,0.304-1.09
		l0.303-7.006l5.194,4.446v7.924c0,1.377,1.117,2.494,2.494,2.494c1.376,0,2.493-1.117,2.493-2.494V40.31
		c0-0.728-0.317-1.42-0.871-1.895l-6.53-5.591v-4.201l2.34-0.107c0.298-0.013,0.585-0.105,0.833-0.268l3.784-2.47l1.449,0.453
		c0.166,0.051,0.332,0.076,0.497,0.076c0.708,0,1.364-0.456,1.586-1.167c0.166-0.532,0.049-1.083-0.262-1.496l1.558-1.018
		c0.769-0.5,0.984-1.531,0.483-2.3c-0.273-0.42-0.705-0.668-1.164-0.732l0.099-0.223c0.034-0.074,0.025-0.156-0.012-0.225
		c0.051-0.229,0.173-0.689,0.401-1.204c0.133-0.294,0.283-0.568,0.446-0.81c0.057-0.066,0.571-0.656,1.773-1.609
		c0.532-0.421,0.929-0.769,1.244-1.102c0.04-0.009,0.075-0.031,0.092-0.071c0.005-0.011,0.007-0.023,0.009-0.036
		c0.394-0.435,0.655-0.855,0.896-1.394c0.3-0.672,0.338-1.44,0.102-2.054c-0.214-0.553-0.627-0.967-1.224-1.229
		c-0.565-0.256-1.162-0.277-1.727-0.062c-0.634,0.241-1.203,0.784-1.484,1.414c-0.441,0.99-0.54,1.755-0.437,3.405h-0.001
		c0,0.002,0,0.004,0,0.004c0.101,1.621-0.011,2.393-0.011,2.394c0,0.006-0.073,0.396-0.313,0.936
		c-0.164,0.366-0.368,0.715-0.604,1.039c-0.079,0.017-0.149,0.063-0.185,0.143l-0.503,1.129l-3.212,2.097l-4.708-1.472
		c-0.16-0.051-0.328-0.076-0.496-0.076h-1.249c0-0.005-5.092-0.005-5.092-0.005c-1.377,0-2.494,1.116-2.494,2.495v10.463
		c-0.023,0.143-0.049,0.289-0.056,0.44l-0.275,6.384c-0.035,0.816,0.272,1.815,0.753,2.631l-4.211,7.068
		c-0.523,0.879-0.601,1.775-0.212,2.459C4.54,53.13,5.198,53.477,6,53.477z M15.783,23.914h0.995l1.849,0.579l-1.107,0.722
		l-1.737,0.079V23.914z"/>
	<circle cx="11.99" cy="16.099" r="3.707"/>
</g>
</svg>
