<?xml version="1.0" encoding="iso-8859-1"?>
<!-- Generator: Adobe Illustrator 17.1.0, SVG Export Plug-In . SVG Version: 6.00 Build 0)  -->
<!DOCTYPE svg PUBLIC "-//W3C//DTD SVG 1.1//EN" "http://www.w3.org/Graphics/SVG/1.1/DTD/svg11.dtd">
<svg version="1.1" id="Capa_1" xmlns="http://www.w3.org/2000/svg" xmlns:xlink="http://www.w3.org/1999/xlink" x="0px" y="0px"
	 viewBox="0 0 64 64" style="enable-background:new 0 0 64 64;" xml:space="preserve">
<g>
	<path d="M10.216,27.92c0.145,0.566,0.225,1.145,0.248,1.726c-0.077,0.089-0.113,0.207-0.082,0.329l0.572,2.253l-0.278,0.15
		c-0.973,0.523-1.337,1.736-0.815,2.708c0.361,0.672,1.051,1.053,1.764,1.053c0.319,0,0.644-0.076,0.945-0.238l7.689-4.138
		c0.362-0.195,0.655-0.496,0.84-0.863l3.939-7.842l2.303,8.565c-0.097,0.45-0.104,0.925,0.024,1.4l1.9,7.072l-2.716,0.729
		l-0.324-8.404c-0.053-1.381-1.227-2.469-2.595-2.402c-1.379,0.053-2.455,1.215-2.401,2.594l1.022,26.495
		c0.052,1.347,1.16,2.403,2.496,2.403c0.033,0,0.065-0.001,0.099-0.002c1.379-0.053,2.455-1.215,2.401-2.595l-0.503-13.04
		c0.184-0.008,0.369-0.024,0.554-0.074l3.266-0.878L31,46.542c0.36,1.34,1.572,2.223,2.896,2.223c0.258,0,0.519-0.034,0.78-0.104
		c1.242-0.334,2.082-1.401,2.199-2.609c0.563,0.704,1.419,1.134,2.334,1.134c0.258,0,0.52-0.034,0.78-0.104
		c1.601-0.431,2.549-2.076,2.119-3.676l-0.398-1.481l4.593-1.234l6.068,11.47c0.448,0.848,1.315,1.332,2.212,1.332
		c0.395,0,0.795-0.094,1.167-0.291c1.221-0.646,1.687-2.158,1.041-3.379L46.695,30.738c0.375-0.312,0.64-0.758,0.706-1.28
		l1.277-10.016c0.131-1.03-0.548-1.99-1.564-2.208l-13.464-2.899c-0.569-0.125-1.131,0.014-1.571,0.326l-6.793,1.826
		c-0.796-0.074-1.592,0.332-1.972,1.09L17.809,28.54l-5.363,2.886l-0.472-1.856c-0.028-0.115-0.113-0.201-0.215-0.244
		c-0.148-0.308-0.424-0.941-0.627-1.73c-0.112-0.457-0.188-0.901-0.218-1.323c0.005-0.126,0.061-1.258,0.574-3.423
		c0.226-0.957,0.366-1.709,0.428-2.37c0.037-0.044,0.056-0.104,0.039-0.165c-0.004-0.017-0.014-0.032-0.021-0.047
		c0.059-0.852-0.023-1.562-0.233-2.393c-0.263-1.035-0.908-1.942-1.729-2.428c-0.738-0.438-1.581-0.539-2.497-0.303
		c-0.872,0.219-1.57,0.73-2.021,1.482c-0.505,0.844-0.666,1.971-0.419,2.941c0.387,1.524,0.961,2.483,2.559,4.269v0.001
		c0,0.002,0.003,0.004,0.003,0.004c1.566,1.753,2.135,2.733,2.136,2.736C9.737,26.58,10.005,27.089,10.216,27.92z M44.479,20.758
		l-0.631,4.943c-0.758-0.679-1.884-0.858-2.834-0.356c-1.221,0.646-1.687,2.159-1.041,3.379l3.934,7.435l-3.493,0.938l-1.938-7.212
		c-0.071-0.266-0.187-0.505-0.319-0.732l-2.784-10.356L44.479,20.758z"/>
	<circle cx="26.651" cy="9.782" r="4.79"/>
</g>
</svg>
