<?xml version="1.0" encoding="iso-8859-1"?>
<!-- Generator: Adobe Illustrator 17.1.0, SVG Export Plug-In . SVG Version: 6.00 Build 0)  -->
<!DOCTYPE svg PUBLIC "-//W3C//DTD SVG 1.1//EN" "http://www.w3.org/Graphics/SVG/1.1/DTD/svg11.dtd">
<svg version="1.1" id="Capa_1" xmlns="http://www.w3.org/2000/svg" xmlns:xlink="http://www.w3.org/1999/xlink" x="0px" y="0px"
	 viewBox="0 0 64 64" style="enable-background:new 0 0 64 64;" xml:space="preserve">
<g>
	<circle cx="18.47" cy="12.2" r="4.756"/>
	<path d="M24.523,60.556c7.101,0,13.227-4.143,16.114-10.14l1.495,2.51c0.761,1.247,2.489,1.755,3.81,0.971
		c1.319-0.783,1.706-2.441,0.97-3.808l-8.646-14.562c-0.503-0.848-1.389-1.33-2.306-1.359H23.835V22.092l5.934-3.066
		c0.468-0.242,0.822-0.659,0.984-1.16l3-9.25c0.341-1.051-0.235-2.179-1.285-2.52c-1.051-0.34-2.179,0.234-2.52,1.285l-2.747,8.468
		l-4.291,2.217c-0.114-0.032-0.228-0.054-0.337-0.054h-7.18c-0.552,0-0.985,0.447-0.966,1l0.294,8.733
		c-0.022,0.012-0.041,0.01-0.062,0.025c-4.828,3.201-8.013,8.684-8.013,14.909C6.647,52.553,14.652,60.556,24.523,60.556z
		 M14.877,32.355l0.161,4.779c0.219,2.533,2.343,4.339,4.852,4.326h15.414l2.877,4.831c-1.598,6.056-7.1,10.524-13.658,10.524
		c-7.807,0-14.136-6.328-14.136-14.137C10.388,38.603,12.118,34.936,14.877,32.355z"/>
	<circle cx="40.203" cy="7.444" r="4.079"/>
	<path d="M43.281,15.874c0,0.829,0.671,1.5,1.5,1.5h1.019c0.772,1.628,1.844,4.816,1.113,9.04c-0.047,0.272,0.135,0.531,0.407,0.578
		c0.029,0.005,0.058,0.007,0.086,0.007c0.239,0,0.45-0.171,0.492-0.414c0.126-0.727,0.194-1.419,0.23-2.086h3.589v2.333
		c0,0.276,0.224,0.5,0.5,0.5c0.276,0,0.5-0.224,0.5-0.5v-2.333h3.341c0.036,0.667,0.104,1.358,0.23,2.086
		c0.042,0.243,0.253,0.414,0.492,0.414c0.028,0,0.057-0.002,0.086-0.007c0.272-0.047,0.454-0.306,0.407-0.578
		c-0.728-4.211,0.344-7.408,1.116-9.04h1.264c0.829,0,1.5-0.671,1.5-1.5c0-0.829-0.671-1.5-1.5-1.5H44.781
		C43.953,14.374,43.281,15.045,43.281,15.874z M52.719,17.374h4.562c-0.287,0.66-0.583,1.498-0.817,2.482h-3.746V17.374z
		 M52.719,20.855h3.542c-0.137,0.802-0.22,1.685-0.225,2.643h-3.318V20.855z M51.719,23.499h-3.566
		c-0.005-0.958-0.088-1.841-0.225-2.643h3.791V23.499z M51.719,17.374v2.482h-3.994c-0.234-0.984-0.53-1.822-0.817-2.482H51.719z"/>
</g>
</svg>
