<?xml version="1.0" encoding="iso-8859-1"?>
<!-- Generator: Adobe Illustrator 17.1.0, SVG Export Plug-In . SVG Version: 6.00 Build 0)  -->
<!DOCTYPE svg PUBLIC "-//W3C//DTD SVG 1.1//EN" "http://www.w3.org/Graphics/SVG/1.1/DTD/svg11.dtd">
<svg version="1.1" id="Capa_1" xmlns="http://www.w3.org/2000/svg" xmlns:xlink="http://www.w3.org/1999/xlink" x="0px" y="0px"
	 viewBox="0 0 64 64" style="enable-background:new 0 0 64 64;" xml:space="preserve">
<g>
	<circle cx="17.317" cy="10.348" r="4.871"/>
	<path d="M54.584,28.111c-1.166-0.492-2.416-1.141-3.424-1.848c-0.453-0.316-0.637-0.19-0.445,0.328l0.336,0.912l-3.908,0.022
		C46.386,13.292,33.465,11.955,33.33,11.943c-0.82-0.072-1.555,0.533-1.629,1.359c-0.074,0.824,0.535,1.555,1.359,1.629
		c0.44,0.039,10.376,1.075,11.077,12.612l-6.835,0.04c-0.608-0.836-1.692-1.244-2.74-0.927l-10.5,3.188
		c-0.34,0.104-0.653,0.278-0.921,0.513L22.91,30.56V19.477c-0.458-1.07-1.641-1.82-2.879-1.82h-6.453c-1.104,0-2,0.895-2,2v14.953
		l0.043,21.795c0.027,1.672,0.502,3.248,2.1,3.688c0.266,0.072,0.532,0.107,0.795,0.107c1.318,0,2.729-0.656,2.794-3.532V39.602
		c0.424,0.293,0.919,0.447,1.418,0.447c0.585,0,1.172-0.204,1.647-0.62l5.657-4.957l9.984-3.03c0.897-0.273,1.517-1.006,1.705-1.86
		c1.791-0.011,4.144-0.024,6.42-0.038c-0.412,10.137-9.511,13.164-9.904,13.288c-0.791,0.244-1.234,1.086-0.988,1.877
		c0.199,0.643,0.793,1.055,1.432,1.055c0.148,0,0.298-0.021,0.445-0.066c0.119-0.036,11.625-3.763,12.035-16.171
		c1.65-0.01,3.061-0.018,3.902-0.022l-0.326,0.914c-0.184,0.522,0.002,0.645,0.451,0.322c1-0.717,2.24-1.379,3.401-1.887
		C55.096,28.633,55.094,28.326,54.584,28.111z"/>
</g>
</svg>
