<?xml version="1.0" encoding="iso-8859-1"?>
<!-- Generator: Adobe Illustrator 17.1.0, SVG Export Plug-In . SVG Version: 6.00 Build 0)  -->
<!DOCTYPE svg PUBLIC "-//W3C//DTD SVG 1.1//EN" "http://www.w3.org/Graphics/SVG/1.1/DTD/svg11.dtd">
<svg version="1.1" id="Capa_1" xmlns="http://www.w3.org/2000/svg" xmlns:xlink="http://www.w3.org/1999/xlink" x="0px" y="0px"
	 viewBox="0 0 64 64" style="enable-background:new 0 0 64 64;" xml:space="preserve">
<g>
	<circle cx="39" cy="36.019" r="4.824"/>
	<path d="M5.528,56.523c0,1.182,1.343,2.139,3,2.139h24.595c1.657,0,3-0.957,3-2.139c0-1.182-1.343-2.139-3-2.139h-2.367
		C30.902,54.211,31,53.994,31,53.75v-5.5c0-0.552,0.381-1.235,0.852-1.524l4.797-2.952c0.471-0.289,0.51-0.813,0.088-1.17
		l-4.973-4.208c-0.422-0.357-1.131-0.39-1.584-0.074l-6.609,4.606c-0.453,0.316-0.82,1.02-0.82,1.572v9.25
		c0,0.244,0.098,0.461,0.244,0.634H8.528C6.871,54.384,5.528,55.341,5.528,56.523z"/>
</g>
</svg>
