<?xml version="1.0" encoding="iso-8859-1"?>
<!-- Generator: Adobe Illustrator 17.1.0, SVG Export Plug-In . SVG Version: 6.00 Build 0)  -->
<!DOCTYPE svg PUBLIC "-//W3C//DTD SVG 1.1//EN" "http://www.w3.org/Graphics/SVG/1.1/DTD/svg11.dtd">
<svg version="1.1" id="Capa_1" xmlns="http://www.w3.org/2000/svg" xmlns:xlink="http://www.w3.org/1999/xlink" x="0px" y="0px"
	 viewBox="0 0 64 64" style="enable-background:new 0 0 64 64;" xml:space="preserve">
<g>
	<circle cx="19.47" cy="11.888" r="4.756"/>
	<path d="M25.523,60.243c7.101,0,13.227-4.143,16.113-10.14l1.495,2.51c0.761,1.247,2.489,1.755,3.81,0.971
		c1.32-0.783,1.707-2.441,0.971-3.808l-8.646-14.562c-0.503-0.848-1.389-1.33-2.306-1.359H24.835V22.932l14.791-2.193
		c0.741-0.11,1.318-0.616,1.567-1.27L41.844,21l2.667-4.058l13.281-7.234c0.242-0.132,0.332-0.436,0.2-0.678
		c-0.133-0.243-0.437-0.332-0.679-0.2L44.23,15.956l-4.762-0.55l0.646,1.523c-0.329-0.142-0.697-0.203-1.075-0.148l-14.205,2.107
		V18.7c-0.013-0.552-0.708-1-1.261-1h-7.18c-0.552,0-0.984,0.447-0.966,1l0.294,8.733c-0.022,0.012-0.041,0.01-0.062,0.025
		c-4.828,3.201-8.014,8.684-8.014,14.909C7.646,52.241,15.652,60.243,25.523,60.243z M15.877,32.042l0.161,4.779
		c0.219,2.533,2.343,4.339,4.852,4.326h15.414l2.877,4.831c-1.599,6.056-7.1,10.524-13.658,10.524
		c-7.807,0-14.136-6.328-14.136-14.137C11.388,38.291,13.118,34.623,15.877,32.042z"/>
</g>
</svg>
