<?xml version="1.0" encoding="iso-8859-1"?>
<!-- Generator: Adobe Illustrator 17.1.0, SVG Export Plug-In . SVG Version: 6.00 Build 0)  -->
<!DOCTYPE svg PUBLIC "-//W3C//DTD SVG 1.1//EN" "http://www.w3.org/Graphics/SVG/1.1/DTD/svg11.dtd">
<svg version="1.1" id="Capa_1" xmlns="http://www.w3.org/2000/svg" xmlns:xlink="http://www.w3.org/1999/xlink" x="0px" y="0px"
	 viewBox="0 0 64 64" style="enable-background:new 0 0 64 64;" xml:space="preserve">
<g>
	<path d="M61.061,54.622l-10.537-8.43c-0.902-0.723-2.182-0.732-3.094-0.023l-6.164,4.782c-0.027-0.099-0.047-0.198-0.087-0.296
		l-3.8-9.384v-7.706c0-1.381-1.119-2.5-2.5-2.5s-2.5,1.119-2.5,2.5v8.193c0,0.321,0.062,0.641,0.184,0.938l2.287,5.649h-9.506
		l1.318-1.905c0.381-0.552,0.461-1.258,0.212-1.88l-1.221-3.055l0.847,0.814c0.389,0.372,0.888,0.558,1.386,0.558
		c0.525,0,1.05-0.206,1.442-0.614c0.766-0.797,0.74-2.062-0.057-2.828l-6.09-5.852c-0.328-0.315-0.756-0.51-1.209-0.55l-5.372-0.474
		l0.532-1.243c0.248-0.579,0.944-1.171,1.555-1.323l6.646-1.66l12.484-0.482c0.338-0.013,0.67-0.095,0.977-0.24l11.824-5.62
		c1.247-0.593,1.777-2.084,1.185-3.331c-0.593-1.246-2.081-1.777-3.331-1.185l-11.36,5.399l-8.464,0.327l6.068-2.574
		c0.852-0.362,1.435-1.165,1.514-2.088l0.938-10.901c0.117-1.375-0.901-2.587-2.277-2.705c-1.367-0.108-2.586,0.901-2.705,2.277
		l-0.808,9.401l-8.479,3.598l-9.121,2.14c-0.602,0.183-1.34,0.776-1.648,1.324L6.932,32.12c-0.308,0.548-0.077,1.163,0.516,1.375
		l6.25,2.953c0.275,0.098,5.941,0.435,7.027,0.498c-0.491,0.549-0.666,1.343-0.375,2.073l2.412,6.029l-2.301,3.324
		c-0.06,0.087-0.105,0.179-0.148,0.271c-0.234,0.208-0.389,0.504-0.389,0.843v7.089c0,0.63,0.51,1.14,1.139,1.14h18.121
		c0.709,0.165,1.481,0.032,2.1-0.448l7.654-5.939l9,7.199c0.461,0.369,1.013,0.548,1.56,0.548c0.733,0,1.46-0.321,1.953-0.938
		C62.315,57.057,62.139,55.484,61.061,54.622z"/>
	<path d="M11.816,43.669c0.535-0.812,0.852-1.782,0.852-2.829c0-2.849-2.309-5.154-5.154-5.154c-1.604,0-3.018,0.748-3.963,1.896
		C4.413,37.938,10.008,40.348,11.816,43.669z"/>
	<path d="M12.171,47.7c-2.034,0.689-3.507,2.592-3.507,4.862c0,2.848,2.308,5.152,5.153,5.152c0.266,0,0.523-0.033,0.777-0.074
		c0,0.087,0.006,0.174,0.023,0.26c-0.249,0.234-0.979,0.33-1.475,0.304c-0.206-0.01-0.383,0.148-0.394,0.355
		c-0.011,0.203,0.149,0.381,0.355,0.393c0.231,0.012,1.176,0.032,1.799-0.339c0.218,0.358,0.477,0.628,0.536,0.687
		c0.148,0.146,0.384,0.142,0.53-0.005c0.101-0.102,0.13-0.247,0.091-0.374c-0.018-0.057-0.05-0.11-0.095-0.155
		c-0.273-0.268-0.794-0.97-0.574-1.304c0.02-0.031,0.03-0.065,0.04-0.099c-0.005,0.023-0.006,0.049-0.011,0.072
		c2.057-0.676,3.553-2.588,3.553-4.873c0-2.85-2.309-5.155-5.154-5.155c-0.309,0-0.608,0.039-0.902,0.091
		c0.647,1.204,3.178,6.234,2.53,9.767c0.003-0.124-0.05-0.247-0.162-0.322c-0.173-0.114-0.405-0.065-0.52,0.106
		c-0.019,0.029-0.03,0.059-0.045,0.088C15.349,53.725,12.595,48.479,12.171,47.7z"/>
	<path d="M3.146,38.204c0.017,0.02,0.039,0.032,0.059,0.048c-0.015-0.006-0.041-0.017-0.043-0.018
		c-0.021-0.008-0.035-0.023-0.053-0.035c-0.465,0.774-0.749,1.671-0.749,2.641c0,2.848,2.308,5.152,5.154,5.152
		c1.503,0,2.844-0.654,3.787-1.681c-1.394-3.048-6.702-5.464-7.891-5.973c0.092,0.007,0.187-0.019,0.265-0.082
		c0.16-0.132,0.183-0.368,0.052-0.528c-0.208-0.254-0.483-0.36-0.769-0.393c-0.15-0.307-0.025-1.032,0.146-1.498
		c0.071-0.194-0.028-0.41-0.223-0.481c-0.19-0.071-0.408,0.028-0.48,0.222c-0.08,0.217-0.379,1.114-0.209,1.819
		c-0.407,0.103-0.741,0.27-0.814,0.309c-0.183,0.098-0.25,0.325-0.152,0.507c0.067,0.126,0.197,0.198,0.331,0.198
		c0.06,0,0.12-0.015,0.176-0.044C2.068,38.185,2.893,37.896,3.146,38.204z"/>
</g>
</svg>
