<?xml version="1.0" encoding="iso-8859-1"?>
<!-- Generator: Adobe Illustrator 17.1.0, SVG Export Plug-In . SVG Version: 6.00 Build 0)  -->
<!DOCTYPE svg PUBLIC "-//W3C//DTD SVG 1.1//EN" "http://www.w3.org/Graphics/SVG/1.1/DTD/svg11.dtd">
<svg version="1.1" id="Capa_1" xmlns="http://www.w3.org/2000/svg" xmlns:xlink="http://www.w3.org/1999/xlink" x="0px" y="0px"
	 viewBox="0 0 64 64" style="enable-background:new 0 0 64 64;" xml:space="preserve">
<g>
	<circle cx="29.604" cy="11.25" r="7.5"/>
	<path d="M41.995,23.627l4.268,26.035c0.081,0.49,0.504,0.838,0.986,0.838c0.054,0,0.108-0.004,0.163-0.013
		c0.545-0.089,0.915-0.603,0.825-1.148l-4.359-26.591c0.547-0.526,0.848-1.285,0.758-2.08L43.147,7.599
		c-0.131-1.147-1.018-2.016-2.11-2.18l-0.3-1.83c-0.089-0.544-0.604-0.911-1.148-0.825c-0.545,0.089-0.915,0.604-0.825,1.148
		l0.333,2.03c-0.642,0.52-1.017,1.342-0.916,2.223l1.256,11.034l-2.537,0.817C36.849,20.011,36.801,20,36.75,20h-13.5
		c-0.206,0-0.401,0.04-0.589,0.098l-2.994-0.777L20.29,8.233c0.034-0.607-0.16-1.168-0.496-1.62l0.443-2.701
		c0.089-0.545-0.28-1.059-0.825-1.148c-0.547-0.09-1.059,0.28-1.148,0.825l-0.329,2.009c0,0,0,0,0,0
		c-1.379-0.081-2.559,0.978-2.636,2.355l-0.736,13.132c-0.036,0.637,0.177,1.235,0.555,1.704l-4.352,26.55
		c-0.089,0.545,0.28,1.059,0.825,1.148c0.055,0.009,0.109,0.013,0.163,0.013c0.481,0,0.905-0.348,0.986-0.838l4.242-25.874
		l4.272,1.11V34c0,0-0.225,2.207,0.5,4.597V54.75c0,0.18,0.032,0.352,0.076,0.518l-3.852,3.192
		c-0.851,0.705-0.969,1.965-0.264,2.816C18.106,61.753,18.676,62,19.251,62c0.45,0,0.902-0.151,1.275-0.46l8.75-7.25
		c0.851-0.705,0.969-1.965,0.264-2.816c-0.705-0.852-1.966-0.968-2.816-0.264l-0.974,0.807v-2.392h8v5.125
		c0,0.118,0.015,0.233,0.035,0.345l-4.061,3.365c-0.851,0.705-0.969,1.965-0.264,2.816C29.856,61.753,30.426,62,31.001,62
		c0.45,0,0.902-0.151,1.275-0.46l8.75-7.25c0.851-0.705,0.969-1.965,0.264-2.816c-0.705-0.852-1.966-0.968-2.816-0.264l-0.724,0.6
		v-3.088c0.08-0.183,0.125-0.385,0.125-0.597s-0.045-0.414-0.125-0.597V41.5c0-0.462-0.163-0.882-0.426-1.221
		c1.002-1.936,1.307-4.064,1.393-5.279h0.033v-0.738c0.002-0.169,0-0.262,0-0.262v-9.329L41.995,23.627z M25.75,46.625v-3.06
		c1.175,0.579,2.647,0.935,4.5,0.935c1.38,0,2.531-0.263,3.5-0.699v2.824H25.75z"/>
</g>
</svg>
