<?xml version="1.0" encoding="iso-8859-1"?>
<!-- Generator: Adobe Illustrator 17.1.0, SVG Export Plug-In . SVG Version: 6.00 Build 0)  -->
<!DOCTYPE svg PUBLIC "-//W3C//DTD SVG 1.1//EN" "http://www.w3.org/Graphics/SVG/1.1/DTD/svg11.dtd">
<svg version="1.1" id="Capa_1" xmlns="http://www.w3.org/2000/svg" xmlns:xlink="http://www.w3.org/1999/xlink" x="0px" y="0px"
	 viewBox="0 0 64 64" style="enable-background:new 0 0 64 64;" xml:space="preserve">
<g>
	<path d="M58.756,38.021l-5.91,4.367c-0.354,0.262-1.094,0.284-1.465,0.038l-5.178-3.414c-1.332-0.88-3.348-0.89-4.685-0.019
		l-5.303,3.441c-0.408,0.262-1.236,0.268-1.646,0.01l-5.51-3.48c-1.375-0.866-3.39-0.783-4.689,0.194l-4.28,3.224
		c-0.354,0.268-1.089,0.293-1.461,0.051l-5.302-3.438c-1.394-0.907-3.411-0.786-4.688,0.28l-5.133,4.281
		c-0.598,0.498-0.678,1.386-0.181,1.984c0.28,0.334,0.681,0.507,1.084,0.507c0.318,0,0.639-0.108,0.901-0.327l5.134-4.281
		c0.325-0.273,0.991-0.312,1.348-0.081l5.303,3.44c1.371,0.891,3.388,0.818,4.69-0.164l4.281-3.224
		c0.356-0.271,1.107-0.303,1.487-0.062l5.511,3.48c1.34,0.845,3.352,0.833,4.683-0.029l5.303-3.441c0.4-0.258,1.205-0.254,1.6,0.008
		l5.178,3.413c1.361,0.901,3.381,0.848,4.693-0.122l5.91-4.368c0.625-0.463,0.756-1.346,0.295-1.971
		C60.264,37.688,59.381,37.557,58.756,38.021z"/>
	<path d="M21.804,27.39c-4.345,0-7.867,3.523-7.867,7.866c0,0.607,0.075,1.196,0.205,1.765l4.797,3.11c0,0,0.061,0.015,0.164,0.015
		c0.122,0,0.213-0.027,0.237-0.04l4.264-3.212c1.567-1.181,4.09-1.288,5.755-0.238l0.164,0.104c0.094-0.487,0.148-0.989,0.148-1.503
		C29.67,30.912,26.148,27.39,21.804,27.39z"/>
	<path d="M34.924,40.132c0.049,0.025,0.576,0.025,0.639-0.009l5.295-3.435c1.598-1.038,4.127-1.026,5.717,0.024l5.176,3.412
		c0.016,0,0.365,0.002,0.408-0.021l4.809-3.556c-2.583-1.772-18.954-6.922-24.601-8.669c-1.055-0.326-2.148-0.375-2.444-0.118
		c-0.19,0.165-0.394,0.339-0.543,0.46c-0.279,0.225-0.559,0.456-0.823,0.696c1.561,1.66,2.524,3.888,2.524,6.341
		c0,0.783-0.104,1.54-0.288,2.268L34.924,40.132z"/>
</g>
</svg>
