<?xml version="1.0" encoding="iso-8859-1"?>
<!-- Generator: Adobe Illustrator 17.1.0, SVG Export Plug-In . SVG Version: 6.00 Build 0)  -->
<!DOCTYPE svg PUBLIC "-//W3C//DTD SVG 1.1//EN" "http://www.w3.org/Graphics/SVG/1.1/DTD/svg11.dtd">
<svg version="1.1" id="Capa_1" xmlns="http://www.w3.org/2000/svg" xmlns:xlink="http://www.w3.org/1999/xlink" x="0px" y="0px"
	 viewBox="0 0 64 64" style="enable-background:new 0 0 64 64;" xml:space="preserve">
<g>
	<circle cx="12.667" cy="42.667" r="9.333"/>
	<circle cx="29.356" cy="16.566" r="5.708"/>
	<circle cx="52" cy="42.667" r="9.333"/>
	<path d="M35.46,31.625h8.457c1.104,0,2-0.896,2-2s-0.896-2-2-2h-7.419l-2.215-3.15c-0.114-0.162-0.252-0.293-0.4-0.41
		c-0.183-0.237-0.456-0.399-0.778-0.399h-0.076c-0.251-0.049-0.511-0.05-0.766,0h-6.658c-0.552,0-1,0.448-1,1V41.94
		c-0.029,0.117-0.066,0.232-0.081,0.354c-0.205,1.645,0.961,3.144,2.605,3.349l9.333,1.166c0.127,0.016,0.252,0.023,0.376,0.023
		c1.491,0,2.783-1.11,2.973-2.628c0.205-1.645-0.961-3.144-2.605-3.349l-3.101-0.387v-9.381
		C34.471,31.427,34.951,31.625,35.46,31.625z"/>
</g>
</svg>
