<?xml version="1.0" encoding="iso-8859-1"?>
<!-- Generator: Adobe Illustrator 17.1.0, SVG Export Plug-In . SVG Version: 6.00 Build 0)  -->
<!DOCTYPE svg PUBLIC "-//W3C//DTD SVG 1.1//EN" "http://www.w3.org/Graphics/SVG/1.1/DTD/svg11.dtd">
<svg version="1.1" id="Capa_1" xmlns="http://www.w3.org/2000/svg" xmlns:xlink="http://www.w3.org/1999/xlink" x="0px" y="0px"
	 viewBox="0 0 64 64" style="enable-background:new 0 0 64 64;" xml:space="preserve">
<g>
	<path d="M60.285,37.802c-0.608,0.022-18.477,0.008-24.637,0.002L24.85,21.63c1.088-1.337,1.256-3.271,0.248-4.78l-4.459-6.669
		c-1.242-1.875-3.744-2.374-5.604-1.116c-1.863,1.23-2.366,3.757-1.115,5.607l4.457,6.666c1.071,1.612,3.085,2.191,4.804,1.517
		l9.984,14.947h-2.005h-1.432h-9.941H3.208c-0.628,0-1.073,0.223-1.285,0.583c-0.414,0.702,0.949,1.729,1.987,2.104
		c1.749,0.633,4.204,1.468,4.983,1.468h27.046l9.843,14.737c0.37,0.557,1.056,0.748,1.527,0.432
		c0.474-0.315,0.557-1.021,0.187-1.577l-9.075-13.592h15.573c1.256,0,4.53-0.888,6.72-1.854
		C62.031,39.522,62.953,37.721,60.285,37.802z"/>
</g>
</svg>
