<?xml version="1.0" encoding="iso-8859-1"?>
<!-- Generator: Adobe Illustrator 17.1.0, SVG Export Plug-In . SVG Version: 6.00 Build 0)  -->
<!DOCTYPE svg PUBLIC "-//W3C//DTD SVG 1.1//EN" "http://www.w3.org/Graphics/SVG/1.1/DTD/svg11.dtd">
<svg version="1.1" id="Capa_1" xmlns="http://www.w3.org/2000/svg" xmlns:xlink="http://www.w3.org/1999/xlink" x="0px" y="0px"
	 viewBox="0 0 64 64" style="enable-background:new 0 0 64 64;" xml:space="preserve">
<g>
	<path style="fill:#1D1D1B;" d="M31.86,13.579c-3.049,0-5.538,2.471-5.538,5.54c0,3.051,2.489,5.54,5.538,5.54
		c3.061,0,5.533-2.489,5.533-5.54C37.393,16.05,34.921,13.579,31.86,13.579z"/>
	<path style="fill:#1D1D1B;" d="M57.764,35.004h-0.938c-1.384,0-2.507,1.121-2.507,2.505v2.167h-6.326
		c-0.058-0.307-0.18-0.606-0.388-0.868l-9.542-12.062c-0.014-0.017-0.031-0.03-0.045-0.047c-0.392-0.68-1.117-1.143-1.958-1.143
		h-8.405c-0.944,0-1.752,0.578-2.093,1.398c-0.029,0.037-0.062,0.068-0.088,0.107l-8.056,12.062
		c-0.116,0.174-0.192,0.362-0.248,0.553H9.681v-2.167c0-1.384-1.123-2.505-2.506-2.505H6.236c-1.384,0-2.506,1.121-2.506,2.505
		v6.601c0,1.384,1.123,2.506,2.506,2.506h0.939c1.384,0,2.506-1.122,2.506-2.506v-2.166h8.386c0.317,0.188,0.664,0.291,1.011,0.291
		c0.36,0,0.71-0.106,1.022-0.291h5.287v2.434l-5.957-0.842c-0.758-0.109-1.522,0.138-2.076,0.667
		c-0.554,0.528-0.835,1.28-0.764,2.042l1.052,11.216c0.129,1.374,1.35,2.377,2.723,2.256c1.375-0.129,2.385-1.348,2.256-2.723
		l-0.756-8.063l9.552,1.351c0.234,0.034,0.471,0.033,0.704-0.001l9.412-1.345l-0.756,8.059c-0.129,1.375,0.881,2.594,2.256,2.723
		c0.079,0.007,0.158,0.011,0.236,0.011c1.275,0,2.364-0.972,2.486-2.267l1.052-11.216c0.071-0.763-0.211-1.516-0.765-2.044
		c-0.554-0.527-1.315-0.776-2.078-0.664l-5.637,0.805v-2.398h7.105c0.197,0.062,0.399,0.105,0.605,0.105
		c0.215,0,0.43-0.036,0.638-0.105h7.643v2.166c0,1.384,1.123,2.506,2.507,2.506h0.938c1.384,0,2.507-1.122,2.507-2.506v-6.601
		C60.271,36.125,59.148,35.004,57.764,35.004z M21.859,39.676l3.529-5.283v5.283H21.859z M38.327,39.676v-6.148l4.864,6.148H38.327z
		"/>
	<path style="fill:#1D1D1B;" d="M23.243,15.524c0.166,0,0.334-0.041,0.489-0.129c0.481-0.271,0.652-0.88,0.381-1.361
		c-1.097-1.949-4.176-3.241-4.524-3.382c-0.512-0.208-1.094,0.039-1.301,0.551c-0.208,0.511,0.038,1.094,0.549,1.303
		c0.765,0.312,2.892,1.37,3.533,2.509C22.554,15.341,22.893,15.524,23.243,15.524z"/>
	<path style="fill:#1D1D1B;" d="M20.999,22.242c-0.175,0.044-4.303,1.121-4.778,5.198c-0.064,0.549,0.329,1.046,0.877,1.109
		c0.039,0.005,0.078,0.007,0.117,0.007c0.5,0,0.933-0.375,0.992-0.884c0.314-2.691,3.161-3.461,3.282-3.492
		c0.533-0.136,0.857-0.677,0.723-1.211C22.078,22.433,21.535,22.107,20.999,22.242z"/>
	<path style="fill:#1D1D1B;" d="M45.439,11.203c-0.207-0.512-0.789-0.759-1.302-0.551c-0.348,0.141-3.427,1.433-4.523,3.382
		c-0.271,0.481-0.1,1.091,0.382,1.362c0.155,0.087,0.323,0.128,0.489,0.128c0.35,0,0.689-0.184,0.873-0.51
		c0.64-1.139,2.767-2.197,3.532-2.509C45.401,12.297,45.647,11.714,45.439,11.203z"/>
	<path style="fill:#1D1D1B;" d="M43.239,24.181c0.121,0.031,2.968,0.801,3.281,3.491c0.06,0.51,0.491,0.885,0.992,0.885
		c0.038,0,0.077-0.002,0.116-0.007c0.549-0.063,0.942-0.561,0.878-1.108c-0.475-4.078-4.603-5.155-4.778-5.199
		c-0.531-0.134-1.073,0.19-1.209,0.724S42.707,24.043,43.239,24.181z"/>
</g>
</svg>
