<?xml version="1.0" encoding="iso-8859-1"?>
<!-- Generator: Adobe Illustrator 17.1.0, SVG Export Plug-In . SVG Version: 6.00 Build 0)  -->
<!DOCTYPE svg PUBLIC "-//W3C//DTD SVG 1.1//EN" "http://www.w3.org/Graphics/SVG/1.1/DTD/svg11.dtd">
<svg version="1.1" id="Capa_1" xmlns="http://www.w3.org/2000/svg" xmlns:xlink="http://www.w3.org/1999/xlink" x="0px" y="0px"
	 viewBox="0 0 64 64" style="enable-background:new 0 0 64 64;" xml:space="preserve">
<g>
	<path d="M7.005,51.753c0.245,0.992,1.132,1.684,2.151,1.684c0.182,0,0.363-0.023,0.54-0.066c0.575-0.144,1.062-0.503,1.365-1.011
		c0.246-0.409,0.345-0.874,0.303-1.339l0.557,2.055c0.261,0.966,1.144,1.64,2.141,1.64c0.199,0,0.396-0.026,0.583-0.079
		c1.181-0.32,1.882-1.541,1.562-2.724l-3.078-11.357l2.905-0.744c-0.158,0.805-0.246,1.636-0.246,2.487
		c0,7.106,5.781,12.887,12.887,12.887c7.105,0,12.887-5.781,12.887-12.887c0-7.106-5.781-12.887-12.887-12.887
		c-1.2,0-2.357,0.177-3.46,0.485v-3.644l2.848,1.299c0.229,0.105,0.484,0.161,0.738,0.161h9.002c0.165,0,0.321-0.03,0.473-0.072
		L38.971,30l3.911-4.68l17.614-7.125c0.32-0.129,0.476-0.496,0.346-0.817c-0.134-0.324-0.496-0.478-0.816-0.347l-17.351,7.016
		l-5.863-1.368l0.436,1.479h-8.06l-4.008-1.829c-0.092-0.043-0.188-0.07-0.283-0.095c-0.076-0.039-0.159-0.065-0.25-0.066
		l-7.107-0.08c-0.17-0.003-0.319,0.075-0.423,0.193c-0.028,0.01-0.057,0.014-0.085,0.025l-6.35,2.653
		c-0.664,0.278-1.094,0.922-1.094,1.642v8.283L5.349,35.95c-1.185,0.298-1.908,1.505-1.613,2.691L7.005,51.753z M19.383,38.957
		l3.575-0.915c1.182-0.319,2.375-1.792,2.257-3.133v-1.857c1.079-0.405,2.241-0.637,3.46-0.637c5.451,0,9.887,4.435,9.887,9.887
		c0,5.452-4.435,9.887-9.887,9.887c-5.451,0-9.887-4.436-9.887-9.887C18.788,41.126,19.005,40.003,19.383,38.957z M13.146,27.785
		l3.825-1.599v6.839l-3.825,0.963V27.785z"/>
	<path d="M22.427,20.597c2.86-0.77,4.559-3.713,3.788-6.575c-0.769-2.862-3.713-4.558-6.574-3.79
		c-2.863,0.77-4.559,3.713-3.788,6.575C16.619,19.669,19.563,21.365,22.427,20.597z"/>
</g>
</svg>
