<?xml version="1.0" encoding="iso-8859-1"?>
<!-- Generator: Adobe Illustrator 17.1.0, SVG Export Plug-In . SVG Version: 6.00 Build 0)  -->
<!DOCTYPE svg PUBLIC "-//W3C//DTD SVG 1.1//EN" "http://www.w3.org/Graphics/SVG/1.1/DTD/svg11.dtd">
<svg version="1.1" id="Capa_1" xmlns="http://www.w3.org/2000/svg" xmlns:xlink="http://www.w3.org/1999/xlink" x="0px" y="0px"
	 viewBox="0 0 64 64" style="enable-background:new 0 0 64 64;" xml:space="preserve">
<g>
	<circle cx="15.475" cy="28" r="5.963"/>
	<path d="M50.961,20.615l-9.789,2.57l-0.59-3.908c-0.1-0.661-0.387-1.28-0.829-1.784l-2.404-2.744l2.583-7.481
		c0.631-1.827-0.338-3.82-2.166-4.451c-0.789-0.27-1.603-0.229-2.331,0.035c-0.22-0.325-0.511-0.609-0.881-0.807
		c-1.217-0.65-2.733-0.19-3.383,1.027l-9.433,17.66c-0.2,0.374-0.283,0.775-0.284,1.171l-0.019,0.007l0.02,0.134
		c0.008,0.143,0.03,0.284,0.062,0.423l1.507,10.342v14.859H7.833c-1.104,0-2,0.896-2,2v8.998c0,1.104,0.896,2,2,2h17.5
		c1.104,0,2-0.896,2-2v-8.998c0-0.086-0.015-0.167-0.025-0.25c0.443-0.451,0.718-1.068,0.718-1.75V31.754l7.198-2.549
		c0.272,0.508,0.653,0.954,1.145,1.279c0.577,0.379,1.246,0.576,1.924,0.576c0.297,0,0.596-0.038,0.889-0.114l13.557-3.559
		c1.87-0.491,2.987-2.404,2.497-4.274C54.744,21.243,52.83,20.126,50.961,20.615z M29.921,16.028
		c0.095,0.658,0.371,1.289,0.825,1.806l0.54,0.616l-3.273,1.15L29.921,16.028z"/>
</g>
</svg>
