<?xml version="1.0" encoding="iso-8859-1"?>
<!-- Generator: Adobe Illustrator 17.1.0, SVG Export Plug-In . SVG Version: 6.00 Build 0)  -->
<!DOCTYPE svg PUBLIC "-//W3C//DTD SVG 1.1//EN" "http://www.w3.org/Graphics/SVG/1.1/DTD/svg11.dtd">
<svg version="1.1" id="Capa_1" xmlns="http://www.w3.org/2000/svg" xmlns:xlink="http://www.w3.org/1999/xlink" x="0px" y="0px"
	 viewBox="0 0 64 64" style="enable-background:new 0 0 64 64;" xml:space="preserve">
<g>
	<circle cx="41.755" cy="14.427" r="5.963"/>
	<path d="M30.729,59.032c0.628,0.466,1.359,0.69,2.085,0.69c1.069,0,2.125-0.488,2.812-1.412l12.066-16.237
		c0.721-0.971,0.891-2.245,0.447-3.371c-0.443-1.125-1.437-1.941-2.627-2.159l-6.996-1.281l3.101-7.299
		c0.043-0.048,0.094-0.085,0.134-0.136c0.846-1.091,0.646-2.662-0.445-3.507L17.699,6.034c-1.095-0.846-2.662-0.646-3.508,0.446
		s-0.646,2.662,0.445,3.507l15.109,11.702l-6.018,13.996l0.079,0.016c-0.041,0.133-0.091,0.263-0.117,0.404
		c-0.349,1.901,0.911,3.725,2.812,4.072l12.215,2.237l-8.71,11.72C28.854,55.686,29.178,57.879,30.729,59.032z"/>
	<path d="M23.632,58.5v-14c0-1.104-0.896-2-2-2H9.75c-1.104,0-2,0.896-2,2v14c0,1.104,0.896,2,2,2h11.882
		C22.736,60.5,23.632,59.604,23.632,58.5z"/>
</g>
</svg>
