<?xml version="1.0" encoding="iso-8859-1"?>
<!-- Generator: Adobe Illustrator 17.1.0, SVG Export Plug-In . SVG Version: 6.00 Build 0)  -->
<!DOCTYPE svg PUBLIC "-//W3C//DTD SVG 1.1//EN" "http://www.w3.org/Graphics/SVG/1.1/DTD/svg11.dtd">
<svg version="1.1" id="Capa_1" xmlns="http://www.w3.org/2000/svg" xmlns:xlink="http://www.w3.org/1999/xlink" x="0px" y="0px"
	 viewBox="0 0 64 64" style="enable-background:new 0 0 64 64;" xml:space="preserve">
<g>
	<path d="M16.385,44.299c0.293,0.863,1.013,1.453,1.843,1.633l0.002,0.02h0.082c0.144,0.026,0.291,0.043,0.44,0.043
		c0.146,0,0.294-0.016,0.442-0.043h5.952c1.104,0,2.068-0.893,2.152-1.994l0.768-10.068l5.835-8.509l2.942-2.746l9.757,10.16
		c0.59,0.613,1.376,0.922,2.164,0.922c0.748,0,1.496-0.278,2.078-0.837c1.195-1.147,1.233-3.046,0.086-4.242l-1.024-1.066
		c0.489-1.084,0.307-2.4-0.567-3.311L37.532,11.967c-1.136-1.181-3.013-1.234-4.211-0.115l-7.302,6.816
		c-0.337,0.314-0.575,0.69-0.734,1.092l-7.662,12.667l-1.749-5.138c-0.208-0.613-0.647-1.122-1.224-1.418l-8.763-4.502
		c-1.227-0.631-2.735-0.147-3.366,1.081c-0.631,1.228-0.147,2.735,1.081,3.366l7.864,4.041L16.385,44.299z"/>
	<circle cx="22.104" cy="53.266" r="5.963"/>
	<path d="M55.667,3.968c-0.553,0-1,0.448-1,1V59.5c0,0.553,0.447,1,1,1h2.166c0.553,0,1-0.447,1-1V4.968c0-0.552-0.447-1-1-1H55.667
		z"/>
	<path d="M43.076,7.166c0.535,0.144,1.081-0.176,1.223-0.709c0.143-0.533-0.175-1.081-0.708-1.223
		c-0.197-0.052-19.85-5.108-28.306,8.841c-0.286,0.473-0.135,1.087,0.337,1.373c0.162,0.099,0.341,0.145,0.518,0.145
		c0.338,0,0.668-0.171,0.857-0.482C24.669,2.451,42.893,7.118,43.076,7.166z"/>
	<path d="M26.88,12.021c0.537-0.124,0.874-0.66,0.751-1.198c-0.123-0.538-0.658-0.877-1.194-0.753
		c-0.105,0.023-10.472,2.487-9.178,12.279c0.066,0.503,0.496,0.869,0.99,0.869c0.043,0,0.088-0.003,0.132-0.009
		c0.548-0.072,0.933-0.575,0.86-1.122C18.188,14.117,26.524,12.102,26.88,12.021z"/>
</g>
</svg>
