<?xml version="1.0" encoding="iso-8859-1"?>
<!-- Generator: Adobe Illustrator 17.1.0, SVG Export Plug-In . SVG Version: 6.00 Build 0)  -->
<!DOCTYPE svg PUBLIC "-//W3C//DTD SVG 1.1//EN" "http://www.w3.org/Graphics/SVG/1.1/DTD/svg11.dtd">
<svg version="1.1" id="Capa_1" xmlns="http://www.w3.org/2000/svg" xmlns:xlink="http://www.w3.org/1999/xlink" x="0px" y="0px"
	 viewBox="0 0 64 64" style="enable-background:new 0 0 64 64;" xml:space="preserve">
<g>
	<path d="M28.354,24.602l-0.111,0.031c-1.086,0.448-1.613,1.694-1.171,2.798c0.392,0.972,1.424,1.498,2.437,1.283l7.585-2.221
		c0.301-0.117,0.565-0.313,0.767-0.54l1.989-2.529l4.014,6.992l-6.304,2.802c-0.792,0.369-1.357,1.106-1.522,1.952l-1.391,8.814
		c-0.027,0.238-0.027,0.491,0.011,0.743c0.228,1.472,1.608,2.492,3.092,2.277c1.143-0.181,2.014-1.032,2.241-2.101l1.143-7.297
		l7.052-3.08l-0.031,7.469c0,0.117,0.011,0.25,0.024,0.368c0.029,0.264,0.117,0.506,0.213,0.729l4.591,9.831
		c0.529,0.972,1.625,1.561,2.781,1.377c1.484-0.229,2.503-1.602,2.276-3.089c-0.048-0.324-0.152-0.637-0.3-0.9l-4.173-8.992
		l0.196-12.082c0-0.264-0.026-0.523-0.061-0.785c-0.086-0.529-0.241-1.021-0.455-1.47l-7.112-11.661
		c-0.661-0.885-1.967-1.146-2.917-0.583l-3.307,1.96l-4.965,5.958L28.354,24.602z"/>
	<path d="M44.404,10.573c0-2.241-1.822-4.063-4.065-4.063c-2.239,0-4.061,1.822-4.061,4.063c0,2.244,1.822,4.067,4.061,4.067
		C42.581,14.641,44.404,12.817,44.404,10.573z"/>
	<path d="M22.865,26.014c2.133-0.759,3.228-3.104,2.474-5.215c-0.768-2.125-3.102-3.238-5.231-2.469
		c-2.13,0.749-3.221,3.104-2.472,5.23C18.399,25.669,20.742,26.781,22.865,26.014z"/>
	<path d="M7.181,36.125c-1.048,1.068-1.443,2.554-1.167,3.919c0.034,0.275,0.12,0.544,0.25,0.793
		c0.004,0.017,0.024,0.028,0.028,0.044c0.076,0.161,0.136,0.335,0.253,0.468l0.005,0.016c0.176,0.323,0.408,0.632,0.672,0.898
		c0.064,0.054,0.125,0.09,0.189,0.143l3.491,4.241l-3.355,7.422c-0.583,1.285-0.015,2.793,1.287,3.379
		c1.276,0.586,2.794,0.016,3.366-1.275l4.018-8.855c0.054-0.133,0.049-0.25,0.085-0.372c0.057-0.185,0.116-0.354,0.122-0.534
		c0.001-0.172-0.023-0.328-0.046-0.493c-0.023-0.157-0.032-0.327-0.085-0.475c-0.062-0.173-0.168-0.325-0.253-0.491l-0.005-0.017
		c1.586,0.651,3.088,1.281,3.813,1.58c0.463,1.977,2.212,9.489,2.215,9.506c0.341,1.352,1.68,2.185,3.055,1.873
		c1.37-0.337,2.23-1.701,1.919-3.075l-2.512-10.75c-0.188-0.808-0.74-1.473-1.521-1.789l-6.902-2.852l6.053-6.222l9.45,6.349
		c0.912,0.627,2.149,0.384,2.77-0.542c0.623-0.926,0.372-2.163-0.542-2.771c0,0-13.903-9.395-14.114-9.461
		c-1.611-0.757-2.194-0.916-3.521,0.435L7.181,36.125z"/>
</g>
</svg>
