<?xml version="1.0" encoding="iso-8859-1"?>
<!-- Generator: Adobe Illustrator 17.1.0, SVG Export Plug-In . SVG Version: 6.00 Build 0)  -->
<!DOCTYPE svg PUBLIC "-//W3C//DTD SVG 1.1//EN" "http://www.w3.org/Graphics/SVG/1.1/DTD/svg11.dtd">
<svg version="1.1" id="Capa_1" xmlns="http://www.w3.org/2000/svg" xmlns:xlink="http://www.w3.org/1999/xlink" x="0px" y="0px"
	 viewBox="0 0 64 64" style="enable-background:new 0 0 64 64;" xml:space="preserve">
<g>
	<circle cx="24.716" cy="13.597" r="4.853"/>
	<path d="M30.732,23.744l5.206-2.949l8.846,3.13c0.275,0.098,0.558,0.144,0.834,0.144c1.029,0,1.994-0.642,2.356-1.667
		c0.461-1.302-0.221-2.73-1.523-3.19l-9.92-3.511c-0.682-0.242-1.436-0.177-2.066,0.182l-6.198,3.511
		c-0.177,0.101-0.332,0.224-0.474,0.356h-3.713h-3.497H7.25c-1.381,0-2.5,1.119-2.5,2.5c0,0.826,0.405,1.552,1.023,2.007
		c-0.488,0.084-0.94,0.228-1.298,0.477c-0.454,0.314-0.516,0.943-0.099,1.306c0.775,0.675,2.146,0.58,3.88,0.539
		c1.721-0.04,3.083,0.089,3.862-0.557c0.425-0.353,0.366-0.962-0.094-1.268c-0.003-0.002-0.006-0.003-0.009-0.005h8.57v11.019h0.095
		l0.69,6.634l-6.308,11.482c-0.798,1.452-0.267,3.276,1.185,4.074c0.458,0.251,0.953,0.371,1.441,0.371
		c1.06,0,2.086-0.562,2.632-1.557l6.759-12.305c0.294-0.535,0.417-1.148,0.354-1.755l-0.328-3.146l2.648,5.399l-6.863,10.479
		c-0.908,1.386-0.52,3.245,0.866,4.153c0.507,0.332,1.077,0.49,1.641,0.49c0.978,0,1.937-0.477,2.512-1.356l7.8-11.909
		c0.58-0.887,0.65-2.014,0.184-2.965l-5.72-11.661c-0.014-0.029-0.035-0.052-0.05-0.08v-8.141
		C30.332,23.925,30.537,23.854,30.732,23.744z"/>
	<path d="M7.955,35.063c0.082,0.221,2.095,5.411,9.951,5.411c0.003,0,0.007,0,0.01,0c0.552,0,1-0.448,1-1.001
		c0-0.552-0.448-0.999-1-0.999h0c-0.004,0-0.005,0-0.008,0c-6.401,0-8.011-3.94-8.079-4.113c-0.195-0.514-0.768-0.775-1.283-0.583
		C8.027,33.97,7.763,34.546,7.955,35.063z"/>
	<path d="M14.921,36.732c0.128,0.055,0.26,0.08,0.391,0.08c0.389,0,0.759-0.229,0.921-0.609c0.216-0.508-0.021-1.095-0.529-1.31
		c-4.415-1.876-5.19-5.504-5.222-5.663c-0.104-0.541-0.625-0.898-1.167-0.793c-0.543,0.102-0.9,0.625-0.798,1.167
		C8.554,29.8,9.482,34.422,14.921,36.732z"/>
	<path d="M37.56,35.25h9.69c0.553,0,1-0.447,1-1c0-0.553-0.447-1-1-1h-9.69c-0.553,0-1,0.447-1,1
		C36.56,34.803,37.007,35.25,37.56,35.25z"/>
	<path d="M40.06,38.625h12.69c0.553,0,1-0.447,1-1c0-0.553-0.447-1-1-1H40.06c-0.553,0-1,0.447-1,1
		C39.06,38.178,39.507,38.625,40.06,38.625z"/>
</g>
</svg>
