<?xml version="1.0" encoding="iso-8859-1"?>
<!-- Generator: Adobe Illustrator 17.1.0, SVG Export Plug-In . SVG Version: 6.00 Build 0)  -->
<!DOCTYPE svg PUBLIC "-//W3C//DTD SVG 1.1//EN" "http://www.w3.org/Graphics/SVG/1.1/DTD/svg11.dtd">
<svg version="1.1" id="Capa_1" xmlns="http://www.w3.org/2000/svg" xmlns:xlink="http://www.w3.org/1999/xlink" x="0px" y="0px"
	 viewBox="0 0 64 64" style="enable-background:new 0 0 64 64;" xml:space="preserve">
<g>
	<circle cx="36.53" cy="23.724" r="3.98"/>
	<path d="M6.253,54.999C6.47,55.615,7.049,56,7.667,56c0.166,0,0.334-0.028,0.499-0.086c0.781-0.276,1.191-1.132,0.915-1.914
		c-1.357-3.848-0.184-8.087,0.446-9.876h24.402c0.632,1.783,1.807,6.008,0.443,9.876c-0.276,0.781,0.134,1.638,0.915,1.914
		C35.452,55.973,35.62,56,35.786,56c0.618,0,1.197-0.385,1.414-1.002c1.453-4.116,0.629-8.395-0.117-10.874h2.426
		c0.828,0,1.5-0.671,1.5-1.5v-3.972c0-0.829-0.672-1.5-1.5-1.5h-2.472l0.624-1.069h6.312l2.434,2.69l-4.525,5.597
		c-0.359,0.445-0.556,1-0.556,1.572v10.281c0,1.381,1.119,2.5,2.5,2.5c1.381,0,2.5-1.119,2.5-2.5v-9.396l4.451-5.506
		c0.189-0.232,0.318-0.491,0.41-0.758l5.183,16.122c0.341,1.06,1.322,1.735,2.379,1.735c0.254,0,0.512-0.039,0.766-0.121
		c1.315-0.422,2.038-1.831,1.615-3.145l-5.97-18.571c-0.058-0.18-0.141-0.344-0.234-0.5h1.575c0.276,0,0.5-0.224,0.5-0.5
		s-0.224-0.5-0.5-0.5h-2.524l-7.314-7.039h5.17l5.369,6.562c0.396,0.483,0.97,0.733,1.549,0.733c0.445,0,0.893-0.148,1.266-0.452
		c0.854-0.699,0.98-1.959,0.281-2.814l-5.97-7.296c-0.38-0.464-0.948-0.733-1.548-0.733h-8.954c-0.374,0-0.721,0.109-1.02,0.289
		l-0.001-0.002l-0.007,0.005c-0.18,0.109-0.339,0.245-0.477,0.403l-4.531,3.831c-0.335,0.168-0.628,0.43-0.831,0.777l-2.903,4.977
		H26.25c-0.632,0-1.19,0.299-1.556,0.758h-6.86c-0.276,0-0.5,0.224-0.5,0.5s0.224,0.5,0.5,0.5h6.44
		c-0.01,0.08-0.024,0.159-0.024,0.242c0,0.296,0.068,0.574,0.183,0.827H5.083c-0.828,0-1.5,0.671-1.5,1.5v3.972
		c0,0.829,0.672,1.5,1.5,1.5H6.37C5.624,46.604,4.8,50.883,6.253,54.999z M40.136,31.842l2.933,3.242h-4.824L40.136,31.842z"/>
</g>
</svg>
