<?xml version="1.0" encoding="iso-8859-1"?>
<!-- Generator: Adobe Illustrator 17.1.0, SVG Export Plug-In . SVG Version: 6.00 Build 0)  -->
<!DOCTYPE svg PUBLIC "-//W3C//DTD SVG 1.1//EN" "http://www.w3.org/Graphics/SVG/1.1/DTD/svg11.dtd">
<svg version="1.1" id="Capa_1" xmlns="http://www.w3.org/2000/svg" xmlns:xlink="http://www.w3.org/1999/xlink" x="0px" y="0px"
	 viewBox="0 0 64 64" style="enable-background:new 0 0 64 64;" xml:space="preserve">
<path d="M59.484,42.035c-0.15-2.196-0.571-4.14-1.251-5.791l0.527-2.883c0.231-1.263-0.104-2.38-0.919-3.066
	c-0.815-0.686-1.975-0.825-3.178-0.382l-2.911,1.07c-2.698-0.449-7.392-0.413-11.362,3.818c-2.843,3.029-5.267,5.378-9.031,6.61
	c-0.154-0.379-0.438-0.73-0.776-0.892l-3.744-1.796c-0.498-0.239-0.927-0.879-0.959-1.431l-0.686-4.743l8.981,0.916
	c0.069,0.007,0.137,0.01,0.205,0.01c1.013,0,1.882-0.767,1.987-1.797c0.112-1.099-0.688-2.081-1.787-2.192l-8.035-0.819
	l-1.734-4.264c-0.366-0.9-1.313-1.387-2.233-1.208c-0.01,0.002-0.02-0.001-0.03,0.002l-5.358,1.531
	c-0.531,0.152-0.896,0.718-0.815,1.264l2.374,16.002C5.717,40.652,3.169,46.127,2.92,46.764c-0.068,0.174-0.103,0.36-0.103,0.547
	v7.307c0,0.829,0.671,1.5,1.5,1.5c0.829,0,1.5-0.671,1.5-1.5v-6.912c0.566-0.804,3.356-3.78,13.052-2.683
	c2.73,0.31,5.084,0.393,7.171,0.295l-0.081,7.212c-0.019,1.657,1.214,3,2.752,3c1.539,0,2.785-1.343,2.783-3l-0.007-8.042
	c4.754-1.331,7.766-4.092,11.089-7.633c3.037-3.235,6.578-3.337,9.014-2.852c0.27,0.054,0.55,0.032,0.81-0.063l3.297-1.211
	c0.048-0.018,0.092-0.031,0.13-0.042c-0.003,0.04-0.009,0.084-0.018,0.135l-0.589,3.221c-0.084,0.329-0.056,0.681,0.088,0.996
	c0.673,1.475,1.077,3.314,1.199,5.464c0.011,0.192,0.059,0.381,0.142,0.556c0,0,0.653,1.381,1.187,2.455
	c0.303,0.612,0.368,1.07,0.384,1.223c-0.199,0.012-0.611-0.056-1.109-0.367l-0.186-0.117c-1.092-0.69-2.061-1.274-2.86-1.433
	c-0.516-0.102-1.079-0.125-1.624-0.146c-1.726-0.069-2.39-0.218-2.675-0.92c-0.247-0.614-0.869-0.99-1.53-0.931
	c-0.66,0.062-1.201,0.55-1.331,1.199c-0.033,0.163-0.792,4.03-0.156,7.329c0.157,0.813,0.942,1.344,1.757,1.189
	c0.813-0.157,1.346-0.943,1.189-1.757c-0.222-1.149-0.229-2.427-0.164-3.521c0.979,0.336,2.012,0.378,2.791,0.409
	c0.449,0.018,0.874,0.035,1.154,0.09c0.361,0.088,1.441,0.771,1.847,1.027l0.195,0.123c1.792,1.12,3.805,1.09,4.893-0.072
	c1.005-1.07,1.047-2.767,0.113-4.657C60.141,43.411,59.695,42.479,59.484,42.035z"/>
<path d="M10.622,20.083c0.974,0.724,2.623,0.565,3.684-0.352l0.154-0.133c0.805,1.36,2.271,2.282,3.965,2.282
	c2.553,0,4.623-2.07,4.623-4.623c0-1.455-0.686-2.737-1.737-3.584l0.082-0.07c1.062-0.918,1.644-2.69,1.3-3.958
	c-0.343-1.269-1.482-1.553-2.543-0.635l-2.243,1.939l-3.16-0.675c-1.371-0.294-2.409,0.604-2.316,2.003l0.213,3.224l-1.862,1.61
	C9.719,18.028,9.648,19.359,10.622,20.083z"/>
</svg>
