<?xml version="1.0" encoding="iso-8859-1"?>
<!-- Generator: Adobe Illustrator 17.1.0, SVG Export Plug-In . SVG Version: 6.00 Build 0)  -->
<!DOCTYPE svg PUBLIC "-//W3C//DTD SVG 1.1//EN" "http://www.w3.org/Graphics/SVG/1.1/DTD/svg11.dtd">
<svg version="1.1" id="Capa_1" xmlns="http://www.w3.org/2000/svg" xmlns:xlink="http://www.w3.org/1999/xlink" x="0px" y="0px"
	 viewBox="0 0 64 64" style="enable-background:new 0 0 64 64;" xml:space="preserve">
<g>
	<circle cx="40.474" cy="26.396" r="4.768"/>
	<path d="M17.049,46.019c1.034,0.065,1.992-0.543,2.374-1.505l2.375-5.976l4.682,5.348l-1.613,9.492
		c-0.636,1.16-0.212,2.617,0.948,3.253c1.16,0.636,2.616,0.211,3.253-0.949l2.419-10.961c0.483-0.882,0.364-1.973-0.298-2.73
		l-4.45-5.083l5.069-2.72l2.019,4.818c0.213,0.508,0.589,0.918,1.058,1.176c0.21,0.115,0.439,0.2,0.682,0.248l7.846,1.572
		c1.297,0.26,2.561-0.581,2.82-1.878c0.262-1.297-0.583-2.56-1.879-2.819l-6.599-1.322l-3.44-8.21
		c-0.011-0.025-0.026-0.044-0.037-0.068c-0.037-0.081-0.08-0.155-0.125-0.23c-0.037-0.062-0.073-0.125-0.115-0.183
		c-0.046-0.064-0.1-0.122-0.153-0.183c-0.052-0.059-0.104-0.118-0.161-0.17c-0.054-0.049-0.111-0.092-0.169-0.136
		c-0.068-0.053-0.138-0.104-0.212-0.149c-0.023-0.014-0.041-0.032-0.065-0.045l-8.503-4.77l-3.857-7.308
		c-0.617-1.169-2.069-1.618-3.236-1c-1.17,0.618-1.618,2.066-1.001,3.237l4.188,7.932c0.215,0.408,0.544,0.744,0.946,0.97
		l4.501,2.525l-6.819,3.93l0.032,0.025c-0.027,0.022-0.058,0.036-0.085,0.06c-0.021,0.019-0.036,0.042-0.057,0.061
		c-0.061,0.057-0.116,0.119-0.171,0.184c-0.051,0.06-0.103,0.119-0.147,0.183c-0.041,0.057-0.076,0.119-0.111,0.181
		c-0.046,0.079-0.09,0.159-0.126,0.243c-0.01,0.023-0.025,0.043-0.035,0.067l-3.182,8.003l-9.498-0.588
		c-1.319-0.082-2.457,0.922-2.538,2.242c-0.06,0.958,0.452,1.818,1.24,2.25c0.3,0.165,0.639,0.268,1.003,0.29L17.049,46.019z"/>
	<path d="M51.527,45.108c-3.652,0-6.613,2.96-6.613,6.613c0,3.652,2.96,6.612,6.613,6.612c3.652,0,6.613-2.961,6.613-6.612
		C58.14,48.068,55.18,45.108,51.527,45.108z M47.517,49.216c0-0.427,0.345-0.772,0.771-0.772c0.426,0,0.772,0.345,0.772,0.772
		c0,0.426-0.346,0.771-0.772,0.771C47.862,49.987,47.517,49.642,47.517,49.216z M49.469,51.878c-0.426,0-0.771-0.345-0.771-0.771
		c0-0.427,0.346-0.772,0.771-0.772c0.426,0,0.772,0.345,0.772,0.772C50.241,51.533,49.895,51.878,49.469,51.878z M50.756,49.987
		c-0.426,0-0.772-0.345-0.772-0.771c0-0.427,0.346-0.772,0.772-0.772c0.426,0,0.771,0.345,0.771,0.772
		C51.527,49.642,51.182,49.987,50.756,49.987z"/>
	<path d="M37.141,50.549c-0.042-0.272-0.298-0.461-0.57-0.418c-0.273,0.042-0.46,0.296-0.419,0.568
		c0.01,0.065,1.065,6.522,8.037,8.121c0.038,0.009,0.075,0.013,0.112,0.013c0.228,0,0.434-0.157,0.487-0.388
		c0.062-0.269-0.107-0.538-0.375-0.599c-0.292-0.067-0.56-0.151-0.829-0.235c-4.343-1.353-5.814-4.775-6.261-6.306
		C37.199,50.883,37.149,50.598,37.141,50.549z"/>
	<path d="M41.5,54.375c0.201,0,0.39-0.122,0.467-0.32c0.099-0.258-0.03-0.547-0.287-0.646c-0.195-0.075-0.377-0.173-0.549-0.285
		c-1.587-1.031-2.227-3.49-2.477-5.042c-0.126-0.784-0.154-1.335-0.154-1.353c-0.012-0.276-0.244-0.471-0.521-0.478
		c-0.276,0.012-0.49,0.245-0.478,0.521c0.011,0.253,0.304,6.218,3.82,7.57C41.379,54.364,41.44,54.375,41.5,54.375z"/>
</g>
</svg>
