<?xml version="1.0" encoding="iso-8859-1"?>
<!-- Generator: Adobe Illustrator 17.1.0, SVG Export Plug-In . SVG Version: 6.00 Build 0)  -->
<!DOCTYPE svg PUBLIC "-//W3C//DTD SVG 1.1//EN" "http://www.w3.org/Graphics/SVG/1.1/DTD/svg11.dtd">
<svg version="1.1" id="Capa_1" xmlns="http://www.w3.org/2000/svg" xmlns:xlink="http://www.w3.org/1999/xlink" x="0px" y="0px"
	 viewBox="0 0 64 64" style="enable-background:new 0 0 64 64;" xml:space="preserve">
<g>
	<path d="M53.468,44.703c-0.756-1.482-2.653-2.643-4.317-2.643h-1.287c-1.243,0-3.004-0.771-3.849-1.684L33.426,28.917
		c0.239-0.181,0.403-0.456,0.403-0.784l-0.006-12.996l4.012-4.013c0.344-0.362,0.325-0.936-0.036-1.279
		c-0.361-0.35-0.931-0.332-1.275,0.029l-3.785,3.808h-2.585l-3.67-3.655c-0.343-0.361-0.917-0.379-1.278-0.029
		c-0.362,0.343-0.38,0.917-0.036,1.279l3.867,3.86v12.996c0,0.291,0.127,0.547,0.323,0.728c-0.063,0.096-0.135,0.179-0.19,0.285
		l-10.09,19.659c-0.337,0.655-1.007,1.062-1.748,1.062c-0.303,0-0.596-0.068-0.869-0.205l-3.547-1.773
		c-0.452-0.225-0.958-0.345-1.468-0.345c-1.223,0-2.344,0.658-2.925,1.716l-4.148,7.556c-0.274,0.501-0.294,1.024-0.05,1.435
		c0.243,0.41,0.711,0.647,1.282,0.647h52.767c0.567,0,1.037-0.234,1.288-0.644c0.25-0.408,0.246-0.934-0.013-1.438L53.468,44.703z
		 M49.151,43.347c1.182,0,2.633,0.89,3.171,1.941l2.812,5.51l-0.841-0.265c-0.678-0.214-1.227,0.113-1.227,0.728
		c0,0.617-0.337,0.649-0.753,0.072l-0.104-0.144c-0.414-0.575-0.968-1.044-1.234-1.044c-0.267,0-0.664-0.473-0.885-1.055
		c-0.222-0.583-0.654-0.84-0.965-0.573c-0.311,0.267-0.563-0.093-0.563-0.805V47.23c0-0.711-0.504-1.287-1.125-1.287
		c-0.622,0-1.004-0.562-0.853-1.257c0,0,0.103-0.465,0.227-1.036c0.032-0.145,0.037-0.288,0.022-0.422
		c0.356,0.071,0.706,0.118,1.033,0.118H49.151z M31.833,23.265l0.006,4.532c-0.183-0.048-0.368-0.079-0.554-0.079
		c-0.089,0-0.172,0.028-0.258,0.039v-4.493H31.833z M30.315,29.736c0.429-0.835,1.244-0.942,1.877-0.257L43.07,41.25
		c0.558,0.603,1.386,1.137,2.276,1.517c-0.132,0.151-0.252,0.328-0.331,0.554l-2.781,7.845c-0.237,0.671-0.823,0.793-1.309,0.273
		l-0.332-0.354c-0.486-0.519-1.167-1.438-1.521-2.055l-0.487-0.846c-0.355-0.616-0.93-0.863-1.285-0.552
		c-0.356,0.311-0.824,0.016-1.046-0.659l-0.803-2.442c-0.222-0.677-0.766-0.775-1.214-0.225l-1.434,1.765
		c-0.448,0.551-0.811,0.422-0.811-0.288v-2.735c0-0.711-0.428-0.902-0.957-0.426l-1.304,1.174c-0.53,0.476-0.869,0.291-0.759-0.411
		l0.731-4.695c0.109-0.703-0.24-0.897-0.78-0.434l-0.297,0.256c-0.54,0.461-0.875,0.269-0.747-0.43l1.012-5.569L30.315,29.736z
		 M12.341,49.042l3.547,1.773c0.453,0.226,0.94,0.341,1.445,0.341c0.255,0,0.502-0.036,0.742-0.091
		c-0.049,0.136-0.081,0.275-0.081,0.414v1.062c0,0.71-0.572,1.354-1.277,1.437l-0.179,0.021c-0.705,0.084-1.602,0.512-2.002,0.955
		c-0.399,0.445-1.232,0.533-1.859,0.198l-0.142-0.074c-0.628-0.335-1.712-0.607-2.423-0.607c-0.71,0-1.142-0.557-0.962-1.245
		l0.932-3.57c0.032-0.122,0.046-0.231,0.053-0.333c0.363-0.303,0.819-0.489,1.314-0.489C11.763,48.832,12.063,48.902,12.341,49.042z
		"/>
	<path d="M31.419,13.288c0.98,0,1.774-0.795,1.774-1.774c0-0.974-0.794-1.769-1.774-1.769c-0.974,0-1.765,0.794-1.765,1.769
		C29.653,12.493,30.445,13.288,31.419,13.288z"/>
</g>
</svg>
