<?xml version="1.0" encoding="iso-8859-1"?>
<!-- Generator: Adobe Illustrator 17.1.0, SVG Export Plug-In . SVG Version: 6.00 Build 0)  -->
<!DOCTYPE svg PUBLIC "-//W3C//DTD SVG 1.1//EN" "http://www.w3.org/Graphics/SVG/1.1/DTD/svg11.dtd">
<svg version="1.1" id="Capa_1" xmlns="http://www.w3.org/2000/svg" xmlns:xlink="http://www.w3.org/1999/xlink" x="0px" y="0px"
	 viewBox="0 0 64 64" style="enable-background:new 0 0 64 64;" xml:space="preserve">
<g>
	<path d="M60.903,32.755H45.935v-7.421c0-0.553-0.447-1-1-1c-0.553,0-1,0.447-1,1v7.421H28.966c-0.768,0-1.392,0.623-1.392,1.392
		v3.685c0,0.769,0.624,1.392,1.392,1.392h3.95v16.809c0,0.553,0.447,1,1,1h3.387c0.553,0,1-0.447,1-1V39.224h22.601
		c0.769,0,1.392-0.623,1.392-1.392v-3.685C62.295,33.378,61.672,32.755,60.903,32.755z"/>
	<path d="M8.078,56.527l8.701-6.105c0.707-0.497,1.143-1.294,1.182-2.158l0.338-7.818l5.796,4.962v8.842
		c0,1.537,1.246,2.783,2.783,2.783c1.536,0,2.782-1.246,2.782-2.783V44.127c0-0.812-0.354-1.586-0.973-2.114l-7.287-6.24v-4.688
		l2.612-0.12c0.332-0.015,0.652-0.118,0.93-0.3l4.223-2.756l1.617,0.506c0.185,0.057,0.37,0.085,0.555,0.085
		c0.79,0,1.521-0.509,1.769-1.303c0.186-0.594,0.055-1.208-0.293-1.669l1.738-1.135c0.858-0.56,1.099-1.71,0.539-2.567
		c-0.072-0.111-0.155-0.21-0.245-0.3l0.19-0.688c0.072-0.256-0.023-0.521-0.22-0.678c0.212-0.42,0.749-0.715,0.754-0.719
		l0.002-0.001c1.081,0.049,2.094-0.65,2.393-1.736l0.251-0.906c0.348-1.26-0.394-2.569-1.654-2.918l-1.247-0.345
		c-1.261-0.349-2.57,0.393-2.919,1.654l-0.251,0.906c-0.289,1.047,0.175,2.126,1.062,2.661l0.021,0.038
		c0.004,0.005,0.331,0.565,0.274,1.044c-0.212,0.058-0.393,0.222-0.455,0.45l-0.234,0.846c-0.099,0.042-0.198,0.09-0.292,0.151
		l-3.921,2.56l-5.255-1.642c-0.179-0.057-0.365-0.085-0.553-0.085H21.4v-0.005h-5.683c-1.536,0-2.782,1.245-2.782,2.783v11.677h0.01
		c-0.035,0.159-0.065,0.322-0.072,0.491l-0.413,9.588l-7.579,5.317c-1.258,0.883-1.561,2.619-0.679,3.877
		c0.541,0.771,1.404,1.185,2.28,1.185C7.034,57.032,7.592,56.868,8.078,56.527z M21.4,25.83h1.11l2.064,0.646l-1.235,0.806
		L21.4,27.369V25.83z"/>
	<circle cx="17.168" cy="17.109" r="4.137"/>
</g>
</svg>
