<?xml version="1.0" encoding="iso-8859-1"?>
<!-- Generator: Adobe Illustrator 17.1.0, SVG Export Plug-In . SVG Version: 6.00 Build 0)  -->
<!DOCTYPE svg PUBLIC "-//W3C//DTD SVG 1.1//EN" "http://www.w3.org/Graphics/SVG/1.1/DTD/svg11.dtd">
<svg version="1.1" id="Capa_1" xmlns="http://www.w3.org/2000/svg" xmlns:xlink="http://www.w3.org/1999/xlink" x="0px" y="0px"
	 viewBox="0 0 64 64" style="enable-background:new 0 0 64 64;" xml:space="preserve">
<g>
	<path d="M47.566,6.852l-6.713-1.856c-6.787-1.876-13.836,2.119-15.712,8.906l-1.349,4.878c-1.559,5.638,0.941,11.445,5.721,14.33
		l0.117,0.199c0.019,0.031,1.778,3.046,1.477,5.624c-1.147,0.311-2.112,1.191-2.452,2.42l-3.287,11.889
		c-0.512,1.851,0.578,3.773,2.429,4.285l3.987,1.103c1.851,0.511,3.772-0.578,4.284-2.429l3.287-11.889
		c0.383-1.384-0.13-2.807-1.186-3.649c1.141-2.264,4.029-3.854,4.061-3.87l0.009-0.005c5.816,0.263,11.268-3.502,12.884-9.345
		l1.349-4.879C58.349,15.776,54.354,8.729,47.566,6.852z"/>
	<circle cx="18.376" cy="40.083" r="5.25"/>
</g>
</svg>
