<?xml version="1.0" encoding="iso-8859-1"?>
<!-- Generator: Adobe Illustrator 17.1.0, SVG Export Plug-In . SVG Version: 6.00 Build 0)  -->
<!DOCTYPE svg PUBLIC "-//W3C//DTD SVG 1.1//EN" "http://www.w3.org/Graphics/SVG/1.1/DTD/svg11.dtd">
<svg version="1.1" id="Capa_1" xmlns="http://www.w3.org/2000/svg" xmlns:xlink="http://www.w3.org/1999/xlink" x="0px" y="0px"
	 viewBox="0 0 64 64" style="enable-background:new 0 0 64 64;" xml:space="preserve">
<path d="M51.737,35.55c0.368,0.015,0.716,0.028,0.985,0.082c0.355,0.068,1.173,0.584,1.612,0.861l0.154,0.097
	c1.062,0.665,2.312,0.699,2.921,0.051c0.563-0.601,0.555-1.656-0.022-2.824c-0.151-0.305-0.316-0.643-0.462-0.946
	c-0.219-0.455-0.414-1.256-0.469-1.738c-0.114-0.997-0.312-1.922-0.587-2.748c-0.146-0.439-0.251-1.201-0.167-1.666l0.284-1.552
	c0.115-0.625,0.003-1.179-0.313-1.558c-0.42-0.503-1.16-0.643-1.955-0.351l-1.573,0.578c-0.389,0.143-1.176,0.223-1.708,0.172
	c-0.287-0.027-0.589-0.043-0.903-0.043c-2.466,0-4.696,0.987-6.448,2.854c-0.44,0.469-0.869,0.916-1.295,1.34
	c-0.207-0.26-0.474-0.478-0.803-0.612l-7.513-3.062l-0.464-3.612l10.902-7.913l0.801,0.996c1.038,1.291,2.357,1.89,2.945,1.336
	c0.588-0.554,0.244-2.064-0.769-3.376l-2.707-3.503c-1.013-1.312-2.388-1.949-3.072-1.425c-0.684,0.525-0.396,1.996,0.642,3.287
	l0.904,1.124l-9.99,7.251c-0.091-0.539-0.6-0.977-1.146-0.981l-0.328-0.003c-0.199-0.037-0.404-0.054-0.615-0.028
	c-0.035,0.004-0.066,0.017-0.1,0.023l-4.53-0.033c-0.553-0.004-1.062,0.437-1.138,0.984L23.922,25l-4.628,3.359
	c-0.447,0.324-0.546,0.95-0.222,1.396c0.195,0.27,0.5,0.413,0.81,0.413c0.204,0,0.409-0.062,0.586-0.191l3.07-2.229l-0.64,4.606
	c-3.883,0.048-6.017,1.056-7.168,2.04c-0.966-0.351-4.086-1.314-6.63-0.188c-1.361,0.603-2.331,1.702-2.883,3.267L5.905,38.36
	c-1.856,5.247-2.788,7.88-2.201,10.278c0.035,0.141,0.129,0.261,0.259,0.326c0.071,0.036,0.149,0.055,0.227,0.055
	c0.064,0,0.128-0.013,0.189-0.037c0.062-0.025,6.135-2.581,6.145-8.886c0.002-0.778,0.21-1.29,0.638-1.563
	c0.888-0.565,2.593-0.076,3.458,0.269v1.683c0,0.534-0.047,1.404-0.105,1.939l-0.234,2.142c-0.05,0.458-0.334,1.186-0.607,1.558
	L5.35,57.427c-0.586,0.796-0.437,1.383-0.296,1.661c0.141,0.278,0.525,0.746,1.513,0.746h1.554c1.255,0,2.856-0.766,3.644-1.743
	L20.46,47.31c0.222-0.274,0.75-0.493,1.146-0.423c0.923,0.145,2.584,0.356,4.808,0.469c-0.157,1.386,0.62,2.694,1.916,3.073
	c1.476,0.434,3.05-0.504,3.515-2.094l0.283-0.967c0.372-0.016,0.743-0.027,1.115-0.049c4.963-0.291,7.681-1.076,9.088-1.683
	c0.323-0.141,0.784-0.072,0.985,0.149l6.455,7.096c0.209,0.229,0.228,0.648,0.04,0.896l-2.771,3.659
	c-0.598,0.789-0.456,1.373-0.317,1.651c0.138,0.278,0.518,0.745,1.508,0.745h1.678c1.248,0,2.871-0.735,3.695-1.674l3.442-3.926
	c0.527-0.601,0.542-1.554,0.035-2.171l-8.342-10.139c-0.253-0.309,0.049-0.744,0.112-0.828c0.308-0.41,0.469-0.863,0.479-1.348
	c0.008-0.376-0.104-0.81-0.213-1.229c-0.072-0.28-0.147-0.569-0.164-0.771c-0.086-1.051-0.014-2.115,0.073-2.878
	C49.81,35.473,50.876,35.516,51.737,35.55z M38.488,30.85c-1.967,1.204-4.319,1.907-7.727,1.94
	c-0.044-0.227-0.061-0.455-0.014-0.656l0.6-4.195L38.488,30.85z"/>
<path d="M34.914,9.205c-0.145-0.361-0.384-0.776-0.781-1.159C33.421,7.361,33.028,3.8,29.164,3.8c-2.765,0-4.495,3.975-4.953,5.408
	c-0.14,0.438,0.102,0.802,0.503,0.917c-0.005,0.018-0.015,0.034-0.02,0.052c-0.652,2.468,0.82,4.998,3.288,5.65
	c2.468,0.652,4.998-0.82,5.65-3.287c0.213-0.806,0.18-1.611-0.021-2.363h0.521C34.686,10.177,35.119,9.718,34.914,9.205z"/>
</svg>
