<?xml version="1.0" encoding="iso-8859-1"?>
<!-- Generator: Adobe Illustrator 17.1.0, SVG Export Plug-In . SVG Version: 6.00 Build 0)  -->
<!DOCTYPE svg PUBLIC "-//W3C//DTD SVG 1.1//EN" "http://www.w3.org/Graphics/SVG/1.1/DTD/svg11.dtd">
<svg version="1.1" id="Capa_1" xmlns="http://www.w3.org/2000/svg" xmlns:xlink="http://www.w3.org/1999/xlink" x="0px" y="0px"
	 viewBox="0 0 64 64" style="enable-background:new 0 0 64 64;" xml:space="preserve">
<path d="M4.519,49.104c0.061-0.025,6.134-2.583,6.144-8.886c0.002-0.779,0.21-1.291,0.638-1.564c1-0.637,3.044,0.067,3.747,0.392
	c0.105,0.05,0.216,0.052,0.321,0.027v1.412c0,0.534-0.047,1.404-0.105,1.939l-0.234,2.142c-0.05,0.458-0.334,1.186-0.607,1.558
	L6.1,57.427c-0.586,0.796-0.437,1.383-0.296,1.661c0.141,0.278,0.525,0.746,1.513,0.746h1.554c1.255,0,2.856-0.766,3.644-1.743
	L21.21,47.31c0.222-0.274,0.751-0.493,1.146-0.423c1.298,0.203,4.034,0.544,7.786,0.546c0.427,0.461,0.993,0.78,1.65,0.849
	c0.909,0.097,1.758-0.297,2.34-0.973c0.539-0.032,1.055-0.07,1.542-0.114l-0.925,9.501l-1.347-0.156
	c-1.643-0.189-3.008,0.246-3.048,0.975c-0.041,0.73,1.255,1.498,2.894,1.719l4.379,0.586c1.639,0.221,3.072-0.225,3.201-0.994
	c0.13-0.771-1.097-1.551-2.74-1.742l-1.352-0.156l0.97-9.965c2.68-0.37,4.371-0.892,5.375-1.324
	c0.323-0.141,0.784-0.072,0.985,0.149l6.455,7.096c0.209,0.229,0.228,0.648,0.04,0.896l-2.771,3.659
	c-0.598,0.789-0.456,1.373-0.317,1.651c0.138,0.278,0.518,0.745,1.508,0.745h1.678c1.248,0,2.871-0.735,3.695-1.674l3.442-3.926
	c0.527-0.601,0.542-1.554,0.035-2.171l-8.342-10.139c-0.253-0.309,0.049-0.744,0.112-0.828c0.308-0.41,0.469-0.863,0.479-1.348
	c0.008-0.376-0.104-0.81-0.213-1.229c-0.072-0.28-0.147-0.569-0.164-0.771c-0.086-1.051-0.014-2.115,0.073-2.878
	c0.785,0.601,1.852,0.643,2.712,0.678c0.368,0.015,0.716,0.028,0.985,0.082c0.355,0.068,1.173,0.584,1.612,0.861l0.154,0.097
	c1.061,0.665,2.311,0.699,2.921,0.051c0.563-0.601,0.555-1.656-0.022-2.824c-0.151-0.305-0.316-0.643-0.462-0.946
	c-0.219-0.454-0.414-1.255-0.469-1.737c-0.114-0.998-0.312-1.922-0.587-2.749c-0.146-0.439-0.252-1.201-0.167-1.666l0.284-1.552
	c0.115-0.625,0.003-1.179-0.313-1.558c-0.421-0.503-1.16-0.643-1.955-0.351l-1.573,0.578c-0.389,0.143-1.178,0.223-1.708,0.172
	c-0.287-0.027-0.589-0.043-0.903-0.043c-2.466,0-4.696,0.987-6.448,2.854c-1.522,1.622-2.909,2.989-4.559,4.007l0.329-3.382
	c0.04,0.002,0.081,0.013,0.121,0.013c0.927,0,1.758-0.647,1.956-1.59c0.227-1.081-0.466-2.141-1.547-2.368l-7.941-1.663
	l-1.566-4.916c-0.061-0.191-0.155-0.359-0.262-0.516l-0.006-0.15c-0.181-0.522-0.769-0.868-1.312-0.772l-0.311,0.054
	c-0.206-0.002-0.416,0.019-0.623,0.085c-0.033,0.01-0.061,0.028-0.094,0.041l-4.463,0.781c-0.544,0.096-0.966,0.62-0.942,1.172
	l0.626,14.751c-3.95,0.124-6.002,1.262-7.037,2.283c-0.012-0.007-0.02-0.018-0.033-0.023c-0.16-0.066-3.947-1.626-6.931-0.303
	c-1.361,0.604-2.33,1.701-2.882,3.266l-0.317,0.897C4.188,43.73,3.257,46.361,3.844,48.76c0.035,0.141,0.129,0.261,0.259,0.326
	c0.071,0.036,0.149,0.055,0.227,0.055C4.394,49.141,4.458,49.128,4.519,49.104z M15.362,38.091l0.008-0.038v0.041
	C15.367,38.093,15.364,38.092,15.362,38.091z M37.634,27.063l-0.468,4.804c-0.998,0.374-2.115,0.639-3.398,0.788l-2.08-1.281
	c-0.47-0.289-0.83-0.973-0.803-1.524l-0.164-4.234L37.634,27.063z"/>
<circle cx="26.681" cy="56.494" r="2.035"/>
<path d="M30.866,6.546c-0.207-0.33-0.517-0.695-0.977-1C29.066,5,28.04,1.567,24.239,2.261c-2.72,0.497-3.708,4.718-3.901,6.21
	c-0.059,0.457,0.244,0.771,0.659,0.812c-0.001,0.019-0.008,0.036-0.01,0.054c-0.199,2.545,1.705,4.769,4.25,4.968
	c2.545,0.198,4.77-1.704,4.968-4.249c0.065-0.831-0.112-1.618-0.444-2.321l0.512-0.093C30.815,7.543,31.16,7.013,30.866,6.546z"/>
</svg>
