<?xml version="1.0" encoding="iso-8859-1"?>
<!-- Generator: Adobe Illustrator 17.1.0, SVG Export Plug-In . SVG Version: 6.00 Build 0)  -->
<!DOCTYPE svg PUBLIC "-//W3C//DTD SVG 1.1//EN" "http://www.w3.org/Graphics/SVG/1.1/DTD/svg11.dtd">
<svg version="1.1" id="Capa_1" xmlns="http://www.w3.org/2000/svg" xmlns:xlink="http://www.w3.org/1999/xlink" x="0px" y="0px"
	 viewBox="0 0 64 64" style="enable-background:new 0 0 64 64;" xml:space="preserve">
<g>
	<path d="M3.769,45.051c-0.045,2.185,0.656,4.079,2.028,5.479c1.996,2.038,4.811,2.304,6.217,2.387h42.567
		c2.603-0.767,3.895-2.576,4.536-3.857c2.684-5.368,0.352-8.854-2.728-12.538c-0.854-1.021-1.341-2.146-1.449-3.342
		c-0.052-0.572,0.443-2.14,1.265-3.563l2.854-4.96c1.929-3.354,0.769-7.652-2.583-9.582l-1.253-0.722
		c-1.064-0.612-2.273-0.935-3.495-0.935c-2.505,0-4.837,1.348-6.086,3.518l-4.607,8.008c-1.2,2.083-1.201,5.108-0.001,7.192
		l7.109,12.357c0.27,0.467,0.34,1.011,0.2,1.532c-0.14,0.519-0.474,0.954-0.942,1.223l-0.568,0.327
		c-0.313,0.181-0.976,0.305-1.479,0.289c-0.314-0.01-0.623-0.017-0.912-0.017l-0.243,0.002c-0.135,0-0.402-0.108-0.558-0.282
		c-0.093-0.104-0.176-0.218-0.246-0.341l-7.832-13.612c-0.303-0.525-0.303-1.68,0-2.205l3.886-6.752
		c1.929-3.354,0.77-7.652-2.583-9.582l-1.253-0.722c-1.063-0.612-2.272-0.935-3.495-0.935c-2.506,0-4.838,1.348-6.087,3.518
		l-4.608,8.009c-1.198,2.083-1.198,5.107,0,7.192l7.11,12.357c0.268,0.466,0.339,1.01,0.199,1.53
		c-0.141,0.521-0.475,0.955-0.943,1.224c0,0-0.322,0.186-0.646,0.372c-0.356,0.205-1.071,0.375-1.597,0.379
		c-0.526,0.004-1.19-0.108-1.419-0.332c-0.136-0.132-0.255-0.285-0.353-0.456l-8.53-14.574l4.592-7.98
		c1.929-3.354,0.771-7.653-2.582-9.582l-1.253-0.722c-1.064-0.612-2.272-0.935-3.495-0.935c-2.506,0-4.838,1.348-6.087,3.518
		l-1.163,2.023c-1.096,1.901-1.006,4.792,0.213,6.873l3.995,6.826l-3.559,6.185C5.415,39.691,3.818,42.648,3.769,45.051z
		 M56.458,23.129c0.35-0.61,0.535-1.302,0.535-2c0-0.667-0.167-1.329-0.483-1.917l0.881-0.474c0.395,0.732,0.603,1.559,0.603,2.39
		c0,0.872-0.23,1.736-0.668,2.497l-0.235,0.41l-0.867-0.498L56.458,23.129z M57.328,48.133c-0.564,1.129-1.621,1.945-3.14,2.426
		l-0.303-0.953c1.252-0.396,2.109-1.042,2.548-1.92c0.21-0.419,0.384-0.829,0.517-1.215l0.945,0.324
		C57.749,47.224,57.558,47.674,57.328,48.133z M57.504,41.503l-0.891,0.454c-0.601-1.179-1.569-2.4-2.526-3.544
		c-0.137-0.164-0.266-0.329-0.387-0.493l0.805-0.594c0.109,0.148,0.225,0.296,0.35,0.445C55.849,38.961,56.858,40.236,57.504,41.503
		z M52.941,32.943l-1-0.041c0.063-1.533,0.936-3.551,1.663-4.813l0.09-0.156l0.867,0.5l-0.09,0.156
		C53.747,29.844,52.993,31.677,52.941,32.943z M51.725,15.386c0.001,0,0.001,0,0.002,0c0.456,0,0.91,0.062,1.351,0.186l-0.271,0.963
		c-0.351-0.099-0.714-0.149-1.079-0.149c-0.001,0-0.001,0-0.002,0c-1.157,0-2.257,0.497-3.018,1.364l-0.752-0.66
		C48.906,16.007,50.28,15.386,51.725,15.386z M49.976,19.429c0.359-0.625,1.03-1.012,1.752-1.012c0.354,0,0.691,0.091,1.001,0.269
		l1.253,0.722c0.965,0.555,1.298,1.791,0.743,2.755l-2.853,4.958c-0.506,0.878-2.142,3.944-1.911,6.509
		c0.199,2.198,1.096,4.307,2.592,6.098c2.969,3.551,3.301,4.678,2.092,7.096c-0.212,0.424-0.785,0.761-1.622,0.983
		c0.055-0.158,0.104-0.319,0.148-0.483c0.487-1.81,0.24-3.701-0.694-5.325l-7.109-12.357c-0.303-0.525-0.303-1.678,0-2.204
		L49.976,19.429z M42.768,25.91l2.527-4.394l0.867,0.499l-2.597,4.519l-0.889-0.458L42.768,25.91z M45.472,35.808l-2.529-4.395
		l0.867-0.499l2.529,4.395L45.472,35.808z M48,40.203l0.867-0.499l1.876,3.261c0.242,0.422,0.423,0.875,0.534,1.345l-0.973,0.231
		c-0.09-0.377-0.233-0.739-0.429-1.078L48,40.203z M45.275,49.839c0.736,0,1.857-0.271,2.5-0.613
		c0.536-0.285,1.072-0.576,1.15-0.639l0.629,0.777c-0.098,0.079-0.718,0.415-1.339,0.744c-0.747,0.396-2.008,0.71-2.812,0.71h-1.456
		l-0.008-0.979C43.94,49.839,44.538,49.839,45.275,49.839z M31.229,47.792l-0.887-0.463c0.301-0.575,0.459-1.22,0.458-1.867
		c0-0.698-0.185-1.39-0.535-2L29.998,43l0.867-0.499l0.267,0.463c0.437,0.762,0.668,1.625,0.668,2.498
		C31.801,46.269,31.604,47.075,31.229,47.792z M33.808,50.9l-0.008-1l5.07-0.041l0.008,1L33.808,50.9z M38.693,43.035l2.529,4.395
		l-0.867,0.499l-2.529-4.395L38.693,43.035z M36.165,38.641l-0.867,0.499l-2.337-4.062c-0.071-0.124-0.137-0.255-0.196-0.391
		l0.915-0.403c0.045,0.103,0.095,0.202,0.148,0.296L36.165,38.641z M34.113,29.884l-0.867-0.499l2.528-4.395l0.867,0.499
		L34.113,29.884z M35.091,16.33l0.775,0.446c1.375,0.791,2.278,2.149,2.477,3.725l-0.992,0.125c-0.159-1.263-0.882-2.35-1.982-2.983
		l-0.775-0.447L35.091,16.33z M27.763,17.901c0.481-0.836,1.188-1.511,2.041-1.952l0.459,0.889C29.58,17.19,29.015,17.73,28.63,18.4
		l-1.243,2.161l-0.867-0.499L27.763,17.901z M24.021,26.409c-0.313,0.545-0.493,1.31-0.493,2.1c0,0.293,0.024,0.584,0.072,0.864
		l-0.986,0.168c-0.057-0.335-0.086-0.683-0.086-1.032c0-0.974,0.223-1.896,0.626-2.598l0.836-1.453l0.867,0.498L24.021,26.409z
		 M27.47,38.606l-2.529-4.395l0.867-0.499l2.529,4.394L27.47,38.606z M25.755,29.643c-0.302-0.526-0.303-1.68,0-2.205l4.608-8.009
		c0.359-0.625,1.03-1.012,1.753-1.012c0.353,0,0.69,0.091,1.001,0.269l1.253,0.722c0.965,0.555,1.298,1.791,0.743,2.755
		l-3.886,6.751c-1.199,2.084-1.199,5.109,0,7.193l6.784,11.791l-4.648,0.038c0.074-0.199,0.139-0.403,0.194-0.61
		c0.488-1.81,0.242-3.701-0.692-5.326L25.755,29.643z M17.577,17.876c0.77,0.905,1.193,2.06,1.193,3.252
		c0,0.705-0.146,1.389-0.434,2.034l-0.914-0.407c0.23-0.517,0.348-1.064,0.348-1.627c0-0.955-0.339-1.88-0.955-2.603L17.577,17.876z
		 M13.527,51.062l-0.008-1l5.07-0.041l0.008,1L13.527,51.062z M22.549,48.883c0.225,0.249,0.479,0.467,0.754,0.65
		c0.459,0.305,1.906,0.436,3.158,0.426l2.269-0.018l0.008,1c0,0-1.081,0-2.415,0c-1.335,0-2.95-0.206-3.539-0.586
		c-0.371-0.24-0.719-0.516-0.977-0.802L22.549,48.883z M17.41,40.267l2.561,4.375l-0.863,0.505l-2.562-4.375L17.41,40.267z
		 M18.474,48.055l-5.896,0.047c-0.765-0.004-2.389-0.232-3.21-1.07c-0.269-0.275-0.624-0.768-0.602-1.877
		c0.016-0.735,0.662-2.413,1.471-3.82l2.134-3.708L18.474,48.055z M11.425,32.02l0.863-0.505l2.562,4.375l-0.863,0.505L11.425,32.02
		z M13.277,32.009L12.41,31.51l2.529-4.395l0.867,0.499L13.277,32.009z M14.758,19.408c0.964,0.555,1.297,1.791,0.742,2.755
		l-3.166,5.503l-2.553-4.36c-0.356-0.609-0.339-1.58-0.194-1.854l1.164-2.023c0.535-0.93,1.809-1.286,2.754-0.743L14.758,19.408z
		 M12.824,15.396l-0.066,0.998c-1.531-0.101-2.982,0.691-3.74,2.006l-0.891-0.457C9.099,16.256,10.915,15.274,12.824,15.396z
		 M8.863,27.644l-1.671-2.855c-0.306-0.525-0.523-1.158-0.629-1.833l0.988-0.154c0.086,0.552,0.261,1.065,0.504,1.483l1.671,2.854
		L8.863,27.644z M7.636,39.809l2.246-3.903l0.867,0.499l-2.245,3.901c-0.085,0.148-0.176,0.312-0.268,0.485l-0.883-0.472
		C7.451,40.138,7.546,39.967,7.636,39.809z M8.872,49.123l-0.51,0.86C6.699,49,5.801,47.397,5.767,45.349l1-0.017
		C6.795,47.039,7.504,48.314,8.872,49.123z"/>
</g>
</svg>
