<?xml version="1.0" encoding="iso-8859-1"?>
<!-- Generator: Adobe Illustrator 17.1.0, SVG Export Plug-In . SVG Version: 6.00 Build 0)  -->
<!DOCTYPE svg PUBLIC "-//W3C//DTD SVG 1.1//EN" "http://www.w3.org/Graphics/SVG/1.1/DTD/svg11.dtd">
<svg version="1.1" id="Capa_1" xmlns="http://www.w3.org/2000/svg" xmlns:xlink="http://www.w3.org/1999/xlink" x="0px" y="0px"
	 viewBox="0 0 64 64" style="enable-background:new 0 0 64 64;" xml:space="preserve">
<g>
	<path d="M22.655,17.286c0,2.241,1.821,4.062,4.059,4.062c2.242,0,4.064-1.821,4.064-4.062c0-2.239-1.822-4.06-4.064-4.06
		C24.476,13.227,22.655,15.047,22.655,17.286z"/>
	<path d="M8.95,23.736l-0.071,0.174c-0.195,0.479-0.059,0.988,0.305,1.136c0.267,0.108,0.58-0.011,0.805-0.27l4.693,4.691
		c0.407,0.434,0.97,0.729,1.602,0.729c0.468,0,0.901-0.153,1.255-0.398l3.954-2.174v10.675L15.45,56.769
		c-0.446,1.606,0.512,3.257,2.13,3.69c1.606,0.43,3.258-0.528,3.688-2.136l5.281-15.94l5.378,15.979
		c0.429,1.617,2.084,2.564,3.688,2.132c1.604-0.433,2.563-2.086,2.129-3.691l-5.985-18.184V24.066c0-1.905-1.907-1.821-1.907-1.821
		h-6.119h-1.62c0,0-0.321-0.048-0.986,0.499l-4.505,2.629l-4.702-4.708c-0.02-0.024-0.045-0.042-0.067-0.065
		c0.899-0.735,4.056-3.397,6.204-6.219c2.519-3.31,3.112-6.425,1.586-8.332c-0.483-0.603-1.173-1.091-2.05-1.446
		c-1.854-0.755-3.233-0.834-4.342-0.252c-1.463,0.769-2.406,2.655-3.253,6.508c-0.365,1.66,0.284,7.684,0.437,9.04
		c-0.54-0.044-1.096,0.114-1.544,0.491c-0.923,0.767-0.974,2.155-0.208,3.078L8.95,23.736z"/>
	<path d="M56.5,5.5H55c-0.552,0-1,0.447-1,1v53.099c0,0.553,0.448,1,1,1h1.5c0.552,0,1-0.447,1-1V6.5
		C57.5,5.947,57.052,5.5,56.5,5.5z"/>
</g>
</svg>
