<?xml version="1.0" encoding="iso-8859-1"?>
<!-- Generator: Adobe Illustrator 17.1.0, SVG Export Plug-In . SVG Version: 6.00 Build 0)  -->
<!DOCTYPE svg PUBLIC "-//W3C//DTD SVG 1.1//EN" "http://www.w3.org/Graphics/SVG/1.1/DTD/svg11.dtd">
<svg version="1.1" id="Capa_1" xmlns="http://www.w3.org/2000/svg" xmlns:xlink="http://www.w3.org/1999/xlink" x="0px" y="0px"
	 viewBox="0 0 64 64" style="enable-background:new 0 0 64 64;" xml:space="preserve">
<g>
	<path d="M42.316,21.194c-2.768-11.06-8.419-17.662-15.114-17.662c-2.119,0-4.341,0.642-6.607,1.908
		c-4.788,2.676-7.321,5.492-7.973,8.862c-0.859,4.447,1.561,9.693,8.354,18.104c3.035,3.759,18.042,13.259,20.439,14.764
		l5.852,10.472c0.539,0.965,1.735,1.321,2.673,0.797c0.938-0.524,1.26-1.73,0.722-2.694l-5.659-10.128
		C44.992,43.298,44.815,31.177,42.316,21.194z M40.014,21.771c0.08,0.32,0.152,0.648,0.227,0.974l-3.807,2.127l-2.853-5.884
		l4.673-2.611C39.152,18.583,39.72,20.597,40.014,21.771z M26.201,21.301l-4.1,2.292l-4.195-4.762l4.964-2.773L26.201,21.301z
		 M24.254,15.284l4.543-2.539l2.71,5.591l-3.922,2.191L24.254,15.284z M27.051,22.64l3.505,5.518l-2.97,1.66l-4.414-5.01
		L27.051,22.64z M28.435,21.866l3.764-2.105l2.853,5.884l-3.111,1.738L28.435,21.866z M37.622,14.918l-4.731,2.645l-2.71-5.591
		l4.174-2.332C35.691,11.2,36.771,13.075,37.622,14.918z M33.224,8.458l-3.735,2.087l-2.248-4.637
		C29.596,5.919,31.575,6.934,33.224,8.458z M21.753,7.513c1.436-0.803,2.829-1.306,4.158-1.507l-0.308,0.15l2.503,5.162
		l-4.701,2.627l-3.407-5.363C20.542,8.225,21.116,7.869,21.753,7.513z M14.953,14.753c0.363-1.879,1.587-3.589,3.751-5.254
		l3.316,5.22l-5.184,2.897l-1.969-2.235C14.886,15.168,14.913,14.958,14.953,14.753z M15.206,18.526
		c-0.048-0.171-0.084-0.337-0.122-0.503l0.337,0.383L15.206,18.526z M15.735,20.044l0.757-0.423l4.195,4.762l-1.939,1.084
		C17.37,23.423,16.377,21.636,15.735,20.044z M22.822,30.915c-1.199-1.484-2.25-2.859-3.167-4.142l2.103-1.176l4.414,5.01
		l-2.369,1.323C23.393,31.551,23.058,31.208,22.822,30.915z M25.075,33.033l2.168-1.211l6.786,7.7
		C30.703,37.275,27.325,34.885,25.075,33.033z M37.548,41.124l-8.892-10.092l2.75-1.537l6.9,10.862
		C38.044,40.585,37.791,40.841,37.548,41.124z M39.613,39.464L32.79,28.722l2.953-1.65l5.682,11.72
		C40.83,38.926,40.217,39.144,39.613,39.464z M37.126,26.298l3.468-1.938c0.866,4.236,1.365,8.713,1.65,12.495L37.126,26.298z
		 M42.55,45.081c-0.005-0.004-0.012-0.008-0.018-0.011c0.027-0.019,0.059-0.031,0.088-0.047c0,0.013,0,0.029,0,0.042L42.55,45.081z"
		/>
</g>
</svg>
