<?xml version="1.0" encoding="iso-8859-1"?>
<!-- Generator: Adobe Illustrator 17.1.0, SVG Export Plug-In . SVG Version: 6.00 Build 0)  -->
<!DOCTYPE svg PUBLIC "-//W3C//DTD SVG 1.1//EN" "http://www.w3.org/Graphics/SVG/1.1/DTD/svg11.dtd">
<svg version="1.1" id="Capa_1" xmlns="http://www.w3.org/2000/svg" xmlns:xlink="http://www.w3.org/1999/xlink" x="0px" y="0px"
	 viewBox="0 0 64 64" style="enable-background:new 0 0 64 64;" xml:space="preserve">
<path d="M40.785,15.86c-1.943-2.207-4.831-3.244-8.828-3.177h-0.132c-4.015-0.07-6.9,0.969-8.845,3.177
	c-3.131,3.554-3.864,10.206-2.306,20.934c1.753,12.071,1.366,19.927,1.198,22.133h3.933c0,0,4.211-20.523,5.576-30.083
	c1.366,9.56,5.536,30.083,5.536,30.083h4.977c-0.169-2.206-0.555-10.062,1.197-22.133C44.649,26.066,43.916,19.415,40.785,15.86z"/>
<path d="M44.519,6.276c-0.379-1.055-0.622-1.671-0.622-1.671S43.179,3.922,31.36,3.846C19.542,3.77,18.825,4.605,18.825,4.605
	s-0.353,0.892-0.87,2.366c2.129-0.857,6.083-1.604,13.414-1.532C38.622,5.516,42.465,5.864,44.519,6.276z"/>
<path d="M47.387,58.927c0,0,1.365-23.368,1.517-32.32c0.101-5.963-2.153-13.742-3.671-18.274c-0.703-0.267-3.52-0.963-13.881-1.072
	C18.66,7.122,17.268,9.504,17.255,9.528c0,0,0.021-0.04,0.037-0.128l-0.146-0.027c-1.491,4.615-3.422,11.706-3.329,17.234
	c0.152,8.953,1.518,32.32,1.518,32.32h4.708c0.145-1.884,0.579-9.821-1.171-21.872c-1.662-11.451-0.817-18.359,2.742-22.399
	c2.287-2.596,5.723-3.877,10.227-3.793h0.099c4.483-0.08,7.925,1.198,10.212,3.793c3.558,4.04,4.403,10.948,2.741,22.399
	c-1.749,12.051-1.316,19.988-1.171,21.872H47.387z"/>
</svg>
