<?xml version="1.0" encoding="iso-8859-1"?>
<!-- Generator: Adobe Illustrator 17.1.0, SVG Export Plug-In . SVG Version: 6.00 Build 0)  -->
<!DOCTYPE svg PUBLIC "-//W3C//DTD SVG 1.1//EN" "http://www.w3.org/Graphics/SVG/1.1/DTD/svg11.dtd">
<svg version="1.1" id="Capa_1" xmlns="http://www.w3.org/2000/svg" xmlns:xlink="http://www.w3.org/1999/xlink" x="0px" y="0px"
	 viewBox="0 0 64 64" style="enable-background:new 0 0 64 64;" xml:space="preserve">
<g>
	<path d="M57.768,32.234c-0.236,0-1.96-0.018-2.612-0.502v0.741l0.365,0.197c0.031,0.018,0.043,0.058,0.026,0.089
		c-0.013,0.022-0.035,0.034-0.058,0.034c-0.011,0-0.022-0.002-0.031-0.008l-0.303-0.163v0.382l0.044-0.023
		c0.031-0.016,0.071-0.006,0.089,0.026c0.018,0.032,0.006,0.071-0.026,0.089l-0.106,0.058v0.211c0,0.376,1.169,0.681,2.612,0.681
		h2.547c1.443,0,2.612-0.305,2.612-0.681c0-0.014,0-0.032,0-0.05c-0.001,0.001-0.002,0.001-0.003,0.001
		c-0.023,0-0.046-0.012-0.058-0.034c-0.017-0.031-0.005-0.071,0.026-0.089l0.034-0.019c0-0.438,0-1.24,0-1.469
		c-0.652,0.511-2.376,0.528-2.612,0.528H57.768z M56.043,33.097l-0.393,0.212c-0.01,0.006-0.021,0.008-0.031,0.008
		c-0.022,0-0.045-0.012-0.058-0.034c-0.017-0.031-0.005-0.071,0.027-0.089l0.392-0.212c0.03-0.016,0.07-0.006,0.089,0.026
		C56.086,33.04,56.074,33.079,56.043,33.097z M56.193,32.794c-0.011,0-0.022-0.002-0.031-0.008l-0.392-0.212
		c-0.032-0.018-0.044-0.058-0.027-0.089c0.019-0.032,0.059-0.042,0.089-0.026l0.393,0.212c0.031,0.018,0.043,0.058,0.026,0.089
		C56.238,32.782,56.216,32.794,56.193,32.794z M56.747,33.097l-0.393,0.212c-0.01,0.006-0.021,0.008-0.031,0.008
		c-0.022,0-0.045-0.012-0.058-0.034c-0.017-0.031-0.005-0.071,0.027-0.089l0.392-0.212c0.03-0.016,0.07-0.006,0.089,0.026
		C56.79,33.04,56.778,33.079,56.747,33.097z M56.901,32.794c-0.011,0-0.021-0.002-0.031-0.008l-0.392-0.212
		c-0.032-0.018-0.044-0.058-0.026-0.089c0.018-0.032,0.058-0.042,0.088-0.026l0.393,0.212c0.031,0.018,0.043,0.058,0.026,0.089
		C56.946,32.782,56.924,32.794,56.901,32.794z M57.455,33.097l-0.393,0.212c-0.009,0.006-0.019,0.008-0.03,0.008
		c-0.023,0-0.046-0.012-0.058-0.034c-0.018-0.031-0.006-0.071,0.026-0.089l0.392-0.212c0.03-0.016,0.071-0.006,0.089,0.026
		C57.498,33.04,57.486,33.079,57.455,33.097z M57.609,32.794c-0.011,0-0.021-0.002-0.031-0.008l-0.392-0.212
		c-0.032-0.018-0.044-0.058-0.026-0.089c0.017-0.032,0.058-0.042,0.089-0.026l0.392,0.212c0.031,0.018,0.043,0.058,0.026,0.089
		C57.654,32.782,57.633,32.794,57.609,32.794z M58.163,33.097l-0.392,0.212c-0.01,0.006-0.021,0.008-0.031,0.008
		c-0.023,0-0.046-0.012-0.058-0.034c-0.018-0.031-0.006-0.071,0.026-0.089l0.392-0.212c0.03-0.016,0.071-0.006,0.089,0.026
		C58.206,33.04,58.194,33.079,58.163,33.097z M58.317,32.794c-0.011,0-0.021-0.002-0.031-0.008l-0.392-0.212
		c-0.031-0.018-0.043-0.058-0.026-0.089c0.019-0.032,0.058-0.042,0.089-0.026l0.392,0.212c0.031,0.018,0.043,0.058,0.026,0.089
		C58.363,32.782,58.341,32.794,58.317,32.794z M58.871,33.097l-0.392,0.212c-0.01,0.006-0.021,0.008-0.031,0.008
		c-0.023,0-0.046-0.012-0.058-0.034c-0.017-0.031-0.005-0.071,0.026-0.089l0.392-0.212c0.03-0.016,0.071-0.006,0.089,0.026
		C58.914,33.04,58.902,33.079,58.871,33.097z M59.025,32.794c-0.011,0-0.021-0.002-0.031-0.008l-0.392-0.212
		c-0.031-0.018-0.043-0.058-0.026-0.089c0.018-0.032,0.059-0.042,0.089-0.026l0.392,0.212c0.032,0.018,0.044,0.058,0.026,0.089
		C59.071,32.782,59.049,32.794,59.025,32.794z M59.579,33.097l-0.392,0.212c-0.01,0.006-0.021,0.008-0.031,0.008
		c-0.023,0-0.045-0.012-0.058-0.034c-0.017-0.031-0.005-0.071,0.026-0.089l0.392-0.212c0.03-0.016,0.071-0.006,0.089,0.026
		C59.623,33.04,59.611,33.079,59.579,33.097z M59.807,32.794c-0.011,0-0.021-0.002-0.031-0.008l-0.392-0.212
		c-0.032-0.018-0.044-0.058-0.027-0.089c0.019-0.032,0.059-0.042,0.089-0.026l0.393,0.212c0.031,0.018,0.043,0.058,0.026,0.089
		C59.852,32.782,59.829,32.794,59.807,32.794z M60.36,33.097l-0.393,0.212c-0.01,0.006-0.021,0.008-0.031,0.008
		c-0.022,0-0.045-0.012-0.058-0.034c-0.017-0.031-0.005-0.071,0.027-0.089l0.392-0.212c0.03-0.016,0.07-0.006,0.089,0.026
		C60.403,33.04,60.392,33.079,60.36,33.097z M62.433,32.459l0.392,0.212c0.031,0.018,0.043,0.058,0.026,0.089
		c-0.012,0.022-0.034,0.034-0.058,0.034c-0.011,0-0.022-0.002-0.031-0.008l-0.392-0.212c-0.031-0.018-0.043-0.058-0.026-0.089
		C62.361,32.453,62.402,32.443,62.433,32.459z M62.185,33.193l0.392-0.212c0.03-0.016,0.071-0.006,0.089,0.026
		c0.017,0.032,0.005,0.071-0.026,0.089l-0.392,0.212c-0.01,0.006-0.02,0.008-0.031,0.008c-0.023,0-0.046-0.012-0.058-0.034
		C62.141,33.251,62.152,33.211,62.185,33.193z M61.725,32.459l0.392,0.212c0.031,0.018,0.043,0.058,0.026,0.089
		c-0.013,0.022-0.035,0.034-0.058,0.034c-0.011,0-0.022-0.002-0.031-0.008l-0.392-0.212c-0.032-0.018-0.044-0.058-0.026-0.089
		C61.653,32.453,61.693,32.443,61.725,32.459z M61.466,33.193l0.392-0.212c0.031-0.016,0.071-0.006,0.089,0.026
		c0.018,0.032,0.006,0.071-0.026,0.089l-0.392,0.212c-0.01,0.006-0.021,0.008-0.031,0.008c-0.022,0-0.045-0.012-0.058-0.034
		C61.423,33.251,61.435,33.211,61.466,33.193z M61.006,32.459l0.392,0.212c0.032,0.018,0.044,0.058,0.026,0.089
		c-0.012,0.022-0.034,0.034-0.058,0.034c-0.011,0-0.022-0.002-0.031-0.008l-0.392-0.212c-0.031-0.018-0.043-0.058-0.026-0.089
		C60.935,32.453,60.976,32.443,61.006,32.459z M60.685,33.193l0.392-0.212c0.03-0.016,0.071-0.006,0.089,0.026
		c0.017,0.032,0.005,0.071-0.026,0.089l-0.392,0.212c-0.01,0.006-0.021,0.008-0.031,0.008c-0.023,0-0.046-0.012-0.058-0.034
		C60.642,33.251,60.653,33.211,60.685,33.193z M60.644,32.76c-0.013,0.022-0.034,0.034-0.058,0.034
		c-0.011,0-0.021-0.002-0.031-0.008l-0.392-0.212c-0.032-0.018-0.044-0.058-0.026-0.089c0.018-0.032,0.059-0.042,0.089-0.026
		l0.392,0.212C60.648,32.688,60.66,32.728,60.644,32.76z"/>
	<path d="M59.041,28.946c-2.146,0-3.886,0.292-3.886,0.652v0.834l0.365,0.197c0.031,0.018,0.043,0.058,0.026,0.089
		c-0.013,0.022-0.035,0.034-0.058,0.034c-0.011,0-0.022-0.002-0.031-0.008l-0.303-0.163v0.382l0.044-0.023
		c0.031-0.016,0.071-0.006,0.089,0.026c0.018,0.032,0.006,0.071-0.026,0.089l-0.106,0.058v0.211c0,0.376,1.169,0.681,2.612,0.681
		h2.547c1.443,0,2.612-0.305,2.612-0.681c0-0.014,0-0.032,0-0.05c-0.001,0.001-0.002,0.001-0.003,0.001
		c-0.023,0-0.046-0.012-0.058-0.034c-0.017-0.031-0.005-0.071,0.026-0.089l0.034-0.018c0-0.513,0-1.535,0-1.535
		C62.927,29.238,61.187,28.946,59.041,28.946z M58.933,29.326c1.163,0,2.107,0.159,2.107,0.354c0,0.195-0.943,0.354-2.107,0.354
		c-1.163,0-2.106-0.159-2.106-0.354C56.826,29.485,57.769,29.326,58.933,29.326z M56.043,31.056l-0.393,0.212
		c-0.01,0.006-0.021,0.008-0.031,0.008c-0.022,0-0.045-0.012-0.058-0.034c-0.017-0.031-0.005-0.071,0.027-0.089l0.392-0.212
		c0.03-0.016,0.07-0.006,0.089,0.026C56.086,30.999,56.074,31.038,56.043,31.056z M56.193,30.753c-0.011,0-0.022-0.002-0.031-0.008
		l-0.392-0.212c-0.032-0.018-0.044-0.058-0.027-0.089c0.019-0.032,0.059-0.042,0.089-0.026l0.393,0.212
		c0.031,0.018,0.043,0.058,0.026,0.089C56.238,30.741,56.216,30.753,56.193,30.753z M56.747,31.056l-0.393,0.212
		c-0.01,0.006-0.021,0.008-0.031,0.008c-0.022,0-0.045-0.012-0.058-0.034c-0.017-0.031-0.005-0.071,0.027-0.089l0.392-0.212
		c0.03-0.016,0.07-0.006,0.089,0.026C56.79,30.999,56.778,31.038,56.747,31.056z M56.901,30.753c-0.011,0-0.021-0.002-0.031-0.008
		l-0.392-0.212c-0.032-0.018-0.044-0.058-0.026-0.089c0.018-0.032,0.058-0.042,0.088-0.026l0.393,0.212
		c0.031,0.018,0.043,0.058,0.026,0.089C56.946,30.741,56.924,30.753,56.901,30.753z M57.455,31.056l-0.393,0.212
		c-0.009,0.006-0.019,0.008-0.03,0.008c-0.023,0-0.046-0.012-0.058-0.034c-0.018-0.031-0.006-0.071,0.026-0.089l0.392-0.212
		c0.03-0.016,0.071-0.006,0.089,0.026C57.498,30.999,57.486,31.038,57.455,31.056z M57.609,30.753c-0.011,0-0.021-0.002-0.031-0.008
		l-0.392-0.212c-0.032-0.018-0.044-0.058-0.026-0.089c0.017-0.032,0.058-0.042,0.089-0.026l0.392,0.212
		c0.031,0.018,0.043,0.058,0.026,0.089C57.654,30.741,57.633,30.753,57.609,30.753z M58.163,31.056l-0.392,0.212
		c-0.01,0.006-0.021,0.008-0.031,0.008c-0.023,0-0.046-0.012-0.058-0.034c-0.018-0.031-0.006-0.071,0.026-0.089l0.392-0.212
		c0.03-0.016,0.071-0.006,0.089,0.026C58.206,30.999,58.194,31.038,58.163,31.056z M58.317,30.753c-0.011,0-0.021-0.002-0.031-0.008
		l-0.392-0.212c-0.031-0.018-0.043-0.058-0.026-0.089c0.019-0.032,0.058-0.042,0.089-0.026l0.392,0.212
		c0.031,0.018,0.043,0.058,0.026,0.089C58.363,30.741,58.341,30.753,58.317,30.753z M58.871,31.056l-0.392,0.212
		c-0.01,0.006-0.021,0.008-0.031,0.008c-0.023,0-0.046-0.012-0.058-0.034c-0.017-0.031-0.005-0.071,0.026-0.089l0.392-0.212
		c0.03-0.016,0.071-0.006,0.089,0.026C58.914,30.999,58.902,31.038,58.871,31.056z M59.025,30.753c-0.011,0-0.021-0.002-0.031-0.008
		l-0.392-0.212c-0.031-0.018-0.043-0.058-0.026-0.089c0.018-0.032,0.059-0.042,0.089-0.026l0.392,0.212
		c0.032,0.018,0.044,0.058,0.026,0.089C59.071,30.741,59.049,30.753,59.025,30.753z M59.579,31.056l-0.392,0.212
		c-0.01,0.006-0.021,0.008-0.031,0.008c-0.023,0-0.045-0.012-0.058-0.034c-0.017-0.031-0.005-0.071,0.026-0.089l0.392-0.212
		c0.03-0.016,0.071-0.006,0.089,0.026C59.623,30.999,59.611,31.038,59.579,31.056z M59.807,30.753c-0.011,0-0.021-0.002-0.031-0.008
		l-0.392-0.212c-0.032-0.018-0.044-0.058-0.027-0.089c0.019-0.032,0.059-0.042,0.089-0.026l0.393,0.212
		c0.031,0.018,0.043,0.058,0.026,0.089C59.852,30.741,59.829,30.753,59.807,30.753z M60.36,31.056l-0.393,0.212
		c-0.01,0.006-0.021,0.008-0.031,0.008c-0.022,0-0.045-0.012-0.058-0.034c-0.017-0.031-0.005-0.071,0.027-0.089l0.392-0.212
		c0.03-0.016,0.07-0.006,0.089,0.026C60.403,30.999,60.392,31.038,60.36,31.056z M60.586,30.753c-0.011,0-0.021-0.002-0.031-0.008
		l-0.392-0.212c-0.032-0.018-0.044-0.058-0.026-0.089c0.018-0.032,0.059-0.042,0.089-0.026l0.392,0.212
		c0.031,0.018,0.043,0.058,0.026,0.089C60.631,30.741,60.609,30.753,60.586,30.753z M61.14,31.056l-0.392,0.212
		c-0.01,0.006-0.021,0.008-0.031,0.008c-0.023,0-0.046-0.012-0.058-0.034c-0.018-0.031-0.006-0.071,0.026-0.089l0.392-0.212
		c0.03-0.016,0.071-0.006,0.089,0.026C61.183,30.999,61.171,31.038,61.14,31.056z M61.366,30.753c-0.011,0-0.022-0.002-0.031-0.008
		l-0.392-0.212c-0.031-0.018-0.043-0.058-0.026-0.089c0.018-0.032,0.059-0.042,0.089-0.026l0.392,0.212
		c0.032,0.018,0.044,0.058,0.026,0.089C61.412,30.741,61.39,30.753,61.366,30.753z M61.92,31.056l-0.392,0.212
		c-0.01,0.006-0.021,0.008-0.031,0.008c-0.022,0-0.045-0.012-0.058-0.034c-0.017-0.031-0.005-0.071,0.026-0.089l0.392-0.212
		c0.031-0.016,0.071-0.006,0.089,0.026C61.964,30.999,61.952,31.038,61.92,31.056z M62.085,30.753c-0.011,0-0.022-0.002-0.031-0.008
		l-0.392-0.212c-0.032-0.018-0.044-0.058-0.026-0.089c0.018-0.032,0.058-0.042,0.089-0.026l0.392,0.212
		c0.031,0.018,0.043,0.058,0.026,0.089C62.13,30.741,62.107,30.753,62.085,30.753z M62.639,31.056l-0.392,0.212
		c-0.01,0.006-0.02,0.008-0.031,0.008c-0.023,0-0.046-0.012-0.058-0.034c-0.018-0.031-0.006-0.071,0.026-0.089l0.392-0.212
		c0.03-0.016,0.071-0.006,0.089,0.026C62.682,30.999,62.67,31.038,62.639,31.056z M62.793,30.753c-0.011,0-0.022-0.002-0.031-0.008
		l-0.392-0.212c-0.031-0.018-0.043-0.058-0.026-0.089c0.017-0.032,0.058-0.042,0.089-0.026l0.392,0.212
		c0.031,0.018,0.043,0.058,0.026,0.089C62.839,30.741,62.816,30.753,62.793,30.753z"/>
	<path d="M19.625,46.459c-0.236,0-1.96-0.018-2.612-0.502v0.741l0.365,0.197c0.031,0.018,0.043,0.058,0.026,0.089
		c-0.013,0.022-0.035,0.034-0.058,0.034c-0.011,0-0.021-0.002-0.031-0.008l-0.303-0.163v0.382l0.044-0.023
		c0.031-0.016,0.071-0.006,0.089,0.026c0.018,0.032,0.006,0.071-0.026,0.089l-0.106,0.058v0.211c0,0.376,1.169,0.681,2.612,0.681
		h2.547c1.443,0,2.612-0.305,2.612-0.681c0-0.014,0-0.032,0-0.05c-0.001,0.001-0.002,0.001-0.003,0.001
		c-0.023,0-0.046-0.012-0.058-0.034c-0.017-0.031-0.005-0.071,0.026-0.089l0.034-0.019c0-0.438,0-1.24,0-1.469
		c-0.652,0.511-2.376,0.528-2.612,0.528H19.625z M17.9,47.321l-0.393,0.212c-0.01,0.006-0.021,0.008-0.031,0.008
		c-0.023,0-0.045-0.012-0.058-0.034c-0.017-0.031-0.005-0.071,0.027-0.089l0.392-0.212c0.03-0.016,0.07-0.006,0.089,0.026
		C17.943,47.265,17.932,47.304,17.9,47.321z M18.051,47.019c-0.011,0-0.021-0.002-0.031-0.008l-0.392-0.212
		c-0.032-0.017-0.044-0.058-0.027-0.089c0.018-0.032,0.059-0.042,0.089-0.026l0.392,0.212c0.031,0.018,0.043,0.058,0.026,0.089
		C18.096,47.007,18.073,47.019,18.051,47.019z M18.604,47.321l-0.393,0.212c-0.01,0.006-0.021,0.008-0.031,0.008
		c-0.023,0-0.045-0.012-0.058-0.034c-0.017-0.031-0.005-0.071,0.027-0.089l0.392-0.212c0.03-0.016,0.07-0.006,0.089,0.026
		C18.648,47.265,18.636,47.304,18.604,47.321z M18.759,47.019c-0.011,0-0.021-0.002-0.031-0.008l-0.392-0.212
		c-0.032-0.017-0.044-0.058-0.026-0.089c0.018-0.032,0.058-0.042,0.088-0.026l0.392,0.212c0.031,0.018,0.043,0.058,0.026,0.089
		C18.804,47.007,18.781,47.019,18.759,47.019z M19.312,47.321l-0.393,0.212c-0.009,0.006-0.02,0.008-0.03,0.008
		c-0.023,0-0.046-0.012-0.058-0.034c-0.017-0.031-0.006-0.071,0.026-0.089l0.392-0.212c0.03-0.016,0.071-0.006,0.089,0.026
		C19.355,47.265,19.344,47.304,19.312,47.321z M19.467,47.019c-0.011,0-0.021-0.002-0.031-0.008l-0.392-0.212
		c-0.032-0.017-0.044-0.058-0.026-0.089c0.018-0.032,0.058-0.042,0.089-0.026l0.392,0.212c0.031,0.018,0.043,0.058,0.026,0.089
		C19.512,47.007,19.49,47.019,19.467,47.019z M20.021,47.321l-0.392,0.212c-0.01,0.006-0.021,0.008-0.031,0.008
		c-0.023,0-0.046-0.012-0.058-0.034c-0.017-0.031-0.006-0.071,0.026-0.089l0.392-0.212c0.03-0.016,0.071-0.006,0.089,0.026
		C20.063,47.265,20.052,47.304,20.021,47.321z M20.175,47.019c-0.011,0-0.021-0.002-0.031-0.008l-0.392-0.212
		c-0.031-0.017-0.043-0.058-0.026-0.089c0.018-0.032,0.058-0.042,0.089-0.026l0.392,0.212c0.031,0.018,0.043,0.058,0.026,0.089
		C20.221,47.007,20.198,47.019,20.175,47.019z M20.729,47.321l-0.392,0.212c-0.01,0.006-0.021,0.008-0.031,0.008
		c-0.024,0-0.046-0.012-0.058-0.034c-0.017-0.031-0.005-0.071,0.026-0.089l0.392-0.212c0.03-0.016,0.071-0.006,0.089,0.026
		C20.771,47.265,20.76,47.304,20.729,47.321z M20.883,47.019c-0.011,0-0.022-0.002-0.031-0.008l-0.392-0.212
		c-0.031-0.017-0.043-0.058-0.026-0.089c0.018-0.032,0.059-0.042,0.089-0.026l0.392,0.212c0.032,0.018,0.044,0.058,0.026,0.089
		C20.929,47.007,20.906,47.019,20.883,47.019z M21.437,47.321l-0.392,0.212c-0.01,0.006-0.021,0.008-0.031,0.008
		c-0.022,0-0.045-0.012-0.058-0.034c-0.017-0.031-0.005-0.071,0.026-0.089l0.392-0.212c0.03-0.016,0.071-0.006,0.089,0.026
		C21.48,47.265,21.469,47.304,21.437,47.321z M21.664,47.019c-0.011,0-0.022-0.002-0.031-0.008l-0.392-0.212
		c-0.032-0.017-0.044-0.058-0.027-0.089c0.019-0.032,0.059-0.042,0.089-0.026l0.393,0.212c0.031,0.018,0.043,0.058,0.026,0.089
		C21.709,47.007,21.687,47.019,21.664,47.019z M22.218,47.321l-0.393,0.212c-0.01,0.006-0.021,0.008-0.031,0.008
		c-0.022,0-0.045-0.012-0.058-0.034c-0.017-0.031-0.005-0.071,0.027-0.089l0.392-0.212c0.03-0.016,0.07-0.006,0.089,0.026
		C22.261,47.265,22.249,47.304,22.218,47.321z M24.29,46.684l0.392,0.212c0.031,0.018,0.043,0.058,0.026,0.089
		c-0.012,0.022-0.034,0.034-0.058,0.034c-0.011,0-0.021-0.002-0.031-0.008l-0.392-0.212c-0.031-0.017-0.043-0.058-0.026-0.089
		C24.219,46.678,24.26,46.668,24.29,46.684z M24.042,47.418l0.392-0.212c0.03-0.016,0.071-0.006,0.089,0.026
		c0.017,0.032,0.005,0.071-0.026,0.089l-0.392,0.212c-0.01,0.006-0.021,0.008-0.031,0.008c-0.023,0-0.046-0.012-0.058-0.034
		C23.998,47.476,24.01,47.435,24.042,47.418z M23.582,46.684l0.392,0.212c0.031,0.018,0.043,0.058,0.026,0.089
		c-0.013,0.022-0.035,0.034-0.058,0.034c-0.011,0-0.021-0.002-0.031-0.008l-0.392-0.212c-0.032-0.017-0.044-0.058-0.026-0.089
		C23.511,46.678,23.551,46.668,23.582,46.684z M23.323,47.418l0.392-0.212c0.031-0.016,0.071-0.006,0.089,0.026
		c0.018,0.032,0.006,0.071-0.026,0.089l-0.392,0.212c-0.01,0.006-0.021,0.008-0.031,0.008c-0.023,0-0.045-0.012-0.058-0.034
		C23.28,47.476,23.292,47.435,23.323,47.418z M22.863,46.684l0.392,0.212c0.032,0.018,0.044,0.058,0.026,0.089
		c-0.012,0.022-0.034,0.034-0.058,0.034c-0.011,0-0.021-0.002-0.031-0.008l-0.392-0.212c-0.031-0.017-0.043-0.058-0.026-0.089
		C22.792,46.678,22.833,46.668,22.863,46.684z M22.543,47.418l0.392-0.212c0.03-0.016,0.071-0.006,0.089,0.026
		c0.017,0.032,0.005,0.071-0.026,0.089l-0.392,0.212c-0.01,0.006-0.02,0.008-0.031,0.008c-0.023,0-0.046-0.012-0.058-0.034
		C22.499,47.476,22.511,47.435,22.543,47.418z M22.501,46.984c-0.013,0.022-0.034,0.034-0.058,0.034
		c-0.011,0-0.022-0.002-0.031-0.008l-0.392-0.212c-0.032-0.017-0.044-0.058-0.026-0.089c0.018-0.032,0.059-0.042,0.089-0.026
		l0.392,0.212C22.506,46.913,22.518,46.953,22.501,46.984z"/>
	<path d="M20.898,43.171c-2.146,0-3.886,0.292-3.886,0.652v0.834l0.365,0.197c0.031,0.018,0.043,0.058,0.026,0.089
		c-0.013,0.022-0.035,0.034-0.058,0.034c-0.011,0-0.021-0.002-0.031-0.008l-0.303-0.163v0.382l0.044-0.023
		c0.031-0.016,0.071-0.006,0.089,0.026c0.018,0.032,0.006,0.071-0.026,0.089l-0.106,0.058v0.211c0,0.376,1.169,0.681,2.612,0.681
		h2.547c1.443,0,2.612-0.305,2.612-0.681c0-0.014,0-0.032,0-0.05C24.783,45.5,24.782,45.5,24.781,45.5
		c-0.023,0-0.046-0.012-0.058-0.034c-0.017-0.031-0.005-0.071,0.026-0.089l0.034-0.019c0-0.513,0-1.535,0-1.535
		C24.784,43.463,23.044,43.171,20.898,43.171z M20.79,43.551c1.163,0,2.107,0.159,2.107,0.354s-0.943,0.354-2.107,0.354
		c-1.163,0-2.106-0.159-2.106-0.354S19.627,43.551,20.79,43.551z M17.9,45.28l-0.393,0.212c-0.01,0.006-0.021,0.008-0.031,0.008
		c-0.023,0-0.045-0.012-0.058-0.034c-0.017-0.031-0.005-0.071,0.027-0.089l0.392-0.212c0.03-0.016,0.07-0.006,0.089,0.026
		C17.943,45.224,17.932,45.263,17.9,45.28z M18.051,44.977c-0.011,0-0.021-0.002-0.031-0.008l-0.392-0.212
		c-0.032-0.018-0.044-0.058-0.027-0.089c0.018-0.032,0.059-0.042,0.089-0.026l0.392,0.212c0.031,0.018,0.043,0.058,0.026,0.089
		C18.096,44.966,18.073,44.977,18.051,44.977z M18.604,45.28l-0.393,0.212c-0.01,0.006-0.021,0.008-0.031,0.008
		c-0.023,0-0.045-0.012-0.058-0.034c-0.017-0.031-0.005-0.071,0.027-0.089l0.392-0.212c0.03-0.016,0.07-0.006,0.089,0.026
		C18.648,45.224,18.636,45.263,18.604,45.28z M18.759,44.977c-0.011,0-0.021-0.002-0.031-0.008l-0.392-0.212
		c-0.032-0.018-0.044-0.058-0.026-0.089c0.018-0.032,0.058-0.042,0.088-0.026l0.392,0.212c0.031,0.018,0.043,0.058,0.026,0.089
		C18.804,44.966,18.781,44.977,18.759,44.977z M19.312,45.28l-0.393,0.212c-0.009,0.006-0.02,0.008-0.03,0.008
		c-0.023,0-0.046-0.012-0.058-0.034c-0.017-0.031-0.006-0.071,0.026-0.089l0.392-0.212c0.03-0.016,0.071-0.006,0.089,0.026
		C19.355,45.224,19.344,45.263,19.312,45.28z M19.467,44.977c-0.011,0-0.021-0.002-0.031-0.008l-0.392-0.212
		C19.012,44.74,19,44.7,19.018,44.669c0.018-0.032,0.058-0.042,0.089-0.026l0.392,0.212c0.031,0.018,0.043,0.058,0.026,0.089
		C19.512,44.966,19.49,44.977,19.467,44.977z M20.021,45.28l-0.392,0.212c-0.01,0.006-0.021,0.008-0.031,0.008
		c-0.023,0-0.046-0.012-0.058-0.034c-0.017-0.031-0.006-0.071,0.026-0.089l0.392-0.212c0.03-0.016,0.071-0.006,0.089,0.026
		C20.063,45.224,20.052,45.263,20.021,45.28z M20.175,44.977c-0.011,0-0.021-0.002-0.031-0.008l-0.392-0.212
		c-0.031-0.018-0.043-0.058-0.026-0.089c0.018-0.032,0.058-0.042,0.089-0.026l0.392,0.212c0.031,0.018,0.043,0.058,0.026,0.089
		C20.221,44.966,20.198,44.977,20.175,44.977z M20.729,45.28l-0.392,0.212c-0.01,0.006-0.021,0.008-0.031,0.008
		c-0.024,0-0.046-0.012-0.058-0.034c-0.017-0.031-0.005-0.071,0.026-0.089l0.392-0.212c0.03-0.016,0.071-0.006,0.089,0.026
		C20.771,45.224,20.76,45.263,20.729,45.28z M20.883,44.977c-0.011,0-0.022-0.002-0.031-0.008l-0.392-0.212
		c-0.031-0.018-0.043-0.058-0.026-0.089c0.018-0.032,0.059-0.042,0.089-0.026l0.392,0.212c0.032,0.018,0.044,0.058,0.026,0.089
		C20.929,44.966,20.906,44.977,20.883,44.977z M21.437,45.28l-0.392,0.212c-0.01,0.006-0.021,0.008-0.031,0.008
		c-0.022,0-0.045-0.012-0.058-0.034c-0.017-0.031-0.005-0.071,0.026-0.089l0.392-0.212c0.03-0.016,0.071-0.006,0.089,0.026
		C21.48,45.224,21.469,45.263,21.437,45.28z M21.664,44.977c-0.011,0-0.022-0.002-0.031-0.008l-0.392-0.212
		c-0.032-0.018-0.044-0.058-0.027-0.089c0.019-0.032,0.059-0.042,0.089-0.026l0.393,0.212c0.031,0.018,0.043,0.058,0.026,0.089
		C21.709,44.966,21.687,44.977,21.664,44.977z M22.218,45.28l-0.393,0.212c-0.01,0.006-0.021,0.008-0.031,0.008
		c-0.022,0-0.045-0.012-0.058-0.034c-0.017-0.031-0.005-0.071,0.027-0.089l0.392-0.212c0.03-0.016,0.07-0.006,0.089,0.026
		C22.261,45.224,22.249,45.263,22.218,45.28z M22.443,44.977c-0.011,0-0.022-0.002-0.031-0.008l-0.392-0.212
		c-0.032-0.018-0.044-0.058-0.026-0.089c0.018-0.032,0.059-0.042,0.089-0.026l0.392,0.212c0.031,0.018,0.043,0.058,0.026,0.089
		C22.488,44.966,22.467,44.977,22.443,44.977z M22.997,45.28l-0.392,0.212c-0.01,0.006-0.02,0.008-0.031,0.008
		c-0.023,0-0.046-0.012-0.058-0.034c-0.018-0.031-0.006-0.071,0.026-0.089l0.392-0.212c0.03-0.016,0.071-0.006,0.089,0.026
		C23.04,45.224,23.028,45.263,22.997,45.28z M23.224,44.977c-0.011,0-0.021-0.002-0.031-0.008l-0.392-0.212
		c-0.031-0.018-0.043-0.058-0.026-0.089c0.018-0.032,0.059-0.042,0.089-0.026l0.392,0.212c0.032,0.018,0.044,0.058,0.026,0.089
		C23.269,44.966,23.247,44.977,23.224,44.977z M23.777,45.28l-0.392,0.212c-0.01,0.006-0.021,0.008-0.031,0.008
		c-0.023,0-0.045-0.012-0.058-0.034c-0.017-0.031-0.005-0.071,0.026-0.089l0.392-0.212c0.031-0.016,0.071-0.006,0.089,0.026
		C23.821,45.224,23.81,45.263,23.777,45.28z M23.942,44.977c-0.011,0-0.021-0.002-0.031-0.008l-0.392-0.212
		c-0.032-0.018-0.044-0.058-0.026-0.089c0.017-0.032,0.058-0.042,0.089-0.026l0.392,0.212c0.031,0.018,0.043,0.058,0.026,0.089
		C23.987,44.966,23.965,44.977,23.942,44.977z M24.496,45.28l-0.392,0.212c-0.01,0.006-0.021,0.008-0.031,0.008
		c-0.023,0-0.046-0.012-0.058-0.034c-0.018-0.031-0.006-0.071,0.026-0.089l0.392-0.212c0.03-0.016,0.071-0.006,0.089,0.026
		C24.539,45.224,24.527,45.263,24.496,45.28z M24.65,44.977c-0.011,0-0.021-0.002-0.031-0.008l-0.392-0.212
		c-0.031-0.018-0.043-0.058-0.026-0.089c0.018-0.032,0.059-0.042,0.089-0.026l0.392,0.212c0.031,0.018,0.043,0.058,0.026,0.089
		C24.696,44.966,24.674,44.977,24.65,44.977z"/>
	<path d="M54.229,33.365v-0.211c0-0.025,0.001-0.052,0.003-0.077c-0.002-0.023-0.003-0.048-0.003-0.072v-0.382
		c0-0.025,0.001-0.05,0.003-0.074c-0.002-0.025-0.003-0.05-0.003-0.075v-0.741c0-0.083,0.015-0.163,0.034-0.241
		c-0.008-0.058-0.034-0.106-0.034-0.167v-0.211c0-0.025,0.001-0.052,0.003-0.077c-0.002-0.023-0.003-0.048-0.003-0.072v-0.382
		c0-0.025,0.001-0.05,0.003-0.074c-0.002-0.025-0.003-0.05-0.003-0.075v-0.834c0-0.462,0.008-1.354,3.139-1.592
		C56.335,22.148,51.22,17.68,45.069,17.68H19.266v1.406c0,0.023-0.001,0.047-0.003,0.07c0.002,0.023,0.003,0.047,0.003,0.07
		c0,1.512-2.264,1.73-3.612,1.73h-2.547c-1.349,0-3.612-0.219-3.612-1.681v-0.211c0-0.025,0.001-0.052,0.003-0.077
		c-0.002-0.023-0.003-0.048-0.003-0.072v-0.382c0-0.025,0.001-0.05,0.003-0.074c-0.001-0.008,0-0.016-0.001-0.024
		c-4.809,1.742-8.26,6.342-8.26,11.744v2.633c0,6.893,5.608,12.5,12.5,12.5h2.325v-0.033c0-0.025,0.001-0.052,0.003-0.077
		c-0.002-0.023-0.003-0.048-0.003-0.072v-0.382c0-0.025,0.001-0.05,0.003-0.074c-0.002-0.025-0.003-0.05-0.003-0.075v-0.834
		c0-0.536,0-1.652,4.886-1.652s4.886,1.116,4.886,1.652V45.3c0,0.004-0.001,0.009-0.001,0.013h19.237
		c6.133,0,11.237-4.443,12.29-10.277C56.015,34.98,54.229,34.665,54.229,33.365z M52.569,32.812c0,4.136-3.364,7.5-7.5,7.5H13.736
		c-4.136,0-7.5-3.364-7.5-7.5V30.18c0-4.136,3.364-7.5,7.5-7.5h31.333c4.136,0,7.5,3.364,7.5,7.5V32.812z"/>
	<path d="M10.518,19.338v0.211c0,0.376,1.169,0.681,2.612,0.681h2.547c1.443,0,2.612-0.305,2.612-0.681c0-0.014,0-0.032,0-0.05
		C18.288,19.5,18.287,19.5,18.286,19.5c-0.023,0-0.046-0.012-0.058-0.034c-0.017-0.031-0.005-0.071,0.026-0.089l0.034-0.019
		c0-0.438,0-1.24,0-1.469c-0.652,0.511-2.376,0.528-2.612,0.528H13.13c-0.236,0-1.96-0.018-2.612-0.502v0.741l0.365,0.197
		c0.031,0.018,0.043,0.058,0.026,0.089c-0.013,0.022-0.035,0.034-0.058,0.034c-0.011,0-0.022-0.002-0.031-0.008l-0.303-0.163v0.382
		l0.044-0.023c0.031-0.016,0.071-0.006,0.089,0.026c0.018,0.032,0.006,0.071-0.026,0.089L10.518,19.338z M17.795,18.643l0.392,0.212
		c0.031,0.018,0.043,0.058,0.026,0.089c-0.012,0.022-0.034,0.034-0.058,0.034c-0.011,0-0.021-0.002-0.031-0.008l-0.392-0.212
		c-0.031-0.018-0.043-0.058-0.026-0.089C17.724,18.637,17.765,18.627,17.795,18.643z M17.547,19.377l0.392-0.212
		c0.03-0.016,0.071-0.006,0.089,0.026c0.017,0.032,0.005,0.071-0.026,0.089l-0.392,0.212c-0.01,0.006-0.021,0.008-0.031,0.008
		c-0.023,0-0.046-0.012-0.058-0.034C17.503,19.435,17.515,19.394,17.547,19.377z M17.087,18.643l0.392,0.212
		c0.031,0.018,0.043,0.058,0.026,0.089c-0.013,0.022-0.035,0.034-0.058,0.034c-0.011,0-0.021-0.002-0.031-0.008l-0.392-0.212
		c-0.032-0.018-0.044-0.058-0.026-0.089C17.016,18.637,17.056,18.627,17.087,18.643z M16.828,19.377l0.392-0.212
		c0.031-0.016,0.071-0.006,0.089,0.026c0.018,0.032,0.006,0.071-0.026,0.089l-0.392,0.212c-0.01,0.006-0.021,0.008-0.031,0.008
		c-0.022,0-0.045-0.012-0.058-0.034C16.785,19.435,16.797,19.394,16.828,19.377z M16.368,18.643l0.392,0.212
		c0.032,0.018,0.044,0.058,0.026,0.089c-0.012,0.022-0.034,0.034-0.058,0.034c-0.011,0-0.022-0.002-0.031-0.008l-0.392-0.212
		c-0.031-0.018-0.043-0.058-0.026-0.089C16.297,18.637,16.338,18.627,16.368,18.643z M16.048,19.377l0.392-0.212
		c0.03-0.016,0.071-0.006,0.089,0.026c0.017,0.032,0.005,0.071-0.026,0.089l-0.392,0.212c-0.01,0.006-0.021,0.008-0.031,0.008
		c-0.023,0-0.046-0.012-0.058-0.034C16.004,19.435,16.016,19.394,16.048,19.377z M15.588,18.643l0.392,0.212
		c0.031,0.018,0.043,0.058,0.026,0.089c-0.013,0.022-0.034,0.034-0.058,0.034c-0.011,0-0.021-0.002-0.031-0.008l-0.392-0.212
		c-0.032-0.018-0.044-0.058-0.026-0.089C15.517,18.637,15.558,18.627,15.588,18.643z M15.269,19.377l0.392-0.212
		c0.03-0.016,0.07-0.006,0.089,0.026c0.017,0.032,0.005,0.071-0.026,0.089l-0.393,0.212c-0.01,0.006-0.021,0.008-0.031,0.008
		c-0.022,0-0.045-0.012-0.058-0.034C15.225,19.435,15.236,19.394,15.269,19.377z M14.808,18.643l0.393,0.212
		c0.031,0.018,0.043,0.058,0.026,0.089c-0.013,0.022-0.035,0.034-0.058,0.034c-0.011,0-0.021-0.002-0.031-0.008l-0.392-0.212
		c-0.032-0.018-0.044-0.058-0.027-0.089C14.737,18.637,14.777,18.627,14.808,18.643z M14.487,19.377l0.392-0.212
		c0.03-0.016,0.071-0.006,0.089,0.026c0.018,0.032,0.006,0.071-0.026,0.089l-0.392,0.212c-0.01,0.006-0.021,0.008-0.031,0.008
		c-0.023,0-0.045-0.012-0.058-0.034C14.444,19.435,14.456,19.394,14.487,19.377z M14.027,18.643l0.392,0.212
		c0.032,0.018,0.044,0.058,0.026,0.089c-0.012,0.022-0.034,0.034-0.058,0.034c-0.011,0-0.021-0.002-0.031-0.008l-0.392-0.212
		c-0.031-0.018-0.043-0.058-0.026-0.089C13.956,18.637,13.997,18.627,14.027,18.643z M13.779,19.377l0.392-0.212
		c0.03-0.016,0.071-0.006,0.089,0.026c0.017,0.032,0.005,0.071-0.026,0.089l-0.392,0.212c-0.01,0.006-0.021,0.008-0.031,0.008
		c-0.023,0-0.046-0.012-0.058-0.034C13.736,19.435,13.748,19.394,13.779,19.377z M13.319,18.643l0.392,0.212
		c0.031,0.018,0.043,0.058,0.026,0.089c-0.012,0.022-0.034,0.034-0.058,0.034c-0.011,0-0.021-0.002-0.031-0.008l-0.392-0.212
		c-0.031-0.018-0.043-0.058-0.026-0.089C13.249,18.637,13.288,18.627,13.319,18.643z M13.071,19.377l0.392-0.212
		c0.03-0.016,0.071-0.006,0.089,0.026c0.017,0.032,0.005,0.071-0.026,0.089l-0.392,0.212c-0.01,0.006-0.021,0.008-0.031,0.008
		c-0.023,0-0.046-0.012-0.058-0.034C13.027,19.435,13.039,19.394,13.071,19.377z M12.611,18.643l0.392,0.212
		c0.031,0.018,0.043,0.058,0.026,0.089c-0.013,0.022-0.034,0.034-0.058,0.034c-0.011,0-0.021-0.002-0.031-0.008l-0.392-0.212
		c-0.032-0.018-0.044-0.058-0.026-0.089C12.54,18.637,12.58,18.627,12.611,18.643z M12.363,19.377l0.392-0.212
		c0.03-0.016,0.071-0.006,0.089,0.026c0.017,0.032,0.005,0.071-0.026,0.089l-0.393,0.212c-0.009,0.006-0.02,0.008-0.03,0.008
		c-0.023,0-0.046-0.012-0.058-0.034C12.319,19.435,12.331,19.394,12.363,19.377z M11.902,18.643l0.393,0.212
		c0.031,0.018,0.043,0.058,0.026,0.089c-0.013,0.022-0.035,0.034-0.058,0.034c-0.011,0-0.021-0.002-0.031-0.008l-0.392-0.212
		c-0.032-0.018-0.044-0.058-0.026-0.089C11.832,18.637,11.872,18.627,11.902,18.643z M11.655,19.377l0.392-0.212
		c0.03-0.016,0.07-0.006,0.089,0.026c0.017,0.032,0.005,0.071-0.026,0.089l-0.393,0.212c-0.01,0.006-0.021,0.008-0.031,0.008
		c-0.022,0-0.045-0.012-0.058-0.034C11.611,19.435,11.623,19.394,11.655,19.377z M11.194,18.643l0.393,0.212
		c0.031,0.018,0.043,0.058,0.026,0.089c-0.013,0.022-0.035,0.034-0.058,0.034c-0.011,0-0.022-0.002-0.031-0.008l-0.392-0.212
		c-0.032-0.018-0.044-0.058-0.027-0.089C11.124,18.637,11.164,18.627,11.194,18.643z M10.951,19.377l0.392-0.212
		c0.03-0.016,0.07-0.006,0.089,0.026c0.017,0.032,0.005,0.071-0.026,0.089l-0.393,0.212c-0.01,0.006-0.021,0.008-0.031,0.008
		c-0.022,0-0.045-0.012-0.058-0.034C10.907,19.435,10.919,19.394,10.951,19.377z"/>
	<path d="M10.518,17.297v0.211c0,0.376,1.169,0.681,2.612,0.681h2.547c1.443,0,2.612-0.305,2.612-0.681c0-0.014,0-0.032,0-0.05
		c-0.001,0.001-0.002,0.001-0.003,0.001c-0.023,0-0.046-0.012-0.058-0.034c-0.017-0.031-0.005-0.071,0.026-0.089l0.034-0.018
		c0-0.513,0-1.535,0-1.535c0-0.36-1.74-0.652-3.886-0.652c-2.146,0-3.886,0.292-3.886,0.652v0.834l0.365,0.197
		c0.031,0.018,0.043,0.058,0.026,0.089c-0.013,0.023-0.035,0.034-0.058,0.034c-0.011,0-0.022-0.002-0.031-0.008l-0.303-0.163v0.382
		l0.044-0.023c0.031-0.016,0.071-0.006,0.089,0.026c0.018,0.032,0.006,0.071-0.026,0.089L10.518,17.297z M12.817,17.239
		l-0.393,0.212c-0.009,0.006-0.02,0.008-0.03,0.008c-0.023,0-0.046-0.012-0.058-0.034c-0.018-0.031-0.006-0.071,0.026-0.089
		l0.392-0.212c0.03-0.016,0.071-0.006,0.089,0.026C12.86,17.183,12.849,17.222,12.817,17.239z M12.972,16.936
		c-0.011,0-0.021-0.002-0.031-0.008l-0.392-0.212c-0.032-0.018-0.044-0.058-0.026-0.089c0.017-0.032,0.058-0.042,0.089-0.026
		l0.392,0.212c0.031,0.018,0.043,0.058,0.026,0.089C13.017,16.925,12.995,16.936,12.972,16.936z M13.525,17.239l-0.392,0.212
		c-0.01,0.006-0.021,0.008-0.031,0.008c-0.023,0-0.046-0.012-0.058-0.034c-0.018-0.031-0.006-0.071,0.026-0.089l0.392-0.212
		c0.03-0.016,0.071-0.006,0.089,0.026C13.568,17.183,13.557,17.222,13.525,17.239z M13.68,16.936c-0.011,0-0.021-0.002-0.031-0.008
		l-0.392-0.212c-0.031-0.018-0.043-0.058-0.026-0.089c0.019-0.032,0.058-0.042,0.089-0.026l0.392,0.212
		c0.031,0.018,0.043,0.058,0.026,0.089C13.726,16.925,13.703,16.936,13.68,16.936z M14.233,17.239l-0.392,0.212
		c-0.01,0.006-0.021,0.008-0.031,0.008c-0.023,0-0.046-0.012-0.058-0.034c-0.017-0.031-0.005-0.071,0.026-0.089l0.392-0.212
		c0.03-0.016,0.071-0.006,0.089,0.026C14.276,17.183,14.265,17.222,14.233,17.239z M14.388,16.936c-0.011,0-0.021-0.002-0.031-0.008
		l-0.392-0.212c-0.031-0.018-0.043-0.058-0.026-0.089c0.018-0.032,0.059-0.042,0.089-0.026l0.392,0.212
		c0.032,0.018,0.044,0.058,0.026,0.089C14.434,16.925,14.411,16.936,14.388,16.936z M14.941,17.239l-0.392,0.212
		c-0.01,0.006-0.021,0.008-0.031,0.008c-0.023,0-0.045-0.012-0.058-0.034c-0.017-0.031-0.005-0.071,0.026-0.089l0.392-0.212
		c0.03-0.016,0.071-0.006,0.089,0.026C14.985,17.183,14.974,17.222,14.941,17.239z M15.169,16.936c-0.011,0-0.021-0.002-0.031-0.008
		l-0.392-0.212c-0.032-0.018-0.044-0.058-0.027-0.089c0.018-0.032,0.058-0.042,0.089-0.026l0.393,0.212
		c0.031,0.018,0.043,0.058,0.026,0.089C15.214,16.925,15.191,16.936,15.169,16.936z M15.723,17.239l-0.393,0.212
		c-0.01,0.006-0.021,0.008-0.031,0.008c-0.022,0-0.045-0.012-0.058-0.034c-0.017-0.031-0.005-0.071,0.027-0.089l0.392-0.212
		c0.03-0.016,0.07-0.006,0.089,0.026C15.766,17.183,15.754,17.222,15.723,17.239z M15.948,16.936c-0.011,0-0.021-0.002-0.031-0.008
		l-0.392-0.212c-0.032-0.018-0.044-0.058-0.026-0.089c0.018-0.032,0.059-0.042,0.089-0.026l0.392,0.212
		c0.031,0.018,0.043,0.058,0.026,0.089C15.993,16.925,15.972,16.936,15.948,16.936z M16.502,17.239l-0.392,0.212
		c-0.01,0.006-0.021,0.008-0.031,0.008c-0.023,0-0.046-0.012-0.058-0.034c-0.018-0.031-0.006-0.071,0.026-0.089l0.392-0.212
		c0.03-0.016,0.071-0.006,0.089,0.026C16.545,17.183,16.533,17.222,16.502,17.239z M17.795,16.602l0.392,0.212
		c0.031,0.018,0.043,0.058,0.026,0.089c-0.012,0.023-0.034,0.034-0.058,0.034c-0.011,0-0.021-0.002-0.031-0.008l-0.392-0.212
		c-0.031-0.018-0.043-0.058-0.026-0.089C17.724,16.596,17.765,16.586,17.795,16.602z M17.547,17.336l0.392-0.212
		c0.03-0.016,0.071-0.006,0.089,0.026c0.017,0.032,0.005,0.071-0.026,0.089l-0.392,0.212c-0.01,0.006-0.021,0.008-0.031,0.008
		c-0.023,0-0.046-0.012-0.058-0.034C17.503,17.394,17.515,17.353,17.547,17.336z M17.087,16.602l0.392,0.212
		c0.031,0.018,0.043,0.058,0.026,0.089c-0.013,0.023-0.035,0.034-0.058,0.034c-0.011,0-0.021-0.002-0.031-0.008l-0.392-0.212
		c-0.032-0.018-0.044-0.058-0.026-0.089C17.016,16.596,17.056,16.586,17.087,16.602z M16.828,17.336l0.392-0.212
		c0.031-0.016,0.071-0.006,0.089,0.026c0.018,0.032,0.006,0.071-0.026,0.089l-0.392,0.212c-0.01,0.006-0.021,0.008-0.031,0.008
		c-0.022,0-0.045-0.012-0.058-0.034C16.785,17.394,16.797,17.353,16.828,17.336z M16.786,16.902
		c-0.012,0.023-0.034,0.034-0.058,0.034c-0.011,0-0.022-0.002-0.031-0.008l-0.392-0.212c-0.031-0.018-0.043-0.058-0.026-0.089
		c0.018-0.032,0.059-0.042,0.089-0.026l0.392,0.212C16.792,16.831,16.804,16.871,16.786,16.902z M14.295,15.51
		c1.163,0,2.106,0.159,2.106,0.354c0,0.195-0.943,0.355-2.106,0.355c-1.163,0-2.106-0.159-2.106-0.355
		C12.188,15.669,13.132,15.51,14.295,15.51z M11.902,16.602l0.393,0.212c0.031,0.018,0.043,0.058,0.026,0.089
		c-0.013,0.023-0.035,0.034-0.058,0.034c-0.011,0-0.021-0.002-0.031-0.008l-0.392-0.212c-0.032-0.018-0.044-0.058-0.026-0.089
		C11.832,16.596,11.872,16.586,11.902,16.602z M11.655,17.336l0.392-0.212c0.03-0.016,0.07-0.006,0.089,0.026
		c0.017,0.032,0.005,0.071-0.026,0.089l-0.393,0.212c-0.01,0.006-0.021,0.008-0.031,0.008c-0.022,0-0.045-0.012-0.058-0.034
		C11.611,17.394,11.623,17.353,11.655,17.336z M11.194,16.602l0.393,0.212c0.031,0.018,0.043,0.058,0.026,0.089
		c-0.013,0.023-0.035,0.034-0.058,0.034c-0.011,0-0.022-0.002-0.031-0.008l-0.392-0.212c-0.032-0.018-0.044-0.058-0.027-0.089
		C11.124,16.596,11.164,16.586,11.194,16.602z M10.951,17.336l0.392-0.212c0.03-0.016,0.07-0.006,0.089,0.026
		c0.017,0.032,0.005,0.071-0.026,0.089l-0.393,0.212c-0.01,0.006-0.021,0.008-0.031,0.008c-0.022,0-0.045-0.012-0.058-0.034
		C10.907,17.394,10.919,17.353,10.951,17.336z"/>
</g>
</svg>
