<?xml version="1.0" encoding="iso-8859-1"?>
<!-- Generator: Adobe Illustrator 17.1.0, SVG Export Plug-In . SVG Version: 6.00 Build 0)  -->
<!DOCTYPE svg PUBLIC "-//W3C//DTD SVG 1.1//EN" "http://www.w3.org/Graphics/SVG/1.1/DTD/svg11.dtd">
<svg version="1.1" id="Capa_1" xmlns="http://www.w3.org/2000/svg" xmlns:xlink="http://www.w3.org/1999/xlink" x="0px" y="0px"
	 viewBox="0 0 64 64" style="enable-background:new 0 0 64 64;" xml:space="preserve">
<path d="M60.128,35.618c-0.756-0.358-1.769-1.038-2.303-2.241c-0.944-2.124-2.88-5.226-8.768-7.634
	c-1.366-0.559-3.015-0.842-4.9-0.842c-1.787,0-3.656,0.262-5.411,0.658l-3.844-1.318l-0.722-4.546
	c-0.061-0.379-0.229-0.712-0.464-0.983l0.021-0.247c-0.115-0.54-0.656-0.956-1.207-0.929l-5.566,0.276
	c-0.066,0.003-0.126,0.031-0.19,0.047l-3.623-1.91l-2.371-4.337l4.754-4.507c0.946-0.898,1.413-2.568,1.038-3.733
	c-0.372-1.163-1.441-1.38-2.389-0.48l-2.002,1.898l-2.965-0.494c-1.286-0.214-2.212,0.663-2.067,1.96l0.336,2.986l-1.661,1.575
	c-0.948,0.898-0.957,2.136-0.023,2.768c0.272,0.183,0.595,0.286,0.937,0.33l2.669,4.881c0.22,0.401,0.552,0.727,0.956,0.941
	l5.053,2.664c0.057,0.03,0.116,0.042,0.174,0.066l-0.711,8.71c-1.162,0.322-2.579,0.699-4.389,1.172
	c-3.598,0.94-5.576,2.321-6.671,3.606c-1.177-0.084-5.725-0.227-8.391,2.171c-1.281,1.153-1.931,2.717-1.93,4.646
	c0.002,6.289,0.237,9.254,1.69,11.335c0.084,0.119,0.215,0.196,0.359,0.211c0.017,0.002,0.034,0.003,0.051,0.003
	c0.127,0,0.25-0.049,0.344-0.137c0.048-0.046,4.787-4.623,2.52-10.504c-0.281-0.728-0.271-1.28,0.029-1.689
	c0.702-0.957,2.861-1.042,3.635-0.989c0.13,0.011,0.251-0.034,0.347-0.113l-0.104,8.598C8.88,52.778,8.389,57.942,8.41,60.754
	c0.011,1.342,1.2,2.475,2.619,2.475l0.719-0.006c0.606-0.006,1.067-0.187,1.371-0.54c0.348-0.404,0.46-0.999,0.343-1.817
	c-0.092-0.641-0.123-1.446-0.094-2.395c0.073-2.389,1.207-4.211,2.027-5.129c-0.887,1.998-0.191,5.239,0.577,7.67
	c0.389,1.232,1.8,2.234,3.145,2.234h0.25c0.86,0,1.267-0.356,1.456-0.653c0.201-0.317,0.355-0.879-0.059-1.755
	c-1.355-2.878-1.555-6.911,1.213-8.966c3.312-2.457,3.894-6.166,3.994-7.528l3.823,0.104l-0.594,2.428
	c-0.392,1.608,0.503,3.197,2.001,3.546c1.498,0.349,3.017-0.678,3.391-2.291l0.834-3.599c2.375-0.166,3.857-0.814,4.414-1.104
	c0.275,0.145,0.773,0.47,0.999,1.017c0.208,0.502,0.149,1.106-0.176,1.799c-0.614,1.31-1.996,2.116-3.049,2.562
	c-1.095,0.467-2.222,1.657-2.258,3.026c-0.018,0.656,0.229,1.295,0.676,1.754c0.488,0.502,1.152,0.729,1.85,0.612
	c3.712-0.643,6.048-3.434,7.354-5.662c1.52-2.59,0.961-7.071-1.05-8.413c-0.215-0.144-0.267-0.289-0.191-0.537
	c0.327-1.081,2.632-2.629,3.914-2.629c0.426,0,0.736,0.148,0.948,0.453c0.572,0.823,0.424,2.632-0.396,4.837
	c-0.736,1.979-0.359,3.16,0.087,3.802c0.764,1.097,2.411,1.376,3.855,0.652c2.244-1.122,7.133-7.455,7.359-7.752l0.945-1.418
	c0.219-0.328,0.286-0.7,0.19-1.047C60.797,36.115,60.523,35.808,60.128,35.618z M12.372,40.05l0.115-0.246l-0.004,0.326
	C12.448,40.1,12.414,40.069,12.372,40.05z"/>
<circle cx="29.864" cy="10.814" r="4.623"/>
</svg>
