<?xml version="1.0" encoding="iso-8859-1"?>
<!-- Generator: Adobe Illustrator 17.1.0, SVG Export Plug-In . SVG Version: 6.00 Build 0)  -->
<!DOCTYPE svg PUBLIC "-//W3C//DTD SVG 1.1//EN" "http://www.w3.org/Graphics/SVG/1.1/DTD/svg11.dtd">
<svg version="1.1" id="Capa_1" xmlns="http://www.w3.org/2000/svg" xmlns:xlink="http://www.w3.org/1999/xlink" x="0px" y="0px"
	 viewBox="0 0 64 64" style="enable-background:new 0 0 64 64;" xml:space="preserve">
<path d="M57.79,43.569c-0.836-0.386-2.164-2.593-2.358-3.074c0.044-0.072,0.109-0.167,0.185-0.281
	c0.645-0.972,2.152-3.248,0.7-5.235c-0.124-0.17-0.343-0.242-0.544-0.185c-0.203,0.06-0.346,0.239-0.358,0.45
	c-0.134,2.24-1.738,3.338-2.09,3.552c-0.635,0.106-1.312,0.12-1.66,0.09c-0.271-0.872-0.685-2.587-0.367-3.435
	c0.093-0.247,0.176-0.563-0.006-0.825c-0.094-0.135-0.303-0.243-0.467-0.243c-0.801,0-2.197,2.191-2.355,4.475
	c-0.622,0.042-2.291-0.037-5.857-1.392c-0.082-0.305-0.235-0.59-0.446-0.78l-3.08-2.785c-0.41-0.37-0.639-1.106-0.513-1.645
	l0.609-4.193l8.122,3.333c0.249,0.102,0.506,0.15,0.759,0.15c0.787,0,1.534-0.468,1.852-1.241c0.419-1.022-0.069-2.19-1.091-2.609
	l-7.467-3.065l-0.457-4.88c-0.034-0.371-0.175-0.704-0.38-0.984c-0.096-0.533-0.598-0.967-1.14-0.972l-5.572-0.054
	c-0.142-0.001-0.279,0.028-0.408,0.079l-3.997-2.107l-2.517-4.603c-0.616-1.127-2.028-1.54-3.155-0.924
	c-0.029,0.016-0.053,0.039-0.081,0.056c-1.296-1.382-2.696-1.798-2.824-1.831c-0.016-0.002-1.577-0.23-2.381-1.199
	c-0.781-0.942-1.64-3.171-1.821-3.656c0.062-1.497-0.172-2.808-1.065-3.029C15.483,0.509,15.406,0.5,15.329,0.5
	c-1.499,0-2.748,3.441-3.249,5.475c-0.544,2.207-1.04,6.045,0.549,6.439c0.074,0.018,0.151,0.027,0.229,0.027
	c1.499,0,2.748-3.441,3.249-5.475c0.101-0.408,0.199-0.873,0.284-1.361c0.366,0.805,0.826,1.693,1.284,2.245
	c1.048,1.263,2.907,1.536,2.943,1.536h0.001c0.016,0.005,1.197,0.368,2.305,1.549c-0.467,0.697-0.548,1.619-0.118,2.406l2.853,5.217
	c0.22,0.401,0.552,0.728,0.956,0.941l5.053,2.664c0.158,0.083,0.322,0.141,0.487,0.185l-0.816,5.768
	c-1.642-1.797-3.361-3.233-5.554-3.501c-0.501-1.331-2.695-6.311-7.592-6.544c-3.868-0.179-6.883,1.233-8.28,2.056
	c-0.348,0.205-0.566,0.524-0.615,0.898c-0.051,0.395,0.098,0.801,0.406,1.115c0.478,0.484,1.136,1.229,1.56,2.026
	c0.406,0.762,1.268,0.969,1.909,0.449l1.769-1.431c0.023-0.021,0.575-0.505,1.688-0.505c0.645,0,1.348,0.164,2.092,0.487
	c1.975,0.859,2.566,1.683,2.713,2.223c0.11,0.404-0.014,0.713-0.083,0.843c-0.55,0.32-2.9,1.765-4.071,3.687
	c-0.239,0.392-0.472,0.473-0.748,0.473c-0.373,0-0.854-0.164-1.412-0.354c-0.78-0.266-1.751-0.596-2.854-0.596
	c-0.565,0-1.127,0.088-1.67,0.262l-1.916,0.607c-1.267,0.4-2.265,0.716-3.146,1.022c-1.292,0.449-2.002,1.906-1.564,3.314
	c0.325,1.037,1.252,1.708,2.362,1.708c0.249,0,0.499-0.036,0.742-0.105c1.166-0.331,2.934-0.727,4.732-0.727
	c1.948,0,3.523,0.458,4.681,1.361c1.539,1.2,2.911,2.103,4.238,2.976c2.221,1.462,4.318,2.842,6.657,5.337l0.952,1.012
	c3.325,3.53,6.466,6.864,7.955,10.441c0.639,1.529,1.284,2.9,1.918,4.076c0.553,1.026,1.936,1.801,3.217,1.801
	c0.097,0,0.191-0.004,0.285-0.013l0.399-0.039c0.694-0.067,1.289-0.414,1.632-0.952c0.332-0.521,0.396-1.181,0.173-1.809
	c-0.468-1.321-0.964-2.475-1.476-3.429c-0.857-1.6-0.723-2.513-0.637-2.81c0.222-0.096,0.665-0.257,1.132-0.257
	c0.838,0,1.369,0.524,1.625,1.604c0.439,1.856,1.491,3.751,2.296,5.014c0.668,1.046,2.232,1.878,3.56,1.895l1.34,0.016
	c0.732,0,1.191-0.213,1.367-0.635c0.181-0.435-0.01-0.938-0.565-1.497c-1.431-1.437-3.136-3.801-3.136-6.907
	c0-0.808-0.016-1.502-0.028-2.098c-0.033-1.519-0.054-2.435,0.241-2.736c0.235-0.242,0.938-0.301,2.354-0.268
	c3.76,0.091,6.533-0.653,6.643-0.684c0.202-0.055,0.349-0.23,0.366-0.439C59.016,46.252,59.152,44.198,57.79,43.569z M15.136,6.727
	c-0.798,3.234-1.931,4.665-2.267,4.713c-0.275-0.2-0.613-1.995,0.183-5.227c0.807-3.27,1.957-4.697,2.258-4.719
	C15.586,1.659,15.942,3.457,15.136,6.727z"/>
<path d="M43.368,4.84c0.03-1.314-0.981-1.91-2.259-1.331l-2.702,1.223l-2.838-1.545c-1.231-0.671-2.48-0.105-2.79,1.263
	l-0.711,3.151l-2.242,1.016c-1.279,0.579-1.725,1.834-0.998,2.805c0.729,0.97,2.356,1.287,3.634,0.708l0.186-0.084
	c0.385,1.533,1.529,2.832,3.153,3.314c2.449,0.725,5.021-0.672,5.745-3.12c0.413-1.396,0.12-2.819-0.647-3.93l0.099-0.044
	C42.275,7.688,43.337,6.154,43.368,4.84z"/>
</svg>
