<?xml version="1.0" encoding="iso-8859-1"?>
<!-- Generator: Adobe Illustrator 17.1.0, SVG Export Plug-In . SVG Version: 6.00 Build 0)  -->
<!DOCTYPE svg PUBLIC "-//W3C//DTD SVG 1.1//EN" "http://www.w3.org/Graphics/SVG/1.1/DTD/svg11.dtd">
<svg version="1.1" id="Capa_1" xmlns="http://www.w3.org/2000/svg" xmlns:xlink="http://www.w3.org/1999/xlink" x="0px" y="0px"
	 viewBox="0 0 64 64" style="enable-background:new 0 0 64 64;" xml:space="preserve">
<g>
	<path d="M10.799,47.335h13.869l-7.028,7.177c-0.343,0.354-0.335,0.92,0.018,1.263c0.167,0.164,0.389,0.254,0.623,0.254
		c0.241,0,0.474-0.099,0.64-0.269l8.249-8.424h23.144c1.302,0,3.208-0.628,4.214-1.455c0.919-0.756,1.992-1.696,2.755-2.541
		c1.085-1.026,2.323-2.472-0.445-2.388c-0.73,0.026-21.625,0.002-23.417,0l4.93-5.034l2.319-2.304l2.95,0.959
		c1.089,0.354,2.35-0.084,2.815-0.979c0.465-0.895,0.028-1.925-0.977-2.3l-1.82-0.681l5.72-5.728
		c1.308,0.692,2.966,0.509,4.068-0.593l4.867-4.874c1.371-1.361,1.371-3.551,0-4.907c-1.35-1.363-3.56-1.363-4.909,0l-4.864,4.873
		c-1.139,1.131-1.308,2.838-0.55,4.156l-6.05,6.178l-11.96-4.424c-0.155-0.089-1.48-0.605-2.806-1.113
		c-1.558-0.598-3.176,0.061-3.611,1.461l-0.787,2.535l-3.694,12.387c-0.049,0.14-0.063,0.268-0.078,0.388H4.903
		c-1.302,0-1.847,0.924-1.215,2.063l2.43,2.258C7.516,46.416,9.497,47.335,10.799,47.335z M31.935,32.158
		c0.188-0.624,0.847-0.982,1.472-0.799l5.372,1.566l-3.455,3.528l-4.544,4.498h-1.485L31.935,32.158z"/>
	<circle cx="29.459" cy="17.634" r="5.472"/>
</g>
</svg>
