<?xml version="1.0" encoding="iso-8859-1"?>
<!-- Generator: Adobe Illustrator 17.1.0, SVG Export Plug-In . SVG Version: 6.00 Build 0)  -->
<!DOCTYPE svg PUBLIC "-//W3C//DTD SVG 1.1//EN" "http://www.w3.org/Graphics/SVG/1.1/DTD/svg11.dtd">
<svg version="1.1" id="Capa_1" xmlns="http://www.w3.org/2000/svg" xmlns:xlink="http://www.w3.org/1999/xlink" x="0px" y="0px"
	 viewBox="0 0 64 64" style="enable-background:new 0 0 64 64;" xml:space="preserve">
<g>
	<path d="M35.176,34.853l7.901-13.154c0.569-0.947,0.315-2.255-0.565-2.921l-3.583-2.71c-0.881-0.666-1.856-1.572-2.33-1.809
		c-0.279-0.14-0.592-0.218-0.926-0.218H24.998c-0.78,0-1.496,0.429-1.864,1.116l-5.337,9.971c-0.551,1.029-0.164,2.311,0.866,2.862
		c0.318,0.17,0.659,0.251,0.996,0.251c0.755,0,1.485-0.405,1.866-1.117l4.74-8.854h7.342L26.08,29.048
		c-0.004,0.025-0.021,0.04-0.034,0.06l-6.149,9.758H7.802c-1.502,0-2.719,1.218-2.719,2.72c0,1.501,1.217,2.719,2.719,2.719h13.595
		c0.934,0,1.802-0.479,2.3-1.27l5.113-8.114l5.158,8.279l-5.151,9.643c-0.707,1.324-0.207,2.972,1.117,3.679
		c0.408,0.219,0.846,0.321,1.279,0.321c0.971,0,1.911-0.521,2.401-1.438l5.891-11.027c0.458-0.858,0.423-1.894-0.09-2.719
		L35.176,34.853z"/>
	<circle cx="44.107" cy="12.355" r="4.985"/>
	<path d="M50.956,27.541c0.698-1.458,1.022-3.05,1.156-4.237c0.112-0.995-0.711-1.867-1.71-1.806
		c-2.043,0.124-5.289,0.715-6.875,3.095c-1.339,2.01-1.773,3.995-1.896,5.365c-0.088,0.997,0.819,1.868,1.819,1.812
		c1.307-0.072,3.098-0.335,4.615-1.115l1.887,2.126c0.417,0.472,0.999,0.712,1.583,0.712c0.499,0,1-0.177,1.403-0.533
		c0.873-0.775,0.953-2.112,0.178-2.986L50.956,27.541z"/>
</g>
</svg>
