<?xml version="1.0" encoding="iso-8859-1"?>
<!-- Generator: Adobe Illustrator 17.1.0, SVG Export Plug-In . SVG Version: 6.00 Build 0)  -->
<!DOCTYPE svg PUBLIC "-//W3C//DTD SVG 1.1//EN" "http://www.w3.org/Graphics/SVG/1.1/DTD/svg11.dtd">
<svg version="1.1" id="Capa_1" xmlns="http://www.w3.org/2000/svg" xmlns:xlink="http://www.w3.org/1999/xlink" x="0px" y="0px"
	 viewBox="0 0 64 64" style="enable-background:new 0 0 64 64;" xml:space="preserve">
<g>
	<path d="M19.117,53.405c0.341,0.511,0.946,0.804,1.661,0.804h18.625c0.661,0,1.023-0.184,1.23-0.397
		c0.019,0.02,0.037,0.04,0.056,0.06c0.196,0.202,0.457,0.304,0.717,0.304c0.251,0,0.502-0.094,0.697-0.282
		c0.396-0.385,0.405-1.019,0.021-1.414c-7.929-8.166-6.74-19.418-6.727-19.53c0.063-0.548-0.33-1.044-0.878-1.108
		c-0.545-0.069-1.044,0.328-1.108,0.876c-0.02,0.169-0.179,1.645-0.043,3.865c-0.371-0.095-0.777-0.094-1.192,0.051
		c-3.812,1.348-6.317,2.834-7.443,4.416c-0.35,0.493-0.629,1.164-0.897,1.812c-0.252,0.608-0.512,1.236-0.804,1.641
		c-1.085,1.5-1.946,2.935-2.626,4.211V48.71h-1.638l-0.509,1.867c-0.122,0.445-0.525,0.737-0.964,0.737
		c-0.087,0-0.175-0.011-0.264-0.035c-0.533-0.146-0.847-0.695-0.702-1.228l0.366-1.342H15.69l-0.509,1.867
		c-0.122,0.445-0.524,0.737-0.964,0.737c-0.087,0-0.175-0.011-0.264-0.035c-0.533-0.146-0.847-0.695-0.702-1.228l0.366-1.342H4.487
		c-1.104,0-2,0.765-2,1.708v1.708h16.382C18.789,52.589,18.872,53.038,19.117,53.405z"/>
	<path d="M60.854,17.968c-3.619-2.112-4.752-6.211-5.071-7.875c-0.11-0.574-0.43-1.02-0.899-1.256
		c-0.471-0.234-1.019-0.224-1.547,0.033c-2.721,1.325-5.762,1.383-5.793,1.384c-0.186,0.002-0.35,0.069-0.497,0.16
		c-0.686-0.263-1.586-0.409-2.792-0.454L44.06,9.956c-2.47,0-4.435,1.735-5.387,2.769c-0.186,0.202-0.348,0.305-0.427,0.34
		c-0.438-0.254-1.101-0.019-1.645,0.673c-0.425,0.54-0.691,1.461-0.619,2.142c0.42,3.993,1.482,13.47,2.278,15.223
		c0.503,1.107,0.197,2.401-0.149,3.291c-0.082,0.21-0.489,1.295-0.497,2.079c-0.077,7.241,4.076,12.946,5.865,15.064
		c0.413,0.488,1.274,0.993,2,0.993l0.066-0.001c0.854-0.036,1.5-0.33,1.919-0.873c0.707-0.918,0.439-2.189,0.433-2.212
		c-0.01-0.063-0.977-6.439-0.062-12.6c0.663-4.468,4.121-7.001,5.603-8.087c0.292-0.214,0.451-0.514,0.448-0.846
		c-0.001-0.104-0.018-0.207-0.048-0.309c1.735-3.027,5.556-5.854,7.131-6.935c0.5-0.343,0.776-0.843,0.757-1.371
		C61.706,18.765,61.389,18.28,60.854,17.968z M39.588,20.844l4.221,0.632l0.431,1.842l-4.412-0.756L39.588,20.844z M45.479,52.03
		v-0.007h0L45.479,52.03z M41.245,31.707l-0.253-1.718l4.5,0.639l0.454,1.844L41.245,31.707z M40.632,27.225l-0.301-1.72
		l5.551,0.663l0.542,1.849L40.632,27.225z M52.385,26.167c-0.489-0.383-0.996-0.796-1.399-1.133
		c-0.608-0.507-1.503-0.545-1.947-0.074c-0.074,0.078-0.393,0.286-0.679,0.035c-1.058-0.922-2.222-3.296-2.27-5.36
		c-0.032-1.375,0.803-2.318,1.611-3.23c0.622-0.702,1.209-1.365,1.263-2.161c0.058-0.857-0.014-1.522-0.196-2.074
		c1.216-0.132,3.186-0.473,5.122-1.349c0.436,2.015,1.747,6.105,5.439,8.554C57.523,20.66,54.227,23.261,52.385,26.167z"/>
</g>
</svg>
