<?xml version="1.0" encoding="iso-8859-1"?>
<!-- Generator: Adobe Illustrator 17.1.0, SVG Export Plug-In . SVG Version: 6.00 Build 0)  -->
<!DOCTYPE svg PUBLIC "-//W3C//DTD SVG 1.1//EN" "http://www.w3.org/Graphics/SVG/1.1/DTD/svg11.dtd">
<svg version="1.1" id="Capa_1" xmlns="http://www.w3.org/2000/svg" xmlns:xlink="http://www.w3.org/1999/xlink" x="0px" y="0px"
	 viewBox="0 0 64 64" style="enable-background:new 0 0 64 64;" xml:space="preserve">
<g>
	<circle cx="32.435" cy="21.465" r="3.555"/>
	<path d="M59.996,53.754h-45.74c-0.553,0-1,0.448-1,1c0,0.552,0.447,1,1,1h45.74c0.553,0,1-0.448,1-1
		C60.996,54.202,60.549,53.754,59.996,53.754z"/>
	<path d="M60.996,26.752c0-0.552-0.447-1-1-1H39.485c-0.28-0.335-0.695-0.552-1.169-0.552c-0.374,0-0.717,0.133-0.979,0.359
		l-3.774,3.766l-4.557-4.553c-0.347-0.333-0.813-0.547-1.338-0.547l-7.143,0.004c-0.459,0-0.867,0.209-1.144,0.534l-4.931,5.682
		c-0.306,0.271-0.497,0.667-0.497,1.112c0,0.813,0.659,1.475,1.48,1.475c0.458,0,0.871-0.205,1.143-0.537l4.574-5.286l2.636,0.013
		L13.709,38.906l-6.813-0.018c-0.155-0.004-0.315,0.009-0.481,0.044c-1.021,0.227-1.657,1.231-1.423,2.254
		c0.202,0.898,1.006,1.502,1.892,1.489l7.921-0.014c1.676,0.058,2.311-0.72,2.311-0.72l3.907-4.357l4.539,4.414l-1.84,8.193
		c-0.045,0.151-0.063,0.312-0.063,0.481c0,1.049,0.854,1.902,1.903,1.902c0.915,0,1.686-0.653,1.862-1.519l2.234-9.961h30.339
		c0.553,0,1-0.448,1-1s-0.447-1-1-1H29.564c-0.128-0.242-0.258-0.368-0.258-0.368l-4.001-3.996l4.364-5.046l2.793,2.805
		c0,0,1.11,1.169,2.489-0.208l4.499-4.529h20.546C60.549,27.752,60.996,27.305,60.996,26.752z"/>
	<path d="M59.996,12.954h-45.74c-0.553,0-1,0.448-1,1c0,0.552,0.447,1,1,1h45.74c0.553,0,1-0.448,1-1
		C60.996,13.402,60.549,12.954,59.996,12.954z"/>
	<path d="M51.236,48.988c-0.298,0.818,0.124,1.609,1.49,1.609c1.249,0,2.385-0.701,2.765-1.744c0.265-0.728-0.028-1.232-0.577-1.475
		l0.01-0.026c0.752-0.315,1.199-0.827,1.379-1.321c0.262-0.72-0.029-1.475-1.296-1.475c-1.105,0-2.186,0.648-2.533,1.601
		c-0.186,0.513-0.085,0.999,0.419,1.295l-0.01,0.026C52.1,47.774,51.498,48.268,51.236,48.988z M53.541,46.111
		c0.153-0.422,0.576-0.791,1.133-0.791c0.594,0,0.682,0.422,0.535,0.827c-0.16,0.44-0.602,0.765-1.049,0.881
		C53.658,46.875,53.367,46.587,53.541,46.111z M53.646,47.846c0.591,0.18,0.904,0.504,0.689,1.097
		c-0.184,0.504-0.704,0.872-1.288,0.872c-0.62,0-0.835-0.449-0.634-0.953C52.587,48.386,53.043,47.998,53.646,47.846z"/>
	<polygon points="52.211,36.543 53.371,36.543 57.711,31.41 57.97,30.7 54.042,30.7 53.708,31.616 56.467,31.616 56.461,31.635 	"/>
	<path d="M57.705,18.683c0.226-0.027,0.408-0.037,0.567-0.027l0.317-0.872c-0.132-0.009-0.311-0.009-0.567,0.027
		c-0.859,0.063-1.674,0.351-2.391,0.863c-0.819,0.576-1.556,1.483-1.964,2.607c-0.527,1.447-0.138,2.526,1.282,2.526
		c1.24,0,2.412-0.971,2.817-2.086c0.432-1.187-0.088-1.906-1.096-1.906c-0.584,0-1.109,0.234-1.518,0.566h-0.027
		C55.565,19.572,56.422,18.826,57.705,18.683z M56.027,20.625c0.648,0,0.842,0.476,0.594,1.159c-0.256,0.702-0.804,1.195-1.37,1.195
		c-0.728,0-0.858-0.628-0.595-1.402c0.056-0.152,0.122-0.261,0.199-0.351C55.154,20.876,55.614,20.625,56.027,20.625z"/>
</g>
</svg>
