<?xml version="1.0" encoding="iso-8859-1"?>
<!-- Generator: Adobe Illustrator 17.1.0, SVG Export Plug-In . SVG Version: 6.00 Build 0)  -->
<!DOCTYPE svg PUBLIC "-//W3C//DTD SVG 1.1//EN" "http://www.w3.org/Graphics/SVG/1.1/DTD/svg11.dtd">
<svg version="1.1" id="Capa_1" xmlns="http://www.w3.org/2000/svg" xmlns:xlink="http://www.w3.org/1999/xlink" x="0px" y="0px"
	 viewBox="0 0 64 64" style="enable-background:new 0 0 64 64;" xml:space="preserve">
<g>
	<path d="M42.859,47.989c0.424-0.042,0.729-0.42,0.674-0.842c-0.615-4.815-4.419-31.06-15.444-42.622
		c-0.294-0.309-0.552-0.205-0.567,0.222L26.031,48.91c-0.015,0.426,0.317,0.736,0.741,0.694L42.859,47.989z"/>
	<path d="M48.362,53.904c-11.638,2.222-28.62-0.049-33.716-0.823c-0.83-0.126-1.223,0.593-0.656,1.4
		c2.572,3.665,8.034,3.668,8.034,3.668s5.289,0,13.285,0c5.805,0,10.848-2.406,13.175-3.722
		C49.251,53.992,49.188,53.746,48.362,53.904z"/>
</g>
</svg>
