<?xml version="1.0" encoding="iso-8859-1"?>
<!-- Generator: Adobe Illustrator 17.1.0, SVG Export Plug-In . SVG Version: 6.00 Build 0)  -->
<!DOCTYPE svg PUBLIC "-//W3C//DTD SVG 1.1//EN" "http://www.w3.org/Graphics/SVG/1.1/DTD/svg11.dtd">
<svg version="1.1" id="Capa_1" xmlns="http://www.w3.org/2000/svg" xmlns:xlink="http://www.w3.org/1999/xlink" x="0px" y="0px"
	 viewBox="0 0 64 64" style="enable-background:new 0 0 64 64;" xml:space="preserve">
<g>
	<path style="fill:#1D1D1B;" d="M45.926,12.159c-1.479-1.122-3.318-1.796-5.319-1.796H18.055c-4.874,0-8.826,3.953-8.826,8.826
		v22.553c0,2.123,0.751,4.07,2,5.594c1.006,4.811,5.279,8.436,10.384,8.436h22.551c5.849,0,10.607-4.759,10.607-10.609V22.609
		C54.771,17.36,50.937,13.002,45.926,12.159z M42.873,41.777h0.733v3.82h-0.863v-3.026h-0.012l-0.729,0.346l-0.146-0.67
		L42.873,41.777z M28.076,33.24c-3.936-1.312-5.44-3.434-5.401-5.672c0-3.55,3.009-6.211,7.677-6.211
		c2.199,0,4.129,0.54,5.285,1.118l-1.002,4.052c-0.85-0.463-2.508-1.081-4.09-1.081c-1.428,0-2.237,0.58-2.237,1.504
		c0,0.927,0.733,1.39,3.047,2.199c3.588,1.234,5.054,3.087,5.093,5.826c0,3.549-2.739,6.135-8.14,6.135
		c-2.469,0-4.668-0.58-6.096-1.352l1.042-4.167c1.079,0.657,3.318,1.39,5.054,1.39c1.774,0,2.507-0.578,2.507-1.543
		C30.815,34.436,30.236,33.973,28.076,33.24z M51.205,45.162c0,3.883-3.158,7.043-7.041,7.043H21.613
		c-1.747,0-3.344-0.644-4.576-1.7c0.334,0.039,0.673,0.063,1.019,0.063h22.551c4.876,0,8.825-3.952,8.825-8.826V19.19
		c0-0.466-0.047-0.919-0.116-1.365c1.169,1.258,1.89,2.938,1.89,4.785V45.162z"/>
</g>
</svg>
