<?xml version="1.0" encoding="iso-8859-1"?>
<!-- Generator: Adobe Illustrator 17.1.0, SVG Export Plug-In . SVG Version: 6.00 Build 0)  -->
<!DOCTYPE svg PUBLIC "-//W3C//DTD SVG 1.1//EN" "http://www.w3.org/Graphics/SVG/1.1/DTD/svg11.dtd">
<svg version="1.1" id="Capa_1" xmlns="http://www.w3.org/2000/svg" xmlns:xlink="http://www.w3.org/1999/xlink" x="0px" y="0px"
	 viewBox="0 0 64 64" style="enable-background:new 0 0 64 64;" xml:space="preserve">
<g>
	<path style="fill:#1D1D1B;" d="M20.089,34.971c-0.239,0-0.406,0.016-0.493,0.04v1.584c0.104,0.023,0.223,0.032,0.405,0.032
		c0.644,0,1.044-0.326,1.044-0.868C21.045,35.265,20.702,34.971,20.089,34.971z"/>
	<path style="fill:#1D1D1B;" d="M30.701,36.833c0,1.06,0.494,1.801,1.306,1.801c0.82,0,1.291-0.781,1.291-1.823
		c0-0.973-0.454-1.801-1.291-1.801C31.179,35.01,30.701,35.79,30.701,36.833z"/>
	<path style="fill:#1D1D1B;" d="M58.632,30.978h-6.55c-1.417,0-2.564,1.148-2.564,2.564c0-1.416-1.148-2.564-2.564-2.564h-6.55
		c-1.417,0-2.564,1.148-2.564,2.564c0-1.416-1.148-2.564-2.564-2.564h0.001c1.417,0,2.564-1.148,2.564-2.564v-6.551
		c0-1.416-1.147-2.564-2.564-2.564c1.417,0,2.564-1.148,2.564-2.564v-6.551c0-1.416-1.147-2.564-2.564-2.564h-6.55
		c-1.417,0-2.565,1.148-2.565,2.564v6.551c0,1.416,1.148,2.564,2.565,2.564c-1.417,0-2.565,1.148-2.565,2.564v6.551
		c0,1.416,1.148,2.564,2.565,2.564h-0.001c-1.416,0-2.564,1.148-2.564,2.564c0-1.416-1.147-2.564-2.564-2.564h-6.55
		c-1.416,0-2.564,1.148-2.564,2.564c0-1.416-1.147-2.564-2.564-2.564h-6.55c-1.417,0-2.564,1.148-2.564,2.564v6.551
		c0,1.416,1.147,2.564,2.564,2.564h6.55c1.417,0,2.564-1.148,2.564-2.564c0,1.416,1.148,2.564,2.564,2.564h6.55
		c1.417,0,2.564-1.148,2.564-2.564c0,1.416,1.148,2.564,2.564,2.564c-1.417,0-2.564,1.148-2.564,2.564v6.551
		c0,1.416,1.147,2.564,2.564,2.564h6.55c1.417,0,2.564-1.148,2.564-2.564v-6.551c0-1.416-1.147-2.564-2.564-2.564
		c1.416,0,2.564-1.148,2.564-2.564c0,1.416,1.147,2.564,2.564,2.564h6.55c1.416,0,2.564-1.148,2.564-2.564
		c0,1.416,1.147,2.564,2.564,2.564h6.55c1.417,0,2.564-1.148,2.564-2.564v-6.551C61.196,32.126,60.049,30.978,58.632,30.978z
		 M8.278,39.572c-0.614,0-1.219-0.167-1.52-0.334l0.247-0.995c0.317,0.167,0.828,0.334,1.346,0.334c0.557,0,0.852-0.231,0.852-0.581
		c0-0.335-0.256-0.526-0.901-0.748c-0.892-0.32-1.481-0.812-1.481-1.594c0-0.915,0.773-1.608,2.03-1.608
		c0.613,0,1.051,0.119,1.37,0.271l-0.271,0.971c-0.207-0.103-0.598-0.254-1.115-0.254c-0.525,0-0.781,0.247-0.781,0.518
		c0,0.342,0.296,0.494,0.996,0.756c0.948,0.351,1.386,0.845,1.386,1.602C10.436,38.808,9.752,39.572,8.278,39.572z M12.426,41.472
		h-0.393v-1.375h-0.005l-0.331,0.157l-0.067-0.305l0.462-0.213h0.334V41.472z M21.753,36.992c-0.413,0.384-1.027,0.566-1.743,0.566
		c-0.16,0-0.303-0.008-0.414-0.032v1.928h-1.202v-5.296c0.374-0.063,0.898-0.112,1.64-0.112c0.749,0,1.282,0.144,1.641,0.431
		c0.351,0.271,0.574,0.718,0.574,1.242C22.248,36.244,22.08,36.698,21.753,36.992z M24.02,41.501c-0.225,0-0.414-0.059-0.516-0.12
		l0.083-0.307c0.072,0.04,0.237,0.106,0.403,0.106c0.211,0,0.317-0.102,0.317-0.229c0-0.174-0.171-0.251-0.35-0.251h-0.166v-0.291
		h0.16c0.137,0,0.308-0.054,0.308-0.2c0-0.104-0.083-0.182-0.257-0.182c-0.142,0-0.291,0.062-0.36,0.104l-0.083-0.293
		c0.105-0.067,0.311-0.131,0.537-0.131c0.368,0,0.574,0.194,0.574,0.433c0,0.184-0.105,0.331-0.318,0.402v0.006
		c0.209,0.037,0.377,0.195,0.377,0.425C24.73,41.276,24.461,41.501,24.02,41.501z M34.579,36.77c0,1.769-1.059,2.827-2.636,2.827
		c-1.585,0-2.524-1.202-2.524-2.739c0-1.608,1.033-2.812,2.611-2.812C33.68,34.046,34.579,35.281,34.579,36.77z M36.238,41.472
		h-0.393v-1.375h-0.005l-0.331,0.157l-0.067-0.305l0.462-0.213h0.334V41.472z M44.463,39.454c-0.08-0.16-0.216-0.59-0.367-1.25
		c-0.15-0.678-0.382-0.853-0.883-0.861h-0.359v2.111h-1.202v-5.296c0.39-0.063,0.964-0.112,1.616-0.112
		c0.797,0,1.354,0.12,1.736,0.423c0.327,0.255,0.502,0.637,0.502,1.131c0,0.677-0.485,1.146-0.947,1.314v0.023
		c0.374,0.15,0.581,0.502,0.716,0.995c0.167,0.613,0.327,1.315,0.431,1.522H44.463z M47.833,41.501c-0.225,0-0.414-0.059-0.516-0.12
		l0.083-0.307c0.072,0.04,0.237,0.106,0.403,0.106c0.211,0,0.317-0.102,0.317-0.229c0-0.174-0.171-0.251-0.35-0.251h-0.166v-0.291
		h0.16c0.137,0,0.308-0.054,0.308-0.2c0-0.104-0.083-0.182-0.257-0.182c-0.142,0-0.291,0.062-0.36,0.104l-0.083-0.293
		c0.104-0.067,0.311-0.131,0.537-0.131c0.368,0,0.574,0.194,0.574,0.433c0,0.184-0.104,0.331-0.318,0.402v0.006
		c0.209,0.037,0.377,0.195,0.377,0.425C48.543,41.276,48.273,41.501,47.833,41.501z M57.996,35.066H56.53v4.348h-1.21v-4.348h-1.449
		v-1.021h4.125V35.066z M60.113,41.472h-0.393v-1.375h-0.005l-0.331,0.157l-0.067-0.305l0.462-0.213h0.334V41.472z"/>
	<path style="fill:#1D1D1B;" d="M43.403,34.954c-0.295,0-0.462,0.017-0.55,0.04v1.474h0.478c0.605,0,0.964-0.303,0.964-0.772
		C44.295,35.209,43.961,34.954,43.403,34.954z"/>
</g>
</svg>
