<?xml version="1.0" encoding="iso-8859-1"?>
<!-- Generator: Adobe Illustrator 17.1.0, SVG Export Plug-In . SVG Version: 6.00 Build 0)  -->
<!DOCTYPE svg PUBLIC "-//W3C//DTD SVG 1.1//EN" "http://www.w3.org/Graphics/SVG/1.1/DTD/svg11.dtd">
<svg version="1.1" id="Capa_1" xmlns="http://www.w3.org/2000/svg" xmlns:xlink="http://www.w3.org/1999/xlink" x="0px" y="0px"
	 viewBox="0 0 64 64" style="enable-background:new 0 0 64 64;" xml:space="preserve">
<g>
	<path d="M51.284,22.22c-4.028,0-7.307-3.278-7.307-7.307s3.278-7.307,7.307-7.307c4.029,0,7.308,3.278,7.308,7.307
		S55.313,22.22,51.284,22.22z M51.284,9.1c-3.205,0-5.812,2.607-5.812,5.812s2.606,5.812,5.812,5.812
		c3.206,0,5.812-2.607,5.812-5.812S54.49,9.1,51.284,9.1z"/>
</g>
<g>
	<path d="M51.284,19.479c-2.518,0-4.566-2.049-4.566-4.567s2.049-4.567,4.566-4.567c2.519,0,4.567,2.049,4.567,4.567
		S53.803,19.479,51.284,19.479z M51.284,11.84c-1.693,0-3.072,1.378-3.072,3.072s1.379,3.072,3.072,3.072
		c1.694,0,3.073-1.378,3.073-3.072S52.978,11.84,51.284,11.84z"/>
</g>
<g>
	<circle cx="51.285" cy="14.996" r="1.661"/>
</g>
<g>
	<path d="M51.008,15.242c-0.004-0.09-0.034-0.174-0.085-0.246c0.226-0.102,0.371-0.307,0.361-0.539
		c-0.014-0.318-0.391-0.562-0.828-0.543l-8.25,0.748c-0.148,0.006-0.258-0.002-0.313-0.006l-0.078-0.055
		c-0.149-0.107-0.457-0.119-0.688-0.109l-3.12,0.137c-0.366,0.014-0.834,0.227-1.086,0.494l-0.212,0.225
		c-0.181,0.191-0.535,0.449-0.773,0.564l-1.8,0.871c-0.214,0.107-0.536,0.271-0.717,0.27c-0.243-0.004-0.531-0.109-0.835-0.309
		c-0.282-0.188-0.767-0.34-1.145-0.277l-6.811,1.15c-0.722,0.123-1.238,0.812-1.153,1.541l0.338,2.861
		c0.039,0.334,0.193,0.611,0.433,0.783c0.293,0.209,0.675,0.238,1.05,0.078l8.813-3.748l0.299,0.5
		c0.061,0.102,0.14,0.188,0.232,0.252c0.248,0.178,0.584,0.217,0.871,0.076l1.708-0.836c0.138-0.068,0.247-0.172,0.321-0.297
		c0.179,0.057,0.369,0.086,0.563,0.078c0.372-0.016,0.719-0.154,0.977-0.391c0.269-0.248,0.412-0.572,0.396-0.912
		c-0.003-0.057-0.016-0.111-0.029-0.166l2.337-0.33l8.45-1.33C50.709,15.742,51.02,15.527,51.008,15.242z M36.984,18.642
		l-1.708,0.836c-0.141,0.07-0.327,0.016-0.409-0.119l-0.261-0.438l2.081-0.887c0.071,0.205,0.202,0.389,0.382,0.535
		C37.047,18.599,37.019,18.626,36.984,18.642z M38.941,17.626c0.008,0.18-0.07,0.354-0.223,0.492
		c-0.165,0.152-0.391,0.24-0.638,0.252c-0.169,0.006-0.324-0.039-0.465-0.104c-0.018-0.074-0.034-0.148-0.075-0.217l-0.16-0.273
		c0.188-0.055,0.385-0.102,0.533-0.123l1.009-0.143C38.933,17.548,38.94,17.587,38.941,17.626z"/>
</g>
<g>
	<circle cx="15.52" cy="11.779" r="4.871"/>
</g>
<g>
	<path d="M18.234,39.695h-5.43c-1.656,0-3-1.344-3-3V22.085c0-1.656,1.344-3,3-3h5.43c1.656,0,3,1.344,3,3v14.609
		C21.234,38.351,19.891,39.695,18.234,39.695z"/>
</g>
<g>
	<path d="M6.719,61.63c-0.264,0-0.531-0.035-0.797-0.109c-1.598-0.438-2.537-2.088-2.099-3.686l6.071-22.119
		c0.438-1.6,2.091-2.539,3.687-2.1c1.598,0.439,2.538,2.09,2.099,3.688l-6.07,22.119C9.244,60.755,8.035,61.63,6.719,61.63z"/>
</g>
<g>
	<path d="M23.881,61.63c-1.339,0-2.559-0.904-2.905-2.26l-5.64-22.119c-0.409-1.605,0.561-3.24,2.166-3.648
		c1.606-0.41,3.239,0.561,3.648,2.166l5.64,22.119c0.409,1.605-0.561,3.238-2.166,3.648C24.376,61.599,24.126,61.63,23.881,61.63z"
		/>
</g>
<g>
	<path d="M17.031,25.984c-1.429,0-2.694-1.025-2.951-2.482c-0.287-1.631,0.803-3.188,2.435-3.475l17.605-3.098
		c1.629-0.279,3.187,0.805,3.475,2.436c0.287,1.633-0.804,3.188-2.436,3.475l-17.605,3.098
		C17.379,25.968,17.204,25.984,17.031,25.984z"/>
</g>
</svg>
