<?xml version="1.0" encoding="iso-8859-1"?>
<!-- Generator: Adobe Illustrator 17.1.0, SVG Export Plug-In . SVG Version: 6.00 Build 0)  -->
<!DOCTYPE svg PUBLIC "-//W3C//DTD SVG 1.1//EN" "http://www.w3.org/Graphics/SVG/1.1/DTD/svg11.dtd">
<svg version="1.1" id="Capa_1" xmlns="http://www.w3.org/2000/svg" xmlns:xlink="http://www.w3.org/1999/xlink" x="0px" y="0px"
	 viewBox="0 0 64 64" style="enable-background:new 0 0 64 64;" xml:space="preserve">
<path d="M52.251,16.62c-0.271-0.598-0.869-0.945-1.487-0.924c-1.781-2.736-4.336-4.373-6.162-5.254
	c-0.788-0.38-1.647-1.275-1.879-1.952l-1.072-3.15c-0.169-0.495-0.705-0.761-1.2-0.591c-0.495,0.168-0.759,0.706-0.591,1.201
	l0.58,1.704v30.674l-0.58,1.704c-0.168,0.495,0.096,1.032,0.591,1.201c0.101,0.035,0.203,0.051,0.305,0.051
	c0.393,0,0.761-0.248,0.895-0.642l1.072-3.15c0.231-0.677,1.091-1.571,1.879-1.952c2.293-1.106,5.738-3.392,7.35-7.564
	c0.375-0.179,0.679-0.502,0.819-0.928c0.467-1.419,0.704-2.95,0.704-4.547C53.476,20.388,53.063,18.409,52.251,16.62z
	 M43.778,33.836c-0.986,0.476-2.171,1.536-2.708,2.72V9.425c0.537,1.184,1.722,2.244,2.708,2.72c1.64,0.791,3.953,2.274,5.507,4.772
	c-0.076,0.326-0.055,0.677,0.094,1.005c0.626,1.378,0.942,2.918,0.942,4.578c0,1.262-0.184,2.46-0.546,3.561
	c-0.176,0.534-0.048,1.091,0.284,1.495C48.615,30.984,45.723,32.897,43.778,33.836z"/>
<g>
	<circle cx="24.126" cy="11.78" r="4.872"/>
	<path d="M40.004,20.908H29.598c-0.458-1.07-1.52-1.82-2.758-1.82h-5.248l-6.726-3.361c-1.483-0.74-3.284-0.141-4.024,1.342
		c-0.742,1.482-0.141,3.283,1.341,4.025l6.229,3.113v11.83L12.43,57.835c-0.438,1.598,0.502,3.248,2.1,3.688
		c0.266,0.072,0.532,0.108,0.795,0.108c1.318,0,2.525-0.875,2.892-2.207l5.415-19.729h0.934l5.017,19.676
		c0.346,1.357,1.566,2.26,2.905,2.26c0.245,0,0.495-0.029,0.743-0.094c1.605-0.408,2.575-2.043,2.166-3.648L29.84,36.095v-9.187
		h10.164c1.657,0,3-1.342,3-3C43.004,22.251,41.661,20.908,40.004,20.908z"/>
</g>
</svg>
