<?xml version="1.0" encoding="iso-8859-1"?>
<!-- Generator: Adobe Illustrator 17.1.0, SVG Export Plug-In . SVG Version: 6.00 Build 0)  -->
<!DOCTYPE svg PUBLIC "-//W3C//DTD SVG 1.1//EN" "http://www.w3.org/Graphics/SVG/1.1/DTD/svg11.dtd">
<svg version="1.1" id="Capa_1" xmlns="http://www.w3.org/2000/svg" xmlns:xlink="http://www.w3.org/1999/xlink" x="0px" y="0px"
	 viewBox="0 0 64 64" style="enable-background:new 0 0 64 64;" xml:space="preserve">
<g>
	<path style="fill:#1D1D1B;" d="M6.981,59.252c0.266,0.074,0.533,0.109,0.796,0.109c1.317,0,2.525-0.875,2.891-2.207l5.415-19.729
		h0.935l5.017,19.676c0.346,1.355,1.566,2.26,2.905,2.26c0.245,0,0.495-0.031,0.743-0.094c1.605-0.41,2.575-2.043,2.166-3.648
		l-5.556-21.792V23.021l13.926-2.45c1.632-0.287,2.723-1.842,2.435-3.475c-0.029-0.163-0.079-0.315-0.132-0.466
		c0.022-0.027,0.059-0.041,0.077-0.071c0.179,0.057,0.369,0.086,0.563,0.078c0.372-0.016,0.719-0.154,0.977-0.391
		c0.27-0.248,0.412-0.572,0.396-0.912c-0.003-0.057-0.016-0.111-0.029-0.166l2.337-0.33l17.45-1.33
		c0.474-0.035,0.785-0.25,0.773-0.535c-0.004-0.09-0.034-0.174-0.085-0.246c0.226-0.102,0.371-0.307,0.361-0.539
		c-0.014-0.318-0.391-0.562-0.828-0.543l-17.25,0.748c-0.148,0.006-0.258-0.002-0.313-0.006l-0.078-0.055
		c-0.149-0.107-0.457-0.119-0.688-0.109l-3.12,0.137c-0.366,0.014-0.834,0.227-1.086,0.494l-0.212,0.225
		c-0.181,0.191-0.535,0.449-0.773,0.565l-1.8,0.871c-0.159,0.08-0.376,0.19-0.552,0.241c-0.043,0.013-0.08,0.016-0.116,0.02
		c-0.015,0.002-0.034,0.008-0.048,0.008c-0.243-0.004-0.531-0.109-0.835-0.309c-0.282-0.188-0.767-0.34-1.145-0.277l-6.81,1.15
		c-0.599,0.102-1.035,0.599-1.124,1.18l-3.828,0.674c-0.43-0.238-0.917-0.385-1.443-0.385h-5.429c-1.657,0-3,1.344-3,3v13.954
		L4.882,55.566C4.443,57.164,5.383,58.815,6.981,59.252z M38.973,15.385l1.009-0.143c0.01,0.037,0.018,0.076,0.019,0.115
		c0.008,0.18-0.07,0.354-0.223,0.492c-0.165,0.152-0.391,0.24-0.638,0.252c-0.169,0.006-0.324-0.039-0.465-0.104
		c-0.018-0.074-0.034-0.148-0.075-0.217l-0.16-0.273C38.628,15.453,38.824,15.406,38.973,15.385z"/>
	<path style="fill:#1D1D1B;" d="M14.624,59.361v-2c0-0.553-0.447-1-1-1c-0.553,0-1,0.447-1,1v2c0,0.249-1.064,1-3,1h-6.75
		c-0.552,0-1,0.447-1,1c0,0.553,0.448,1,1,1h6.75C12.475,62.361,14.624,61.071,14.624,59.361z"/>
	<path style="fill:#1D1D1B;" d="M27,62.361c2.851,0,5-1.29,5-3v-2c0-0.553-0.447-1-1-1s-1,0.447-1,1v2c0,0.249-1.065,1-3,1h-6.75
		c-0.552,0-1,0.447-1,1c0,0.553,0.448,1,1,1H27z"/>
	<path style="fill:#1D1D1B;" d="M16.579,15.554c3.319,0,6.006-2.676,6.039-5.986l-4.223,2.152c-2.36-1.131-1.816-3.452-1.816-3.452
		l4.798-2.398c-1.104-1.453-2.833-2.406-4.798-2.406c-3.338,0-6.044,2.707-6.044,6.044S13.24,15.554,16.579,15.554z"/>
</g>
</svg>
