<?xml version="1.0" encoding="iso-8859-1"?>
<!-- Generator: Adobe Illustrator 17.1.0, SVG Export Plug-In . SVG Version: 6.00 Build 0)  -->
<!DOCTYPE svg PUBLIC "-//W3C//DTD SVG 1.1//EN" "http://www.w3.org/Graphics/SVG/1.1/DTD/svg11.dtd">
<svg version="1.1" id="Capa_1" xmlns="http://www.w3.org/2000/svg" xmlns:xlink="http://www.w3.org/1999/xlink" x="0px" y="0px"
	 viewBox="0 0 64 64" style="enable-background:new 0 0 64 64;" xml:space="preserve">
<g>
	<path d="M32,11.634c0.984,0,1.785-0.801,1.785-1.786c0-0.985-0.801-1.786-1.785-1.786c-0.984,0-1.785,0.801-1.785,1.786
		C30.215,10.833,31.016,11.634,32,11.634z M32,9.188c0.365,0,0.661,0.295,0.661,0.661c0,0.365-0.296,0.661-0.661,0.661
		c-0.365,0-0.661-0.296-0.661-0.661C31.339,9.483,31.635,9.188,32,9.188z"/>
	<path d="M32,13.156c1.824,0,3.308-1.483,3.308-3.307c0-1.823-1.483-3.307-3.308-3.307c-1.824,0-3.307,1.484-3.307,3.307
		C28.693,11.672,30.176,13.156,32,13.156z M32,7.269c1.423,0,2.58,1.157,2.58,2.58c0,1.422-1.157,2.58-2.58,2.58
		c-1.423,0-2.58-1.158-2.58-2.58C29.42,8.426,30.577,7.269,32,7.269z"/>
	<path d="M32,35.562c-2.663,0-4.83,2.167-4.83,4.831c0,2.663,2.167,4.83,4.83,4.83c2.663,0,4.83-2.167,4.83-4.83
		C36.83,37.729,34.663,35.562,32,35.562z M32,42.18c-0.987,0-1.788-0.801-1.788-1.788c0-0.988,0.801-1.789,1.788-1.789
		c0.987,0,1.788,0.801,1.788,1.789C33.788,41.379,32.987,42.18,32,42.18z"/>
	<path d="M48.036,51.278l-0.816-9.277c-0.212-2.409-0.142-6.307,0.156-8.707l0.505-4.08c0.298-2.4-1.294-5.045-3.551-5.91
		l-4.228-1.616c-2.258-0.863-4.09-2.353-4.09-3.326c0-0.975,0.917-3.504,1.341-5.854c0.212-1.171,0.362-2.603,0.362-4.302
		c0-2.016-0.71-3.275-1.631-4.061c-1.837-1.571-6.333-1.571-8.17,0c-0.921,0.786-1.631,2.045-1.631,4.061
		c0,1.699,0.15,3.13,0.362,4.302c0.424,2.35,1.339,4.879,1.339,5.854c0,0.974-1.83,2.463-4.088,3.326l-4.228,1.616
		c-2.257,0.864-3.85,3.51-3.551,5.91l0.505,4.08c0.299,2.4,0.367,6.298,0.156,8.707l-0.816,9.277
		c-0.212,2.409,0.981,5.808,3.067,7.032C21.7,59.878,25.97,61.542,32,61.478c6.03,0.064,10.3-1.6,12.969-3.167
		C47.055,57.086,48.248,53.687,48.036,51.278z M27.898,9.849c0-2.261,1.841-4.101,4.102-4.101c2.261,0,4.102,1.84,4.102,4.101
		c0,2.261-1.841,4.101-4.102,4.101C29.739,13.949,27.898,12.11,27.898,9.849z M32,51.483c-6.116,0-11.092-4.976-11.092-11.091
		C20.908,34.276,25.884,29.3,32,29.3c6.116,0,11.092,4.976,11.092,11.092C43.092,46.508,38.116,51.483,32,51.483z"/>
	<path d="M32,31.447c-4.933,0-8.945,4.013-8.945,8.945c0,4.932,4.013,8.945,8.945,8.945c4.933,0,8.945-4.013,8.945-8.945
		C40.945,35.459,36.933,31.447,32,31.447z M32,47.369c-3.847,0-6.977-3.13-6.977-6.977c0-3.847,3.13-6.977,6.977-6.977
		c3.847,0,6.977,3.13,6.977,6.977C38.977,44.239,35.847,47.369,32,47.369z"/>
</g>
</svg>
