<?xml version="1.0" encoding="iso-8859-1"?>
<!-- Generator: Adobe Illustrator 17.1.0, SVG Export Plug-In . SVG Version: 6.00 Build 0)  -->
<!DOCTYPE svg PUBLIC "-//W3C//DTD SVG 1.1//EN" "http://www.w3.org/Graphics/SVG/1.1/DTD/svg11.dtd">
<svg version="1.1" id="Capa_1" xmlns="http://www.w3.org/2000/svg" xmlns:xlink="http://www.w3.org/1999/xlink" x="0px" y="0px"
	 viewBox="0 0 64 64" style="enable-background:new 0 0 64 64;" xml:space="preserve">
<g>
	<path d="M47.165,7.021c0.148,0,0.247-0.098,0.247-0.226c0-0.159-0.118-0.254-0.283-0.298c-0.141,0.039-0.221,0.14-0.221,0.27
		C46.905,6.899,47.006,7.021,47.165,7.021z"/>
	<path d="M47.192,6.182c0.098-0.028,0.185-0.118,0.185-0.229c0-0.114-0.065-0.226-0.221-0.226c-0.145,0-0.217,0.098-0.217,0.21
		C46.94,6.059,47.047,6.137,47.192,6.182z"/>
	<path d="M50.977,6.96c0.111,0,0.197-0.073,0.225-0.169c0.012-0.034,0.015-0.079,0.015-0.115V6.475c0-0.025-0.003-0.053-0.009-0.078
		c-0.031-0.112-0.112-0.187-0.229-0.187c-0.156,0-0.278,0.14-0.278,0.388C50.7,6.801,50.801,6.96,50.977,6.96z"/>
	<circle cx="27.933" cy="14.059" r="5.988"/>
	<path d="M21.784,61.204c0.975,0,1.943-0.406,2.632-1.2l9.725-11.2c0.551-0.634,0.853-1.445,0.853-2.284v-1.887l1.897,3.122
		l4.319,11.217c0.533,1.384,1.852,2.233,3.252,2.233c0.416,0,0.84-0.075,1.251-0.233c1.796-0.691,2.69-2.708,1.999-4.503
		L43.28,44.96c-0.073-0.193-0.165-0.38-0.272-0.557l-4.996-8.224V22.917l8.504-11.596c0.136-0.186,0.244-0.384,0.332-0.586
		c0.635,0.314,1.341,0.506,2.097,0.506c2.635,0,4.771-2.136,4.771-4.77c0-2.635-2.136-4.77-4.771-4.77
		c-2.634,0-4.77,2.135-4.77,4.77c0,0.001,0,0.002,0,0.003c-0.977-0.037-1.956,0.395-2.578,1.243l-9.477,12.924
		c-0.123,0.168-0.226,0.344-0.31,0.526h-1.136c-1.443,0-2.613,1.17-2.613,2.613v10.577c-0.012,0.116-0.035,0.229-0.035,0.349v10.514
		l-8.871,10.217c-1.262,1.454-1.107,3.654,0.347,4.915C20.161,60.923,20.975,61.204,21.784,61.204z M50.891,5.889
		c0.186,0,0.303,0.082,0.373,0.196h0.006l0.014-0.165h0.368c-0.006,0.089-0.011,0.204-0.011,0.407v0.76
		c0,0.262-0.053,0.477-0.209,0.614c-0.148,0.129-0.352,0.167-0.553,0.167c-0.182,0-0.368-0.036-0.492-0.104l0.084-0.324
		c0.087,0.05,0.234,0.103,0.396,0.103c0.201,0,0.354-0.105,0.354-0.359V7.098h-0.005c-0.082,0.111-0.213,0.175-0.369,0.175
		c-0.337,0-0.578-0.273-0.578-0.664C50.269,6.168,50.552,5.889,50.891,5.889z M48.684,5.404h0.422v0.831h0.006
		c0.041-0.072,0.086-0.14,0.131-0.206l0.424-0.625h0.524l-0.622,0.8l0.653,1.08h-0.493l-0.464-0.812L49.105,6.67v0.614h-0.422V5.404
		z M46.537,5.951c0-0.308,0.276-0.511,0.639-0.511c0.424,0,0.6,0.246,0.6,0.465c0,0.157-0.084,0.31-0.265,0.399v0.009
		c0.179,0.067,0.335,0.218,0.335,0.449c0,0.329-0.275,0.553-0.698,0.553c-0.46,0-0.672-0.26-0.672-0.505
		c0-0.218,0.126-0.368,0.323-0.454V6.35C46.623,6.257,46.537,6.11,46.537,5.951z"/>
</g>
</svg>
