<?xml version="1.0" encoding="iso-8859-1"?>
<!-- Generator: Adobe Illustrator 17.1.0, SVG Export Plug-In . SVG Version: 6.00 Build 0)  -->
<!DOCTYPE svg PUBLIC "-//W3C//DTD SVG 1.1//EN" "http://www.w3.org/Graphics/SVG/1.1/DTD/svg11.dtd">
<svg version="1.1" id="Capa_1" xmlns="http://www.w3.org/2000/svg" xmlns:xlink="http://www.w3.org/1999/xlink" x="0px" y="0px"
	 viewBox="0 0 64 64" style="enable-background:new 0 0 64 64;" xml:space="preserve">
<g>
	<path d="M16.193,16.216c0.147,0,0.247-0.098,0.247-0.226c0-0.159-0.119-0.254-0.284-0.298c-0.14,0.039-0.221,0.14-0.221,0.27
		C15.934,16.094,16.034,16.216,16.193,16.216z"/>
	<path d="M16.221,15.377c0.098-0.028,0.184-0.118,0.184-0.23c0-0.114-0.064-0.226-0.22-0.226c-0.145,0-0.217,0.098-0.217,0.21
		C15.967,15.254,16.076,15.331,16.221,15.377z"/>
	<path d="M20.004,16.155c0.112,0,0.198-0.073,0.226-0.169c0.012-0.034,0.014-0.079,0.014-0.115v-0.201
		c0-0.025-0.002-0.053-0.008-0.078c-0.031-0.112-0.112-0.187-0.229-0.187c-0.156,0-0.278,0.14-0.278,0.388
		C19.729,15.996,19.829,16.155,20.004,16.155z"/>
	<path d="M17.098,20.347c-0.155,0.642-0.119,1.334,0.17,1.984l2.996,6.749c0.403,0.908,1.216,1.568,2.187,1.777
		c0.217,0.046,0.435,0.069,0.653,0.069c0.756,0,1.495-0.276,2.07-0.791l5.396-4.822l2.144,7.915L31.54,43.684l-9.699,10.097
		c-1.358,1.414-1.314,3.662,0.101,5.021c0.689,0.661,1.575,0.99,2.46,0.99c0.933,0,1.865-0.365,2.562-1.091l10.532-10.965
		c0.541-0.563,0.881-1.288,0.968-2.063l1.046-9.315l6.013,5.808v12.055c0,1.961,1.59,3.551,3.551,3.551
		c1.962,0,3.552-1.59,3.552-3.551V40.659c0-0.963-0.391-1.885-1.084-2.554l-8.513-8.224c-0.07-0.067-0.15-0.116-0.224-0.176
		l-3.501-10.269c0.043-0.029,0.089-0.051,0.131-0.082l7.898-5.931c1.372-1.031,1.648-2.979,0.618-4.351
		c-1.029-1.373-2.977-1.649-4.351-0.619l-7.602,5.709l-7.235,4.483l0.005,0.019c-0.156,0.096-0.308,0.201-0.45,0.328l-4.106,3.668
		l-1.266-2.851c-0.252-0.567-0.655-1.017-1.137-1.333c0.58-0.79,0.934-1.756,0.934-2.812c0-2.635-2.136-4.77-4.77-4.77
		c-2.634,0-4.77,2.135-4.77,4.77C13.204,17.999,14.883,19.934,17.098,20.347z M19.919,15.083c0.186,0,0.304,0.081,0.373,0.196h0.006
		l0.013-0.165h0.369c-0.006,0.089-0.011,0.204-0.011,0.407v0.76c0,0.262-0.053,0.477-0.209,0.614
		c-0.148,0.129-0.352,0.168-0.553,0.168c-0.182,0-0.368-0.036-0.491-0.104l0.084-0.324c0.086,0.05,0.234,0.102,0.396,0.102
		c0.201,0,0.354-0.105,0.354-0.359v-0.086h-0.005c-0.081,0.111-0.212,0.175-0.368,0.175c-0.337,0-0.578-0.273-0.578-0.664
		C19.298,15.363,19.58,15.083,19.919,15.083z M17.712,14.599h0.421v0.831h0.005c0.042-0.072,0.087-0.14,0.132-0.206l0.424-0.625
		h0.524l-0.622,0.8l0.653,1.08h-0.494l-0.463-0.812l-0.159,0.198v0.614h-0.421V14.599z M15.565,15.146
		c0-0.308,0.276-0.511,0.639-0.511c0.424,0,0.599,0.246,0.599,0.465c0,0.157-0.083,0.31-0.265,0.399v0.009
		c0.179,0.067,0.335,0.218,0.335,0.449c0,0.329-0.276,0.553-0.698,0.553c-0.46,0-0.672-0.26-0.672-0.505
		c0-0.218,0.125-0.368,0.323-0.454v-0.006C15.652,15.452,15.565,15.305,15.565,15.146z"/>
	<circle cx="29.502" cy="9.354" r="6.104"/>
</g>
</svg>
