<?xml version="1.0" encoding="iso-8859-1"?>
<!-- Generator: Adobe Illustrator 17.1.0, SVG Export Plug-In . SVG Version: 6.00 Build 0)  -->
<!DOCTYPE svg PUBLIC "-//W3C//DTD SVG 1.1//EN" "http://www.w3.org/Graphics/SVG/1.1/DTD/svg11.dtd">
<svg version="1.1" id="Capa_1" xmlns="http://www.w3.org/2000/svg" xmlns:xlink="http://www.w3.org/1999/xlink" x="0px" y="0px"
	 viewBox="0 0 64 64" style="enable-background:new 0 0 64 64;" xml:space="preserve">
<g>
	<path d="M48.104,10.981c0-2.719-2.226-4.935-4.957-4.935c-2.717,0-4.928,2.217-4.928,4.935c0,2.736,2.211,4.942,4.928,4.942
		C45.878,15.923,48.104,13.718,48.104,10.981z"/>
	<path d="M54.988,27.935h-8.631l-3.971-8.981c-0.048-0.15-0.135-0.342-0.185-0.43c-0.015-0.028-0.025-0.043-0.025-0.056l-0.07-0.164
		l-0.015,0.014c-0.738-1.561-2.278-2.677-4.104-2.745c-0.357-0.021-0.679,0.014-1.001,0.082l-21.684,5.093
		c-1.312,0.309-2.135,1.602-1.82,2.923c0.295,1.315,1.582,2.122,2.896,1.826l14.477-3.441l-11,18.145h-8.009h-0.013H9.438
		c0.136-0.4,0.104-0.854-0.138-1.239c-0.432-0.691-1.329-0.896-2.006-0.466c-0.69,0.425-0.894,1.322-0.471,2.013
		c0.329,0.519,0.93,0.758,1.503,0.653l0.312,1.228c-0.118,0.037-0.234,0.084-0.346,0.152c-0.671,0.424-0.883,1.321-0.451,1.998
		c0.328,0.534,0.938,0.771,1.511,0.657l0.31,1.217c-0.12,0.037-0.238,0.083-0.349,0.153c-0.698,0.424-0.895,1.319-0.472,2.012
		c0.33,0.527,0.957,0.764,1.535,0.646l0.311,1.224c-0.125,0.035-0.247,0.081-0.362,0.15c-0.69,0.438-0.896,1.334-0.473,2.012
		c0.426,0.691,1.322,0.896,2.021,0.472c0.548-0.346,0.782-1.012,0.616-1.617c0.04-0.02,0.084-0.021,0.123-0.046
		c0.323-0.185,0.527-0.513,0.59-0.849l1.561-4.751l0.055-0.19c0,0,7.199-0.027,7.253-0.027c1.446,0,2.685-0.398,3.417-1.608
		l3.333-5.523l7.428,7.392l-2.825,11.119c-0.266-0.076-0.555-0.081-0.837,0.004c-0.775,0.253-1.205,1.076-0.96,1.842
		c0.261,0.779,1.082,1.19,1.841,0.958c0.662-0.218,1.073-0.861,1.018-1.527h1.245c-0.018,0.191,0.001,0.389,0.064,0.583
		c0.247,0.779,1.075,1.205,1.835,0.959c0.667-0.222,1.073-0.871,1.006-1.542h1.261c-0.022,0.198-0.006,0.405,0.06,0.61
		c0.246,0.767,1.067,1.197,1.842,0.945c0.668-0.205,1.081-0.868,0.994-1.556h1.21c0.022,0,0.04-0.012,0.062-0.013
		c-0.028,0.21-0.017,0.429,0.055,0.643c0.253,0.76,1.075,1.186,1.834,0.939c0.767-0.247,1.191-1.056,0.944-1.821
		c-0.222-0.705-0.918-1.108-1.616-1.005c0-0.001,0.001-0.002,0.001-0.003c0-0.548-0.343-0.932-0.767-1.163l-4.702-2.602l2.259-8.911
		c0,0,0.562-1.883-1.22-3.62l-6.077-6.086c0,0,3.251-5.339,5.332-8.768l2.424,5.489c0.19,0.439,0.515,0.795,0.896,1.041
		c0,0.013,0.029,0.013,0.029,0.035c0.383,0.244,0.842,0.395,1.335,0.395H54.94c1.355,0.015,2.444-1.094,2.457-2.43
		C57.41,29.023,56.324,27.955,54.988,27.935z"/>
</g>
</svg>
