<?xml version="1.0" encoding="iso-8859-1"?>
<!-- Generator: Adobe Illustrator 17.1.0, SVG Export Plug-In . SVG Version: 6.00 Build 0)  -->
<!DOCTYPE svg PUBLIC "-//W3C//DTD SVG 1.1//EN" "http://www.w3.org/Graphics/SVG/1.1/DTD/svg11.dtd">
<svg version="1.1" id="Capa_1" xmlns="http://www.w3.org/2000/svg" xmlns:xlink="http://www.w3.org/1999/xlink" x="0px" y="0px"
	 viewBox="0 0 64 64" style="enable-background:new 0 0 64 64;" xml:space="preserve">
<g>
	<path d="M52.958,56.375C34.831,52.163,19.17,33.579,16,29.609c-0.034-0.042-0.079-0.058-0.134-0.051
		c-0.083,0.01-0.589,0.051-1.142,0.051h-2.718c0.105-0.134,0.196-0.281,0.258-0.45c0.041-0.107,0.067-0.219,0.082-0.328
		c0.028-0.185,0.167-0.444,0.354-0.577c0.348-0.246,0.888-0.625,1.236-0.872c0.188-0.131,0.515-0.175,0.729-0.096
		c1.312,0.482,5.479,2.012,5.479,2.012l4.328,1.558c0.215,0.076,0.438,0.319,0.496,0.543l0.388,1.456
		c0.057,0.223-0.002,0.512-0.101,0.671c-0.058,0.095-0.108,0.196-0.147,0.304c-0.314,0.863,0.131,1.817,0.994,2.131
		c0.863,0.314,1.817-0.133,2.13-0.994c0.203-0.556,0.084-1.147-0.254-1.583c-0.143-0.181-0.317-0.476-0.345-0.704l-0.028-0.23
		c0.207,0.105,0.436,0.177,0.681,0.199c0.324,0.03,0.632-0.032,0.911-0.151c3.65,0.907,5.528-0.423,5.532-1.974
		c0.003-1.076-2.269-1.72-4.156-2.068l0.396-4.314c0.067-0.724-0.285-1.419-0.904-1.796l-3.513-2.125l1.637-3.539
		c0.408,0.232,0.808,0.483,1.083,0.688l6.69,4.963c0.72,0.533,1.738,0.384,2.271-0.337c0.536-0.721,0.387-1.739-0.334-2.272
		l-6.69-4.961c-0.753-0.559-1.972-1.259-2.838-1.628l-2.276-0.968c-0.81-0.345-2.113-0.792-3.017-1.029L15.252,9.34
		c-0.875-0.199-1.746,0.347-1.947,1.22c-0.134,0.587,0.067,1.172,0.477,1.553c0.202,0.189,0.454,0.328,0.743,0.394l7.351,1.688
		l-1.221,3.556l-3.195-0.727c-0.663-0.149-1.354,0.067-1.813,0.566l-3.666,3.98c-1.525-0.791-3.21-1.415-3.805-0.702
		c-1.002,1.205-0.409,3.466,3.058,5.12c0.207,0.1,0.372,0.177,0.366,0.18c-0.007,0.004-0.149,0.134-0.317,0.291l-0.213,0.198
		c-0.168,0.156-0.492,0.27-0.717,0.317c-0.539,0.116-1.009,0.493-1.212,1.051c-0.202,0.556-0.085,1.149,0.254,1.585H5.458
		c-0.552,0-1,0.447-1,1V58c0,0.553,0.448,1,1,1H15h1h35.958c0.552,0,1.08-0.44,1.141-0.99
		C53.178,57.292,53.216,56.435,52.958,56.375z M27.446,34.654c-0.151,0.412-0.608,0.628-1.023,0.476
		c-0.413-0.15-0.626-0.607-0.476-1.023c0.149-0.412,0.608-0.626,1.021-0.474C27.381,33.783,27.595,34.241,27.446,34.654z
		 M17.691,20.961l4.427,1.007l4.971,3.007l-0.247,2.682l-5.389-1.96l-6.084-2.212L17.691,20.961z M10.002,28.31
		c0.151-0.413,0.609-0.626,1.021-0.476c0.415,0.149,0.627,0.607,0.476,1.021c-0.15,0.414-0.607,0.627-1.02,0.478
		C10.065,29.182,9.852,28.726,10.002,28.31z"/>
	<circle cx="27.748" cy="8.476" r="3.013"/>
</g>
</svg>
