<?xml version="1.0" encoding="iso-8859-1"?>
<!-- Generator: Adobe Illustrator 17.1.0, SVG Export Plug-In . SVG Version: 6.00 Build 0)  -->
<!DOCTYPE svg PUBLIC "-//W3C//DTD SVG 1.1//EN" "http://www.w3.org/Graphics/SVG/1.1/DTD/svg11.dtd">
<svg version="1.1" id="Capa_1" xmlns="http://www.w3.org/2000/svg" xmlns:xlink="http://www.w3.org/1999/xlink" x="0px" y="0px"
	 viewBox="0 0 64 64" style="enable-background:new 0 0 64 64;" xml:space="preserve">
<g>
	<path style="fill:#1D1D1B;" d="M40.012,8.998c0-2.505-2.039-4.532-4.545-4.532c-2.503,0-4.541,2.027-4.541,4.532
		c0,2.51,2.035,4.544,4.541,4.544C37.973,13.542,40.012,11.508,40.012,8.998z"/>
	<path style="fill:#1D1D1B;" d="M11.511,53.544c0,1.596,1.298,2.898,2.908,2.898c1.155,0,2.146-0.673,2.616-1.635l9.712-16.693
		l4.702,4.671l-4.317,7.586c-0.16,0.304-0.247,0.644-0.292,1.001c-1.975-0.415-5.47-0.956-5.928,0.315
		c-0.546,1.52,0.823,3.501,4.763,3.882c0.235,0.022,0.422,0.039,0.417,0.046c-0.005,0.005-0.097,0.181-0.205,0.393l-0.136,0.266
		c-0.108,0.211-0.381,0.437-0.582,0.562c-0.482,0.302-0.805,0.832-0.805,1.443c0,0.945,0.767,1.712,1.713,1.712
		s1.712-0.767,1.712-1.712c0-0.119-0.013-0.235-0.036-0.348c-0.04-0.188,0.004-0.489,0.14-0.684c0.251-0.36,0.639-0.918,0.89-1.278
		c0.135-0.194,0.436-0.352,0.672-0.351c1.439,0.003,6.012,0.018,6.012,0.018l4.739-0.015c0.236-0.001,0.538,0.156,0.673,0.351
		l0.888,1.275c0.135,0.195,0.179,0.496,0.14,0.685c-0.023,0.111-0.036,0.228-0.036,0.347c0,0.945,0.767,1.712,1.712,1.712
		s1.712-0.767,1.712-1.712c0-0.611-0.322-1.142-0.804-1.443c-0.201-0.125-0.475-0.351-0.583-0.562l-0.136-0.266
		c-0.108-0.211-0.003-0.377,0.234-0.38c4.898-0.046,6.617-2.271,6.017-3.941c-0.545-1.513-5.401-0.459-6.863-0.104
		c-0.229,0.057-0.606,0.104-0.843,0.104h-6.85h-2.432l5.03-8.945c0,0,1.527-2.547-0.833-4.814l-6.737-6.66l6.618-11.596h13.875
		c1.315,0,2.374-1.059,2.374-2.371c0-1.314-1.059-2.387-2.374-2.387H14.62c-1.331,0-2.383,1.074-2.383,2.373
		c0,1.314,1.052,2.385,2.383,2.385l12.017-0.011l-4.532,8.002c0,0-2.088,3.202,0.535,6.317L11.846,52.193
		C11.631,52.598,11.511,53.054,11.511,53.544z M26.122,59.073c-0.453,0-0.821-0.368-0.821-0.821c0-0.453,0.368-0.821,0.821-0.821
		c0.453,0,0.821,0.368,0.821,0.821C26.942,58.705,26.575,59.073,26.122,59.073z M43.604,57.431c0.453,0,0.821,0.368,0.821,0.821
		c0,0.453-0.368,0.821-0.821,0.821c-0.453,0-0.821-0.368-0.821-0.821C42.783,57.799,43.15,57.431,43.604,57.431z"/>
</g>
</svg>
