<?xml version="1.0" encoding="iso-8859-1"?>
<!-- Generator: Adobe Illustrator 17.1.0, SVG Export Plug-In . SVG Version: 6.00 Build 0)  -->
<!DOCTYPE svg PUBLIC "-//W3C//DTD SVG 1.1//EN" "http://www.w3.org/Graphics/SVG/1.1/DTD/svg11.dtd">
<svg version="1.1" id="Capa_1" xmlns="http://www.w3.org/2000/svg" xmlns:xlink="http://www.w3.org/1999/xlink" x="0px" y="0px"
	 viewBox="0 0 64 64" style="enable-background:new 0 0 64 64;" xml:space="preserve">
<g>
	<path style="fill:#1D1D1B;" d="M12.642,37.791c-0.01,0.012-0.2,0.374-0.422,0.811l-0.281,0.55c-0.223,0.435-0.788,0.9-1.202,1.159
		c-0.996,0.622-1.661,1.718-1.661,2.979c0,1.952,1.583,3.535,3.536,3.535c1.953,0,3.536-1.583,3.536-3.535
		c0-0.245-0.026-0.485-0.075-0.717c-0.081-0.39,0.009-1.011,0.288-1.411c0.519-0.744,1.32-1.896,1.838-2.64
		c0.279-0.401,0.9-0.727,1.388-0.725C22.558,37.805,32,37.834,32,37.834l9.784-0.03c0.487-0.001,1.109,0.323,1.389,0.725
		l1.833,2.634c0.278,0.401,0.369,1.022,0.288,1.412c-0.048,0.231-0.073,0.471-0.073,0.716c0,1.952,1.583,3.535,3.535,3.535
		c1.953,0,3.536-1.583,3.536-3.535c0-1.262-0.666-2.357-1.66-2.979c-0.415-0.259-0.98-0.725-1.202-1.159l-0.281-0.549
		c-0.223-0.435-0.006-0.779,0.483-0.784c10.112-0.096,13.662-4.688,12.422-8.135c-1.125-3.124-11.15-0.949-14.17-0.216
		c-0.474,0.116-1.252,0.216-1.74,0.216H32H17.858c-0.488,0-1.266-0.101-1.741-0.216c-3.019-0.732-13.046-2.907-14.17,0.216
		c-1.129,3.136,1.699,7.227,9.834,8.013C12.268,37.744,12.653,37.777,12.642,37.791z M48.794,41.543c0.937,0,1.695,0.76,1.695,1.694
		c0,0.936-0.759,1.695-1.695,1.695c-0.935,0-1.694-0.759-1.694-1.695C47.1,42.303,47.858,41.543,48.794,41.543z M14.396,43.237
		c0,0.936-0.759,1.695-1.694,1.695c-0.936,0-1.695-0.759-1.695-1.695c0-0.935,0.759-1.694,1.695-1.694
		C13.637,41.543,14.396,42.303,14.396,43.237z"/>
</g>
</svg>
