<?xml version="1.0" encoding="iso-8859-1"?>
<!-- Generator: Adobe Illustrator 17.1.0, SVG Export Plug-In . SVG Version: 6.00 Build 0)  -->
<!DOCTYPE svg PUBLIC "-//W3C//DTD SVG 1.1//EN" "http://www.w3.org/Graphics/SVG/1.1/DTD/svg11.dtd">
<svg version="1.1" id="Capa_1" xmlns="http://www.w3.org/2000/svg" xmlns:xlink="http://www.w3.org/1999/xlink" x="0px" y="0px"
	 viewBox="0 0 64 64" style="enable-background:new 0 0 64 64;" xml:space="preserve">
<g>
	<path d="M48.193,44.462c-0.386-0.47-1.191-0.849-1.799-0.849h-6.934c0.033-0.099,0.063-0.2,0.063-0.311
		c0-0.357-0.189-0.668-0.47-0.845c-0.118-0.073-0.278-0.205-0.341-0.328l-0.08-0.155c-0.063-0.124-0.002-0.221,0.137-0.223
		c2.865-0.026,3.871-1.328,3.521-2.306c-0.319-0.885-3.16-0.268-4.016-0.061c-0.135,0.033-0.354,0.061-0.493,0.061h-4.008h-1.422
		l2.942-5.232c0,0,0.893-1.49-0.487-2.816l-3.942-3.896l3.872-6.784h8.117c0.77,0,1.389-0.62,1.389-1.387
		c0-0.77-0.619-1.398-1.389-1.398H21.576c-0.778,0-1.394,0.628-1.394,1.389c0,0.768,0.616,1.396,1.394,1.396l7.03-0.007
		l-2.651,4.682c0,0-1.222,1.874,0.313,3.696l-6.315,10.656c-0.126,0.236-0.195,0.504-0.195,0.79c0,0.934,0.759,1.695,1.701,1.695
		c0.676,0,1.255-0.393,1.53-0.956l5.683-9.767l2.75,2.733l-2.525,4.438c-0.093,0.177-0.145,0.376-0.171,0.586
		c-1.155-0.243-3.201-0.56-3.468,0.184c-0.319,0.89,0.482,2.049,2.786,2.271c0.139,0.013,0.247,0.022,0.245,0.027
		c-0.004,0.002-0.058,0.106-0.12,0.23l-0.08,0.155c-0.063,0.123-0.223,0.255-0.341,0.328c-0.282,0.177-0.471,0.487-0.471,0.845
		c0,0.11,0.03,0.211,0.063,0.311h-9.154c-0.607,0-1.423,0.371-1.822,0.829L5.048,57.435c-0.4,0.457-0.231,0.829,0.377,0.829h53.067
		c0.608,0,0.787-0.379,0.4-0.849L48.193,44.462z M38.532,42.808c0.266,0,0.481,0.215,0.481,0.481c0,0.126-0.051,0.239-0.131,0.325
		h-0.698c-0.08-0.086-0.131-0.199-0.131-0.325C38.053,43.022,38.268,42.808,38.532,42.808z M36.546,41.748
		c0.139-0.001,0.315,0.092,0.394,0.205l0.52,0.746c0.079,0.114,0.104,0.29,0.082,0.4c-0.014,0.065-0.02,0.134-0.02,0.203
		c0,0.11,0.03,0.211,0.063,0.311h-8.365c0.033-0.099,0.063-0.2,0.063-0.311c0-0.069-0.007-0.138-0.02-0.203
		c-0.023-0.11,0.003-0.286,0.081-0.4c0.147-0.211,0.374-0.537,0.521-0.748c0.079-0.113,0.255-0.205,0.393-0.205
		c0.843,0.002,3.518,0.011,3.518,0.011L36.546,41.748z M27.825,43.288c0-0.266,0.214-0.481,0.479-0.481
		c0.265,0,0.48,0.215,0.48,0.481c0,0.126-0.051,0.239-0.131,0.325h-0.698C27.876,43.527,27.825,43.414,27.825,43.288z"/>
	<path d="M31.115,14.473c0,1.468,1.191,2.658,2.657,2.658c1.466,0,2.659-1.19,2.659-2.658c0-1.467-1.193-2.651-2.659-2.651
		C32.308,11.821,31.115,13.006,31.115,14.473z"/>
</g>
</svg>
