<?xml version="1.0" encoding="iso-8859-1"?>
<!-- Generator: Adobe Illustrator 17.1.0, SVG Export Plug-In . SVG Version: 6.00 Build 0)  -->
<!DOCTYPE svg PUBLIC "-//W3C//DTD SVG 1.1//EN" "http://www.w3.org/Graphics/SVG/1.1/DTD/svg11.dtd">
<svg version="1.1" id="Capa_1" xmlns="http://www.w3.org/2000/svg" xmlns:xlink="http://www.w3.org/1999/xlink" x="0px" y="0px"
	 viewBox="0 0 64 64" style="enable-background:new 0 0 64 64;" xml:space="preserve">
<g>
	<path style="fill:#1D1D1B;" d="M7.704,32.822c0.472,0,0.949-0.121,1.387-0.374l11.155-6.451l2.615,5.867l-4.841,2.813
		c-1.003,0.584-1.617,1.659-1.61,2.818l0.053,9.246c-2.827,0.786-5.661,1.969-5.573,3.554c0.15,2.673,3.525,4.81,9.785,2.841
		c0.375-0.117,0.67-0.214,0.666-0.2c-0.004,0.012-0.03,0.339-0.058,0.732l-0.036,0.495c-0.027,0.391-0.3,0.913-0.525,1.234
		c-0.541,0.771-0.69,1.79-0.293,2.724c0.611,1.443,2.279,2.117,3.723,1.505c1.443-0.612,2.118-2.279,1.506-3.723
		c-0.076-0.182-0.172-0.352-0.28-0.506c-0.182-0.264-0.31-0.751-0.229-1.135c0.149-0.713,0.382-1.815,0.531-2.528
		c0.081-0.384,0.438-0.819,0.8-0.971c2.199-0.927,9.19-3.865,9.19-3.865l7.226-3.092c0.359-0.154,0.922-0.109,1.254,0.101
		l2.182,1.372c0.331,0.21,0.593,0.641,0.655,0.954c0.037,0.185,0.094,0.371,0.17,0.552c0.612,1.444,2.28,2.118,3.723,1.506
		c1.444-0.612,2.119-2.28,1.506-3.723c-0.395-0.934-1.231-1.534-2.161-1.683c-0.388-0.06-0.952-0.227-1.252-0.479l-0.305-0.255
		c0.382-0.11,0.751-0.287,1.085-0.545c0.44-0.339,0.753-0.774,0.963-1.248c5.621-3.116,6.422-6.967,4.621-8.912
		c-1.25-1.35-4.84,0.493-7.604,2.255l-4.528-5.857c-0.758-0.981-2.008-1.442-3.224-1.19l-6.865,1.434l-2.077-6.333
		c0.781-0.184,1.574-0.335,2.157-0.4l14.142-1.586c1.523-0.17,2.62-1.543,2.449-3.066c-0.171-1.523-1.544-2.623-3.066-2.449
		l-14.141,1.585c-1.592,0.178-3.932,0.724-5.442,1.271l-3.975,1.439c-1.414,0.512-3.563,1.472-4.97,2.228L6.312,27.644
		c-1.326,0.767-1.78,2.464-1.013,3.792C5.813,32.325,6.745,32.822,7.704,32.822z M49.249,44.373c0.692-0.293,1.492,0.03,1.785,0.722
		c0.294,0.692-0.029,1.492-0.723,1.785c-0.691,0.293-1.49-0.029-1.784-0.723C48.234,45.467,48.558,44.667,49.249,44.373z
		 M23.624,58.199c-0.692,0.293-1.491-0.03-1.785-0.723c-0.293-0.691,0.031-1.491,0.723-1.784c0.692-0.294,1.49,0.03,1.783,0.722
		C24.64,57.106,24.316,57.905,23.624,58.199z M29.601,35.436l9.718-2.029l2.813,3.638l-9.021,3.826L22.93,45.19l-0.034-5.856
		L29.601,35.436z"/>
	<circle style="fill:#1D1D1B;" cx="20.929" cy="12.011" r="5.147"/>
</g>
</svg>
