<?xml version="1.0" encoding="iso-8859-1"?>
<!-- Generator: Adobe Illustrator 17.1.0, SVG Export Plug-In . SVG Version: 6.00 Build 0)  -->
<!DOCTYPE svg PUBLIC "-//W3C//DTD SVG 1.1//EN" "http://www.w3.org/Graphics/SVG/1.1/DTD/svg11.dtd">
<svg version="1.1" id="Capa_1" xmlns="http://www.w3.org/2000/svg" xmlns:xlink="http://www.w3.org/1999/xlink" x="0px" y="0px"
	 viewBox="0 0 64 64" style="enable-background:new 0 0 64 64;" xml:space="preserve">
<g>
	<path style="fill:#1D1D1B;" d="M5.429,42.971l41.179,11.495c0.469,0.137,0.952,0.206,1.436,0.206c0,0,0,0,0,0
		c1.827,0,3.529-0.986,4.441-2.573c0.284-0.494,0.328-1.074,0.121-1.591c-0.2-0.498-0.603-0.869-1.106-1.019
		c-0.771-0.234-1.619,0.116-2.316,0.965c-0.371,0.45-0.993,0.653-1.576,0.493l-14.271-3.982c0.146-0.058,0.294-0.125,0.443-0.216
		l10.799-6.604c1.615-0.979,1.934-3.551,0.817-4.589l-6.772-6.299l4.18-2.268l7.287,1.019c0.547,0.077,1.019-0.213,1.054-0.647
		c0.036-0.433-0.379-0.847-0.926-0.923l-5.083-0.714l2.35-1.275c4.172-2.434,0.609-8.909-3.695-6.6l-9.156,6.399l-12.288-1.727
		l0.266-1.264c0.057-0.27-0.116-0.535-0.386-0.592c-0.269-0.062-0.535,0.115-0.592,0.387l-0.28,1.329l-1.917-0.27
		c-0.547-0.076-0.99,0.222-0.99,0.666c0,0.444,0.443,0.866,0.99,0.943l1.587,0.222l-0.266,1.264
		c-0.057,0.27,0.116,0.536,0.386,0.593c0.035,0.008,0.069,0.011,0.104,0.011c0.231,0,0.439-0.161,0.489-0.396l0.28-1.332
		l10.71,1.497l-0.555,0.389c-0.453,0.316-1.062,0.957-1.226,1.485c-0.402,1.302-0.154,2.794,1.093,3.943l7.195,6.502
		c0,0-5.331,3.323-7.843,4.852c-1.487,0.9-1.43,2.495-0.641,3.492L6.411,39.451c-1.047-0.292-2.151,0.267-2.417,1.223
		C3.723,41.644,4.367,42.675,5.429,42.971z"/>
	<path style="fill:#1D1D1B;" d="M51.079,13.705c-1.599,1.748-1.485,4.462,0.276,6.078c1.747,1.601,4.467,1.473,6.073-0.279
		c1.609-1.744,1.482-4.469-0.266-6.067C55.415,11.829,52.682,11.947,51.079,13.705z"/>
</g>
</svg>
