<?xml version="1.0" encoding="iso-8859-1"?>
<!-- Generator: Adobe Illustrator 17.1.0, SVG Export Plug-In . SVG Version: 6.00 Build 0)  -->
<!DOCTYPE svg PUBLIC "-//W3C//DTD SVG 1.1//EN" "http://www.w3.org/Graphics/SVG/1.1/DTD/svg11.dtd">
<svg version="1.1" id="Capa_1" xmlns="http://www.w3.org/2000/svg" xmlns:xlink="http://www.w3.org/1999/xlink" x="0px" y="0px"
	 viewBox="0 0 64 64" style="enable-background:new 0 0 64 64;" xml:space="preserve">
<g>
	<path style="fill:#1D1D1B;" d="M8.625,53.779c1.032,0.774,2.759,0.959,4.364-1.176c0,0,6.753-9.205,11.688-15.888
		c-0.042,0.215-0.129,0.468-0.26,0.728c-0.287,0.562-0.394,1.111-0.24,1.227c0.154,0.116,0.549-0.332,0.884-1.002l0.114-0.228
		c0.316-0.633,0.355-1.296,0.114-1.554c0.978-1.321,1.867-2.521,2.587-3.488c0.112-0.152,0.194-0.312,0.249-0.477
		c0.161-0.135,0.325-0.297,0.482-0.502c5.445-7.199,15.588-20.33,15.588-20.33c2.072-2.758,1.26-4.16,0.228-4.935
		c-1.032-0.774-2.604-1.166-4.677,1.592c0,0-9.796,13.392-15.199,20.622c-0.155,0.207-0.266,0.411-0.351,0.604
		c-0.141,0.097-0.272,0.222-0.386,0.37c-0.73,0.961-1.634,2.148-2.633,3.455c-0.315-0.16-0.941,0.06-1.461,0.541l-0.187,0.172
		c-0.55,0.509-0.871,1.014-0.717,1.129c0.154,0.116,0.652-0.14,1.114-0.571c0.211-0.196,0.431-0.351,0.625-0.451
		C15.505,40.216,8.541,49.259,8.541,49.259C6.936,51.394,7.593,53.002,8.625,53.779z M19.283,37.748
		c0.214-0.66,0.751-1.678,1.201-2.276l0.737-0.979c0.449-0.599,1.076-1.238,1.4-1.432c0.324-0.191,0.687-0.273,0.808-0.181
		c0.123,0.091,0.587-0.317,1.036-0.916l1.025-1.363c0.42-0.559,0.423-1.252,0.046-1.626c0.133-0.09,0.265-0.167,0.38-0.208
		c0.303-0.105,0.861,0.043,1.246,0.333c0.385,0.289,0.687,0.787,0.675,1.111c-0.005,0.122-0.041,0.274-0.09,0.427
		c-0.462-0.254-1.125-0.06-1.544,0.498L25.177,32.5c-0.449,0.599-0.714,1.158-0.591,1.25c0.123,0.092,0.145,0.463,0.051,0.827
		c-0.095,0.365-0.535,1.146-0.985,1.744l-0.736,0.979c-0.45,0.598-1.279,1.396-1.854,1.785c-0.574,0.389-1.292,0.513-1.603,0.278
		C19.148,39.131,19.069,38.407,19.283,37.748z"/>
	<path style="fill:#1D1D1B;" d="M53.084,12.665c-1.032-0.775-2.604-1.167-4.677,1.59c0,0-9.795,13.393-15.198,20.623
		c-0.155,0.207-0.264,0.411-0.351,0.604c-0.14,0.098-0.271,0.222-0.385,0.371c-0.729,0.961-1.635,2.148-2.634,3.456
		c-0.313-0.161-0.94,0.06-1.46,0.54l-0.188,0.173c-0.55,0.508-0.871,1.013-0.717,1.128c0.154,0.115,0.653-0.14,1.113-0.571
		c0.212-0.198,0.432-0.351,0.627-0.453C24.167,46.723,17.2,55.769,17.2,55.769c-1.606,2.135-0.948,3.744,0.084,4.52
		c1.031,0.774,2.759,0.961,4.365-1.176c0,0,6.753-9.205,11.688-15.887c-0.043,0.214-0.13,0.469-0.261,0.727
		c-0.286,0.563-0.394,1.113-0.239,1.229c0.153,0.114,0.549-0.333,0.884-1.003l0.114-0.229c0.316-0.631,0.356-1.294,0.114-1.551
		c0.978-1.324,1.867-2.523,2.588-3.491c0.112-0.151,0.195-0.312,0.25-0.474c0.162-0.137,0.325-0.299,0.482-0.505
		C42.714,30.729,52.857,17.6,52.857,17.6C54.93,14.843,54.116,13.44,53.084,12.665z M36.405,37.148
		c-0.462-0.255-1.125-0.059-1.544,0.498l-1.025,1.363c-0.449,0.599-0.714,1.158-0.591,1.25c0.123,0.092,0.146,0.463,0.051,0.828
		c-0.095,0.363-0.536,1.143-0.985,1.743l-0.736,0.979c-0.45,0.599-1.279,1.397-1.854,1.786c-0.574,0.388-1.292,0.513-1.603,0.278
		c-0.311-0.233-0.39-0.957-0.177-1.616c0.213-0.659,0.751-1.679,1.2-2.276l0.737-0.979c0.449-0.599,1.077-1.238,1.401-1.432
		c0.324-0.191,0.687-0.273,0.809-0.181c0.123,0.093,0.587-0.316,1.036-0.914l1.025-1.363c0.42-0.56,0.423-1.254,0.046-1.626
		c0.133-0.091,0.266-0.168,0.38-0.208c0.304-0.106,0.861,0.043,1.246,0.331c0.384,0.29,0.687,0.786,0.674,1.112
		C36.491,36.845,36.455,36.995,36.405,37.148z"/>
</g>
</svg>
