<?xml version="1.0" encoding="iso-8859-1"?>
<!-- Generator: Adobe Illustrator 17.1.0, SVG Export Plug-In . SVG Version: 6.00 Build 0)  -->
<!DOCTYPE svg PUBLIC "-//W3C//DTD SVG 1.1//EN" "http://www.w3.org/Graphics/SVG/1.1/DTD/svg11.dtd">
<svg version="1.1" id="Capa_1" xmlns="http://www.w3.org/2000/svg" xmlns:xlink="http://www.w3.org/1999/xlink" x="0px" y="0px"
	 viewBox="0 0 64 64" style="enable-background:new 0 0 64 64;" xml:space="preserve">
<g>
	<path style="fill:#1D1D1B;" d="M48.215,24.887c0.134,0.062,0.276,0.092,0.418,0.092c0.196,0,0.391-0.058,0.559-0.171
		c0.289-0.194,0.456-0.525,0.44-0.874c-0.014-0.312,0.083-0.372,0.142-0.406c0.12-0.073,0.287-0.096,0.319-0.098
		c0.547-0.004,0.989-0.447,0.992-0.995c0.001-0.167,0.003-0.515,0.473-0.549c0.523-0.016,0.946-0.431,0.971-0.953
		c0.007-0.147,0.027-0.596,0.543-0.643c0.491-0.023,0.893-0.399,0.947-0.889c0.013-0.113,0.038-0.35,0.936-0.665
		c0.856-0.302,1.059-0.873,1.103-1.187c0.104-0.745-0.438-1.267-0.699-1.471c-0.238-0.231-1.321-1.275-2.242-2.048
		c-0.281-0.234-0.665-0.556-1.234-0.556c-0.229,0-0.454,0.055-0.662,0.16c-0.965,0.48-0.896,1.426-0.873,1.736
		c0.003,0.039,0.007,0.078,0.006,0.118c-0.004,0.16-0.016,0.587-0.892,1.074c-1.657,0.922-2.333,1.977-2.886,3.379
		c-0.153,0.39-0.477,0.751-0.714,0.922c-0.491,0.355-1.014,0.413-1.012,0.413c-0.454,0.035-0.827,0.372-0.907,0.821
		c-0.08,0.448,0.152,0.895,0.566,1.084l0.465,0.214L20.123,49.93L19.13,49c-0.193-0.181-0.452-0.288-0.716-0.27
		c-0.265,0.008-0.516,0.122-0.697,0.315l-0.544,0.581c-0.378,0.403-0.357,1.036,0.046,1.413l0.866,0.811l-1.398,1.493
		c-0.779,0.831-0.874,1.92-0.219,2.536c0.253,0.236,0.593,0.366,0.958,0.366h0c0.538,0,1.104-0.274,1.554-0.754l1.398-1.493
		l0.867,0.812c0.193,0.181,0.438,0.271,0.684,0.271c0.267,0,0.533-0.106,0.729-0.316l0.544-0.58c0.182-0.193,0.279-0.451,0.27-0.716
		c-0.009-0.266-0.122-0.517-0.316-0.697l-0.994-0.931l25.486-27.214L48.215,24.887z"/>
	<path style="fill:#1D1D1B;" d="M40.589,17.744c0.134,0.062,0.276,0.092,0.418,0.092c0.196,0,0.391-0.058,0.559-0.171
		c0.289-0.194,0.456-0.525,0.441-0.874c-0.009-0.191-0.022-0.481,0.461-0.504c0.546-0.005,0.988-0.447,0.991-0.994
		c0.001-0.167,0.003-0.516,0.474-0.55c0.523-0.016,0.946-0.431,0.971-0.953c0.007-0.147,0.027-0.596,0.542-0.643
		c0.491-0.023,0.893-0.4,0.947-0.889c0.013-0.113,0.038-0.35,0.938-0.665c0.856-0.302,1.059-0.873,1.102-1.186
		c0.104-0.745-0.438-1.267-0.699-1.471C47.494,8.703,46.41,7.66,45.49,6.889c-0.281-0.234-0.666-0.556-1.235-0.556
		c-0.229,0-0.452,0.054-0.662,0.159c-0.966,0.48-0.895,1.426-0.872,1.736c0.003,0.04,0.007,0.078,0.006,0.118
		c-0.004,0.16-0.016,0.587-0.892,1.075c-1.657,0.92-2.333,1.974-2.887,3.377c-0.153,0.39-0.477,0.751-0.714,0.923
		c-0.492,0.356-1.014,0.414-1.012,0.414c-0.454,0.036-0.826,0.373-0.906,0.821c-0.08,0.448,0.153,0.895,0.566,1.084l0.463,0.213
		L12.497,42.787l-0.993-0.93c-0.193-0.181-0.45-0.29-0.716-0.269c-0.265,0.008-0.516,0.122-0.697,0.315l-0.544,0.581
		c-0.378,0.403-0.357,1.036,0.046,1.413l0.865,0.811L9.06,46.201c-0.433,0.461-0.671,1.025-0.653,1.548
		c0.013,0.387,0.167,0.737,0.432,0.984c0.254,0.238,0.596,0.37,0.962,0.37c0.539,0,1.105-0.274,1.553-0.754l1.398-1.492l0.866,0.811
		c0.185,0.174,0.43,0.271,0.684,0.271c0.011,0,0.022,0,0.033-0.001c0.265-0.008,0.516-0.122,0.697-0.315l0.544-0.581
		c0.377-0.403,0.356-1.036-0.046-1.413l-0.993-0.93l25.486-27.214L40.589,17.744z"/>
</g>
</svg>
