<?xml version="1.0" encoding="iso-8859-1"?>
<!-- Generator: Adobe Illustrator 17.1.0, SVG Export Plug-In . SVG Version: 6.00 Build 0)  -->
<!DOCTYPE svg PUBLIC "-//W3C//DTD SVG 1.1//EN" "http://www.w3.org/Graphics/SVG/1.1/DTD/svg11.dtd">
<svg version="1.1" id="Capa_1" xmlns="http://www.w3.org/2000/svg" xmlns:xlink="http://www.w3.org/1999/xlink" x="0px" y="0px"
	 viewBox="0 0 64 64" style="enable-background:new 0 0 64 64;" xml:space="preserve">
<g>
	<path d="M19.437,14.883l3.282,7.007c-0.63,0.421-0.873,1.247-0.53,1.946l5.903,10.157v8.767l-4.252,15.491
		c-0.312,1.136,0.355,2.31,1.492,2.621c0.189,0.052,0.379,0.076,0.567,0.076c0.936,0,1.795-0.621,2.055-1.568l3.849-14.025h0.665
		l3.567,13.988c0.246,0.963,1.114,1.606,2.065,1.606c0.175,0,0.351-0.021,0.528-0.066c1.142-0.291,1.831-1.452,1.54-2.594
		l-3.95-15.491v-8.875l5.862-10.087c0.315-0.645,0.133-1.4-0.391-1.844l3.521-7.519c0.025-0.052,0.035-0.107,0.039-0.162
		c0.09-0.1,0.165-0.204,0.212-0.311c0.346-0.778,0.458-2.684-0.217-4.086C43.909,7.139,40.515,3.2,31.998,3.2
		c-8.516,0-11.911,3.939-13.245,6.715c-0.675,1.403-0.598,3.309-0.295,4.086C18.588,14.337,18.951,14.641,19.437,14.883z
		 M30.225,30.705c-0.108,0-0.212,0.016-0.316,0.032l-0.76-3.539c0.594,1.055,1.71,1.776,3.006,1.776c1.564,0,2.869-1.043,3.3-2.466
		l-0.895,4.17l-0.042,0.072c-0.14-0.029-0.285-0.044-0.433-0.044H30.225z M43.876,15.109l-3.055,6.524
		c-0.609-0.048-1.214,0.271-1.5,0.853l-3.238,5.571l2.715-12.646h3.221C42.671,15.411,43.315,15.295,43.876,15.109z M37.837,15.411
		l-2.264,10.544c0.019-0.148,0.045-0.293,0.045-0.446c0-1.912-1.55-3.462-3.463-3.462c-1.81,0-3.279,1.394-3.433,3.164l-2.104-9.8
		H37.837z M21.823,15.411h3.835l2.825,13.159l-3.536-6.084c-0.256-0.521-0.769-0.826-1.311-0.851l-2.968-6.339
		C21.037,15.369,21.428,15.411,21.823,15.411z"/>
</g>
</svg>
