<?xml version="1.0" encoding="iso-8859-1"?>
<!-- Generator: Adobe Illustrator 17.1.0, SVG Export Plug-In . SVG Version: 6.00 Build 0)  -->
<!DOCTYPE svg PUBLIC "-//W3C//DTD SVG 1.1//EN" "http://www.w3.org/Graphics/SVG/1.1/DTD/svg11.dtd">
<svg version="1.1" id="Capa_1" xmlns="http://www.w3.org/2000/svg" xmlns:xlink="http://www.w3.org/1999/xlink" x="0px" y="0px"
	 viewBox="0 0 64 64" style="enable-background:new 0 0 64 64;" xml:space="preserve">
<g>
	<path style="fill:#1D1D1B;" d="M17.646,22.604l-7.529-2.341c-1.318-0.411-2.719,0.325-3.13,1.645
		c-0.409,1.318,0.327,2.72,1.646,3.129l8.503,2.644c0.242,0.076,0.492,0.113,0.742,0.113c0.393,0,0.784-0.093,1.14-0.275
		l4.729-2.423l2.354,8.133c-0.255,0.087-0.5,0.204-0.726,0.357l-4.719,3.221c-1.335,0.911-1.708,2.716-0.844,4.082l4.787,7.562
		l-5.32,0.813c-3.883,0.593-6.546,2.457-5.943,4.161c0.6,1.704,4.237,2.619,8.122,2.04l27.472-4.08
		c3.885-0.578,7.233-2.572,7.478-4.455c0.245-1.882-2.704-2.927-6.588-2.334l-5.16,0.789l-5.422-10.68
		c-0.033-0.064-0.074-0.124-0.111-0.186l-2.92-11.549l6.704-0.736c0.568-0.062,1.099-0.318,1.501-0.725l6.613-6.666
		c0.973-0.98,0.967-2.563-0.014-3.535c-0.979-0.973-2.562-0.967-3.535,0.014l-5.991,6.038l-6.764,0.743
		c-0.176,0.019-0.345,0.058-0.506,0.11l-11.293,1.943c-0.347,0.016-0.694,0.099-1.022,0.268L17.646,22.604z M27.991,39.065h6.729
		l3.694,7.275l-7.342,1.122l-4.642-7.333L27.991,39.065z"/>
	<circle style="fill:#1D1D1B;" cx="27.237" cy="13.083" r="5.001"/>
</g>
</svg>
