<?xml version="1.0" encoding="iso-8859-1"?>
<!-- Generator: Adobe Illustrator 17.1.0, SVG Export Plug-In . SVG Version: 6.00 Build 0)  -->
<!DOCTYPE svg PUBLIC "-//W3C//DTD SVG 1.1//EN" "http://www.w3.org/Graphics/SVG/1.1/DTD/svg11.dtd">
<svg version="1.1" id="Capa_1" xmlns="http://www.w3.org/2000/svg" xmlns:xlink="http://www.w3.org/1999/xlink" x="0px" y="0px"
	 viewBox="0 0 64 64" style="enable-background:new 0 0 64 64;" xml:space="preserve">
<g>
	<path style="fill:#1D1D1B;" d="M25.168,50.112c2.826-3.344,7.146-8.191,10.298-11.37l3.914-3.949
		c3.152-3.18,7.962-7.545,11.277-10.399c1.597-1.376,3.214-2.625,4.703-3.845L44.185,9.473c-1.207,1.502-2.439,3.129-3.801,4.739
		c-2.825,3.341-7.148,8.188-10.299,11.369l-3.913,3.949c-3.151,3.18-7.959,7.544-11.275,10.399
		c-1.599,1.378-3.218,2.624-4.707,3.845l11.177,11.076C22.574,53.349,23.806,51.723,25.168,50.112z"/>
	<path style="fill:#1D1D1B;" d="M8.976,56.202c0,0,3.06,3.517,7.558,2.156c0.608-0.184,1.18-0.444,1.736-0.75
		c0,0,1.816-1.096,2.085-1.371L8.877,44.76c-0.254,0.253-1.394,2.159-1.394,2.159c-0.299,0.559-0.555,1.134-0.732,1.745
		C5.431,53.173,8.976,56.202,8.976,56.202z"/>
	<path style="fill:#1D1D1B;" d="M59.099,15.336c1.32-4.509-2.226-7.538-2.226-7.538s-3.06-3.517-7.558-2.156
		c-0.608,0.184-1.181,0.444-1.736,0.75c0,0-1.816,1.096-2.084,1.371L56.973,19.24c0.253-0.254,1.393-2.159,1.393-2.159
		C58.664,16.523,58.921,15.947,59.099,15.336z"/>
</g>
</svg>
