<?xml version="1.0" encoding="iso-8859-1"?>
<!-- Generator: Adobe Illustrator 17.1.0, SVG Export Plug-In . SVG Version: 6.00 Build 0)  -->
<!DOCTYPE svg PUBLIC "-//W3C//DTD SVG 1.1//EN" "http://www.w3.org/Graphics/SVG/1.1/DTD/svg11.dtd">
<svg version="1.1" id="Capa_1" xmlns="http://www.w3.org/2000/svg" xmlns:xlink="http://www.w3.org/1999/xlink" x="0px" y="0px"
	 viewBox="0 0 64 64" style="enable-background:new 0 0 64 64;" xml:space="preserve">
<g>
	<circle cx="38.18" cy="46.146" r="2.623"/>
	<path d="M6.25,13.837H59c1.104,0,1.672-0.833,1.266-1.86L59.234,9.36C58.828,8.333,57.604,7.5,56.5,7.5H8.231
		c-1.104,0-2.268,0.854-2.597,1.909l-0.788,2.518C4.518,12.982,5.146,13.837,6.25,13.837z"/>
	<path d="M59.234,53.959c-0.406-1.027-1.63-1.86-2.734-1.86H8.231c-1.104,0-2.268,0.854-2.597,1.909l-0.788,2.519
		c-0.329,1.055,0.299,1.909,1.403,1.909H59c1.104,0,1.672-0.833,1.266-1.86L59.234,53.959z"/>
	<circle cx="25.81" cy="20.325" r="2.723"/>
	<path d="M48.397,39.394c0.818,0.014,1.563-0.546,1.749-1.376c0.213-0.951-0.37-1.879-1.319-2.092
		c-0.149-0.031-0.299-0.046-0.446-0.041l-6.31,0.017l-9.33-10.817l2.439-0.012l4.237,4.893c0.252,0.308,0.632,0.502,1.058,0.502
		c0.758,0,1.373-0.616,1.373-1.371c0-0.41-0.181-0.775-0.465-1.028l-4.565-5.257c-0.252-0.305-0.634-0.5-1.059-0.5h-6.613
		c-0.484,0-0.923,0.194-1.242,0.506l-4.217,4.215l-3.493-3.488c-0.247-0.209-0.564-0.334-0.909-0.334
		c-0.783,0-1.417,0.636-1.417,1.417c0,0.342,0.119,0.652,0.319,0.897l4.215,4.243c1.278,1.278,2.306,0.195,2.306,0.195l2.585-2.599
		l4.041,4.672l-3.701,3.702c0,0-0.778,0.723-0.338,2.166l2.078,9.25c0.165,0.802,0.874,1.405,1.726,1.405
		c0.972,0,1.761-0.788,1.761-1.761c0-0.153-0.019-0.302-0.055-0.445l-1.706-7.583l4.206-4.092l3.617,4.034
		c0,0,0.584,0.724,2.14,0.669L48.397,39.394z"/>
</g>
</svg>
