<?xml version="1.0" encoding="iso-8859-1"?>
<!-- Generator: Adobe Illustrator 17.1.0, SVG Export Plug-In . SVG Version: 6.00 Build 0)  -->
<!DOCTYPE svg PUBLIC "-//W3C//DTD SVG 1.1//EN" "http://www.w3.org/Graphics/SVG/1.1/DTD/svg11.dtd">
<svg version="1.1" id="Capa_1" xmlns="http://www.w3.org/2000/svg" xmlns:xlink="http://www.w3.org/1999/xlink" x="0px" y="0px"
	 viewBox="0 0 64 64" style="enable-background:new 0 0 64 64;" xml:space="preserve">
<g>
	<path d="M32.994,3.444c-15.823,0-28.696,12.873-28.696,28.696c0,15.824,12.873,28.697,28.696,28.697
		c15.824,0,28.697-12.874,28.697-28.697C61.691,16.317,48.818,3.444,32.994,3.444z M28.22,39.612
		c-0.178-0.549-3.027-9.297-3.471-10.655c-0.005-0.016-0.008-0.032-0.014-0.044c-0.016-0.05-0.029-0.09-0.035-0.112
		c0.426-0.302,6.359-4.491,8.424-5.953c0.363-0.258,0.608-0.43,0.681-0.482c0.073,0.052,0.319,0.225,0.682,0.482
		c2.065,1.462,7.996,5.651,8.426,5.953c-0.007,0.022-0.021,0.062-0.036,0.112c-0.006,0.012-0.01,0.028-0.015,0.044
		c-0.444,1.357-3.293,10.106-3.471,10.655c-0.042,0-0.124,0-0.239,0c-0.308,0-0.863,0-1.566,0
		C34.53,39.612,28.683,39.612,28.22,39.612z M29.352,40.522l-5.101,7.186l-0.696-1.105l4.121-6.081H29.352z M33.125,21.734V13.41
		l0.681,0.266l0.682-0.266v8.324l-0.682-0.482L33.125,21.734z M39.797,40.522l4.307,6.07l-0.045,0.011l-0.836,1.178l-5.103-7.259
		H39.797z M43.424,30.17l0.525-1.608l6.965-2.107l0.881,1.073L43.424,30.17z M51.659,15.835l-0.135,1.96
		c-2.536-3.211-5.911-5.724-9.797-7.203l1.832-0.713C46.665,11.281,49.421,13.32,51.659,15.835z M25.65,7.519
		c2.328-0.696,4.792-1.075,7.344-1.075c3.254,0,6.367,0.614,9.235,1.723c0.267,0.482,0.479,0.867,0.57,1.032
		c-0.086,0.033-0.24,0.092-0.444,0.173c-0.447,0.174-1.144,0.444-1.95,0.759c-1.997,0.778-4.674,1.821-5.918,2.303
		c-0.382,0.15-0.63,0.247-0.682,0.267c-0.048-0.02-0.297-0.117-0.681-0.267c-1.268-0.494-4.015-1.565-6.023-2.344
		c-0.845-0.328-1.553-0.606-1.972-0.771c-0.152-0.055-0.266-0.101-0.331-0.126C24.917,8.961,25.246,8.313,25.65,7.519z
		 M23.911,9.825l1.842,0.718c-3.816,1.424-7.15,3.847-9.685,6.953l-0.135-1.927C18.158,13.142,20.87,11.18,23.911,9.825z
		 M16.673,26.389l6.99,2.173l0.523,1.608l-8.282-2.724L16.673,26.389z M9.665,33.655c-0.351-0.338-1.327-1.28-2.348-2.267
		c0.155-5.364,1.959-10.32,4.926-14.379c1.323-0.228,2.506-0.431,2.846-0.492c0,0.006,0,0.012,0,0.015
		c0.018,0.253,0.073,1.039,0.144,2.055c0.174,2.508,0.45,6.422,0.515,7.369c0.01,0.111,0.013,0.185,0.016,0.209
		c-0.044,0.055-0.341,0.426-0.78,0.978c-1.02,1.278-2.81,3.524-4.021,5.048c-0.613,0.768-1.08,1.354-1.227,1.537
		C9.721,33.711,9.687,33.68,9.665,33.655z M9.812,35.06l0.018,0.02l1.198-1.508c0.295,3.891,1.573,7.511,3.586,10.609l-1.81-0.381
		C11.238,41.118,10.241,38.268,9.812,35.06z M25.74,56.788c-5.028-1.482-9.42-4.461-12.655-8.424
		c0.211-1.322,0.419-2.617,0.517-3.231c0.018-0.115,0.033-0.209,0.041-0.27c0.221,0.059,0.887,0.24,1.771,0.479
		c2.451,0.664,6.577,1.781,7.416,2.008c0.077,0.021,0.124,0.035,0.142,0.039c0.039,0.059,0.276,0.43,0.625,0.983
		c0.798,1.265,2.203,3.483,3.247,5.137c0.458,0.726,0.849,1.342,1.087,1.72c0.098,0.153,0.171,0.269,0.211,0.332
		C27.851,55.713,26.864,56.216,25.74,56.788z M33.678,55.927c-1.539,0-3.039-0.151-4.499-0.427l-1.024-1.62
		c1.768,0.445,3.621,0.681,5.523,0.681c2.015,0,3.97-0.266,5.83-0.762l-1.041,1.647C36.919,55.76,35.316,55.927,33.678,55.927z
		 M41.276,56.46c-0.863-0.43-1.567-0.78-1.803-0.898c0.046-0.076,0.135-0.214,0.254-0.401c0.254-0.404,0.65-1.032,1.113-1.763
		c1.498-2.374,3.677-5.818,3.796-6.007c0.228-0.061,4.533-1.228,7.241-1.962c0.981-0.266,1.75-0.474,2.039-0.552
		c0.021-0.006,0.044-0.013,0.058-0.015c0.041,0.231,0.156,0.865,0.301,1.666C51.165,51.113,46.612,54.638,41.276,56.46z
		 M54.604,43.747l-1.917,0.519c2.098-3.194,3.41-6.951,3.664-10.986l1.226,1.537C57.178,38.032,56.144,41.053,54.604,43.747z
		 M58.691,32.14c0,0.273-0.012,0.544-0.021,0.815c-0.382,0.369-0.673,0.649-0.8,0.772c-0.036-0.045-0.095-0.122-0.169-0.215
		c-0.26-0.325-0.733-0.919-1.304-1.633c-1.198-1.507-2.82-3.543-3.771-4.737c-0.437-0.552-0.734-0.923-0.778-0.978
		c0-0.024,0.006-0.098,0.012-0.209c0.064-0.907,0.317-4.532,0.495-7.039c0.062-0.898,0.115-1.653,0.146-2.083
		c0.007-0.139,0.017-0.25,0.023-0.316c0.162,0.028,0.518,0.091,0.986,0.172C56.761,20.993,58.691,26.345,58.691,32.14z"/>
</g>
</svg>
