<?xml version="1.0" encoding="iso-8859-1"?>
<!-- Generator: Adobe Illustrator 17.1.0, SVG Export Plug-In . SVG Version: 6.00 Build 0)  -->
<!DOCTYPE svg PUBLIC "-//W3C//DTD SVG 1.1//EN" "http://www.w3.org/Graphics/SVG/1.1/DTD/svg11.dtd">
<svg version="1.1" id="Capa_1" xmlns="http://www.w3.org/2000/svg" xmlns:xlink="http://www.w3.org/1999/xlink" x="0px" y="0px"
	 viewBox="0 0 64 64" style="enable-background:new 0 0 64 64;" xml:space="preserve">
<g>
	<path d="M5.863,37.163c0.143,0.361,0.498,0.672,0.888,0.839c-0.301,0.159-0.512,0.46-0.512,0.831v1.164
		c0,0.552,0.447,1.013,0.999,1.028c0.185,0.005,0.393,0.011,0.62,0.017c0.552,0.016,1,0.178,1,0.363v0.335c0,0.552,0.447,1,1,1
		c0.553,0,1-0.448,1-1c0,0,0-0.138,0-0.307c0-0.17,0.447-0.295,0.999-0.28c0.255,0.007,0.513,0.014,0.774,0.021
		c0.552,0.015,1,0.148,1,0.296v0.269c0,0.552,0.447,1,1,1c0.553,0,1-0.448,1-1c0,0,0-0.108,0-0.243c0-0.134,0.448-0.23,1-0.216
		c1.238,0.033,2.421,0.064,3.434,0.089c4.229,0.108,9.477,0.432,14.983,0.585c0.552,0.016,0.999,0.196,0.999,0.405v0.379
		c0,0.552,0.447,1,1,1c0.553,0,1-0.448,1-1c0,0,0-0.163,0-0.364c0-0.201,0.447-0.357,1-0.351c0.305,0.003,0.61,0.005,0.916,0.006
		c0.553,0.002,1.001,0.159,1.001,0.354v0.354c0,0.552,0.447,1,1,1c0.553,0,1-0.448,1-1c0,0,0-0.164,0-0.367
		c0-0.203,0.448-0.375,1-0.389c1.833-0.049,3.648-0.141,5.422-0.288c0.551-0.045,0.995,0.053,0.995,0.227v0.316c0,0.552,0.447,1,1,1
		c0.553,0,1-0.448,1-1c0,0,0-0.191,0-0.428c0-0.236,0.444-0.483,0.991-0.561c0.744-0.106,1.476-0.225,2.192-0.358
		c0.543-0.101,0.982,0.042,0.982,0.331v0.525c0,0.552,0.447,1,1,1c0.553,0,1-0.448,1-1c0,0,0-0.343,0-0.766
		c0-0.423,0.422-0.873,0.939-1.016c0.519-0.143,0.933-0.649,0.933-1.106c0-0.318-0.212-0.514-0.516-0.564
		c0.314-0.229,0.533-0.587,0.529-0.94c-0.005-0.439-0.01-0.879-0.01-0.903c0-2.785-3.171-3.546-7.929-4.69l-0.63-0.152
		c-0.761-0.183-2.156-0.492-4.242-1.109c-0.529-0.157-1.127,0.124-1.337,0.634l-0.671,1.626c-0.154,0.382-0.593,0.563-0.973,0.406
		c-0.384-0.155-0.565-0.593-0.408-0.975l0.621-1.517c0.209-0.511-0.046-1.065-0.566-1.248c-0.09-0.031-0.18-0.063-0.269-0.095
		c-0.521-0.184-1.133,0.071-1.368,0.571l-0.774,1.645c-0.175,0.375-0.619,0.535-0.995,0.36c-0.373-0.174-0.535-0.618-0.358-0.992
		l0.713-1.53c0.232-0.501,0.002-1.064-0.513-1.265c-0.01-0.004-0.021-0.008-0.03-0.012c-0.515-0.201-1.148,0.02-1.418,0.502
		l-0.946,1.692c-0.219,0.353-0.678,0.464-1.03,0.249c-0.353-0.215-0.462-0.677-0.248-1.027l0.838-1.508
		c0.268-0.482,0.075-1.056-0.422-1.296c-0.049-0.023-0.097-0.046-0.145-0.07c-0.496-0.243-1.14-0.075-1.442,0.388l-1.143,1.748
		c-0.238,0.337-0.707,0.416-1.043,0.177c-0.336-0.24-0.416-0.705-0.176-1.042l1.038-1.596c0.302-0.463,0.155-1.058-0.313-1.349
		c-0.036-0.023-0.071-0.044-0.107-0.067c-0.468-0.293-1.111-0.199-1.452,0.236l-1.299,1.654c-0.259,0.322-0.729,0.375-1.052,0.117
		c-0.321-0.257-0.375-0.729-0.115-1.05l1.277-1.628c0.341-0.434,0.53-0.858,0.426-0.948c-0.063-0.055-0.126-0.11-0.188-0.165
		c-0.308-0.279-0.607-0.544-0.9-0.801c-0.804-0.601-2.393-1.006-4.284,0.062c-1.807,1.02-5.88,2.258-9.348,1.205
		c-2.398-0.747-4.203-2.118-5.117-3.953c-0.47-0.946-0.842-1.511-1.576-1.557c-0.946-0.062-1.56,0.403-3.583,2.831
		c-0.41,0.494-0.796,1.014-1.171,1.645c-0.281,0.475-0.131,1.167,0.311,1.497c5.092,3.791,12.977,6.03,22.534,7.851
		c8.08,1.54,12.146,5.605,13.579,7.374c0.159,0.197,0.395,0.38,0.653,0.526c-0.299-0.024-0.543-0.057-0.623-0.081
		c-0.077-0.023-0.158-0.037-0.243-0.037c-0.081,0-0.158,0.012-0.232,0.033c-0.125,0.035-0.666,0.076-1.219,0.058
		c-1.503-0.049-2.996-0.129-4.485-0.214c0.062-0.136,0.029-0.319-0.135-0.524c-3.534-4.406-10.012-5.82-17.51-7.881
		c-6.539-1.799-10.716-4.347-12.817-5.887C5.12,24.948,4.66,25,4.554,25.42c-0.106,0.42,0.139,1.094,0.551,1.461
		c4.076,3.644,12.114,6.417,17.514,7.767c4.093,1.024,6.55,2.98,7.691,4.111c0.177,0.175,0.427,0.345,0.693,0.486
		c-0.217-0.015-0.438-0.028-0.654-0.043l-4.307-0.289c-0.835-0.052-1.651-0.102-2.456-0.15c0.067-0.136,0.032-0.321-0.144-0.521
		c-1.755-1.985-5.059-3.342-9.356-4.979c-3.438-1.309-6.884-3.446-9.107-5.348c-0.42-0.359-0.784-0.28-0.809,0.203
		c-0.014,0.28-0.022,0.571-0.022,0.875c0,0.386,0.011,0.79,0.035,1.214C4.332,32.897,5.275,35.667,5.863,37.163z"/>
</g>
</svg>
