<?xml version="1.0" encoding="iso-8859-1"?>
<!-- Generator: Adobe Illustrator 17.1.0, SVG Export Plug-In . SVG Version: 6.00 Build 0)  -->
<!DOCTYPE svg PUBLIC "-//W3C//DTD SVG 1.1//EN" "http://www.w3.org/Graphics/SVG/1.1/DTD/svg11.dtd">
<svg version="1.1" id="Capa_1" xmlns="http://www.w3.org/2000/svg" xmlns:xlink="http://www.w3.org/1999/xlink" x="0px" y="0px"
	 viewBox="0 0 64 64" style="enable-background:new 0 0 64 64;" xml:space="preserve">
<g>
	<circle cx="40.681" cy="17.14" r="3.86"/>
	<path d="M8.657,44.174l10.4-0.017c2.205,0.078,3.033-0.947,3.033-0.947l5.127-5.719l5.963,5.801l-2.418,10.75
		c-0.051,0.203-0.078,0.414-0.078,0.631c0,1.379,1.119,2.496,2.496,2.496c1.207,0,2.213-0.855,2.446-1.992l2.946-13.113
		c0.624-2.047-0.479-3.07-0.479-3.07l-5.248-5.248l5.73-6.625l3.663,3.686c0,0,1.457,1.535,3.271-0.277l5.975-6.016
		c0.283-0.348,0.452-0.787,0.452-1.271c0-1.107-0.898-2.01-2.008-2.01c-0.489,0-0.94,0.178-1.29,0.473l-4.952,4.945l-5.977-5.975
		c-0.453-0.441-1.074-0.716-1.761-0.716h-9.376c-0.602,0-1.143,0.276-1.5,0.708L18.6,28.119c-0.402,0.357-0.658,0.875-0.658,1.457
		c0,1.07,0.872,1.943,1.946,1.943c0.604,0,1.142-0.275,1.499-0.711l6.007-6.938l3.459,0.016L17.626,39.223l-8.945-0.023
		c-0.209-0.006-0.421,0.014-0.633,0.059c-1.345,0.301-2.172,1.617-1.871,2.965C6.441,43.4,7.496,44.193,8.657,44.174z"/>
	<circle cx="45.424" cy="52.273" r="4.895"/>
</g>
</svg>
