<?xml version="1.0" encoding="iso-8859-1"?>
<!-- Generator: Adobe Illustrator 17.1.0, SVG Export Plug-In . SVG Version: 6.00 Build 0)  -->
<!DOCTYPE svg PUBLIC "-//W3C//DTD SVG 1.1//EN" "http://www.w3.org/Graphics/SVG/1.1/DTD/svg11.dtd">
<svg version="1.1" id="Capa_1" xmlns="http://www.w3.org/2000/svg" xmlns:xlink="http://www.w3.org/1999/xlink" x="0px" y="0px"
	 viewBox="0 0 64 64" style="enable-background:new 0 0 64 64;" xml:space="preserve">
<g>
	<path d="M60.25,8.724H5.051c-1.104,0-2,0.896-2,2v39c0,1.105,0.896,2,2,2s2-0.895,2-2V43.99l2.6-0.684V51
		c0,0.276,0.224,0.5,0.5,0.5s0.5-0.224,0.5-0.5v-7.957l2.6-0.684v7.365c0,1.105,0.896,2,2,2s2-0.895,2-2v-7.908h7.417v8.366
		c0,0.276,0.224,0.5,0.5,0.5c0.276,0,0.5-0.224,0.5-0.5v-8.366H31.5v7.908c0,0.276,0.224,0.5,0.5,0.5c0.276,0,0.5-0.224,0.5-0.5
		v-7.908h7.001v8.366c0,0.276,0.224,0.5,0.5,0.5c0.276,0,0.5-0.224,0.5-0.5v-8.366h6.55v7.908c0,1.105,0.896,2,2,2s2-0.895,2-2
		v-7.616l3.199,0.837V51c0,0.276,0.224,0.5,0.5,0.5c0.276,0,0.5-0.224,0.5-0.5v-7.793l3,0.786v5.731c0,1.105,0.896,2,2,2
		s2-0.895,2-2v-39C62.25,9.62,61.354,8.724,60.25,8.724z M9.65,42.272l-2.6,0.684v-7.881h2.6V42.272z M9.65,34.075h-2.6v-8.612
		l2.6,0.92V34.075z M9.65,25.322l-2.6-0.92V16.05l2.6,1.99V25.322z M9.287,12.724h7.941l1.872,1.949H12
		c-0.047,0-0.09,0.015-0.133,0.027L9.287,12.724z M13.25,41.326l-2.6,0.684v-6.935h2.6V41.326z M13.25,34.075h-2.6v-7.338l2.6,0.92
		V34.075z M13.25,26.596l-2.6-0.919v-6.871l2.6,1.99V26.596z M24.667,40.816H17.25v-5.741h7.417V40.816z M24.667,34.075H17.25
		v-5.741h7.417V34.075z M24.667,27.334H17.25v-5.741h7.417V27.334z M24.667,20.593H17.25v-0.785c0-0.622-0.29-1.209-0.784-1.588
		l-3.327-2.547h6.923l4.606,4.794V20.593z M31.5,40.816h-5.833v-5.741H31.5V40.816z M31.5,34.075h-5.833v-5.741H31.5V34.075z
		 M31.5,27.334h-5.833v-5.741H31.5V27.334z M31.5,20.593h-5.833v-0.327c0-0.129-0.05-0.253-0.14-0.346l-4.08-4.246H31.5V20.593z
		 M31.5,14.673H20.486l-1.872-1.949H31.5V14.673z M32.5,12.724h14.054l-1.872,1.949H32.5V12.724z M39.501,40.816H32.5v-5.741h7.001
		V40.816z M39.501,34.075H32.5v-5.741h7.001V34.075z M39.501,27.334H32.5v-5.741h7.001V27.334z M39.641,19.919
		c-0.09,0.093-0.14,0.217-0.14,0.346v0.327H32.5v-4.92h11.221L39.641,19.919z M47.051,40.816h-6.55v-5.741h6.55V40.816z
		 M47.051,34.075h-6.55v-5.741h6.55V34.075z M47.051,27.334h-6.55v-5.741h6.55V27.334z M47.835,18.22
		c-0.494,0.378-0.784,0.965-0.784,1.588v0.785h-6.55v-0.126l4.605-4.794h6.056L47.835,18.22z M54.25,41.912l-3.199-0.837v-5.999
		h3.199V41.912z M54.25,34.075h-3.199v-6.024l3.199-0.925V34.075z M54.25,26.084l-3.199,0.925v-6.214l3.199-2.449V26.084z
		 M52.469,14.673h-6.401l1.872-1.949h7.074L52.469,14.673z M58.25,42.959l-3-0.785v-7.099h3V42.959z M58.25,34.075h-3v-7.239
		l3-0.868V34.075z M58.25,24.928l-3,0.868v-8.215l3-2.296V24.928z"/>
</g>
</svg>
