<?xml version="1.0" encoding="iso-8859-1"?>
<!-- Generator: Adobe Illustrator 17.1.0, SVG Export Plug-In . SVG Version: 6.00 Build 0)  -->
<!DOCTYPE svg PUBLIC "-//W3C//DTD SVG 1.1//EN" "http://www.w3.org/Graphics/SVG/1.1/DTD/svg11.dtd">
<svg version="1.1" id="Capa_1" xmlns="http://www.w3.org/2000/svg" xmlns:xlink="http://www.w3.org/1999/xlink" x="0px" y="0px"
	 viewBox="0 0 64 64" style="enable-background:new 0 0 64 64;" xml:space="preserve">
<g>
	<path d="M35.21,31.997c0-1.988-1.358-3.647-3.189-4.147v8.295C33.852,35.644,35.21,33.985,35.21,31.997z"/>
	<rect x="2.732" y="23.454" width="5.444" height="17.086"/>
	<rect x="55.677" y="23.454" width="5.257" height="17.086"/>
	<path d="M26.579,31.997c0,1.988,1.357,3.647,3.189,4.147V27.85C27.937,28.35,26.579,30.009,26.579,31.997z"/>
	<path d="M57.555,15.837H32.021v9.695c3.086,0.536,5.442,3.229,5.442,6.465c0,3.236-2.356,5.929-5.442,6.465v9.695h25.534
		c1.866,0,3.379-1.512,3.379-3.38v-1.984h-6.383c-0.622,0-1.126-0.504-1.126-1.126v-3.392c-2.984-0.535-5.257-3.144-5.257-6.278
		c0-3.135,2.273-5.743,5.257-6.278v-3.392c0-0.622,0.504-1.126,1.126-1.126h6.383v-1.984C60.934,17.349,59.421,15.837,57.555,15.837
		z"/>
	<path d="M53.424,35.952v-7.91c-1.729,0.494-3.004,2.069-3.004,3.955C50.42,33.883,51.696,35.458,53.424,35.952z"/>
	<path d="M2.732,19.217v1.984h6.571c0.622,0,1.126,0.504,1.126,1.126v3.392c2.984,0.535,5.257,3.143,5.257,6.278
		c0,3.135-2.273,5.743-5.257,6.278v3.392c0,0.622-0.504,1.126-1.126,1.126H2.732v1.984c0,1.868,1.513,3.38,3.379,3.38h23.656v-9.695
		c-3.086-0.536-5.442-3.229-5.442-6.465c0-3.236,2.355-5.929,5.442-6.465v-9.695H6.112C4.246,15.837,2.732,17.349,2.732,19.217z"/>
	<path d="M10.43,28.042v7.91c1.729-0.494,3.004-2.069,3.004-3.955C13.434,30.111,12.158,28.536,10.43,28.042z"/>
</g>
</svg>
