<?xml version="1.0" encoding="iso-8859-1"?>
<!-- Generator: Adobe Illustrator 17.1.0, SVG Export Plug-In . SVG Version: 6.00 Build 0)  -->
<!DOCTYPE svg PUBLIC "-//W3C//DTD SVG 1.1//EN" "http://www.w3.org/Graphics/SVG/1.1/DTD/svg11.dtd">
<svg version="1.1" id="Capa_1" xmlns="http://www.w3.org/2000/svg" xmlns:xlink="http://www.w3.org/1999/xlink" x="0px" y="0px"
	 viewBox="0 0 64 64" style="enable-background:new 0 0 64 64;" xml:space="preserve">
<g>
	<path d="M26.048,16.924c0.253,0.566,0.486,1.144,0.719,1.719l0.24,0.592c0.03,0.074,0.058,0.155,0.086,0.241
		c0.042,0.127,0.131,0.393,0.198,0.448c0.173,0.004,0.273-0.01,0.367-0.025c0.08-0.012,0.155-0.023,0.222-0.028
		c0.704-0.044,1.41-0.067,2.109-0.067h0.934c1.582,0,3.133,0.01,4.706,0.131l0.381,0.03c0.529,0.041,1.064,0.083,1.591,0.154
		c0.115,0.015,0.242,0.045,0.37,0.077c0.138,0.035,0.28,0.07,0.383,0.07l0.041-0.002c-0.037-0.003,0.008-0.101,0.036-0.16
		c0.08-0.172,0.147-0.31,0.214-0.447c0.124-0.252,0.248-0.503,0.353-0.77l0.173-0.438c0.502-1.273,1.021-2.589,1.479-3.906
		c0.042-0.121,0.107-0.271,0.18-0.434c0.103-0.232,0.345-0.776,0.299-0.935c-0.097-0.33-0.877-0.764-1.296-0.998
		c-0.122-0.068-0.232-0.129-0.324-0.185c-1.545-0.96-3.217-1.557-4.65-2.014c-0.134-0.044-0.269-0.091-0.405-0.139
		c-0.54-0.188-1.092-0.386-1.602-0.34c-2.614,0.24-5.153,0.993-6.965,2.066c-0.453,0.265-0.894,0.527-1.326,0.839
		c-0.106,0.074-0.302,0.211-0.322,0.279c-0.027,0.136,0.171,0.55,0.255,0.727c0.05,0.103,0.095,0.199,0.129,0.282
		c0.302,0.739,0.634,1.476,0.966,2.212L26.048,16.924z"/>
	<path d="M22.767,34.192c0.842,1.69,1.765,3.234,2.822,4.721l0.295,0.418c0.352,0.504,0.715,1.025,1.128,1.427
		c0.214,0.213,0.433,0.429,0.62,0.51c0.346,0.144,0.863,0.157,1.364,0.169c0.297,0.008,0.585,0.017,0.84,0.049
		c1.576,0.187,3.15,0.282,4.678,0.282c1.192,0,2.352-0.059,3.446-0.174c0.613-0.062,0.97-0.657,1.348-1.287
		c0.077-0.128,0.154-0.256,0.232-0.378l0.221-0.345c1.157-1.81,2.25-3.519,3.183-5.394c0.269-0.528,0.505-1.077,0.764-1.686
		l0.05-0.112c0.068-0.153,0.146-0.326,0.119-0.407c-0.259-0.814-0.795-1.624-1.314-2.407c-0.155-0.234-0.306-0.462-0.447-0.686
		c-0.456-0.716-0.891-1.449-1.325-2.18c-0.363-0.613-0.726-1.226-1.103-1.831c-0.148-0.237-0.302-0.474-0.455-0.711
		c-0.196-0.305-0.392-0.609-0.579-0.913l-0.05-0.085c-0.14-0.238-0.314-0.534-0.488-0.628c-0.092-0.048-0.263-0.068-0.428-0.087
		c-0.088-0.01-0.174-0.021-0.254-0.035c-0.611-0.103-1.245-0.174-1.935-0.219l-0.814-0.059c-1.232-0.089-2.505-0.181-3.752-0.181
		c-0.67,0-1.273,0.026-1.845,0.08c-0.169,0.014-0.368,0.015-0.583,0.017c-0.45,0.001-1.067,0.004-1.305,0.177
		c-0.289,0.211-0.556,0.705-0.792,1.141c-0.13,0.241-0.256,0.472-0.383,0.662c-0.755,1.133-1.472,2.322-2.164,3.471
		c-0.337,0.559-0.674,1.118-1.018,1.674c-0.186,0.296-0.346,0.603-0.507,0.91c-0.129,0.246-0.259,0.493-0.399,0.732l-0.079,0.129
		c-0.097,0.157-0.23,0.373-0.22,0.491c0.044,0.663,0.498,1.529,0.863,2.224C22.595,33.854,22.687,34.029,22.767,34.192z"/>
	<path d="M24.417,43.49c0.29-0.348,0.581-0.696,0.859-1.053l0.063-0.082c0.016-0.021,0.038-0.048,0.057-0.073
		c-0.039-0.043-0.102-0.104-0.145-0.144c-0.065-0.061-0.128-0.122-0.18-0.181c-0.329-0.366-0.637-0.769-0.9-1.117
		c-0.941-1.198-1.779-2.464-2.555-3.864c-0.661-1.176-1.233-2.354-1.697-3.5c-0.032-0.077-0.065-0.179-0.1-0.291
		c-0.043-0.136-0.132-0.421-0.204-0.48l-1.195,0.107c-1.587,0.112-3.228,0.229-4.821,0.497l-1.554,0.27
		c-0.056,0.007-0.148,0.02-0.177,0.033c-0.007,0.034-0.022,0.272-0.03,0.399c-0.006,0.097-0.012,0.189-0.023,0.269
		c-0.059,0.438-0.096,0.875-0.133,1.31c-0.031,0.359-0.061,0.717-0.103,1.076c-0.143,1.268-0.007,2.53,0.172,3.931
		c0.122,0.981,0.291,1.988,0.704,2.72c0.325,0.578,0.949,1.156,1.452,1.621c0.972,0.881,2.102,1.863,3.39,2.508
		c0.203,0.103,0.401,0.207,0.599,0.313c0.537,0.285,1.044,0.554,1.592,0.745c0.076,0.025,0.16,0.062,0.248,0.098
		c0.127,0.054,0.285,0.122,0.367,0.122v0.458l0.004-0.458c0.182-0.022,0.592-0.604,0.747-0.824c0.095-0.133,0.18-0.253,0.252-0.342
		l0.813-1.007c0.802-0.995,1.608-1.995,2.426-2.975L24.417,43.49z"/>
	<path d="M50.352,33.678c-0.953-0.123-1.938-0.251-2.902-0.329c-0.158-0.012-0.336-0.04-0.523-0.068
		c-0.263-0.041-0.535-0.083-0.768-0.083c-0.118,0-0.214,0.011-0.287,0.033c0.021,0.002-0.02,0.118-0.045,0.186
		c-0.019,0.057-0.039,0.111-0.06,0.16c-0.195,0.462-0.412,0.917-0.629,1.372l-0.169,0.354c-0.743,1.59-1.703,3.087-2.631,4.536
		l-0.6,0.941c-0.28,0.456-0.589,0.948-0.928,1.414c-0.037,0.052-0.086,0.11-0.138,0.17c-0.05,0.058-0.134,0.156-0.149,0.198
		c0.017,0.065,0.218,0.303,0.315,0.418c0.071,0.084,0.137,0.164,0.188,0.234c0.361,0.505,0.733,0.998,1.105,1.492l1.066,1.429
		c0.535,0.725,1.088,1.476,1.686,2.148l0.139,0.163c0.317,0.376,0.414,0.465,0.659,0.402c2.344-0.635,4.576-2.076,6.036-3.173
		l0.33-0.243c0.531-0.386,1.192-0.866,1.42-1.346c0.239-0.511,0.34-1.227,0.43-1.86l0.045-0.315
		c0.301-1.917,0.338-3.719,0.112-5.511L54,35.961c-0.049-0.406-0.098-0.816-0.167-1.219l-0.017-0.122
		c-0.021-0.151-0.049-0.359-0.11-0.438c-0.146-0.17-1.023-0.24-1.353-0.266c-0.135-0.011-0.257-0.021-0.354-0.032
		C51.451,33.821,50.902,33.75,50.352,33.678z"/>
	<path d="M43.503,50.123l-0.076-0.087c-0.335-0.368-0.647-0.715-0.947-1.107c-0.594-0.752-1.176-1.525-1.758-2.3
		c-0.371-0.493-0.741-0.986-1.115-1.474c-0.12-0.157-0.236-0.347-0.355-0.544c-0.198-0.327-0.423-0.697-0.653-0.835
		c-0.005,0-0.197-0.004-0.333,0.012c-0.073,0.007-0.142,0.014-0.205,0.017c-0.4,0.013-0.792,0.039-1.185,0.064
		c-0.293,0.019-0.586,0.038-0.879,0.052c-1.905,0.074-3.806,0.007-6.2-0.189l-0.34-0.026c-0.463-0.035-0.934-0.071-1.393-0.137
		l-0.143-0.024c-0.138-0.024-0.298-0.055-0.445-0.055c-0.092,0-0.128,0.015-0.131,0.017c-0.188,0.077-0.43,0.422-0.59,0.65
		l-0.144,0.202c-0.292,0.376-0.592,0.737-0.892,1.098c-0.298,0.358-0.596,0.717-0.88,1.084c-0.312,0.408-0.649,0.8-0.986,1.192
		c-0.417,0.485-0.848,0.986-1.216,1.51c-0.06,0.085-0.144,0.185-0.236,0.292c-0.105,0.122-0.323,0.375-0.339,0.476
		c-0.008,0.151,0.279,0.541,0.402,0.706l0.107,0.147c0.671,0.956,1.262,1.739,1.965,2.458l0.161,0.164
		c0.664,0.681,1.351,1.383,2.145,1.805c0.484,0.261,1.05,0.384,1.649,0.515c0.248,0.054,0.495,0.108,0.733,0.171
		c1.375,0.353,2.843,0.524,4.485,0.524c0.458,0,0.917-0.014,1.379-0.037c1.022-0.057,2.332-0.182,3.39-0.638
		c0.325-0.141,0.656-0.449,0.975-0.747l0.221-0.203c1.05-0.919,1.917-1.972,2.833-3.087l0.103-0.125
		c0.319-0.379,0.604-0.753,0.85-1.117l0.095-0.125c0.035-0.045,0.095-0.121,0.107-0.152C43.646,50.283,43.553,50.179,43.503,50.123z
		"/>
	<path d="M32.963,3.681c-14.66,0-26.687,11.731-27.6,26.499c-0.137,1.219-0.144,2.33-0.018,3.364c0,0,0,0.001,0,0.001
		c0.796,14.882,12.878,26.74,27.617,26.74c15.253,0,27.662-12.697,27.662-28.303C60.625,16.377,48.216,3.681,32.963,3.681z
		 M53.297,31.836c0.358,0.083,0.721,0.172,0.99,0.133c0.024-0.02,0.109-0.158,0.155-0.232l0.137-0.211
		c0.331-0.496,0.643-0.963,0.916-1.47c0.562-1.062,1.133-2.252,1.499-3.735c0.345,1.542,0.553,3.137,0.608,4.772
		c-0.158,0.259-0.318,0.516-0.478,0.768c-0.15,0.237-0.299,0.473-0.444,0.71c-0.086,0.141-0.201,0.288-0.319,0.438
		c-0.158,0.199-0.336,0.425-0.382,0.594c-0.025,0.098,0.023,0.305,0.06,0.47c0.019,0.084,0.037,0.166,0.051,0.244
		c0.058,0.358,0.097,0.713,0.136,1.068l0.062,0.548c0.162,1.35,0.144,2.691,0.109,3.915c-1.052,3.291-2.744,6.285-4.927,8.829
		l-0.104,0.067c-1.103,0.716-2.355,1.349-3.835,1.939c-0.223,0.09-0.495,0.161-0.774,0.231c-0.365,0.092-0.742,0.188-0.962,0.337
		c-0.11,0.073-0.217,0.241-0.321,0.403c-0.056,0.086-0.11,0.171-0.167,0.248c-0.259,0.358-0.538,0.703-0.816,1.047l-0.267,0.332
		c-0.566,0.704-1.185,1.394-1.826,2.072c-2.909,1.242-6.097,1.93-9.438,1.93c-3.431,0-6.7-0.725-9.672-2.029
		c-0.243-0.241-0.485-0.482-0.727-0.744c-0.726-0.77-1.331-1.598-1.877-2.377c-0.088-0.124-0.176-0.27-0.267-0.419
		c-0.164-0.272-0.334-0.555-0.515-0.695c-0.076-0.061-0.218-0.087-0.369-0.116c-0.104-0.02-0.208-0.041-0.305-0.069
		c-0.494-0.146-0.972-0.351-1.413-0.55c-1.449-0.654-2.669-1.48-3.772-2.275c-0.122-0.088-0.246-0.187-0.369-0.282
		c-1.891-2.433-3.359-5.227-4.277-8.268c-0.089-1.555-0.03-3.048,0.062-4.443c0.02-0.286,0.077-0.597,0.137-0.916
		c0.091-0.483,0.184-0.983,0.116-1.361c-0.027-0.156-0.184-0.372-0.323-0.562c-0.093-0.127-0.182-0.251-0.253-0.371
		c-0.299-0.526-0.539-1.062-0.772-1.579l-0.004-0.009c0.103-1.523,0.335-3.01,0.69-4.448c0.065,0.175,0.132,0.345,0.193,0.498
		l0.348,0.894c0.335,0.875,0.652,1.701,1.052,2.53l0.097,0.196c0.213,0.433,0.415,0.841,0.664,1.22
		c0.059,0.092,0.142,0.224,0.184,0.247l0.069-0.002c0.267,0,0.58-0.07,0.883-0.137c0.221-0.049,0.439-0.097,0.647-0.125l0.761-0.099
		c1.091-0.144,2.22-0.292,3.348-0.354c0.108-0.005,0.221-0.006,0.339-0.006l0.543,0.003c0.514,0,1.082-0.028,1.398-0.233
		c0.058-0.038,0.141-0.222,0.191-0.333c0.047-0.105,0.094-0.207,0.146-0.295c0.263-0.449,0.506-0.911,0.75-1.373
		c0.131-0.248,0.262-0.496,0.395-0.741c0.717-1.312,1.558-2.675,2.5-4.052c0.151-0.223,0.318-0.453,0.489-0.689
		c0.454-0.627,0.923-1.274,1.176-1.907c0.064-0.16-0.191-0.676-0.314-0.924c-0.084-0.17-0.161-0.328-0.21-0.461
		c-0.333-0.909-0.748-1.81-1.149-2.683c-0.312-0.679-0.625-1.359-0.907-2.052l-0.56-1.419c-0.013-0.032-0.037-0.087-0.057-0.125
		c-0.053-0.002-0.101-0.003-0.151-0.003c-0.816,0-1.74,0.238-2.554,0.448c-1.577,0.404-3.203,0.87-4.75,1.619
		c-0.116,0.055-0.241,0.107-0.364,0.159c1.22-1.465,2.597-2.787,4.108-3.936c0.461-0.12,0.926-0.224,1.396-0.285l0.51-0.07
		c0.532-0.073,1.062-0.146,1.595-0.206c0.083-0.01,0.177-0.014,0.275-0.014l0.258,0.002c0.058,0,0.21,0,0.285-0.031
		c0.242-0.096,0.512-0.334,0.773-0.565c0.21-0.186,0.428-0.378,0.66-0.525c0.96-0.605,2.045-1.104,3.52-1.619
		c1.187-0.412,2.259-0.709,3.279-0.907c0.144-0.027,0.336-0.039,0.542-0.048c0.2-0.01,0.609-0.029,0.722-0.096
		c-0.041,0.009-0.011-0.088-0.029-0.263C32.1,6.907,32.1,6.806,32.094,6.703c0.289-0.01,0.578-0.022,0.869-0.022
		c0.465,0,0.927,0.016,1.386,0.042l0.018,0.266c0.003,0.077,0,0.147-0.003,0.22c-0.003,0.075-0.008,0.201,0.006,0.241
		c0.063,0.04,0.36,0.102,0.577,0.147c0.17,0.036,0.334,0.071,0.469,0.116c0.909,0.301,1.884,0.636,2.858,1.042
		c1.171,0.487,2.295,1.109,3.34,1.849c0.181,0.13,0.364,0.306,0.552,0.487c0.253,0.245,0.538,0.522,0.763,0.594
		c0.149,0.049,0.46,0.021,0.726-0.01c0.185-0.021,0.365-0.041,0.522-0.041l0.622,0c0.87,0,1.795,0.008,2.704,0.112
		c0.101,0.012,0.191,0.026,0.291,0.039c1.089,0.844,2.106,1.782,3.044,2.796c-0.255-0.06-0.519-0.11-0.781-0.157l-0.394-0.072
		c-1.36-0.262-2.963-0.529-4.529-0.529c-0.357,0-0.712,0.014-1.062,0.045c-0.074,0.007-0.161,0.01-0.253,0.014
		c-0.153,0.006-0.472,0.018-0.548,0.079c-0.023,0.035-0.068,0.207-0.092,0.3c-0.018,0.067-0.035,0.132-0.053,0.189
		c-0.068,0.211-0.142,0.419-0.215,0.627c-0.099,0.279-0.198,0.559-0.281,0.843c-0.253,0.872-0.611,1.712-0.956,2.525
		c-0.19,0.447-0.38,0.894-0.553,1.347c-0.128,0.334-0.288,0.646-0.448,0.961c-0.081,0.159-0.163,0.318-0.239,0.481l-0.059,0.129
		c-0.03,0.064-0.076,0.161-0.079,0.197c0.159,0.454,0.531,0.961,0.891,1.451c0.192,0.263,0.38,0.52,0.536,0.768
		c0.656,1.051,1.295,2.111,1.936,3.173l0.994,1.643c0.363,0.587,0.679,1.147,0.965,1.709l0.079,0.169
		c0.07,0.152,0.2,0.437,0.295,0.496c0.088,0.056,0.36,0.058,0.491,0.058l0.123,0.001c0.393,0.015,0.843,0.057,1.382,0.129
		c1.361,0.183,2.733,0.338,4.102,0.494l0.494,0.057C52.795,31.722,53.043,31.778,53.297,31.836z"/>
</g>
</svg>
