<?xml version="1.0" encoding="iso-8859-1"?>
<!-- Generator: Adobe Illustrator 17.1.0, SVG Export Plug-In . SVG Version: 6.00 Build 0)  -->
<!DOCTYPE svg PUBLIC "-//W3C//DTD SVG 1.1//EN" "http://www.w3.org/Graphics/SVG/1.1/DTD/svg11.dtd">
<svg version="1.1" id="Capa_1" xmlns="http://www.w3.org/2000/svg" xmlns:xlink="http://www.w3.org/1999/xlink" x="0px" y="0px"
	 viewBox="0 0 64 64" style="enable-background:new 0 0 64 64;" xml:space="preserve">
<g>
	<circle cx="36.419" cy="6.4" r="5.36"/>
	<path d="M29.623,53.102c0.036-0.174,0.054-0.354,0.054-0.537V43.94h-5.36v8.625c0,0.279,0.055,0.544,0.134,0.798
		c-1.228,0.877-2.035,2.306-2.035,3.93c0,2.67,2.165,4.836,4.836,4.836c2.671,0,4.835-2.166,4.835-4.836
		C32.087,55.488,31.087,53.933,29.623,53.102z"/>
	<path d="M38.128,59.533c0,1.479,1.2,2.68,2.68,2.68c1.48,0,2.68-1.2,2.68-2.68V43.94h-5.36V59.533z"/>
	<polygon points="29.867,21.83 25.955,20.041 25.312,21.198 29.224,22.986 	"/>
	<polygon points="48.669,22.027 48.072,20.799 44.171,22.582 44.768,23.81 	"/>
	<path d="M47.643,40.502c1.185,0,2.145-0.959,2.145-2.145V24.823c0-0.324-0.074-0.644-0.216-0.937l-0.477-0.981l-3.901,1.783
		l0.305,0.628v13.041C45.498,39.543,46.459,40.502,47.643,40.502z"/>
	<path d="M40.754,36.945l-0.683,1.013v0.012h1.007v-1.007c0-0.212,0.012-0.422,0.023-0.644h-0.023
		C40.965,36.553,40.868,36.741,40.754,36.945z"/>
	<path d="M43.488,32.975H30.029l-1.863,2.225v-10.31l0.582-1.046l-3.912-1.79l-0.688,1.236c-0.178,0.319-0.271,0.678-0.271,1.043
		v11.437c0,1.144,0.898,2.068,2.026,2.132l-0.962,1.148c-0.404,0.483-0.625,1.093-0.625,1.723v1.219h5.36v-0.245l3.987-4.761h4.464
		v5.006h5.36V32.975z M42.217,38.5h-0.479v0.938h-0.66V38.5h-1.679v-0.456l1.514-2.306h0.825v2.231h0.479V38.5z"/>
	<path d="M43.488,21.176l0.257,0.529l3.901-1.784l-2.564-5.281c-0.318-0.655-0.926-1.071-1.594-1.179v-0.062H30.891v0.044
		c-0.752,0.002-1.482,0.389-1.874,1.092l-2.587,4.652l3.912,1.788l0.549-0.987v11.038h12.597V21.176z M37.884,20.305h-2.207
		c-1.615,0-2.924-0.382-2.924-0.853c0-0.472,1.309-0.854,2.924-0.854h2.207c1.615,0,2.924,0.382,2.924,0.854
		C40.808,19.923,39.499,20.305,37.884,20.305z"/>
</g>
</svg>
