<?xml version="1.0" encoding="iso-8859-1"?>
<!-- Generator: Adobe Illustrator 17.1.0, SVG Export Plug-In . SVG Version: 6.00 Build 0)  -->
<!DOCTYPE svg PUBLIC "-//W3C//DTD SVG 1.1//EN" "http://www.w3.org/Graphics/SVG/1.1/DTD/svg11.dtd">
<svg version="1.1" id="Capa_1" xmlns="http://www.w3.org/2000/svg" xmlns:xlink="http://www.w3.org/1999/xlink" x="0px" y="0px"
	 viewBox="0 0 64 64" style="enable-background:new 0 0 64 64;" xml:space="preserve">
<g>
	<path d="M15.522,55.064v2.477c0,1.215,0.888,2.636,2.045,3.008c2.165,0.694,6.132,1.607,12.294,1.745
		c1.214,0.027,3.187,0.011,4.401-0.031c5.651-0.197,9.067-0.951,10.967-1.567c1.156-0.375,2.02-1.848,2.02-3.064v-2.568
		c0-0.918-2.282-1.736-5.852-2.275c-1.689-2.473-5.542-8.395-5.542-10.974c0-1.931,3.031-12.554,5.049-19.408
		c-0.656,0.357-1.354,0.604-2.093,0.655c-1.069,0.072-1.917-0.21-2.506-0.83c-0.611-0.646-0.895-1.604-0.847-2.856
		c-1.728,4.59-6.006,5.287-8.44,5.287c-0.454,0-0.868-0.024-1.237-0.056c0.858,1.804,1.887,3.689,3.104,5.408
		c0.262,0.372,0.174,0.888-0.197,1.151c-0.141,0.099-0.305,0.151-0.477,0.151c-0.268,0-0.52-0.13-0.674-0.348
		c-1.579-2.23-2.858-4.722-3.854-6.974c-0.001-0.001-0.002-0.001-0.002-0.002c-0.002-0.004-0.002-0.008-0.005-0.012
		c-0.862-1.954-1.513-3.729-1.929-4.972c-0.352-1.059-1-1.538-1.148-1.538h-0.202c1.301,4.317,6.518,21.811,6.518,24.345
		c0,2.579-3.853,8.502-5.542,10.974C17.805,53.328,15.522,54.146,15.522,55.064z"/>
	<path d="M39.266,14.889c-0.212,0.466-0.246,1.274-0.079,1.742l0.177,0.494c0.164,0.459,0.705,1.017,1.157,1.195l1.428,0.564
		c0.438-1.463,0.715-2.376,0.715-2.376s0.367-1.888,0.367-2.887c0-5.917-4.416-10.792-10.131-11.536
		c0.027,1.396,0.273,3.046,1.156,3.575c0.717,0.43,1.283,0.938,1.683,1.509c0.424,0.602,0.775,0.816,0.948,0.816
		c0.622,0,1.334,0.535,1.657,1.244c0.219,0.486,0.502,0.749,0.585,0.779c0.002,0,0.005,0,0.007,0c0.467,0,0.822,0.621,0.822,1.507
		v1.101C39.758,13.283,39.541,14.281,39.266,14.889z"/>
	<path d="M31.386,1.976c-6.431,0-11.644,5.213-11.644,11.645c0,0.756,0.1,1.485,0.242,2.199h0.617c0.643,0,1.226,0.366,1.7,0.893
		h1.416c0.834,0,1.513,0.679,1.513,1.513c0,0.379,0.309,0.688,0.689,0.688c0.747,0,1.627,0.491,2.004,1.118l0.55,0.917l0.979,1.818
		c1.858-0.468,3.682-1.633,4.56-4.24c0.563-1.67,1.101-2.706,2.04-2.706c0.313,0,0.602,0.13,0.812,0.367
		c0.396,0.449,0.476,1.181,0.29,2.699c-0.128,1.052-0.003,1.837,0.351,2.21c0.241,0.254,0.632,0.36,1.196,0.319
		c1.084-0.073,2.096-0.739,2.978-1.622c0.012-0.041,0.023-0.076,0.034-0.115l-1.495-0.59c-0.671-0.264-1.388-1.005-1.631-1.685
		l-0.176-0.494c-0.24-0.669-0.196-1.701,0.098-2.348c0.233-0.513,0.424-1.397,0.424-1.945v-1.101c0-0.372-0.087-0.608-0.14-0.695
		c-0.532-0.078-0.997-0.8-1.195-1.236c-0.203-0.449-0.646-0.774-0.91-0.774c-0.664,0-1.249-0.635-1.623-1.167
		c-0.334-0.476-0.815-0.905-1.432-1.275C32.35,5.6,32.078,3.534,32.063,2.01C31.838,1.997,31.614,1.976,31.386,1.976z"/>
	<path d="M25.918,19.738c-0.834,0-1.514-0.678-1.514-1.513c0-0.379-0.308-0.688-0.688-0.688h-0.825
		c0.174,0.307,0.318,0.63,0.425,0.947c0.369,1.107,0.935,2.654,1.67,4.364c0.437,0.081,1.195,0.191,2.113,0.191
		c0.476,0,0.979-0.031,1.491-0.105l-1.376-2.48C26.984,20.073,26.38,19.738,25.918,19.738z"/>
</g>
</svg>
