<?xml version="1.0" encoding="iso-8859-1"?>
<!-- Generator: Adobe Illustrator 17.1.0, SVG Export Plug-In . SVG Version: 6.00 Build 0)  -->
<!DOCTYPE svg PUBLIC "-//W3C//DTD SVG 1.1//EN" "http://www.w3.org/Graphics/SVG/1.1/DTD/svg11.dtd">
<svg version="1.1" id="Capa_1" xmlns="http://www.w3.org/2000/svg" xmlns:xlink="http://www.w3.org/1999/xlink" x="0px" y="0px"
	 viewBox="0 0 64 64" style="enable-background:new 0 0 64 64;" xml:space="preserve">
<g>
	<circle cx="28.915" cy="11.843" r="5.932"/>
	<path d="M54.095,23.384l-3.925-0.729c-0.241-0.043-0.509-0.011-0.773,0.056c-0.022-0.017-0.04-0.037-0.063-0.052L41.797,17.7
		c-0.512-0.336-1.135-0.464-1.737-0.352l-9.719,1.784c-0.125,0.021-0.247,0.057-0.367,0.098l-8.46,3.008l-6.834-0.459
		c-0.638-0.759-1.582-1.252-2.651-1.252c-1.921,0-3.478,1.558-3.478,3.479s1.557,3.479,3.478,3.479c0.923,0,1.757-0.367,2.379-0.953
		l7.278,0.49c0.326,0.022,0.651-0.023,0.957-0.133l3.685-1.31l2.923,10.504l-3.221,8.872L13.994,51.01
		c-1.761,0.886-2.471,3.032-1.585,4.793c0.887,1.762,3.031,2.474,4.793,1.585l13.317-6.698c0.822-0.415,1.453-1.128,1.76-1.997
		l3.623-10.227l8.467,7.777l2.938,9.058c0.489,1.51,1.889,2.469,3.395,2.469c0.365,0,0.736-0.057,1.102-0.175
		c1.875-0.608,2.902-2.621,2.294-4.498l-3.227-9.95c-0.189-0.584-0.528-1.11-0.98-1.525l-8.871-8.148L37.75,22.611l2.229-0.409
		l6.738,4.433c0.05,0.032,0.106,0.044,0.157,0.073c0.008,0.023,0.009,0.053,0.019,0.077l1.87,4.542
		c0.25,0.607,0.991,1.054,1.611,0.833c0.399-0.14,0.841-0.353,1.215-0.671c0.5-0.426,1.19-1.17,1.725-1.551
		c0.458-0.326,0.958-0.771,1.244-1.305c0.309-0.58,0.658-1.476,0.978-2.05c0.263-0.474,0.444-1.121,0.233-1.909
		C55.598,24.04,54.742,23.504,54.095,23.384z M51.741,29.699c-0.073,0.119-0.187,0.203-0.322,0.237
		c-0.041,0.014-0.093,0.016-0.127,0.016c-0.242,0-0.451-0.164-0.508-0.398c-0.184-0.734-1.315-1.79-1.984-2.283
		c-0.233-0.173-0.282-0.503-0.11-0.732c0.166-0.225,0.509-0.276,0.732-0.111c0.208,0.153,2.046,1.537,2.38,2.874
		C51.834,29.438,51.813,29.578,51.741,29.699z M53.634,28.061l-0.063,0.004c-0.265,0-0.489-0.198-0.52-0.462
		c-0.185-1.582-2.67-2.328-2.695-2.335c-0.28-0.08-0.441-0.371-0.361-0.648c0.076-0.275,0.382-0.445,0.652-0.358
		c0.122,0.034,3.175,0.907,3.446,3.218C54.125,27.768,53.919,28.028,53.634,28.061z"/>
</g>
</svg>
