<?xml version="1.0" encoding="iso-8859-1"?>
<!-- Generator: Adobe Illustrator 17.1.0, SVG Export Plug-In . SVG Version: 6.00 Build 0)  -->
<!DOCTYPE svg PUBLIC "-//W3C//DTD SVG 1.1//EN" "http://www.w3.org/Graphics/SVG/1.1/DTD/svg11.dtd">
<svg version="1.1" id="Capa_1" xmlns="http://www.w3.org/2000/svg" xmlns:xlink="http://www.w3.org/1999/xlink" x="0px" y="0px"
	 viewBox="0 0 64 64" style="enable-background:new 0 0 64 64;" xml:space="preserve">
<g>
	<path style="fill:#1D1D1B;" d="M13.046,52.732l-1.719,1.025c-0.045,0.026-0.323,0.015-0.762-0.266
		c-0.575-0.368-1.171-1.023-1.634-1.799l-3.459-5.795c-0.282-0.475-0.897-0.629-1.371-0.346c-0.474,0.283-0.629,0.896-0.346,1.371
		l3.459,5.795c0.626,1.048,1.433,1.921,2.273,2.458c0.616,0.395,1.222,0.593,1.778,0.593c0.391,0,0.758-0.098,1.088-0.295
		l1.718-1.025c0.474-0.283,0.629-0.896,0.346-1.371C14.135,52.603,13.521,52.449,13.046,52.732z"/>
	<path style="fill:#1D1D1B;" d="M42.97,55.069c-0.553,0-1,0.447-1,1v2c0,0.249-1.064,1-3,1h-6.75c-0.553,0-1,0.447-1,1
		c0,0.553,0.447,1,1,1h6.75c2.851,0,5-1.29,5-3v-2C43.97,55.517,43.523,55.069,42.97,55.069z"/>
	<path style="fill:#1D1D1B;" d="M42.787,37.73l-4.527-1.756l10.562-5.419c1.387-0.905,1.699-2.71,0.698-4.029l-2.958-3.472
		c-0.41-0.82-1.249-1.389-2.229-1.389h-24c-1.381,0-2.5,1.119-2.5,2.5c0,1.381,1.119,2.5,2.5,2.5h16.699l-11.148,5.438
		c-0.017,0.008-0.035,0.018-0.053,0.025l-0.079,0.039l0.005,0.003c-0.013,0.006-0.024,0.015-0.036,0.021
		c-0.08,0.041-0.158,0.084-0.234,0.132c-0.085,0.054-0.166,0.111-0.246,0.174c-0.074,0.058-0.144,0.116-0.213,0.181
		c-0.073,0.069-0.142,0.143-0.208,0.219c-0.062,0.072-0.122,0.146-0.179,0.226c-0.059,0.083-0.111,0.171-0.162,0.261
		c-0.029,0.051-0.065,0.094-0.092,0.146l-2.801,5.685l-11.082,5.056c-1.508,0.688-2.172,2.468-1.484,3.975
		c0.504,1.104,1.593,1.756,2.731,1.756c0.416,0,0.84-0.088,1.243-0.271l12.055-5.5c0.63-0.287,1.14-0.783,1.446-1.403l2.06-4.18
		l9.467,3.672l-3.3,10.879c-0.48,1.586,0.415,3.261,2,3.742c0.291,0.088,0.584,0.13,0.872,0.13c1.287,0,2.477-0.835,2.87-2.13
		l4.107-13.541C45.028,39.896,44.25,38.298,42.787,37.73z"/>
	<path style="fill:#1D1D1B;" d="M47.721,19.338c0,2.662,2.165,4.828,4.829,4.828c2.663,0,4.821-2.166,4.821-4.828
		c0-2.664-2.158-4.823-4.821-4.823C49.886,14.515,47.721,16.674,47.721,19.338z"/>
	<path style="fill:#1D1D1B;" d="M41.352,14.454c0-0.553-0.447-1-1-1h-15.25c-0.553,0-1,0.447-1,1c0,0.553,0.447,1,1,1h15.25
		C40.904,15.454,41.352,15.007,41.352,14.454z"/>
	<path style="fill:#1D1D1B;" d="M18.852,16.964c-0.553,0-1,0.447-1,1c0,0.553,0.447,1,1,1h15.25c0.553,0,1-0.447,1-1
		c0-0.553-0.447-1-1-1H18.852z"/>
	<path style="fill:#1D1D1B;" d="M60.117,32.694h-9.573c-0.553,0-1,0.447-1,1c0,0.553,0.447,1,1,1h9.573c0.553,0,1-0.447,1-1
		C61.117,33.142,60.67,32.694,60.117,32.694z"/>
	<path style="fill:#1D1D1B;" d="M56.194,36.204h-9.573c-0.553,0-1,0.447-1,1c0,0.553,0.447,1,1,1h9.573c0.553,0,1-0.447,1-1
		C57.194,36.651,56.747,36.204,56.194,36.204z"/>
</g>
</svg>
