<?xml version="1.0" encoding="iso-8859-1"?>
<!-- Generator: Adobe Illustrator 17.1.0, SVG Export Plug-In . SVG Version: 6.00 Build 0)  -->
<!DOCTYPE svg PUBLIC "-//W3C//DTD SVG 1.1//EN" "http://www.w3.org/Graphics/SVG/1.1/DTD/svg11.dtd">
<svg version="1.1" id="Capa_1" xmlns="http://www.w3.org/2000/svg" xmlns:xlink="http://www.w3.org/1999/xlink" x="0px" y="0px"
	 viewBox="0 0 64 64" style="enable-background:new 0 0 64 64;" xml:space="preserve">
<g>
	<path style="fill:#1D1D1B;" d="M42.713,26.979c3.134,0,5.674-2.549,5.674-5.682c0-3.136-2.54-5.677-5.674-5.677
		c-3.135,0-5.683,2.541-5.683,5.677C37.03,24.431,39.578,26.979,42.713,26.979z"/>
	<path style="fill:#1D1D1B;" d="M55.823,29.582c-0.112-0.696-0.502-1.316-1.08-1.721l-5.84-4.08
		c-0.958,2.456-3.342,4.203-6.131,4.203c-3.636,0-6.594-2.958-6.594-6.593c0-1.965,0.871-3.728,2.241-4.936L26.41,8.065
		c-1.179-0.824-2.803-0.536-3.627,0.645c-0.824,1.179-0.536,2.803,0.644,3.627l12.109,8.46l-11.56,18.094l-5.192-1.03
		c-1.045-0.204-2.069,0.247-2.643,1.07l-1.724-0.589c-0.545-0.188-1.137,0.105-1.322,0.649c-0.186,0.545,0.105,1.137,0.65,1.322
		l1.997,0.682c0.223,0.97,0.989,1.77,2.028,1.976l3.194,0.633l-3.059,4.787c-0.558,0.872-0.522,1.947-0.011,2.772l-1.459,1.903
		c-0.351,0.457-0.264,1.111,0.193,1.461c0.19,0.145,0.412,0.215,0.633,0.215c0.313,0,0.622-0.141,0.827-0.408l1.535-2.002
		c0.158,0.029,0.315,0.066,0.474,0.066c0.859,0,1.701-0.425,2.197-1.203l4.155-6.503l6.427,1.274c0.169,0.033,0.339,0.05,0.507,0.05
		c0.904,0,1.76-0.472,2.236-1.268L45.687,27.89l5.169,3.611l2.096,12.977c0.207,1.279,1.312,2.19,2.568,2.19
		c0.138,0,0.278-0.01,0.418-0.033c1.42-0.229,2.385-1.566,2.156-2.986L55.823,29.582z"/>
	<path style="fill:#1D1D1B;" d="M17.621,21.178c-0.466-0.294-1.084-0.154-1.379,0.312l-8.48,13.437
		c-0.295,0.468-0.155,1.085,0.312,1.38c0.166,0.104,0.35,0.154,0.533,0.154c0.332,0,0.656-0.165,0.847-0.466l8.48-13.437
		C18.227,22.09,18.088,21.473,17.621,21.178z"/>
	<path style="fill:#1D1D1B;" d="M16.623,14.031L8.144,27.469c-0.295,0.467-0.155,1.084,0.312,1.379
		c0.166,0.104,0.35,0.154,0.533,0.154c0.332,0,0.656-0.165,0.847-0.467l8.479-13.438c0.295-0.467,0.155-1.084-0.312-1.379
		C17.537,13.425,16.919,13.565,16.623,14.031z"/>
	<path style="fill:#1D1D1B;" d="M47.741,43.077c-0.465-0.294-1.084-0.153-1.379,0.312l-8.48,13.437
		c-0.295,0.468-0.155,1.085,0.312,1.38c0.165,0.104,0.35,0.154,0.533,0.154c0.332,0,0.656-0.165,0.847-0.466l8.48-13.437
		C48.348,43.989,48.208,43.372,47.741,43.077z"/>
	<path style="fill:#1D1D1B;" d="M48.123,35.618c-0.465-0.294-1.084-0.155-1.379,0.312l-8.479,13.438
		c-0.295,0.467-0.155,1.084,0.312,1.379c0.165,0.104,0.35,0.154,0.533,0.154c0.332,0,0.656-0.165,0.847-0.467l8.479-13.438
		C48.731,36.53,48.59,35.913,48.123,35.618z"/>
</g>
</svg>
