<?xml version="1.0" encoding="iso-8859-1"?>
<!-- Generator: Adobe Illustrator 17.1.0, SVG Export Plug-In . SVG Version: 6.00 Build 0)  -->
<!DOCTYPE svg PUBLIC "-//W3C//DTD SVG 1.1//EN" "http://www.w3.org/Graphics/SVG/1.1/DTD/svg11.dtd">
<svg version="1.1" id="Capa_1" xmlns="http://www.w3.org/2000/svg" xmlns:xlink="http://www.w3.org/1999/xlink" x="0px" y="0px"
	 viewBox="0 0 64 64" style="enable-background:new 0 0 64 64;" xml:space="preserve">
<g>
	<path d="M44.193,14.706c0.214,0.155,0.671,0.415,1.394,0.441c0.716,0.018,1.2-0.271,1.417-0.438l-0.26-0.893
		c-0.296,0.11-0.648,0.193-1.065,0.193c-0.041,0-0.081-0.001-0.122-0.003c-0.435-0.017-0.795-0.104-1.097-0.213L44.193,14.706z"/>
	<path d="M43.617,16.681c0.322,0.168,0.962,0.426,1.931,0.452c1.036,0.026,1.718-0.285,2.026-0.466l-0.321-1.102
		c-0.353,0.213-0.88,0.432-1.574,0.432c-0.041,0-0.081-0.001-0.122-0.003c-0.721-0.026-1.255-0.24-1.608-0.443L43.617,16.681z"/>
	<path d="M46.507,13.005l-0.37-1.269c-0.297-0.635-0.781-0.635-1.078,0l-0.364,1.25c0.233,0.089,0.529,0.164,0.893,0.177
		C45.956,13.174,46.265,13.101,46.507,13.005z"/>
	<path d="M43.046,18.64l-0.433-0.204c-0.317-0.148-0.695-0.014-0.845,0.304c-0.15,0.317-0.014,0.695,0.304,0.846l3.255,1.535
		c0.086,0.039,0.179,0.06,0.271,0.06c0.091,0,0.183-0.02,0.267-0.059l3.308-1.535c0.318-0.147,0.456-0.524,0.309-0.843
		c-0.147-0.318-0.526-0.456-0.844-0.309l-0.484,0.224l-0.339-1.163c-0.436,0.224-1.154,0.487-2.138,0.487
		c-0.05,0-0.101-0.001-0.153-0.003c-0.995-0.027-1.706-0.268-2.147-0.476L43.046,18.64z"/>
	<path d="M17.962,36.366l-0.26-0.893c-0.296,0.11-0.648,0.193-1.065,0.193c-0.041,0-0.081-0.001-0.122-0.003
		c-0.435-0.017-0.795-0.104-1.097-0.213l-0.266,0.911c0.214,0.155,0.671,0.415,1.394,0.441
		C17.261,36.822,17.745,36.532,17.962,36.366z"/>
	<path d="M18.532,38.323l-0.321-1.102c-0.353,0.213-0.88,0.432-1.574,0.432c-0.041,0-0.081-0.001-0.122-0.003
		c-0.721-0.026-1.255-0.24-1.608-0.443l-0.33,1.131c0.322,0.168,0.962,0.426,1.931,0.452C17.542,38.815,18.225,38.504,18.532,38.323
		z"/>
	<path d="M17.465,34.661l-0.37-1.269c-0.297-0.635-0.781-0.635-1.078,0l-0.364,1.25c0.233,0.089,0.529,0.164,0.893,0.177
		C16.915,34.83,17.223,34.757,17.465,34.661z"/>
	<path d="M19.597,40.091l-0.484,0.224l-0.339-1.163c-0.436,0.224-1.154,0.487-2.138,0.487c-0.05,0-0.101-0.001-0.153-0.003
		c-0.995-0.027-1.706-0.268-2.148-0.476l-0.331,1.136l-0.433-0.204c-0.317-0.148-0.695-0.014-0.845,0.304
		c-0.15,0.317-0.014,0.695,0.304,0.846l3.255,1.535c0.086,0.039,0.179,0.06,0.271,0.06c0.091,0,0.183-0.019,0.267-0.059l3.308-1.535
		c0.318-0.148,0.457-0.524,0.309-0.843C20.293,40.081,19.915,39.943,19.597,40.091z"/>
	<path d="M50.487,20.19c-0.144,0.121-0.299,0.232-0.474,0.312l-3.307,1.534c-0.281,0.13-0.591,0.198-0.898,0.198
		c-0.304,0-0.613-0.067-0.892-0.194l-3.274-1.544c-0.352-0.167-0.63-0.422-0.837-0.722H15.347c-6.893,0-12.5,5.607-12.5,12.5v2.25
		c0,6.893,5.607,12.5,12.5,12.5h32c6.893,0,12.5-5.607,12.5-12.5v-2.25C59.847,26.469,55.861,21.589,50.487,20.19z M54.847,34.525
		c0,4.136-3.364,7.5-7.5,7.5H20.939c-0.032,0.017-0.06,0.039-0.093,0.055l-3.307,1.534c-0.281,0.13-0.591,0.198-0.898,0.198
		c-0.304,0-0.613-0.067-0.892-0.194l-3.274-1.544c-0.526-0.249-0.902-0.685-1.089-1.191c-2.121-1.326-3.54-3.677-3.54-6.357v-2.25
		c0-4.136,3.364-7.5,7.5-7.5h32c4.136,0,7.5,3.364,7.5,7.5V34.525z"/>
</g>
</svg>
