<?xml version="1.0" encoding="iso-8859-1"?>
<!-- Generator: Adobe Illustrator 17.1.0, SVG Export Plug-In . SVG Version: 6.00 Build 0)  -->
<!DOCTYPE svg PUBLIC "-//W3C//DTD SVG 1.1//EN" "http://www.w3.org/Graphics/SVG/1.1/DTD/svg11.dtd">
<svg version="1.1" id="Capa_1" xmlns="http://www.w3.org/2000/svg" xmlns:xlink="http://www.w3.org/1999/xlink" x="0px" y="0px"
	 viewBox="0 0 64 64" style="enable-background:new 0 0 64 64;" xml:space="preserve">
<g>
	<path d="M32,58.849c14.249,0,25.799-11.551,25.799-25.8C57.799,18.801,46.249,7.25,32,7.25S6.201,18.801,6.201,33.049
		C6.201,47.298,17.751,58.849,32,58.849z M36.703,20.1c1.299,0,2.352,1.053,2.352,2.352c0,1.299-1.053,2.352-2.352,2.352
		c-1.299,0-2.352-1.053-2.352-2.352C34.352,21.152,35.404,20.1,36.703,20.1z M34.352,29.649c1.299,0,2.352,1.053,2.352,2.352
		c0,1.299-1.053,2.352-2.352,2.352C33.053,34.352,32,33.3,32,32.001C32,30.702,33.053,29.649,34.352,29.649z"/>
</g>
</svg>
