<?xml version="1.0" encoding="iso-8859-1"?>
<!-- Generator: Adobe Illustrator 17.1.0, SVG Export Plug-In . SVG Version: 6.00 Build 0)  -->
<!DOCTYPE svg PUBLIC "-//W3C//DTD SVG 1.1//EN" "http://www.w3.org/Graphics/SVG/1.1/DTD/svg11.dtd">
<svg version="1.1" id="Capa_1" xmlns="http://www.w3.org/2000/svg" xmlns:xlink="http://www.w3.org/1999/xlink" x="0px" y="0px"
	 viewBox="0 0 64 64" style="enable-background:new 0 0 64 64;" xml:space="preserve">
<g>
	<path d="M17.861,20.913c0.43,0.556,0.794,1.155,1.096,1.783c-0.029,0.095-0.017,0.194,0.018,0.288
		c-0.614,0.812-0.792,1.918-0.349,2.914l2.789,6.282c0.375,0.847,1.132,1.46,2.036,1.654c0.202,0.044,0.405,0.064,0.607,0.064
		c0.704,0,1.393-0.256,1.928-0.735l5.024-4.488l1.995,7.368l-1.093,9.732l-9.028,9.401c-1.267,1.316-1.225,3.409,0.094,4.674
		c0.641,0.616,1.466,0.923,2.29,0.923c0.868,0,1.735-0.34,2.384-1.017l9.805-10.208c0.505-0.523,0.82-1.198,0.901-1.921l0.974-8.671
		l5.598,5.406v11.223c0,1.825,1.481,3.307,3.307,3.307c1.825,0,3.306-1.482,3.306-3.307V42.961c0-0.897-0.364-1.755-1.009-2.378
		l-7.926-7.656c-0.064-0.062-0.14-0.107-0.208-0.164l-3.259-9.56c0.041-0.027,0.083-0.047,0.122-0.077l7.352-5.52
		c1.277-0.96,1.535-2.774,0.575-4.052c-0.957-1.277-2.77-1.535-4.05-0.576l-7.077,5.315l-6.734,4.173l0.005,0.019
		c-0.146,0.09-0.287,0.187-0.42,0.305l-3.822,3.415l-1.179-2.653c-0.574-1.295-1.981-1.954-3.311-1.636l-0.016-0.021
		c-0.087-0.114-0.221-0.167-0.353-0.167c-0.31-0.269-0.916-0.836-1.515-1.609c-0.343-0.448-0.638-0.902-0.873-1.354
		c-0.054-0.142-0.532-1.415-0.999-4.046c-0.207-1.164-0.411-2.059-0.659-2.817c0.02-0.065,0.013-0.141-0.033-0.2
		c-0.014-0.017-0.031-0.029-0.048-0.041c-0.342-0.967-0.77-1.713-1.397-2.527c-0.783-1.015-1.928-1.707-3.064-1.852
		c-1.022-0.13-1.998,0.16-2.895,0.857c-0.857,0.655-1.384,1.554-1.522,2.597c-0.153,1.17,0.206,2.489,0.941,3.44
		c1.153,1.495,2.243,2.278,4.857,3.485v0.001c0.001,0.001,0.005,0.003,0.005,0.003c2.564,1.185,3.656,1.994,3.659,1.996
		C16.695,19.664,17.232,20.098,17.861,20.913z"/>
	<circle cx="30.015" cy="13.817" r="5.682"/>
</g>
</svg>
