<?xml version="1.0" encoding="iso-8859-1"?>
<!-- Generator: Adobe Illustrator 17.1.0, SVG Export Plug-In . SVG Version: 6.00 Build 0)  -->
<!DOCTYPE svg PUBLIC "-//W3C//DTD SVG 1.1//EN" "http://www.w3.org/Graphics/SVG/1.1/DTD/svg11.dtd">
<svg version="1.1" id="Capa_1" xmlns="http://www.w3.org/2000/svg" xmlns:xlink="http://www.w3.org/1999/xlink" x="0px" y="0px"
	 viewBox="0 0 64 64" style="enable-background:new 0 0 64 64;" xml:space="preserve">
<g>
	<path style="fill:#1D1D1B;" d="M8.338,8.768c-0.666,0-1.205,0.61-1.205,1.363c0,2.279,0,6.845,0,9.123
		c0,0.753,0.539,1.363,1.205,1.363c0.664,0,1.204-0.61,1.204-1.363c0-0.893,0-2.141,0-3.463c0.092,0,0.921,0,2.284,0
		c0.102,0.41,0.311,0.798,0.639,1.112l13.859,13.295v7.943H18.7c-1.644,0-2.979,1.334-2.979,2.978v14.887
		c0,1.645,1.334,2.979,2.979,2.979c1.644,0,2.976-1.334,2.976-2.979V44.098h10.151l13.514,13.979
		c0.584,0.604,1.361,0.909,2.141,0.909c0.746,0,1.491-0.278,2.069-0.838c1.183-1.143,1.214-3.027,0.071-4.21L36.067,39.916v-8.998
		c0.199-0.104,0.391-0.23,0.559-0.397l14.557-14.474c0.08-0.08,0.144-0.168,0.21-0.256c1.694,0,2.799,0,3.065,0
		c0,1.322,0,2.569,0,3.464c0,0.752,0.539,1.362,1.204,1.362c0.665,0,1.205-0.61,1.205-1.363c0-2.279,0-6.845,0-9.123
		c0-0.753-0.54-1.363-1.205-1.363c-0.665,0-1.204,0.61-1.204,1.363c0,0.894,0,2.141,0,3.463c-0.249,0-1.233,0-2.744,0
		c-0.112-0.299-0.283-0.581-0.523-0.822c-0.902-0.907-2.369-0.91-3.274-0.009l-0.836,0.831c-8.774,0-23.194,0-31.376,0l-0.035-0.033
		c-0.909-0.872-2.344-0.851-3.232,0.033c-1.728,0-2.792,0-2.897,0c0-1.322,0-2.569,0-3.464C9.542,9.377,9.002,8.768,8.338,8.768z
		 M27.508,15.791c-0.73,0.918-1.184,2.064-1.184,3.328c0,2.971,2.407,5.376,5.375,5.376c2.971,0,5.377-2.405,5.377-5.376
		c0-1.264-0.454-2.411-1.184-3.328c3.19,0,6.271,0,8.98,0L34.537,26.067h-5.83L17.996,15.791
		C20.797,15.791,24.078,15.791,27.508,15.791z"/>
	<path style="fill:#1D1D1B;" d="M58.497,18.798c0.502,0,0.908-0.406,0.908-0.908c0-1.579,0-4.814-0.001-6.393
		c0-0.503-0.406-0.909-0.908-0.909c-0.038,0-0.077,0-0.117,0c-0.501,0-0.908,0.405-0.908,0.908c0,1.579,0,4.815,0,6.394
		c0,0.503,0.407,0.909,0.908,0.909C58.419,18.798,58.458,18.798,58.497,18.798z"/>
	<path style="fill:#1D1D1B;" d="M5.652,18.798c0.502,0,0.908-0.406,0.908-0.908c0-1.579,0-4.814,0-6.393
		c0-0.503-0.406-0.909-0.908-0.909c-0.039,0-0.078,0-0.119,0c-0.5,0-0.907,0.405-0.907,0.908c0,1.579,0,4.815,0,6.394
		c0,0.503,0.407,0.909,0.908,0.909C5.574,18.798,5.613,18.798,5.652,18.798z"/>
</g>
</svg>
