<?xml version="1.0" encoding="iso-8859-1"?>
<!-- Generator: Adobe Illustrator 17.1.0, SVG Export Plug-In . SVG Version: 6.00 Build 0)  -->
<!DOCTYPE svg PUBLIC "-//W3C//DTD SVG 1.1//EN" "http://www.w3.org/Graphics/SVG/1.1/DTD/svg11.dtd">
<svg version="1.1" id="Capa_1" xmlns="http://www.w3.org/2000/svg" xmlns:xlink="http://www.w3.org/1999/xlink" x="0px" y="0px"
	 viewBox="0 0 64 64" style="enable-background:new 0 0 64 64;" xml:space="preserve">
<g>
	<path style="fill:#1D1D1B;" d="M58.535,28.312c0.04,0,0.079,0,0.118,0c0.502,0,0.908-0.406,0.908-0.908
		c0-1.579,0-4.815-0.001-6.394c0-0.503-0.406-0.909-0.908-0.909c-0.038,0-0.077,0-0.117,0c-0.501,0-0.908,0.405-0.908,0.908
		c0,1.579,0,4.814,0,6.393C57.627,27.906,58.034,28.312,58.535,28.312z"/>
	<path style="fill:#1D1D1B;" d="M5.789,20.102c-0.04,0-0.079,0-0.119,0c-0.501,0-0.908,0.405-0.908,0.908c0,1.579,0,4.814,0,6.393
		c0,0.503,0.407,0.909,0.908,0.909c0.04,0,0.079,0,0.118,0c0.502,0,0.908-0.406,0.908-0.908c0-1.579,0-4.815,0-6.394
		C6.697,20.508,6.29,20.102,5.789,20.102z"/>
	<path style="fill:#1D1D1B;" d="M7.533,40.558c0.595,0.934,1.625,1.499,2.732,1.499h8.315L25,56.711
		c0.295,0.674,0.96,1.108,1.695,1.108h11.85c0.786,0,1.487-0.497,1.746-1.24l5.08-14.523h8.849c1.127,0,2.173-0.585,2.762-1.546
		c0.589-0.961,0.636-2.159,0.125-3.163l-6.134-12.042c2.02,0,3.346,0,3.642,0c0,1.322,0,2.569,0,3.464
		c0,0.752,0.539,1.362,1.204,1.362c0.665,0,1.205-0.61,1.205-1.363c0-2.279,0-6.845,0-9.123c0-0.753-0.54-1.363-1.205-1.363
		c-0.665,0-1.204,0.61-1.204,1.363c0,0.894,0,2.141,0,3.463c-0.348,0-2.127,0-4.79,0c-0.876-1.421-2.699-1.964-4.215-1.195
		c-0.551,0.281-0.978,0.704-1.28,1.195c-2.009,0-4.202,0-6.478,0c-1.191-2.041-3.399-3.416-5.932-3.416
		c-2.534,0-4.742,1.375-5.933,3.416c-2.265,0-4.438,0-6.419,0c-0.321-0.524-0.791-0.964-1.39-1.244
		c-1.505-0.701-3.262-0.135-4.113,1.244c-2.587,0-4.233,0-4.366,0c0-1.322,0-2.569,0-3.464c0-0.753-0.539-1.362-1.205-1.362
		c-0.666,0-1.205,0.61-1.205,1.363c0,2.279,0.001,6.845,0.001,9.123c0,0.753,0.539,1.363,1.204,1.363
		c0.665,0,1.205-0.61,1.205-1.363c0-0.894,0-2.141,0-3.463c0.113,0,1.334,0,3.299,0L7.33,37.448
		C6.862,38.451,6.938,39.624,7.533,40.558z M25.168,25.306c-0.076,0.408-0.12,0.827-0.12,1.257c0,3.796,3.077,6.871,6.872,6.871
		c3.794,0,6.87-3.075,6.87-6.871c0-0.43-0.045-0.849-0.12-1.257c1.823,0,3.581,0,5.225,0c0.052,0.328,0.14,0.653,0.298,0.965
		l4.743,9.309H15.351l4.392-9.409c0.131-0.281,0.204-0.572,0.25-0.864C21.615,25.306,23.358,25.306,25.168,25.306z"/>
</g>
</svg>
