<?xml version="1.0" encoding="iso-8859-1"?>
<!-- Generator: Adobe Illustrator 17.1.0, SVG Export Plug-In . SVG Version: 6.00 Build 0)  -->
<!DOCTYPE svg PUBLIC "-//W3C//DTD SVG 1.1//EN" "http://www.w3.org/Graphics/SVG/1.1/DTD/svg11.dtd">
<svg version="1.1" id="Capa_1" xmlns="http://www.w3.org/2000/svg" xmlns:xlink="http://www.w3.org/1999/xlink" x="0px" y="0px"
	 viewBox="0 0 64 64" style="enable-background:new 0 0 64 64;" xml:space="preserve">
<g>
	<circle cx="27.332" cy="20.155" r="3.981"/>
	<path d="M62.539,47.782c-0.238-0.384-0.688-0.604-1.234-0.604H47.621c0.045-0.071,0.102-0.132,0.139-0.21
		c0.471-1,0.041-2.191-0.958-2.661l-7.188-3.383l0.884-7.136c0.003-0.022-0.001-0.042,0.001-0.063
		c0.008-0.076,0.008-0.151,0.006-0.228c-0.001-0.06-0.002-0.119-0.009-0.178c-0.007-0.064-0.021-0.128-0.034-0.192
		c-0.015-0.069-0.03-0.137-0.052-0.203c-0.008-0.023-0.01-0.046-0.018-0.068c-0.01-0.028-0.026-0.051-0.038-0.078l0.034-0.006
		l-3.414-5.615l4.309-0.042c0.385-0.004,0.761-0.119,1.082-0.331l6.25-4.125c0.922-0.609,1.176-1.849,0.567-2.771
		c-0.606-0.921-1.85-1.176-2.771-0.568l-5.758,3.8l-8.14,0.078c-0.022,0-0.043,0.006-0.065,0.007
		c-0.072,0.003-0.143,0.013-0.215,0.024c-0.061,0.009-0.12,0.017-0.179,0.031c-0.064,0.016-0.125,0.038-0.187,0.06
		c-0.063,0.022-0.126,0.044-0.185,0.072c-0.054,0.025-0.105,0.057-0.157,0.087c-0.063,0.037-0.125,0.074-0.184,0.118
		c-0.018,0.013-0.037,0.021-0.055,0.035l-5.815,4.629l-5.361-1.682c-1.052-0.331-2.178,0.254-2.507,1.31
		c-0.331,1.054,0.256,2.176,1.31,2.507l6.375,2c0.196,0.062,0.398,0.092,0.599,0.092c0.446,0,0.887-0.15,1.246-0.435l3.412-2.716
		l2.619,4.026l-5.299,1.935c-0.789,0.288-1.315,1.039-1.315,1.879v10H13.488c-4.896,0-8.574-1.892-10.332-3.02
		c-0.611-0.394-1.278-0.36-1.626,0.056c-0.15,0.179-0.311,0.503-0.219,1.033c1.047,6.056,11.215,6.96,17.183,6.96
		c2.094,0,3.506-0.111,3.525-0.114h28.658c0.549,0,1.218,0.456,1.489,1.016c1.663,3.423,4.173,3.935,5.521,3.935h0.003
		c0.299,0,0.922,0,1.048-0.507c0.129-0.519-0.46-0.831-0.777-0.999c-1.024-0.54-1.357-1.712-1.457-2.599
		c-0.027-0.241,0.084-0.421,0.182-0.531c0.177-0.197,0.444-0.315,0.715-0.315h1.945c0.961,0,2.051-0.673,2.479-1.533l0.702-1.403
		C62.773,48.667,62.776,48.167,62.539,47.782z M30.553,38.577l5.574-2.035l-0.66,5.328c-0.106,0.858,0.351,1.688,1.133,2.056
		l6.911,3.252H30.553V38.577z"/>
</g>
</svg>
