<?xml version="1.0" encoding="iso-8859-1"?>
<!-- Generator: Adobe Illustrator 17.1.0, SVG Export Plug-In . SVG Version: 6.00 Build 0)  -->
<!DOCTYPE svg PUBLIC "-//W3C//DTD SVG 1.1//EN" "http://www.w3.org/Graphics/SVG/1.1/DTD/svg11.dtd">
<svg version="1.1" id="Capa_1" xmlns="http://www.w3.org/2000/svg" xmlns:xlink="http://www.w3.org/1999/xlink" x="0px" y="0px"
	 viewBox="0 0 64 64" style="enable-background:new 0 0 64 64;" xml:space="preserve">
<g>
	<path d="M4.408,55.97c0.318,0,0.639-0.108,0.901-0.327l5.134-4.281c0.325-0.272,0.991-0.311,1.348-0.081l5.303,3.439
		c1.371,0.891,3.388,0.818,4.69-0.164l4.281-3.224c0.357-0.271,1.108-0.303,1.487-0.062l5.512,3.481
		c1.339,0.845,3.352,0.833,4.683-0.029l5.302-3.441c0.4-0.258,1.205-0.254,1.601,0.008l5.177,3.413
		c1.362,0.901,3.382,0.848,4.694-0.122l5.909-4.368c0.626-0.463,0.757-1.346,0.295-1.971c-0.462-0.627-1.345-0.759-1.971-0.295
		l-5.909,4.367c-0.354,0.262-1.095,0.284-1.465,0.038l-5.178-3.414c-1.332-0.88-3.349-0.89-4.687-0.02l-5.303,3.441
		c-0.407,0.262-1.235,0.268-1.645,0.01l-5.511-3.481c-1.375-0.866-3.39-0.783-4.689,0.194l-4.28,3.224
		c-0.354,0.268-1.089,0.293-1.461,0.051l-5.302-3.438c-1.394-0.907-3.411-0.786-4.688,0.28l-5.133,4.281
		c-0.598,0.498-0.678,1.386-0.181,1.984C3.604,55.797,4.005,55.97,4.408,55.97z"/>
	<path d="M22.667,33.734c2.07,0,3.755-1.686,3.755-3.762c0-2.07-1.685-3.744-3.755-3.744c-2.065,0-3.751,1.674-3.751,3.744
		C18.916,32.049,20.602,33.734,22.667,33.734z"/>
	<path d="M48.384,8.521l-7.602,12.941l-11.188,6.785c-0.556,0.307-1.021,0.771-1.345,1.339l-8.703,14.995
		c-0.584,1.004-0.244,2.303,0.766,2.888c1.005,0.602,2.298,0.255,2.889-0.749L30,36.625l12.489-8.644
		c0.568-0.312,1.033-0.777,1.34-1.339l9.111-15.506c0.721-1.254,0.289-2.859-0.965-3.592C50.711,6.824,49.104,7.262,48.384,8.521z"
		/>
</g>
</svg>
