<?xml version="1.0" encoding="iso-8859-1"?>
<!-- Generator: Adobe Illustrator 17.1.0, SVG Export Plug-In . SVG Version: 6.00 Build 0)  -->
<!DOCTYPE svg PUBLIC "-//W3C//DTD SVG 1.1//EN" "http://www.w3.org/Graphics/SVG/1.1/DTD/svg11.dtd">
<svg version="1.1" id="Capa_1" xmlns="http://www.w3.org/2000/svg" xmlns:xlink="http://www.w3.org/1999/xlink" x="0px" y="0px"
	 viewBox="0 0 64 64" style="enable-background:new 0 0 64 64;" xml:space="preserve">
<g>
	<path d="M19.815,53.948c0.074,0.506,0.544,0.856,1.05,0.782c0.03-0.005,0.754-0.114,1.894-0.295l-0.257-1.837l-0.111-0.793
		l-0.256-1.837c-1.152,0.186-1.893,0.298-1.924,0.304c-0.457,0.069-0.787,0.464-0.787,0.915c0,0.044,0.002,0.089,0.011,0.134
		L19.815,53.948z"/>
	<path d="M24.217,51.51l-0.266-1.833c-0.364,0.06-0.708,0.116-1.033,0.168l0.256,1.835l0.111,0.794l0.258,1.836
		c0.329-0.053,0.682-0.109,1.054-0.169l-0.267-1.837L24.217,51.51z"/>
	<path d="M28.838,51.543l0.264,1.837c3.414-0.599,7.772-1.661,9.403-2.164c4.479-1.38,5.807-5.33,5.86-5.498
		c0,0,4.799-15.33,5.358-17.317c0.56-1.989,1.729-6.356,1.729-6.356c0.08-0.26,0.213-0.936,0.365-1.938
		c0.274-1.812,0.099-2.915-0.078-4.503l-1.096-8.394c-0.034-0.244-0.163-0.465-0.358-0.614c-0.197-0.148-0.445-0.213-0.689-0.179
		l-2.675,0.375c-0.505,0.071-0.857,0.537-0.789,1.043l1.23,9.084C47.729,19.366,47.24,21,47.24,21l-0.017,0.064l-0.604,2.256
		c-0.046,0.07-6.521,20.952-6.537,21.001c-0.039,0.107-0.723,1.917-2.904,2.59c-1.407,0.433-5.491,1.44-8.721,2.005l0.266,1.833
		L28.838,51.543z"/>
	<path d="M27.894,48.311V46.36c0.922-0.484,1.62-1.336,1.899-2.359c0.144-0.533-0.166-0.988-0.531-0.988
		c-0.365,0-0.643,0.466-0.863,0.973c-0.378,0.873-1.248,1.485-2.257,1.485s-1.879-0.612-2.257-1.485
		c-0.22-0.507-0.498-0.973-0.863-0.973c-0.366,0-0.677,0.455-0.532,0.988c0.278,1.023,0.977,1.875,1.899,2.359v2.459v0.208
		l3.506-0.534V48.311z"/>
	<path d="M10.217,32.483c0.257,3.954,1.636,6.664,5.099,6.943c2.966,0.239,6.007-0.425,7.554-3.223
		c0.298-0.539,0.6-1.386,0.847-2.095c0,0,0.538-1.971,2.108-1.971c1.569,0,2.031,1.971,2.031,1.971
		c0.246,0.709,0.549,1.556,0.847,2.095c1.546,2.798,4.588,3.462,7.554,3.223c3.463-0.279,4.842-2.989,5.099-6.943h0.089
		c-0.045-4.643-2.253-6.453-5.145-7.212c-2.92-0.768-10.471-0.744-10.471-0.744s-7.55-0.023-10.47,0.744
		c-2.705,0.71-4.812,2.341-5.108,6.35h-0.072c0.007,0.285,0.02,0.564,0.037,0.838c0,0.009-0.001,0.016-0.001,0.024H10.217z"/>
</g>
</svg>
