<?xml version="1.0" encoding="iso-8859-1"?>
<!-- Generator: Adobe Illustrator 17.1.0, SVG Export Plug-In . SVG Version: 6.00 Build 0)  -->
<!DOCTYPE svg PUBLIC "-//W3C//DTD SVG 1.1//EN" "http://www.w3.org/Graphics/SVG/1.1/DTD/svg11.dtd">
<svg version="1.1" id="Capa_1" xmlns="http://www.w3.org/2000/svg" xmlns:xlink="http://www.w3.org/1999/xlink" x="0px" y="0px"
	 viewBox="0 0 64 64" style="enable-background:new 0 0 64 64;" xml:space="preserve">
<g>
	<path d="M60.726,44.592c-0.462-0.627-1.345-0.759-1.971-0.295l-5.909,4.367c-0.354,0.262-1.095,0.284-1.465,0.038l-5.178-3.414
		c-1.332-0.88-3.349-0.89-4.687-0.02l-5.303,3.441c-0.407,0.262-1.235,0.268-1.646,0.01l-5.511-3.48
		c-1.375-0.866-3.39-0.783-4.689,0.194l-4.28,3.224c-0.354,0.268-1.089,0.293-1.461,0.051l-5.302-3.439
		c-1.394-0.907-3.411-0.786-4.688,0.28l-5.133,4.281c-0.598,0.498-0.678,1.386-0.181,1.984c0.28,0.334,0.681,0.507,1.084,0.507
		c0.318,0,0.639-0.108,0.901-0.327l5.134-4.281c0.325-0.272,0.991-0.312,1.348-0.081l5.303,3.439
		c1.371,0.891,3.388,0.818,4.69-0.164l4.281-3.224c0.356-0.271,1.107-0.303,1.487-0.062l5.512,3.48
		c1.339,0.845,3.352,0.833,4.683-0.029l5.302-3.441c0.4-0.258,1.205-0.254,1.601,0.008l5.177,3.413
		c1.362,0.901,3.382,0.848,4.694-0.122l5.909-4.368C61.057,46.1,61.188,45.217,60.726,44.592z"/>
	<path d="M20.624,22.722c-0.997-0.125-2.013,0.765-2.263,1.932c-0.25,1.167,0.865,2.374,2.478,2.752
		c1.215,0.284,2.55,0.626,3.451,0.94c0.347,0.928,4.304,6.468,7.349,10.663c1.947,2.683,4.567,2.36,5.771-0.727
		c1.799-4.616,4.077-10.655,3.983-12.146c-0.205-3.261-1.54-4.835-2.187-5.816c-0.664-1.007-1.666-1.497-2.697-1.1l-1.703,0.656
		c-1.031,0.396-2.28,1.214-2.79,1.824l-0.923,1.105l1.256-0.3c0.071-0.017,0.144-0.036,0.206-0.055c0.707-0.221,1.392-0.477,2-0.707
		c1.266-0.477,2.262-0.817,2.803-0.537c0.569,0.295,0.993,0.958,1.133,1.676c-0.224-0.389-0.532-0.714-0.891-0.9
		c-0.594-0.305-1.449-0.019-2.899,0.529c-0.604,0.227-3.462,0.934-4.18,1.157c-0.087,0.027-0.125,0.045-0.14,0.058
		c-0.096-0.001-0.252,0.002-0.498,0.013c-0.047-0.003-6.138-0.366-7.467-0.709C21.923,22.903,21.253,22.8,20.624,22.722z"/>
	<path d="M15.827,13.903c2.091,2.987,5.364,7.673,5.544,7.996l0.107,0.191l0.723,0.173c1.366,0.352,3.705,0.57,6.104,0.57
		l1.101-0.003l-0.502-0.772c-0.345-0.531-0.73-1.132-1.138-1.767c-0.455-0.71-5.054-6.249-7.74-9.47
		c-1.061-1.272-2.819-1.647-3.922-0.839C15,10.792,14.877,12.546,15.827,13.903z"/>
	<circle cx="32.137" cy="12.803" r="5.161"/>
</g>
</svg>
