<?xml version="1.0" encoding="iso-8859-1"?>
<!-- Generator: Adobe Illustrator 17.1.0, SVG Export Plug-In . SVG Version: 6.00 Build 0)  -->
<!DOCTYPE svg PUBLIC "-//W3C//DTD SVG 1.1//EN" "http://www.w3.org/Graphics/SVG/1.1/DTD/svg11.dtd">
<svg version="1.1" id="Capa_1" xmlns="http://www.w3.org/2000/svg" xmlns:xlink="http://www.w3.org/1999/xlink" x="0px" y="0px"
	 viewBox="0 0 64 64" style="enable-background:new 0 0 64 64;" xml:space="preserve">
<g>
	<circle cx="18.13" cy="24.1" r="4.666"/>
	<circle cx="47.514" cy="26.163" r="4.667"/>
	<path d="M22.576,38.803c0.847-0.638,1.936-0.986,3.043-1.053l0.706-3.734c0.206-1.085-0.508-2.135-1.592-2.343L13.07,29.43
		c-1.085-0.208-1.795-1.257-1.586-2.342l1.206-7.238c0.209-1.085-0.516-1.964-1.621-1.964h-0.022c-1.104,0-2.173,0.879-2.388,1.962
		L6.828,30.119c-0.208,1.085,0.504,2.118,1.59,2.32c0,0,0.367,0.07,0.819,0.157c0.452,0.088,0.734,0.598,0.629,1.141L9.068,37.89
		c1.428-0.305,2.99-0.086,4.185,0.689l5.168,3.352l1.649-1.242c0,0,1.281-5.042,1.597-4.98c0.316,0.06-0.208,3.935-0.208,3.935
		L22.576,38.803z"/>
	<path d="M51.326,41.705l3.859-2.852l0.525-2.775c0.204-1.085-0.509-2.135-1.594-2.343l-11.662-2.243
		c-1.084-0.208-1.795-1.257-1.586-2.342l1.606-9.505c0.205-1.085-0.524-1.965-1.629-1.965h-0.037c-1.104,0-2.169,0.879-2.378,1.964
		l-2.219,12.537c-0.209,1.084,0.505,2.118,1.591,2.32l1.638,0.315l-0.85,4.414l1.358-0.881c1.773-1.156,4.555-1.144,6.328,0.025
		l3.567,2.352c0,0,0.883-3.122,1.199-3.06c0.316,0.06-0.147,3.755-0.147,3.755L51.326,41.705z"/>
	<path d="M3.488,47.657c0.318,0,0.639-0.108,0.901-0.327l5.134-4.281c0.325-0.272,0.991-0.311,1.348-0.081l5.303,3.439
		c1.371,0.891,3.388,0.818,4.691-0.164l4.281-3.224c0.357-0.271,1.107-0.303,1.487-0.062l5.511,3.481
		c1.34,0.845,3.352,0.833,4.684-0.029l5.303-3.441c0.4-0.258,1.205-0.254,1.6,0.008l5.178,3.413
		c1.361,0.901,3.381,0.848,4.693-0.122l5.91-4.368c0.625-0.463,0.756-1.346,0.295-1.971c-0.463-0.627-1.346-0.759-1.971-0.295
		l-5.91,4.367c-0.353,0.262-1.094,0.284-1.465,0.038l-5.178-3.414c-1.332-0.88-3.348-0.89-4.685-0.02l-5.303,3.441
		c-0.408,0.262-1.236,0.268-1.647,0.01l-5.511-3.481c-1.375-0.866-3.39-0.783-4.69,0.194l-4.28,3.224
		c-0.354,0.268-1.089,0.293-1.461,0.051l-5.302-3.438c-1.395-0.907-3.411-0.786-4.688,0.28l-5.133,4.281
		c-0.598,0.498-0.678,1.386-0.181,1.984C2.685,47.484,3.085,47.657,3.488,47.657z"/>
</g>
</svg>
