<?xml version="1.0" encoding="iso-8859-1"?>
<!-- Generator: Adobe Illustrator 17.1.0, SVG Export Plug-In . SVG Version: 6.00 Build 0)  -->
<!DOCTYPE svg PUBLIC "-//W3C//DTD SVG 1.1//EN" "http://www.w3.org/Graphics/SVG/1.1/DTD/svg11.dtd">
<svg version="1.1" id="Capa_1" xmlns="http://www.w3.org/2000/svg" xmlns:xlink="http://www.w3.org/1999/xlink" x="0px" y="0px"
	 viewBox="0 0 64 64" style="enable-background:new 0 0 64 64;" xml:space="preserve">
<g>
	<path d="M9.443,39.897c0.325-0.272,0.991-0.312,1.348-0.081l5.303,3.439c1.371,0.891,3.388,0.818,4.69-0.164l4.281-3.224
		c0.356-0.271,1.107-0.303,1.487-0.062l5.512,3.48c1.339,0.845,3.352,0.833,4.683-0.029l5.302-3.441
		c0.4-0.258,1.205-0.254,1.601,0.008l5.177,3.413c1.362,0.901,3.382,0.848,4.694-0.122l5.909-4.368
		c0.626-0.463,0.757-1.346,0.295-1.971c-0.462-0.627-1.345-0.759-1.971-0.295l-5.909,4.367c-0.354,0.262-1.095,0.284-1.465,0.038
		l-5.178-3.414c-1.332-0.88-3.349-0.89-4.687-0.02l-5.303,3.441c-0.407,0.262-1.235,0.268-1.646,0.01l-5.511-3.48
		c-1.375-0.866-3.39-0.783-4.689,0.194l-4.28,3.224c-0.354,0.268-1.089,0.293-1.461,0.051l-5.302-3.439
		c-1.394-0.907-3.411-0.786-4.688,0.28l-5.133,4.281c-0.598,0.498-0.678,1.386-0.181,1.984c0.28,0.334,0.681,0.507,1.084,0.507
		c0.318,0,0.639-0.108,0.901-0.327L9.443,39.897z"/>
	<path d="M22.216,27.74v2.833h4.367c1.104,0,1.716-0.634,1.716-1.416c0-0.783-0.611-1.417-1.716-1.417H22.216z"/>
	<path d="M18.516,11.942c-0.287,3.989-0.948,13.116-1.37,15.212c-0.024,0.123-0.593,3.053-0.486,5.923l0.168,4.548l1.483,0.962
		l3.309-2.492V11.948c0-1.105-0.664-1.634-1.482-1.634C19.32,10.314,18.595,10.841,18.516,11.942z"/>
	<path d="M13.924,30.573h1.933c0.107-1.127,0.253-2.46,0.333-2.919l-6.016-0.153L10.056,27.5c-1.403,0-2.461,1.049-2.461,1.88
		c0,1.421,0.455,2.011,1.03,2.758c0.112,0.146,0.231,0.299,0.353,0.47l1.377,1.913c1.099-0.031,2.204,0.228,3.1,0.81l2.398,1.556
		l-0.11-2.972c-0.006-0.162-0.01-0.325-0.012-0.487c-0.516-0.514-1.207-1.151-2.13-1.943c-0.441-0.378-0.505-0.621-0.477-0.696
		C13.151,30.714,13.354,30.573,13.924,30.573z"/>
	<path d="M59.142,29.157c0-0.783-0.611-1.417-1.716-1.417h-4.367v2.833h4.367C58.53,30.573,59.142,29.939,59.142,29.157z"/>
	<path d="M49.359,11.942c-0.287,3.989-0.948,13.116-1.37,15.212c-0.024,0.123-0.593,3.053-0.486,5.923l0.168,4.548l1.483,0.962
		l3.309-2.492V11.948c0-1.105-0.664-1.634-1.482-1.634C50.163,10.314,49.438,10.841,49.359,11.942z"/>
	<path d="M44.767,30.573H46.7c0.107-1.127,0.252-2.46,0.333-2.919l-6.016-0.153L40.898,27.5c-1.403,0-2.461,1.049-2.461,1.88
		c0,1.421,0.455,2.011,1.03,2.758c0.112,0.146,0.231,0.299,0.353,0.47l1.378,1.913c1.099-0.031,2.204,0.228,3.1,0.81l2.398,1.556
		l-0.11-2.972c-0.006-0.162-0.01-0.325-0.012-0.487c-0.516-0.514-1.207-1.151-2.13-1.943c-0.441-0.378-0.505-0.621-0.477-0.696
		C43.994,30.714,44.197,30.573,44.767,30.573z"/>
</g>
</svg>
