<?xml version="1.0" encoding="iso-8859-1"?>
<!-- Generator: Adobe Illustrator 17.1.0, SVG Export Plug-In . SVG Version: 6.00 Build 0)  -->
<!DOCTYPE svg PUBLIC "-//W3C//DTD SVG 1.1//EN" "http://www.w3.org/Graphics/SVG/1.1/DTD/svg11.dtd">
<svg version="1.1" id="Capa_1" xmlns="http://www.w3.org/2000/svg" xmlns:xlink="http://www.w3.org/1999/xlink" x="0px" y="0px"
	 viewBox="0 0 64 64" style="enable-background:new 0 0 64 64;" xml:space="preserve">
<g>
	<path d="M59.85,28.838H45.387v-7.169c0-0.536-0.432-0.968-0.966-0.968s-0.966,0.432-0.966,0.968v7.169H28.993
		c-0.742,0-1.344,0.601-1.344,1.345v3.562c0,0.741,0.603,1.344,1.344,1.344h3.816v16.239c0,0.533,0.433,0.966,0.967,0.966h3.272
		c0.534,0,0.966-0.433,0.966-0.966V35.088H59.85c0.742,0,1.345-0.602,1.345-1.344v-3.562C61.194,29.438,60.592,28.838,59.85,28.838z
		"/>
	<path d="M17.733,32.642V28.51l2.302-0.105c0.292-0.014,0.575-0.106,0.819-0.265l8.469-5.527c0.756-0.492,0.968-1.507,0.475-2.262
		c-0.192-0.294-0.462-0.503-0.764-0.623l0.129-0.289c0.033-0.073,0.025-0.155-0.012-0.222c0.051-0.228,0.171-0.685,0.397-1.194
		c0.132-0.292,0.28-0.563,0.442-0.803c0.056-0.066,0.566-0.65,1.759-1.596c0.527-0.417,0.92-0.762,1.233-1.093
		c0.039-0.009,0.074-0.03,0.091-0.069c0.005-0.012,0.007-0.024,0.009-0.036c0.392-0.433,0.65-0.849,0.888-1.383
		c0.297-0.666,0.335-1.427,0.101-2.036c-0.212-0.548-0.621-0.958-1.214-1.22c-0.56-0.253-1.152-0.274-1.712-0.062
		c-0.628,0.24-1.192,0.778-1.471,1.402c-0.437,0.983-0.536,1.74-0.433,3.376H29.24c0,0.002,0,0.005,0,0.005
		c0.1,1.605-0.011,2.371-0.011,2.372c0,0.005-0.073,0.392-0.311,0.929c-0.163,0.363-0.365,0.708-0.599,1.029
		c-0.079,0.018-0.148,0.063-0.184,0.143L27.8,19.737c-0.09,0.038-0.18,0.081-0.265,0.137L24.08,22.13l-3.55,2.318l-1.089,0.71
		l-1.708,0.076v-1.355c0,0-0.085-1.158-0.085-2.062s-0.896-1.21-2.107-1.211l-2.816-0.003c-1.354,0-2.452,0.001-2.452,1.357v11.387
		c-0.022,0.139-0.049,0.285-0.056,0.433l-0.364,8.449l-6.679,4.688c-1.109,0.776-1.377,2.308-0.598,3.416
		c0.477,0.681,1.237,1.044,2.009,1.044c0.487,0,0.978-0.144,1.407-0.445l7.668-5.38c0.623-0.439,1.007-1.141,1.041-1.903L15,36.759
		l5.108,4.372v7.794c0,1.354,1.098,2.452,2.453,2.452c1.354,0,2.452-1.098,2.452-2.452v-8.922c0-0.716-0.312-1.396-0.857-1.863
		L17.733,32.642z"/>
	<circle cx="14.003" cy="16.193" r="3.645"/>
</g>
</svg>
