<?xml version="1.0" encoding="iso-8859-1"?>
<!-- Generator: Adobe Illustrator 17.1.0, SVG Export Plug-In . SVG Version: 6.00 Build 0)  -->
<!DOCTYPE svg PUBLIC "-//W3C//DTD SVG 1.1//EN" "http://www.w3.org/Graphics/SVG/1.1/DTD/svg11.dtd">
<svg version="1.1" id="Capa_1" xmlns="http://www.w3.org/2000/svg" xmlns:xlink="http://www.w3.org/1999/xlink" x="0px" y="0px"
	 viewBox="0 0 64 64" style="enable-background:new 0 0 64 64;" xml:space="preserve">
<g>
	<path d="M52.723,28.001c0.225-3.28-0.256-5.688-0.256-5.688C49.446,7.008,38.88,3.896,34.227,3.272
		c-1.224-0.163-3.232-0.163-4.456,0C25.118,3.897,14.555,7.01,11.534,22.313c0,0-0.482,2.407-0.256,5.688
		c0.086,1.231-0.871,2.36-1.61,3.349c-0.444,0.595-0.776,1.499-0.711,2.871c0.109,2.284,0.65,4.068,1.381,5.272
		c0.64,1.056,1.629,2.569,1.838,3.787c0.197,1.151,0.518,2.554,1.02,3.701c0.496,1.131,1.928,2.099,2.78,2.087
		c0.852-0.013,1.933,0.632,2.548,1.702c1.104,1.925,3.148,5.066,6.39,8.583c0.837,0.907,2.358,1.024,3.356,0.297l0.294-0.213
		c0.998-0.727,1.164-2.082,0.436-3.078c-1.842-2.519-4.989-7.4-5.913-12.454c-0.514-2.808-0.789-4.651-0.935-5.858
		c-0.148-1.226,0.852-2.046,2.073-1.867c2.045,0.3,5.155,0.671,7.776,0.616c2.622,0.055,5.732-0.316,7.777-0.616
		c1.221-0.179,2.221,0.642,2.073,1.867c-0.146,1.207-0.422,3.051-0.936,5.858c-0.924,5.054-4.071,9.935-5.913,12.454
		c-0.729,0.996-0.562,2.352,0.435,3.078l0.294,0.213c0.998,0.727,2.52,0.61,3.356-0.297c3.243-3.516,5.286-6.657,6.391-8.583
		c0.615-1.069,1.695-1.715,2.548-1.702c0.854,0.012,2.284-0.955,2.78-2.086c0.502-1.148,0.822-2.552,1.021-3.704
		c0.208-1.217,1.197-2.729,1.837-3.785c0.731-1.204,1.271-2.988,1.381-5.272c0.065-1.372-0.267-2.276-0.711-2.871
		C53.594,30.361,52.637,29.232,52.723,28.001z M18.293,25.919c-0.395,1.986-1.664,3.408-2.839,3.175
		c-1.175-0.233-1.807-2.031-1.413-4.018c0.394-1.986,1.664-3.408,2.839-3.175C18.055,22.134,18.687,23.933,18.293,25.919z
		 M18.334,15.831c0,0,4.499-7.833,13.666-7.833s13.834,7.833,13.834,7.833S31.834,12.664,18.334,15.831z M48.88,29.094
		c-1.175,0.233-2.444-1.189-2.839-3.175c-0.393-1.986,0.238-3.785,1.413-4.018c1.175-0.233,2.444,1.188,2.839,3.175
		C50.686,27.062,50.055,28.861,48.88,29.094z"/>
</g>
</svg>
