<?xml version="1.0" encoding="iso-8859-1"?>
<!-- Generator: Adobe Illustrator 17.1.0, SVG Export Plug-In . SVG Version: 6.00 Build 0)  -->
<!DOCTYPE svg PUBLIC "-//W3C//DTD SVG 1.1//EN" "http://www.w3.org/Graphics/SVG/1.1/DTD/svg11.dtd">
<svg version="1.1" id="Capa_1" xmlns="http://www.w3.org/2000/svg" xmlns:xlink="http://www.w3.org/1999/xlink" x="0px" y="0px"
	 viewBox="0 0 64 64" style="enable-background:new 0 0 64 64;" xml:space="preserve">
<g>
	<circle cx="6.078" cy="24.832" r="3.745"/>
	<circle cx="56.922" cy="24.832" r="3.745"/>
	<path d="M45.958,52.047V36.925l0.31-0.217l0.369,1.013c0.228,0.625,0.819,1.016,1.449,1.016c0.175,0,0.353-0.03,0.526-0.095
		c0.8-0.29,1.213-1.174,0.922-1.974l-0.651-1.79l1.364-0.954c-0.003,0.104-0.011,0.207,0.008,0.31l1.192,6.591
		c0.135,0.745,0.784,1.268,1.515,1.268c0.091,0,0.184-0.008,0.277-0.025c0.837-0.15,1.393-0.953,1.242-1.79l-1.107-6.109
		l0.986-2.116c0.162-0.346,0.177-0.72,0.082-1.062l0.063-0.044l-0.162-0.217c-0.084-0.174-0.201-0.331-0.348-0.465l-3.598-4.795
		c-0.511-0.681-1.493-0.84-2.192-0.358l-8.002,5.558l-2.511-0.887c0.368-0.579,0.485-1.31,0.239-2.007
		c-0.425-1.204-1.747-1.837-2.949-1.41l-3.481,1.23l-3.481-1.23c-1.202-0.427-2.524,0.206-2.949,1.41
		c-0.246,0.697-0.13,1.428,0.239,2.007l-2.511,0.887l-8.002-5.558c-0.7-0.482-1.682-0.323-2.192,0.358l-3.598,4.795
		c-0.147,0.134-0.264,0.291-0.348,0.465l-0.162,0.217l0.063,0.044c-0.095,0.342-0.081,0.716,0.082,1.062l0.986,2.116L8.52,40.276
		c-0.151,0.837,0.405,1.64,1.242,1.79c0.093,0.018,0.186,0.025,0.277,0.025c0.73,0,1.379-0.523,1.515-1.268l1.192-6.591
		c0.019-0.103,0.01-0.206,0.008-0.31l1.364,0.954l-0.651,1.79c-0.291,0.8,0.122,1.684,0.922,1.974
		c0.174,0.064,0.352,0.095,0.526,0.095c0.63,0,1.221-0.391,1.449-1.016l0.369-1.013l0.31,0.217v15.122
		c0,1.277,1.035,2.312,2.312,2.312c1.276,0,2.311-1.035,2.311-2.312V35.973l9.836-3.475l9.836,3.475v16.074
		c0,1.277,1.035,2.312,2.311,2.312C44.924,54.359,45.958,53.324,45.958,52.047z"/>
</g>
</svg>
