<?xml version="1.0" encoding="iso-8859-1"?>
<!-- Generator: Adobe Illustrator 17.1.0, SVG Export Plug-In . SVG Version: 6.00 Build 0)  -->
<!DOCTYPE svg PUBLIC "-//W3C//DTD SVG 1.1//EN" "http://www.w3.org/Graphics/SVG/1.1/DTD/svg11.dtd">
<svg version="1.1" id="Capa_1" xmlns="http://www.w3.org/2000/svg" xmlns:xlink="http://www.w3.org/1999/xlink" x="0px" y="0px"
	 viewBox="0 0 64 64" style="enable-background:new 0 0 64 64;" xml:space="preserve">
<g>
	<path d="M52.59,43.146c0.168,0.974,1.014,1.659,1.969,1.659c0.112,0,0.227-0.01,0.343-0.029c1.089-0.188,1.818-1.224,1.63-2.312
		l-2.226-12.86c-0.065-0.381-0.241-0.734-0.504-1.018L42.921,16.839c-0.75-0.81-2.017-0.857-2.826-0.107
		c-0.81,0.75-0.858,2.016-0.107,2.826l5.864,6.331l-4.945,1.707l-4.701-9.053c0.869-0.67,1.037-1.914,0.374-2.79
		c-0.522-0.689-1.403-0.939-2.185-0.696l-1.655-3.187c-0.764-1.471-2.576-2.044-4.045-1.279c-1.471,0.764-2.044,2.574-1.28,4.045
		l2.069,3.984l-3.607,2.733l-4.016-1.694c-0.281-0.119-0.573-0.162-0.859-0.15L21,19.5l-0.046,0.012
		c-0.245,0.016-0.482,0.075-0.704,0.177l-7.232,1.817c-0.68,0.053-1.317,0.444-1.642,1.1l-5.4,10.903
		c-0.49,0.99-0.086,2.189,0.904,2.68c0.285,0.142,0.588,0.208,0.886,0.208c0.736,0,1.445-0.408,1.793-1.112l4.055-8.187l1.55,7.506
		l-3.527,12.934l-3.759,6.754c-0.806,1.447-0.286,3.274,1.162,4.08c0.462,0.258,0.962,0.38,1.456,0.38
		c1.054,0,2.076-0.557,2.624-1.542l3.937-7.072c0.118-0.211,0.209-0.436,0.273-0.67l2.78-10.192l7.891,7.582l0.306,6.818
		c0.072,1.609,1.4,2.865,2.995,2.865c0.045,0,0.091-0.001,0.137-0.003c1.656-0.074,2.937-1.477,2.863-3.132l-0.359-8.016
		c-0.034-0.768-0.363-1.495-0.918-2.028l-8.697-8.357l-2.35-10.957l3.411,1.439c0.25,0.106,0.514,0.157,0.777,0.157
		c0.429,0,0.854-0.138,1.208-0.406l3.982-3.017l5.933,11.424V55.21c0,1.657,1.343,3,3,3c1.657,0,3-1.343,3-3V35.647l7.682-1.864
		L52.59,43.146z"/>
	<circle cx="14.252" cy="14.788" r="4.712"/>
	<circle cx="57.126" cy="23.81" r="4.712"/>
</g>
</svg>
