<?xml version="1.0" encoding="iso-8859-1"?>
<!-- Generator: Adobe Illustrator 17.1.0, SVG Export Plug-In . SVG Version: 6.00 Build 0)  -->
<!DOCTYPE svg PUBLIC "-//W3C//DTD SVG 1.1//EN" "http://www.w3.org/Graphics/SVG/1.1/DTD/svg11.dtd">
<svg version="1.1" id="Capa_1" xmlns="http://www.w3.org/2000/svg" xmlns:xlink="http://www.w3.org/1999/xlink" x="0px" y="0px"
	 viewBox="0 0 64 64" style="enable-background:new 0 0 64 64;" xml:space="preserve">
<g>
	<path d="M29.701,14.283c3.329,0,6.025-2.695,6.025-6.023c0-3.33-2.696-6.025-6.025-6.025c-3.328,0-6.025,2.695-6.025,6.025
		C23.676,11.588,26.373,14.283,29.701,14.283z"/>
	<path d="M49.562,10.98c-1.803,0-3.265,1.462-3.265,3.265v2.081l-7.078,2.626l-3.453-1.367c-0.144-0.057-0.29-0.089-0.437-0.124
		v-0.035h-0.123c-0.443-0.09-0.888-0.089-1.313,0h-7.025c-1.546,0-2.798,1.252-2.798,2.798v18.969h0.154L11.969,54.801
		c-1.273,1.622-0.99,3.967,0.631,5.24c0.684,0.536,1.495,0.796,2.302,0.796c1.105,0,2.202-0.489,2.938-1.427l13.483-17.172
		l2.772,2.152l-1.138,11.511c-0.202,2.052,1.296,3.878,3.348,4.08c2.033,0.212,3.876-1.295,4.079-3.347l1.339-13.561
		c0.126-1.276-0.412-2.528-1.425-3.314l-4.968-3.858V24.435l2.648,1.049c0.387,0.153,0.794,0.229,1.202,0.229
		c0.385,0,0.769-0.068,1.137-0.204l10.381-3.851c1.28-0.475,2.129-1.695,2.129-3.062v-4.352
		C52.827,12.442,51.365,10.98,49.562,10.98z"/>
</g>
</svg>
