<?xml version="1.0" encoding="iso-8859-1"?>
<!-- Generator: Adobe Illustrator 17.1.0, SVG Export Plug-In . SVG Version: 6.00 Build 0)  -->
<!DOCTYPE svg PUBLIC "-//W3C//DTD SVG 1.1//EN" "http://www.w3.org/Graphics/SVG/1.1/DTD/svg11.dtd">
<svg version="1.1" id="Capa_1" xmlns="http://www.w3.org/2000/svg" xmlns:xlink="http://www.w3.org/1999/xlink" x="0px" y="0px"
	 viewBox="0 0 64 64" style="enable-background:new 0 0 64 64;" xml:space="preserve">
<g>
	<path d="M20.778,12.057c0,3.713,3.01,6.723,6.723,6.723c0.624,0,1.224-0.092,1.797-0.25c-1.704-1.669-3.373-3.927-3.463-6.437
		c-0.101-2.782,1.134-5.144,2.288-6.728C27.917,5.347,27.71,5.334,27.5,5.334C23.788,5.334,20.778,8.344,20.778,12.057z"/>
	<path d="M33.896,14.092c-0.213,0.019-0.423,0.034-0.624,0.043c0.13,0.178,0.271,0.351,0.424,0.518
		C33.771,14.471,33.835,14.282,33.896,14.092z"/>
	<path d="M32.208,10.64c0.544,0.047,1.163,0.049,1.848,0.005c-0.13-0.605-0.338-1.18-0.62-1.712
		c-0.151,0.008-0.322,0.033-0.466,0.033c-0.184,0-0.356-0.009-0.526-0.02C32.31,9.481,32.223,10.053,32.208,10.64z"/>
	<path d="M34.223,12.057c0-0.227-0.027-0.446-0.05-0.667c-0.357,0.024-0.702,0.041-1.023,0.041c-0.326,0-0.629-0.015-0.921-0.037
		c0.019,0.204,0.049,0.409,0.091,0.614c0.1,0.488,0.272,0.948,0.497,1.387c0.398-0.005,0.817-0.024,1.273-0.071
		C34.169,12.912,34.223,12.491,34.223,12.057z"/>
	<path d="M28.347,9.101c0.179,0.193,0.5,0.476,1,0.751c0.116-0.613,0.286-1.187,0.479-1.702c-0.305-0.195-0.548-0.401-0.738-0.596
		C28.812,8.025,28.557,8.543,28.347,9.101z"/>
	<path d="M32.69,16.311c0.074-0.09,0.149-0.178,0.218-0.271c-0.093,0.002-0.192,0.008-0.282,0.008c-0.106,0-0.201-0.007-0.304-0.009
		C32.44,16.132,32.562,16.223,32.69,16.311z"/>
	<path d="M32.763,7.904c-0.035,0.098-0.07,0.196-0.104,0.299c0.11,0.005,0.224,0.007,0.341,0.007
		C32.925,8.104,32.843,8.005,32.763,7.904z"/>
	<path d="M31.583,12.154c-0.058-0.283-0.089-0.565-0.109-0.845c-0.575-0.085-1.078-0.207-1.508-0.355
		c-0.034,0.536-0.013,1.087,0.1,1.637c0.036,0.177,0.084,0.349,0.137,0.52c0.499,0.132,1.086,0.227,1.771,0.267
		C31.803,12.986,31.67,12.58,31.583,12.154z"/>
	<path d="M31.396,6.602c-0.171,0.291-0.393,0.7-0.614,1.203c0.312,0.134,0.678,0.245,1.106,0.317c0.095-0.3,0.197-0.585,0.305-0.852
		C31.945,7.028,31.68,6.806,31.396,6.602z"/>
	<path d="M32.372,14.146c-0.68-0.014-1.285-0.075-1.814-0.176c0.229,0.446,0.519,0.867,0.877,1.26
		c0.538,0.059,1.138,0.085,1.822,0.054C32.914,14.926,32.618,14.547,32.372,14.146z"/>
	<path d="M29.502,6.897c0.144,0.167,0.345,0.357,0.614,0.543c0.233-0.518,0.465-0.939,0.645-1.241
		c-0.175-0.097-0.345-0.2-0.529-0.282C30,6.198,29.75,6.531,29.502,6.897z"/>
	<path d="M31.262,17.629c0.33-0.223,0.631-0.483,0.915-0.76c-0.403-0.287-0.764-0.594-1.086-0.918
		c-0.71-0.094-1.304-0.251-1.804-0.437C29.879,16.3,30.578,17.019,31.262,17.629z"/>
	<path d="M27.839,11.841c0.241,0.256,0.71,0.656,1.515,0.989c-0.007-0.031-0.018-0.062-0.024-0.093
		c-0.145-0.71-0.16-1.414-0.097-2.088c-0.501-0.244-0.874-0.509-1.141-0.745C27.928,10.518,27.833,11.165,27.839,11.841z"/>
	<path d="M27.976,12.946c0.113,0.451,0.287,0.894,0.511,1.324c0.419,0.278,1.015,0.569,1.842,0.771
		c-0.288-0.412-0.52-0.848-0.697-1.307C28.918,13.511,28.375,13.226,27.976,12.946z"/>
	<path d="M30.054,10.174c0.394,0.149,0.857,0.281,1.405,0.372c0.018-0.589,0.102-1.157,0.229-1.693
		c-0.452-0.081-0.845-0.203-1.185-0.349C30.317,9.014,30.154,9.577,30.054,10.174z"/>
	<path d="M60,7.694l-11.641,9.558c-1.342-0.684-3.179-0.94-5.353,0.194c-1.404,0.73-2.246,1.73-2.503,2.973
		c-0.131,0.635-0.074,1.246,0.058,1.805l-4.919,3.311l-2.232-3.719c-0.452-0.752-1.266-1.213-2.144-1.213h-8.727
		c-0.308,0-0.613,0.057-0.9,0.168l-6.442,2.485l1.313-10.9c0.165-1.371-0.812-2.616-2.183-2.781
		c-1.378-0.16-2.616,0.812-2.781,2.184L9.736,26.787c-0.105,0.871,0.254,1.733,0.947,2.272c0.693,0.538,1.617,0.677,2.435,0.358
		l7.217-2.785L16.75,38.802l0.051-0.002L4.53,57.052c-0.924,1.375-0.559,3.239,0.816,4.163c0.514,0.346,1.095,0.511,1.671,0.511
		c0.965,0,1.914-0.465,2.493-1.326l12.862-19.131h4.604l5.421,5.58l-4.565,9.851c-0.697,1.504-0.043,3.287,1.46,3.983
		c1.504,0.698,3.287,0.043,3.983-1.46L38.707,47.5c0.523-1.128,0.296-2.461-0.57-3.353l-7.229-7.441l1.441-6.942l0.361,0.602
		c0.353,0.588,0.932,1.005,1.6,1.153c0.18,0.04,0.362,0.06,0.543,0.06c0.493,0,0.98-0.146,1.396-0.426l9.416-6.338
		c1.112-0.749,1.422-2.233,0.734-3.366l2.044-1.678c0.166,0.174,0.273,0.317,0.311,0.373c0.307,0.454,0.926,0.576,1.384,0.271
		c0.459-0.307,0.583-0.928,0.275-1.387c-0.113-0.169-0.254-0.35-0.419-0.531l11.274-9.257c0.427-0.35,0.488-0.98,0.138-1.407
		C61.058,7.407,60.429,7.343,60,7.694z M44.672,20.279c-0.607-0.1-1.249,0.018-1.798,0.387l-0.425,0.286
		c0.006-0.045,0.004-0.091,0.014-0.136c0.131-0.621,0.624-1.158,1.467-1.597c1.042-0.543,1.918-0.622,2.63-0.49L44.672,20.279z"/>
</g>
</svg>
