<?xml version="1.0" encoding="iso-8859-1"?>
<!-- Generator: Adobe Illustrator 17.1.0, SVG Export Plug-In . SVG Version: 6.00 Build 0)  -->
<!DOCTYPE svg PUBLIC "-//W3C//DTD SVG 1.1//EN" "http://www.w3.org/Graphics/SVG/1.1/DTD/svg11.dtd">
<svg version="1.1" id="Capa_1" xmlns="http://www.w3.org/2000/svg" xmlns:xlink="http://www.w3.org/1999/xlink" x="0px" y="0px"
	 viewBox="0 0 64 64" style="enable-background:new 0 0 64 64;" xml:space="preserve">
<g>
	<path d="M49.911,59.745c1.18,0,2.344-0.547,3.089-1.577c1.23-1.703,0.848-4.082-0.856-5.315L31.125,36.297V28.31l9.887,4.836
		c0.368,0.178,0.771,0.27,1.181,0.27h5.375c1.502,0,2.719-1.218,2.719-2.719c0-1.502-1.217-2.719-2.719-2.719h-4.754L14.691,14.42
		c-0.739-0.355-1.598-0.359-2.34-0.009c-0.742,0.349-1.286,1.015-1.481,1.812l-1.358,5.544c-0.357,1.458,0.535,2.93,1.994,3.288
		c1.458,0.354,2.93-0.537,3.287-1.995l0.56-2.284l3.234,1.56v17.37c-0.052,0.252-0.081,0.512-0.081,0.779v15.454
		c0,2.102,1.704,3.807,3.806,3.807c2.103,0,3.807-1.704,3.807-3.807V44.291h4.081l17.485,14.733
		C48.358,59.511,49.139,59.745,49.911,59.745z"/>
	<circle cx="29.646" cy="11.151" r="7.333"/>
</g>
</svg>
