<?xml version="1.0" encoding="iso-8859-1"?>
<!-- Generator: Adobe Illustrator 17.1.0, SVG Export Plug-In . SVG Version: 6.00 Build 0)  -->
<!DOCTYPE svg PUBLIC "-//W3C//DTD SVG 1.1//EN" "http://www.w3.org/Graphics/SVG/1.1/DTD/svg11.dtd">
<svg version="1.1" id="Capa_1" xmlns="http://www.w3.org/2000/svg" xmlns:xlink="http://www.w3.org/1999/xlink" x="0px" y="0px"
	 viewBox="0 0 64 64" style="enable-background:new 0 0 64 64;" xml:space="preserve">
<g>
	<path d="M35.042,40.935l0.034,0.315c0.901-0.759,1.224-1.885,1.282-2.115l0.004-0.296c-0.555-0.642-1.066-1.322-1.529-2.037
		C34.907,38.832,34.925,39.278,35.042,40.935z"/>
	<path d="M26.831,39.136c0.058,0.229,0.379,1.357,1.283,2.115l0.036-0.334c0.084-1.151,0.161-2.843,0.217-4.253
		c-0.465,0.713-0.98,1.395-1.54,2.039L26.831,39.136z"/>
	<path d="M33.576,41.057c-0.126-1.775-0.141-2.188-0.223-4.482l-0.045-1.234c-1.101,0.457-2.33,0.475-3.42,0.052
		c-0.093,2.554-0.184,4.451-0.273,5.649l-0.067,0.638c-0.104,0.866-0.233,1.933,0.258,2.486c0.311,0.351,0.929,0.536,1.79,0.536
		c0.858,0,1.477-0.185,1.787-0.535c0.491-0.554,0.363-1.618,0.26-2.475L33.576,41.057z"/>
	<path d="M56.481,37.622c-0.078-0.009-7.929-0.835-12.212-2.354c-4.542-1.609-4.947-5.432-4.792-8.582l0.021-0.401
		c0.166-3.292,0.375-7.388-1.778-10.499c-2.186-3.156-6.079-3.005-6.143-3.002c-0.038-0.003-3.933-0.154-6.119,3.002
		c-2.151,3.111-1.944,7.206-1.777,10.496l0.019,0.404c0.156,3.15-0.248,6.973-4.791,8.582c-4.284,1.52-12.133,2.346-12.233,2.355
		c-0.228,0.002-0.907,0.083-1.044,0.396c-0.092,0.209,0.068,0.562,0.453,0.994c1.605,1.806,5.449,5.652,5.501,5.704
		c0.02,0.022,0.489,0.549,1.468,0.33l0.255-0.052c7.276-1.452,12.724-5.32,15.392-10.905c-0.822-0.711-1.461-1.69-1.962-2.699h3.854
		v2.643h2v-2.643h3.859c-0.55,1.053-1.224,1.99-2.026,2.669c4.124,8.899,13.622,10.683,15.496,10.95
		c1.252,0.179,1.699-0.335,1.733-0.374c0.037-0.037,3.75-3.784,5.439-5.626c0.387-0.422,0.551-0.769,0.464-0.977
		C57.425,37.717,56.733,37.629,56.481,37.622z M36.468,17.136h-3.874v-2.212c0.893,0.15,2.231,0.561,3.403,1.693
		C36.164,16.779,36.319,16.955,36.468,17.136z M38.306,23.483c0.001,0.047,0.019,0.747-0.096,1.822h-5.616v-2.085h5.705
		C38.3,23.31,38.306,23.393,38.306,23.483z M32.594,21.221v-2.085h5.017c0.244,0.634,0.428,1.326,0.542,2.085H32.594z
		 M30.594,21.221h-5.557c0.114-0.759,0.298-1.451,0.541-2.085h5.015V21.221z M31.594,14.84c0.019-0.001,0.079-0.002,0.168,0H31.594
		h-0.167C31.515,14.838,31.575,14.839,31.594,14.84z M30.594,14.924v2.212h-3.872c0.149-0.181,0.304-0.357,0.471-0.518
		C28.363,15.485,29.701,15.074,30.594,14.924z M24.884,23.492c-0.001-0.093,0.006-0.18,0.007-0.271h5.703v2.085h-5.536v0.464
		C24.87,24.427,24.882,23.54,24.884,23.492z M25.914,29.391c-0.208-0.618-0.369-1.189-0.478-1.636
		c-0.038-0.155-0.066-0.3-0.099-0.449h5.257v2.085H25.914z M32.594,29.391v-2.085h5.291c-0.037,0.171-0.07,0.338-0.113,0.516
		c-0.128,0.523-0.286,1.049-0.466,1.569H32.594z"/>
</g>
</svg>
