<?xml version="1.0" encoding="iso-8859-1"?>
<!-- Generator: Adobe Illustrator 17.1.0, SVG Export Plug-In . SVG Version: 6.00 Build 0)  -->
<!DOCTYPE svg PUBLIC "-//W3C//DTD SVG 1.1//EN" "http://www.w3.org/Graphics/SVG/1.1/DTD/svg11.dtd">
<svg version="1.1" id="Capa_1" xmlns="http://www.w3.org/2000/svg" xmlns:xlink="http://www.w3.org/1999/xlink" x="0px" y="0px"
	 viewBox="0 0 64 64" style="enable-background:new 0 0 64 64;" xml:space="preserve">
<g>
	<path d="M45.7,42.539c-0.265-0.291-0.641-0.417-1.005-0.381c-0.889-0.66-2.619-2.038-4.354-3.946
		c-1.015-1.115-1.896-2.263-2.621-3.411c-0.176-0.363-1.723-3.652-3.539-10.556c-1.958-7.446-3.506-10.678-6.902-14.411
		c-2.302-2.531-5.5-4.125-8.556-4.265c-2.751-0.124-5.283,0.857-7.523,2.909c-2.142,1.933-3.348,4.438-3.487,7.242
		c-0.156,3.152,1.088,6.584,3.247,8.956c3.395,3.734,6.466,5.581,13.694,8.233c7.084,2.602,10.175,4.521,10.184,4.525
		c0.015,0.01,1.541,1.048,3.393,3.084c1.253,1.377,2.349,2.886,3.288,4.482c-0.09,0.373,0,0.782,0.278,1.087l10.27,11.291
		c1.11,1.222,2.89,1.418,3.965,0.439c1.076-0.978,1.047-2.768-0.063-3.989L45.7,42.539z M32.446,24.702
		c0.051,0.198,0.102,0.38,0.153,0.572c-0.323,0.514-1.135,1.678-2.584,3.052L26.899,24.9l3.919-3.565l1.005,1.105
		C32.028,23.148,32.234,23.896,32.446,24.702z M19.045,16.265l-2.819-3.1l3.919-3.564l2.819,3.1L19.045,16.265z M23.771,13.585
		l2.886,3.174l-3.918,3.565l-2.888-3.174L23.771,13.585z M18.161,17.069l-3.299,3.001l-2.818-3.1l3.298-3L18.161,17.069z
		 M18.965,17.956l2.887,3.173l-3.298,3l-2.887-3.174L18.965,17.956z M22.658,22.015l2.55,2.805l-3.297,2.999l-2.551-2.804
		L22.658,22.015z M23.543,21.21l3.919-3.565l2.551,2.804l-3.919,3.565L23.543,21.21z M30.933,19.613l-0.035,0.03l-2.551-2.804
		l1.033-0.94C29.938,16.989,30.443,18.199,30.933,19.613z M28.787,14.822l-1.244,1.131l-2.888-3.173l1.571-1.43
		C27.231,12.484,28.061,13.592,28.787,14.822z M21.792,8.104c1.297,0.536,2.535,1.35,3.606,2.383l-1.548,1.409l-2.819-3.1
		L21.792,8.104z M20.501,7.658L20.225,7.91l-0.352-0.388C20.081,7.562,20.291,7.604,20.501,7.658z M18.114,7.367l1.227,1.349
		l-3.919,3.563l-2.58-2.836C14.459,8.101,16.228,7.403,18.114,7.367z M11.958,10.252l2.577,2.833l-3.298,3L9.7,14.396
		C10.032,12.836,10.787,11.45,11.958,10.252z M9.509,15.965l0.842,0.926l-0.755,0.687C9.523,17.037,9.492,16.497,9.509,15.965z
		 M11.794,22.861c-0.886-1.144-1.551-2.496-1.929-3.91l1.292-1.175l2.82,3.1L11.794,22.861z M12.572,23.771l2.21-2.01l2.887,3.174
		l-1.884,1.713C14.628,25.81,13.604,24.878,12.572,23.771z M20.351,29.238c-1.36-0.623-2.519-1.237-3.549-1.896l1.671-1.521
		l2.551,2.804L20.351,29.238z M21.55,29.766l0.28-0.256l0.541,0.596C22.09,29.991,21.815,29.878,21.55,29.766z M25.274,31.225
		c-0.007-0.002-0.012-0.006-0.02-0.007c0.014,0.004,0.021,0.008,0.023,0.008C25.277,31.226,25.275,31.226,25.274,31.225z
		 M25.229,31.208c-0.123-0.045-0.237-0.09-0.358-0.135l-2.154-2.369l3.298-3l3.111,3.421C26.591,31.276,25.373,31.224,25.229,31.208
		z M35.496,35.739c-0.813-0.473-3.215-1.779-7.638-3.53c0.863-0.472,1.904-1.206,3.138-2.34c0.967-0.89,1.694-1.709,2.222-2.377
		c1.307,4.487,2.367,6.966,2.755,7.812L35.496,35.739z"/>
</g>
</svg>
