<?xml version="1.0" encoding="iso-8859-1"?>
<!-- Generator: Adobe Illustrator 17.1.0, SVG Export Plug-In . SVG Version: 6.00 Build 0)  -->
<!DOCTYPE svg PUBLIC "-//W3C//DTD SVG 1.1//EN" "http://www.w3.org/Graphics/SVG/1.1/DTD/svg11.dtd">
<svg version="1.1" id="Capa_1" xmlns="http://www.w3.org/2000/svg" xmlns:xlink="http://www.w3.org/1999/xlink" x="0px" y="0px"
	 viewBox="0 0 64 64" style="enable-background:new 0 0 64 64;" xml:space="preserve">
<g>
	<path d="M30.333,10c-12.131,0-22,9.869-22,22c0,12.132,9.869,22.001,22,22.001c12.131,0,22-9.869,22-22.001
		C52.334,19.869,42.465,10,30.333,10z M19.582,48.154c-1.214-0.812-2.33-1.758-3.331-2.813C18.508,41.97,20.7,37.33,20.7,31.999
		c0-6.08-2.825-10.075-5.285-12.403c0.921-1.106,1.964-2.107,3.107-2.985c3.077,2.955,6.491,7.912,6.491,15.389
		C25.014,38.627,22.296,44.218,19.582,48.154z M44.919,44.79c-0.968,1.102-2.057,2.094-3.248,2.953
		c-2.619-3.91-5.154-9.343-5.154-15.744c0-7.165,3.138-12.018,6.108-15.012c1.113,0.913,2.121,1.949,3.007,3.085
		c-2.332,2.381-4.801,6.241-4.801,11.927C40.831,37.044,42.795,41.471,44.919,44.79z"/>
</g>
</svg>
