<?xml version="1.0" encoding="utf-8"?>
<!-- Generator: Adobe Illustrator 16.0.4, SVG Export Plug-In . SVG Version: 6.00 Build 0)  -->
<!DOCTYPE svg PUBLIC "-//W3C//DTD SVG 1.1//EN" "http://www.w3.org/Graphics/SVG/1.1/DTD/svg11.dtd">
<svg version="1.1" id="Capa_1" xmlns="http://www.w3.org/2000/svg" xmlns:xlink="http://www.w3.org/1999/xlink" x="0px" y="0px"
	 width="841.889px" height="595.281px" viewBox="0 0 841.889 595.281" enable-background="new 0 0 841.889 595.281"
	 xml:space="preserve">
<path d="M645.337,397.545c4.14,12.65-3.283,22.9-16.612,22.9h-107.42c-13.319,0-24.09-10.79-24.09-24.1v-38.154
	c0-13.31-9.441-29.345-21.077-35.81l-39.195-21.774c-11.627-6.455-30.499-6.455-42.125,0l-39.195,21.774
	c-11.627,6.474-21.067,22.5-21.067,35.81v38.154c0,13.31-10.79,24.1-24.1,24.1h-107.42c-13.319,0-20.752-10.25-16.612-22.9
	l53.296-163.022c4.14-12.65,16.668-28.583,27.987-35.587l127.688-79.052c11.311-7.004,29.671-7.004,40.991,0l127.678,79.052
	c11.32,7.004,23.849,22.937,27.979,35.587L645.337,397.545z M148.238,375.759l9.213,46.485l18.237-3.615l-9.212-46.484
	L148.238,375.759z M665.134,372.164l-9.217,46.484l18.237,3.616l9.218-46.484L665.134,372.164z"/>
</svg>
