<?xml version="1.0" encoding="iso-8859-1"?>
<!-- Generator: Adobe Illustrator 17.1.0, SVG Export Plug-In . SVG Version: 6.00 Build 0)  -->
<!DOCTYPE svg PUBLIC "-//W3C//DTD SVG 1.1//EN" "http://www.w3.org/Graphics/SVG/1.1/DTD/svg11.dtd">
<svg version="1.1" id="Capa_1" xmlns="http://www.w3.org/2000/svg" xmlns:xlink="http://www.w3.org/1999/xlink" x="0px" y="0px"
	 viewBox="0 0 64 64" style="enable-background:new 0 0 64 64;" xml:space="preserve">
<g>
	<path d="M56.181,32.651c-1.778-0.326-4.789-0.329-8.377-0.997l0.493,2.955c0.085,0.504-0.257,0.981-0.76,1.064
		c-0.052,0.009-0.103,0.012-0.154,0.012c-0.444,0-0.836-0.319-0.911-0.771l-0.513-3.071c-0.056-0.336-0.369-0.674-0.697-0.762
		c-0.185-0.051-0.371-0.103-0.559-0.157c-0.327-0.094-0.546,0.097-0.49,0.432l0.258,1.549c0.085,0.504-0.257,0.98-0.76,1.065
		c-0.052,0.008-0.103,0.013-0.154,0.013c-0.443,0-0.835-0.319-0.911-0.772l-0.426-2.552c-0.056-0.337-0.358-0.709-0.673-0.841
		c-0.221-0.091-0.442-0.187-0.664-0.287c-0.311-0.139-0.514,0.014-0.457,0.35l0.22,1.319c0.085,0.505-0.256,0.982-0.76,1.065
		c-0.052,0.008-0.102,0.014-0.153,0.014c-0.443,0-0.835-0.321-0.911-0.773l-0.453-2.715c-0.055-0.336-0.339-0.748-0.629-0.925
		c-0.275-0.171-0.552-0.349-0.828-0.533c-0.283-0.188-0.464-0.075-0.408,0.261l0.317,1.902c0.085,0.504-0.256,0.98-0.76,1.063
		c-0.052,0.01-0.103,0.014-0.153,0.014c-0.444,0-0.836-0.32-0.911-0.773l-0.787-4.718c-0.184-0.211-0.354-0.417-0.488-0.596
		c-1.138-1.512-3.412-4.271-5.29-4.935c-1.966-0.694-3.542,0.724-3.881,2.039c-0.169,0.661,0.128,1.759,0.339,2.407
		c0.131,0.402,0.335,0.841,0.652,1.203c0.448,0.513,0.618,1.056,0.098,1.495c-1.216,1.034-3.516,2.784-6.123,3.749
		c-5.139,1.902-6.039-0.719-6.039-0.719s-1.137-3.684-2.958-5.011c-0.55-0.402-1.69-0.546-2.352-0.39
		c-0.235,0.057-0.451,0.145-0.657,0.247c0.406,2.373,2.187,8.1,9.976,11.858c10.103,4.879,30.223,5.852,33.993,5.993
		c0.341,0.013,0.345,0.071,0.01,0.128c-2.456,0.414-11.973,1.824-21.439,0.663C18.416,41.783,7.708,38.434,4.905,29.005
		c-0.058,0.206-0.113,0.399-0.166,0.565c-0.452,1.425-0.871,2.374-0.958,5.472c-0.018,0.681-0.298,1.71-0.538,2.348
		c-0.288,0.762-0.593,1.888-0.633,3.279c-0.04,1.385-0.039,2.568-0.028,3.391c0.009,0.681,0.438,1.609,1.025,1.955
		c0.419,0.249,0.951,0.503,1.561,0.66c0.66,0.171,1.683,0.476,2.333,0.683c0.281,0.09,0.608,0.166,0.972,0.204
		c0.678,0.07,1.471-0.021,1.769-0.004c0.298,0.016,0.539,0.171,0.539,0.347c0,0.176,0.356,0.318,0.796,0.318
		c0.44,0,0.923-0.185,1.079-0.411c0.156-0.227,0.467-0.411,0.694-0.411c0.227,0,0.412,0.185,0.412,0.411
		c0,0.227,0.333,0.411,0.745,0.411c0.412,0,0.86-0.195,1.001-0.438c0.143-0.24,0.431-0.437,0.644-0.437
		c0.212,0,0.511,0.196,0.667,0.437c0.157,0.242,0.583,0.438,0.952,0.438c0.369,0,0.783-0.185,0.925-0.411
		c0.142-0.227,0.475-0.227,0.744,0c0.27,0.227,0.892,0.411,1.388,0.411c0.496,0,0.957-0.149,1.028-0.333
		c0.07-0.185,0.335-0.335,0.591-0.335c0.255,0,0.578,0.149,0.72,0.335c0.142,0.184,0.636,0.252,1.104,0.154
		c0.468-0.1,0.951-0.388,1.079-0.643c0.128-0.255,0.393-0.302,0.592-0.104c0.197,0.2,0.738,0.419,1.207,0.488
		c0.468,0.072,1.032-0.009,1.259-0.18c0.227-0.17,0.595-0.273,0.821-0.232c0.227,0.044,0.411,0.25,0.411,0.463
		c0,0.214,0.392,0.386,0.874,0.386c0.483,0,1.012-0.114,1.183-0.257c0.17-0.142,0.503-0.223,0.744-0.18
		c0.241,0.042,0.437,0.192,0.437,0.334s0.241,0.256,0.539,0.256c0.299,0,0.736-0.092,0.977-0.205
		c0.241-0.114,0.575-0.183,0.745-0.154c0.171,0.028,0.309,0.178,0.309,0.335c0,0.156,0.552,0.282,1.233,0.282h0.103
		c0.682,0,1.233-0.185,1.233-0.411c0-0.227,0.196-0.411,0.436-0.411c0.241,0,0.437,0.185,0.437,0.411
		c0,0.227,0.483,0.411,1.079,0.411c0.596,0,1.286-0.126,1.542-0.282c0.255-0.157,0.635-0.157,0.848,0
		c0.212,0.156,0.926,0.282,1.593,0.282c0.667,0,1.323-0.161,1.465-0.359c0.142-0.198,0.453-0.417,0.693-0.489
		c0.241-0.069,0.529,0.033,0.642,0.231c0.114,0.199,0.747,0.253,1.417,0.124l0.2-0.04c0.668-0.131,1.28-0.456,1.365-0.727
		c0.085-0.269,0.281-0.511,0.437-0.539c0.156-0.028,0.421,0.122,0.591,0.334c0.17,0.213,0.677,0.282,1.13,0.153
		c0.454-0.127,0.88-0.553,0.951-0.95c0.071-0.397,0.37-0.8,0.668-0.898c0.298-0.1,0.539,0.05,0.539,0.334
		c0,0.284,0.517,0.318,1.154,0.079c0.642-0.244,1.159-0.669,1.159-0.953s0.172-0.584,0.385-0.668
		c0.213-0.085,0.489-0.051,0.617,0.076c0.127,0.128,0.507,0.037,0.848-0.205c0.341-0.24,0.663-0.621,0.72-0.847
		c0.057-0.227,0.582-0.694,1.081-1.158c1.03-0.959,2.42-2.844,1.744-5.7C60.729,32.088,59.958,33.346,56.181,32.651z"/>
</g>
</svg>
