<?xml version="1.0" encoding="iso-8859-1"?>
<!-- Generator: Adobe Illustrator 17.1.0, SVG Export Plug-In . SVG Version: 6.00 Build 0)  -->
<!DOCTYPE svg PUBLIC "-//W3C//DTD SVG 1.1//EN" "http://www.w3.org/Graphics/SVG/1.1/DTD/svg11.dtd">
<svg version="1.1" id="Capa_1" xmlns="http://www.w3.org/2000/svg" xmlns:xlink="http://www.w3.org/1999/xlink" x="0px" y="0px"
	 viewBox="0 0 64 64" style="enable-background:new 0 0 64 64;" xml:space="preserve">
<g>
	<path d="M11.892,24.236c-5.191,0-9.415,4.224-9.415,9.415s4.224,9.415,9.415,9.415s9.415-4.224,9.415-9.415
		S17.083,24.236,11.892,24.236z M16.044,38.077l-1.74-1.31c-0.144-0.109-0.45-0.122-0.604-0.024l-2.24,1.413
		c-0.544,0.344-1.362,0.34-1.903-0.012l-2.155-1.397c-0.163-0.106-0.49-0.104-0.65,0.002l-1.173,0.773
		c-0.201-0.326-0.382-0.665-0.531-1.021l1.072-0.708c0.542-0.357,1.361-0.36,1.905-0.008l2.155,1.399
		c0.165,0.106,0.501,0.108,0.668,0.004l2.24-1.415c0.558-0.352,1.377-0.318,1.905,0.079l1.74,1.311
		c0.143,0.108,0.442,0.119,0.594,0.02l1.52-0.986c-0.275,0.75-0.664,1.443-1.153,2.057C17.161,38.472,16.5,38.421,16.044,38.077z
		 M4.477,33.651C4.477,33.651,4.477,33.651,4.477,33.651c1.691-0.606,3.807-1.295,5.45-1.813c-0.011-0.121-0.01-0.241,0.016-0.365
		l1.014-4.77c0.034-0.16,0.106-0.3,0.195-0.429c0.244-0.024,0.49-0.037,0.74-0.037c1.748,0,3.354,0.612,4.623,1.627l-3.363,0.243
		l-0.622,2.93c0.022,0.02,0.284,0.254,0.429,0.37c0.113,0.092,0.227,0.185,0.334,0.282c-0.634,0.676-1.025,1.58-1.025,2.578
		c0,0.318,0.042,0.626,0.117,0.921l-1.679,1.06c-0.021,0.01-0.235,0.01-0.26-0.003l-2.152-1.396
		c-0.649-0.422-1.678-0.418-2.323,0.01l-1.21,0.797C4.58,35.017,4.477,34.347,4.477,33.651z M19.151,34.983l-1.95,1.265
		c0,0-0.025,0.005-0.067,0.005c-0.049,0-0.087-0.011-0.097-0.016l-1.733-1.306c-0.637-0.48-1.662-0.523-2.338-0.096l-0.067,0.041
		c-0.038-0.198-0.06-0.401-0.06-0.61c0-1.765,1.432-3.196,3.197-3.196c1.766,0,3.198,1.432,3.198,3.196
		C19.234,34.514,19.203,34.752,19.151,34.983z"/>
	<path d="M32,24.236c-5.191,0-9.415,4.224-9.415,9.415s4.224,9.415,9.415,9.415s9.415-4.224,9.415-9.415S37.191,24.236,32,24.236z
		 M33.874,30.417l-1.059-1.66l-2.186,2.164l2.026,1.067c0.833,0.4,0.709,1.13,0.709,1.13v4.591c0,0.519-0.421,0.943-0.941,0.943
		c-0.52,0-0.94-0.425-0.94-0.943v-3.674l-3.513-1.952c-0.419-0.232-0.704-0.683-0.704-1.193c0-0.352,0.13-0.672,0.352-0.913
		l3.449-3.456c0.101-0.115,0.211-0.193,0.321-0.253c0.202-0.017,0.405-0.031,0.611-0.031c0.227,0,0.451,0.014,0.673,0.034
		c0.34,0.186,0.52,0.475,0.52,0.475l1.79,2.809l2.722-0.006c0.977,0,0.977,1.274,0,1.274h-3.151
		C34.316,30.828,34.06,30.71,33.874,30.417z M33.31,26.359c0.544,0.098,1.07,0.248,1.566,0.458
		c-0.126,0.031-0.257,0.049-0.393,0.049C34.02,26.866,33.606,26.67,33.31,26.359z M24.585,33.651c0-0.284,0.02-0.563,0.051-0.839
		c0.443-0.149,0.914-0.237,1.407-0.237c2.458,0,4.449,1.988,4.449,4.446c0,1.353-0.607,2.558-1.56,3.372
		C26.372,39.224,24.585,36.645,24.585,33.651z M35.622,40.115c-0.778-0.799-1.26-1.888-1.26-3.094c0-2.458,1.993-4.446,4.448-4.446
		c0.179,0,0.351,0.028,0.524,0.049c0.047,0.336,0.08,0.677,0.08,1.027C39.415,36.424,37.883,38.843,35.622,40.115z"/>
	<path d="M52.23,24.236c-5.191,0-9.415,4.224-9.415,9.415s4.224,9.415,9.415,9.415c5.191,0,9.415-4.224,9.415-9.415
		S57.422,24.236,52.23,24.236z M57.965,32.204c-0.674,0.673-1.217,0.102-1.217,0.102l-1.365-1.371l-2.132,2.466l1.955,1.953
		c0,0,0.41,0.382,0.175,1.142l-0.95,4.237c-0.624,0.194-1.285,0.3-1.967,0.322c0.005-0.032,0.004-0.067,0.013-0.098l0.899-4.005
		l-2.218-2.156l-1.91,2.129c0,0-0.31,0.381-1.129,0.352l-2.348,0.003c-0.323-0.572-0.568-1.193-0.73-1.846l2.542,0.007l4.926-5.709
		l-1.288-0.008l-2.236,2.584c-0.132,0.163-0.334,0.263-0.558,0.263c-0.401,0-0.724-0.323-0.724-0.721
		c0-0.219,0.094-0.411,0.243-0.544l2.41-2.776c0.135-0.159,0.335-0.261,0.559-0.261l3.491-0.001c0.255,0,0.484,0.103,0.653,0.266
		l2.227,2.227l1.153-1.15c0.285,0.437,0.522,0.906,0.711,1.4L57.965,32.204z M57.512,28.455c-0.234,0.121-0.494,0.199-0.776,0.199
		c-0.96,0-1.739-0.779-1.739-1.737c0-0.046,0.02-0.086,0.023-0.132C55.962,27.17,56.809,27.741,57.512,28.455z"/>
</g>
</svg>
