<?xml version="1.0" encoding="iso-8859-1"?>
<!-- Generator: Adobe Illustrator 17.1.0, SVG Export Plug-In . SVG Version: 6.00 Build 0)  -->
<!DOCTYPE svg PUBLIC "-//W3C//DTD SVG 1.1//EN" "http://www.w3.org/Graphics/SVG/1.1/DTD/svg11.dtd">
<svg version="1.1" id="Capa_1" xmlns="http://www.w3.org/2000/svg" xmlns:xlink="http://www.w3.org/1999/xlink" x="0px" y="0px"
	 viewBox="0 0 64 64" style="enable-background:new 0 0 64 64;" xml:space="preserve">
<g>
	<path d="M33.24,4.192c-0.843-1.437-1.986-2.229-3.22-2.229c-1.302,0-2.488,0.905-3.253,2.482L4.632,50.047
		c-0.739,1.522-0.748,2.996-0.027,4.147c0.722,1.152,2.051,1.787,3.744,1.787h48.5c1.709,0,3.01-0.627,3.663-1.767
		c0.653-1.139,0.536-2.578-0.328-4.053L33.24,4.192z M18.996,39.445l1.681,2.637l2.555-0.006c0.918,0,0.918,1.197,0,1.197h-2.958
		c-0.223,0.005-0.463-0.105-0.638-0.382l-0.995-1.559l-2.052,2.033l1.902,1.002c0.782,0.375,0.666,1.061,0.666,1.061v4.311
		c0,0.488-0.395,0.886-0.884,0.886c-0.488,0-0.882-0.399-0.882-0.886V46.29l-3.298-1.834c-0.393-0.218-0.661-0.641-0.661-1.12
		c0-0.329,0.122-0.631,0.33-0.856l3.239-3.245c0.399-0.454,0.961-0.381,0.961-0.381C18.64,38.853,18.996,39.445,18.996,39.445z
		 M18.676,38.029c0-0.844,0.688-1.531,1.532-1.531c0.845,0,1.532,0.688,1.532,1.531c0,0.845-0.687,1.529-1.532,1.529
		C19.364,39.559,18.677,38.874,18.676,38.029z M24.271,44.92c2.302,0,4.173,1.865,4.173,4.174c0,2.308-1.871,4.176-4.173,4.176
		c-2.305,0-4.177-1.866-4.177-4.176C20.095,46.785,21.966,44.92,24.271,44.92z M16.46,49.094c0,2.308-1.869,4.176-4.178,4.176
		c-2.3,0-4.172-1.867-4.172-4.176c0-2.307,1.872-4.174,4.172-4.174C14.59,44.92,16.46,46.785,16.46,49.094z M16.127,30.947
		l1.31-2.699l13.678,6.642l13.228-7.799l1.517,2.588l-13.175,7.769v16.534h-3V37.53L16.127,30.947z M36.188,15.021
		c0.623-0.039,1.158,0.421,1.203,1.04c0.044,0.62-0.421,1.158-1.041,1.203l-5.037,0.364l-0.574,2.702
		c0.021,0.018,0.262,0.234,0.396,0.342c0.104,0.084,0.209,0.171,0.309,0.261c-0.586,0.623-0.946,1.457-0.946,2.378
		c0,0.294,0.039,0.577,0.108,0.85l-1.549,0.979c-0.019,0.01-0.216,0.01-0.24-0.003l-1.985-1.288
		c-0.599-0.39-1.548-0.385-2.143,0.009l-1.941,1.279c-0.006,0-0.137,0-0.153-0.008l-1.804-1.334
		c0.776-0.531,4.862-1.874,7.548-2.725c-0.01-0.11-0.009-0.223,0.015-0.336l0.936-4.401c0.105-0.489,0.52-0.852,1.02-0.888
		L36.188,15.021z M36.924,23.31c0,0.228-0.028,0.448-0.077,0.661l-1.798,1.166c0,0-0.023,0.006-0.062,0.006
		c-0.046,0-0.08-0.01-0.089-0.015l-1.599-1.205c-0.587-0.442-1.533-0.482-2.157-0.089l-0.061,0.039
		c-0.035-0.183-0.056-0.371-0.056-0.563c0-1.629,1.321-2.949,2.95-2.949S36.924,21.682,36.924,23.31z M22.335,25.984
		c0.133,0.099,0.41,0.106,0.549,0.015l1.941-1.281c0.5-0.329,1.255-0.333,1.757-0.007l1.988,1.291
		c0.152,0.098,0.463,0.1,0.617,0.004l2.066-1.306c0.515-0.325,1.271-0.293,1.758,0.073l1.606,1.209
		c0.132,0.1,0.408,0.109,0.547,0.019l1.988-1.289c0.523-0.34,1.279-0.295,1.758,0.105l1.925,1.604
		c0.224,0.187,0.254,0.52,0.067,0.744c-0.105,0.125-0.255,0.19-0.407,0.19c-0.119,0-0.239-0.039-0.338-0.122l-1.925-1.606
		c-0.122-0.102-0.372-0.116-0.505-0.03l-1.988,1.29c-0.514,0.334-1.27,0.307-1.758-0.062l-1.605-1.209
		c-0.133-0.102-0.415-0.113-0.558-0.023l-2.066,1.305c-0.502,0.316-1.256,0.312-1.756-0.011l-1.988-1.29
		c-0.15-0.097-0.452-0.096-0.6,0.003l-1.941,1.279c-0.511,0.338-1.268,0.317-1.76-0.046l-2.215-1.638
		c-0.235-0.174-0.284-0.504-0.111-0.738c0.173-0.235,0.504-0.285,0.739-0.111L22.335,25.984z M45.401,47.102
		c0,0,0.389,0.362,0.167,1.083l-1.039,4.635c-0.082,0.4-0.439,0.704-0.864,0.704c-0.486,0-0.883-0.396-0.883-0.883
		c0-0.078,0.008-0.152,0.029-0.222l0.854-3.801l-2.105-2.047l-1.812,2.022c0,0-0.295,0.359-1.072,0.333l-3.673,0.007
		c-0.411,0.005-0.784-0.273-0.878-0.69c-0.108-0.475,0.187-0.94,0.66-1.047c0.078-0.017,0.152-0.021,0.224-0.02l3.16,0.009
		l4.674-5.419l-1.222-0.007l-2.122,2.452c-0.125,0.154-0.316,0.249-0.53,0.249c-0.381,0-0.686-0.307-0.686-0.685
		c0-0.206,0.089-0.39,0.23-0.516l2.288-2.635c0.128-0.15,0.317-0.247,0.53-0.247l3.313-0.002c0.243,0,0.46,0.099,0.62,0.254
		l2.113,2.111l1.75-1.747c0.121-0.105,0.281-0.166,0.454-0.166c0.393,0,0.71,0.317,0.71,0.709c0,0.171-0.058,0.325-0.158,0.448
		l-2.112,2.126c-0.64,0.639-1.154,0.097-1.154,0.097l-1.295-1.3l-2.024,2.34L45.401,47.102z M45.202,39.095
		c0-0.91,0.74-1.647,1.65-1.647c0.909,0,1.648,0.737,1.648,1.647c0,0.91-0.738,1.65-1.648,1.65
		C45.942,40.745,45.202,40.005,45.202,39.095z"/>
</g>
</svg>
