<?xml version="1.0" encoding="iso-8859-1"?>
<!-- Generator: Adobe Illustrator 17.1.0, SVG Export Plug-In . SVG Version: 6.00 Build 0)  -->
<!DOCTYPE svg PUBLIC "-//W3C//DTD SVG 1.1//EN" "http://www.w3.org/Graphics/SVG/1.1/DTD/svg11.dtd">
<svg version="1.1" id="Capa_1" xmlns="http://www.w3.org/2000/svg" xmlns:xlink="http://www.w3.org/1999/xlink" x="0px" y="0px"
	 viewBox="0 0 64 64" style="enable-background:new 0 0 64 64;" xml:space="preserve">
<g>
	<path d="M9.825,38.862c0.337,0.587,0.904,1.019,1.559,1.186c0.203,0.052,0.407,0.077,0.61,0.077c0.424,0,0.838-0.118,1.21-0.336
		l0.002,0.003c0.154-0.077,3.813-1.916,6.414-5.807c2.163-3.238,7.306-4.34,9.71-4.687l1.466,2.54l-8.539,14.794
		c-0.414,0.718-0.169,1.635,0.549,2.049c0.236,0.136,0.494,0.201,0.749,0.201c0.517,0,1.022-0.27,1.3-0.75l7.673-13.293
		l7.673,13.293c0.277,0.481,0.782,0.75,1.3,0.75c0.255,0,0.513-0.065,0.749-0.201c0.718-0.414,0.963-1.331,0.549-2.049L34.26,31.84
		l1.466-2.541c2.404,0.347,7.547,1.449,9.71,4.687c2.6,3.891,6.259,5.731,6.413,5.807l0.002-0.003
		c0.373,0.218,0.786,0.336,1.21,0.336c0.203,0,0.408-0.025,0.611-0.077c0.653-0.167,1.222-0.599,1.558-1.186l4.367-7.664
		c0.404-0.706,0.325-1.275,0.188-1.627c-0.215-0.546-0.725-0.969-1.438-1.192c-2.119-0.662-4.58-1.669-6.772-4.127l-0.373,0.333
		l0.347-0.361c-0.248-0.238-5.587-5.297-10.345-5.574c-0.12-0.301-0.332-0.567-0.635-0.742c-0.72-0.413-1.636-0.168-2.05,0.549
		l-5.992,10.383l-5.993-10.383c-0.414-0.718-1.332-0.962-2.049-0.549c-0.302,0.174-0.515,0.44-0.635,0.74
		c-4.756,0.273-10.097,5.338-10.346,5.576l0.347,0.361l-0.373-0.333c-2.192,2.458-4.653,3.466-6.771,4.127
		c-0.713,0.223-1.224,0.646-1.438,1.192c-0.139,0.352-0.218,0.921,0.188,1.627L9.825,38.862z M49.699,27.092l-1.939,3.359
		c0.957,1.809,2.244,3.289,3.602,4.467L53.3,31.56c-1.319-1.209-2.562-2.691-3.538-4.478l1.182-2.048
		c1.377,1.509,2.838,2.494,4.261,3.189l-1.914,3.313c1.443,1.005,2.811,1.696,3.759,2.115l-1.85,3.246
		c-0.855-0.338-2.265-0.969-3.859-1.971l-1.394,2.416c-1.152-0.903-2.533-2.2-3.678-3.912c-0.045-0.067-0.098-0.126-0.145-0.191
		l1.615-2.796c-0.008-0.022-0.018-0.042-0.025-0.063c-0.787-2.337-2.787-3.677-5.137-4.429l1.396-2.416
		C46.229,24.174,48.312,25.271,49.699,27.092z M41.119,19.956c0.057-0.099,0.1-0.203,0.131-0.308
		c1.369,0.102,2.817,0.648,4.166,1.364l-1.393,2.412c-1.721-0.147-3.088-0.844-4.228-1.174L41.119,19.956z M38.203,25.009
		c1.27,0.262,2.557,0.89,4.148,1.165l-1.869,3.239c-1.566-0.557-3.095-0.875-4.215-1.051L38.203,25.009z M26.854,25.009l1.936,3.352
		c-1.12,0.176-2.648,0.494-4.215,1.051l-1.87-3.238C24.296,25.899,25.584,25.271,26.854,25.009z M23.806,19.649
		c0.032,0.105,0.074,0.208,0.132,0.308l1.324,2.294c-1.141,0.331-2.508,1.028-4.229,1.174l-1.393-2.412
		C20.989,20.296,22.438,19.75,23.806,19.649z M9.852,28.224c1.423-0.695,2.883-1.68,4.26-3.189l1.182,2.048
		c-0.975,1.786-2.219,3.268-3.537,4.478l1.939,3.358c1.357-1.178,2.644-2.658,3.602-4.467l-1.94-3.359
		c1.388-1.821,3.471-2.918,5.728-3.557l1.396,2.416c-2.349,0.751-4.349,2.091-5.136,4.429c-0.008,0.022-0.019,0.042-0.026,0.063
		l1.615,2.796c-0.046,0.065-0.1,0.125-0.145,0.191c-1.144,1.712-2.524,3.009-3.678,3.912l-1.395-2.416
		c-1.595,1.002-3.004,1.633-3.859,1.972l-1.85-3.247c0.948-0.418,2.315-1.109,3.759-2.115L9.852,28.224z"/>
</g>
</svg>
