<?xml version="1.0" encoding="iso-8859-1"?>
<!-- Generator: Adobe Illustrator 17.1.0, SVG Export Plug-In . SVG Version: 6.00 Build 0)  -->
<!DOCTYPE svg PUBLIC "-//W3C//DTD SVG 1.1//EN" "http://www.w3.org/Graphics/SVG/1.1/DTD/svg11.dtd">
<svg version="1.1" id="Capa_1" xmlns="http://www.w3.org/2000/svg" xmlns:xlink="http://www.w3.org/1999/xlink" x="0px" y="0px"
	 viewBox="0 0 64 64" style="enable-background:new 0 0 64 64;" xml:space="preserve">
<g>
	<path d="M34.021,19.735c-0.965,0-1.843,0.607-2.184,1.513l-3.655,9.695l-8.278,5.329c-0.524,0.337-0.886,0.858-1.018,1.468
		c-0.132,0.61-0.019,1.234,0.319,1.759c0.431,0.67,1.166,1.07,1.964,1.07c0.448,0,0.884-0.129,1.262-0.372l8.926-5.746
		c0.425-0.274,0.744-0.668,0.921-1.141l3.927-10.417c0.22-0.583,0.2-1.217-0.057-1.785c-0.257-0.567-0.72-1.001-1.303-1.222
		C34.58,19.786,34.302,19.735,34.021,19.735z"/>
	<circle cx="29.53" cy="10.744" r="6.567"/>
	<path d="M56.808,51.458l-3.449,0.272c-5.961,0.376-10.769,0.149-14.449-0.271h10.615c1.433,0,2.594-1.161,2.594-2.594
		c0-1.433-1.161-2.594-2.594-2.594H35.169l-6.825-1.96l3.727-1.141c1.194-0.365,2.053-1.408,2.185-2.649l1.282-12.116l-1.986,5.268
		c-0.276,0.733-0.771,1.347-1.432,1.771l-8.927,5.748c-0.587,0.378-1.266,0.577-1.963,0.577c-0.911,0-1.764-0.34-2.421-0.93
		c0,0,0,0-0.001,0.001c-0.041-0.038-0.082-0.079-0.125-0.124l0.003-0.001c-0.188-0.184-0.365-0.383-0.512-0.61
		c-0.39-0.605-0.586-1.297-0.577-2.001c0.006-0.071,0.009-0.142,0.021-0.213c0.004-0.062,0.014-0.125,0.022-0.188
		c0.193-0.872,0.712-1.62,1.465-2.104l6.921-4.869l1.154-0.743l3.504-9.294c0.252-0.672,0.7-1.233,1.258-1.643l-5.327-0.168
		c-1.718-0.055-3.341,1.275-3.625,2.972l-0.83,4.954c-0.71-0.236-1.477-0.371-2.295-0.371c-2.693,0-5.004,1.622-6.018,3.94h-1.078
		c-0.27,0-0.536,0.053-0.786,0.155l-5.975,2.444c-1.061,0.434-1.569,1.646-1.135,2.706c0.329,0.804,1.104,1.29,1.921,1.29
		c0.262,0,0.528-0.051,0.785-0.156l5.598-2.29h0.318c0.08,0.336,0.185,0.66,0.315,0.974l-2.41,0.59
		c-1.667,0.408-2.689,2.09-2.285,3.757l3.112,12.839c0.346,1.424,1.619,2.38,3.022,2.38c0.243,0,0.489-0.029,0.736-0.089
		c1.67-0.405,2.697-2.088,2.292-3.759l-2.381-9.819l0.482-0.118l1.164,1.1c-0.269,0.713-0.284,1.498-0.007,2.214l4.841,12.542
		c0.477,1.235,1.655,1.993,2.904,1.993c0.372,0,0.751-0.067,1.12-0.21c1.603-0.619,2.402-2.42,1.783-4.024l-0.201-0.521
		c0.002,0.001,0.002,0.001,0.004,0.002c0.305,0.128,6.698,2.732,19.409,2.732c1.959,0,4.07-0.061,6.331-0.204l3.49-0.275
		c1.428-0.113,2.495-1.362,2.381-2.791C59.485,52.411,58.239,51.352,56.808,51.458z"/>
</g>
</svg>
