<?xml version="1.0" encoding="iso-8859-1"?>
<!-- Generator: Adobe Illustrator 17.1.0, SVG Export Plug-In . SVG Version: 6.00 Build 0)  -->
<!DOCTYPE svg PUBLIC "-//W3C//DTD SVG 1.1//EN" "http://www.w3.org/Graphics/SVG/1.1/DTD/svg11.dtd">
<svg version="1.1" id="Capa_1" xmlns="http://www.w3.org/2000/svg" xmlns:xlink="http://www.w3.org/1999/xlink" x="0px" y="0px"
	 viewBox="0 0 64 64" style="enable-background:new 0 0 64 64;" xml:space="preserve">
<g>
	<path d="M55.604,49.882c0.569,0,1.113,0.181,1.602,0.516c0.611-1.331,0.961-2.805,0.961-4.362V21.031c0-5.791-4.71-10.5-10.5-10.5
		H17.333c-0.448,0-0.887,0.038-1.321,0.093c-0.052,0.124-0.105,0.248-0.169,0.371l-0.066,0.115l-2.775,4.361
		c-0.689,1.287-1.742,2.023-2.898,2.023c-0.818,0-1.581-0.375-2.204-1.046c-0.676,1.387-1.067,2.938-1.067,4.582v25.004
		c0,5.789,4.71,10.5,10.5,10.5h30.333c0.774,0,1.526-0.09,2.253-0.25l0.011-0.019l2.775-4.361
		C53.394,50.618,54.447,49.882,55.604,49.882z M47.667,51.535H17.333c-3.033,0-5.5-2.469-5.5-5.5V21.031c0-3.033,2.467-5.5,5.5-5.5
		h30.333c3.033,0,5.5,2.467,5.5,5.5v25.004C53.167,49.066,50.699,51.535,47.667,51.535z"/>
	<path d="M11.579,15.248l2.808-4.413c0.883-1.703,0.044-3.084-1.875-3.084H7.446c-1.919,0-2.758,1.381-1.875,3.084l2.808,4.413
		C9.263,16.951,10.695,16.951,11.579,15.248z M8.833,10.754c0-0.276,0.224-0.5,0.5-0.5h1.3V9.5l2.159,1.247l-2.159,1.246v-0.739
		h-0.8v2.268c0,0.276-0.224,0.5-0.5,0.5c-0.276,0-0.5-0.224-0.5-0.5V10.754z"/>
	<path d="M57.235,52.674c-0.884-1.703-2.316-1.703-3.199,0l-2.808,4.413c-0.883,1.703-0.044,3.084,1.875,3.084h5.066
		c1.918,0,2.758-1.381,1.874-3.084L57.235,52.674z M56.781,57.168c0,0.276-0.224,0.5-0.5,0.5h-1.3v0.754l-2.159-1.247l2.159-1.246
		v0.739h0.8V54.4c0-0.276,0.224-0.5,0.5-0.5c0.276,0,0.5,0.224,0.5,0.5V57.168z"/>
</g>
</svg>
