<?xml version="1.0" encoding="iso-8859-1"?>
<!-- Generator: Adobe Illustrator 17.1.0, SVG Export Plug-In . SVG Version: 6.00 Build 0)  -->
<!DOCTYPE svg PUBLIC "-//W3C//DTD SVG 1.1//EN" "http://www.w3.org/Graphics/SVG/1.1/DTD/svg11.dtd">
<svg version="1.1" id="Capa_1" xmlns="http://www.w3.org/2000/svg" xmlns:xlink="http://www.w3.org/1999/xlink" x="0px" y="0px"
	 viewBox="0 0 64 64" style="enable-background:new 0 0 64 64;" xml:space="preserve">
<g>
	<path d="M32.295,58.59c14.914,0,27.047-12.133,27.047-27.046c0-14.913-12.133-27.046-27.047-27.046
		C17.382,4.498,5.25,16.631,5.25,31.544C5.25,46.457,17.382,58.59,32.295,58.59z M8.888,37.026c0.471,0.34,0.984,0.638,1.491,0.929
		l0.156,0.09c4.016,2.295,9.133,3.508,14.799,3.508c1.812,0,3.674-0.124,5.529-0.367c1.487-0.195,3.039-0.512,4.746-0.973
		c0.161-0.043,0.336-0.084,0.518-0.126c0.502-0.117,1.07-0.25,1.439-0.475c0.023-0.004,0.016-0.056-0.057-0.211
		c-0.224-0.434-0.467-0.868-0.711-1.304l-0.102-0.181c-0.893-1.588-1.875-3.04-2.916-4.315l-0.224-0.282
		c-0.38-0.488-0.774-0.991-1.244-1.247c-0.186-0.102-0.69,0.019-1.095,0.135c-0.195,0.057-0.381,0.108-0.539,0.137
		c-0.61,0.111-1.219,0.236-1.828,0.362c-1.084,0.224-2.207,0.455-3.334,0.599c-1.375,0.173-2.604,0.312-3.867,0.258
		c-2.496-0.103-5.119-0.776-8.255-2.119c-1.367-0.599-2.689-1.438-4.042-2.565c-0.086-0.072-0.205-0.201-0.338-0.349
		c-0.113-0.126-0.345-0.381-0.506-0.502c0.323-2.2,0.949-4.302,1.828-6.267c-0.167,0.686-0.324,1.377-0.453,2.073
		c-0.037,0.191-0.089,0.402-0.145,0.623c-0.146,0.599-0.329,1.344-0.215,1.817c0.217,0.912,1.142,1.561,1.957,2.133
		c0.094,0.062,0.164,0.116,0.24,0.176c0.105,0.081,0.35,0.268,0.457,0.293c0.111-0.112,0.235-0.789,0.276-1.013
		c0.024-0.132,0.046-0.246,0.067-0.326c0.391-1.568,1.016-3.274,1.856-5.067c0.19-0.401,0.373-0.802,0.558-1.204
		c0.775-1.683,1.577-3.424,2.598-5.041c1.38-2.205,3.136-4.328,5.691-6.884c0.038-0.039,0.08-0.073,0.119-0.111
		c1.26-0.507,2.57-0.913,3.924-1.202c-0.282,0.24-0.561,0.485-0.837,0.73c-0.234,0.208-0.465,0.414-0.693,0.61
		c-4.194,3.587-7.436,8.184-9.91,14.054c-0.621,1.47-1.325,3.136-1.721,4.836c-0.037,0.157-0.101,0.34-0.17,0.532
		c-0.102,0.286-0.243,0.679-0.21,0.874c0.021,0.111,0.349,0.287,0.973,0.516c0.14,0.051,0.267,0.098,0.362,0.142
		c1.205,0.54,2.57,0.942,4.059,1.197c0.135,0.021,0.285,0.055,0.439,0.087c0.332,0.074,0.673,0.152,0.942,0.116
		c0.064-0.038,0.125-0.252,0.154-0.355l0.051-0.168c0.275-0.813,0.543-1.636,0.803-2.454c0.23-0.718,0.516-1.418,0.789-2.094
		c0.137-0.338,0.273-0.674,0.404-1.013c0.967-2.535,1.843-4.657,2.969-6.771c2.225-4.134,5.221-7.601,8.668-10.027
		c0.567-0.4,1.109-0.751,1.635-1.063c0.912,0.141,1.805,0.338,2.681,0.579c-1.429,0.553-2.696,1.394-3.735,2.158
		c-5.022,3.675-7.925,8.946-9.475,12.72c-0.875,2.122-1.865,4.526-2.59,6.9c-0.062,0.211-0.152,0.441-0.245,0.676
		c-0.15,0.379-0.306,0.771-0.323,1.098c0.107-0.038,0.186-0.038,0.271-0.037c0.559,0,1.15-0.092,1.723-0.182
		c0.233-0.037,0.465-0.073,0.691-0.102l0.322-0.044c1.435-0.194,2.79-0.377,4.174-0.693c0.2-0.044,0.441-0.074,0.699-0.106
		c0.549-0.067,1.231-0.151,1.506-0.406c0.154-0.145,0.258-0.53,0.341-0.84c0.052-0.193,0.103-0.38,0.163-0.536l0.209-0.536
		c0.402-1.039,0.82-2.115,1.298-3.151c1.393-3.036,3.337-5.845,5.774-8.347c1.569-1.612,3.549-2.996,5.432-3.798
		c0.648-0.273,1.255-0.478,1.857-0.626l0.131-0.03c0.009-0.002,0.021-0.005,0.031-0.007c1.151,0.884,2.224,1.867,3.198,2.941
		c-0.452-0.317-0.895-0.609-1.319-0.863l-0.133-0.081c-0.315-0.193-0.641-0.393-0.939-0.393c-0.852,0.117-1.683,0.461-2.241,0.71
		l-0.127,0.056c-0.084,0.035-0.241,0.102-0.277,0.147c0.048,0.063,0.418,0.391,0.575,0.531c0.121,0.107,0.229,0.204,0.299,0.281
		c1.006,1.1,1.888,2.16,2.697,3.24l0.073,0.098c1.355,1.797,2.758,3.655,3.912,5.646c1.078,1.847,2.059,4.069,2.915,6.604
		c0.292,0.862,0.499,1.763,0.664,2.686c-0.182,1.732-0.552,3.407-1.083,5.01c-0.043-0.677-0.11-1.388-0.209-2.177
		c-0.191-1.548-0.436-3.193-0.914-4.736c-1.266-4.129-3.558-7.724-5.412-10.395c-1.311-1.883-2.567-3.449-3.838-4.786
		c-0.067-0.071-0.152-0.169-0.246-0.279c-0.217-0.252-0.723-0.843-0.969-0.843c-0.275,0.074-0.609,0.353-0.904,0.599
		c-0.109,0.09-0.213,0.177-0.312,0.251c-1.032,0.794-1.967,1.719-3.121,3.092c-0.075,0.086-0.175,0.187-0.288,0.301
		c-0.186,0.185-0.749,0.75-0.731,0.95c0.041,0.204,0.523,0.611,0.781,0.83c0.15,0.126,0.286,0.242,0.385,0.341
		c1.129,1.127,2.179,2.276,3.121,3.416c2.778,3.398,5.808,7.506,7.219,12.223c0.913,3.052,1.424,5.725,1.56,8.173l0.012,0.259
		c-0.475,0.609-0.978,1.194-1.509,1.754c0.009-0.732-0.089-1.509-0.183-2.234c-0.031-0.24-0.061-0.473-0.086-0.694
		c-0.51-4.581-1.782-8.622-3.781-12.01c-0.812-1.384-1.762-2.709-2.588-3.842c-1.435-1.969-3.022-3.77-4.524-5.421
		c-0.425-0.472-0.808-0.86-1.173-1.189c-0.111-0.098-0.207-0.183-0.247-0.196c0.019,0.008-0.074,0.16-0.114,0.225l-0.818,1.366
		c-0.742,1.24-1.279,2.621-1.799,3.957l-0.334,0.854c-0.058,0.15-0.141,0.327-0.231,0.515c-0.201,0.424-0.451,0.953-0.402,1.27
		c0.032,0.197,0.33,0.46,0.57,0.673c0.147,0.13,0.287,0.256,0.393,0.375c0.824,0.91,1.588,1.909,2.203,2.883
		c2.043,3.252,4.275,7.154,5.342,11.44c0.447,1.781,0.612,3.648,0.466,5.255c-0.05,0.594-0.157,1.167-0.325,1.747
		c-0.014,0.05-0.035,0.115-0.058,0.181c-0.028,0.083-0.081,0.236-0.07,0.286c0.007,0.003,0.039,0.009,0.066,0.015
		c-2.506,1.118-5.234,1.818-8.102,2.015c1.192-0.336,2.318-0.751,3.298-1.144c0.331-0.13,0.675-0.245,1.021-0.36
		c0.651-0.217,1.327-0.442,1.88-0.785c0.164-0.101,0.225-0.276,0.318-0.577c0.214-0.719,0.314-1.386,0.314-2.034l0.001-0.13
		c0.003-0.115,0.011-0.421-0.047-0.49c-0.045,0.01-0.147,0.039-0.229,0.062l-0.129,0.035c-0.245,0.062-0.494,0.121-0.743,0.179
		l-0.55,0.131c-1.58,0.396-3.133,0.696-4.613,0.89c-4.256,0.559-8.929,0.436-13.404-0.349c-1.584-0.277-2.973-0.609-4.226-1.003
		c-1-0.841-1.929-1.763-2.781-2.753c4.216,1.815,9.198,2.772,14.539,2.772c1.731,0,3.497-0.101,5.249-0.299
		c1.607-0.187,3.162-0.525,4.885-0.916c0.16-0.036,0.352-0.068,0.555-0.101c0.473-0.077,1.059-0.172,1.32-0.364
		c0.066-0.062,0.101-0.317-0.107-1.177c-0.024-0.096-0.043-0.181-0.059-0.252c-0.358-1.58-0.977-3.129-1.527-4.457
		c-0.041-0.095-0.08-0.212-0.123-0.339c-0.09-0.267-0.279-0.822-0.463-0.883c-0.068,0-0.183,0.04-0.273,0.073
		c-0.064,0.023-0.127,0.046-0.186,0.063l-0.108,0.034c-0.488,0.154-0.978,0.308-1.471,0.449c-1.594,0.465-3.365,0.824-5.412,1.099
		c-1.791,0.24-3.609,0.361-5.404,0.361c-3.736,0-7.258-0.512-10.465-1.52c-1.934-0.608-3.752-1.375-5.416-2.273
		C9.319,38.672,9.083,37.857,8.888,37.026z"/>
</g>
</svg>
