<?xml version="1.0" encoding="iso-8859-1"?>
<!-- Generator: Adobe Illustrator 17.1.0, SVG Export Plug-In . SVG Version: 6.00 Build 0)  -->
<!DOCTYPE svg PUBLIC "-//W3C//DTD SVG 1.1//EN" "http://www.w3.org/Graphics/SVG/1.1/DTD/svg11.dtd">
<svg version="1.1" id="Capa_1" xmlns="http://www.w3.org/2000/svg" xmlns:xlink="http://www.w3.org/1999/xlink" x="0px" y="0px"
	 viewBox="0 0 64 64" style="enable-background:new 0 0 64 64;" xml:space="preserve">
<g>
	<path d="M5.66,54.549c0.875,0,1.586-0.71,1.586-1.587V40.504h47.762c0.098,0,0.185-0.034,0.264-0.081v12.539
		c0,0.877,0.711,1.587,1.588,1.587c0.877,0,1.588-0.71,1.588-1.587V14.968c0-0.877-0.711-1.587-1.588-1.587H5.66
		c-0.877,0-1.588,0.71-1.588,1.587v37.994C4.072,53.839,4.783,54.549,5.66,54.549z M51.096,16.556h4.176v6.857
		c-0.079-0.046-0.166-0.081-0.264-0.081h-3.912V16.556z M51.096,24.391h3.912c0.098,0,0.185-0.034,0.264-0.081v6.512
		c-0.079-0.046-0.166-0.081-0.264-0.081h-3.912V24.391z M51.096,39.375v-7.576h3.912c0.098,0,0.185-0.034,0.264-0.08v7.807
		c-0.079-0.046-0.166-0.081-0.264-0.081h-3.926C51.085,39.421,51.096,39.4,51.096,39.375z M43.424,16.556h6.613v6.777h-6.613V16.556
		z M43.424,24.391h6.613v6.351h-6.613V24.391z M43.424,39.375v-7.576h6.613v7.576c0,0.025,0.011,0.046,0.014,0.07H43.41
		C43.413,39.421,43.424,39.4,43.424,39.375z M35.75,16.556h6.615v6.777H35.75V16.556z M35.75,24.391h6.615v6.351H35.75V24.391z
		 M35.75,39.375v-7.576h6.615v7.576c0,0.025,0.011,0.046,0.014,0.07h-6.643C35.739,39.421,35.75,39.4,35.75,39.375z M28.076,16.556
		h6.615v6.777h-6.615V16.556z M28.076,24.391h6.615v6.351h-6.615V24.391z M28.076,39.375v-7.576h6.615v7.576
		c0,0.025,0.011,0.046,0.014,0.07h-6.643C28.065,39.421,28.076,39.4,28.076,39.375z M20.402,16.556h6.615v6.777h-6.615V16.556z
		 M20.402,24.391h6.615v6.351h-6.615V24.391z M20.402,39.375v-7.576h6.615v7.576c0,0.025,0.011,0.046,0.014,0.07h-6.643
		C20.392,39.421,20.402,39.4,20.402,39.375z M12.729,16.556h6.615v6.777h-6.615V16.556z M12.729,24.391h6.615v6.351h-6.615V24.391z
		 M12.729,39.375v-7.576h6.615v7.576c0,0.025,0.011,0.046,0.014,0.07h-6.643C12.718,39.421,12.729,39.4,12.729,39.375z
		 M7.246,16.556h4.426v6.777H7.246V16.556z M7.246,24.391h4.426v6.351H7.246V24.391z M7.246,31.799h4.426v7.576
		c0,0.025,0.011,0.046,0.014,0.07H7.246V31.799z"/>
</g>
</svg>
