<?xml version="1.0" encoding="iso-8859-1"?>
<!-- Generator: Adobe Illustrator 17.1.0, SVG Export Plug-In . SVG Version: 6.00 Build 0)  -->
<!DOCTYPE svg PUBLIC "-//W3C//DTD SVG 1.1//EN" "http://www.w3.org/Graphics/SVG/1.1/DTD/svg11.dtd">
<svg version="1.1" id="Capa_1" xmlns="http://www.w3.org/2000/svg" xmlns:xlink="http://www.w3.org/1999/xlink" x="0px" y="0px"
	 viewBox="0 0 64 64" style="enable-background:new 0 0 64 64;" xml:space="preserve">
<g>
	<path d="M4.723,54.549c0.875,0,1.586-0.71,1.586-1.587V40.504H54.07c0.098,0,0.186-0.034,0.264-0.081v12.539
		c0,0.877,0.711,1.587,1.588,1.587c0.877,0,1.588-0.71,1.588-1.587V14.968c0-0.877-0.711-1.587-1.588-1.587H4.723
		c-0.877,0-1.588,0.71-1.588,1.587v37.994C3.135,53.839,3.846,54.549,4.723,54.549z M50.158,16.556h4.176v6.858
		c-0.078-0.047-0.166-0.081-0.264-0.081h-3.912V16.556z M50.158,24.391h3.912c0.098,0,0.186-0.034,0.264-0.081v6.513
		c-0.078-0.047-0.166-0.081-0.264-0.081h-3.912V24.391z M50.158,39.375v-7.576h3.912c0.098,0,0.186-0.034,0.264-0.081v7.808
		c-0.078-0.047-0.166-0.081-0.264-0.081h-3.926C50.148,39.421,50.158,39.4,50.158,39.375z M42.486,16.556H49.1v6.777h-6.613V16.556z
		 M42.486,24.391H49.1v6.351h-6.613V24.391z M42.486,39.375v-7.576H49.1v7.576c0,0.025,0.012,0.046,0.014,0.07h-6.641
		C42.475,39.421,42.486,39.4,42.486,39.375z M19.465,39.375v-7.576h3.567c-0.244-0.351-0.49-0.664-0.625-0.795l-0.268-0.263h-2.674
		v-6.351h5.256l-0.254-1.058h-5.002v-6.777h6.615v1.021c0.369,0.007,0.73,0.103,1.059,0.273v-1.294h2.504
		c0.234-0.085,0.484-0.139,0.746-0.139h0.361c0.264,0,0.516,0.052,0.752,0.139h2.252v1.043c0.314-0.206,0.68-0.329,1.059-0.361
		v-0.683h6.615v6.777h-0.797c-0.049,0.202-0.117,0.4-0.223,0.586l-0.272,0.473h1.291v6.351h-3.85
		c-0.035,0.34-0.086,0.695-0.148,1.058h3.998v7.576c0,0.025,0.01,0.046,0.014,0.07h-6.643c0.002-0.024,0.014-0.045,0.014-0.07
		v-1.454c-0.269,0.319-0.606,0.581-0.986,0.729c-0.021,0.008-0.051,0.017-0.072,0.025v0.701c0,0.025,0.01,0.046,0.014,0.07h-6.643
		c0.002-0.024,0.014-0.045,0.014-0.07v-2.148c-0.1-0.268-0.158-0.551-0.158-0.841v-0.361c0.004,0.017-0.043-0.066-0.068-0.098
		c-0.234-0.207-0.522-0.464-0.832-0.754v4.201c0,0.025,0.012,0.046,0.014,0.07h-6.643C19.455,39.421,19.465,39.4,19.465,39.375z
		 M11.791,16.556h6.615v6.777h-6.615V16.556z M11.791,24.391h6.615v6.351h-6.615V24.391z M11.791,39.375v-7.576h6.615v7.576
		c0,0.025,0.012,0.046,0.014,0.07h-6.643C11.781,39.421,11.791,39.4,11.791,39.375z M6.309,16.556h4.426v6.777H6.309V16.556z
		 M6.309,24.391h4.426v6.351H6.309V24.391z M6.309,31.799h4.426v7.576c0,0.025,0.01,0.046,0.014,0.07H6.309V31.799z"/>
	<path d="M27.932,34.833c0.299,0.264,0.547,0.794,0.547,1.193v0.361c0,0.398,0.303,0.834,0.688,0.938
		c0.531,0.143,1.316,0.304,2.152,0.304c0.803,0,1.494-0.196,1.963-0.378c0.373-0.144,0.658-0.625,0.666-1.015
		c0.01-0.39,0.283-0.893,0.549-1.189c1.467-1.622,1.666-4.633,1.676-6.01c0.002-0.398,0.146-1.001,0.344-1.347l2.59-4.519
		c0.197-0.346,0.1-0.82-0.219-1.059l-0.131-0.098c-0.318-0.239-0.758-0.166-0.982,0.163l-2.863,4.19
		c-0.225,0.329-0.473,0.541-0.557,0.475c-0.082-0.066-0.066-0.432,0.035-0.817l1.645-6.209c0.102-0.385-0.121-0.805-0.496-0.939
		l-0.334-0.119c-0.375-0.133-0.781,0.065-0.908,0.443l-2.027,6.086c-0.125,0.378-0.309,0.664-0.408,0.639s-0.19-0.368-0.199-0.766
		l-0.172-6.523c-0.012-0.398-0.342-0.721-0.74-0.721h-0.361c-0.398,0-0.728,0.323-0.738,0.721L29.5,25.161
		c-0.008,0.398-0.068,0.714-0.135,0.706s-0.236-0.316-0.381-0.688l-2.156-5.597c-0.143-0.372-0.572-0.593-0.959-0.495l-0.135,0.034
		c-0.385,0.099-0.623,0.492-0.529,0.879l1.615,6.713c0.094,0.387,0.045,1-0.059,1.385c-0.025,0.09-0.047,0.177-0.066,0.26
		c-0.09,0.388-0.43,0.601-0.807,0.467l-0.406-0.146c-0.375-0.134-0.84-0.525-1.094-0.832c-1.027-1.241-2.066-0.981-2.688-0.628
		c-0.346,0.197-0.342,0.662-0.057,0.94l1.809,1.771c0.285,0.279,0.662,0.794,0.887,1.123C25.268,32.408,27.039,34.044,27.932,34.833
		z"/>
</g>
</svg>
