<?xml version="1.0" encoding="iso-8859-1"?>
<!-- Generator: Adobe Illustrator 17.1.0, SVG Export Plug-In . SVG Version: 6.00 Build 0)  -->
<!DOCTYPE svg PUBLIC "-//W3C//DTD SVG 1.1//EN" "http://www.w3.org/Graphics/SVG/1.1/DTD/svg11.dtd">
<svg version="1.1" id="Capa_1" xmlns="http://www.w3.org/2000/svg" xmlns:xlink="http://www.w3.org/1999/xlink" x="0px" y="0px"
	 viewBox="0 0 64 64" style="enable-background:new 0 0 64 64;" xml:space="preserve">
<g>
	<path d="M31.109,17.511c2.908-1.035,4.4-4.233,3.373-7.109c-1.047-2.897-4.228-4.415-7.131-3.365
		c-2.902,1.021-4.391,4.229-3.369,7.13C25.021,17.04,28.215,18.556,31.109,17.511z"/>
	<path d="M8.482,37.715c0.141,0.28,0.223,0.516,0.383,0.698c0.246,0.461,0.562,0.882,0.922,1.246
		c0.088,0.072,0.17,0.123,0.258,0.195l4.758,5.781L10.23,55.75c-0.795,1.75-0.021,3.807,1.754,4.605
		c1.738,0.797,3.807,0.021,4.588-1.739l5.477-12.07c0.072-0.182,0.066-0.341,0.117-0.508c0.076-0.251,0.156-0.481,0.166-0.729
		c0.002-0.233-0.031-0.447-0.064-0.672c-0.031-0.214-0.043-0.445-0.115-0.646c-0.084-0.236-0.229-0.443-0.346-0.67
		c2.154,0.866,4.203,1.725,5.19,2.131c0.631,2.694,3.016,12.935,3.019,12.957c0.465,1.842,2.291,2.978,4.166,2.553
		c1.865-0.46,3.039-2.318,2.615-4.191L33.373,42.12c-0.258-1.101-1.01-2.008-2.074-2.439l-9.406-3.887l1.767-1.816l19.479,3.588
		c0.185,0.034,0.367,0.05,0.548,0.05c1.28,0,2.425-0.828,2.833-2.051c0.099-0.106,0.195-0.213,0.278-0.337
		c0.85-1.262,0.508-2.948-0.738-3.776l-19.131-12.79c-1.51-1.01-3.779-0.787-5.064,0.499L9.73,31.292
		c-1.428,1.456-1.967,3.48-1.59,5.342C8.188,37.009,8.305,37.375,8.482,37.715z M30.143,27.314l3.605,2.422l-5.056-0.931
		L30.143,27.314z"/>
	<circle cx="47.723" cy="22.878" r="4.895"/>
</g>
</svg>
