<?xml version="1.0" encoding="iso-8859-1"?>
<!-- Generator: Adobe Illustrator 17.1.0, SVG Export Plug-In . SVG Version: 6.00 Build 0)  -->
<!DOCTYPE svg PUBLIC "-//W3C//DTD SVG 1.1//EN" "http://www.w3.org/Graphics/SVG/1.1/DTD/svg11.dtd">
<svg version="1.1" id="Capa_1" xmlns="http://www.w3.org/2000/svg" xmlns:xlink="http://www.w3.org/1999/xlink" x="0px" y="0px"
	 viewBox="0 0 64 64" style="enable-background:new 0 0 64 64;" xml:space="preserve">
<g>
	<circle cx="29.673" cy="25.223" r="6.815"/>
	<circle cx="15.962" cy="9.663" r="5.315"/>
	<path d="M6.685,32.26c-0.15,0.532,0.146,1.126,0.66,1.327l11.768,4.604c0.514,0.201,1.007,0.806,1.102,1.35l2.134,12.361
		l1.31-0.986c1.752-1.317,4.537-1.434,6.391-0.266l5.439,3.435c0.044,0.006,0.137,0.004,0.179-0.001l4.363-2.832l-2.039-6.119
		c-0.175-0.523,0.106-0.798,0.626-0.613l11.883,4.108c1.565,0.542,3.51-0.181,4.341-1.614l0.187-0.319
		c0.831-1.434,0.242-3.05-1.316-3.611L15.356,29.265c-0.52-0.188-0.822-0.771-0.676-1.303l2.114-7.696
		c0.438-1.598-0.509-3.218-2.116-3.619l-0.35-0.087c-1.607-0.401-3.282,0.564-3.741,2.156L6.685,32.26z"/>
	<path d="M58.756,52.641l-5.91,4.367c-0.354,0.262-1.094,0.284-1.465,0.038l-5.178-3.414c-1.332-0.88-3.348-0.89-4.686-0.019
		l-5.303,3.441c-0.408,0.262-1.236,0.268-1.646,0.01l-5.511-3.48c-1.375-0.866-3.39-0.783-4.689,0.194l-4.28,3.224
		c-0.354,0.268-1.089,0.293-1.461,0.051l-5.302-3.439c-1.394-0.907-3.411-0.786-4.688,0.28l-5.133,4.281
		c-0.598,0.498-0.678,1.386-0.181,1.984c0.28,0.334,0.681,0.507,1.084,0.507c0.318,0,0.639-0.108,0.901-0.327l5.134-4.281
		c0.325-0.273,0.991-0.312,1.348-0.081l5.303,3.439c1.371,0.891,3.388,0.818,4.69-0.164l4.281-3.224
		c0.357-0.271,1.108-0.303,1.487-0.062l5.511,3.48c1.341,0.845,3.353,0.833,4.685-0.029l5.303-3.441
		c0.4-0.258,1.205-0.254,1.6,0.008l5.178,3.413c1.361,0.901,3.381,0.848,4.693-0.122l5.91-4.368
		c0.625-0.463,0.756-1.346,0.295-1.971C60.264,52.309,59.381,52.177,58.756,52.641z"/>
</g>
</svg>
