<?xml version="1.0" encoding="iso-8859-1"?>
<!-- Generator: Adobe Illustrator 17.1.0, SVG Export Plug-In . SVG Version: 6.00 Build 0)  -->
<!DOCTYPE svg PUBLIC "-//W3C//DTD SVG 1.1//EN" "http://www.w3.org/Graphics/SVG/1.1/DTD/svg11.dtd">
<svg version="1.1" id="Capa_1" xmlns="http://www.w3.org/2000/svg" xmlns:xlink="http://www.w3.org/1999/xlink" x="0px" y="0px"
	 viewBox="0 0 64 64" style="enable-background:new 0 0 64 64;" xml:space="preserve">
<g>
	<path d="M59.539,46.297l-5.91,4.367c-0.354,0.262-1.094,0.284-1.465,0.038l-5.178-3.414c-1.332-0.88-3.348-0.89-4.685-0.02
		l-5.303,3.441c-0.408,0.262-1.236,0.268-1.647,0.01l-5.511-3.481c-1.375-0.866-3.39-0.783-4.689,0.194l-4.28,3.224
		c-0.354,0.268-1.089,0.293-1.461,0.051l-5.302-3.438c-1.395-0.907-3.411-0.786-4.688,0.28l-5.133,4.281
		c-0.598,0.498-0.678,1.386-0.181,1.984c0.28,0.334,0.681,0.507,1.084,0.507c0.318,0,0.639-0.108,0.901-0.327l5.134-4.281
		c0.325-0.272,0.991-0.312,1.348-0.081l5.303,3.439c1.371,0.891,3.388,0.818,4.69-0.164l4.281-3.224
		c0.357-0.271,1.108-0.303,1.487-0.062l5.511,3.48c1.341,0.845,3.353,0.833,4.685-0.029l5.303-3.441
		c0.4-0.258,1.205-0.254,1.6,0.008l5.178,3.413c1.361,0.901,3.381,0.848,4.693-0.122l5.91-4.368
		c0.625-0.463,0.756-1.346,0.295-1.971C61.046,45.965,60.164,45.833,59.539,46.297z"/>
	<path d="M29.765,45.027l5.438,3.435c0.043,0.006,0.136,0.005,0.178-0.001l0.118-0.077v-1l0.531,0.656l4.579-2.972
		c0.283-0.185,0.597-0.328,0.922-0.453l-2.702-4.209c-0.447-0.697-1.413-1.448-2.197-1.71l-6.305-2.102
		c-0.607-0.202-1.495-0.76-1.94-1.217l-6.2-6.366c-0.381-0.393-0.606-1.203-0.481-1.734l2.135-8.39
		c0.001-0.003,0.001-0.005,0.002-0.008c0.395,0.094,0.802,0.156,1.226,0.156c2.935,0,5.315-2.379,5.315-5.314
		c0-2.937-2.38-5.315-5.315-5.315c-2.935,0-5.315,2.379-5.315,5.315l-3.823,14.402c-0.243,0.835-0.024,2.032,0.497,2.726
		l6.887,9.184c0.368,0.491,0.68,1.425,0.68,2.039v2.833C25.734,43.972,28.116,43.989,29.765,45.027z"/>
	<path d="M42.88,28.917c0-2.102-0.988-3.736-2.363-4.035c-0.738-1.263-2.427-3.196-5.842-3.196c-3.567,0.001-5.229,1.918-5.94,3.193
		c-1.383,0.29-2.378,1.93-2.378,4.038c0,2.328,1.213,4.083,2.821,4.083c0.076,0,0.146-0.023,0.221-0.03
		c1.753,2.659,5.272,3.604,8.151,2.088c0.965-0.509,1.742-1.235,2.303-2.086C39.923,32.978,39.988,33,40.059,33
		C41.667,33,42.88,31.245,42.88,28.917z"/>
</g>
</svg>
