<?xml version="1.0" encoding="iso-8859-1"?>
<!-- Generator: Adobe Illustrator 17.1.0, SVG Export Plug-In . SVG Version: 6.00 Build 0)  -->
<!DOCTYPE svg PUBLIC "-//W3C//DTD SVG 1.1//EN" "http://www.w3.org/Graphics/SVG/1.1/DTD/svg11.dtd">
<svg version="1.1" id="Capa_1" xmlns="http://www.w3.org/2000/svg" xmlns:xlink="http://www.w3.org/1999/xlink" x="0px" y="0px"
	 viewBox="0 0 64 64" style="enable-background:new 0 0 64 64;" xml:space="preserve">
<g>
	<path d="M45.111,55.066l8.131-9.104c0.329-0.369,0.597-1.069,0.597-1.564v-1.939c0-0.495-0.384-0.776-0.857-0.632l-1.902,0.111
		c-0.474,0.145-0.925,0.658-1.011,1.145l-0.214,1.221c-0.085,0.487-0.412,1.188-0.73,1.567l-1.293,1.536l-8.239,9.5
		c-0.708,0.817-0.406,1.479,0.675,1.479c1.081,0,2.531-0.66,3.241-1.477L45.111,55.066z"/>
	<path d="M33.167,3.06c-0.997-0.856-2.498-0.742-3.354,0.255l-9.394,10.94c-0.301,0.35-0.493,0.78-0.554,1.237L17.5,33.345
		c-0.218,1.647,0.342,3.81,1.332,5.144l13.693,18.449c0.108,0.146,0.233,0.272,0.366,0.386l-0.115,0.121
		c-0.907,0.951-0.703,1.758-0.574,2.061c0.13,0.303,0.574,1.009,1.887,1.009h1.101c1.304,0,2.918-0.704,3.853-1.655
		c-0.021,0-0.042,0.004-0.062,0.004c-1.081,0-1.383-0.661-0.674-1.478l8.238-9.501l1.294-1.535c0.01-0.013,0.021-0.031,0.032-0.046
		l0.203-0.983c0.103-0.505-0.002-0.982-0.297-1.345c-0.355-0.435-0.954-0.626-1.562-0.496l-2.053,0.442
		c-0.865,0.184-1.63,0.945-1.82,1.806l-0.358,1.61c-0.067,0.305-0.348,0.825-0.567,1.056l-0.919,0.963l-0.269,0.282L28.519,34.051
		V22.463h12.246l-1.768,2.935c-0.285,0.473-0.133,1.088,0.34,1.373c0.162,0.098,0.339,0.144,0.515,0.144
		c0.339,0,0.67-0.172,0.858-0.484l0.604-1.003l6.021,0.953l8.756,3.929c0.133,0.06,0.272,0.088,0.409,0.088
		c0.382,0,0.747-0.22,0.913-0.591c0.227-0.504,0.001-1.095-0.503-1.321l-8.599-3.859l-3.305-5.328l0.433-0.719
		c0.285-0.473,0.133-1.088-0.34-1.373c-0.473-0.287-1.088-0.133-1.372,0.34l-1.159,1.924c-0.344-0.49-0.911-0.813-1.556-0.813
		H24.245l0.244-1.841l0.788-0.918c0.881,0.873,2.093,1.414,3.431,1.414c2.694,0,4.878-2.184,4.878-4.878
		c0-1.605-0.785-3.016-1.981-3.905l1.818-2.117C34.277,5.417,34.163,3.915,33.167,3.06z M45.621,24.083l-3.193-0.505l1.419-2.355
		L45.621,24.083z M29.31,43.024l7.588,10.101l-0.37,0.387l-0.35,0.366L28.4,43.4L29.31,43.024z"/>
</g>
</svg>
