<?xml version="1.0" encoding="iso-8859-1"?>
<!-- Generator: Adobe Illustrator 17.1.0, SVG Export Plug-In . SVG Version: 6.00 Build 0)  -->
<!DOCTYPE svg PUBLIC "-//W3C//DTD SVG 1.1//EN" "http://www.w3.org/Graphics/SVG/1.1/DTD/svg11.dtd">
<svg version="1.1" id="Capa_1" xmlns="http://www.w3.org/2000/svg" xmlns:xlink="http://www.w3.org/1999/xlink" x="0px" y="0px"
	 viewBox="0 0 64 64" style="enable-background:new 0 0 64 64;" xml:space="preserve">
<g>
	<path d="M47.229,17.601c2.55,0,4.625-2.075,4.625-4.625s-2.075-4.625-4.625-4.625s-4.625,2.075-4.625,4.625
		S44.679,17.601,47.229,17.601z"/>
	<path d="M14.387,50.796c2.626,0.63,8.719,1.632,14.997,2.595c0.094,0.047,0.184,0.098,0.286,0.134
		c0.275,0.097,0.555,0.143,0.831,0.143c0.146,0,0.289-0.016,0.43-0.041c8.217,1.247,16.293,2.371,16.898,2.456
		c0.094,0.013,0.186,0.019,0.278,0.019c0.982,0,1.839-0.725,1.979-1.725c0.151-1.095-0.612-2.105-1.706-2.257
		c-0.138-0.019-7.159-0.996-14.81-2.142l3.626-10.293l11.311,3.968c0.765,0.266,1.611,0.148,2.273-0.32
		c0.661-0.469,1.054-1.229,1.054-2.039V21.5c0-0.677-0.274-1.325-0.761-1.796c-0.485-0.471-1.111-0.721-1.82-0.703l-18.606,0.601
		c-0.327,0.01-0.635,0.087-0.917,0.211v-1.712c0-0.552-0.448-1-1-1c-0.552,0-1,0.448-1,1v3.031L9.072,21.726
		c-0.552,0.018-0.985,0.479-0.968,1.031c0.017,0.542,0.461,0.968,0.999,0.968c0.011,0,0.021,0,0.032,0l18.593-0.592v2.968
		c0,0.552,0.448,1,1,1c0.552,0,1-0.448,1-1v-1.71c0.331,0.145,0.695,0.227,1.079,0.208l12.296-0.397v12.257l-6.609-2.318
		c-1.302-0.456-2.727,0.228-3.185,1.528l-4.771,13.543c-5.658-0.877-10.915-1.753-13.217-2.305
		c-4.638-1.113-5.258-3.086-5.264-3.105c0.02,0.069,0.022,0.108,0.022,0.108l-3.95,0.633C6.202,44.997,7.052,49.036,14.387,50.796z"
		/>
</g>
</svg>
