<?xml version="1.0" encoding="iso-8859-1"?>
<!-- Generator: Adobe Illustrator 17.1.0, SVG Export Plug-In . SVG Version: 6.00 Build 0)  -->
<!DOCTYPE svg PUBLIC "-//W3C//DTD SVG 1.1//EN" "http://www.w3.org/Graphics/SVG/1.1/DTD/svg11.dtd">
<svg version="1.1" id="Capa_1" xmlns="http://www.w3.org/2000/svg" xmlns:xlink="http://www.w3.org/1999/xlink" x="0px" y="0px"
	 viewBox="0 0 64 64" style="enable-background:new 0 0 64 64;" xml:space="preserve">
<g>
	<path d="M32.772,31.381c2.174,0,3.93-1.768,3.93-3.935c0-2.181-1.756-3.935-3.93-3.935c-2.166,0-3.934,1.754-3.934,3.935
		C28.839,29.613,30.606,31.381,32.772,31.381z"/>
	<path d="M9.711,26.997h0.828c1.221,0,2.211-0.99,2.211-2.211v-1.911h6.772c0.006,0.01,0.008,0.021,0.014,0.03l7.527,12.523v11.001
		l-5.213-0.737c-1.215-0.168-2.375,0.563-2.738,1.734l-3.072,9.893c-0.409,1.318,0.328,2.72,1.646,3.129
		c1.318,0.406,2.719-0.327,3.129-1.646l2.441-7.861l9.083,1.285c0.234,0.033,0.472,0.032,0.704-0.001l8.962-1.281l2.44,7.858
		c0.333,1.072,1.32,1.76,2.387,1.76c0.246,0,0.495-0.037,0.742-0.113c1.318-0.409,2.056-1.81,1.646-3.129l-3.072-9.893
		c-0.364-1.173-1.531-1.913-2.741-1.733l-4.931,0.705V35.125c0-0.131-0.014-0.259-0.039-0.383l7.115-11.836
		c0.006-0.01,0.009-0.02,0.014-0.03h6.557v1.911c0,1.221,0.99,2.211,2.211,2.211h0.828c1.221,0,2.211-0.99,2.211-2.211v-5.822
		c0-1.221-0.99-2.211-2.211-2.211h-0.828c-1.221,0-2.211,0.99-2.211,2.211v1.911h-6.563c-0.164-0.283-0.391-0.534-0.692-0.714
		c-0.946-0.569-2.176-0.262-2.744,0.684l-0.018,0.03H22.982l-0.018-0.03c-0.568-0.947-1.798-1.253-2.744-0.684
		c-0.3,0.18-0.528,0.431-0.692,0.714H12.75v-1.911c0-1.221-0.99-2.211-2.211-2.211H9.711c-1.221,0-2.211,0.99-2.211,2.211v5.822
		C7.5,26.007,8.49,26.997,9.711,26.997z M40.906,22.875l-6.161,10.25h-4.399l-6.161-10.25H40.906z"/>
</g>
</svg>
