<?xml version="1.0" encoding="iso-8859-1"?>
<!-- Generator: Adobe Illustrator 17.1.0, SVG Export Plug-In . SVG Version: 6.00 Build 0)  -->
<!DOCTYPE svg PUBLIC "-//W3C//DTD SVG 1.1//EN" "http://www.w3.org/Graphics/SVG/1.1/DTD/svg11.dtd">
<svg version="1.1" id="Capa_1" xmlns="http://www.w3.org/2000/svg" xmlns:xlink="http://www.w3.org/1999/xlink" x="0px" y="0px"
	 viewBox="0 0 64 64" style="enable-background:new 0 0 64 64;" xml:space="preserve">
<g>
	<path d="M59.639,14.656h-0.982c-1.448,0-2.623,1.174-2.623,2.622v2.267H42.201c-0.365-0.385-0.877-0.628-1.449-0.628
		c-0.572,0-1.084,0.243-1.449,0.628H26.136c-0.365-0.385-0.877-0.628-1.449-0.628s-1.084,0.243-1.449,0.628H9.331v-2.267
		c0-1.448-1.174-2.622-2.622-2.622H5.727c-1.448,0-2.623,1.174-2.623,2.622v6.905c0,1.448,1.174,2.621,2.623,2.621h0.982
		c1.448,0,2.622-1.173,2.622-2.621v-2.267h13.356v8.833c0,0.706,0.372,1.359,0.979,1.72l3.31,1.965v10.948l-0.458-0.042
		c-0.705-0.059-1.395,0.169-1.915,0.642c-0.52,0.475-0.815,1.145-0.815,1.848v8.893c0,1.381,1.119,2.5,2.5,2.5s2.5-1.119,2.5-2.5
		v-6.152l3.585,0.331c0.157,0.014,0.314,0.015,0.469-0.001l3.356-0.322l0.054,6.166c0.012,1.374,1.129,2.479,2.5,2.479
		c0.007,0,0.015,0,0.022,0c1.381-0.013,2.49-1.142,2.478-2.521l-0.078-8.893c-0.006-0.701-0.306-1.367-0.827-1.836
		c-0.52-0.47-1.213-0.701-1.912-0.631l-0.045,0.004V34.478l3.383-2.009c0.607-0.36,0.979-1.014,0.979-1.72v-8.833h13.283v2.267
		c0,1.448,1.174,2.621,2.623,2.621h0.982c1.448,0,2.622-1.173,2.622-2.621v-6.905C62.262,15.83,61.087,14.656,59.639,14.656z
		 M38.752,29.611l-3.085,1.832c-0.161,0.096-0.296,0.216-0.419,0.345h-5.055c-0.123-0.129-0.259-0.249-0.419-0.345l-3.085-1.832
		v-7.694h12.065V29.611z"/>
	<path d="M32.685,31.044c2.174,0,3.93-1.768,3.93-3.935c0-2.181-1.756-3.935-3.93-3.935c-2.166,0-3.934,1.754-3.934,3.935
		C28.752,29.276,30.519,31.044,32.685,31.044z"/>
</g>
</svg>
