<?xml version="1.0" encoding="iso-8859-1"?>
<!-- Generator: Adobe Illustrator 17.1.0, SVG Export Plug-In . SVG Version: 6.00 Build 0)  -->
<!DOCTYPE svg PUBLIC "-//W3C//DTD SVG 1.1//EN" "http://www.w3.org/Graphics/SVG/1.1/DTD/svg11.dtd">
<svg version="1.1" id="Capa_1" xmlns="http://www.w3.org/2000/svg" xmlns:xlink="http://www.w3.org/1999/xlink" x="0px" y="0px"
	 viewBox="0 0 64 64" style="enable-background:new 0 0 64 64;" xml:space="preserve">
<g>
	<path style="fill:#1D1D1B;" d="M23.093,44.367l-3.226,12.099c-0.355,1.334,0.438,2.703,1.772,3.06
		c0.215,0.058,0.432,0.085,0.646,0.085c1.104,0,2.115-0.738,2.414-1.857l2.843-10.663l7.066-1.714l3.006,8.532
		c0.253,0.717,0.818,1.28,1.537,1.53l11.595,4.032c0.271,0.095,0.549,0.14,0.821,0.14c1.034,0,2.002-0.647,2.361-1.68
		c0.453-1.305-0.236-2.729-1.54-3.183L41.93,51.111l-4.809-13.652l-2.244-10.097c-0.059-0.267-0.17-0.508-0.317-0.716l4.731-10.506
		c0.05-0.111,0.084-0.224,0.113-0.338c0.196,0.016,0.393,0.03,0.594,0.03c3.929,0,7.113-3.184,7.113-7.112s-3.184-7.112-7.113-7.112
		c-3.414,0-6.263,2.405-6.952,5.612h-7.335c-0.689-3.208-3.538-5.612-6.952-5.612c-3.929,0-7.113,3.184-7.113,7.112
		s3.185,7.112,7.113,7.112c1.44,0,2.778-0.431,3.898-1.166l0.509,1.752c-1.354,1.008-2.237,2.616-2.237,4.441
		c0,2.913,2.271,5.309,5.13,5.519l0.39,1.343c-0.417,0.472-0.645,1.109-0.559,1.751l0.346,2.574
		c0.147,1.095,0.571,2.824,0.947,3.863l2.038,5.627l-4.302,1.044C24.029,42.797,23.329,43.482,23.093,44.367z M35.645,14.497
		L30.289,26.39l-0.055,0.013l-0.347-1.196C31.173,24.192,32,22.62,32,20.858c0-2.882-2.179-5.235-4.979-5.512l-1.394-4.798
		c0.029-0.109,0.061-0.217,0.084-0.328h7.335c0.363,1.692,1.331,3.155,2.663,4.165C35.689,14.423,35.663,14.457,35.645,14.497z
		 M39.998,5.55c1.751,0,3.17,1.419,3.17,3.17c0,1.751-1.419,3.17-3.17,3.17c-1.205,0-2.24-0.68-2.776-1.67h2.18
		c0.185,0.074,0.385,0.117,0.597,0.117c0.893,0,1.615-0.725,1.615-1.617c0-0.893-0.723-1.617-1.615-1.617
		c-0.211,0-0.412,0.043-0.597,0.117h-2.179C37.758,6.23,38.793,5.55,39.998,5.55z M18.76,11.89c-1.751,0-3.17-1.419-3.17-3.17
		c0-1.751,1.419-3.17,3.17-3.17c1.205,0,2.24,0.68,2.776,1.67h-2.179c-0.185-0.074-0.386-0.117-0.597-0.117
		c-0.893,0-1.615,0.725-1.615,1.617c0,0.893,0.723,1.617,1.615,1.617c0.211,0,0.412-0.043,0.597-0.117h2.009l0.059,0.205
		C20.862,11.304,19.882,11.89,18.76,11.89z"/>
</g>
</svg>
