<?xml version="1.0" encoding="iso-8859-1"?>
<!-- Generator: Adobe Illustrator 17.1.0, SVG Export Plug-In . SVG Version: 6.00 Build 0)  -->
<!DOCTYPE svg PUBLIC "-//W3C//DTD SVG 1.1//EN" "http://www.w3.org/Graphics/SVG/1.1/DTD/svg11.dtd">
<svg version="1.1" id="Capa_1" xmlns="http://www.w3.org/2000/svg" xmlns:xlink="http://www.w3.org/1999/xlink" x="0px" y="0px"
	 viewBox="0 0 64 64" style="enable-background:new 0 0 64 64;" xml:space="preserve">
<g>
	<path d="M9.56,53.129c3.083,0,5.58-2.498,5.58-5.58h1.381c0,3.082,2.498,5.58,5.58,5.58c3.082,0,5.58-2.498,5.58-5.58h1.381
		c0,3.082,2.497,5.58,5.58,5.58c3.082,0,5.58-2.498,5.58-5.58h1.38c0,3.082,2.498,5.58,5.58,5.58c3.082,0,5.579-2.498,5.579-5.58
		c0-1.377-0.501-2.636-1.328-3.609c-0.329-0.519-0.705-1.206-1.038-1.841c-0.513-0.979-0.023-1.521,0.88-0.884
		c2.214,1.562,2.175,3.827,1.775,5.413c-0.269,1.071,0.174,1.917,1.276,1.986l5.281,0.329c-0.082-6.575-5.34-9.82-8.239-11.111
		c0.455-0.359,0.793-0.849,0.867-1.393c0.242-1.788,0.151-4.549-1.83-7.146c-2.84-3.721-5.174-12.677-5.908-17.55
		c-0.165-1.093-1.088-1.732-2.181-1.57c-2.39,0.353-6.685,0.51-11.272-1.636c-1-0.469-1.848-0.047-1.887,1.057
		c-0.018,0.505-0.03,1.094-0.03,1.751c0.001,0.553,0.458,1,1.01,1h7.546c0.828,0,1.5,0.672,1.5,1.5c0,0.828-0.672,1.5-1.5,1.5
		h-7.374c-0.552,0-0.96,0.421-0.887,0.936c0.073,0.516,0.607,0.928,1.16,0.928h7.102c0.828,0,1.5,0.672,1.5,1.5
		c0,0.828-0.672,1.5-1.5,1.5h-6.344c-0.552,0-0.891,0.414-0.771,0.928c0.12,0.514,0.647,0.934,1.199,0.934h5.916
		c0.828,0,1.5,0.672,1.5,1.5c0,0.828-0.672,1.5-1.5,1.5h-5.764c-0.552,0-1.055,0.452-1.283,0.955
		c-0.397,0.874-1.164,1.546-2.494,1.906c-5.452,1.477-9.769,2.157-14.88,4.77c-5.111,2.613-2.839,7.044,1.705,6.702l0.417-0.012
		l-0.111,1.651c-0.066,0.992-0.856,2.003-1.575,2.773c-1.021-1.13-2.494-1.845-4.138-1.845c-3.082,0-5.58,2.497-5.58,5.579
		C3.979,50.631,6.477,53.129,9.56,53.129z M45.976,30.315c1.614,0,2.922,1.308,2.922,2.922c0,1.614-1.308,2.922-2.922,2.922
		c-1.613,0-2.922-1.308-2.922-2.922C43.054,31.623,44.362,30.315,45.976,30.315z M39.7,38.715c-0.004,0.125,0.004,0.254,0.026,0.387
		l0.155,0.897c0.187,1.088-0.557,1.996-1.66,2.027l-2.413,0.068c-0.377-0.081-0.767-0.125-1.168-0.125
		c-0.505,0-0.991,0.073-1.457,0.198l-6.889,0.194c-1.104,0.031-2.021-0.839-2.048-1.942l-0.031-1.274L39.7,38.715z"/>
</g>
</svg>
