<?xml version="1.0" encoding="iso-8859-1"?>
<!-- Generator: Adobe Illustrator 17.1.0, SVG Export Plug-In . SVG Version: 6.00 Build 0)  -->
<!DOCTYPE svg PUBLIC "-//W3C//DTD SVG 1.1//EN" "http://www.w3.org/Graphics/SVG/1.1/DTD/svg11.dtd">
<svg version="1.1" id="Capa_1" xmlns="http://www.w3.org/2000/svg" xmlns:xlink="http://www.w3.org/1999/xlink" x="0px" y="0px"
	 viewBox="0 0 64 64" style="enable-background:new 0 0 64 64;" xml:space="preserve">
<path d="M9.801,32.259c0.892,0,1.903-0.187,3.033-0.663c4.556-1.921,7.23-0.546,7.257-0.532c0.08,0.043,0.166,0.055,0.251,0.052
	c0.927,0.67,4.234,2.978,8.204,4.894c-6.766,5.297-12.943,11.009-15.461,13.388c-0.305-0.092-0.62-0.156-0.954-0.156
	c-1.829,0-3.312,1.483-3.312,3.312c0,1.829,1.483,3.312,3.312,3.312c1.782,0,3.227-1.413,3.298-3.179
	c2.118-2.015,8.465-7.943,15.466-13.434c0.853,0.255,1.73,0.109,2.302-0.479c0.21-0.216,0.354-0.474,0.446-0.752
	c1.609,0.473,3.212,0.773,4.713,0.773c2.004,0,3.829-0.523,5.246-1.836c0.381-0.353,0.722-0.697,1.027-1.033
	c0.733,0.087,1.435,0.039,2.088-0.11c2.124,1.013,4.527,1.049,6.474,0.593c3.034-0.71,5.227-2.549,5.586-4.685
	c0.179-1.069,0.02-3.153-3.065-5.098c-1.175-0.742-2.438-1.149-3.747-1.295c-0.317-0.75-0.792-1.441-1.447-2.029
	c-1.385-1.244-3.05-1.778-4.585-1.579c-1.295-0.996-2.529-1.051-3.297-0.94c-2.213,0.315-4.161,2.406-4.848,5.202
	c-0.001,0.003-0.002,0.007-0.003,0.011c-0.107,0.035-0.212,0.073-0.313,0.114c-1.813,0.723-2.675,2.271-2.305,4.144
	c0.132,0.664,0.38,1.266,0.733,1.792c-1.52,1.203-2.694,2.267-3.362,2.896c-0.854-0.693-1.917-0.893-2.745-0.556
	c-3.327-1.563-6.42-3.536-8.266-4.882c-0.02-0.134-0.091-0.26-0.213-0.341c-0.141-0.093-2.645-1.702-6.403-1.469
	c-0.117-0.113-0.233-0.228-0.34-0.356c-2.379-2.854-7.989-3.717-8.227-3.752c-0.267-0.038-0.527,0.148-0.567,0.421
	c-0.041,0.274,0.147,0.528,0.421,0.568c0.053,0.008,5.251,0.811,7.469,3.258c-0.996,0.166-2.061,0.463-3.181,0.952
	c-0.902,0.394-1.725,0.626-2.481,0.756c-2.365-0.901-4.057-3.012-4.081-3.044c-0.17-0.218-0.484-0.257-0.702-0.086
	c-0.218,0.17-0.257,0.484-0.087,0.702c0.072,0.092,0.822,1.036,2.023,1.966c-0.035,0.013-0.071,0.021-0.103,0.043
	c-0.117,0.079-0.188,0.199-0.212,0.328c-1.773-0.47-2.691-1.521-2.757-1.599c-0.177-0.211-0.494-0.239-0.703-0.061
	c-0.211,0.177-0.24,0.49-0.064,0.702c0.021,0.026,1.498,1.727,4.29,2.091C6.376,31.301,7.778,32.259,9.801,32.259z M12.445,30.675
	c-2.316,0.978-4.016,0.574-5.126-0.048c0.169-0.013,0.341-0.03,0.517-0.054c0.679,0.237,1.406,0.389,2.173,0.389
	c0.766,0,1.568-0.147,2.394-0.498c1.29-0.55,2.546-0.772,3.681-0.819c0.009,0.004,0.018,0.009,0.026,0.013
	C15.054,29.791,13.831,30.09,12.445,30.675z M44.945,31.237c-0.057,0.037-0.114,0.073-0.172,0.108
	c-0.454-0.727-0.778-1.426-0.991-2.084c0.098-0.05,0.194-0.099,0.293-0.147c0.197,0.186,0.369,0.39,0.509,0.61
	C44.888,30.206,44.988,30.719,44.945,31.237z M50.535,33.358c1.298-1.613,2.059-3.835,1.917-5.928
	c0.769,0.165,1.503,0.453,2.192,0.888c1.104,0.696,2.374,1.794,2.159,3.075c-0.218,1.297-1.892,2.559-4.069,3.069
	c-1.038,0.245-2.238,0.315-3.42,0.1C49.777,34.2,50.187,33.791,50.535,33.358z M49.181,24.791c0.183,0.164,0.345,0.343,0.486,0.533
	c-0.367,0.035-0.736,0.087-1.106,0.153c-0.172-0.463-0.393-0.93-0.663-1.398c-0.033-0.056-0.065-0.111-0.098-0.165
	C48.271,24.1,48.738,24.393,49.181,24.791z M47.891,31.192c0.829-1.13,1.196-2.417,1.102-3.778c0.481-0.082,0.959-0.134,1.429-0.151
	c0.215,1.642-0.373,3.51-1.444,4.841c-0.379,0.472-1.057,1.164-2.009,1.565c-0.184-0.115-0.362-0.24-0.536-0.377
	c0.143-0.316,0.253-0.62,0.334-0.912C47.192,32.023,47.573,31.625,47.891,31.192z M46.649,29.392
	c-0.111-0.28-0.242-0.525-0.375-0.735c-0.085-0.135-0.178-0.266-0.275-0.392c0.333-0.128,0.669-0.248,1.002-0.355
	C46.989,28.431,46.872,28.927,46.649,29.392z M44.631,24.432c0.23-0.207,0.478-0.372,0.738-0.494c0.31,0.36,0.577,0.761,0.797,1.143
	c0.172,0.297,0.317,0.59,0.436,0.878c-0.77,0.237-1.536,0.527-2.293,0.856c-0.245-0.144-0.5-0.274-0.764-0.392
	C43.71,25.589,44.099,24.91,44.631,24.432z M42.917,22.764c0.204-0.029,0.399-0.028,0.59-0.001
	c-0.072,0.058-0.144,0.119-0.214,0.182c-0.792,0.713-1.391,1.7-1.668,2.886c-0.551-0.104-1.106-0.156-1.648-0.156
	C40.581,24.107,41.739,22.932,42.917,22.764z M42.914,32.138c-0.436,0.12-0.883,0.201-1.329,0.239
	c-0.447-0.381-0.802-0.783-1.082-1.192c0.487-0.321,0.989-0.637,1.501-0.941C42.23,30.858,42.531,31.491,42.914,32.138z
	 M41.473,27.844c0.009,0.125,0.021,0.25,0.036,0.378c-0.624,0.353-1.231,0.724-1.82,1.102c-0.135-0.588-0.162-1.148-0.138-1.637
	C40.166,27.647,40.828,27.701,41.473,27.844z M37.545,28.359c0.032,0.741,0.169,1.46,0.404,2.145
	c-0.153,0.109-0.305,0.219-0.454,0.328c-0.165-0.272-0.293-0.592-0.366-0.966C37.04,29.42,37.012,28.829,37.545,28.359z
	 M37.363,33.453c0.555,0.348,1.196,0.607,1.914,0.767c0.541,0.121,1.1,0.181,1.662,0.187c0.513,0.364,1.018,0.657,1.513,0.887
	c-0.071,0.069-0.142,0.135-0.21,0.198c-1.825,1.69-4.814,1.578-8.027,0.626C34.918,35.475,36.014,34.511,37.363,33.453z
	 M10.885,29.702c1.321-0.577,2.562-0.859,3.694-0.965c0.019,0.015,0.039,0.025,0.057,0.04c-0.841,0.14-1.724,0.382-2.626,0.766
	c-0.588,0.251-1.166,0.364-1.729,0.39C10.481,29.856,10.677,29.792,10.885,29.702z"/>
</svg>
