<?xml version="1.0" encoding="iso-8859-1"?>
<!-- Generator: Adobe Illustrator 17.1.0, SVG Export Plug-In . SVG Version: 6.00 Build 0)  -->
<!DOCTYPE svg PUBLIC "-//W3C//DTD SVG 1.1//EN" "http://www.w3.org/Graphics/SVG/1.1/DTD/svg11.dtd">
<svg version="1.1" id="Capa_1" xmlns="http://www.w3.org/2000/svg" xmlns:xlink="http://www.w3.org/1999/xlink" x="0px" y="0px"
	 viewBox="0 0 64 64" style="enable-background:new 0 0 64 64;" xml:space="preserve">
<g>
	<path d="M58.756,49.004l-5.91,4.367c-0.354,0.262-1.094,0.284-1.465,0.038l-5.178-3.414c-1.332-0.88-3.348-0.89-4.686-0.019
		l-5.303,3.441c-0.408,0.262-1.236,0.268-1.646,0.01l-5.51-3.48c-1.375-0.866-3.391-0.783-4.69,0.194l-4.281,3.224
		c-0.354,0.268-1.088,0.293-1.461,0.051l-5.301-3.438c-1.395-0.907-3.412-0.786-4.688,0.28l-5.133,4.281
		c-0.598,0.498-0.678,1.386-0.182,1.984c0.281,0.334,0.682,0.507,1.084,0.507c0.318,0,0.639-0.108,0.902-0.327l5.133-4.281
		c0.326-0.273,0.992-0.312,1.348-0.081l5.303,3.44c1.371,0.891,3.389,0.818,4.691-0.164l4.281-3.224
		c0.355-0.271,1.107-0.303,1.486-0.062l5.512,3.48c1.34,0.845,3.352,0.833,4.683-0.029l5.303-3.441c0.4-0.258,1.205-0.254,1.6,0.008
		l5.178,3.413c1.361,0.901,3.381,0.848,4.693-0.122l5.91-4.368c0.625-0.463,0.756-1.346,0.295-1.971
		C60.264,48.672,59.381,48.54,58.756,49.004z"/>
	<path d="M38.391,44.936l13.267-8.368c0.934-0.59,1.645-1.964,1.479-3.057C51.011,19.484,36.13,9.999,23.511,7.607
		c-1.085-0.205-1.647,0.516-1.244,1.544l13.703,34.99C36.373,45.17,37.457,45.526,38.391,44.936z"/>
	<path d="M12.639,29.393c1.517,0,2.749-1.232,2.749-2.743c0-1.517-1.232-2.749-2.749-2.749c-1.516,0-2.748,1.232-2.748,2.749
		C9.891,28.16,11.123,29.393,12.639,29.393z"/>
	<path d="M11.041,33.803l2.91,6.639c0.451,0.988,1.459,1.684,2.615,1.684h7.871l4.525,4.352c0.729,0.678,1.869,0.631,2.553-0.093
		c0.677-0.734,0.642-1.874-0.088-2.558l-5.215-4.948c-0.316-0.283-0.688-0.463-1.214-0.463H19.68l-2.406-5.347h2.869
		c0,0,0.603-0.035,0.921-0.283l4.768-2.148c0.348-0.248,0.584-0.664,0.584-1.128c0-0.747-0.613-1.365-1.365-1.365
		c-0.191,0-0.37,0.04-0.44,0.087l-4.387,1.99l-7.724,0.021c-1.657,0.004-2.655,0.803-2.229,1.784
		C10.696,33.008,11.041,33.803,11.041,33.803z"/>
</g>
</svg>
